<?xml version="1.0" encoding="utf-8"?>
<svg xmlns="http://www.w3.org/2000/svg" xmlns:xlink="http://www.w3.org/1999/xlink" width="800" height="300" viewBox="0 0 3200 1200">
<defs>
  <clipPath id="clip760">
    <rect x="0" y="0" width="3200" height="1200"/>
  </clipPath>
</defs>
<path clip-path="url(#clip760)" d="M0 1200 L3200 1200 L3200 0 L0 0  Z" fill="#ffffff" fill-rule="evenodd" fill-opacity="1"/>
<defs>
  <clipPath id="clip761">
    <rect x="1866" y="47" width="1287" height="954"/>
  </clipPath>
</defs>
<path clip-path="url(#clip760)" d="M225.647 1000.1 L1511.88 1000.1 L1511.88 47.2441 L225.647 47.2441  Z" fill="#ffffff" fill-rule="evenodd" fill-opacity="1"/>
<defs>
  <clipPath id="clip762">
    <rect x="225" y="47" width="1287" height="954"/>
  </clipPath>
</defs>
<polyline clip-path="url(#clip762)" style="stroke:#000000; stroke-linecap:round; stroke-linejoin:round; stroke-width:2; stroke-opacity:0.1; fill:none" points="262.05,1000.1 262.05,47.2441 "/>
<polyline clip-path="url(#clip762)" style="stroke:#000000; stroke-linecap:round; stroke-linejoin:round; stroke-width:2; stroke-opacity:0.1; fill:none" points="633.544,1000.1 633.544,47.2441 "/>
<polyline clip-path="url(#clip762)" style="stroke:#000000; stroke-linecap:round; stroke-linejoin:round; stroke-width:2; stroke-opacity:0.1; fill:none" points="1005.04,1000.1 1005.04,47.2441 "/>
<polyline clip-path="url(#clip762)" style="stroke:#000000; stroke-linecap:round; stroke-linejoin:round; stroke-width:2; stroke-opacity:0.1; fill:none" points="1376.53,1000.1 1376.53,47.2441 "/>
<polyline clip-path="url(#clip762)" style="stroke:#000000; stroke-linecap:round; stroke-linejoin:round; stroke-width:2; stroke-opacity:0.1; fill:none" points="225.647,800.145 1511.88,800.145 "/>
<polyline clip-path="url(#clip762)" style="stroke:#000000; stroke-linecap:round; stroke-linejoin:round; stroke-width:2; stroke-opacity:0.1; fill:none" points="225.647,555.641 1511.88,555.641 "/>
<polyline clip-path="url(#clip762)" style="stroke:#000000; stroke-linecap:round; stroke-linejoin:round; stroke-width:2; stroke-opacity:0.1; fill:none" points="225.647,311.136 1511.88,311.136 "/>
<polyline clip-path="url(#clip762)" style="stroke:#000000; stroke-linecap:round; stroke-linejoin:round; stroke-width:2; stroke-opacity:0.1; fill:none" points="225.647,66.6306 1511.88,66.6306 "/>
<polyline clip-path="url(#clip760)" style="stroke:#000000; stroke-linecap:round; stroke-linejoin:round; stroke-width:4; stroke-opacity:1; fill:none" points="225.647,1000.1 1511.88,1000.1 "/>
<polyline clip-path="url(#clip760)" style="stroke:#000000; stroke-linecap:round; stroke-linejoin:round; stroke-width:4; stroke-opacity:1; fill:none" points="262.05,1000.1 262.05,981.2 "/>
<polyline clip-path="url(#clip760)" style="stroke:#000000; stroke-linecap:round; stroke-linejoin:round; stroke-width:4; stroke-opacity:1; fill:none" points="633.544,1000.1 633.544,981.2 "/>
<polyline clip-path="url(#clip760)" style="stroke:#000000; stroke-linecap:round; stroke-linejoin:round; stroke-width:4; stroke-opacity:1; fill:none" points="1005.04,1000.1 1005.04,981.2 "/>
<polyline clip-path="url(#clip760)" style="stroke:#000000; stroke-linecap:round; stroke-linejoin:round; stroke-width:4; stroke-opacity:1; fill:none" points="1376.53,1000.1 1376.53,981.2 "/>
<path clip-path="url(#clip760)" d="M262.05 1037.42 Q258.439 1037.42 256.61 1040.98 Q254.805 1044.52 254.805 1051.65 Q254.805 1058.76 256.61 1062.32 Q258.439 1065.87 262.05 1065.87 Q265.684 1065.87 267.49 1062.32 Q269.319 1058.76 269.319 1051.65 Q269.319 1044.52 267.49 1040.98 Q265.684 1037.42 262.05 1037.42 M262.05 1033.71 Q267.86 1033.71 270.916 1038.32 Q273.994 1042.9 273.994 1051.65 Q273.994 1060.38 270.916 1064.99 Q267.86 1069.57 262.05 1069.57 Q256.24 1069.57 253.161 1064.99 Q250.106 1060.38 250.106 1051.65 Q250.106 1042.9 253.161 1038.32 Q256.24 1033.71 262.05 1033.71 Z" fill="#000000" fill-rule="nonzero" fill-opacity="1" /><path clip-path="url(#clip760)" d="M608.244 1034.34 L626.6 1034.34 L626.6 1038.27 L612.526 1038.27 L612.526 1046.75 Q613.544 1046.4 614.563 1046.24 Q615.582 1046.05 616.6 1046.05 Q622.387 1046.05 625.767 1049.22 Q629.146 1052.39 629.146 1057.81 Q629.146 1063.39 625.674 1066.49 Q622.202 1069.57 615.882 1069.57 Q613.707 1069.57 611.438 1069.2 Q609.193 1068.83 606.785 1068.09 L606.785 1063.39 Q608.869 1064.52 611.091 1065.08 Q613.313 1065.63 615.79 1065.63 Q619.794 1065.63 622.132 1063.53 Q624.47 1061.42 624.47 1057.81 Q624.47 1054.2 622.132 1052.09 Q619.794 1049.99 615.79 1049.99 Q613.915 1049.99 612.04 1050.4 Q610.188 1050.82 608.244 1051.7 L608.244 1034.34 Z" fill="#000000" fill-rule="nonzero" fill-opacity="1" /><path clip-path="url(#clip760)" d="M648.359 1037.42 Q644.748 1037.42 642.919 1040.98 Q641.114 1044.52 641.114 1051.65 Q641.114 1058.76 642.919 1062.32 Q644.748 1065.87 648.359 1065.87 Q651.993 1065.87 653.799 1062.32 Q655.628 1058.76 655.628 1051.65 Q655.628 1044.52 653.799 1040.98 Q651.993 1037.42 648.359 1037.42 M648.359 1033.71 Q654.169 1033.71 657.225 1038.32 Q660.304 1042.9 660.304 1051.65 Q660.304 1060.38 657.225 1064.99 Q654.169 1069.57 648.359 1069.57 Q642.549 1069.57 639.47 1064.99 Q636.415 1060.38 636.415 1051.65 Q636.415 1042.9 639.47 1038.32 Q642.549 1033.71 648.359 1033.71 Z" fill="#000000" fill-rule="nonzero" fill-opacity="1" /><path clip-path="url(#clip760)" d="M964.645 1064.96 L972.284 1064.96 L972.284 1038.6 L963.974 1040.26 L963.974 1036 L972.238 1034.34 L976.914 1034.34 L976.914 1064.96 L984.553 1064.96 L984.553 1068.9 L964.645 1068.9 L964.645 1064.96 Z" fill="#000000" fill-rule="nonzero" fill-opacity="1" /><path clip-path="url(#clip760)" d="M1004 1037.42 Q1000.39 1037.42 998.557 1040.98 Q996.752 1044.52 996.752 1051.65 Q996.752 1058.76 998.557 1062.32 Q1000.39 1065.87 1004 1065.87 Q1007.63 1065.87 1009.44 1062.32 Q1011.27 1058.76 1011.27 1051.65 Q1011.27 1044.52 1009.44 1040.98 Q1007.63 1037.42 1004 1037.42 M1004 1033.71 Q1009.81 1033.71 1012.86 1038.32 Q1015.94 1042.9 1015.94 1051.65 Q1015.94 1060.38 1012.86 1064.99 Q1009.81 1069.57 1004 1069.57 Q998.187 1069.57 995.108 1064.99 Q992.053 1060.38 992.053 1051.65 Q992.053 1042.9 995.108 1038.32 Q998.187 1033.71 1004 1033.71 Z" fill="#000000" fill-rule="nonzero" fill-opacity="1" /><path clip-path="url(#clip760)" d="M1034.16 1037.42 Q1030.55 1037.42 1028.72 1040.98 Q1026.91 1044.52 1026.91 1051.65 Q1026.91 1058.76 1028.72 1062.32 Q1030.55 1065.87 1034.16 1065.87 Q1037.79 1065.87 1039.6 1062.32 Q1041.43 1058.76 1041.43 1051.65 Q1041.43 1044.52 1039.6 1040.98 Q1037.79 1037.42 1034.16 1037.42 M1034.16 1033.71 Q1039.97 1033.71 1043.02 1038.32 Q1046.1 1042.9 1046.1 1051.65 Q1046.1 1060.38 1043.02 1064.99 Q1039.97 1069.57 1034.16 1069.57 Q1028.35 1069.57 1025.27 1064.99 Q1022.21 1060.38 1022.21 1051.65 Q1022.21 1042.9 1025.27 1038.32 Q1028.35 1033.71 1034.16 1033.71 Z" fill="#000000" fill-rule="nonzero" fill-opacity="1" /><path clip-path="url(#clip760)" d="M1336.14 1064.96 L1343.78 1064.96 L1343.78 1038.6 L1335.47 1040.26 L1335.47 1036 L1343.73 1034.34 L1348.41 1034.34 L1348.41 1064.96 L1356.05 1064.96 L1356.05 1068.9 L1336.14 1068.9 L1336.14 1064.96 Z" fill="#000000" fill-rule="nonzero" fill-opacity="1" /><path clip-path="url(#clip760)" d="M1365.54 1034.34 L1383.89 1034.34 L1383.89 1038.27 L1369.82 1038.27 L1369.82 1046.75 Q1370.84 1046.4 1371.86 1046.24 Q1372.88 1046.05 1373.89 1046.05 Q1379.68 1046.05 1383.06 1049.22 Q1386.44 1052.39 1386.44 1057.81 Q1386.44 1063.39 1382.97 1066.49 Q1379.5 1069.57 1373.18 1069.57 Q1371 1069.57 1368.73 1069.2 Q1366.49 1068.83 1364.08 1068.09 L1364.08 1063.39 Q1366.16 1064.52 1368.38 1065.08 Q1370.61 1065.63 1373.08 1065.63 Q1377.09 1065.63 1379.43 1063.53 Q1381.76 1061.42 1381.76 1057.81 Q1381.76 1054.2 1379.43 1052.09 Q1377.09 1049.99 1373.08 1049.99 Q1371.21 1049.99 1369.33 1050.4 Q1367.48 1050.82 1365.54 1051.7 L1365.54 1034.34 Z" fill="#000000" fill-rule="nonzero" fill-opacity="1" /><path clip-path="url(#clip760)" d="M1405.65 1037.42 Q1402.04 1037.42 1400.21 1040.98 Q1398.41 1044.52 1398.41 1051.65 Q1398.41 1058.76 1400.21 1062.32 Q1402.04 1065.87 1405.65 1065.87 Q1409.29 1065.87 1411.09 1062.32 Q1412.92 1058.76 1412.92 1051.65 Q1412.92 1044.52 1411.09 1040.98 Q1409.29 1037.42 1405.65 1037.42 M1405.65 1033.71 Q1411.46 1033.71 1414.52 1038.32 Q1417.6 1042.9 1417.6 1051.65 Q1417.6 1060.38 1414.52 1064.99 Q1411.46 1069.57 1405.65 1069.57 Q1399.84 1069.57 1396.76 1064.99 Q1393.71 1060.38 1393.71 1051.65 Q1393.71 1042.9 1396.76 1038.32 Q1399.84 1033.71 1405.65 1033.71 Z" fill="#000000" fill-rule="nonzero" fill-opacity="1" /><path clip-path="url(#clip760)" d="M758.03 1139.04 Q750.933 1139.04 748.195 1140.67 Q745.458 1142.29 745.458 1146.2 Q745.458 1149.32 747.495 1151.17 Q749.564 1152.98 753.097 1152.98 Q757.967 1152.98 760.895 1149.55 Q763.855 1146.08 763.855 1140.35 L763.855 1139.04 L758.03 1139.04 M769.712 1136.62 L769.712 1156.96 L763.855 1156.96 L763.855 1151.55 Q761.85 1154.8 758.858 1156.36 Q755.866 1157.88 751.537 1157.88 Q746.063 1157.88 742.816 1154.83 Q739.602 1151.74 739.602 1146.59 Q739.602 1140.57 743.612 1137.51 Q747.654 1134.46 755.643 1134.46 L763.855 1134.46 L763.855 1133.89 Q763.855 1129.84 761.181 1127.65 Q758.54 1125.42 753.734 1125.42 Q750.678 1125.42 747.782 1126.15 Q744.885 1126.88 742.212 1128.35 L742.212 1122.94 Q745.426 1121.7 748.45 1121.09 Q751.474 1120.45 754.338 1120.45 Q762.073 1120.45 765.892 1124.46 Q769.712 1128.48 769.712 1136.62 Z" fill="#000000" fill-rule="nonzero" fill-opacity="1" /><path clip-path="url(#clip760)" d="M804.5 1122.36 L804.5 1127.9 Q802.017 1126.63 799.344 1125.99 Q796.67 1125.36 793.806 1125.36 Q789.445 1125.36 787.249 1126.69 Q785.085 1128.03 785.085 1130.7 Q785.085 1132.74 786.644 1133.92 Q788.204 1135.06 792.915 1136.11 L794.92 1136.56 Q801.158 1137.9 803.768 1140.35 Q806.41 1142.77 806.41 1147.13 Q806.41 1152.09 802.463 1154.99 Q798.548 1157.88 791.673 1157.88 Q788.809 1157.88 785.689 1157.31 Q782.602 1156.77 779.165 1155.66 L779.165 1149.61 Q782.411 1151.3 785.562 1152.16 Q788.713 1152.98 791.801 1152.98 Q795.938 1152.98 798.166 1151.58 Q800.394 1150.15 800.394 1147.57 Q800.394 1145.19 798.771 1143.91 Q797.18 1142.64 791.737 1141.46 L789.7 1140.98 Q784.257 1139.84 781.838 1137.48 Q779.419 1135.1 779.419 1130.96 Q779.419 1125.93 782.984 1123.19 Q786.549 1120.45 793.105 1120.45 Q796.352 1120.45 799.217 1120.93 Q802.081 1121.41 804.5 1122.36 Z" fill="#000000" fill-rule="nonzero" fill-opacity="1" /><path clip-path="url(#clip760)" d="M838.461 1122.36 L838.461 1127.9 Q835.979 1126.63 833.305 1125.99 Q830.631 1125.36 827.767 1125.36 Q823.406 1125.36 821.21 1126.69 Q819.046 1128.03 819.046 1130.7 Q819.046 1132.74 820.605 1133.92 Q822.165 1135.06 826.876 1136.11 L828.881 1136.56 Q835.119 1137.9 837.729 1140.35 Q840.371 1142.77 840.371 1147.13 Q840.371 1152.09 836.424 1154.99 Q832.509 1157.88 825.634 1157.88 Q822.77 1157.88 819.65 1157.31 Q816.563 1156.77 813.126 1155.66 L813.126 1149.61 Q816.372 1151.3 819.523 1152.16 Q822.674 1152.98 825.762 1152.98 Q829.899 1152.98 832.127 1151.58 Q834.355 1150.15 834.355 1147.57 Q834.355 1145.19 832.732 1143.91 Q831.141 1142.64 825.698 1141.46 L823.661 1140.98 Q818.218 1139.84 815.799 1137.48 Q813.38 1135.1 813.38 1130.96 Q813.38 1125.93 816.945 1123.19 Q820.51 1120.45 827.067 1120.45 Q830.313 1120.45 833.178 1120.93 Q836.042 1121.41 838.461 1122.36 Z" fill="#000000" fill-rule="nonzero" fill-opacity="1" /><path clip-path="url(#clip760)" d="M880.188 1137.67 L880.188 1140.54 L853.261 1140.54 Q853.643 1146.59 856.89 1149.77 Q860.168 1152.92 865.993 1152.92 Q869.367 1152.92 872.518 1152.09 Q875.701 1151.26 878.82 1149.61 L878.82 1155.15 Q875.669 1156.48 872.359 1157.18 Q869.048 1157.88 865.643 1157.88 Q857.113 1157.88 852.116 1152.92 Q847.15 1147.95 847.15 1139.49 Q847.15 1130.74 851.861 1125.61 Q856.603 1120.45 864.624 1120.45 Q871.817 1120.45 875.987 1125.1 Q880.188 1129.72 880.188 1137.67 M874.332 1135.95 Q874.268 1131.15 871.626 1128.28 Q869.017 1125.42 864.688 1125.42 Q859.786 1125.42 856.826 1128.19 Q853.898 1130.96 853.452 1135.99 L874.332 1135.95 Z" fill="#000000" fill-rule="nonzero" fill-opacity="1" /><path clip-path="url(#clip760)" d="M895.593 1111.19 L895.593 1121.31 L907.656 1121.31 L907.656 1125.87 L895.593 1125.87 L895.593 1145.22 Q895.593 1149.58 896.771 1150.82 Q897.981 1152.06 901.641 1152.06 L907.656 1152.06 L907.656 1156.96 L901.641 1156.96 Q894.861 1156.96 892.283 1154.45 Q889.705 1151.9 889.705 1145.22 L889.705 1125.87 L885.408 1125.87 L885.408 1121.31 L889.705 1121.31 L889.705 1111.19 L895.593 1111.19 Z" fill="#000000" fill-rule="nonzero" fill-opacity="1" /><path clip-path="url(#clip760)" d="M938.084 1122.36 L938.084 1127.9 Q935.602 1126.63 932.928 1125.99 Q930.255 1125.36 927.39 1125.36 Q923.03 1125.36 920.833 1126.69 Q918.669 1128.03 918.669 1130.7 Q918.669 1132.74 920.229 1133.92 Q921.788 1135.06 926.499 1136.11 L928.504 1136.56 Q934.742 1137.9 937.352 1140.35 Q939.994 1142.77 939.994 1147.13 Q939.994 1152.09 936.047 1154.99 Q932.133 1157.88 925.258 1157.88 Q922.393 1157.88 919.274 1157.31 Q916.186 1156.77 912.749 1155.66 L912.749 1149.61 Q915.995 1151.3 919.146 1152.16 Q922.298 1152.98 925.385 1152.98 Q929.523 1152.98 931.751 1151.58 Q933.979 1150.15 933.979 1147.57 Q933.979 1145.19 932.355 1143.91 Q930.764 1142.64 925.321 1141.46 L923.284 1140.98 Q917.842 1139.84 915.423 1137.48 Q913.004 1135.1 913.004 1130.96 Q913.004 1125.93 916.568 1123.19 Q920.133 1120.45 926.69 1120.45 Q929.936 1120.45 932.801 1120.93 Q935.665 1121.41 938.084 1122.36 Z" fill="#000000" fill-rule="nonzero" fill-opacity="1" /><path clip-path="url(#clip760)" d="M986.241 1139.04 Q979.143 1139.04 976.406 1140.67 Q973.669 1142.29 973.669 1146.2 Q973.669 1149.32 975.706 1151.17 Q977.775 1152.98 981.308 1152.98 Q986.177 1152.98 989.106 1149.55 Q992.066 1146.08 992.066 1140.35 L992.066 1139.04 L986.241 1139.04 M997.922 1136.62 L997.922 1156.96 L992.066 1156.96 L992.066 1151.55 Q990.06 1154.8 987.069 1156.36 Q984.077 1157.88 979.748 1157.88 Q974.274 1157.88 971.027 1154.83 Q967.812 1151.74 967.812 1146.59 Q967.812 1140.57 971.823 1137.51 Q975.865 1134.46 983.854 1134.46 L992.066 1134.46 L992.066 1133.89 Q992.066 1129.84 989.392 1127.65 Q986.75 1125.42 981.944 1125.42 Q978.889 1125.42 975.992 1126.15 Q973.096 1126.88 970.422 1128.35 L970.422 1122.94 Q973.637 1121.7 976.661 1121.09 Q979.684 1120.45 982.549 1120.45 Q990.283 1120.45 994.103 1124.46 Q997.922 1128.48 997.922 1136.62 Z" fill="#000000" fill-rule="nonzero" fill-opacity="1" /><polyline clip-path="url(#clip760)" style="stroke:#000000; stroke-linecap:round; stroke-linejoin:round; stroke-width:4; stroke-opacity:1; fill:none" points="225.647,1000.1 225.647,47.2441 "/>
<polyline clip-path="url(#clip760)" style="stroke:#000000; stroke-linecap:round; stroke-linejoin:round; stroke-width:4; stroke-opacity:1; fill:none" points="225.647,800.145 244.545,800.145 "/>
<polyline clip-path="url(#clip760)" style="stroke:#000000; stroke-linecap:round; stroke-linejoin:round; stroke-width:4; stroke-opacity:1; fill:none" points="225.647,555.641 244.545,555.641 "/>
<polyline clip-path="url(#clip760)" style="stroke:#000000; stroke-linecap:round; stroke-linejoin:round; stroke-width:4; stroke-opacity:1; fill:none" points="225.647,311.136 244.545,311.136 "/>
<polyline clip-path="url(#clip760)" style="stroke:#000000; stroke-linecap:round; stroke-linejoin:round; stroke-width:4; stroke-opacity:1; fill:none" points="225.647,66.6306 244.545,66.6306 "/>
<path clip-path="url(#clip760)" d="M161.328 813.49 L177.647 813.49 L177.647 817.425 L155.703 817.425 L155.703 813.49 Q158.365 810.736 162.948 806.106 Q167.555 801.453 168.735 800.111 Q170.981 797.588 171.86 795.852 Q172.763 794.092 172.763 792.402 Q172.763 789.648 170.819 787.912 Q168.897 786.176 165.796 786.176 Q163.596 786.176 161.143 786.94 Q158.712 787.703 155.934 789.254 L155.934 784.532 Q158.759 783.398 161.212 782.819 Q163.666 782.24 165.703 782.24 Q171.073 782.24 174.268 784.926 Q177.462 787.611 177.462 792.102 Q177.462 794.231 176.652 796.152 Q175.865 798.051 173.758 800.643 Q173.18 801.314 170.078 804.532 Q166.976 807.726 161.328 813.49 Z" fill="#000000" fill-rule="nonzero" fill-opacity="1" /><path clip-path="url(#clip760)" d="M168.064 542.435 L156.259 560.884 L168.064 560.884 L168.064 542.435 M166.837 538.361 L172.717 538.361 L172.717 560.884 L177.647 560.884 L177.647 564.772 L172.717 564.772 L172.717 572.921 L168.064 572.921 L168.064 564.772 L152.462 564.772 L152.462 560.259 L166.837 538.361 Z" fill="#000000" fill-rule="nonzero" fill-opacity="1" /><path clip-path="url(#clip760)" d="M166.12 309.272 Q162.971 309.272 161.12 311.425 Q159.291 313.578 159.291 317.328 Q159.291 321.055 161.12 323.23 Q162.971 325.383 166.12 325.383 Q169.268 325.383 171.096 323.23 Q172.948 321.055 172.948 317.328 Q172.948 313.578 171.096 311.425 Q169.268 309.272 166.12 309.272 M175.402 294.619 L175.402 298.879 Q173.643 298.045 171.837 297.606 Q170.055 297.166 168.296 297.166 Q163.666 297.166 161.212 300.291 Q158.782 303.416 158.434 309.735 Q159.8 307.721 161.86 306.656 Q163.921 305.568 166.397 305.568 Q171.606 305.568 174.615 308.74 Q177.647 311.888 177.647 317.328 Q177.647 322.652 174.499 325.869 Q171.351 329.087 166.12 329.087 Q160.124 329.087 156.953 324.504 Q153.782 319.897 153.782 311.17 Q153.782 302.976 157.671 298.115 Q161.559 293.231 168.11 293.231 Q169.87 293.231 171.652 293.578 Q173.458 293.925 175.402 294.619 Z" fill="#000000" fill-rule="nonzero" fill-opacity="1" /><path clip-path="url(#clip760)" d="M165.796 67.4987 Q162.462 67.4987 160.541 69.2811 Q158.643 71.0635 158.643 74.1884 Q158.643 77.3134 160.541 79.0958 Q162.462 80.8782 165.796 80.8782 Q169.129 80.8782 171.05 79.0958 Q172.971 77.2903 172.971 74.1884 Q172.971 71.0635 171.05 69.2811 Q169.152 67.4987 165.796 67.4987 M161.12 65.5079 Q158.11 64.7672 156.421 62.707 Q154.754 60.6469 154.754 57.6839 Q154.754 53.5404 157.694 51.133 Q160.657 48.7256 165.796 48.7256 Q170.958 48.7256 173.897 51.133 Q176.837 53.5404 176.837 57.6839 Q176.837 60.6469 175.147 62.707 Q173.481 64.7672 170.495 65.5079 Q173.874 66.295 175.749 68.5866 Q177.647 70.8783 177.647 74.1884 Q177.647 79.2116 174.569 81.8967 Q171.513 84.5819 165.796 84.5819 Q160.078 84.5819 156.999 81.8967 Q153.944 79.2116 153.944 74.1884 Q153.944 70.8783 155.842 68.5866 Q157.74 66.295 161.12 65.5079 M159.407 58.1237 Q159.407 60.8089 161.073 62.3135 Q162.763 63.8181 165.796 63.8181 Q168.805 63.8181 170.495 62.3135 Q172.208 60.8089 172.208 58.1237 Q172.208 55.4385 170.495 53.9339 Q168.805 52.4293 165.796 52.4293 Q162.763 52.4293 161.073 53.9339 Q159.407 55.4385 159.407 58.1237 Z" fill="#000000" fill-rule="nonzero" fill-opacity="1" /><path clip-path="url(#clip760)" d="M55.927 730.954 L61.4015 730.954 Q60.0328 733.437 59.3644 735.951 Q58.6642 738.434 58.6642 740.98 Q58.6642 746.678 62.2927 749.829 Q65.8893 752.98 72.4141 752.98 Q78.939 752.98 82.5674 749.829 Q86.1641 746.678 86.1641 740.98 Q86.1641 738.434 85.4957 735.951 Q84.7954 733.437 83.4268 730.954 L88.8377 730.954 Q89.9835 733.405 90.5564 736.047 Q91.1293 738.657 91.1293 741.617 Q91.1293 749.669 86.0686 754.412 Q81.0078 759.154 72.4141 759.154 Q63.6931 759.154 58.696 754.38 Q53.699 749.574 53.699 741.235 Q53.699 738.529 54.2719 735.951 Q54.813 733.373 55.927 730.954 Z" fill="#000000" fill-rule="nonzero" fill-opacity="1" /><path clip-path="url(#clip760)" d="M58.6642 706.956 Q58.6642 711.666 62.3563 714.403 Q66.0166 717.141 72.4141 717.141 Q78.8117 717.141 82.5038 714.435 Q86.1641 711.698 86.1641 706.956 Q86.1641 702.277 82.4719 699.539 Q78.7798 696.802 72.4141 696.802 Q66.0803 696.802 62.3881 699.539 Q58.6642 702.277 58.6642 706.956 M53.699 706.956 Q53.699 699.317 58.6642 694.956 Q63.6295 690.596 72.4141 690.596 Q81.167 690.596 86.1641 694.956 Q91.1293 699.317 91.1293 706.956 Q91.1293 714.626 86.1641 718.987 Q81.167 723.315 72.4141 723.315 Q63.6295 723.315 58.6642 718.987 Q53.699 714.626 53.699 706.956 Z" fill="#000000" fill-rule="nonzero" fill-opacity="1" /><path clip-path="url(#clip760)" d="M68.6902 651.256 L90.2063 651.256 L90.2063 657.112 L68.8812 657.112 Q63.8204 657.112 61.306 659.085 Q58.7915 661.059 58.7915 665.006 Q58.7915 669.748 61.8152 672.485 Q64.8389 675.222 70.0588 675.222 L90.2063 675.222 L90.2063 681.111 L54.5583 681.111 L54.5583 675.222 L60.0965 675.222 Q56.8818 673.122 55.2904 670.289 Q53.699 667.424 53.699 663.701 Q53.699 657.558 57.5184 654.407 Q61.306 651.256 68.6902 651.256 Z" fill="#000000" fill-rule="nonzero" fill-opacity="1" /><path clip-path="url(#clip760)" d="M55.6087 616.849 L61.1468 616.849 Q59.8737 619.332 59.2371 622.005 Q58.6006 624.679 58.6006 627.543 Q58.6006 631.904 59.9373 634.1 Q61.2741 636.264 63.9477 636.264 Q65.9848 636.264 67.1624 634.705 Q68.3083 633.145 69.3586 628.435 L69.8042 626.429 Q71.141 620.191 73.5918 617.581 Q76.0108 614.939 80.3713 614.939 Q85.3365 614.939 88.2329 618.886 Q91.1293 622.801 91.1293 629.676 Q91.1293 632.54 90.5564 635.66 Q90.0153 638.747 88.9013 642.184 L82.8539 642.184 Q84.5408 638.938 85.4002 635.787 Q86.2277 632.636 86.2277 629.549 Q86.2277 625.411 84.8273 623.183 Q83.395 620.955 80.8169 620.955 Q78.4297 620.955 77.1566 622.578 Q75.8834 624.169 74.7058 629.612 L74.2284 631.649 Q73.0825 637.092 70.7272 639.511 Q68.3401 641.93 64.2024 641.93 Q59.1735 641.93 56.4362 638.365 Q53.699 634.8 53.699 628.244 Q53.699 624.997 54.1764 622.132 Q54.6538 619.268 55.6087 616.849 Z" fill="#000000" fill-rule="nonzero" fill-opacity="1" /><path clip-path="url(#clip760)" d="M76.1381 606.218 L54.5583 606.218 L54.5583 600.362 L75.9153 600.362 Q80.976 600.362 83.5223 598.388 Q86.0367 596.415 86.0367 592.468 Q86.0367 587.726 83.013 584.989 Q79.9893 582.219 74.7694 582.219 L54.5583 582.219 L54.5583 576.363 L90.2063 576.363 L90.2063 582.219 L84.7318 582.219 Q87.9783 584.352 89.5697 587.185 Q91.1293 589.986 91.1293 593.71 Q91.1293 599.852 87.3099 603.035 Q83.4905 606.218 76.1381 606.218 M53.699 591.482 L53.699 591.482 Z" fill="#000000" fill-rule="nonzero" fill-opacity="1" /><path clip-path="url(#clip760)" d="M61.4015 536.546 Q57.4547 534.349 55.5768 531.294 Q53.699 528.238 53.699 524.101 Q53.699 518.531 57.6139 515.507 Q61.4969 512.483 68.6902 512.483 L90.2063 512.483 L90.2063 518.371 L68.8812 518.371 Q63.7568 518.371 61.2741 520.186 Q58.7915 522 58.7915 525.724 Q58.7915 530.275 61.8152 532.917 Q64.8389 535.559 70.0588 535.559 L90.2063 535.559 L90.2063 541.447 L68.8812 541.447 Q63.7249 541.447 61.2741 543.261 Q58.7915 545.076 58.7915 548.863 Q58.7915 553.351 61.8471 555.993 Q64.8708 558.635 70.0588 558.635 L90.2063 558.635 L90.2063 564.523 L54.5583 564.523 L54.5583 558.635 L60.0965 558.635 Q56.8182 556.629 55.2586 553.828 Q53.699 551.028 53.699 547.176 Q53.699 543.293 55.6723 540.588 Q57.6457 537.851 61.4015 536.546 Z" fill="#000000" fill-rule="nonzero" fill-opacity="1" /><path clip-path="url(#clip760)" d="M84.8591 495.137 L103.765 495.137 L103.765 501.025 L54.5583 501.025 L54.5583 495.137 L59.9692 495.137 Q56.7863 493.291 55.2586 490.49 Q53.699 487.657 53.699 483.742 Q53.699 477.249 58.8552 473.207 Q64.0114 469.133 72.4141 469.133 Q80.8169 469.133 85.9731 473.207 Q91.1293 477.249 91.1293 483.742 Q91.1293 487.657 89.6015 490.49 Q88.0419 493.291 84.8591 495.137 M72.4141 475.212 Q65.9529 475.212 62.2927 477.886 Q58.6006 480.527 58.6006 485.174 Q58.6006 489.821 62.2927 492.495 Q65.9529 495.137 72.4141 495.137 Q78.8753 495.137 82.5674 492.495 Q86.2277 489.821 86.2277 485.174 Q86.2277 480.527 82.5674 477.886 Q78.8753 475.212 72.4141 475.212 Z" fill="#000000" fill-rule="nonzero" fill-opacity="1" /><path clip-path="url(#clip760)" d="M44.4369 453.632 L54.5583 453.632 L54.5583 441.569 L59.1098 441.569 L59.1098 453.632 L78.4616 453.632 Q82.8221 453.632 84.0634 452.455 Q85.3047 451.245 85.3047 447.585 L85.3047 441.569 L90.2063 441.569 L90.2063 447.585 Q90.2063 454.364 87.6918 456.942 Q85.1455 459.52 78.4616 459.52 L59.1098 459.52 L59.1098 463.817 L54.5583 463.817 L54.5583 459.52 L44.4369 459.52 L44.4369 453.632 Z" fill="#000000" fill-rule="nonzero" fill-opacity="1" /><path clip-path="url(#clip760)" d="M54.5583 433.867 L54.5583 428.01 L90.2063 428.01 L90.2063 433.867 L54.5583 433.867 M40.6811 433.867 L40.6811 428.01 L48.0971 428.01 L48.0971 433.867 L40.6811 433.867 Z" fill="#000000" fill-rule="nonzero" fill-opacity="1" /><path clip-path="url(#clip760)" d="M58.6642 401.943 Q58.6642 406.653 62.3563 409.391 Q66.0166 412.128 72.4141 412.128 Q78.8117 412.128 82.5038 409.422 Q86.1641 406.685 86.1641 401.943 Q86.1641 397.264 82.4719 394.527 Q78.7798 391.789 72.4141 391.789 Q66.0803 391.789 62.3881 394.527 Q58.6642 397.264 58.6642 401.943 M53.699 401.943 Q53.699 394.304 58.6642 389.943 Q63.6295 385.583 72.4141 385.583 Q81.167 385.583 86.1641 389.943 Q91.1293 394.304 91.1293 401.943 Q91.1293 409.613 86.1641 413.974 Q81.167 418.303 72.4141 418.303 Q63.6295 418.303 58.6642 413.974 Q53.699 409.613 53.699 401.943 Z" fill="#000000" fill-rule="nonzero" fill-opacity="1" /><path clip-path="url(#clip760)" d="M68.6902 346.243 L90.2063 346.243 L90.2063 352.099 L68.8812 352.099 Q63.8204 352.099 61.306 354.073 Q58.7915 356.046 58.7915 359.993 Q58.7915 364.735 61.8152 367.472 Q64.8389 370.21 70.0588 370.21 L90.2063 370.21 L90.2063 376.098 L54.5583 376.098 L54.5583 370.21 L60.0965 370.21 Q56.8818 368.109 55.2904 365.276 Q53.699 362.412 53.699 358.688 Q53.699 352.545 57.5184 349.394 Q61.306 346.243 68.6902 346.243 Z" fill="#000000" fill-rule="nonzero" fill-opacity="1" /><path clip-path="url(#clip760)" d="M55.927 288.188 L61.4015 288.188 Q60.0328 290.67 59.3644 293.185 Q58.6642 295.667 58.6642 298.213 Q58.6642 303.911 62.2927 307.062 Q65.8893 310.213 72.4141 310.213 Q78.939 310.213 82.5674 307.062 Q86.1641 303.911 86.1641 298.213 Q86.1641 295.667 85.4957 293.185 Q84.7954 290.67 83.4268 288.188 L88.8377 288.188 Q89.9835 290.638 90.5564 293.28 Q91.1293 295.89 91.1293 298.85 Q91.1293 306.903 86.0686 311.645 Q81.0078 316.388 72.4141 316.388 Q63.6931 316.388 58.696 311.613 Q53.699 306.807 53.699 298.468 Q53.699 295.763 54.2719 293.185 Q54.813 290.606 55.927 288.188 Z" fill="#000000" fill-rule="nonzero" fill-opacity="1" /><polyline clip-path="url(#clip762)" style="stroke:#009af9; stroke-linecap:round; stroke-linejoin:round; stroke-width:4; stroke-opacity:1; fill:none" points="262.05,973.13 280.718,929.455 299.386,906.795 318.054,888.467 336.722,872.217 355.39,857.143 374.058,842.8 392.726,828.941 411.395,815.42 430.063,802.142 448.731,789.046 467.399,776.088 486.067,763.236 504.735,750.47 523.403,737.772 542.071,725.129 560.739,712.532 579.407,699.973 598.075,687.445 616.743,674.944 635.411,662.466 654.079,650.008 672.747,637.566 691.415,625.139 710.083,612.725 728.751,600.321 747.42,587.928 766.088,575.544 784.756,563.167 803.424,550.797 822.092,538.433 840.76,526.074 859.428,513.721 878.096,501.372 896.764,489.027 915.432,476.686 934.1,464.348 952.768,452.014 971.436,439.682 990.104,427.353 1008.77,415.026 1027.44,402.701 1046.11,390.378 1064.78,378.057 1083.44,365.738 1102.11,353.42 1120.78,341.104 1139.45,328.789 1158.12,316.476 1176.78,304.164 1195.45,291.852 1214.12,279.542 1232.79,267.233 1251.46,254.925 1270.13,242.618 1288.79,230.311 1307.46,218.005 1326.13,205.7 1344.8,193.396 1363.47,181.092 1382.13,168.789 1400.8,156.487 1419.47,144.185 1438.14,131.883 1456.81,119.582 1475.47,107.282 "/>
<polyline clip-path="url(#clip762)" style="stroke:#e26f46; stroke-linecap:round; stroke-linejoin:round; stroke-width:4; stroke-opacity:1; fill:none" points="262.05,907.31 280.718,892.249 299.386,876.527 318.054,861.864 336.722,847.799 355.39,834.131 374.058,820.746 392.726,807.57 411.395,794.551 430.063,781.655 448.731,768.856 467.399,756.134 486.067,743.474 504.735,730.865 523.403,718.298 542.071,705.766 560.739,693.263 579.407,680.785 598.075,668.329 616.743,655.89 635.411,643.467 654.079,631.058 672.747,618.66 691.415,606.272 710.083,593.894 728.751,581.523 747.42,569.16 766.088,556.802 784.756,544.45 803.424,532.104 822.092,519.761 840.76,507.423 859.428,495.088 878.096,482.757 896.764,470.428 915.432,458.102 934.1,445.779 952.768,433.458 971.436,421.139 990.104,408.822 1008.77,396.506 1027.44,384.193 1046.11,371.88 1064.78,359.569 1083.44,347.259 1102.11,334.951 1120.78,322.643 1139.45,310.337 1158.12,298.031 1176.78,285.727 1195.45,273.423 1214.12,261.12 1232.79,248.817 1251.46,236.515 1270.13,224.214 1288.79,211.914 1307.46,199.614 1326.13,187.314 1344.8,175.016 1363.47,162.717 1382.13,150.419 1400.8,138.121 1419.47,125.824 1438.14,113.527 1456.81,101.231 1475.47,88.9347 "/>
<polyline clip-path="url(#clip762)" style="stroke:#3da44d; stroke-linecap:round; stroke-linejoin:round; stroke-width:4; stroke-opacity:1; fill:none" points="262.05,873.912 280.718,858.784 299.386,844.539 318.054,830.831 336.722,817.793 355.39,808.578 374.058,799.363 392.726,790.148 411.395,778.383 430.063,765.664 448.731,753.013 467.399,740.414 486.067,727.857 504.735,715.335 523.403,702.843 542.071,690.375 560.739,677.929 579.407,665.5 598.075,653.087 616.743,640.687 635.411,628.299 654.079,615.92 672.747,603.551 691.415,591.189 710.083,578.834 728.751,566.485 747.42,554.141 766.088,541.802 784.756,529.467 803.424,517.136 822.092,504.808 840.76,492.483 859.428,480.161 878.096,467.842 896.764,455.525 915.432,443.21 934.1,430.896 952.768,418.585 971.436,406.275 990.104,393.966 1008.77,381.659 1027.44,369.353 1046.11,357.048 1064.78,344.744 1083.44,332.441 1102.11,320.139 1120.78,307.837 1139.45,295.537 1158.12,283.237 1176.78,270.938 1195.45,258.639 1214.12,246.341 1232.79,234.044 1251.46,221.747 1270.13,209.45 1288.79,197.154 1307.46,184.858 1326.13,172.563 1344.8,160.268 1363.47,147.973 1382.13,135.679 1400.8,123.385 1419.47,111.091 1438.14,98.7978 1456.81,86.5046 1475.47,74.2116 "/>
<path clip-path="url(#clip760)" d="M268.522 286.366 L595.87 286.366 L595.87 79.0059 L268.522 79.0059  Z" fill="#ffffff" fill-rule="evenodd" fill-opacity="1"/>
<polyline clip-path="url(#clip760)" style="stroke:#000000; stroke-linecap:round; stroke-linejoin:round; stroke-width:4; stroke-opacity:1; fill:none" points="268.522,286.366 595.87,286.366 595.87,79.0059 268.522,79.0059 268.522,286.366 "/>
<polyline clip-path="url(#clip760)" style="stroke:#009af9; stroke-linecap:round; stroke-linejoin:round; stroke-width:4; stroke-opacity:1; fill:none" points="282.813,130.846 368.562,130.846 "/>
<path clip-path="url(#clip760)" d="M396.696 150.533 Q394.89 155.163 393.177 156.575 Q391.464 157.987 388.594 157.987 L385.191 157.987 L385.191 154.422 L387.691 154.422 Q389.45 154.422 390.423 153.589 Q391.395 152.755 392.575 149.654 L393.339 147.709 L382.853 122.2 L387.367 122.2 L395.469 142.478 L403.571 122.2 L408.084 122.2 L396.696 150.533 Z" fill="#000000" fill-rule="nonzero" fill-opacity="1" /><path clip-path="url(#clip760)" d="M429.589 126.598 L459.265 126.598 L459.265 130.487 L429.589 130.487 L429.589 126.598 M429.589 136.043 L459.265 136.043 L459.265 139.978 L429.589 139.978 L429.589 136.043 Z" fill="#000000" fill-rule="nonzero" fill-opacity="1" /><path clip-path="url(#clip760)" d="M494.427 116.645 Q490.816 116.645 488.987 120.209 Q487.181 123.751 487.181 130.881 Q487.181 137.987 488.987 141.552 Q490.816 145.093 494.427 145.093 Q498.061 145.093 499.866 141.552 Q501.695 137.987 501.695 130.881 Q501.695 123.751 499.866 120.209 Q498.061 116.645 494.427 116.645 M494.427 112.941 Q500.237 112.941 503.292 117.547 Q506.371 122.131 506.371 130.881 Q506.371 139.607 503.292 144.214 Q500.237 148.797 494.427 148.797 Q488.616 148.797 485.538 144.214 Q482.482 139.607 482.482 130.881 Q482.482 122.131 485.538 117.547 Q488.616 112.941 494.427 112.941 Z" fill="#000000" fill-rule="nonzero" fill-opacity="1" /><path clip-path="url(#clip760)" d="M514.589 142.246 L519.473 142.246 L519.473 148.126 L514.589 148.126 L514.589 142.246 Z" fill="#000000" fill-rule="nonzero" fill-opacity="1" /><path clip-path="url(#clip760)" d="M529.704 113.566 L548.061 113.566 L548.061 117.501 L533.987 117.501 L533.987 125.973 Q535.005 125.626 536.024 125.464 Q537.042 125.279 538.061 125.279 Q543.848 125.279 547.227 128.45 Q550.607 131.621 550.607 137.038 Q550.607 142.617 547.135 145.718 Q543.662 148.797 537.343 148.797 Q535.167 148.797 532.899 148.427 Q530.653 148.056 528.246 147.316 L528.246 142.617 Q530.329 143.751 532.551 144.306 Q534.774 144.862 537.25 144.862 Q541.255 144.862 543.593 142.756 Q545.931 140.649 545.931 137.038 Q545.931 133.427 543.593 131.32 Q541.255 129.214 537.25 129.214 Q535.375 129.214 533.5 129.631 Q531.649 130.047 529.704 130.927 L529.704 113.566 Z" fill="#000000" fill-rule="nonzero" fill-opacity="1" /><path clip-path="url(#clip760)" d="M559.959 147.408 L559.959 143.149 Q561.718 143.982 563.523 144.422 Q565.329 144.862 567.065 144.862 Q571.695 144.862 574.125 141.76 Q576.579 138.635 576.926 132.293 Q575.584 134.283 573.523 135.348 Q571.463 136.413 568.963 136.413 Q563.778 136.413 560.746 133.288 Q557.736 130.14 557.736 124.7 Q557.736 119.376 560.885 116.158 Q564.033 112.941 569.264 112.941 Q575.259 112.941 578.408 117.547 Q581.579 122.131 581.579 130.881 Q581.579 139.052 577.69 143.936 Q573.824 148.797 567.273 148.797 Q565.514 148.797 563.709 148.45 Q561.903 148.103 559.959 147.408 M569.264 132.756 Q572.412 132.756 574.241 130.603 Q576.093 128.45 576.093 124.7 Q576.093 120.973 574.241 118.82 Q572.412 116.645 569.264 116.645 Q566.116 116.645 564.264 118.82 Q562.435 120.973 562.435 124.7 Q562.435 128.45 564.264 130.603 Q566.116 132.756 569.264 132.756 Z" fill="#000000" fill-rule="nonzero" fill-opacity="1" /><polyline clip-path="url(#clip760)" style="stroke:#e26f46; stroke-linecap:round; stroke-linejoin:round; stroke-width:4; stroke-opacity:1; fill:none" points="282.813,182.686 368.562,182.686 "/>
<path clip-path="url(#clip760)" d="M396.696 202.373 Q394.89 207.003 393.177 208.415 Q391.464 209.827 388.594 209.827 L385.191 209.827 L385.191 206.262 L387.691 206.262 Q389.45 206.262 390.423 205.429 Q391.395 204.595 392.575 201.494 L393.339 199.549 L382.853 174.04 L387.367 174.04 L395.469 194.318 L403.571 174.04 L408.084 174.04 L396.696 202.373 Z" fill="#000000" fill-rule="nonzero" fill-opacity="1" /><path clip-path="url(#clip760)" d="M429.589 178.438 L459.265 178.438 L459.265 182.327 L429.589 182.327 L429.589 178.438 M429.589 187.883 L459.265 187.883 L459.265 191.818 L429.589 191.818 L429.589 187.883 Z" fill="#000000" fill-rule="nonzero" fill-opacity="1" /><path clip-path="url(#clip760)" d="M485.237 196.031 L492.876 196.031 L492.876 169.665 L484.566 171.332 L484.566 167.073 L492.829 165.406 L497.505 165.406 L497.505 196.031 L505.144 196.031 L505.144 199.966 L485.237 199.966 L485.237 196.031 Z" fill="#000000" fill-rule="nonzero" fill-opacity="1" /><path clip-path="url(#clip760)" d="M514.589 194.086 L519.473 194.086 L519.473 199.966 L514.589 199.966 L514.589 194.086 Z" fill="#000000" fill-rule="nonzero" fill-opacity="1" /><path clip-path="url(#clip760)" d="M530.468 196.031 L538.107 196.031 L538.107 169.665 L529.797 171.332 L529.797 167.073 L538.061 165.406 L542.737 165.406 L542.737 196.031 L550.375 196.031 L550.375 199.966 L530.468 199.966 L530.468 196.031 Z" fill="#000000" fill-rule="nonzero" fill-opacity="1" /><path clip-path="url(#clip760)" d="M563.848 196.031 L580.167 196.031 L580.167 199.966 L558.223 199.966 L558.223 196.031 Q560.885 193.276 565.468 188.646 Q570.074 183.994 571.255 182.651 Q573.5 180.128 574.38 178.392 Q575.283 176.633 575.283 174.943 Q575.283 172.188 573.338 170.452 Q571.417 168.716 568.315 168.716 Q566.116 168.716 563.662 169.48 Q561.232 170.244 558.454 171.795 L558.454 167.073 Q561.278 165.938 563.732 165.36 Q566.185 164.781 568.222 164.781 Q573.593 164.781 576.787 167.466 Q579.982 170.151 579.982 174.642 Q579.982 176.772 579.172 178.693 Q578.384 180.591 576.278 183.184 Q575.699 183.855 572.597 187.072 Q569.496 190.267 563.848 196.031 Z" fill="#000000" fill-rule="nonzero" fill-opacity="1" /><polyline clip-path="url(#clip760)" style="stroke:#3da44d; stroke-linecap:round; stroke-linejoin:round; stroke-width:4; stroke-opacity:1; fill:none" points="282.813,234.526 368.562,234.526 "/>
<path clip-path="url(#clip760)" d="M396.696 254.213 Q394.89 258.843 393.177 260.255 Q391.464 261.667 388.594 261.667 L385.191 261.667 L385.191 258.102 L387.691 258.102 Q389.45 258.102 390.423 257.269 Q391.395 256.435 392.575 253.334 L393.339 251.389 L382.853 225.88 L387.367 225.88 L395.469 246.158 L403.571 225.88 L408.084 225.88 L396.696 254.213 Z" fill="#000000" fill-rule="nonzero" fill-opacity="1" /><path clip-path="url(#clip760)" d="M429.589 230.278 L459.265 230.278 L459.265 234.167 L429.589 234.167 L429.589 230.278 M429.589 239.723 L459.265 239.723 L459.265 243.658 L429.589 243.658 L429.589 239.723 Z" fill="#000000" fill-rule="nonzero" fill-opacity="1" /><path clip-path="url(#clip760)" d="M485.237 247.871 L492.876 247.871 L492.876 221.505 L484.566 223.172 L484.566 218.913 L492.829 217.246 L497.505 217.246 L497.505 247.871 L505.144 247.871 L505.144 251.806 L485.237 251.806 L485.237 247.871 Z" fill="#000000" fill-rule="nonzero" fill-opacity="1" /><path clip-path="url(#clip760)" d="M514.589 245.926 L519.473 245.926 L519.473 251.806 L514.589 251.806 L514.589 245.926 Z" fill="#000000" fill-rule="nonzero" fill-opacity="1" /><path clip-path="url(#clip760)" d="M529.704 217.246 L548.061 217.246 L548.061 221.181 L533.987 221.181 L533.987 229.653 Q535.005 229.306 536.024 229.144 Q537.042 228.959 538.061 228.959 Q543.848 228.959 547.227 232.13 Q550.607 235.301 550.607 240.718 Q550.607 246.297 547.135 249.398 Q543.662 252.477 537.343 252.477 Q535.167 252.477 532.899 252.107 Q530.653 251.736 528.246 250.996 L528.246 246.297 Q530.329 247.431 532.551 247.986 Q534.774 248.542 537.25 248.542 Q541.255 248.542 543.593 246.436 Q545.931 244.329 545.931 240.718 Q545.931 237.107 543.593 235 Q541.255 232.894 537.25 232.894 Q535.375 232.894 533.5 233.311 Q531.649 233.727 529.704 234.607 L529.704 217.246 Z" fill="#000000" fill-rule="nonzero" fill-opacity="1" /><path clip-path="url(#clip760)" d="M559.866 217.246 L578.222 217.246 L578.222 221.181 L564.148 221.181 L564.148 229.653 Q565.167 229.306 566.185 229.144 Q567.204 228.959 568.222 228.959 Q574.01 228.959 577.389 232.13 Q580.769 235.301 580.769 240.718 Q580.769 246.297 577.297 249.398 Q573.824 252.477 567.505 252.477 Q565.329 252.477 563.06 252.107 Q560.815 251.736 558.408 250.996 L558.408 246.297 Q560.491 247.431 562.713 247.986 Q564.935 248.542 567.412 248.542 Q571.417 248.542 573.755 246.436 Q576.093 244.329 576.093 240.718 Q576.093 237.107 573.755 235 Q571.417 232.894 567.412 232.894 Q565.537 232.894 563.662 233.311 Q561.81 233.727 559.866 234.607 L559.866 217.246 Z" fill="#000000" fill-rule="nonzero" fill-opacity="1" /><path clip-path="url(#clip760)" d="M1866.53 1000.1 L3152.76 1000.1 L3152.76 47.2441 L1866.53 47.2441  Z" fill="#ffffff" fill-rule="evenodd" fill-opacity="1"/>
<polyline clip-path="url(#clip761)" style="stroke:#000000; stroke-linecap:round; stroke-linejoin:round; stroke-width:2; stroke-opacity:0.1; fill:none" points="1902.93,1000.1 1902.93,47.2441 "/>
<polyline clip-path="url(#clip761)" style="stroke:#000000; stroke-linecap:round; stroke-linejoin:round; stroke-width:2; stroke-opacity:0.1; fill:none" points="2274.42,1000.1 2274.42,47.2441 "/>
<polyline clip-path="url(#clip761)" style="stroke:#000000; stroke-linecap:round; stroke-linejoin:round; stroke-width:2; stroke-opacity:0.1; fill:none" points="2645.92,1000.1 2645.92,47.2441 "/>
<polyline clip-path="url(#clip761)" style="stroke:#000000; stroke-linecap:round; stroke-linejoin:round; stroke-width:2; stroke-opacity:0.1; fill:none" points="3017.41,1000.1 3017.41,47.2441 "/>
<polyline clip-path="url(#clip761)" style="stroke:#000000; stroke-linecap:round; stroke-linejoin:round; stroke-width:2; stroke-opacity:0.1; fill:none" points="1866.53,902.859 3152.76,902.859 "/>
<polyline clip-path="url(#clip761)" style="stroke:#000000; stroke-linecap:round; stroke-linejoin:round; stroke-width:2; stroke-opacity:0.1; fill:none" points="1866.53,710.823 3152.76,710.823 "/>
<polyline clip-path="url(#clip761)" style="stroke:#000000; stroke-linecap:round; stroke-linejoin:round; stroke-width:2; stroke-opacity:0.1; fill:none" points="1866.53,518.787 3152.76,518.787 "/>
<polyline clip-path="url(#clip761)" style="stroke:#000000; stroke-linecap:round; stroke-linejoin:round; stroke-width:2; stroke-opacity:0.1; fill:none" points="1866.53,326.751 3152.76,326.751 "/>
<polyline clip-path="url(#clip761)" style="stroke:#000000; stroke-linecap:round; stroke-linejoin:round; stroke-width:2; stroke-opacity:0.1; fill:none" points="1866.53,134.715 3152.76,134.715 "/>
<polyline clip-path="url(#clip760)" style="stroke:#000000; stroke-linecap:round; stroke-linejoin:round; stroke-width:4; stroke-opacity:1; fill:none" points="1866.53,1000.1 3152.76,1000.1 "/>
<polyline clip-path="url(#clip760)" style="stroke:#000000; stroke-linecap:round; stroke-linejoin:round; stroke-width:4; stroke-opacity:1; fill:none" points="1902.93,1000.1 1902.93,981.2 "/>
<polyline clip-path="url(#clip760)" style="stroke:#000000; stroke-linecap:round; stroke-linejoin:round; stroke-width:4; stroke-opacity:1; fill:none" points="2274.42,1000.1 2274.42,981.2 "/>
<polyline clip-path="url(#clip760)" style="stroke:#000000; stroke-linecap:round; stroke-linejoin:round; stroke-width:4; stroke-opacity:1; fill:none" points="2645.92,1000.1 2645.92,981.2 "/>
<polyline clip-path="url(#clip760)" style="stroke:#000000; stroke-linecap:round; stroke-linejoin:round; stroke-width:4; stroke-opacity:1; fill:none" points="3017.41,1000.1 3017.41,981.2 "/>
<path clip-path="url(#clip760)" d="M1902.93 1037.42 Q1899.32 1037.42 1897.49 1040.98 Q1895.68 1044.52 1895.68 1051.65 Q1895.68 1058.76 1897.49 1062.32 Q1899.32 1065.87 1902.93 1065.87 Q1906.56 1065.87 1908.37 1062.32 Q1910.2 1058.76 1910.2 1051.65 Q1910.2 1044.52 1908.37 1040.98 Q1906.56 1037.42 1902.93 1037.42 M1902.93 1033.71 Q1908.74 1033.71 1911.8 1038.32 Q1914.87 1042.9 1914.87 1051.65 Q1914.87 1060.38 1911.8 1064.99 Q1908.74 1069.57 1902.93 1069.57 Q1897.12 1069.57 1894.04 1064.99 Q1890.99 1060.38 1890.99 1051.65 Q1890.99 1042.9 1894.04 1038.32 Q1897.12 1033.71 1902.93 1033.71 Z" fill="#000000" fill-rule="nonzero" fill-opacity="1" /><path clip-path="url(#clip760)" d="M2249.12 1034.34 L2267.48 1034.34 L2267.48 1038.27 L2253.41 1038.27 L2253.41 1046.75 Q2254.42 1046.4 2255.44 1046.24 Q2256.46 1046.05 2257.48 1046.05 Q2263.27 1046.05 2266.65 1049.22 Q2270.03 1052.39 2270.03 1057.81 Q2270.03 1063.39 2266.55 1066.49 Q2263.08 1069.57 2256.76 1069.57 Q2254.59 1069.57 2252.32 1069.2 Q2250.07 1068.83 2247.66 1068.09 L2247.66 1063.39 Q2249.75 1064.52 2251.97 1065.08 Q2254.19 1065.63 2256.67 1065.63 Q2260.67 1065.63 2263.01 1063.53 Q2265.35 1061.42 2265.35 1057.81 Q2265.35 1054.2 2263.01 1052.09 Q2260.67 1049.99 2256.67 1049.99 Q2254.79 1049.99 2252.92 1050.4 Q2251.07 1050.82 2249.12 1051.7 L2249.12 1034.34 Z" fill="#000000" fill-rule="nonzero" fill-opacity="1" /><path clip-path="url(#clip760)" d="M2289.24 1037.42 Q2285.63 1037.42 2283.8 1040.98 Q2281.99 1044.52 2281.99 1051.65 Q2281.99 1058.76 2283.8 1062.32 Q2285.63 1065.87 2289.24 1065.87 Q2292.87 1065.87 2294.68 1062.32 Q2296.51 1058.76 2296.51 1051.65 Q2296.51 1044.52 2294.68 1040.98 Q2292.87 1037.42 2289.24 1037.42 M2289.24 1033.71 Q2295.05 1033.71 2298.1 1038.32 Q2301.18 1042.9 2301.18 1051.65 Q2301.18 1060.38 2298.1 1064.99 Q2295.05 1069.57 2289.24 1069.57 Q2283.43 1069.57 2280.35 1064.99 Q2277.29 1060.38 2277.29 1051.65 Q2277.29 1042.9 2280.35 1038.32 Q2283.43 1033.71 2289.24 1033.71 Z" fill="#000000" fill-rule="nonzero" fill-opacity="1" /><path clip-path="url(#clip760)" d="M2605.52 1064.96 L2613.16 1064.96 L2613.16 1038.6 L2604.85 1040.26 L2604.85 1036 L2613.12 1034.34 L2617.79 1034.34 L2617.79 1064.96 L2625.43 1064.96 L2625.43 1068.9 L2605.52 1068.9 L2605.52 1064.96 Z" fill="#000000" fill-rule="nonzero" fill-opacity="1" /><path clip-path="url(#clip760)" d="M2644.88 1037.42 Q2641.27 1037.42 2639.44 1040.98 Q2637.63 1044.52 2637.63 1051.65 Q2637.63 1058.76 2639.44 1062.32 Q2641.27 1065.87 2644.88 1065.87 Q2648.51 1065.87 2650.32 1062.32 Q2652.14 1058.76 2652.14 1051.65 Q2652.14 1044.52 2650.32 1040.98 Q2648.51 1037.42 2644.88 1037.42 M2644.88 1033.71 Q2650.69 1033.71 2653.74 1038.32 Q2656.82 1042.9 2656.82 1051.65 Q2656.82 1060.38 2653.74 1064.99 Q2650.69 1069.57 2644.88 1069.57 Q2639.07 1069.57 2635.99 1064.99 Q2632.93 1060.38 2632.93 1051.65 Q2632.93 1042.9 2635.99 1038.32 Q2639.07 1033.71 2644.88 1033.71 Z" fill="#000000" fill-rule="nonzero" fill-opacity="1" /><path clip-path="url(#clip760)" d="M2675.04 1037.42 Q2671.43 1037.42 2669.6 1040.98 Q2667.79 1044.52 2667.79 1051.65 Q2667.79 1058.76 2669.6 1062.32 Q2671.43 1065.87 2675.04 1065.87 Q2678.67 1065.87 2680.48 1062.32 Q2682.31 1058.76 2682.31 1051.65 Q2682.31 1044.52 2680.48 1040.98 Q2678.67 1037.42 2675.04 1037.42 M2675.04 1033.71 Q2680.85 1033.71 2683.9 1038.32 Q2686.98 1042.9 2686.98 1051.65 Q2686.98 1060.38 2683.9 1064.99 Q2680.85 1069.57 2675.04 1069.57 Q2669.23 1069.57 2666.15 1064.99 Q2663.09 1060.38 2663.09 1051.65 Q2663.09 1042.9 2666.15 1038.32 Q2669.23 1033.71 2675.04 1033.71 Z" fill="#000000" fill-rule="nonzero" fill-opacity="1" /><path clip-path="url(#clip760)" d="M2977.02 1064.96 L2984.66 1064.96 L2984.66 1038.6 L2976.35 1040.26 L2976.35 1036 L2984.61 1034.34 L2989.29 1034.34 L2989.29 1064.96 L2996.93 1064.96 L2996.93 1068.9 L2977.02 1068.9 L2977.02 1064.96 Z" fill="#000000" fill-rule="nonzero" fill-opacity="1" /><path clip-path="url(#clip760)" d="M3006.42 1034.34 L3024.77 1034.34 L3024.77 1038.27 L3010.7 1038.27 L3010.7 1046.75 Q3011.72 1046.4 3012.74 1046.24 Q3013.76 1046.05 3014.77 1046.05 Q3020.56 1046.05 3023.94 1049.22 Q3027.32 1052.39 3027.32 1057.81 Q3027.32 1063.39 3023.85 1066.49 Q3020.38 1069.57 3014.06 1069.57 Q3011.88 1069.57 3009.61 1069.2 Q3007.37 1068.83 3004.96 1068.09 L3004.96 1063.39 Q3007.04 1064.52 3009.26 1065.08 Q3011.49 1065.63 3013.96 1065.63 Q3017.97 1065.63 3020.31 1063.53 Q3022.64 1061.42 3022.64 1057.81 Q3022.64 1054.2 3020.31 1052.09 Q3017.97 1049.99 3013.96 1049.99 Q3012.09 1049.99 3010.21 1050.4 Q3008.36 1050.82 3006.42 1051.7 L3006.42 1034.34 Z" fill="#000000" fill-rule="nonzero" fill-opacity="1" /><path clip-path="url(#clip760)" d="M3046.53 1037.42 Q3042.92 1037.42 3041.09 1040.98 Q3039.29 1044.52 3039.29 1051.65 Q3039.29 1058.76 3041.09 1062.32 Q3042.92 1065.87 3046.53 1065.87 Q3050.17 1065.87 3051.97 1062.32 Q3053.8 1058.76 3053.8 1051.65 Q3053.8 1044.52 3051.97 1040.98 Q3050.17 1037.42 3046.53 1037.42 M3046.53 1033.71 Q3052.34 1033.71 3055.4 1038.32 Q3058.48 1042.9 3058.48 1051.65 Q3058.48 1060.38 3055.4 1064.99 Q3052.34 1069.57 3046.53 1069.57 Q3040.72 1069.57 3037.64 1064.99 Q3034.59 1060.38 3034.59 1051.65 Q3034.59 1042.9 3037.64 1038.32 Q3040.72 1033.71 3046.53 1033.71 Z" fill="#000000" fill-rule="nonzero" fill-opacity="1" /><path clip-path="url(#clip760)" d="M2398.91 1139.04 Q2391.81 1139.04 2389.07 1140.67 Q2386.34 1142.29 2386.34 1146.2 Q2386.34 1149.32 2388.37 1151.17 Q2390.44 1152.98 2393.98 1152.98 Q2398.85 1152.98 2401.77 1149.55 Q2404.73 1146.08 2404.73 1140.35 L2404.73 1139.04 L2398.91 1139.04 M2410.59 1136.62 L2410.59 1156.96 L2404.73 1156.96 L2404.73 1151.55 Q2402.73 1154.8 2399.74 1156.36 Q2396.75 1157.88 2392.42 1157.88 Q2386.94 1157.88 2383.7 1154.83 Q2380.48 1151.74 2380.48 1146.59 Q2380.48 1140.57 2384.49 1137.51 Q2388.53 1134.46 2396.52 1134.46 L2404.73 1134.46 L2404.73 1133.89 Q2404.73 1129.84 2402.06 1127.65 Q2399.42 1125.42 2394.61 1125.42 Q2391.56 1125.42 2388.66 1126.15 Q2385.76 1126.88 2383.09 1128.35 L2383.09 1122.94 Q2386.31 1121.7 2389.33 1121.09 Q2392.35 1120.45 2395.22 1120.45 Q2402.95 1120.45 2406.77 1124.46 Q2410.59 1128.48 2410.59 1136.62 Z" fill="#000000" fill-rule="nonzero" fill-opacity="1" /><path clip-path="url(#clip760)" d="M2445.38 1122.36 L2445.38 1127.9 Q2442.9 1126.63 2440.22 1125.99 Q2437.55 1125.36 2434.69 1125.36 Q2430.32 1125.36 2428.13 1126.69 Q2425.96 1128.03 2425.96 1130.7 Q2425.96 1132.74 2427.52 1133.92 Q2429.08 1135.06 2433.79 1136.11 L2435.8 1136.56 Q2442.04 1137.9 2444.65 1140.35 Q2447.29 1142.77 2447.29 1147.13 Q2447.29 1152.09 2443.34 1154.99 Q2439.43 1157.88 2432.55 1157.88 Q2429.69 1157.88 2426.57 1157.31 Q2423.48 1156.77 2420.04 1155.66 L2420.04 1149.61 Q2423.29 1151.3 2426.44 1152.16 Q2429.59 1152.98 2432.68 1152.98 Q2436.82 1152.98 2439.05 1151.58 Q2441.27 1150.15 2441.27 1147.57 Q2441.27 1145.19 2439.65 1143.91 Q2438.06 1142.64 2432.62 1141.46 L2430.58 1140.98 Q2425.14 1139.84 2422.72 1137.48 Q2420.3 1135.1 2420.3 1130.96 Q2420.3 1125.93 2423.86 1123.19 Q2427.43 1120.45 2433.98 1120.45 Q2437.23 1120.45 2440.1 1120.93 Q2442.96 1121.41 2445.38 1122.36 Z" fill="#000000" fill-rule="nonzero" fill-opacity="1" /><path clip-path="url(#clip760)" d="M2479.34 1122.36 L2479.34 1127.9 Q2476.86 1126.63 2474.18 1125.99 Q2471.51 1125.36 2468.65 1125.36 Q2464.29 1125.36 2462.09 1126.69 Q2459.93 1128.03 2459.93 1130.7 Q2459.93 1132.74 2461.48 1133.92 Q2463.04 1135.06 2467.75 1136.11 L2469.76 1136.56 Q2476 1137.9 2478.61 1140.35 Q2481.25 1142.77 2481.25 1147.13 Q2481.25 1152.09 2477.3 1154.99 Q2473.39 1157.88 2466.51 1157.88 Q2463.65 1157.88 2460.53 1157.31 Q2457.44 1156.77 2454.01 1155.66 L2454.01 1149.61 Q2457.25 1151.3 2460.4 1152.16 Q2463.55 1152.98 2466.64 1152.98 Q2470.78 1152.98 2473.01 1151.58 Q2475.23 1150.15 2475.23 1147.57 Q2475.23 1145.19 2473.61 1143.91 Q2472.02 1142.64 2466.58 1141.46 L2464.54 1140.98 Q2459.1 1139.84 2456.68 1137.48 Q2454.26 1135.1 2454.26 1130.96 Q2454.26 1125.93 2457.82 1123.19 Q2461.39 1120.45 2467.95 1120.45 Q2471.19 1120.45 2474.06 1120.93 Q2476.92 1121.41 2479.34 1122.36 Z" fill="#000000" fill-rule="nonzero" fill-opacity="1" /><path clip-path="url(#clip760)" d="M2521.07 1137.67 L2521.07 1140.54 L2494.14 1140.54 Q2494.52 1146.59 2497.77 1149.77 Q2501.05 1152.92 2506.87 1152.92 Q2510.25 1152.92 2513.4 1152.09 Q2516.58 1151.26 2519.7 1149.61 L2519.7 1155.15 Q2516.55 1156.48 2513.24 1157.18 Q2509.93 1157.88 2506.52 1157.88 Q2497.99 1157.88 2493 1152.92 Q2488.03 1147.95 2488.03 1139.49 Q2488.03 1130.74 2492.74 1125.61 Q2497.48 1120.45 2505.5 1120.45 Q2512.7 1120.45 2516.87 1125.1 Q2521.07 1129.72 2521.07 1137.67 M2515.21 1135.95 Q2515.15 1131.15 2512.51 1128.28 Q2509.9 1125.42 2505.57 1125.42 Q2500.67 1125.42 2497.71 1128.19 Q2494.78 1130.96 2494.33 1135.99 L2515.21 1135.95 Z" fill="#000000" fill-rule="nonzero" fill-opacity="1" /><path clip-path="url(#clip760)" d="M2536.47 1111.19 L2536.47 1121.31 L2548.54 1121.31 L2548.54 1125.87 L2536.47 1125.87 L2536.47 1145.22 Q2536.47 1149.58 2537.65 1150.82 Q2538.86 1152.06 2542.52 1152.06 L2548.54 1152.06 L2548.54 1156.96 L2542.52 1156.96 Q2535.74 1156.96 2533.16 1154.45 Q2530.58 1151.9 2530.58 1145.22 L2530.58 1125.87 L2526.29 1125.87 L2526.29 1121.31 L2530.58 1121.31 L2530.58 1111.19 L2536.47 1111.19 Z" fill="#000000" fill-rule="nonzero" fill-opacity="1" /><path clip-path="url(#clip760)" d="M2578.96 1122.36 L2578.96 1127.9 Q2576.48 1126.63 2573.81 1125.99 Q2571.13 1125.36 2568.27 1125.36 Q2563.91 1125.36 2561.71 1126.69 Q2559.55 1128.03 2559.55 1130.7 Q2559.55 1132.74 2561.11 1133.92 Q2562.67 1135.06 2567.38 1136.11 L2569.38 1136.56 Q2575.62 1137.9 2578.23 1140.35 Q2580.87 1142.77 2580.87 1147.13 Q2580.87 1152.09 2576.93 1154.99 Q2573.01 1157.88 2566.14 1157.88 Q2563.27 1157.88 2560.15 1157.31 Q2557.07 1156.77 2553.63 1155.66 L2553.63 1149.61 Q2556.87 1151.3 2560.03 1152.16 Q2563.18 1152.98 2566.26 1152.98 Q2570.4 1152.98 2572.63 1151.58 Q2574.86 1150.15 2574.86 1147.57 Q2574.86 1145.19 2573.23 1143.91 Q2571.64 1142.64 2566.2 1141.46 L2564.16 1140.98 Q2558.72 1139.84 2556.3 1137.48 Q2553.88 1135.1 2553.88 1130.96 Q2553.88 1125.93 2557.45 1123.19 Q2561.01 1120.45 2567.57 1120.45 Q2570.82 1120.45 2573.68 1120.93 Q2576.54 1121.41 2578.96 1122.36 Z" fill="#000000" fill-rule="nonzero" fill-opacity="1" /><path clip-path="url(#clip760)" d="M2627.12 1139.04 Q2620.02 1139.04 2617.29 1140.67 Q2614.55 1142.29 2614.55 1146.2 Q2614.55 1149.32 2616.59 1151.17 Q2618.65 1152.98 2622.19 1152.98 Q2627.06 1152.98 2629.99 1149.55 Q2632.95 1146.08 2632.95 1140.35 L2632.95 1139.04 L2627.12 1139.04 M2638.8 1136.62 L2638.8 1156.96 L2632.95 1156.96 L2632.95 1151.55 Q2630.94 1154.8 2627.95 1156.36 Q2624.96 1157.88 2620.63 1157.88 Q2615.15 1157.88 2611.91 1154.83 Q2608.69 1151.74 2608.69 1146.59 Q2608.69 1140.57 2612.7 1137.51 Q2616.74 1134.46 2624.73 1134.46 L2632.95 1134.46 L2632.95 1133.89 Q2632.95 1129.84 2630.27 1127.65 Q2627.63 1125.42 2622.82 1125.42 Q2619.77 1125.42 2616.87 1126.15 Q2613.98 1126.88 2611.3 1128.35 L2611.3 1122.94 Q2614.52 1121.7 2617.54 1121.09 Q2620.56 1120.45 2623.43 1120.45 Q2631.16 1120.45 2634.98 1124.46 Q2638.8 1128.48 2638.8 1136.62 Z" fill="#000000" fill-rule="nonzero" fill-opacity="1" /><polyline clip-path="url(#clip760)" style="stroke:#000000; stroke-linecap:round; stroke-linejoin:round; stroke-width:4; stroke-opacity:1; fill:none" points="1866.53,1000.1 1866.53,47.2441 "/>
<polyline clip-path="url(#clip760)" style="stroke:#000000; stroke-linecap:round; stroke-linejoin:round; stroke-width:4; stroke-opacity:1; fill:none" points="1866.53,902.859 1885.42,902.859 "/>
<polyline clip-path="url(#clip760)" style="stroke:#000000; stroke-linecap:round; stroke-linejoin:round; stroke-width:4; stroke-opacity:1; fill:none" points="1866.53,710.823 1885.42,710.823 "/>
<polyline clip-path="url(#clip760)" style="stroke:#000000; stroke-linecap:round; stroke-linejoin:round; stroke-width:4; stroke-opacity:1; fill:none" points="1866.53,518.787 1885.42,518.787 "/>
<polyline clip-path="url(#clip760)" style="stroke:#000000; stroke-linecap:round; stroke-linejoin:round; stroke-width:4; stroke-opacity:1; fill:none" points="1866.53,326.751 1885.42,326.751 "/>
<polyline clip-path="url(#clip760)" style="stroke:#000000; stroke-linecap:round; stroke-linejoin:round; stroke-width:4; stroke-opacity:1; fill:none" points="1866.53,134.715 1885.42,134.715 "/>
<path clip-path="url(#clip760)" d="M1711.58 903.31 L1741.26 903.31 L1741.26 907.246 L1711.58 907.246 L1711.58 903.31 Z" fill="#000000" fill-rule="nonzero" fill-opacity="1" /><path clip-path="url(#clip760)" d="M1755.38 916.204 L1771.7 916.204 L1771.7 920.139 L1749.75 920.139 L1749.75 916.204 Q1752.42 913.449 1757 908.82 Q1761.61 904.167 1762.79 902.824 Q1765.03 900.301 1765.91 898.565 Q1766.81 896.806 1766.81 895.116 Q1766.81 892.361 1764.87 890.625 Q1762.95 888.889 1759.85 888.889 Q1757.65 888.889 1755.19 889.653 Q1752.76 890.417 1749.99 891.968 L1749.99 887.246 Q1752.81 886.111 1755.26 885.533 Q1757.72 884.954 1759.75 884.954 Q1765.12 884.954 1768.32 887.639 Q1771.51 890.324 1771.51 894.815 Q1771.51 896.945 1770.7 898.866 Q1769.92 900.764 1767.81 903.357 Q1767.23 904.028 1764.13 907.246 Q1761.03 910.44 1755.38 916.204 Z" fill="#000000" fill-rule="nonzero" fill-opacity="1" /><path clip-path="url(#clip760)" d="M1781.51 914.259 L1786.4 914.259 L1786.4 920.139 L1781.51 920.139 L1781.51 914.259 Z" fill="#000000" fill-rule="nonzero" fill-opacity="1" /><path clip-path="url(#clip760)" d="M1806.58 888.658 Q1802.97 888.658 1801.14 892.223 Q1799.34 895.764 1799.34 902.894 Q1799.34 910 1801.14 913.565 Q1802.97 917.107 1806.58 917.107 Q1810.22 917.107 1812.02 913.565 Q1813.85 910 1813.85 902.894 Q1813.85 895.764 1812.02 892.223 Q1810.22 888.658 1806.58 888.658 M1806.58 884.954 Q1812.39 884.954 1815.45 889.56 Q1818.53 894.144 1818.53 902.894 Q1818.53 911.621 1815.45 916.227 Q1812.39 920.81 1806.58 920.81 Q1800.77 920.81 1797.69 916.227 Q1794.64 911.621 1794.64 902.894 Q1794.64 894.144 1797.69 889.56 Q1800.77 884.954 1806.58 884.954 Z" fill="#000000" fill-rule="nonzero" fill-opacity="1" /><path clip-path="url(#clip760)" d="M1712.58 711.274 L1742.25 711.274 L1742.25 715.21 L1712.58 715.21 L1712.58 711.274 Z" fill="#000000" fill-rule="nonzero" fill-opacity="1" /><path clip-path="url(#clip760)" d="M1753.16 724.168 L1760.8 724.168 L1760.8 697.802 L1752.49 699.469 L1752.49 695.21 L1760.75 693.543 L1765.43 693.543 L1765.43 724.168 L1773.06 724.168 L1773.06 728.103 L1753.16 728.103 L1753.16 724.168 Z" fill="#000000" fill-rule="nonzero" fill-opacity="1" /><path clip-path="url(#clip760)" d="M1782.51 722.223 L1787.39 722.223 L1787.39 728.103 L1782.51 728.103 L1782.51 722.223 Z" fill="#000000" fill-rule="nonzero" fill-opacity="1" /><path clip-path="url(#clip760)" d="M1797.62 693.543 L1815.98 693.543 L1815.98 697.478 L1801.91 697.478 L1801.91 705.95 Q1802.92 705.603 1803.94 705.441 Q1804.96 705.256 1805.98 705.256 Q1811.77 705.256 1815.15 708.427 Q1818.53 711.598 1818.53 717.015 Q1818.53 722.594 1815.05 725.696 Q1811.58 728.774 1805.26 728.774 Q1803.09 728.774 1800.82 728.404 Q1798.57 728.034 1796.17 727.293 L1796.17 722.594 Q1798.25 723.728 1800.47 724.284 Q1802.69 724.839 1805.17 724.839 Q1809.17 724.839 1811.51 722.733 Q1813.85 720.626 1813.85 717.015 Q1813.85 713.404 1811.51 711.298 Q1809.17 709.191 1805.17 709.191 Q1803.3 709.191 1801.42 709.608 Q1799.57 710.024 1797.62 710.904 L1797.62 693.543 Z" fill="#000000" fill-rule="nonzero" fill-opacity="1" /><path clip-path="url(#clip760)" d="M1711.58 519.238 L1741.26 519.238 L1741.26 523.173 L1711.58 523.173 L1711.58 519.238 Z" fill="#000000" fill-rule="nonzero" fill-opacity="1" /><path clip-path="url(#clip760)" d="M1752.16 532.132 L1759.8 532.132 L1759.8 505.766 L1751.49 507.433 L1751.49 503.174 L1759.75 501.507 L1764.43 501.507 L1764.43 532.132 L1772.07 532.132 L1772.07 536.067 L1752.16 536.067 L1752.16 532.132 Z" fill="#000000" fill-rule="nonzero" fill-opacity="1" /><path clip-path="url(#clip760)" d="M1781.51 530.187 L1786.4 530.187 L1786.4 536.067 L1781.51 536.067 L1781.51 530.187 Z" fill="#000000" fill-rule="nonzero" fill-opacity="1" /><path clip-path="url(#clip760)" d="M1806.58 504.586 Q1802.97 504.586 1801.14 508.15 Q1799.34 511.692 1799.34 518.822 Q1799.34 525.928 1801.14 529.493 Q1802.97 533.035 1806.58 533.035 Q1810.22 533.035 1812.02 529.493 Q1813.85 525.928 1813.85 518.822 Q1813.85 511.692 1812.02 508.15 Q1810.22 504.586 1806.58 504.586 M1806.58 500.882 Q1812.39 500.882 1815.45 505.488 Q1818.53 510.072 1818.53 518.822 Q1818.53 527.548 1815.45 532.155 Q1812.39 536.738 1806.58 536.738 Q1800.77 536.738 1797.69 532.155 Q1794.64 527.548 1794.64 518.822 Q1794.64 510.072 1797.69 505.488 Q1800.77 500.882 1806.58 500.882 Z" fill="#000000" fill-rule="nonzero" fill-opacity="1" /><path clip-path="url(#clip760)" d="M1712.58 327.202 L1742.25 327.202 L1742.25 331.137 L1712.58 331.137 L1712.58 327.202 Z" fill="#000000" fill-rule="nonzero" fill-opacity="1" /><path clip-path="url(#clip760)" d="M1762.35 312.55 Q1758.74 312.55 1756.91 316.114 Q1755.1 319.656 1755.1 326.786 Q1755.1 333.892 1756.91 337.457 Q1758.74 340.998 1762.35 340.998 Q1765.98 340.998 1767.79 337.457 Q1769.61 333.892 1769.61 326.786 Q1769.61 319.656 1767.79 316.114 Q1765.98 312.55 1762.35 312.55 M1762.35 308.846 Q1768.16 308.846 1771.21 313.452 Q1774.29 318.036 1774.29 326.786 Q1774.29 335.512 1771.21 340.119 Q1768.16 344.702 1762.35 344.702 Q1756.54 344.702 1753.46 340.119 Q1750.4 335.512 1750.4 326.786 Q1750.4 318.036 1753.46 313.452 Q1756.54 308.846 1762.35 308.846 Z" fill="#000000" fill-rule="nonzero" fill-opacity="1" /><path clip-path="url(#clip760)" d="M1782.51 338.151 L1787.39 338.151 L1787.39 344.031 L1782.51 344.031 L1782.51 338.151 Z" fill="#000000" fill-rule="nonzero" fill-opacity="1" /><path clip-path="url(#clip760)" d="M1797.62 309.471 L1815.98 309.471 L1815.98 313.406 L1801.91 313.406 L1801.91 321.878 Q1802.92 321.531 1803.94 321.369 Q1804.96 321.184 1805.98 321.184 Q1811.77 321.184 1815.15 324.355 Q1818.53 327.526 1818.53 332.943 Q1818.53 338.522 1815.05 341.623 Q1811.58 344.702 1805.26 344.702 Q1803.09 344.702 1800.82 344.332 Q1798.57 343.961 1796.17 343.221 L1796.17 338.522 Q1798.25 339.656 1800.47 340.211 Q1802.69 340.767 1805.17 340.767 Q1809.17 340.767 1811.51 338.661 Q1813.85 336.554 1813.85 332.943 Q1813.85 329.332 1811.51 327.225 Q1809.17 325.119 1805.17 325.119 Q1803.3 325.119 1801.42 325.536 Q1799.57 325.952 1797.62 326.832 L1797.62 309.471 Z" fill="#000000" fill-rule="nonzero" fill-opacity="1" /><path clip-path="url(#clip760)" d="M1761.35 120.513 Q1757.74 120.513 1755.91 124.078 Q1754.11 127.62 1754.11 134.75 Q1754.11 141.856 1755.91 145.421 Q1757.74 148.962 1761.35 148.962 Q1764.99 148.962 1766.79 145.421 Q1768.62 141.856 1768.62 134.75 Q1768.62 127.62 1766.79 124.078 Q1764.99 120.513 1761.35 120.513 M1761.35 116.81 Q1767.16 116.81 1770.22 121.416 Q1773.3 126 1773.3 134.75 Q1773.3 143.476 1770.22 148.083 Q1767.16 152.666 1761.35 152.666 Q1755.54 152.666 1752.46 148.083 Q1749.41 143.476 1749.41 134.75 Q1749.41 126 1752.46 121.416 Q1755.54 116.81 1761.35 116.81 Z" fill="#000000" fill-rule="nonzero" fill-opacity="1" /><path clip-path="url(#clip760)" d="M1781.51 146.115 L1786.4 146.115 L1786.4 151.995 L1781.51 151.995 L1781.51 146.115 Z" fill="#000000" fill-rule="nonzero" fill-opacity="1" /><path clip-path="url(#clip760)" d="M1806.58 120.513 Q1802.97 120.513 1801.14 124.078 Q1799.34 127.62 1799.34 134.75 Q1799.34 141.856 1801.14 145.421 Q1802.97 148.962 1806.58 148.962 Q1810.22 148.962 1812.02 145.421 Q1813.85 141.856 1813.85 134.75 Q1813.85 127.62 1812.02 124.078 Q1810.22 120.513 1806.58 120.513 M1806.58 116.81 Q1812.39 116.81 1815.45 121.416 Q1818.53 126 1818.53 134.75 Q1818.53 143.476 1815.45 148.083 Q1812.39 152.666 1806.58 152.666 Q1800.77 152.666 1797.69 148.083 Q1794.64 143.476 1794.64 134.75 Q1794.64 126 1797.69 121.416 Q1800.77 116.81 1806.58 116.81 Z" fill="#000000" fill-rule="nonzero" fill-opacity="1" /><path clip-path="url(#clip760)" d="M1614.73 651.319 L1620.27 651.319 Q1618.99 653.802 1618.36 656.475 Q1617.72 659.149 1617.72 662.014 Q1617.72 666.374 1619.06 668.57 Q1620.39 670.735 1623.07 670.735 Q1625.11 670.735 1626.28 669.175 Q1627.43 667.615 1628.48 662.905 L1628.92 660.9 Q1630.26 654.661 1632.71 652.051 Q1635.13 649.41 1639.49 649.41 Q1644.46 649.41 1647.35 653.356 Q1650.25 657.271 1650.25 664.146 Q1650.25 667.011 1649.68 670.13 Q1649.14 673.217 1648.02 676.655 L1641.97 676.655 Q1643.66 673.408 1644.52 670.257 Q1645.35 667.106 1645.35 664.019 Q1645.35 659.881 1643.95 657.653 Q1642.52 655.425 1639.94 655.425 Q1637.55 655.425 1636.28 657.048 Q1635 658.64 1633.83 664.082 L1633.35 666.12 Q1632.2 671.562 1629.85 673.981 Q1627.46 676.4 1623.32 676.4 Q1618.29 676.4 1615.56 672.835 Q1612.82 669.271 1612.82 662.714 Q1612.82 659.467 1613.3 656.603 Q1613.77 653.738 1614.73 651.319 Z" fill="#000000" fill-rule="nonzero" fill-opacity="1" /><path clip-path="url(#clip760)" d="M1631.41 623.883 Q1631.41 630.981 1633.03 633.718 Q1634.65 636.455 1638.57 636.455 Q1641.69 636.455 1643.53 634.418 Q1645.35 632.349 1645.35 628.816 Q1645.35 623.947 1641.91 621.018 Q1638.44 618.058 1632.71 618.058 L1631.41 618.058 L1631.41 623.883 M1628.99 612.202 L1649.33 612.202 L1649.33 618.058 L1643.92 618.058 Q1647.16 620.064 1648.72 623.056 Q1650.25 626.047 1650.25 630.376 Q1650.25 635.851 1647.19 639.097 Q1644.11 642.312 1638.95 642.312 Q1632.94 642.312 1629.88 638.301 Q1626.82 634.259 1626.82 626.27 L1626.82 618.058 L1626.25 618.058 Q1622.21 618.058 1620.01 620.732 Q1617.78 623.374 1617.78 628.18 Q1617.78 631.235 1618.52 634.132 Q1619.25 637.028 1620.71 639.702 L1615.3 639.702 Q1614.06 636.487 1613.46 633.463 Q1612.82 630.44 1612.82 627.575 Q1612.82 619.841 1616.83 616.021 Q1620.84 612.202 1628.99 612.202 Z" fill="#000000" fill-rule="nonzero" fill-opacity="1" /><path clip-path="url(#clip760)" d="M1613.68 604.34 L1613.68 598.134 L1643.6 586.994 L1613.68 575.854 L1613.68 569.647 L1649.33 583.015 L1649.33 590.972 L1613.68 604.34 Z" fill="#000000" fill-rule="nonzero" fill-opacity="1" /><path clip-path="url(#clip760)" d="M1613.68 561.563 L1613.68 555.706 L1649.33 555.706 L1649.33 561.563 L1613.68 561.563 M1599.8 561.563 L1599.8 555.706 L1607.22 555.706 L1607.22 561.563 L1599.8 561.563 Z" fill="#000000" fill-rule="nonzero" fill-opacity="1" /><path clip-path="url(#clip760)" d="M1627.81 513.82 L1649.33 513.82 L1649.33 519.676 L1628 519.676 Q1622.94 519.676 1620.43 521.65 Q1617.91 523.623 1617.91 527.57 Q1617.91 532.312 1620.94 535.05 Q1623.96 537.787 1629.18 537.787 L1649.33 537.787 L1649.33 543.675 L1613.68 543.675 L1613.68 537.787 L1619.22 537.787 Q1616 535.686 1614.41 532.853 Q1612.82 529.989 1612.82 526.265 Q1612.82 520.122 1616.64 516.971 Q1620.43 513.82 1627.81 513.82 Z" fill="#000000" fill-rule="nonzero" fill-opacity="1" /><path clip-path="url(#clip760)" d="M1631.09 478.681 Q1624.72 478.681 1621.22 481.323 Q1617.72 483.933 1617.72 488.675 Q1617.72 493.386 1621.22 496.028 Q1624.72 498.638 1631.09 498.638 Q1637.42 498.638 1640.92 496.028 Q1644.43 493.386 1644.43 488.675 Q1644.43 483.933 1640.92 481.323 Q1637.42 478.681 1631.09 478.681 M1644.9 472.825 Q1654.01 472.825 1658.43 476.867 Q1662.89 480.909 1662.89 489.248 Q1662.89 492.336 1662.41 495.073 Q1661.96 497.81 1661.01 500.388 L1655.31 500.388 Q1656.71 497.81 1657.38 495.296 Q1658.05 492.781 1658.05 490.171 Q1658.05 484.41 1655.02 481.546 Q1652.03 478.681 1645.95 478.681 L1643.06 478.681 Q1646.21 480.496 1647.77 483.328 Q1649.33 486.161 1649.33 490.108 Q1649.33 496.664 1644.33 500.675 Q1639.33 504.685 1631.09 504.685 Q1622.81 504.685 1617.82 500.675 Q1612.82 496.664 1612.82 490.108 Q1612.82 486.161 1614.38 483.328 Q1615.94 480.496 1619.09 478.681 L1613.68 478.681 L1613.68 472.825 L1644.9 472.825 Z" fill="#000000" fill-rule="nonzero" fill-opacity="1" /><path clip-path="url(#clip760)" d="M1662.89 440.646 L1613.68 440.646 L1613.68 434.79 L1635.83 434.79 Q1640.45 434.79 1642.8 432.594 Q1645.16 430.397 1645.16 426.101 Q1645.16 421.39 1642.48 419.035 Q1639.81 416.647 1634.46 416.647 L1613.68 416.647 L1613.68 410.791 L1641.12 410.791 Q1643.02 410.791 1643.95 410.25 Q1644.84 409.677 1644.84 408.499 Q1644.84 408.213 1644.68 407.704 Q1644.49 407.194 1644.11 406.303 L1648.82 406.303 Q1649.55 407.608 1649.9 408.786 Q1650.25 409.932 1650.25 411.046 Q1650.25 413.242 1649.01 414.547 Q1647.77 415.852 1645.22 416.329 Q1647.74 417.921 1649.01 420.244 Q1650.25 422.536 1650.25 425.655 Q1650.25 428.901 1649.01 431.193 Q1647.77 433.453 1645.28 434.79 L1662.89 434.79 L1662.89 440.646 Z" fill="#000000" fill-rule="nonzero" fill-opacity="1" /><path clip-path="url(#clip760)" d="M1631.41 382.368 Q1631.41 389.466 1633.03 392.203 Q1634.65 394.94 1638.57 394.94 Q1641.69 394.94 1643.53 392.903 Q1645.35 390.835 1645.35 387.302 Q1645.35 382.432 1641.91 379.504 Q1638.44 376.544 1632.71 376.544 L1631.41 376.544 L1631.41 382.368 M1628.99 370.687 L1649.33 370.687 L1649.33 376.544 L1643.92 376.544 Q1647.16 378.549 1648.72 381.541 Q1650.25 384.532 1650.25 388.861 Q1650.25 394.336 1647.19 397.582 Q1644.11 400.797 1638.95 400.797 Q1632.94 400.797 1629.88 396.786 Q1626.82 392.744 1626.82 384.755 L1626.82 376.544 L1626.25 376.544 Q1622.21 376.544 1620.01 379.217 Q1617.78 381.859 1617.78 386.665 Q1617.78 389.721 1618.52 392.617 Q1619.25 395.513 1620.71 398.187 L1615.3 398.187 Q1614.06 394.972 1613.46 391.949 Q1612.82 388.925 1612.82 386.06 Q1612.82 378.326 1616.83 374.506 Q1620.84 370.687 1628.99 370.687 Z" fill="#000000" fill-rule="nonzero" fill-opacity="1" /><polyline clip-path="url(#clip761)" style="stroke:#009af9; stroke-linecap:round; stroke-linejoin:round; stroke-width:4; stroke-opacity:1; fill:none" points="1902.93,134.715 1921.6,242.977 1940.27,285.216 1958.93,313.844 1977.6,335.945 1996.27,354.353 2014.94,370.464 2033.61,385.052 2052.27,398.581 2070.94,411.344 2089.61,423.538 2108.28,435.298 2126.95,446.721 2145.61,457.878 2164.28,468.821 2182.95,479.589 2201.62,490.215 2220.29,500.722 2238.95,511.129 2257.62,521.452 2276.29,531.703 2294.96,541.893 2313.63,552.03 2332.29,562.121 2350.96,572.172 2369.63,582.188 2388.3,592.173 2406.97,602.131 2425.64,612.064 2444.3,621.976 2462.97,631.868 2481.64,641.744 2500.31,651.603 2518.98,661.449 2537.64,671.281 2556.31,681.103 2574.98,690.913 2593.65,700.714 2612.32,710.506 2630.98,720.29 2649.65,730.067 2668.32,739.837 2686.99,749.6 2705.66,759.358 2724.32,769.11 2742.99,778.857 2761.66,788.6 2780.33,798.338 2799,808.073 2817.66,817.803 2836.33,827.53 2855,837.254 2873.67,846.974 2892.34,856.692 2911,866.407 2929.67,876.119 2948.34,885.829 2967.01,895.537 2985.68,905.243 3004.34,914.946 3023.01,924.648 3041.68,934.347 3060.35,944.045 3079.02,953.742 3097.69,963.437 3116.35,973.13 "/>
<polyline clip-path="url(#clip761)" style="stroke:#e26f46; stroke-linecap:round; stroke-linejoin:round; stroke-width:4; stroke-opacity:1; fill:none" points="1902.93,134.715 1921.6,153.078 1940.27,173.521 1958.93,190.638 1977.6,205.875 1996.27,219.864 2014.94,232.965 2033.61,245.41 2052.27,257.359 2070.94,268.922 2089.61,280.183 2108.28,291.201 2126.95,302.024 2145.61,312.687 2164.28,323.218 2182.95,333.638 2201.62,343.967 2220.29,354.218 2238.95,364.402 2257.62,374.529 2276.29,384.607 2294.96,394.643 2313.63,404.643 2332.29,414.609 2350.96,424.548 2369.63,434.462 2388.3,444.353 2406.97,454.225 2425.64,464.08 2444.3,473.919 2462.97,483.744 2481.64,493.556 2500.31,503.357 2518.98,513.148 2537.64,522.929 2556.31,532.702 2574.98,542.468 2593.65,552.226 2612.32,561.978 2630.98,571.723 2649.65,581.464 2668.32,591.199 2686.99,600.93 2705.66,610.656 2724.32,620.379 2742.99,630.098 2761.66,639.813 2780.33,649.526 2799,659.235 2817.66,668.942 2836.33,678.646 2855,688.347 2873.67,698.047 2892.34,707.744 2911,717.439 2929.67,727.133 2948.34,736.825 2967.01,746.515 2985.68,756.203 3004.34,765.89 3023.01,775.576 3041.68,785.26 3060.35,794.943 3079.02,804.625 3097.69,814.306 3116.35,823.986 "/>
<polyline clip-path="url(#clip761)" style="stroke:#3da44d; stroke-linecap:round; stroke-linejoin:round; stroke-width:4; stroke-opacity:1; fill:none" points="1902.93,74.2116 1921.6,92.786 1940.27,108.589 1958.93,122.705 1977.6,134.715 1996.27,134.715 2014.94,134.715 2033.61,134.715 2052.27,142.728 2070.94,153.734 2089.61,164.528 2108.28,175.161 2126.95,185.66 2145.61,196.049 2164.28,206.345 2182.95,216.564 2201.62,226.716 2220.29,236.812 2238.95,246.859 2257.62,256.865 2276.29,266.834 2294.96,276.772 2313.63,286.683 2332.29,296.569 2350.96,306.434 2369.63,316.28 2388.3,326.11 2406.97,335.925 2425.64,345.726 2444.3,355.516 2462.97,365.295 2481.64,375.064 2500.31,384.825 2518.98,394.578 2537.64,404.324 2556.31,414.063 2574.98,423.797 2593.65,433.525 2612.32,443.249 2630.98,452.967 2649.65,462.682 2668.32,472.393 2686.99,482.101 2705.66,491.805 2724.32,501.506 2742.99,511.205 2761.66,520.901 2780.33,530.595 2799,540.286 2817.66,549.975 2836.33,559.663 2855,569.349 2873.67,579.033 2892.34,588.715 2911,598.396 2929.67,608.076 2948.34,617.754 2967.01,627.432 2985.68,637.108 3004.34,646.783 3023.01,656.457 3041.68,666.13 3060.35,675.802 3079.02,685.473 3097.69,695.144 3116.35,704.814 "/>
<polyline clip-path="url(#clip761)" style="stroke:#808080; stroke-linecap:round; stroke-linejoin:round; stroke-width:4; stroke-opacity:1; fill:none" stroke-dasharray="16, 10" points="580.298,134.715 4438.99,134.715 "/>
<path clip-path="url(#clip760)" d="M1909.4 968.336 L2236.75 968.336 L2236.75 760.976 L1909.4 760.976  Z" fill="#ffffff" fill-rule="evenodd" fill-opacity="1"/>
<polyline clip-path="url(#clip760)" style="stroke:#000000; stroke-linecap:round; stroke-linejoin:round; stroke-width:4; stroke-opacity:1; fill:none" points="1909.4,968.336 2236.75,968.336 2236.75,760.976 1909.4,760.976 1909.4,968.336 "/>
<polyline clip-path="url(#clip760)" style="stroke:#009af9; stroke-linecap:round; stroke-linejoin:round; stroke-width:4; stroke-opacity:1; fill:none" points="1923.69,812.816 2009.44,812.816 "/>
<path clip-path="url(#clip760)" d="M2037.58 832.503 Q2035.77 837.133 2034.06 838.545 Q2032.34 839.957 2029.47 839.957 L2026.07 839.957 L2026.07 836.392 L2028.57 836.392 Q2030.33 836.392 2031.3 835.559 Q2032.27 834.726 2033.45 831.624 L2034.22 829.679 L2023.73 804.17 L2028.25 804.17 L2036.35 824.448 L2044.45 804.17 L2048.96 804.17 L2037.58 832.503 Z" fill="#000000" fill-rule="nonzero" fill-opacity="1" /><path clip-path="url(#clip760)" d="M2070.47 808.568 L2100.14 808.568 L2100.14 812.457 L2070.47 812.457 L2070.47 808.568 M2070.47 818.013 L2100.14 818.013 L2100.14 821.948 L2070.47 821.948 L2070.47 818.013 Z" fill="#000000" fill-rule="nonzero" fill-opacity="1" /><path clip-path="url(#clip760)" d="M2135.31 798.615 Q2131.69 798.615 2129.87 802.179 Q2128.06 805.721 2128.06 812.851 Q2128.06 819.957 2129.87 823.522 Q2131.69 827.064 2135.31 827.064 Q2138.94 827.064 2140.75 823.522 Q2142.57 819.957 2142.57 812.851 Q2142.57 805.721 2140.75 802.179 Q2138.94 798.615 2135.31 798.615 M2135.31 794.911 Q2141.12 794.911 2144.17 799.517 Q2147.25 804.101 2147.25 812.851 Q2147.25 821.577 2144.17 826.184 Q2141.12 830.767 2135.31 830.767 Q2129.5 830.767 2126.42 826.184 Q2123.36 821.577 2123.36 812.851 Q2123.36 804.101 2126.42 799.517 Q2129.5 794.911 2135.31 794.911 Z" fill="#000000" fill-rule="nonzero" fill-opacity="1" /><path clip-path="url(#clip760)" d="M2155.47 824.216 L2160.35 824.216 L2160.35 830.096 L2155.47 830.096 L2155.47 824.216 Z" fill="#000000" fill-rule="nonzero" fill-opacity="1" /><path clip-path="url(#clip760)" d="M2170.58 795.536 L2188.94 795.536 L2188.94 799.471 L2174.87 799.471 L2174.87 807.943 Q2175.88 807.596 2176.9 807.434 Q2177.92 807.249 2178.94 807.249 Q2184.73 807.249 2188.11 810.42 Q2191.49 813.591 2191.49 819.008 Q2191.49 824.587 2188.01 827.689 Q2184.54 830.767 2178.22 830.767 Q2176.05 830.767 2173.78 830.397 Q2171.53 830.026 2169.13 829.286 L2169.13 824.587 Q2171.21 825.721 2173.43 826.277 Q2175.65 826.832 2178.13 826.832 Q2182.13 826.832 2184.47 824.726 Q2186.81 822.619 2186.81 819.008 Q2186.81 815.397 2184.47 813.29 Q2182.13 811.184 2178.13 811.184 Q2176.25 811.184 2174.38 811.601 Q2172.53 812.017 2170.58 812.897 L2170.58 795.536 Z" fill="#000000" fill-rule="nonzero" fill-opacity="1" /><path clip-path="url(#clip760)" d="M2200.84 829.378 L2200.84 825.119 Q2202.6 825.952 2204.4 826.392 Q2206.21 826.832 2207.94 826.832 Q2212.57 826.832 2215 823.73 Q2217.46 820.605 2217.81 814.263 Q2216.46 816.253 2214.4 817.318 Q2212.34 818.383 2209.84 818.383 Q2204.66 818.383 2201.63 815.258 Q2198.62 812.11 2198.62 806.67 Q2198.62 801.346 2201.76 798.129 Q2204.91 794.911 2210.14 794.911 Q2216.14 794.911 2219.29 799.517 Q2222.46 804.101 2222.46 812.851 Q2222.46 821.022 2218.57 825.906 Q2214.7 830.767 2208.15 830.767 Q2206.39 830.767 2204.59 830.42 Q2202.78 830.073 2200.84 829.378 M2210.14 814.726 Q2213.29 814.726 2215.12 812.573 Q2216.97 810.42 2216.97 806.67 Q2216.97 802.943 2215.12 800.791 Q2213.29 798.615 2210.14 798.615 Q2207 798.615 2205.14 800.791 Q2203.31 802.943 2203.31 806.67 Q2203.31 810.42 2205.14 812.573 Q2207 814.726 2210.14 814.726 Z" fill="#000000" fill-rule="nonzero" fill-opacity="1" /><polyline clip-path="url(#clip760)" style="stroke:#e26f46; stroke-linecap:round; stroke-linejoin:round; stroke-width:4; stroke-opacity:1; fill:none" points="1923.69,864.656 2009.44,864.656 "/>
<path clip-path="url(#clip760)" d="M2037.58 884.343 Q2035.77 888.973 2034.06 890.385 Q2032.34 891.797 2029.47 891.797 L2026.07 891.797 L2026.07 888.232 L2028.57 888.232 Q2030.33 888.232 2031.3 887.399 Q2032.27 886.566 2033.45 883.464 L2034.22 881.519 L2023.73 856.01 L2028.25 856.01 L2036.35 876.288 L2044.45 856.01 L2048.96 856.01 L2037.58 884.343 Z" fill="#000000" fill-rule="nonzero" fill-opacity="1" /><path clip-path="url(#clip760)" d="M2070.47 860.408 L2100.14 860.408 L2100.14 864.297 L2070.47 864.297 L2070.47 860.408 M2070.47 869.853 L2100.14 869.853 L2100.14 873.788 L2070.47 873.788 L2070.47 869.853 Z" fill="#000000" fill-rule="nonzero" fill-opacity="1" /><path clip-path="url(#clip760)" d="M2126.12 878.001 L2133.76 878.001 L2133.76 851.635 L2125.44 853.302 L2125.44 849.043 L2133.71 847.376 L2138.38 847.376 L2138.38 878.001 L2146.02 878.001 L2146.02 881.936 L2126.12 881.936 L2126.12 878.001 Z" fill="#000000" fill-rule="nonzero" fill-opacity="1" /><path clip-path="url(#clip760)" d="M2155.47 876.056 L2160.35 876.056 L2160.35 881.936 L2155.47 881.936 L2155.47 876.056 Z" fill="#000000" fill-rule="nonzero" fill-opacity="1" /><path clip-path="url(#clip760)" d="M2171.35 878.001 L2178.99 878.001 L2178.99 851.635 L2170.68 853.302 L2170.68 849.043 L2178.94 847.376 L2183.62 847.376 L2183.62 878.001 L2191.25 878.001 L2191.25 881.936 L2171.35 881.936 L2171.35 878.001 Z" fill="#000000" fill-rule="nonzero" fill-opacity="1" /><path clip-path="url(#clip760)" d="M2204.73 878.001 L2221.05 878.001 L2221.05 881.936 L2199.1 881.936 L2199.1 878.001 Q2201.76 875.246 2206.35 870.617 Q2210.95 865.964 2212.13 864.621 Q2214.38 862.098 2215.26 860.362 Q2216.16 858.603 2216.16 856.913 Q2216.16 854.158 2214.22 852.422 Q2212.3 850.686 2209.19 850.686 Q2207 850.686 2204.54 851.45 Q2202.11 852.214 2199.33 853.765 L2199.33 849.043 Q2202.16 847.908 2204.61 847.33 Q2207.06 846.751 2209.1 846.751 Q2214.47 846.751 2217.67 849.436 Q2220.86 852.121 2220.86 856.612 Q2220.86 858.742 2220.05 860.663 Q2219.26 862.561 2217.16 865.154 Q2216.58 865.825 2213.48 869.042 Q2210.38 872.237 2204.73 878.001 Z" fill="#000000" fill-rule="nonzero" fill-opacity="1" /><polyline clip-path="url(#clip760)" style="stroke:#3da44d; stroke-linecap:round; stroke-linejoin:round; stroke-width:4; stroke-opacity:1; fill:none" points="1923.69,916.496 2009.44,916.496 "/>
<path clip-path="url(#clip760)" d="M2037.58 936.183 Q2035.77 940.813 2034.06 942.225 Q2032.34 943.637 2029.47 943.637 L2026.07 943.637 L2026.07 940.072 L2028.57 940.072 Q2030.33 940.072 2031.3 939.239 Q2032.27 938.406 2033.45 935.304 L2034.22 933.359 L2023.73 907.85 L2028.25 907.85 L2036.35 928.128 L2044.45 907.85 L2048.96 907.85 L2037.58 936.183 Z" fill="#000000" fill-rule="nonzero" fill-opacity="1" /><path clip-path="url(#clip760)" d="M2070.47 912.248 L2100.14 912.248 L2100.14 916.137 L2070.47 916.137 L2070.47 912.248 M2070.47 921.693 L2100.14 921.693 L2100.14 925.628 L2070.47 925.628 L2070.47 921.693 Z" fill="#000000" fill-rule="nonzero" fill-opacity="1" /><path clip-path="url(#clip760)" d="M2126.12 929.841 L2133.76 929.841 L2133.76 903.475 L2125.44 905.142 L2125.44 900.883 L2133.71 899.216 L2138.38 899.216 L2138.38 929.841 L2146.02 929.841 L2146.02 933.776 L2126.12 933.776 L2126.12 929.841 Z" fill="#000000" fill-rule="nonzero" fill-opacity="1" /><path clip-path="url(#clip760)" d="M2155.47 927.896 L2160.35 927.896 L2160.35 933.776 L2155.47 933.776 L2155.47 927.896 Z" fill="#000000" fill-rule="nonzero" fill-opacity="1" /><path clip-path="url(#clip760)" d="M2170.58 899.216 L2188.94 899.216 L2188.94 903.151 L2174.87 903.151 L2174.87 911.623 Q2175.88 911.276 2176.9 911.114 Q2177.92 910.929 2178.94 910.929 Q2184.73 910.929 2188.11 914.1 Q2191.49 917.271 2191.49 922.688 Q2191.49 928.267 2188.01 931.369 Q2184.54 934.447 2178.22 934.447 Q2176.05 934.447 2173.78 934.077 Q2171.53 933.706 2169.13 932.966 L2169.13 928.267 Q2171.21 929.401 2173.43 929.957 Q2175.65 930.512 2178.13 930.512 Q2182.13 930.512 2184.47 928.406 Q2186.81 926.299 2186.81 922.688 Q2186.81 919.077 2184.47 916.97 Q2182.13 914.864 2178.13 914.864 Q2176.25 914.864 2174.38 915.281 Q2172.53 915.697 2170.58 916.577 L2170.58 899.216 Z" fill="#000000" fill-rule="nonzero" fill-opacity="1" /><path clip-path="url(#clip760)" d="M2200.75 899.216 L2219.1 899.216 L2219.1 903.151 L2205.03 903.151 L2205.03 911.623 Q2206.05 911.276 2207.06 911.114 Q2208.08 910.929 2209.1 910.929 Q2214.89 910.929 2218.27 914.1 Q2221.65 917.271 2221.65 922.688 Q2221.65 928.267 2218.18 931.369 Q2214.7 934.447 2208.38 934.447 Q2206.21 934.447 2203.94 934.077 Q2201.69 933.706 2199.29 932.966 L2199.29 928.267 Q2201.37 929.401 2203.59 929.957 Q2205.81 930.512 2208.29 930.512 Q2212.3 930.512 2214.63 928.406 Q2216.97 926.299 2216.97 922.688 Q2216.97 919.077 2214.63 916.97 Q2212.3 914.864 2208.29 914.864 Q2206.42 914.864 2204.54 915.281 Q2202.69 915.697 2200.75 916.577 L2200.75 899.216 Z" fill="#000000" fill-rule="nonzero" fill-opacity="1" /></svg>
