<?xml version="1.0" encoding="utf-8"?>
<svg xmlns="http://www.w3.org/2000/svg" xmlns:xlink="http://www.w3.org/1999/xlink" width="800" height="300" viewBox="0 0 3200 1200">
<defs>
  <clipPath id="clip590">
    <rect x="0" y="0" width="3200" height="1200"/>
  </clipPath>
</defs>
<path clip-path="url(#clip590)" d="M0 1200 L3200 1200 L3200 0 L0 0  Z" fill="#ffffff" fill-rule="evenodd" fill-opacity="1"/>
<defs>
  <clipPath id="clip591">
    <rect x="1888" y="47" width="1265" height="954"/>
  </clipPath>
</defs>
<path clip-path="url(#clip590)" d="M270.068 1000.1 L1533.84 1000.1 L1533.84 47.2441 L270.068 47.2441  Z" fill="#ffffff" fill-rule="evenodd" fill-opacity="1"/>
<defs>
  <clipPath id="clip592">
    <rect x="270" y="47" width="1265" height="954"/>
  </clipPath>
</defs>
<polyline clip-path="url(#clip592)" style="stroke:#000000; stroke-linecap:round; stroke-linejoin:round; stroke-width:2; stroke-opacity:0.1; fill:none" points="281.504,1000.1 281.504,47.2441 "/>
<polyline clip-path="url(#clip592)" style="stroke:#000000; stroke-linecap:round; stroke-linejoin:round; stroke-width:2; stroke-opacity:0.1; fill:none" points="554.175,1000.1 554.175,47.2441 "/>
<polyline clip-path="url(#clip592)" style="stroke:#000000; stroke-linecap:round; stroke-linejoin:round; stroke-width:2; stroke-opacity:0.1; fill:none" points="826.846,1000.1 826.846,47.2441 "/>
<polyline clip-path="url(#clip592)" style="stroke:#000000; stroke-linecap:round; stroke-linejoin:round; stroke-width:2; stroke-opacity:0.1; fill:none" points="1099.52,1000.1 1099.52,47.2441 "/>
<polyline clip-path="url(#clip592)" style="stroke:#000000; stroke-linecap:round; stroke-linejoin:round; stroke-width:2; stroke-opacity:0.1; fill:none" points="1372.19,1000.1 1372.19,47.2441 "/>
<polyline clip-path="url(#clip592)" style="stroke:#000000; stroke-linecap:round; stroke-linejoin:round; stroke-width:2; stroke-opacity:0.1; fill:none" points="270.068,968.627 1533.84,968.627 "/>
<polyline clip-path="url(#clip592)" style="stroke:#000000; stroke-linecap:round; stroke-linejoin:round; stroke-width:2; stroke-opacity:0.1; fill:none" points="270.068,769.873 1533.84,769.873 "/>
<polyline clip-path="url(#clip592)" style="stroke:#000000; stroke-linecap:round; stroke-linejoin:round; stroke-width:2; stroke-opacity:0.1; fill:none" points="270.068,571.119 1533.84,571.119 "/>
<polyline clip-path="url(#clip592)" style="stroke:#000000; stroke-linecap:round; stroke-linejoin:round; stroke-width:2; stroke-opacity:0.1; fill:none" points="270.068,372.366 1533.84,372.366 "/>
<polyline clip-path="url(#clip592)" style="stroke:#000000; stroke-linecap:round; stroke-linejoin:round; stroke-width:2; stroke-opacity:0.1; fill:none" points="270.068,173.612 1533.84,173.612 "/>
<polyline clip-path="url(#clip590)" style="stroke:#000000; stroke-linecap:round; stroke-linejoin:round; stroke-width:4; stroke-opacity:1; fill:none" points="270.068,1000.1 1533.84,1000.1 "/>
<polyline clip-path="url(#clip590)" style="stroke:#000000; stroke-linecap:round; stroke-linejoin:round; stroke-width:4; stroke-opacity:1; fill:none" points="281.504,1000.1 281.504,981.2 "/>
<polyline clip-path="url(#clip590)" style="stroke:#000000; stroke-linecap:round; stroke-linejoin:round; stroke-width:4; stroke-opacity:1; fill:none" points="554.175,1000.1 554.175,981.2 "/>
<polyline clip-path="url(#clip590)" style="stroke:#000000; stroke-linecap:round; stroke-linejoin:round; stroke-width:4; stroke-opacity:1; fill:none" points="826.846,1000.1 826.846,981.2 "/>
<polyline clip-path="url(#clip590)" style="stroke:#000000; stroke-linecap:round; stroke-linejoin:round; stroke-width:4; stroke-opacity:1; fill:none" points="1099.52,1000.1 1099.52,981.2 "/>
<polyline clip-path="url(#clip590)" style="stroke:#000000; stroke-linecap:round; stroke-linejoin:round; stroke-width:4; stroke-opacity:1; fill:none" points="1372.19,1000.1 1372.19,981.2 "/>
<path clip-path="url(#clip590)" d="M281.504 1037.42 Q277.893 1037.42 276.064 1040.98 Q274.259 1044.52 274.259 1051.65 Q274.259 1058.76 276.064 1062.32 Q277.893 1065.87 281.504 1065.87 Q285.138 1065.87 286.944 1062.32 Q288.773 1058.76 288.773 1051.65 Q288.773 1044.52 286.944 1040.98 Q285.138 1037.42 281.504 1037.42 M281.504 1033.71 Q287.314 1033.71 290.37 1038.32 Q293.449 1042.9 293.449 1051.65 Q293.449 1060.38 290.37 1064.99 Q287.314 1069.57 281.504 1069.57 Q275.694 1069.57 272.615 1064.99 Q269.56 1060.38 269.56 1051.65 Q269.56 1042.9 272.615 1038.32 Q275.694 1033.71 281.504 1033.71 Z" fill="#000000" fill-rule="nonzero" fill-opacity="1" /><path clip-path="url(#clip590)" d="M548.828 1064.96 L565.147 1064.96 L565.147 1068.9 L543.203 1068.9 L543.203 1064.96 Q545.865 1062.21 550.448 1057.58 Q555.055 1052.93 556.235 1051.58 Q558.481 1049.06 559.36 1047.32 Q560.263 1045.56 560.263 1043.87 Q560.263 1041.12 558.319 1039.38 Q556.397 1037.65 553.296 1037.65 Q551.097 1037.65 548.643 1038.41 Q546.212 1039.18 543.435 1040.73 L543.435 1036 Q546.259 1034.87 548.712 1034.29 Q551.166 1033.71 553.203 1033.71 Q558.573 1033.71 561.768 1036.4 Q564.962 1039.08 564.962 1043.57 Q564.962 1045.7 564.152 1047.62 Q563.365 1049.52 561.259 1052.12 Q560.68 1052.79 557.578 1056 Q554.476 1059.2 548.828 1064.96 Z" fill="#000000" fill-rule="nonzero" fill-opacity="1" /><path clip-path="url(#clip590)" d="M829.856 1038.41 L818.05 1056.86 L829.856 1056.86 L829.856 1038.41 M828.629 1034.34 L834.508 1034.34 L834.508 1056.86 L839.439 1056.86 L839.439 1060.75 L834.508 1060.75 L834.508 1068.9 L829.856 1068.9 L829.856 1060.75 L814.254 1060.75 L814.254 1056.24 L828.629 1034.34 Z" fill="#000000" fill-rule="nonzero" fill-opacity="1" /><path clip-path="url(#clip590)" d="M1099.92 1049.75 Q1096.77 1049.75 1094.92 1051.91 Q1093.09 1054.06 1093.09 1057.81 Q1093.09 1061.54 1094.92 1063.71 Q1096.77 1065.87 1099.92 1065.87 Q1103.07 1065.87 1104.9 1063.71 Q1106.75 1061.54 1106.75 1057.81 Q1106.75 1054.06 1104.9 1051.91 Q1103.07 1049.75 1099.92 1049.75 M1109.2 1035.1 L1109.2 1039.36 Q1107.45 1038.53 1105.64 1038.09 Q1103.86 1037.65 1102.1 1037.65 Q1097.47 1037.65 1095.02 1040.77 Q1092.58 1043.9 1092.24 1050.22 Q1093.6 1048.2 1095.66 1047.14 Q1097.72 1046.05 1100.2 1046.05 Q1105.41 1046.05 1108.42 1049.22 Q1111.45 1052.37 1111.45 1057.81 Q1111.45 1063.13 1108.3 1066.35 Q1105.15 1069.57 1099.92 1069.57 Q1093.93 1069.57 1090.76 1064.99 Q1087.58 1060.38 1087.58 1051.65 Q1087.58 1043.46 1091.47 1038.6 Q1095.36 1033.71 1101.91 1033.71 Q1103.67 1033.71 1105.45 1034.06 Q1107.26 1034.41 1109.2 1035.1 Z" fill="#000000" fill-rule="nonzero" fill-opacity="1" /><path clip-path="url(#clip590)" d="M1372.19 1052.49 Q1368.86 1052.49 1366.93 1054.27 Q1365.04 1056.05 1365.04 1059.18 Q1365.04 1062.3 1366.93 1064.08 Q1368.86 1065.87 1372.19 1065.87 Q1375.52 1065.87 1377.44 1064.08 Q1379.36 1062.28 1379.36 1059.18 Q1379.36 1056.05 1377.44 1054.27 Q1375.54 1052.49 1372.19 1052.49 M1367.51 1050.5 Q1364.5 1049.75 1362.81 1047.69 Q1361.15 1045.63 1361.15 1042.67 Q1361.15 1038.53 1364.09 1036.12 Q1367.05 1033.71 1372.19 1033.71 Q1377.35 1033.71 1380.29 1036.12 Q1383.23 1038.53 1383.23 1042.67 Q1383.23 1045.63 1381.54 1047.69 Q1379.87 1049.75 1376.89 1050.5 Q1380.27 1051.28 1382.14 1053.57 Q1384.04 1055.87 1384.04 1059.18 Q1384.04 1064.2 1380.96 1066.88 Q1377.91 1069.57 1372.19 1069.57 Q1366.47 1069.57 1363.39 1066.88 Q1360.34 1064.2 1360.34 1059.18 Q1360.34 1055.87 1362.23 1053.57 Q1364.13 1051.28 1367.51 1050.5 M1365.8 1043.11 Q1365.8 1045.8 1367.47 1047.3 Q1369.16 1048.81 1372.19 1048.81 Q1375.2 1048.81 1376.89 1047.3 Q1378.6 1045.8 1378.6 1043.11 Q1378.6 1040.43 1376.89 1038.92 Q1375.2 1037.42 1372.19 1037.42 Q1369.16 1037.42 1367.47 1038.92 Q1365.8 1040.43 1365.8 1043.11 Z" fill="#000000" fill-rule="nonzero" fill-opacity="1" /><path clip-path="url(#clip590)" d="M793.373 1122.68 L793.373 1128.16 Q790.891 1126.79 788.376 1126.12 Q785.893 1125.42 783.347 1125.42 Q777.65 1125.42 774.499 1129.05 Q771.348 1132.64 771.348 1139.17 Q771.348 1145.69 774.499 1149.32 Q777.65 1152.92 783.347 1152.92 Q785.893 1152.92 788.376 1152.25 Q790.891 1151.55 793.373 1150.18 L793.373 1155.59 Q790.922 1156.74 788.281 1157.31 Q785.671 1157.88 782.711 1157.88 Q774.658 1157.88 769.916 1152.82 Q765.173 1147.76 765.173 1139.17 Q765.173 1130.45 769.947 1125.45 Q774.753 1120.45 783.093 1120.45 Q785.798 1120.45 788.376 1121.03 Q790.954 1121.57 793.373 1122.68 Z" fill="#000000" fill-rule="nonzero" fill-opacity="1" /><path clip-path="url(#clip590)" d="M819.759 1139.04 Q812.661 1139.04 809.924 1140.67 Q807.187 1142.29 807.187 1146.2 Q807.187 1149.32 809.224 1151.17 Q811.293 1152.98 814.826 1152.98 Q819.695 1152.98 822.624 1149.55 Q825.584 1146.08 825.584 1140.35 L825.584 1139.04 L819.759 1139.04 M831.44 1136.62 L831.44 1156.96 L825.584 1156.96 L825.584 1151.55 Q823.578 1154.8 820.587 1156.36 Q817.595 1157.88 813.266 1157.88 Q807.791 1157.88 804.545 1154.83 Q801.33 1151.74 801.33 1146.59 Q801.33 1140.57 805.341 1137.51 Q809.383 1134.46 817.372 1134.46 L825.584 1134.46 L825.584 1133.89 Q825.584 1129.84 822.91 1127.65 Q820.268 1125.42 815.462 1125.42 Q812.407 1125.42 809.51 1126.15 Q806.614 1126.88 803.94 1128.35 L803.94 1122.94 Q807.155 1121.7 810.179 1121.09 Q813.202 1120.45 816.067 1120.45 Q823.801 1120.45 827.621 1124.46 Q831.44 1128.48 831.44 1136.62 Z" fill="#000000" fill-rule="nonzero" fill-opacity="1" /><path clip-path="url(#clip590)" d="M849.169 1151.61 L849.169 1170.52 L843.28 1170.52 L843.28 1121.31 L849.169 1121.31 L849.169 1126.72 Q851.015 1123.54 853.816 1122.01 Q856.648 1120.45 860.563 1120.45 Q867.056 1120.45 871.098 1125.61 Q875.172 1130.77 875.172 1139.17 Q875.172 1147.57 871.098 1152.73 Q867.056 1157.88 860.563 1157.88 Q856.648 1157.88 853.816 1156.36 Q851.015 1154.8 849.169 1151.61 M869.093 1139.17 Q869.093 1132.71 866.42 1129.05 Q863.778 1125.36 859.131 1125.36 Q854.484 1125.36 851.81 1129.05 Q849.169 1132.71 849.169 1139.17 Q849.169 1145.63 851.81 1149.32 Q854.484 1152.98 859.131 1152.98 Q863.778 1152.98 866.42 1149.32 Q869.093 1145.63 869.093 1139.17 Z" fill="#000000" fill-rule="nonzero" fill-opacity="1" /><path clip-path="url(#clip590)" d="M884.88 1121.31 L890.737 1121.31 L890.737 1156.96 L884.88 1156.96 L884.88 1121.31 M884.88 1107.44 L890.737 1107.44 L890.737 1114.85 L884.88 1114.85 L884.88 1107.44 Z" fill="#000000" fill-rule="nonzero" fill-opacity="1" /><path clip-path="url(#clip590)" d="M908.783 1111.19 L908.783 1121.31 L920.846 1121.31 L920.846 1125.87 L908.783 1125.87 L908.783 1145.22 Q908.783 1149.58 909.961 1150.82 Q911.171 1152.06 914.831 1152.06 L920.846 1152.06 L920.846 1156.96 L914.831 1156.96 Q908.051 1156.96 905.473 1154.45 Q902.895 1151.9 902.895 1145.22 L902.895 1125.87 L898.598 1125.87 L898.598 1121.31 L902.895 1121.31 L902.895 1111.19 L908.783 1111.19 Z" fill="#000000" fill-rule="nonzero" fill-opacity="1" /><path clip-path="url(#clip590)" d="M944.75 1139.04 Q937.652 1139.04 934.915 1140.67 Q932.177 1142.29 932.177 1146.2 Q932.177 1149.32 934.214 1151.17 Q936.283 1152.98 939.816 1152.98 Q944.686 1152.98 947.614 1149.55 Q950.574 1146.08 950.574 1140.35 L950.574 1139.04 L944.75 1139.04 M956.431 1136.62 L956.431 1156.96 L950.574 1156.96 L950.574 1151.55 Q948.569 1154.8 945.577 1156.36 Q942.585 1157.88 938.257 1157.88 Q932.782 1157.88 929.536 1154.83 Q926.321 1151.74 926.321 1146.59 Q926.321 1140.57 930.331 1137.51 Q934.374 1134.46 942.363 1134.46 L950.574 1134.46 L950.574 1133.89 Q950.574 1129.84 947.901 1127.65 Q945.259 1125.42 940.453 1125.42 Q937.397 1125.42 934.501 1126.15 Q931.604 1126.88 928.931 1128.35 L928.931 1122.94 Q932.146 1121.7 935.169 1121.09 Q938.193 1120.45 941.058 1120.45 Q948.792 1120.45 952.611 1124.46 Q956.431 1128.48 956.431 1136.62 Z" fill="#000000" fill-rule="nonzero" fill-opacity="1" /><path clip-path="url(#clip590)" d="M968.494 1107.44 L974.35 1107.44 L974.35 1156.96 L968.494 1156.96 L968.494 1107.44 Z" fill="#000000" fill-rule="nonzero" fill-opacity="1" /><path clip-path="url(#clip590)" d="M1007.1 1107.44 L1012.99 1107.44 L1012.99 1136.69 L1030.46 1121.31 L1037.94 1121.31 L1019.04 1137.99 L1038.74 1156.96 L1031.1 1156.96 L1012.99 1139.55 L1012.99 1156.96 L1007.1 1156.96 L1007.1 1107.44 Z" fill="#000000" fill-rule="nonzero" fill-opacity="1" /><polyline clip-path="url(#clip590)" style="stroke:#000000; stroke-linecap:round; stroke-linejoin:round; stroke-width:4; stroke-opacity:1; fill:none" points="270.068,1000.1 270.068,47.2441 "/>
<polyline clip-path="url(#clip590)" style="stroke:#000000; stroke-linecap:round; stroke-linejoin:round; stroke-width:4; stroke-opacity:1; fill:none" points="270.068,968.627 288.966,968.627 "/>
<polyline clip-path="url(#clip590)" style="stroke:#000000; stroke-linecap:round; stroke-linejoin:round; stroke-width:4; stroke-opacity:1; fill:none" points="270.068,769.873 288.966,769.873 "/>
<polyline clip-path="url(#clip590)" style="stroke:#000000; stroke-linecap:round; stroke-linejoin:round; stroke-width:4; stroke-opacity:1; fill:none" points="270.068,571.119 288.966,571.119 "/>
<polyline clip-path="url(#clip590)" style="stroke:#000000; stroke-linecap:round; stroke-linejoin:round; stroke-width:4; stroke-opacity:1; fill:none" points="270.068,372.366 288.966,372.366 "/>
<polyline clip-path="url(#clip590)" style="stroke:#000000; stroke-linecap:round; stroke-linejoin:round; stroke-width:4; stroke-opacity:1; fill:none" points="270.068,173.612 288.966,173.612 "/>
<path clip-path="url(#clip590)" d="M166.49 954.426 Q162.879 954.426 161.05 957.99 Q159.245 961.532 159.245 968.662 Q159.245 975.768 161.05 979.333 Q162.879 982.874 166.49 982.874 Q170.124 982.874 171.93 979.333 Q173.758 975.768 173.758 968.662 Q173.758 961.532 171.93 957.99 Q170.124 954.426 166.49 954.426 M166.49 950.722 Q172.3 950.722 175.356 955.328 Q178.434 959.912 178.434 968.662 Q178.434 977.388 175.356 981.995 Q172.3 986.578 166.49 986.578 Q160.68 986.578 157.601 981.995 Q154.546 977.388 154.546 968.662 Q154.546 959.912 157.601 955.328 Q160.68 950.722 166.49 950.722 Z" fill="#000000" fill-rule="nonzero" fill-opacity="1" /><path clip-path="url(#clip590)" d="M186.652 980.027 L191.536 980.027 L191.536 985.907 L186.652 985.907 L186.652 980.027 Z" fill="#000000" fill-rule="nonzero" fill-opacity="1" /><path clip-path="url(#clip590)" d="M205.749 981.972 L222.068 981.972 L222.068 985.907 L200.124 985.907 L200.124 981.972 Q202.786 979.217 207.369 974.587 Q211.976 969.935 213.156 968.592 Q215.402 966.069 216.281 964.333 Q217.184 962.574 217.184 960.884 Q217.184 958.129 215.24 956.393 Q213.318 954.657 210.217 954.657 Q208.018 954.657 205.564 955.421 Q203.133 956.185 200.356 957.736 L200.356 953.013 Q203.18 951.879 205.633 951.301 Q208.087 950.722 210.124 950.722 Q215.494 950.722 218.689 953.407 Q221.883 956.092 221.883 960.583 Q221.883 962.713 221.073 964.634 Q220.286 966.532 218.18 969.125 Q217.601 969.796 214.499 973.013 Q211.397 976.208 205.749 981.972 Z" fill="#000000" fill-rule="nonzero" fill-opacity="1" /><path clip-path="url(#clip590)" d="M164.407 755.672 Q160.796 755.672 158.967 759.237 Q157.161 762.778 157.161 769.908 Q157.161 777.014 158.967 780.579 Q160.796 784.121 164.407 784.121 Q168.041 784.121 169.846 780.579 Q171.675 777.014 171.675 769.908 Q171.675 762.778 169.846 759.237 Q168.041 755.672 164.407 755.672 M164.407 751.968 Q170.217 751.968 173.272 756.575 Q176.351 761.158 176.351 769.908 Q176.351 778.635 173.272 783.241 Q170.217 787.824 164.407 787.824 Q158.597 787.824 155.518 783.241 Q152.462 778.635 152.462 769.908 Q152.462 761.158 155.518 756.575 Q158.597 751.968 164.407 751.968 Z" fill="#000000" fill-rule="nonzero" fill-opacity="1" /><path clip-path="url(#clip590)" d="M184.569 781.273 L189.453 781.273 L189.453 787.153 L184.569 787.153 L184.569 781.273 Z" fill="#000000" fill-rule="nonzero" fill-opacity="1" /><path clip-path="url(#clip590)" d="M212.485 756.667 L200.68 775.116 L212.485 775.116 L212.485 756.667 M211.258 752.593 L217.138 752.593 L217.138 775.116 L222.068 775.116 L222.068 779.005 L217.138 779.005 L217.138 787.153 L212.485 787.153 L212.485 779.005 L196.883 779.005 L196.883 774.491 L211.258 752.593 Z" fill="#000000" fill-rule="nonzero" fill-opacity="1" /><path clip-path="url(#clip590)" d="M164.731 556.918 Q161.12 556.918 159.291 560.483 Q157.485 564.024 157.485 571.154 Q157.485 578.261 159.291 581.825 Q161.12 585.367 164.731 585.367 Q168.365 585.367 170.171 581.825 Q171.999 578.261 171.999 571.154 Q171.999 564.024 170.171 560.483 Q168.365 556.918 164.731 556.918 M164.731 553.214 Q170.541 553.214 173.596 557.821 Q176.675 562.404 176.675 571.154 Q176.675 579.881 173.596 584.487 Q170.541 589.071 164.731 589.071 Q158.921 589.071 155.842 584.487 Q152.786 579.881 152.786 571.154 Q152.786 562.404 155.842 557.821 Q158.921 553.214 164.731 553.214 Z" fill="#000000" fill-rule="nonzero" fill-opacity="1" /><path clip-path="url(#clip590)" d="M184.893 582.52 L189.777 582.52 L189.777 588.399 L184.893 588.399 L184.893 582.52 Z" fill="#000000" fill-rule="nonzero" fill-opacity="1" /><path clip-path="url(#clip590)" d="M210.541 569.256 Q207.393 569.256 205.541 571.409 Q203.712 573.561 203.712 577.311 Q203.712 581.038 205.541 583.214 Q207.393 585.367 210.541 585.367 Q213.689 585.367 215.518 583.214 Q217.369 581.038 217.369 577.311 Q217.369 573.561 215.518 571.409 Q213.689 569.256 210.541 569.256 M219.823 554.603 L219.823 558.862 Q218.064 558.029 216.258 557.589 Q214.476 557.15 212.717 557.15 Q208.087 557.15 205.633 560.275 Q203.203 563.399 202.856 569.719 Q204.221 567.705 206.281 566.64 Q208.342 565.552 210.818 565.552 Q216.027 565.552 219.036 568.724 Q222.068 571.872 222.068 577.311 Q222.068 582.636 218.92 585.853 Q215.772 589.071 210.541 589.071 Q204.545 589.071 201.374 584.487 Q198.203 579.881 198.203 571.154 Q198.203 562.96 202.092 558.099 Q205.981 553.214 212.531 553.214 Q214.291 553.214 216.073 553.562 Q217.879 553.909 219.823 554.603 Z" fill="#000000" fill-rule="nonzero" fill-opacity="1" /><path clip-path="url(#clip590)" d="M164.985 358.164 Q161.374 358.164 159.546 361.729 Q157.74 365.271 157.74 372.4 Q157.74 379.507 159.546 383.072 Q161.374 386.613 164.985 386.613 Q168.62 386.613 170.425 383.072 Q172.254 379.507 172.254 372.4 Q172.254 365.271 170.425 361.729 Q168.62 358.164 164.985 358.164 M164.985 354.461 Q170.796 354.461 173.851 359.067 Q176.93 363.65 176.93 372.4 Q176.93 381.127 173.851 385.734 Q170.796 390.317 164.985 390.317 Q159.175 390.317 156.097 385.734 Q153.041 381.127 153.041 372.4 Q153.041 363.65 156.097 359.067 Q159.175 354.461 164.985 354.461 Z" fill="#000000" fill-rule="nonzero" fill-opacity="1" /><path clip-path="url(#clip590)" d="M185.147 383.766 L190.032 383.766 L190.032 389.646 L185.147 389.646 L185.147 383.766 Z" fill="#000000" fill-rule="nonzero" fill-opacity="1" /><path clip-path="url(#clip590)" d="M210.217 373.234 Q206.883 373.234 204.962 375.016 Q203.064 376.798 203.064 379.923 Q203.064 383.048 204.962 384.831 Q206.883 386.613 210.217 386.613 Q213.55 386.613 215.471 384.831 Q217.392 383.025 217.392 379.923 Q217.392 376.798 215.471 375.016 Q213.573 373.234 210.217 373.234 M205.541 371.243 Q202.531 370.502 200.842 368.442 Q199.175 366.382 199.175 363.419 Q199.175 359.275 202.115 356.868 Q205.078 354.461 210.217 354.461 Q215.379 354.461 218.318 356.868 Q221.258 359.275 221.258 363.419 Q221.258 366.382 219.568 368.442 Q217.902 370.502 214.916 371.243 Q218.295 372.03 220.17 374.322 Q222.068 376.613 222.068 379.923 Q222.068 384.947 218.99 387.632 Q215.934 390.317 210.217 390.317 Q204.499 390.317 201.42 387.632 Q198.365 384.947 198.365 379.923 Q198.365 376.613 200.263 374.322 Q202.161 372.03 205.541 371.243 M203.828 363.859 Q203.828 366.544 205.494 368.049 Q207.184 369.553 210.217 369.553 Q213.226 369.553 214.916 368.049 Q216.629 366.544 216.629 363.859 Q216.629 361.174 214.916 359.669 Q213.226 358.164 210.217 358.164 Q207.184 358.164 205.494 359.669 Q203.828 361.174 203.828 363.859 Z" fill="#000000" fill-rule="nonzero" fill-opacity="1" /><path clip-path="url(#clip590)" d="M155.703 186.957 L163.342 186.957 L163.342 160.591 L155.032 162.258 L155.032 157.999 L163.296 156.332 L167.971 156.332 L167.971 186.957 L175.61 186.957 L175.61 190.892 L155.703 190.892 L155.703 186.957 Z" fill="#000000" fill-rule="nonzero" fill-opacity="1" /><path clip-path="url(#clip590)" d="M185.055 185.012 L189.939 185.012 L189.939 190.892 L185.055 190.892 L185.055 185.012 Z" fill="#000000" fill-rule="nonzero" fill-opacity="1" /><path clip-path="url(#clip590)" d="M210.124 159.411 Q206.513 159.411 204.684 162.975 Q202.879 166.517 202.879 173.647 Q202.879 180.753 204.684 184.318 Q206.513 187.86 210.124 187.86 Q213.758 187.86 215.564 184.318 Q217.392 180.753 217.392 173.647 Q217.392 166.517 215.564 162.975 Q213.758 159.411 210.124 159.411 M210.124 155.707 Q215.934 155.707 218.99 160.313 Q222.068 164.897 222.068 173.647 Q222.068 182.373 218.99 186.98 Q215.934 191.563 210.124 191.563 Q204.314 191.563 201.235 186.98 Q198.18 182.373 198.18 173.647 Q198.18 164.897 201.235 160.313 Q204.314 155.707 210.124 155.707 Z" fill="#000000" fill-rule="nonzero" fill-opacity="1" /><path clip-path="url(#clip590)" d="M55.927 774.48 L61.4015 774.48 Q60.0328 776.962 59.3644 779.477 Q58.6642 781.959 58.6642 784.506 Q58.6642 790.203 62.2927 793.354 Q65.8893 796.505 72.4141 796.505 Q78.939 796.505 82.5674 793.354 Q86.1641 790.203 86.1641 784.506 Q86.1641 781.959 85.4957 779.477 Q84.7954 776.962 83.4268 774.48 L88.8377 774.48 Q89.9835 776.931 90.5564 779.572 Q91.1293 782.182 91.1293 785.142 Q91.1293 793.195 86.0686 797.937 Q81.0078 802.68 72.4141 802.68 Q63.6931 802.68 58.696 797.906 Q53.699 793.099 53.699 784.76 Q53.699 782.055 54.2719 779.477 Q54.813 776.899 55.927 774.48 Z" fill="#000000" fill-rule="nonzero" fill-opacity="1" /><path clip-path="url(#clip590)" d="M58.6642 750.481 Q58.6642 755.192 62.3563 757.929 Q66.0166 760.666 72.4141 760.666 Q78.8117 760.666 82.5038 757.961 Q86.1641 755.223 86.1641 750.481 Q86.1641 745.802 82.4719 743.065 Q78.7798 740.328 72.4141 740.328 Q66.0803 740.328 62.3881 743.065 Q58.6642 745.802 58.6642 750.481 M53.699 750.481 Q53.699 742.842 58.6642 738.482 Q63.6295 734.121 72.4141 734.121 Q81.167 734.121 86.1641 738.482 Q91.1293 742.842 91.1293 750.481 Q91.1293 758.152 86.1641 762.512 Q81.167 766.841 72.4141 766.841 Q63.6295 766.841 58.6642 762.512 Q53.699 758.152 53.699 750.481 Z" fill="#000000" fill-rule="nonzero" fill-opacity="1" /><path clip-path="url(#clip590)" d="M68.6902 694.781 L90.2063 694.781 L90.2063 700.638 L68.8812 700.638 Q63.8204 700.638 61.306 702.611 Q58.7915 704.584 58.7915 708.531 Q58.7915 713.273 61.8152 716.011 Q64.8389 718.748 70.0588 718.748 L90.2063 718.748 L90.2063 724.636 L54.5583 724.636 L54.5583 718.748 L60.0965 718.748 Q56.8818 716.647 55.2904 713.815 Q53.699 710.95 53.699 707.226 Q53.699 701.083 57.5184 697.932 Q61.306 694.781 68.6902 694.781 Z" fill="#000000" fill-rule="nonzero" fill-opacity="1" /><path clip-path="url(#clip590)" d="M55.6087 660.374 L61.1468 660.374 Q59.8737 662.857 59.2371 665.531 Q58.6006 668.204 58.6006 671.069 Q58.6006 675.429 59.9373 677.626 Q61.2741 679.79 63.9477 679.79 Q65.9848 679.79 67.1624 678.23 Q68.3083 676.671 69.3586 671.96 L69.8042 669.955 Q71.141 663.716 73.5918 661.107 Q76.0108 658.465 80.3713 658.465 Q85.3365 658.465 88.2329 662.411 Q91.1293 666.326 91.1293 673.201 Q91.1293 676.066 90.5564 679.185 Q90.0153 682.272 88.9013 685.71 L82.8539 685.71 Q84.5408 682.463 85.4002 679.312 Q86.2277 676.161 86.2277 673.074 Q86.2277 668.936 84.8273 666.708 Q83.395 664.48 80.8169 664.48 Q78.4297 664.48 77.1566 666.104 Q75.8834 667.695 74.7058 673.138 L74.2284 675.175 Q73.0825 680.617 70.7272 683.036 Q68.3401 685.455 64.2024 685.455 Q59.1735 685.455 56.4362 681.891 Q53.699 678.326 53.699 671.769 Q53.699 668.523 54.1764 665.658 Q54.6538 662.793 55.6087 660.374 Z" fill="#000000" fill-rule="nonzero" fill-opacity="1" /><path clip-path="url(#clip590)" d="M76.1381 649.744 L54.5583 649.744 L54.5583 643.887 L75.9153 643.887 Q80.976 643.887 83.5223 641.914 Q86.0367 639.941 86.0367 635.994 Q86.0367 631.251 83.013 628.514 Q79.9893 625.745 74.7694 625.745 L54.5583 625.745 L54.5583 619.889 L90.2063 619.889 L90.2063 625.745 L84.7318 625.745 Q87.9783 627.878 89.5697 630.71 Q91.1293 633.511 91.1293 637.235 Q91.1293 643.378 87.3099 646.561 Q83.4905 649.744 76.1381 649.744 M53.699 635.007 L53.699 635.007 Z" fill="#000000" fill-rule="nonzero" fill-opacity="1" /><path clip-path="url(#clip590)" d="M61.4015 580.071 Q57.4547 577.875 55.5768 574.819 Q53.699 571.764 53.699 567.626 Q53.699 562.056 57.6139 559.032 Q61.4969 556.009 68.6902 556.009 L90.2063 556.009 L90.2063 561.897 L68.8812 561.897 Q63.7568 561.897 61.2741 563.711 Q58.7915 565.525 58.7915 569.249 Q58.7915 573.801 61.8152 576.443 Q64.8389 579.084 70.0588 579.084 L90.2063 579.084 L90.2063 584.973 L68.8812 584.973 Q63.7249 584.973 61.2741 586.787 Q58.7915 588.601 58.7915 592.389 Q58.7915 596.877 61.8471 599.518 Q64.8708 602.16 70.0588 602.16 L90.2063 602.16 L90.2063 608.048 L54.5583 608.048 L54.5583 602.16 L60.0965 602.16 Q56.8182 600.155 55.2586 597.354 Q53.699 594.553 53.699 590.702 Q53.699 586.819 55.6723 584.113 Q57.6457 581.376 61.4015 580.071 Z" fill="#000000" fill-rule="nonzero" fill-opacity="1" /><path clip-path="url(#clip590)" d="M84.8591 538.662 L103.765 538.662 L103.765 544.55 L54.5583 544.55 L54.5583 538.662 L59.9692 538.662 Q56.7863 536.816 55.2586 534.015 Q53.699 531.182 53.699 527.268 Q53.699 520.775 58.8552 516.732 Q64.0114 512.658 72.4141 512.658 Q80.8169 512.658 85.9731 516.732 Q91.1293 520.775 91.1293 527.268 Q91.1293 531.182 89.6015 534.015 Q88.0419 536.816 84.8591 538.662 M72.4141 518.737 Q65.9529 518.737 62.2927 521.411 Q58.6006 524.053 58.6006 528.7 Q58.6006 533.347 62.2927 536.02 Q65.9529 538.662 72.4141 538.662 Q78.8753 538.662 82.5674 536.02 Q86.2277 533.347 86.2277 528.7 Q86.2277 524.053 82.5674 521.411 Q78.8753 518.737 72.4141 518.737 Z" fill="#000000" fill-rule="nonzero" fill-opacity="1" /><path clip-path="url(#clip590)" d="M44.4369 497.158 L54.5583 497.158 L54.5583 485.095 L59.1098 485.095 L59.1098 497.158 L78.4616 497.158 Q82.8221 497.158 84.0634 495.98 Q85.3047 494.771 85.3047 491.11 L85.3047 485.095 L90.2063 485.095 L90.2063 491.11 Q90.2063 497.89 87.6918 500.468 Q85.1455 503.046 78.4616 503.046 L59.1098 503.046 L59.1098 507.343 L54.5583 507.343 L54.5583 503.046 L44.4369 503.046 L44.4369 497.158 Z" fill="#000000" fill-rule="nonzero" fill-opacity="1" /><path clip-path="url(#clip590)" d="M54.5583 477.392 L54.5583 471.536 L90.2063 471.536 L90.2063 477.392 L54.5583 477.392 M40.6811 477.392 L40.6811 471.536 L48.0971 471.536 L48.0971 477.392 L40.6811 477.392 Z" fill="#000000" fill-rule="nonzero" fill-opacity="1" /><path clip-path="url(#clip590)" d="M58.6642 445.468 Q58.6642 450.179 62.3563 452.916 Q66.0166 455.653 72.4141 455.653 Q78.8117 455.653 82.5038 452.948 Q86.1641 450.211 86.1641 445.468 Q86.1641 440.789 82.4719 438.052 Q78.7798 435.315 72.4141 435.315 Q66.0803 435.315 62.3881 438.052 Q58.6642 440.789 58.6642 445.468 M53.699 445.468 Q53.699 437.829 58.6642 433.469 Q63.6295 429.108 72.4141 429.108 Q81.167 429.108 86.1641 433.469 Q91.1293 437.829 91.1293 445.468 Q91.1293 453.139 86.1641 457.499 Q81.167 461.828 72.4141 461.828 Q63.6295 461.828 58.6642 457.499 Q53.699 453.139 53.699 445.468 Z" fill="#000000" fill-rule="nonzero" fill-opacity="1" /><path clip-path="url(#clip590)" d="M68.6902 389.768 L90.2063 389.768 L90.2063 395.625 L68.8812 395.625 Q63.8204 395.625 61.306 397.598 Q58.7915 399.571 58.7915 403.518 Q58.7915 408.261 61.8152 410.998 Q64.8389 413.735 70.0588 413.735 L90.2063 413.735 L90.2063 419.623 L54.5583 419.623 L54.5583 413.735 L60.0965 413.735 Q56.8818 411.634 55.2904 408.802 Q53.699 405.937 53.699 402.213 Q53.699 396.07 57.5184 392.919 Q61.306 389.768 68.6902 389.768 Z" fill="#000000" fill-rule="nonzero" fill-opacity="1" /><path clip-path="url(#clip590)" d="M55.927 331.713 L61.4015 331.713 Q60.0328 334.196 59.3644 336.71 Q58.6642 339.193 58.6642 341.739 Q58.6642 347.436 62.2927 350.587 Q65.8893 353.738 72.4141 353.738 Q78.939 353.738 82.5674 350.587 Q86.1641 347.436 86.1641 341.739 Q86.1641 339.193 85.4957 336.71 Q84.7954 334.196 83.4268 331.713 L88.8377 331.713 Q89.9835 334.164 90.5564 336.806 Q91.1293 339.416 91.1293 342.376 Q91.1293 350.428 86.0686 355.171 Q81.0078 359.913 72.4141 359.913 Q63.6931 359.913 58.696 355.139 Q53.699 350.333 53.699 341.994 Q53.699 339.288 54.2719 336.71 Q54.813 334.132 55.927 331.713 Z" fill="#000000" fill-rule="nonzero" fill-opacity="1" /><path clip-path="url(#clip590)" d="M40.7447 307.46 Q48.0653 311.725 55.2267 313.794 Q62.3881 315.862 69.7405 315.862 Q77.0929 315.862 84.318 313.794 Q91.5113 311.693 98.8 307.46 L98.8 312.552 Q91.3203 317.327 84.0952 319.714 Q76.8701 322.069 69.7405 322.069 Q62.6428 322.069 55.4495 319.714 Q48.2563 317.358 40.7447 312.552 L40.7447 307.46 Z" fill="#000000" fill-rule="nonzero" fill-opacity="1" /><path clip-path="url(#clip590)" d="M40.6811 296.32 L40.6811 290.431 L69.9315 290.431 L54.5583 272.958 L54.5583 265.478 L71.2365 284.384 L90.2063 264.682 L90.2063 272.321 L72.7961 290.431 L90.2063 290.431 L90.2063 296.32 L40.6811 296.32 Z" fill="#000000" fill-rule="nonzero" fill-opacity="1" /><path clip-path="url(#clip590)" d="M40.7447 259.271 L40.7447 254.179 Q48.2563 249.404 55.4495 247.049 Q62.6428 244.662 69.7405 244.662 Q76.8701 244.662 84.0952 247.049 Q91.3203 249.404 98.8 254.179 L98.8 259.271 Q91.5113 255.038 84.318 252.969 Q77.0929 250.869 69.7405 250.869 Q62.3881 250.869 55.2267 252.969 Q48.0653 255.038 40.7447 259.271 Z" fill="#000000" fill-rule="nonzero" fill-opacity="1" /><polyline clip-path="url(#clip592)" style="stroke:#009af9; stroke-linecap:round; stroke-linejoin:round; stroke-width:4; stroke-opacity:1; fill:none" points="305.836,973.13 307.029,969.549 308.222,966.06 309.416,962.657 310.609,959.333 311.803,956.084 312.996,952.904 314.19,949.79 315.383,946.737 316.577,943.743 317.77,940.803 318.963,937.916 320.157,935.078 321.35,932.288 322.544,929.542 323.737,926.839 324.931,924.177 326.124,921.554 327.317,918.968 328.511,916.418 329.704,913.902 330.898,911.42 332.091,908.969 333.285,906.548 334.478,904.157 335.671,901.795 336.865,899.46 338.058,897.151 339.252,894.868 340.445,892.609 341.639,890.375 342.832,888.163 344.026,885.974 345.219,883.807 346.412,881.661 347.606,879.535 348.799,877.429 349.993,875.343 351.186,873.276 352.38,871.226 353.573,869.195 354.766,867.181 355.96,865.184 357.153,863.203 358.347,861.238 359.54,859.289 360.734,857.355 361.927,855.436 363.12,853.532 364.314,851.642 365.507,849.766 366.701,847.903 367.894,846.054 369.088,844.218 370.281,842.394 371.475,840.583 372.668,838.784 373.861,836.997 375.055,835.222 376.248,833.458 377.442,831.705 378.635,829.964 379.829,828.233 381.022,826.513 382.215,824.803 383.409,823.103 384.602,821.413 385.796,819.733 386.989,818.063 388.183,816.402 389.376,814.751 390.569,813.108 391.763,811.475 392.956,809.85 394.15,808.235 395.343,806.627 396.537,805.028 397.73,803.438 398.924,801.855 400.117,800.28 401.31,798.714 402.504,797.155 403.697,795.603 404.891,794.059 406.084,792.523 407.278,790.994 408.471,789.471 409.664,787.956 410.858,786.448 412.051,784.947 413.245,783.453 414.438,781.965 415.632,780.484 416.825,779.009 418.018,777.541 419.212,776.079 420.405,774.623 421.599,773.173 422.792,771.729 423.986,770.292 425.179,768.86 426.373,767.434 427.566,766.013 428.759,764.599 429.953,763.19 431.146,761.786 432.34,760.388 433.533,758.995 434.727,757.608 435.92,756.226 437.113,754.849 438.307,753.477 439.5,752.11 440.694,750.748 441.887,749.392 443.081,748.04 444.274,746.693 445.467,745.35 446.661,744.013 447.854,742.68 449.048,741.351 450.241,740.027 451.435,738.708 452.628,737.393 453.822,736.083 455.015,734.777 456.208,733.475 457.402,732.178 458.595,730.884 459.789,729.595 460.982,728.31 462.176,727.03 463.369,725.753 464.562,724.48 465.756,723.211 466.949,721.946 468.143,720.685 469.336,719.428 470.53,718.175 471.723,716.925 472.916,715.68 474.11,714.437 475.303,713.199 476.497,711.964 477.69,710.733 478.884,709.505 480.077,708.281 481.271,707.06 482.464,705.843 483.657,704.63 484.851,703.419 486.044,702.212 487.238,701.008 488.431,699.808 489.625,698.611 490.818,697.417 492.011,696.227 493.205,695.039 494.398,693.855 495.592,692.674 496.785,691.496 497.979,690.321 499.172,689.149 500.365,687.98 501.559,686.814 502.752,685.651 503.946,684.491 505.139,683.334 506.333,682.18 507.526,681.029 508.719,679.88 509.913,678.735 511.106,677.592 512.3,676.452 513.493,675.315 514.687,674.18 515.88,673.048 517.074,671.919 518.267,670.792 519.46,669.668 520.654,668.547 521.847,667.427 523.041,666.309 524.234,665.087 525.428,664.652 526.621,663.423 527.814,662.314 529.008,661.21 530.201,660.109 531.395,659.011 532.588,657.915 533.782,656.822 534.975,655.731 536.168,654.643 537.362,653.557 538.555,652.473 539.749,651.392 540.942,650.313 542.136,649.236 543.329,648.162 544.523,647.09 545.716,646.02 546.909,644.952 548.103,643.887 549.296,642.824 550.49,641.763 551.683,640.704 552.877,639.647 554.07,638.592 555.263,637.54 556.457,636.49 557.65,635.442 558.844,634.395 560.037,633.351 561.231,632.309 562.424,631.269 563.617,630.232 564.811,629.196 566.004,628.162 567.198,627.13 568.391,626.1 569.585,625.072 570.778,624.046 571.972,623.022 573.165,622 574.358,620.98 575.552,619.961 576.745,618.945 577.939,617.93 579.132,616.918 580.326,615.907 581.519,614.898 582.712,613.891 583.906,612.886 585.099,611.882 586.293,610.88 587.486,609.88 588.68,608.882 589.873,607.886 591.066,606.891 592.26,605.899 593.453,604.907 594.647,603.918 595.84,602.93 597.034,601.944 598.227,600.96 599.421,599.978 600.614,598.997 601.807,598.017 603.001,597.04 604.194,596.064 605.388,595.09 606.581,594.117 607.775,593.146 608.968,592.176 610.161,591.208 611.355,590.242 612.548,589.278 613.742,588.314 614.935,587.353 616.129,586.393 617.322,585.435 618.515,584.478 619.709,583.522 620.902,582.568 622.096,581.616 623.289,580.665 624.483,579.716 625.676,578.768 626.87,577.822 628.063,576.877 629.256,575.933 630.45,574.992 631.643,574.051 632.837,573.112 634.03,572.174 635.224,571.238 636.417,570.303 637.61,569.37 638.804,568.438 639.997,567.507 641.191,566.578 642.384,565.651 643.578,564.724 644.771,563.799 645.964,562.875 647.158,561.953 648.351,561.032 649.545,560.112 650.738,559.194 651.932,558.277 653.125,557.362 654.319,556.447 655.512,555.534 656.705,554.623 657.899,553.712 659.092,552.803 660.286,551.895 661.479,550.989 662.673,550.083 663.866,549.179 665.059,548.276 666.253,547.375 667.446,546.475 668.64,545.576 669.833,544.678 671.027,543.781 672.22,542.886 673.413,541.992 674.607,541.099 675.8,540.207 676.994,539.317 678.187,538.427 679.381,537.539 680.574,536.652 681.768,535.767 682.961,534.882 684.154,533.999 685.348,533.116 686.541,532.235 687.735,531.355 688.928,530.476 690.122,529.599 691.315,528.722 692.508,527.847 693.702,526.973 694.895,526.099 696.089,525.227 697.282,524.356 698.476,523.487 699.669,522.618 700.862,521.75 702.056,520.884 703.249,520.018 704.443,519.154 705.636,518.291 706.83,517.429 708.023,516.567 709.217,515.707 710.41,514.848 711.603,513.99 712.797,513.133 713.99,512.278 715.184,511.423 716.377,510.569 717.571,509.716 718.764,508.864 719.957,508.014 721.151,507.164 722.344,506.315 723.538,505.468 724.731,504.621 725.925,503.775 727.118,502.931 728.311,502.087 729.505,501.244 730.698,500.403 731.892,499.562 733.085,498.722 734.279,497.884 735.472,497.046 736.665,496.209 737.859,495.373 739.052,494.538 740.246,493.704 741.439,492.871 742.633,492.039 743.826,491.208 745.02,490.378 746.213,489.549 747.406,488.72 748.6,487.893 749.793,487.067 750.987,486.241 752.18,485.416 753.374,484.593 754.567,483.77 755.76,482.948 756.954,482.127 758.147,481.307 759.341,480.488 760.534,479.67 761.728,478.852 762.921,478.036 764.114,477.22 765.308,476.405 766.501,475.591 767.695,474.778 768.888,473.966 770.082,473.155 771.275,472.345 772.469,471.535 773.662,470.726 774.855,469.919 776.049,469.112 777.242,468.305 778.436,467.5 779.629,466.696 780.823,465.892 782.016,465.089 783.209,464.287 784.403,463.486 785.596,462.686 786.79,461.886 787.983,461.088 789.177,460.29 790.37,459.493 791.563,458.697 792.757,457.901 793.95,457.107 795.144,456.313 796.337,455.52 797.531,454.728 798.724,453.936 799.918,453.145 801.111,452.356 802.304,451.567 803.498,450.778 804.691,449.991 805.885,449.204 807.078,448.418 808.272,447.633 809.465,446.849 810.658,446.065 811.852,445.282 813.045,444.5 814.239,443.718 815.432,442.938 816.626,442.158 817.819,441.379 819.012,440.601 820.206,439.823 821.399,439.046 822.593,438.27 823.786,437.495 824.98,436.72 826.173,435.946 827.367,435.173 828.56,434.4 829.753,433.629 830.947,432.858 832.14,432.087 833.334,431.318 834.527,430.549 835.721,429.781 836.914,429.013 838.107,428.246 839.301,427.48 840.494,426.715 841.688,425.95 842.881,425.186 844.075,424.423 845.268,423.661 846.461,422.899 847.655,422.138 848.848,421.377 850.042,420.617 851.235,419.858 852.429,419.1 853.622,418.342 854.816,417.585 856.009,416.829 857.202,416.073 858.396,415.318 859.589,414.564 860.783,413.81 861.976,413.057 863.17,412.304 864.363,411.553 865.556,410.802 866.75,410.051 867.943,409.302 869.137,408.552 870.33,407.804 871.524,407.056 872.717,406.309 873.91,405.562 875.104,404.817 876.297,404.071 877.491,403.327 878.684,402.583 879.878,401.839 881.071,401.097 882.265,400.355 883.458,399.613 884.651,398.872 885.845,398.132 887.038,397.393 888.232,396.654 889.425,395.915 890.619,395.178 891.812,394.441 893.005,393.704 894.199,392.968 895.392,392.233 896.586,391.498 897.779,390.764 898.973,390.031 900.166,389.298 901.359,388.566 902.553,387.834 903.746,387.103 904.94,386.373 906.133,385.643 907.327,384.913 908.52,384.185 909.714,383.457 910.907,382.729 912.1,382.002 913.294,381.276 914.487,380.55 915.681,379.825 916.874,379.1 918.068,378.376 919.261,377.653 920.454,376.93 921.648,376.208 922.841,375.486 924.035,374.765 925.228,374.044 926.422,373.324 927.615,372.605 928.808,371.886 930.002,371.167 931.195,370.45 932.389,369.732 933.582,369.016 934.776,368.3 935.969,367.584 937.162,366.869 938.356,366.154 939.549,365.441 940.743,364.727 941.936,364.014 943.13,363.302 944.323,362.59 945.517,361.879 946.71,361.168 947.903,360.458 949.097,359.749 950.29,359.04 951.484,358.331 952.677,357.623 953.871,356.916 955.064,356.209 956.257,355.502 957.451,354.796 958.644,354.091 959.838,353.386 961.031,352.682 962.225,351.978 963.418,351.275 964.611,350.572 965.805,349.87 966.998,349.168 968.192,348.467 969.385,347.766 970.579,347.066 971.772,346.366 972.966,345.667 974.159,344.968 975.352,344.27 976.546,343.573 977.739,342.875 978.933,342.179 980.126,341.483 981.32,340.787 982.513,340.092 983.706,339.397 984.9,338.703 986.093,338.009 987.287,337.316 988.48,336.623 989.674,335.931 990.867,335.239 992.06,334.548 993.254,333.857 994.447,333.167 995.641,332.477 996.834,331.788 998.028,331.099 999.221,330.411 1000.41,329.723 1001.61,329.036 1002.8,328.349 1003.99,327.662 1005.19,326.976 1006.38,326.291 1007.58,325.606 1008.77,324.921 1009.96,324.237 1011.16,323.554 1012.35,322.87 1013.54,322.188 1014.74,321.506 1015.93,320.824 1017.12,320.142 1018.32,319.462 1019.51,318.781 1020.7,318.101 1021.9,317.422 1023.09,316.743 1024.28,316.064 1025.48,315.386 1026.67,314.709 1027.86,314.031 1029.06,313.355 1030.25,312.678 1031.44,312.003 1032.64,311.327 1033.83,310.652 1035.02,309.978 1036.22,309.304 1037.41,308.63 1038.6,307.957 1039.8,307.284 1040.99,306.612 1042.18,305.94 1043.38,305.269 1044.57,304.598 1045.77,303.927 1046.96,303.257 1048.15,302.587 1049.35,301.918 1050.54,301.249 1051.73,300.581 1052.93,299.913 1054.12,299.246 1055.31,298.579 1056.51,297.912 1057.7,297.246 1058.89,296.58 1060.09,295.914 1061.28,295.249 1062.47,294.585 1063.67,293.921 1064.86,293.257 1066.05,292.594 1067.25,291.931 1068.44,291.268 1069.63,290.606 1070.83,289.945 1072.02,289.284 1073.21,288.623 1074.41,287.962 1075.6,287.302 1076.79,286.643 1077.99,285.984 1079.18,285.325 1080.37,284.667 1081.57,284.009 1082.76,283.351 1083.95,282.694 1085.15,282.037 1086.34,281.381 1087.54,280.725 1088.73,280.07 1089.92,279.415 1091.12,278.76 1092.31,278.106 1093.5,277.452 1094.7,276.798 1095.89,276.145 1097.08,275.492 1098.28,274.84 1099.47,274.188 1100.66,273.536 1101.86,272.885 1103.05,272.234 1104.24,271.584 1105.44,270.934 1106.63,270.284 1107.82,269.635 1109.02,268.986 1110.21,268.338 1111.4,267.69 1112.6,267.042 1113.79,266.395 1114.98,265.748 1116.18,265.102 1117.37,264.455 1118.56,263.81 1119.76,263.164 1120.95,262.519 1122.14,261.875 1123.34,261.23 1124.53,260.586 1125.73,259.943 1126.92,259.3 1128.11,258.657 1129.31,258.015 1130.5,257.373 1131.69,256.731 1132.89,256.09 1134.08,255.449 1135.27,254.808 1136.47,254.168 1137.66,253.528 1138.85,252.889 1140.05,252.25 1141.24,251.611 1142.43,250.972 1143.63,250.334 1144.82,249.697 1146.01,249.06 1147.21,248.423 1148.4,247.786 1149.59,247.15 1150.79,246.514 1151.98,245.879 1153.17,245.243 1154.37,244.609 1155.56,243.974 1156.75,243.34 1157.95,242.707 1159.14,242.073 1160.33,241.44 1161.53,240.808 1162.72,240.175 1163.92,239.543 1165.11,238.912 1166.3,238.28 1167.5,237.65 1168.69,237.019 1169.88,236.389 1171.08,235.759 1172.27,235.129 1173.46,234.5 1174.66,233.871 1175.85,233.243 1177.04,232.615 1178.24,231.987 1179.43,231.36 1180.62,230.732 1181.82,230.106 1183.01,229.479 1184.2,228.853 1185.4,228.227 1186.59,227.602 1187.78,226.977 1188.98,226.352 1190.17,225.728 1191.36,225.104 1192.56,224.48 1193.75,223.856 1194.94,223.233 1196.14,222.61 1197.33,221.988 1198.52,221.366 1199.72,220.744 1200.91,220.123 1202.1,219.502 1203.3,218.881 1204.49,218.26 1205.69,217.64 1206.88,217.02 1208.07,216.401 1209.27,215.782 1210.46,215.163 1211.65,214.544 1212.85,213.926 1214.04,213.308 1215.23,212.691 1216.43,212.074 1217.62,211.457 1218.81,210.84 1220.01,210.224 1221.2,209.608 1222.39,208.992 1223.59,208.377 1224.78,207.762 1225.97,207.147 1227.17,206.533 1228.36,205.919 1229.55,205.305 1230.75,204.692 1231.94,204.079 1233.13,203.466 1234.33,202.853 1235.52,202.241 1236.71,201.629 1237.91,201.018 1239.1,200.406 1240.29,199.795 1241.49,199.185 1242.68,198.574 1243.88,197.964 1245.07,197.355 1246.26,196.745 1247.46,196.136 1248.65,195.527 1249.84,194.919 1251.04,194.311 1252.23,193.703 1253.42,193.095 1254.62,192.488 1255.81,191.881 1257,191.274 1258.2,190.668 1259.39,190.062 1260.58,189.456 1261.78,188.851 1262.97,188.245 1264.16,187.64 1265.36,187.036 1266.55,186.432 1267.74,185.828 1268.94,185.224 1270.13,184.62 1271.32,184.017 1272.52,183.415 1273.71,182.812 1274.9,182.21 1276.1,181.608 1277.29,181.006 1278.48,180.405 1279.68,179.804 1280.87,179.203 1282.07,178.602 1283.26,178.002 1284.45,177.402 1285.65,176.803 1286.84,176.203 1288.03,175.604 1289.23,175.005 1290.42,174.407 1291.61,173.809 1292.81,173.211 1294,172.613 1295.19,172.016 1296.39,171.419 1297.58,170.822 1298.77,170.225 1299.97,169.629 1301.16,169.033 1302.35,168.438 1303.55,167.842 1304.74,167.247 1305.93,166.652 1307.13,166.058 1308.32,165.463 1309.51,164.869 1310.71,164.276 1311.9,163.682 1313.09,163.089 1314.29,162.496 1315.48,161.904 1316.67,161.311 1317.87,160.719 1319.06,160.128 1320.25,159.536 1321.45,158.945 1322.64,158.354 1323.84,157.763 1325.03,157.173 1326.22,156.582 1327.42,155.993 1328.61,155.403 1329.8,154.814 1331,154.225 1332.19,153.636 1333.38,153.047 1334.58,152.459 1335.77,151.871 1336.96,151.283 1338.16,150.696 1339.35,150.109 1340.54,149.522 1341.74,148.935 1342.93,148.348 1344.12,147.762 1345.32,147.176 1346.51,146.591 1347.7,146.005 1348.9,145.42 1350.09,144.836 1351.28,144.251 1352.48,143.667 1353.67,143.083 1354.86,142.499 1356.06,141.915 1357.25,141.332 1358.44,140.749 1359.64,140.166 1360.83,139.584 1362.03,139.001 1363.22,138.419 1364.41,137.838 1365.61,137.256 1366.8,136.675 1367.99,136.094 1369.19,135.513 1370.38,134.933 1371.57,134.353 1372.77,133.773 1373.96,133.193 1375.15,132.614 1376.35,132.034 1377.54,131.456 1378.73,130.877 1379.93,130.298 1381.12,129.72 1382.31,129.142 1383.51,128.565 1384.7,127.987 1385.89,127.41 1387.09,126.833 1388.28,126.256 1389.47,125.68 1390.67,125.104 1391.86,124.528 1393.05,123.952 1394.25,123.377 1395.44,122.801 1396.63,122.226 1397.83,121.652 1399.02,121.077 1400.22,120.503 1401.41,119.929 1402.6,119.355 1403.8,118.782 1404.99,118.209 1406.18,117.636 1407.38,117.063 1408.57,116.49 1409.76,115.918 1410.96,115.346 1412.15,114.774 1413.34,114.203 1414.54,113.631 1415.73,113.06 1416.92,112.489 1418.12,111.919 1419.31,111.348 1420.5,110.778 1421.7,110.208 1422.89,109.639 1424.08,109.069 1425.28,108.5 1426.47,107.931 1427.66,107.362 1428.86,106.794 1430.05,106.226 1431.24,105.658 1432.44,105.09 1433.63,104.522 1434.82,103.955 1436.02,103.388 1437.21,102.821 1438.41,102.254 1439.6,101.688 1440.79,101.122 1441.99,100.556 1443.18,99.9902 1444.37,99.4247 1445.57,98.8595 1446.76,98.2945 1447.95,97.7297 1449.15,97.1652 1450.34,96.6009 1451.53,96.0368 1452.73,95.4729 1453.92,94.9093 1455.11,94.3459 1456.31,93.7827 1457.5,93.2198 1458.69,92.657 1459.89,92.0945 1461.08,91.5322 1462.27,90.9702 1463.47,90.4084 1464.66,89.8468 1465.85,89.2854 1467.05,88.7242 1468.24,88.1633 1469.43,87.6026 1470.63,87.0421 1471.82,86.4819 1473.01,85.9218 1474.21,85.362 1475.4,84.8024 1476.59,84.243 1477.79,83.6839 1478.98,83.1249 1480.18,82.5662 1481.37,82.0077 1482.56,81.4494 1483.76,80.8914 1484.95,80.3335 1486.14,79.7759 1487.34,79.2185 1488.53,78.6613 1489.72,78.1044 1490.92,77.5476 1492.11,76.9911 1493.3,76.4348 1494.5,75.8787 1495.69,75.3228 1496.88,74.7671 1498.08,74.2116 "/>
<path clip-path="url(#clip590)" d="M1888.98 1000.1 L3152.76 1000.1 L3152.76 47.2441 L1888.98 47.2441  Z" fill="#ffffff" fill-rule="evenodd" fill-opacity="1"/>
<polyline clip-path="url(#clip591)" style="stroke:#000000; stroke-linecap:round; stroke-linejoin:round; stroke-width:2; stroke-opacity:0.1; fill:none" points="1900.42,1000.1 1900.42,47.2441 "/>
<polyline clip-path="url(#clip591)" style="stroke:#000000; stroke-linecap:round; stroke-linejoin:round; stroke-width:2; stroke-opacity:0.1; fill:none" points="2173.09,1000.1 2173.09,47.2441 "/>
<polyline clip-path="url(#clip591)" style="stroke:#000000; stroke-linecap:round; stroke-linejoin:round; stroke-width:2; stroke-opacity:0.1; fill:none" points="2445.76,1000.1 2445.76,47.2441 "/>
<polyline clip-path="url(#clip591)" style="stroke:#000000; stroke-linecap:round; stroke-linejoin:round; stroke-width:2; stroke-opacity:0.1; fill:none" points="2718.43,1000.1 2718.43,47.2441 "/>
<polyline clip-path="url(#clip591)" style="stroke:#000000; stroke-linecap:round; stroke-linejoin:round; stroke-width:2; stroke-opacity:0.1; fill:none" points="2991.1,1000.1 2991.1,47.2441 "/>
<polyline clip-path="url(#clip591)" style="stroke:#000000; stroke-linecap:round; stroke-linejoin:round; stroke-width:2; stroke-opacity:0.1; fill:none" points="1888.98,996.931 3152.76,996.931 "/>
<polyline clip-path="url(#clip591)" style="stroke:#000000; stroke-linecap:round; stroke-linejoin:round; stroke-width:2; stroke-opacity:0.1; fill:none" points="1888.98,731.335 3152.76,731.335 "/>
<polyline clip-path="url(#clip591)" style="stroke:#000000; stroke-linecap:round; stroke-linejoin:round; stroke-width:2; stroke-opacity:0.1; fill:none" points="1888.98,465.739 3152.76,465.739 "/>
<polyline clip-path="url(#clip591)" style="stroke:#000000; stroke-linecap:round; stroke-linejoin:round; stroke-width:2; stroke-opacity:0.1; fill:none" points="1888.98,200.142 3152.76,200.142 "/>
<polyline clip-path="url(#clip590)" style="stroke:#000000; stroke-linecap:round; stroke-linejoin:round; stroke-width:4; stroke-opacity:1; fill:none" points="1888.98,1000.1 3152.76,1000.1 "/>
<polyline clip-path="url(#clip590)" style="stroke:#000000; stroke-linecap:round; stroke-linejoin:round; stroke-width:4; stroke-opacity:1; fill:none" points="1900.42,1000.1 1900.42,981.2 "/>
<polyline clip-path="url(#clip590)" style="stroke:#000000; stroke-linecap:round; stroke-linejoin:round; stroke-width:4; stroke-opacity:1; fill:none" points="2173.09,1000.1 2173.09,981.2 "/>
<polyline clip-path="url(#clip590)" style="stroke:#000000; stroke-linecap:round; stroke-linejoin:round; stroke-width:4; stroke-opacity:1; fill:none" points="2445.76,1000.1 2445.76,981.2 "/>
<polyline clip-path="url(#clip590)" style="stroke:#000000; stroke-linecap:round; stroke-linejoin:round; stroke-width:4; stroke-opacity:1; fill:none" points="2718.43,1000.1 2718.43,981.2 "/>
<polyline clip-path="url(#clip590)" style="stroke:#000000; stroke-linecap:round; stroke-linejoin:round; stroke-width:4; stroke-opacity:1; fill:none" points="2991.1,1000.1 2991.1,981.2 "/>
<path clip-path="url(#clip590)" d="M1900.42 1037.42 Q1896.81 1037.42 1894.98 1040.98 Q1893.17 1044.52 1893.17 1051.65 Q1893.17 1058.76 1894.98 1062.32 Q1896.81 1065.87 1900.42 1065.87 Q1904.05 1065.87 1905.86 1062.32 Q1907.68 1058.76 1907.68 1051.65 Q1907.68 1044.52 1905.86 1040.98 Q1904.05 1037.42 1900.42 1037.42 M1900.42 1033.71 Q1906.23 1033.71 1909.28 1038.32 Q1912.36 1042.9 1912.36 1051.65 Q1912.36 1060.38 1909.28 1064.99 Q1906.23 1069.57 1900.42 1069.57 Q1894.61 1069.57 1891.53 1064.99 Q1888.47 1060.38 1888.47 1051.65 Q1888.47 1042.9 1891.53 1038.32 Q1894.61 1033.71 1900.42 1033.71 Z" fill="#000000" fill-rule="nonzero" fill-opacity="1" /><path clip-path="url(#clip590)" d="M2167.74 1064.96 L2184.06 1064.96 L2184.06 1068.9 L2162.12 1068.9 L2162.12 1064.96 Q2164.78 1062.21 2169.36 1057.58 Q2173.97 1052.93 2175.15 1051.58 Q2177.39 1049.06 2178.27 1047.32 Q2179.18 1045.56 2179.18 1043.87 Q2179.18 1041.12 2177.23 1039.38 Q2175.31 1037.65 2172.21 1037.65 Q2170.01 1037.65 2167.55 1038.41 Q2165.12 1039.18 2162.35 1040.73 L2162.35 1036 Q2165.17 1034.87 2167.62 1034.29 Q2170.08 1033.71 2172.11 1033.71 Q2177.49 1033.71 2180.68 1036.4 Q2183.87 1039.08 2183.87 1043.57 Q2183.87 1045.7 2183.06 1047.62 Q2182.28 1049.52 2180.17 1052.12 Q2179.59 1052.79 2176.49 1056 Q2173.39 1059.2 2167.74 1064.96 Z" fill="#000000" fill-rule="nonzero" fill-opacity="1" /><path clip-path="url(#clip590)" d="M2448.77 1038.41 L2436.96 1056.86 L2448.77 1056.86 L2448.77 1038.41 M2447.54 1034.34 L2453.42 1034.34 L2453.42 1056.86 L2458.35 1056.86 L2458.35 1060.75 L2453.42 1060.75 L2453.42 1068.9 L2448.77 1068.9 L2448.77 1060.75 L2433.17 1060.75 L2433.17 1056.24 L2447.54 1034.34 Z" fill="#000000" fill-rule="nonzero" fill-opacity="1" /><path clip-path="url(#clip590)" d="M2718.83 1049.75 Q2715.69 1049.75 2713.83 1051.91 Q2712.01 1054.06 2712.01 1057.81 Q2712.01 1061.54 2713.83 1063.71 Q2715.69 1065.87 2718.83 1065.87 Q2721.98 1065.87 2723.81 1063.71 Q2725.66 1061.54 2725.66 1057.81 Q2725.66 1054.06 2723.81 1051.91 Q2721.98 1049.75 2718.83 1049.75 M2728.12 1035.1 L2728.12 1039.36 Q2726.36 1038.53 2724.55 1038.09 Q2722.77 1037.65 2721.01 1037.65 Q2716.38 1037.65 2713.93 1040.77 Q2711.5 1043.9 2711.15 1050.22 Q2712.52 1048.2 2714.58 1047.14 Q2716.64 1046.05 2719.11 1046.05 Q2724.32 1046.05 2727.33 1049.22 Q2730.36 1052.37 2730.36 1057.81 Q2730.36 1063.13 2727.21 1066.35 Q2724.07 1069.57 2718.83 1069.57 Q2712.84 1069.57 2709.67 1064.99 Q2706.5 1060.38 2706.5 1051.65 Q2706.5 1043.46 2710.39 1038.6 Q2714.27 1033.71 2720.83 1033.71 Q2722.58 1033.71 2724.37 1034.06 Q2726.17 1034.41 2728.12 1035.1 Z" fill="#000000" fill-rule="nonzero" fill-opacity="1" /><path clip-path="url(#clip590)" d="M2991.1 1052.49 Q2987.77 1052.49 2985.85 1054.27 Q2983.95 1056.05 2983.95 1059.18 Q2983.95 1062.3 2985.85 1064.08 Q2987.77 1065.87 2991.1 1065.87 Q2994.43 1065.87 2996.36 1064.08 Q2998.28 1062.28 2998.28 1059.18 Q2998.28 1056.05 2996.36 1054.27 Q2994.46 1052.49 2991.1 1052.49 M2986.42 1050.5 Q2983.42 1049.75 2981.73 1047.69 Q2980.06 1045.63 2980.06 1042.67 Q2980.06 1038.53 2983 1036.12 Q2985.96 1033.71 2991.1 1033.71 Q2996.26 1033.71 2999.2 1036.12 Q3002.14 1038.53 3002.14 1042.67 Q3002.14 1045.63 3000.45 1047.69 Q2998.79 1049.75 2995.8 1050.5 Q2999.18 1051.28 3001.05 1053.57 Q3002.95 1055.87 3002.95 1059.18 Q3002.95 1064.2 2999.87 1066.88 Q2996.82 1069.57 2991.1 1069.57 Q2985.38 1069.57 2982.3 1066.88 Q2979.25 1064.2 2979.25 1059.18 Q2979.25 1055.87 2981.15 1053.57 Q2983.04 1051.28 2986.42 1050.5 M2984.71 1043.11 Q2984.71 1045.8 2986.38 1047.3 Q2988.07 1048.81 2991.1 1048.81 Q2994.11 1048.81 2995.8 1047.3 Q2997.51 1045.8 2997.51 1043.11 Q2997.51 1040.43 2995.8 1038.92 Q2994.11 1037.42 2991.1 1037.42 Q2988.07 1037.42 2986.38 1038.92 Q2984.71 1040.43 2984.71 1043.11 Z" fill="#000000" fill-rule="nonzero" fill-opacity="1" /><path clip-path="url(#clip590)" d="M2412.29 1122.68 L2412.29 1128.16 Q2409.8 1126.79 2407.29 1126.12 Q2404.81 1125.42 2402.26 1125.42 Q2396.56 1125.42 2393.41 1129.05 Q2390.26 1132.64 2390.26 1139.17 Q2390.26 1145.69 2393.41 1149.32 Q2396.56 1152.92 2402.26 1152.92 Q2404.81 1152.92 2407.29 1152.25 Q2409.8 1151.55 2412.29 1150.18 L2412.29 1155.59 Q2409.83 1156.74 2407.19 1157.31 Q2404.58 1157.88 2401.62 1157.88 Q2393.57 1157.88 2388.83 1152.82 Q2384.08 1147.76 2384.08 1139.17 Q2384.08 1130.45 2388.86 1125.45 Q2393.67 1120.45 2402 1120.45 Q2404.71 1120.45 2407.29 1121.03 Q2409.87 1121.57 2412.29 1122.68 Z" fill="#000000" fill-rule="nonzero" fill-opacity="1" /><path clip-path="url(#clip590)" d="M2438.67 1139.04 Q2431.57 1139.04 2428.84 1140.67 Q2426.1 1142.29 2426.1 1146.2 Q2426.1 1149.32 2428.14 1151.17 Q2430.2 1152.98 2433.74 1152.98 Q2438.61 1152.98 2441.54 1149.55 Q2444.5 1146.08 2444.5 1140.35 L2444.5 1139.04 L2438.67 1139.04 M2450.35 1136.62 L2450.35 1156.96 L2444.5 1156.96 L2444.5 1151.55 Q2442.49 1154.8 2439.5 1156.36 Q2436.51 1157.88 2432.18 1157.88 Q2426.7 1157.88 2423.46 1154.83 Q2420.24 1151.74 2420.24 1146.59 Q2420.24 1140.57 2424.25 1137.51 Q2428.29 1134.46 2436.28 1134.46 L2444.5 1134.46 L2444.5 1133.89 Q2444.5 1129.84 2441.82 1127.65 Q2439.18 1125.42 2434.37 1125.42 Q2431.32 1125.42 2428.42 1126.15 Q2425.53 1126.88 2422.85 1128.35 L2422.85 1122.94 Q2426.07 1121.7 2429.09 1121.09 Q2432.11 1120.45 2434.98 1120.45 Q2442.71 1120.45 2446.53 1124.46 Q2450.35 1128.48 2450.35 1136.62 Z" fill="#000000" fill-rule="nonzero" fill-opacity="1" /><path clip-path="url(#clip590)" d="M2468.08 1151.61 L2468.08 1170.52 L2462.19 1170.52 L2462.19 1121.31 L2468.08 1121.31 L2468.08 1126.72 Q2469.93 1123.54 2472.73 1122.01 Q2475.56 1120.45 2479.48 1120.45 Q2485.97 1120.45 2490.01 1125.61 Q2494.08 1130.77 2494.08 1139.17 Q2494.08 1147.57 2490.01 1152.73 Q2485.97 1157.88 2479.48 1157.88 Q2475.56 1157.88 2472.73 1156.36 Q2469.93 1154.8 2468.08 1151.61 M2488.01 1139.17 Q2488.01 1132.71 2485.33 1129.05 Q2482.69 1125.36 2478.04 1125.36 Q2473.4 1125.36 2470.72 1129.05 Q2468.08 1132.71 2468.08 1139.17 Q2468.08 1145.63 2470.72 1149.32 Q2473.4 1152.98 2478.04 1152.98 Q2482.69 1152.98 2485.33 1149.32 Q2488.01 1145.63 2488.01 1139.17 Z" fill="#000000" fill-rule="nonzero" fill-opacity="1" /><path clip-path="url(#clip590)" d="M2503.79 1121.31 L2509.65 1121.31 L2509.65 1156.96 L2503.79 1156.96 L2503.79 1121.31 M2503.79 1107.44 L2509.65 1107.44 L2509.65 1114.85 L2503.79 1114.85 L2503.79 1107.44 Z" fill="#000000" fill-rule="nonzero" fill-opacity="1" /><path clip-path="url(#clip590)" d="M2527.7 1111.19 L2527.7 1121.31 L2539.76 1121.31 L2539.76 1125.87 L2527.7 1125.87 L2527.7 1145.22 Q2527.7 1149.58 2528.87 1150.82 Q2530.08 1152.06 2533.74 1152.06 L2539.76 1152.06 L2539.76 1156.96 L2533.74 1156.96 Q2526.96 1156.96 2524.39 1154.45 Q2521.81 1151.9 2521.81 1145.22 L2521.81 1125.87 L2517.51 1125.87 L2517.51 1121.31 L2521.81 1121.31 L2521.81 1111.19 L2527.7 1111.19 Z" fill="#000000" fill-rule="nonzero" fill-opacity="1" /><path clip-path="url(#clip590)" d="M2563.66 1139.04 Q2556.56 1139.04 2553.83 1140.67 Q2551.09 1142.29 2551.09 1146.2 Q2551.09 1149.32 2553.13 1151.17 Q2555.2 1152.98 2558.73 1152.98 Q2563.6 1152.98 2566.53 1149.55 Q2569.49 1146.08 2569.49 1140.35 L2569.49 1139.04 L2563.66 1139.04 M2575.34 1136.62 L2575.34 1156.96 L2569.49 1156.96 L2569.49 1151.55 Q2567.48 1154.8 2564.49 1156.36 Q2561.5 1157.88 2557.17 1157.88 Q2551.69 1157.88 2548.45 1154.83 Q2545.23 1151.74 2545.23 1146.59 Q2545.23 1140.57 2549.24 1137.51 Q2553.29 1134.46 2561.27 1134.46 L2569.49 1134.46 L2569.49 1133.89 Q2569.49 1129.84 2566.81 1127.65 Q2564.17 1125.42 2559.36 1125.42 Q2556.31 1125.42 2553.41 1126.15 Q2550.52 1126.88 2547.84 1128.35 L2547.84 1122.94 Q2551.06 1121.7 2554.08 1121.09 Q2557.1 1120.45 2559.97 1120.45 Q2567.7 1120.45 2571.52 1124.46 Q2575.34 1128.48 2575.34 1136.62 Z" fill="#000000" fill-rule="nonzero" fill-opacity="1" /><path clip-path="url(#clip590)" d="M2587.41 1107.44 L2593.26 1107.44 L2593.26 1156.96 L2587.41 1156.96 L2587.41 1107.44 Z" fill="#000000" fill-rule="nonzero" fill-opacity="1" /><path clip-path="url(#clip590)" d="M2626.01 1107.44 L2631.9 1107.44 L2631.9 1136.69 L2649.38 1121.31 L2656.86 1121.31 L2637.95 1137.99 L2657.65 1156.96 L2650.01 1156.96 L2631.9 1139.55 L2631.9 1156.96 L2626.01 1156.96 L2626.01 1107.44 Z" fill="#000000" fill-rule="nonzero" fill-opacity="1" /><polyline clip-path="url(#clip590)" style="stroke:#000000; stroke-linecap:round; stroke-linejoin:round; stroke-width:4; stroke-opacity:1; fill:none" points="1888.98,1000.1 1888.98,47.2441 "/>
<polyline clip-path="url(#clip590)" style="stroke:#000000; stroke-linecap:round; stroke-linejoin:round; stroke-width:4; stroke-opacity:1; fill:none" points="1888.98,996.931 1907.88,996.931 "/>
<polyline clip-path="url(#clip590)" style="stroke:#000000; stroke-linecap:round; stroke-linejoin:round; stroke-width:4; stroke-opacity:1; fill:none" points="1888.98,731.335 1907.88,731.335 "/>
<polyline clip-path="url(#clip590)" style="stroke:#000000; stroke-linecap:round; stroke-linejoin:round; stroke-width:4; stroke-opacity:1; fill:none" points="1888.98,465.739 1907.88,465.739 "/>
<polyline clip-path="url(#clip590)" style="stroke:#000000; stroke-linecap:round; stroke-linejoin:round; stroke-width:4; stroke-opacity:1; fill:none" points="1888.98,200.142 1907.88,200.142 "/>
<path clip-path="url(#clip590)" d="M1733.87 997.382 L1763.55 997.382 L1763.55 1001.32 L1733.87 1001.32 L1733.87 997.382 Z" fill="#000000" fill-rule="nonzero" fill-opacity="1" /><path clip-path="url(#clip590)" d="M1783.64 982.73 Q1780.03 982.73 1778.2 986.295 Q1776.4 989.836 1776.4 996.966 Q1776.4 1004.07 1778.2 1007.64 Q1780.03 1011.18 1783.64 1011.18 Q1787.28 1011.18 1789.08 1007.64 Q1790.91 1004.07 1790.91 996.966 Q1790.91 989.836 1789.08 986.295 Q1787.28 982.73 1783.64 982.73 M1783.64 979.026 Q1789.45 979.026 1792.51 983.632 Q1795.59 988.216 1795.59 996.966 Q1795.59 1005.69 1792.51 1010.3 Q1789.45 1014.88 1783.64 1014.88 Q1777.83 1014.88 1774.75 1010.3 Q1771.7 1005.69 1771.7 996.966 Q1771.7 988.216 1774.75 983.632 Q1777.83 979.026 1783.64 979.026 Z" fill="#000000" fill-rule="nonzero" fill-opacity="1" /><path clip-path="url(#clip590)" d="M1803.8 1008.33 L1808.69 1008.33 L1808.69 1014.21 L1803.8 1014.21 L1803.8 1008.33 Z" fill="#000000" fill-rule="nonzero" fill-opacity="1" /><path clip-path="url(#clip590)" d="M1829.45 995.068 Q1826.3 995.068 1824.45 997.22 Q1822.62 999.373 1822.62 1003.12 Q1822.62 1006.85 1824.45 1009.03 Q1826.3 1011.18 1829.45 1011.18 Q1832.6 1011.18 1834.43 1009.03 Q1836.28 1006.85 1836.28 1003.12 Q1836.28 999.373 1834.43 997.22 Q1832.6 995.068 1829.45 995.068 M1838.73 980.415 L1838.73 984.674 Q1836.98 983.841 1835.17 983.401 Q1833.39 982.961 1831.63 982.961 Q1827 982.961 1824.55 986.086 Q1822.11 989.211 1821.77 995.531 Q1823.13 993.517 1825.19 992.452 Q1827.25 991.364 1829.73 991.364 Q1834.94 991.364 1837.95 994.535 Q1840.98 997.683 1840.98 1003.12 Q1840.98 1008.45 1837.83 1011.66 Q1834.68 1014.88 1829.45 1014.88 Q1823.46 1014.88 1820.29 1010.3 Q1817.11 1005.69 1817.11 996.966 Q1817.11 988.771 1821 983.91 Q1824.89 979.026 1831.44 979.026 Q1833.2 979.026 1834.98 979.373 Q1836.79 979.72 1838.73 980.415 Z" fill="#000000" fill-rule="nonzero" fill-opacity="1" /><path clip-path="url(#clip590)" d="M1733.55 731.786 L1763.23 731.786 L1763.23 735.721 L1733.55 735.721 L1733.55 731.786 Z" fill="#000000" fill-rule="nonzero" fill-opacity="1" /><path clip-path="url(#clip590)" d="M1783.32 717.133 Q1779.71 717.133 1777.88 720.698 Q1776.07 724.24 1776.07 731.37 Q1776.07 738.476 1777.88 742.041 Q1779.71 745.582 1783.32 745.582 Q1786.95 745.582 1788.76 742.041 Q1790.59 738.476 1790.59 731.37 Q1790.59 724.24 1788.76 720.698 Q1786.95 717.133 1783.32 717.133 M1783.32 713.43 Q1789.13 713.43 1792.18 718.036 Q1795.26 722.62 1795.26 731.37 Q1795.26 740.096 1792.18 744.703 Q1789.13 749.286 1783.32 749.286 Q1777.51 749.286 1774.43 744.703 Q1771.37 740.096 1771.37 731.37 Q1771.37 722.62 1774.43 718.036 Q1777.51 713.43 1783.32 713.43 Z" fill="#000000" fill-rule="nonzero" fill-opacity="1" /><path clip-path="url(#clip590)" d="M1803.48 742.735 L1808.36 742.735 L1808.36 748.615 L1803.48 748.615 L1803.48 742.735 Z" fill="#000000" fill-rule="nonzero" fill-opacity="1" /><path clip-path="url(#clip590)" d="M1831.4 718.129 L1819.59 736.578 L1831.4 736.578 L1831.4 718.129 M1830.17 714.055 L1836.05 714.055 L1836.05 736.578 L1840.98 736.578 L1840.98 740.467 L1836.05 740.467 L1836.05 748.615 L1831.4 748.615 L1831.4 740.467 L1815.8 740.467 L1815.8 735.953 L1830.17 714.055 Z" fill="#000000" fill-rule="nonzero" fill-opacity="1" /><path clip-path="url(#clip590)" d="M1735.63 466.19 L1765.31 466.19 L1765.31 470.125 L1735.63 470.125 L1735.63 466.19 Z" fill="#000000" fill-rule="nonzero" fill-opacity="1" /><path clip-path="url(#clip590)" d="M1785.4 451.537 Q1781.79 451.537 1779.96 455.102 Q1778.16 458.644 1778.16 465.773 Q1778.16 472.88 1779.96 476.445 Q1781.79 479.986 1785.4 479.986 Q1789.04 479.986 1790.84 476.445 Q1792.67 472.88 1792.67 465.773 Q1792.67 458.644 1790.84 455.102 Q1789.04 451.537 1785.4 451.537 M1785.4 447.834 Q1791.21 447.834 1794.27 452.44 Q1797.35 457.023 1797.35 465.773 Q1797.35 474.5 1794.27 479.107 Q1791.21 483.69 1785.4 483.69 Q1779.59 483.69 1776.51 479.107 Q1773.46 474.5 1773.46 465.773 Q1773.46 457.023 1776.51 452.44 Q1779.59 447.834 1785.4 447.834 Z" fill="#000000" fill-rule="nonzero" fill-opacity="1" /><path clip-path="url(#clip590)" d="M1805.56 477.139 L1810.45 477.139 L1810.45 483.019 L1805.56 483.019 L1805.56 477.139 Z" fill="#000000" fill-rule="nonzero" fill-opacity="1" /><path clip-path="url(#clip590)" d="M1824.66 479.083 L1840.98 479.083 L1840.98 483.019 L1819.04 483.019 L1819.04 479.083 Q1821.7 476.329 1826.28 471.699 Q1830.89 467.046 1832.07 465.704 Q1834.31 463.181 1835.19 461.445 Q1836.1 459.685 1836.1 457.996 Q1836.1 455.241 1834.15 453.505 Q1832.23 451.769 1829.13 451.769 Q1826.93 451.769 1824.48 452.533 Q1822.05 453.297 1819.27 454.847 L1819.27 450.125 Q1822.09 448.991 1824.55 448.412 Q1827 447.834 1829.04 447.834 Q1834.41 447.834 1837.6 450.519 Q1840.8 453.204 1840.8 457.695 Q1840.8 459.824 1839.98 461.746 Q1839.2 463.644 1837.09 466.236 Q1836.51 466.908 1833.41 470.125 Q1830.31 473.32 1824.66 479.083 Z" fill="#000000" fill-rule="nonzero" fill-opacity="1" /><path clip-path="url(#clip590)" d="M1783.8 185.941 Q1780.19 185.941 1778.36 189.506 Q1776.56 193.047 1776.56 200.177 Q1776.56 207.284 1778.36 210.848 Q1780.19 214.39 1783.8 214.39 Q1787.44 214.39 1789.24 210.848 Q1791.07 207.284 1791.07 200.177 Q1791.07 193.047 1789.24 189.506 Q1787.44 185.941 1783.8 185.941 M1783.8 182.237 Q1789.61 182.237 1792.67 186.844 Q1795.75 191.427 1795.75 200.177 Q1795.75 208.904 1792.67 213.51 Q1789.61 218.094 1783.8 218.094 Q1777.99 218.094 1774.92 213.51 Q1771.86 208.904 1771.86 200.177 Q1771.86 191.427 1774.92 186.844 Q1777.99 182.237 1783.8 182.237 Z" fill="#000000" fill-rule="nonzero" fill-opacity="1" /><path clip-path="url(#clip590)" d="M1803.97 211.543 L1808.85 211.543 L1808.85 217.422 L1803.97 217.422 L1803.97 211.543 Z" fill="#000000" fill-rule="nonzero" fill-opacity="1" /><path clip-path="url(#clip590)" d="M1829.04 185.941 Q1825.42 185.941 1823.6 189.506 Q1821.79 193.047 1821.79 200.177 Q1821.79 207.284 1823.6 210.848 Q1825.42 214.39 1829.04 214.39 Q1832.67 214.39 1834.48 210.848 Q1836.3 207.284 1836.3 200.177 Q1836.3 193.047 1834.48 189.506 Q1832.67 185.941 1829.04 185.941 M1829.04 182.237 Q1834.85 182.237 1837.9 186.844 Q1840.98 191.427 1840.98 200.177 Q1840.98 208.904 1837.9 213.51 Q1834.85 218.094 1829.04 218.094 Q1823.23 218.094 1820.15 213.51 Q1817.09 208.904 1817.09 200.177 Q1817.09 191.427 1820.15 186.844 Q1823.23 182.237 1829.04 182.237 Z" fill="#000000" fill-rule="nonzero" fill-opacity="1" /><path clip-path="url(#clip590)" d="M1637.02 730.174 L1642.49 730.174 Q1641.12 732.657 1640.45 735.172 Q1639.75 737.654 1639.75 740.2 Q1639.75 745.898 1643.38 749.049 Q1646.98 752.2 1653.5 752.2 Q1660.03 752.2 1663.66 749.049 Q1667.25 745.898 1667.25 740.2 Q1667.25 737.654 1666.58 735.172 Q1665.88 732.657 1664.51 730.174 L1669.93 730.174 Q1671.07 732.625 1671.64 735.267 Q1672.22 737.877 1672.22 740.837 Q1672.22 748.89 1667.16 753.632 Q1662.1 758.375 1653.5 758.375 Q1644.78 758.375 1639.78 753.6 Q1634.79 748.794 1634.79 740.455 Q1634.79 737.75 1635.36 735.172 Q1635.9 732.593 1637.02 730.174 Z" fill="#000000" fill-rule="nonzero" fill-opacity="1" /><path clip-path="url(#clip590)" d="M1653.37 703.789 Q1653.37 710.886 1655 713.624 Q1656.62 716.361 1660.54 716.361 Q1663.66 716.361 1665.5 714.324 Q1667.32 712.255 1667.32 708.722 Q1667.32 703.852 1663.88 700.924 Q1660.41 697.964 1654.68 697.964 L1653.37 697.964 L1653.37 703.789 M1650.96 692.108 L1671.29 692.108 L1671.29 697.964 L1665.88 697.964 Q1669.13 699.969 1670.69 702.961 Q1672.22 705.953 1672.22 710.282 Q1672.22 715.756 1669.16 719.003 Q1666.07 722.217 1660.92 722.217 Q1654.9 722.217 1651.85 718.207 Q1648.79 714.165 1648.79 706.176 L1648.79 697.964 L1648.22 697.964 Q1644.18 697.964 1641.98 700.638 Q1639.75 703.279 1639.75 708.085 Q1639.75 711.141 1640.48 714.037 Q1641.22 716.934 1642.68 719.607 L1637.27 719.607 Q1636.03 716.393 1635.42 713.369 Q1634.79 710.345 1634.79 707.481 Q1634.79 699.746 1638.8 695.927 Q1642.81 692.108 1650.96 692.108 Z" fill="#000000" fill-rule="nonzero" fill-opacity="1" /><path clip-path="url(#clip590)" d="M1665.95 674.379 L1684.85 674.379 L1684.85 680.267 L1635.65 680.267 L1635.65 674.379 L1641.06 674.379 Q1637.87 672.533 1636.35 669.732 Q1634.79 666.899 1634.79 662.984 Q1634.79 656.491 1639.94 652.449 Q1645.1 648.375 1653.5 648.375 Q1661.9 648.375 1667.06 652.449 Q1672.22 656.491 1672.22 662.984 Q1672.22 666.899 1670.69 669.732 Q1669.13 672.533 1665.95 674.379 M1653.5 654.454 Q1647.04 654.454 1643.38 657.128 Q1639.69 659.77 1639.69 664.417 Q1639.69 669.064 1643.38 671.737 Q1647.04 674.379 1653.5 674.379 Q1659.96 674.379 1663.66 671.737 Q1667.32 669.064 1667.32 664.417 Q1667.32 659.77 1663.66 657.128 Q1659.96 654.454 1653.5 654.454 Z" fill="#000000" fill-rule="nonzero" fill-opacity="1" /><path clip-path="url(#clip590)" d="M1635.65 638.667 L1635.65 632.811 L1671.29 632.811 L1671.29 638.667 L1635.65 638.667 M1621.77 638.667 L1621.77 632.811 L1629.19 632.811 L1629.19 638.667 L1621.77 638.667 Z" fill="#000000" fill-rule="nonzero" fill-opacity="1" /><path clip-path="url(#clip590)" d="M1625.52 614.764 L1635.65 614.764 L1635.65 602.701 L1640.2 602.701 L1640.2 614.764 L1659.55 614.764 Q1663.91 614.764 1665.15 613.587 Q1666.39 612.377 1666.39 608.717 L1666.39 602.701 L1671.29 602.701 L1671.29 608.717 Q1671.29 615.496 1668.78 618.074 Q1666.23 620.652 1659.55 620.652 L1640.2 620.652 L1640.2 624.949 L1635.65 624.949 L1635.65 620.652 L1625.52 620.652 L1625.52 614.764 Z" fill="#000000" fill-rule="nonzero" fill-opacity="1" /><path clip-path="url(#clip590)" d="M1653.37 578.798 Q1653.37 585.896 1655 588.633 Q1656.62 591.37 1660.54 591.37 Q1663.66 591.37 1665.5 589.333 Q1667.32 587.264 1667.32 583.731 Q1667.32 578.862 1663.88 575.933 Q1660.41 572.973 1654.68 572.973 L1653.37 572.973 L1653.37 578.798 M1650.96 567.117 L1671.29 567.117 L1671.29 572.973 L1665.88 572.973 Q1669.13 574.979 1670.69 577.97 Q1672.22 580.962 1672.22 585.291 Q1672.22 590.765 1669.16 594.012 Q1666.07 597.227 1660.92 597.227 Q1654.9 597.227 1651.85 593.216 Q1648.79 589.174 1648.79 581.185 L1648.79 572.973 L1648.22 572.973 Q1644.18 572.973 1641.98 575.647 Q1639.75 578.289 1639.75 583.095 Q1639.75 586.15 1640.48 589.047 Q1641.22 591.943 1642.68 594.617 L1637.27 594.617 Q1636.03 591.402 1635.42 588.378 Q1634.79 585.355 1634.79 582.49 Q1634.79 574.756 1638.8 570.936 Q1642.81 567.117 1650.96 567.117 Z" fill="#000000" fill-rule="nonzero" fill-opacity="1" /><path clip-path="url(#clip590)" d="M1621.77 555.054 L1621.77 549.197 L1671.29 549.197 L1671.29 555.054 L1621.77 555.054 Z" fill="#000000" fill-rule="nonzero" fill-opacity="1" /><path clip-path="url(#clip590)" d="M1641.06 492.765 L1621.77 492.765 L1621.77 486.909 L1671.29 486.909 L1671.29 492.765 L1665.95 492.765 Q1669.13 494.611 1670.69 497.444 Q1672.22 500.245 1672.22 504.192 Q1672.22 510.653 1667.06 514.727 Q1661.9 518.769 1653.5 518.769 Q1645.1 518.769 1639.94 514.727 Q1634.79 510.653 1634.79 504.192 Q1634.79 500.245 1636.35 497.444 Q1637.87 494.611 1641.06 492.765 M1653.5 512.722 Q1659.96 512.722 1663.66 510.08 Q1667.32 507.407 1667.32 502.76 Q1667.32 498.113 1663.66 495.439 Q1659.96 492.765 1653.5 492.765 Q1647.04 492.765 1643.38 495.439 Q1639.69 498.113 1639.69 502.76 Q1639.69 507.407 1643.38 510.08 Q1647.04 512.722 1653.5 512.722 Z" fill="#000000" fill-rule="nonzero" fill-opacity="1" /><path clip-path="url(#clip590)" d="M1641.12 454.189 Q1640.55 455.176 1640.29 456.354 Q1640.01 457.499 1640.01 458.9 Q1640.01 463.865 1643.25 466.539 Q1646.47 469.18 1652.52 469.18 L1671.29 469.18 L1671.29 475.069 L1635.65 475.069 L1635.65 469.18 L1641.18 469.18 Q1637.94 467.334 1636.38 464.374 Q1634.79 461.414 1634.79 457.181 Q1634.79 456.576 1634.88 455.844 Q1634.95 455.112 1635.11 454.221 L1641.12 454.189 Z" fill="#000000" fill-rule="nonzero" fill-opacity="1" /><path clip-path="url(#clip590)" d="M1635.65 448.046 L1635.65 442.19 L1671.29 442.19 L1671.29 448.046 L1635.65 448.046 M1621.77 448.046 L1621.77 442.19 L1629.19 442.19 L1629.19 448.046 L1621.77 448.046 Z" fill="#000000" fill-rule="nonzero" fill-opacity="1" /><path clip-path="url(#clip590)" d="M1621.77 411.889 L1626.64 411.889 L1626.64 417.491 Q1626.64 420.642 1627.91 421.883 Q1629.19 423.093 1632.5 423.093 L1635.65 423.093 L1635.65 413.449 L1640.2 413.449 L1640.2 423.093 L1671.29 423.093 L1671.29 428.981 L1640.2 428.981 L1640.2 434.583 L1635.65 434.583 L1635.65 428.981 L1633.16 428.981 Q1627.21 428.981 1624.51 426.212 Q1621.77 423.443 1621.77 417.427 L1621.77 411.889 Z" fill="#000000" fill-rule="nonzero" fill-opacity="1" /><path clip-path="url(#clip590)" d="M1625.52 402.341 L1635.65 402.341 L1635.65 390.278 L1640.2 390.278 L1640.2 402.341 L1659.55 402.341 Q1663.91 402.341 1665.15 401.163 Q1666.39 399.953 1666.39 396.293 L1666.39 390.278 L1671.29 390.278 L1671.29 396.293 Q1671.29 403.073 1668.78 405.651 Q1666.23 408.229 1659.55 408.229 L1640.2 408.229 L1640.2 412.526 L1635.65 412.526 L1635.65 408.229 L1625.52 408.229 L1625.52 402.341 Z" fill="#000000" fill-rule="nonzero" fill-opacity="1" /><path clip-path="url(#clip590)" d="M1684.85 362.459 L1635.65 362.459 L1635.65 356.603 L1657.8 356.603 Q1662.41 356.603 1664.77 354.407 Q1667.12 352.211 1667.12 347.914 Q1667.12 343.203 1664.45 340.848 Q1661.78 338.461 1656.43 338.461 L1635.65 338.461 L1635.65 332.604 L1663.08 332.604 Q1664.99 332.604 1665.92 332.063 Q1666.81 331.49 1666.81 330.313 Q1666.81 330.026 1666.65 329.517 Q1666.46 329.008 1666.07 328.116 L1670.79 328.116 Q1671.52 329.421 1671.87 330.599 Q1672.22 331.745 1672.22 332.859 Q1672.22 335.055 1670.98 336.36 Q1669.73 337.665 1667.19 338.142 Q1669.7 339.734 1670.98 342.057 Q1672.22 344.349 1672.22 347.468 Q1672.22 350.715 1670.98 353.006 Q1669.73 355.266 1667.25 356.603 L1684.85 356.603 L1684.85 362.459 Z" fill="#000000" fill-rule="nonzero" fill-opacity="1" /><path clip-path="url(#clip590)" d="M1621.77 320.605 L1621.77 314.717 L1651.02 314.717 L1635.65 297.243 L1635.65 289.763 L1652.32 308.669 L1671.29 288.967 L1671.29 296.606 L1653.88 314.717 L1671.29 314.717 L1671.29 320.605 L1621.77 320.605 Z" fill="#000000" fill-rule="nonzero" fill-opacity="1" /><polyline clip-path="url(#clip591)" style="stroke:#009af9; stroke-linecap:round; stroke-linejoin:round; stroke-width:4; stroke-opacity:1; fill:none" points="1924.75,75.6306 1925.94,75.2682 1927.13,74.9674 1928.33,74.7232 1929.52,74.5312 1930.71,74.3873 1931.91,74.2881 1933.1,74.2305 1934.3,74.2116 1935.49,74.229 1936.68,74.2803 1937.88,74.3634 1939.07,74.4765 1940.26,74.6178 1941.46,74.7857 1942.65,74.9787 1943.84,75.1956 1945.04,75.4351 1946.23,75.696 1947.42,75.9773 1948.62,76.278 1949.81,76.5972 1951,76.934 1952.2,77.2877 1953.39,77.6574 1954.58,78.0425 1955.78,78.4424 1956.97,78.8564 1958.16,79.284 1959.36,79.7246 1960.55,80.1777 1961.74,80.6428 1962.94,81.1195 1964.13,81.6073 1965.32,82.1058 1966.52,82.6147 1967.71,83.1336 1968.9,83.6621 1970.1,84.1999 1971.29,84.7467 1972.48,85.3022 1973.68,85.8661 1974.87,86.4382 1976.07,87.0181 1977.26,87.6057 1978.45,88.2006 1979.65,88.8028 1980.84,89.4118 1982.03,90.0277 1983.23,90.6501 1984.42,91.2788 1985.61,91.9138 1986.81,92.5547 1988,93.2015 1989.19,93.854 1990.39,94.512 1991.58,95.1754 1992.77,95.844 1993.97,96.5177 1995.16,97.1964 1996.35,97.8799 1997.55,98.5681 1998.74,99.261 1999.93,99.9583 2001.13,100.66 2002.32,101.366 2003.51,102.076 2004.71,102.79 2005.9,103.509 2007.09,104.231 2008.29,104.956 2009.48,105.686 2010.67,106.419 2011.87,107.156 2013.06,107.896 2014.26,108.64 2015.45,109.386 2016.64,110.137 2017.84,110.89 2019.03,111.646 2020.22,112.406 2021.42,113.168 2022.61,113.933 2023.8,114.701 2025,115.472 2026.19,116.246 2027.38,117.022 2028.58,117.801 2029.77,118.583 2030.96,119.367 2032.16,120.153 2033.35,120.942 2034.54,121.734 2035.74,122.527 2036.93,123.323 2038.12,124.121 2039.32,124.922 2040.51,125.724 2041.7,126.529 2042.9,127.336 2044.09,128.145 2045.28,128.956 2046.48,129.768 2047.67,130.583 2048.86,131.4 2050.06,132.218 2051.25,133.039 2052.45,133.861 2053.64,134.685 2054.83,135.511 2056.03,136.338 2057.22,137.167 2058.41,137.998 2059.61,138.83 2060.8,139.664 2061.99,140.5 2063.19,141.337 2064.38,142.176 2065.57,143.016 2066.77,143.858 2067.96,144.701 2069.15,145.546 2070.35,146.391 2071.54,147.239 2072.73,148.088 2073.93,148.938 2075.12,149.789 2076.31,150.642 2077.51,151.496 2078.7,152.351 2079.89,153.207 2081.09,154.065 2082.28,154.924 2083.47,155.784 2084.67,156.645 2085.86,157.508 2087.05,158.372 2088.25,159.236 2089.44,160.102 2090.63,160.969 2091.83,161.837 2093.02,162.706 2094.22,163.576 2095.41,164.447 2096.6,165.319 2097.8,166.192 2098.99,167.066 2100.18,167.941 2101.38,168.817 2102.57,169.694 2103.76,170.572 2104.96,171.451 2106.15,172.331 2107.34,173.211 2108.54,174.093 2109.73,174.975 2110.92,175.858 2112.12,176.742 2113.31,177.627 2114.5,178.513 2115.7,179.4 2116.89,180.287 2118.08,181.175 2119.28,182.064 2120.47,182.954 2121.66,183.844 2122.86,184.735 2124.05,185.627 2125.24,186.52 2126.44,187.413 2127.63,188.307 2128.82,189.202 2130.02,190.098 2131.21,190.994 2132.41,191.891 2133.6,192.788 2134.79,193.687 2135.99,194.585 2137.18,195.485 2138.37,196.386 2139.57,197.287 2140.76,198.189 2141.95,199.096 2143.15,200.142 2144.34,200.142 2145.53,201.207 2146.73,202.116 2147.92,203.022 2149.11,203.928 2150.31,204.834 2151.5,205.74 2152.69,206.647 2153.89,207.554 2155.08,208.462 2156.27,209.371 2157.47,210.28 2158.66,211.189 2159.85,212.099 2161.05,213.009 2162.24,213.92 2163.43,214.831 2164.63,215.743 2165.82,216.656 2167.01,217.568 2168.21,218.482 2169.4,219.395 2170.6,220.31 2171.79,221.224 2172.98,222.139 2174.18,223.055 2175.37,223.971 2176.56,224.887 2177.76,225.804 2178.95,226.722 2180.14,227.639 2181.34,228.557 2182.53,229.476 2183.72,230.395 2184.92,231.314 2186.11,232.234 2187.3,233.154 2188.5,234.075 2189.69,234.996 2190.88,235.917 2192.08,236.839 2193.27,237.761 2194.46,238.683 2195.66,239.606 2196.85,240.529 2198.04,241.452 2199.24,242.376 2200.43,243.3 2201.62,244.225 2202.82,245.15 2204.01,246.075 2205.2,247.001 2206.4,247.927 2207.59,248.853 2208.78,249.779 2209.98,250.706 2211.17,251.633 2212.37,252.561 2213.56,253.489 2214.75,254.417 2215.95,255.345 2217.14,256.274 2218.33,257.203 2219.53,258.132 2220.72,259.062 2221.91,259.992 2223.11,260.922 2224.3,261.852 2225.49,262.783 2226.69,263.714 2227.88,264.645 2229.07,265.577 2230.27,266.508 2231.46,267.441 2232.65,268.373 2233.85,269.305 2235.04,270.238 2236.23,271.171 2237.43,272.105 2238.62,273.038 2239.81,273.972 2241.01,274.906 2242.2,275.841 2243.39,276.775 2244.59,277.71 2245.78,278.645 2246.97,279.58 2248.17,280.516 2249.36,281.452 2250.56,282.387 2251.75,283.324 2252.94,284.26 2254.14,285.197 2255.33,286.133 2256.52,287.07 2257.72,288.008 2258.91,288.945 2260.1,289.883 2261.3,290.821 2262.49,291.759 2263.68,292.697 2264.88,293.635 2266.07,294.574 2267.26,295.513 2268.46,296.452 2269.65,297.391 2270.84,298.331 2272.04,299.27 2273.23,300.21 2274.42,301.15 2275.62,302.09 2276.81,303.031 2278,303.971 2279.2,304.912 2280.39,305.853 2281.58,306.794 2282.78,307.735 2283.97,308.676 2285.16,309.618 2286.36,310.56 2287.55,311.501 2288.75,312.443 2289.94,313.386 2291.13,314.328 2292.33,315.27 2293.52,316.213 2294.71,317.156 2295.91,318.099 2297.1,319.042 2298.29,319.985 2299.49,320.929 2300.68,321.872 2301.87,322.816 2303.07,323.76 2304.26,324.704 2305.45,325.648 2306.65,326.592 2307.84,327.537 2309.03,328.481 2310.23,329.426 2311.42,330.371 2312.61,331.316 2313.81,332.261 2315,333.206 2316.19,334.151 2317.39,335.097 2318.58,336.042 2319.77,336.988 2320.97,337.934 2322.16,338.88 2323.35,339.826 2324.55,340.772 2325.74,341.719 2326.94,342.665 2328.13,343.612 2329.32,344.558 2330.52,345.505 2331.71,346.452 2332.9,347.399 2334.1,348.346 2335.29,349.293 2336.48,350.241 2337.68,351.188 2338.87,352.136 2340.06,353.083 2341.26,354.031 2342.45,354.979 2343.64,355.927 2344.84,356.875 2346.03,357.823 2347.22,358.771 2348.42,359.72 2349.61,360.668 2350.8,361.617 2352,362.565 2353.19,363.514 2354.38,364.463 2355.58,365.412 2356.77,366.361 2357.96,367.31 2359.16,368.259 2360.35,369.209 2361.54,370.158 2362.74,371.107 2363.93,372.057 2365.12,373.007 2366.32,373.956 2367.51,374.906 2368.71,375.856 2369.9,376.806 2371.09,377.756 2372.29,378.706 2373.48,379.656 2374.67,380.607 2375.87,381.557 2377.06,382.507 2378.25,383.458 2379.45,384.408 2380.64,385.359 2381.83,386.31 2383.03,387.261 2384.22,388.211 2385.41,389.162 2386.61,390.113 2387.8,391.064 2388.99,392.016 2390.19,392.967 2391.38,393.918 2392.57,394.869 2393.77,395.821 2394.96,396.772 2396.15,397.724 2397.35,398.675 2398.54,399.627 2399.73,400.579 2400.93,401.531 2402.12,402.482 2403.31,403.434 2404.51,404.386 2405.7,405.338 2406.9,406.29 2408.09,407.243 2409.28,408.195 2410.48,409.147 2411.67,410.099 2412.86,411.052 2414.06,412.004 2415.25,412.957 2416.44,413.909 2417.64,414.862 2418.83,415.814 2420.02,416.767 2421.22,417.72 2422.41,418.673 2423.6,419.625 2424.8,420.578 2425.99,421.531 2427.18,422.484 2428.38,423.437 2429.57,424.39 2430.76,425.343 2431.96,426.297 2433.15,427.25 2434.34,428.203 2435.54,429.156 2436.73,430.11 2437.92,431.063 2439.12,432.016 2440.31,432.97 2441.5,433.923 2442.7,434.877 2443.89,435.83 2445.09,436.784 2446.28,437.738 2447.47,438.691 2448.67,439.645 2449.86,440.599 2451.05,441.553 2452.25,442.507 2453.44,443.461 2454.63,444.414 2455.83,445.368 2457.02,446.322 2458.21,447.276 2459.41,448.23 2460.6,449.185 2461.79,450.139 2462.99,451.093 2464.18,452.047 2465.37,453.001 2466.57,453.955 2467.76,454.91 2468.95,455.864 2470.15,456.818 2471.34,457.773 2472.53,458.727 2473.73,459.682 2474.92,460.636 2476.11,461.591 2477.31,462.545 2478.5,463.5 2479.69,464.454 2480.89,465.409 2482.08,466.363 2483.27,467.318 2484.47,468.273 2485.66,469.227 2486.86,470.182 2488.05,471.137 2489.24,472.092 2490.44,473.046 2491.63,474.001 2492.82,474.956 2494.02,475.911 2495.21,476.866 2496.4,477.821 2497.6,478.776 2498.79,479.731 2499.98,480.686 2501.18,481.641 2502.37,482.596 2503.56,483.551 2504.76,484.506 2505.95,485.461 2507.14,486.416 2508.34,487.371 2509.53,488.326 2510.72,489.281 2511.92,490.236 2513.11,491.191 2514.3,492.147 2515.5,493.102 2516.69,494.057 2517.88,495.012 2519.08,495.967 2520.27,496.923 2521.46,497.878 2522.66,498.833 2523.85,499.788 2525.05,500.744 2526.24,501.699 2527.43,502.654 2528.63,503.61 2529.82,504.565 2531.01,505.521 2532.21,506.476 2533.4,507.431 2534.59,508.387 2535.79,509.342 2536.98,510.298 2538.17,511.253 2539.37,512.208 2540.56,513.164 2541.75,514.119 2542.95,515.075 2544.14,516.03 2545.33,516.986 2546.53,517.941 2547.72,518.897 2548.91,519.852 2550.11,520.808 2551.3,521.763 2552.49,522.719 2553.69,523.674 2554.88,524.63 2556.07,525.586 2557.27,526.541 2558.46,527.497 2559.65,528.452 2560.85,529.408 2562.04,530.363 2563.24,531.319 2564.43,532.275 2565.62,533.23 2566.82,534.186 2568.01,535.141 2569.2,536.097 2570.4,537.053 2571.59,538.008 2572.78,538.964 2573.98,539.92 2575.17,540.875 2576.36,541.831 2577.56,542.786 2578.75,543.742 2579.94,544.698 2581.14,545.653 2582.33,546.609 2583.52,547.565 2584.72,548.52 2585.91,549.476 2587.1,550.431 2588.3,551.387 2589.49,552.343 2590.68,553.298 2591.88,554.254 2593.07,555.21 2594.26,556.165 2595.46,557.121 2596.65,558.077 2597.84,559.032 2599.04,559.988 2600.23,560.943 2601.42,561.899 2602.62,562.855 2603.81,563.81 2605.01,564.766 2606.2,565.722 2607.39,566.677 2608.59,567.633 2609.78,568.588 2610.97,569.544 2612.17,570.5 2613.36,571.455 2614.55,572.411 2615.75,573.366 2616.94,574.322 2618.13,575.278 2619.33,576.233 2620.52,577.189 2621.71,578.144 2622.91,579.1 2624.1,580.055 2625.29,581.011 2626.49,581.967 2627.68,582.922 2628.87,583.878 2630.07,584.833 2631.26,585.789 2632.45,586.744 2633.65,587.7 2634.84,588.655 2636.03,589.611 2637.23,590.566 2638.42,591.522 2639.61,592.477 2640.81,593.433 2642,594.388 2643.2,595.343 2644.39,596.299 2645.58,597.254 2646.78,598.21 2647.97,599.165 2649.16,600.121 2650.36,601.076 2651.55,602.031 2652.74,602.987 2653.94,603.942 2655.13,604.897 2656.32,605.853 2657.52,606.808 2658.71,607.763 2659.9,608.719 2661.1,609.674 2662.29,610.629 2663.48,611.585 2664.68,612.54 2665.87,613.495 2667.06,614.451 2668.26,615.406 2669.45,616.361 2670.64,617.316 2671.84,618.271 2673.03,619.227 2674.22,620.182 2675.42,621.137 2676.61,622.092 2677.8,623.047 2679,624.002 2680.19,624.958 2681.39,625.913 2682.58,626.868 2683.77,627.823 2684.97,628.778 2686.16,629.733 2687.35,630.688 2688.55,631.643 2689.74,632.598 2690.93,633.553 2692.13,634.508 2693.32,635.463 2694.51,636.418 2695.71,637.373 2696.9,638.328 2698.09,639.283 2699.29,640.238 2700.48,641.193 2701.67,642.148 2702.87,643.103 2704.06,644.058 2705.25,645.012 2706.45,645.967 2707.64,646.922 2708.83,647.877 2710.03,648.832 2711.22,649.786 2712.41,650.741 2713.61,651.696 2714.8,652.651 2715.99,653.605 2717.19,654.56 2718.38,655.515 2719.57,656.469 2720.77,657.424 2721.96,658.379 2723.16,659.333 2724.35,660.288 2725.54,661.243 2726.74,662.197 2727.93,663.152 2729.12,664.106 2730.32,665.061 2731.51,666.015 2732.7,666.97 2733.9,667.924 2735.09,668.879 2736.28,669.833 2737.48,670.788 2738.67,671.742 2739.86,672.696 2741.06,673.651 2742.25,674.605 2743.44,675.559 2744.64,676.514 2745.83,677.468 2747.02,678.422 2748.22,679.377 2749.41,680.331 2750.6,681.285 2751.8,682.239 2752.99,683.194 2754.18,684.148 2755.38,685.102 2756.57,686.056 2757.76,687.01 2758.96,687.964 2760.15,688.918 2761.35,689.872 2762.54,690.826 2763.73,691.78 2764.93,692.735 2766.12,693.688 2767.31,694.642 2768.51,695.596 2769.7,696.55 2770.89,697.504 2772.09,698.458 2773.28,699.412 2774.47,700.366 2775.67,701.32 2776.86,702.274 2778.05,703.227 2779.25,704.181 2780.44,705.135 2781.63,706.089 2782.83,707.042 2784.02,707.996 2785.21,708.95 2786.41,709.903 2787.6,710.857 2788.79,711.811 2789.99,712.764 2791.18,713.718 2792.37,714.671 2793.57,715.625 2794.76,716.578 2795.95,717.532 2797.15,718.485 2798.34,719.439 2799.54,720.392 2800.73,721.346 2801.92,722.299 2803.12,723.252 2804.31,724.206 2805.5,725.159 2806.7,726.112 2807.89,727.066 2809.08,728.019 2810.28,728.972 2811.47,729.925 2812.66,730.879 2813.86,731.832 2815.05,732.785 2816.24,733.738 2817.44,734.691 2818.63,735.644 2819.82,736.597 2821.02,737.55 2822.21,738.503 2823.4,739.456 2824.6,740.409 2825.79,741.362 2826.98,742.315 2828.18,743.268 2829.37,744.221 2830.56,745.174 2831.76,746.127 2832.95,747.08 2834.14,748.032 2835.34,748.985 2836.53,749.938 2837.72,750.891 2838.92,751.843 2840.11,752.796 2841.31,753.749 2842.5,754.701 2843.69,755.654 2844.89,756.607 2846.08,757.559 2847.27,758.512 2848.47,759.464 2849.66,760.417 2850.85,761.369 2852.05,762.322 2853.24,763.274 2854.43,764.226 2855.63,765.179 2856.82,766.131 2858.01,767.084 2859.21,768.036 2860.4,768.988 2861.59,769.94 2862.79,770.893 2863.98,771.845 2865.17,772.797 2866.37,773.749 2867.56,774.701 2868.75,775.653 2869.95,776.606 2871.14,777.558 2872.33,778.51 2873.53,779.462 2874.72,780.414 2875.91,781.366 2877.11,782.318 2878.3,783.27 2879.5,784.221 2880.69,785.173 2881.88,786.125 2883.08,787.077 2884.27,788.029 2885.46,788.981 2886.66,789.932 2887.85,790.884 2889.04,791.836 2890.24,792.788 2891.43,793.739 2892.62,794.691 2893.82,795.642 2895.01,796.594 2896.2,797.546 2897.4,798.497 2898.59,799.449 2899.78,800.4 2900.98,801.352 2902.17,802.303 2903.36,803.254 2904.56,804.206 2905.75,805.157 2906.94,806.109 2908.14,807.06 2909.33,808.011 2910.52,808.962 2911.72,809.914 2912.91,810.865 2914.1,811.816 2915.3,812.767 2916.49,813.718 2917.69,814.669 2918.88,815.621 2920.07,816.572 2921.27,817.523 2922.46,818.474 2923.65,819.425 2924.85,820.376 2926.04,821.327 2927.23,822.277 2928.43,823.228 2929.62,824.179 2930.81,825.13 2932.01,826.081 2933.2,827.032 2934.39,827.982 2935.59,828.933 2936.78,829.884 2937.97,830.834 2939.17,831.785 2940.36,832.736 2941.55,833.686 2942.75,834.637 2943.94,835.587 2945.13,836.538 2946.33,837.488 2947.52,838.439 2948.71,839.389 2949.91,840.34 2951.1,841.29 2952.29,842.24 2953.49,843.191 2954.68,844.141 2955.88,845.091 2957.07,846.042 2958.26,846.992 2959.46,847.942 2960.65,848.892 2961.84,849.842 2963.04,850.793 2964.23,851.743 2965.42,852.693 2966.62,853.643 2967.81,854.593 2969,855.543 2970.2,856.493 2971.39,857.443 2972.58,858.393 2973.78,859.342 2974.97,860.292 2976.16,861.242 2977.36,862.192 2978.55,863.142 2979.74,864.091 2980.94,865.041 2982.13,865.991 2983.32,866.941 2984.52,867.89 2985.71,868.84 2986.9,869.789 2988.1,870.739 2989.29,871.689 2990.48,872.638 2991.68,873.588 2992.87,874.537 2994.06,875.486 2995.26,876.436 2996.45,877.385 2997.65,878.335 2998.84,879.284 3000.03,880.233 3001.23,881.182 3002.42,882.132 3003.61,883.081 3004.81,884.03 3006,884.979 3007.19,885.928 3008.39,886.877 3009.58,887.827 3010.77,888.776 3011.97,889.725 3013.16,890.674 3014.35,891.623 3015.55,892.572 3016.74,893.52 3017.93,894.469 3019.13,895.418 3020.32,896.367 3021.51,897.316 3022.71,898.265 3023.9,899.213 3025.09,900.162 3026.29,901.111 3027.48,902.059 3028.67,903.008 3029.87,903.957 3031.06,904.905 3032.25,905.854 3033.45,906.802 3034.64,907.751 3035.84,908.699 3037.03,909.648 3038.22,910.596 3039.42,911.545 3040.61,912.493 3041.8,913.441 3043,914.39 3044.19,915.338 3045.38,916.286 3046.58,917.234 3047.77,918.183 3048.96,919.131 3050.16,920.079 3051.35,921.027 3052.54,921.975 3053.74,922.923 3054.93,923.871 3056.12,924.819 3057.32,925.767 3058.51,926.715 3059.7,927.663 3060.9,928.611 3062.09,929.559 3063.28,930.507 3064.48,931.454 3065.67,932.402 3066.86,933.35 3068.06,934.298 3069.25,935.245 3070.44,936.193 3071.64,937.141 3072.83,938.088 3074.03,939.036 3075.22,939.983 3076.41,940.931 3077.61,941.878 3078.8,942.826 3079.99,943.773 3081.19,944.721 3082.38,945.668 3083.57,946.615 3084.77,947.563 3085.96,948.51 3087.15,949.457 3088.35,950.405 3089.54,951.352 3090.73,952.299 3091.93,953.246 3093.12,954.193 3094.31,955.14 3095.51,956.088 3096.7,957.035 3097.89,957.982 3099.09,958.929 3100.28,959.876 3101.47,960.823 3102.67,961.769 3103.86,962.716 3105.05,963.663 3106.25,964.61 3107.44,965.557 3108.63,966.504 3109.83,967.45 3111.02,968.397 3112.21,969.344 3113.41,970.29 3114.6,971.237 3115.8,972.184 3116.99,973.13 "/>
<polyline clip-path="url(#clip591)" style="stroke:#808080; stroke-linecap:round; stroke-linejoin:round; stroke-width:4; stroke-opacity:1; fill:none" stroke-dasharray="16, 10" points="625.205,200.142 4416.53,200.142 "/>
<polyline clip-path="url(#clip591)" style="stroke:#ff0000; stroke-linecap:round; stroke-linejoin:round; stroke-width:4; stroke-opacity:1; fill:none" stroke-dasharray="2, 4" points="2143.73,1952.95 2143.73,-905.61 "/>
</svg>
