<?xml version="1.0" encoding="utf-8"?>
<svg xmlns="http://www.w3.org/2000/svg" xmlns:xlink="http://www.w3.org/1999/xlink" width="600" height="400" viewBox="0 0 2400 1600">
<defs>
  <clipPath id="clip580">
    <rect x="0" y="0" width="2400" height="1600"/>
  </clipPath>
</defs>
<path clip-path="url(#clip580)" d="M0 1600 L2400 1600 L2400 0 L0 0  Z" fill="#ffffff" fill-rule="evenodd" fill-opacity="1"/>
<defs>
  <clipPath id="clip581">
    <rect x="266" y="47" width="2087" height="1314"/>
  </clipPath>
</defs>
<path clip-path="url(#clip580)" d="M266.956 1360.19 L2352.76 1360.19 L2352.76 47.2441 L266.956 47.2441  Z" fill="#ffffff" fill-rule="evenodd" fill-opacity="1"/>
<polyline clip-path="url(#clip581)" style="stroke:#000000; stroke-linecap:round; stroke-linejoin:round; stroke-width:2; stroke-opacity:0.1; fill:none" points="285.416,1360.19 285.416,47.2441 "/>
<polyline clip-path="url(#clip581)" style="stroke:#000000; stroke-linecap:round; stroke-linejoin:round; stroke-width:2; stroke-opacity:0.1; fill:none" points="712.737,1360.19 712.737,47.2441 "/>
<polyline clip-path="url(#clip581)" style="stroke:#000000; stroke-linecap:round; stroke-linejoin:round; stroke-width:2; stroke-opacity:0.1; fill:none" points="1140.06,1360.19 1140.06,47.2441 "/>
<polyline clip-path="url(#clip581)" style="stroke:#000000; stroke-linecap:round; stroke-linejoin:round; stroke-width:2; stroke-opacity:0.1; fill:none" points="1567.38,1360.19 1567.38,47.2441 "/>
<polyline clip-path="url(#clip581)" style="stroke:#000000; stroke-linecap:round; stroke-linejoin:round; stroke-width:2; stroke-opacity:0.1; fill:none" points="1994.7,1360.19 1994.7,47.2441 "/>
<polyline clip-path="url(#clip581)" style="stroke:#000000; stroke-linecap:round; stroke-linejoin:round; stroke-width:2; stroke-opacity:0.1; fill:none" points="266.956,1220.18 2352.76,1220.18 "/>
<polyline clip-path="url(#clip581)" style="stroke:#000000; stroke-linecap:round; stroke-linejoin:round; stroke-width:2; stroke-opacity:0.1; fill:none" points="266.956,865.06 2352.76,865.06 "/>
<polyline clip-path="url(#clip581)" style="stroke:#000000; stroke-linecap:round; stroke-linejoin:round; stroke-width:2; stroke-opacity:0.1; fill:none" points="266.956,509.94 2352.76,509.94 "/>
<polyline clip-path="url(#clip581)" style="stroke:#000000; stroke-linecap:round; stroke-linejoin:round; stroke-width:2; stroke-opacity:0.1; fill:none" points="266.956,154.819 2352.76,154.819 "/>
<polyline clip-path="url(#clip580)" style="stroke:#000000; stroke-linecap:round; stroke-linejoin:round; stroke-width:4; stroke-opacity:1; fill:none" points="266.956,1360.19 2352.76,1360.19 "/>
<polyline clip-path="url(#clip580)" style="stroke:#000000; stroke-linecap:round; stroke-linejoin:round; stroke-width:4; stroke-opacity:1; fill:none" points="285.416,1360.19 285.416,1341.29 "/>
<polyline clip-path="url(#clip580)" style="stroke:#000000; stroke-linecap:round; stroke-linejoin:round; stroke-width:4; stroke-opacity:1; fill:none" points="712.737,1360.19 712.737,1341.29 "/>
<polyline clip-path="url(#clip580)" style="stroke:#000000; stroke-linecap:round; stroke-linejoin:round; stroke-width:4; stroke-opacity:1; fill:none" points="1140.06,1360.19 1140.06,1341.29 "/>
<polyline clip-path="url(#clip580)" style="stroke:#000000; stroke-linecap:round; stroke-linejoin:round; stroke-width:4; stroke-opacity:1; fill:none" points="1567.38,1360.19 1567.38,1341.29 "/>
<polyline clip-path="url(#clip580)" style="stroke:#000000; stroke-linecap:round; stroke-linejoin:round; stroke-width:4; stroke-opacity:1; fill:none" points="1994.7,1360.19 1994.7,1341.29 "/>
<path clip-path="url(#clip580)" d="M247.719 1391.11 Q244.108 1391.11 242.28 1394.67 Q240.474 1398.21 240.474 1405.34 Q240.474 1412.45 242.28 1416.01 Q244.108 1419.56 247.719 1419.56 Q251.354 1419.56 253.159 1416.01 Q254.988 1412.45 254.988 1405.34 Q254.988 1398.21 253.159 1394.67 Q251.354 1391.11 247.719 1391.11 M247.719 1387.4 Q253.53 1387.4 256.585 1392.01 Q259.664 1396.59 259.664 1405.34 Q259.664 1414.07 256.585 1418.68 Q253.53 1423.26 247.719 1423.26 Q241.909 1423.26 238.831 1418.68 Q235.775 1414.07 235.775 1405.34 Q235.775 1396.59 238.831 1392.01 Q241.909 1387.4 247.719 1387.4 Z" fill="#000000" fill-rule="nonzero" fill-opacity="1" /><path clip-path="url(#clip580)" d="M267.881 1416.71 L272.766 1416.71 L272.766 1422.59 L267.881 1422.59 L267.881 1416.71 Z" fill="#000000" fill-rule="nonzero" fill-opacity="1" /><path clip-path="url(#clip580)" d="M292.951 1391.11 Q289.339 1391.11 287.511 1394.67 Q285.705 1398.21 285.705 1405.34 Q285.705 1412.45 287.511 1416.01 Q289.339 1419.56 292.951 1419.56 Q296.585 1419.56 298.39 1416.01 Q300.219 1412.45 300.219 1405.34 Q300.219 1398.21 298.39 1394.67 Q296.585 1391.11 292.951 1391.11 M292.951 1387.4 Q298.761 1387.4 301.816 1392.01 Q304.895 1396.59 304.895 1405.34 Q304.895 1414.07 301.816 1418.68 Q298.761 1423.26 292.951 1423.26 Q287.14 1423.26 284.062 1418.68 Q281.006 1414.07 281.006 1405.34 Q281.006 1396.59 284.062 1392.01 Q287.14 1387.4 292.951 1387.4 Z" fill="#000000" fill-rule="nonzero" fill-opacity="1" /><path clip-path="url(#clip580)" d="M323.112 1391.11 Q319.501 1391.11 317.673 1394.67 Q315.867 1398.21 315.867 1405.34 Q315.867 1412.45 317.673 1416.01 Q319.501 1419.56 323.112 1419.56 Q326.747 1419.56 328.552 1416.01 Q330.381 1412.45 330.381 1405.34 Q330.381 1398.21 328.552 1394.67 Q326.747 1391.11 323.112 1391.11 M323.112 1387.4 Q328.923 1387.4 331.978 1392.01 Q335.057 1396.59 335.057 1405.34 Q335.057 1414.07 331.978 1418.68 Q328.923 1423.26 323.112 1423.26 Q317.302 1423.26 314.224 1418.68 Q311.168 1414.07 311.168 1405.34 Q311.168 1396.59 314.224 1392.01 Q317.302 1387.4 323.112 1387.4 Z" fill="#000000" fill-rule="nonzero" fill-opacity="1" /><path clip-path="url(#clip580)" d="M675.839 1391.11 Q672.228 1391.11 670.399 1394.67 Q668.594 1398.21 668.594 1405.34 Q668.594 1412.45 670.399 1416.01 Q672.228 1419.56 675.839 1419.56 Q679.473 1419.56 681.279 1416.01 Q683.108 1412.45 683.108 1405.34 Q683.108 1398.21 681.279 1394.67 Q679.473 1391.11 675.839 1391.11 M675.839 1387.4 Q681.649 1387.4 684.705 1392.01 Q687.784 1396.59 687.784 1405.34 Q687.784 1414.07 684.705 1418.68 Q681.649 1423.26 675.839 1423.26 Q670.029 1423.26 666.95 1418.68 Q663.895 1414.07 663.895 1405.34 Q663.895 1396.59 666.95 1392.01 Q670.029 1387.4 675.839 1387.4 Z" fill="#000000" fill-rule="nonzero" fill-opacity="1" /><path clip-path="url(#clip580)" d="M696.001 1416.71 L700.885 1416.71 L700.885 1422.59 L696.001 1422.59 L696.001 1416.71 Z" fill="#000000" fill-rule="nonzero" fill-opacity="1" /><path clip-path="url(#clip580)" d="M721.07 1391.11 Q717.459 1391.11 715.631 1394.67 Q713.825 1398.21 713.825 1405.34 Q713.825 1412.45 715.631 1416.01 Q717.459 1419.56 721.07 1419.56 Q724.705 1419.56 726.51 1416.01 Q728.339 1412.45 728.339 1405.34 Q728.339 1398.21 726.51 1394.67 Q724.705 1391.11 721.07 1391.11 M721.07 1387.4 Q726.881 1387.4 729.936 1392.01 Q733.015 1396.59 733.015 1405.34 Q733.015 1414.07 729.936 1418.68 Q726.881 1423.26 721.07 1423.26 Q715.26 1423.26 712.182 1418.68 Q709.126 1414.07 709.126 1405.34 Q709.126 1396.59 712.182 1392.01 Q715.26 1387.4 721.07 1387.4 Z" fill="#000000" fill-rule="nonzero" fill-opacity="1" /><path clip-path="url(#clip580)" d="M745.26 1418.65 L761.579 1418.65 L761.579 1422.59 L739.635 1422.59 L739.635 1418.65 Q742.297 1415.9 746.88 1411.27 Q751.487 1406.62 752.667 1405.27 Q754.913 1402.75 755.792 1401.01 Q756.695 1399.25 756.695 1397.56 Q756.695 1394.81 754.751 1393.07 Q752.829 1391.34 749.728 1391.34 Q747.529 1391.34 745.075 1392.1 Q742.644 1392.87 739.867 1394.42 L739.867 1389.69 Q742.691 1388.56 745.144 1387.98 Q747.598 1387.4 749.635 1387.4 Q755.005 1387.4 758.2 1390.09 Q761.394 1392.77 761.394 1397.26 Q761.394 1399.39 760.584 1401.31 Q759.797 1403.21 757.691 1405.81 Q757.112 1406.48 754.01 1409.69 Q750.908 1412.89 745.26 1418.65 Z" fill="#000000" fill-rule="nonzero" fill-opacity="1" /><path clip-path="url(#clip580)" d="M1102.12 1391.11 Q1098.51 1391.11 1096.68 1394.67 Q1094.87 1398.21 1094.87 1405.34 Q1094.87 1412.45 1096.68 1416.01 Q1098.51 1419.56 1102.12 1419.56 Q1105.75 1419.56 1107.56 1416.01 Q1109.39 1412.45 1109.39 1405.34 Q1109.39 1398.21 1107.56 1394.67 Q1105.75 1391.11 1102.12 1391.11 M1102.12 1387.4 Q1107.93 1387.4 1110.98 1392.01 Q1114.06 1396.59 1114.06 1405.34 Q1114.06 1414.07 1110.98 1418.68 Q1107.93 1423.26 1102.12 1423.26 Q1096.31 1423.26 1093.23 1418.68 Q1090.17 1414.07 1090.17 1405.34 Q1090.17 1396.59 1093.23 1392.01 Q1096.31 1387.4 1102.12 1387.4 Z" fill="#000000" fill-rule="nonzero" fill-opacity="1" /><path clip-path="url(#clip580)" d="M1122.28 1416.71 L1127.16 1416.71 L1127.16 1422.59 L1122.28 1422.59 L1122.28 1416.71 Z" fill="#000000" fill-rule="nonzero" fill-opacity="1" /><path clip-path="url(#clip580)" d="M1147.35 1391.11 Q1143.74 1391.11 1141.91 1394.67 Q1140.1 1398.21 1140.1 1405.34 Q1140.1 1412.45 1141.91 1416.01 Q1143.74 1419.56 1147.35 1419.56 Q1150.98 1419.56 1152.79 1416.01 Q1154.62 1412.45 1154.62 1405.34 Q1154.62 1398.21 1152.79 1394.67 Q1150.98 1391.11 1147.35 1391.11 M1147.35 1387.4 Q1153.16 1387.4 1156.22 1392.01 Q1159.29 1396.59 1159.29 1405.34 Q1159.29 1414.07 1156.22 1418.68 Q1153.16 1423.26 1147.35 1423.26 Q1141.54 1423.26 1138.46 1418.68 Q1135.41 1414.07 1135.41 1405.34 Q1135.41 1396.59 1138.46 1392.01 Q1141.54 1387.4 1147.35 1387.4 Z" fill="#000000" fill-rule="nonzero" fill-opacity="1" /><path clip-path="url(#clip580)" d="M1180.36 1392.1 L1168.55 1410.55 L1180.36 1410.55 L1180.36 1392.1 M1179.13 1388.03 L1185.01 1388.03 L1185.01 1410.55 L1189.94 1410.55 L1189.94 1414.44 L1185.01 1414.44 L1185.01 1422.59 L1180.36 1422.59 L1180.36 1414.44 L1164.76 1414.44 L1164.76 1409.93 L1179.13 1388.03 Z" fill="#000000" fill-rule="nonzero" fill-opacity="1" /><path clip-path="url(#clip580)" d="M1529.6 1391.11 Q1525.99 1391.11 1524.16 1394.67 Q1522.36 1398.21 1522.36 1405.34 Q1522.36 1412.45 1524.16 1416.01 Q1525.99 1419.56 1529.6 1419.56 Q1533.24 1419.56 1535.04 1416.01 Q1536.87 1412.45 1536.87 1405.34 Q1536.87 1398.21 1535.04 1394.67 Q1533.24 1391.11 1529.6 1391.11 M1529.6 1387.4 Q1535.41 1387.4 1538.47 1392.01 Q1541.55 1396.59 1541.55 1405.34 Q1541.55 1414.07 1538.47 1418.68 Q1535.41 1423.26 1529.6 1423.26 Q1523.79 1423.26 1520.71 1418.68 Q1517.66 1414.07 1517.66 1405.34 Q1517.66 1396.59 1520.71 1392.01 Q1523.79 1387.4 1529.6 1387.4 Z" fill="#000000" fill-rule="nonzero" fill-opacity="1" /><path clip-path="url(#clip580)" d="M1549.76 1416.71 L1554.65 1416.71 L1554.65 1422.59 L1549.76 1422.59 L1549.76 1416.71 Z" fill="#000000" fill-rule="nonzero" fill-opacity="1" /><path clip-path="url(#clip580)" d="M1574.83 1391.11 Q1571.22 1391.11 1569.39 1394.67 Q1567.59 1398.21 1567.59 1405.34 Q1567.59 1412.45 1569.39 1416.01 Q1571.22 1419.56 1574.83 1419.56 Q1578.47 1419.56 1580.27 1416.01 Q1582.1 1412.45 1582.1 1405.34 Q1582.1 1398.21 1580.27 1394.67 Q1578.47 1391.11 1574.83 1391.11 M1574.83 1387.4 Q1580.64 1387.4 1583.7 1392.01 Q1586.78 1396.59 1586.78 1405.34 Q1586.78 1414.07 1583.7 1418.68 Q1580.64 1423.26 1574.83 1423.26 Q1569.02 1423.26 1565.94 1418.68 Q1562.89 1414.07 1562.89 1405.34 Q1562.89 1396.59 1565.94 1392.01 Q1569.02 1387.4 1574.83 1387.4 Z" fill="#000000" fill-rule="nonzero" fill-opacity="1" /><path clip-path="url(#clip580)" d="M1605.57 1403.44 Q1602.43 1403.44 1600.57 1405.6 Q1598.75 1407.75 1598.75 1411.5 Q1598.75 1415.23 1600.57 1417.4 Q1602.43 1419.56 1605.57 1419.56 Q1608.72 1419.56 1610.55 1417.4 Q1612.4 1415.23 1612.4 1411.5 Q1612.4 1407.75 1610.55 1405.6 Q1608.72 1403.44 1605.57 1403.44 M1614.86 1388.79 L1614.86 1393.05 Q1613.1 1392.22 1611.29 1391.78 Q1609.51 1391.34 1607.75 1391.34 Q1603.12 1391.34 1600.67 1394.46 Q1598.24 1397.59 1597.89 1403.91 Q1599.25 1401.89 1601.31 1400.83 Q1603.37 1399.74 1605.85 1399.74 Q1611.06 1399.74 1614.07 1402.91 Q1617.1 1406.06 1617.1 1411.5 Q1617.1 1416.82 1613.95 1420.04 Q1610.81 1423.26 1605.57 1423.26 Q1599.58 1423.26 1596.41 1418.68 Q1593.24 1414.07 1593.24 1405.34 Q1593.24 1397.15 1597.12 1392.29 Q1601.01 1387.4 1607.56 1387.4 Q1609.32 1387.4 1611.11 1387.75 Q1612.91 1388.1 1614.86 1388.79 Z" fill="#000000" fill-rule="nonzero" fill-opacity="1" /><path clip-path="url(#clip580)" d="M1957.05 1391.11 Q1953.44 1391.11 1951.61 1394.67 Q1949.81 1398.21 1949.81 1405.34 Q1949.81 1412.45 1951.61 1416.01 Q1953.44 1419.56 1957.05 1419.56 Q1960.68 1419.56 1962.49 1416.01 Q1964.32 1412.45 1964.32 1405.34 Q1964.32 1398.21 1962.49 1394.67 Q1960.68 1391.11 1957.05 1391.11 M1957.05 1387.4 Q1962.86 1387.4 1965.92 1392.01 Q1968.99 1396.59 1968.99 1405.34 Q1968.99 1414.07 1965.92 1418.68 Q1962.86 1423.26 1957.05 1423.26 Q1951.24 1423.26 1948.16 1418.68 Q1945.11 1414.07 1945.11 1405.34 Q1945.11 1396.59 1948.16 1392.01 Q1951.24 1387.4 1957.05 1387.4 Z" fill="#000000" fill-rule="nonzero" fill-opacity="1" /><path clip-path="url(#clip580)" d="M1977.21 1416.71 L1982.1 1416.71 L1982.1 1422.59 L1977.21 1422.59 L1977.21 1416.71 Z" fill="#000000" fill-rule="nonzero" fill-opacity="1" /><path clip-path="url(#clip580)" d="M2002.28 1391.11 Q1998.67 1391.11 1996.84 1394.67 Q1995.04 1398.21 1995.04 1405.34 Q1995.04 1412.45 1996.84 1416.01 Q1998.67 1419.56 2002.28 1419.56 Q2005.92 1419.56 2007.72 1416.01 Q2009.55 1412.45 2009.55 1405.34 Q2009.55 1398.21 2007.72 1394.67 Q2005.92 1391.11 2002.28 1391.11 M2002.28 1387.4 Q2008.09 1387.4 2011.15 1392.01 Q2014.23 1396.59 2014.23 1405.34 Q2014.23 1414.07 2011.15 1418.68 Q2008.09 1423.26 2002.28 1423.26 Q1996.47 1423.26 1993.39 1418.68 Q1990.34 1414.07 1990.34 1405.34 Q1990.34 1396.59 1993.39 1392.01 Q1996.47 1387.4 2002.28 1387.4 Z" fill="#000000" fill-rule="nonzero" fill-opacity="1" /><path clip-path="url(#clip580)" d="M2032.44 1406.18 Q2029.11 1406.18 2027.19 1407.96 Q2025.29 1409.74 2025.29 1412.87 Q2025.29 1415.99 2027.19 1417.77 Q2029.11 1419.56 2032.44 1419.56 Q2035.78 1419.56 2037.7 1417.77 Q2039.62 1415.97 2039.62 1412.87 Q2039.62 1409.74 2037.7 1407.96 Q2035.8 1406.18 2032.44 1406.18 M2027.77 1404.19 Q2024.76 1403.44 2023.07 1401.38 Q2021.4 1399.32 2021.4 1396.36 Q2021.4 1392.22 2024.34 1389.81 Q2027.3 1387.4 2032.44 1387.4 Q2037.61 1387.4 2040.55 1389.81 Q2043.49 1392.22 2043.49 1396.36 Q2043.49 1399.32 2041.8 1401.38 Q2040.13 1403.44 2037.14 1404.19 Q2040.52 1404.97 2042.4 1407.26 Q2044.3 1409.56 2044.3 1412.87 Q2044.3 1417.89 2041.22 1420.57 Q2038.16 1423.26 2032.44 1423.26 Q2026.73 1423.26 2023.65 1420.57 Q2020.59 1417.89 2020.59 1412.87 Q2020.59 1409.56 2022.49 1407.26 Q2024.39 1404.97 2027.77 1404.19 M2026.05 1396.8 Q2026.05 1399.49 2027.72 1400.99 Q2029.41 1402.5 2032.44 1402.5 Q2035.45 1402.5 2037.14 1400.99 Q2038.86 1399.49 2038.86 1396.8 Q2038.86 1394.12 2037.14 1392.61 Q2035.45 1391.11 2032.44 1391.11 Q2029.41 1391.11 2027.72 1392.61 Q2026.05 1394.12 2026.05 1396.8 Z" fill="#000000" fill-rule="nonzero" fill-opacity="1" /><path clip-path="url(#clip580)" d="M733.505 1470.45 L733.505 1475.99 Q731.022 1474.72 728.349 1474.08 Q725.675 1473.45 722.81 1473.45 Q718.45 1473.45 716.254 1474.78 Q714.089 1476.12 714.089 1478.79 Q714.089 1480.83 715.649 1482.01 Q717.209 1483.15 721.919 1484.2 L723.924 1484.65 Q730.163 1485.99 732.773 1488.44 Q735.414 1490.86 735.414 1495.22 Q735.414 1500.18 731.468 1503.08 Q727.553 1505.97 720.678 1505.97 Q717.813 1505.97 714.694 1505.4 Q711.607 1504.86 708.169 1503.75 L708.169 1497.7 Q711.416 1499.39 714.567 1500.25 Q717.718 1501.07 720.805 1501.07 Q724.943 1501.07 727.171 1499.67 Q729.399 1498.24 729.399 1495.66 Q729.399 1493.28 727.776 1492 Q726.184 1490.73 720.741 1489.55 L718.704 1489.07 Q713.262 1487.93 710.843 1485.57 Q708.424 1483.19 708.424 1479.05 Q708.424 1474.02 711.989 1471.28 Q715.553 1468.54 722.11 1468.54 Q725.357 1468.54 728.221 1469.02 Q731.086 1469.5 733.505 1470.45 Z" fill="#000000" fill-rule="nonzero" fill-opacity="1" /><path clip-path="url(#clip580)" d="M744.135 1490.98 L744.135 1469.4 L749.992 1469.4 L749.992 1490.76 Q749.992 1495.82 751.965 1498.37 Q753.939 1500.88 757.885 1500.88 Q762.628 1500.88 765.365 1497.86 Q768.134 1494.83 768.134 1489.61 L768.134 1469.4 L773.991 1469.4 L773.991 1505.05 L768.134 1505.05 L768.134 1499.58 Q766.002 1502.82 763.169 1504.42 Q760.368 1505.97 756.644 1505.97 Q750.501 1505.97 747.318 1502.16 Q744.135 1498.34 744.135 1490.98 M758.872 1468.54 L758.872 1468.54 Z" fill="#000000" fill-rule="nonzero" fill-opacity="1" /><path clip-path="url(#clip580)" d="M806.71 1474.88 Q805.724 1474.31 804.546 1474.05 Q803.4 1473.76 802 1473.76 Q797.034 1473.76 794.361 1477.01 Q791.719 1480.23 791.719 1486.27 L791.719 1505.05 L785.831 1505.05 L785.831 1469.4 L791.719 1469.4 L791.719 1474.94 Q793.565 1471.7 796.525 1470.14 Q799.485 1468.54 803.718 1468.54 Q804.323 1468.54 805.055 1468.64 Q805.787 1468.7 806.679 1468.86 L806.71 1474.88 Z" fill="#000000" fill-rule="nonzero" fill-opacity="1" /><path clip-path="url(#clip580)" d="M818.519 1499.7 L818.519 1518.61 L812.63 1518.61 L812.63 1469.4 L818.519 1469.4 L818.519 1474.81 Q820.365 1471.63 823.166 1470.1 Q825.998 1468.54 829.913 1468.54 Q836.406 1468.54 840.449 1473.7 Q844.523 1478.86 844.523 1487.26 Q844.523 1495.66 840.449 1500.82 Q836.406 1505.97 829.913 1505.97 Q825.998 1505.97 823.166 1504.45 Q820.365 1502.89 818.519 1499.7 M838.443 1487.26 Q838.443 1480.8 835.77 1477.14 Q833.128 1473.45 828.481 1473.45 Q823.834 1473.45 821.161 1477.14 Q818.519 1480.8 818.519 1487.26 Q818.519 1493.72 821.161 1497.41 Q823.834 1501.07 828.481 1501.07 Q833.128 1501.07 835.77 1497.41 Q838.443 1493.72 838.443 1487.26 Z" fill="#000000" fill-rule="nonzero" fill-opacity="1" /><path clip-path="url(#clip580)" d="M854.23 1455.53 L860.087 1455.53 L860.087 1505.05 L854.23 1505.05 L854.23 1455.53 Z" fill="#000000" fill-rule="nonzero" fill-opacity="1" /><path clip-path="url(#clip580)" d="M871.736 1490.98 L871.736 1469.4 L877.592 1469.4 L877.592 1490.76 Q877.592 1495.82 879.566 1498.37 Q881.539 1500.88 885.486 1500.88 Q890.228 1500.88 892.966 1497.86 Q895.735 1494.83 895.735 1489.61 L895.735 1469.4 L901.591 1469.4 L901.591 1505.05 L895.735 1505.05 L895.735 1499.58 Q893.602 1502.82 890.77 1504.42 Q887.969 1505.97 884.245 1505.97 Q878.102 1505.97 874.919 1502.16 Q871.736 1498.34 871.736 1490.98 M886.473 1468.54 L886.473 1468.54 Z" fill="#000000" fill-rule="nonzero" fill-opacity="1" /><path clip-path="url(#clip580)" d="M936.38 1470.45 L936.38 1475.99 Q933.897 1474.72 931.224 1474.08 Q928.55 1473.45 925.685 1473.45 Q921.325 1473.45 919.129 1474.78 Q916.964 1476.12 916.964 1478.79 Q916.964 1480.83 918.524 1482.01 Q920.084 1483.15 924.794 1484.2 L926.799 1484.65 Q933.038 1485.99 935.648 1488.44 Q938.29 1490.86 938.29 1495.22 Q938.29 1500.18 934.343 1503.08 Q930.428 1505.97 923.553 1505.97 Q920.688 1505.97 917.569 1505.4 Q914.482 1504.86 911.044 1503.75 L911.044 1497.7 Q914.291 1499.39 917.442 1500.25 Q920.593 1501.07 923.68 1501.07 Q927.818 1501.07 930.046 1499.67 Q932.274 1498.24 932.274 1495.66 Q932.274 1493.28 930.651 1492 Q929.059 1490.73 923.617 1489.55 L921.58 1489.07 Q916.137 1487.93 913.718 1485.57 Q911.299 1483.19 911.299 1479.05 Q911.299 1474.02 914.864 1471.28 Q918.429 1468.54 924.985 1468.54 Q928.232 1468.54 931.096 1469.02 Q933.961 1469.5 936.38 1470.45 Z" fill="#000000" fill-rule="nonzero" fill-opacity="1" /><path clip-path="url(#clip580)" d="M993.989 1470.77 L993.989 1476.25 Q991.507 1474.88 988.992 1474.21 Q986.51 1473.51 983.963 1473.51 Q978.266 1473.51 975.115 1477.14 Q971.964 1480.73 971.964 1487.26 Q971.964 1493.78 975.115 1497.41 Q978.266 1501.01 983.963 1501.01 Q986.51 1501.01 988.992 1500.34 Q991.507 1499.64 993.989 1498.27 L993.989 1503.68 Q991.539 1504.83 988.897 1505.4 Q986.287 1505.97 983.327 1505.97 Q975.274 1505.97 970.532 1500.91 Q965.789 1495.85 965.789 1487.26 Q965.789 1478.54 970.564 1473.54 Q975.37 1468.54 983.709 1468.54 Q986.414 1468.54 988.992 1469.12 Q991.57 1469.66 993.989 1470.77 Z" fill="#000000" fill-rule="nonzero" fill-opacity="1" /><path clip-path="url(#clip580)" d="M1017.99 1473.51 Q1013.28 1473.51 1010.54 1477.2 Q1007.8 1480.86 1007.8 1487.26 Q1007.8 1493.66 1010.51 1497.35 Q1013.25 1501.01 1017.99 1501.01 Q1022.67 1501.01 1025.4 1497.32 Q1028.14 1493.63 1028.14 1487.26 Q1028.14 1480.93 1025.4 1477.23 Q1022.67 1473.51 1017.99 1473.51 M1017.99 1468.54 Q1025.63 1468.54 1029.99 1473.51 Q1034.35 1478.47 1034.35 1487.26 Q1034.35 1496.01 1029.99 1501.01 Q1025.63 1505.97 1017.99 1505.97 Q1010.32 1505.97 1005.96 1501.01 Q1001.63 1496.01 1001.63 1487.26 Q1001.63 1478.47 1005.96 1473.51 Q1010.32 1468.54 1017.99 1468.54 Z" fill="#000000" fill-rule="nonzero" fill-opacity="1" /><path clip-path="url(#clip580)" d="M1073.69 1483.54 L1073.69 1505.05 L1067.83 1505.05 L1067.83 1483.73 Q1067.83 1478.67 1065.86 1476.15 Q1063.88 1473.64 1059.94 1473.64 Q1055.2 1473.64 1052.46 1476.66 Q1049.72 1479.68 1049.72 1484.9 L1049.72 1505.05 L1043.83 1505.05 L1043.83 1469.4 L1049.72 1469.4 L1049.72 1474.94 Q1051.82 1471.73 1054.65 1470.14 Q1057.52 1468.54 1061.24 1468.54 Q1067.39 1468.54 1070.54 1472.36 Q1073.69 1476.15 1073.69 1483.54 Z" fill="#000000" fill-rule="nonzero" fill-opacity="1" /><path clip-path="url(#clip580)" d="M1108.09 1470.45 L1108.09 1475.99 Q1105.61 1474.72 1102.94 1474.08 Q1100.26 1473.45 1097.4 1473.45 Q1093.04 1473.45 1090.84 1474.78 Q1088.68 1476.12 1088.68 1478.79 Q1088.68 1480.83 1090.24 1482.01 Q1091.8 1483.15 1096.51 1484.2 L1098.51 1484.65 Q1104.75 1485.99 1107.36 1488.44 Q1110 1490.86 1110 1495.22 Q1110 1500.18 1106.06 1503.08 Q1102.14 1505.97 1095.27 1505.97 Q1092.4 1505.97 1089.28 1505.4 Q1086.2 1504.86 1082.76 1503.75 L1082.76 1497.7 Q1086.01 1499.39 1089.16 1500.25 Q1092.31 1501.07 1095.4 1501.07 Q1099.53 1501.07 1101.76 1499.67 Q1103.99 1498.24 1103.99 1495.66 Q1103.99 1493.28 1102.37 1492 Q1100.77 1490.73 1095.33 1489.55 L1093.29 1489.07 Q1087.85 1487.93 1085.43 1485.57 Q1083.01 1483.19 1083.01 1479.05 Q1083.01 1474.02 1086.58 1471.28 Q1090.14 1468.54 1096.7 1468.54 Q1099.95 1468.54 1102.81 1469.02 Q1105.68 1469.5 1108.09 1470.45 Z" fill="#000000" fill-rule="nonzero" fill-opacity="1" /><path clip-path="url(#clip580)" d="M1118.73 1490.98 L1118.73 1469.4 L1124.58 1469.4 L1124.58 1490.76 Q1124.58 1495.82 1126.56 1498.37 Q1128.53 1500.88 1132.48 1500.88 Q1137.22 1500.88 1139.96 1497.86 Q1142.72 1494.83 1142.72 1489.61 L1142.72 1469.4 L1148.58 1469.4 L1148.58 1505.05 L1142.72 1505.05 L1142.72 1499.58 Q1140.59 1502.82 1137.76 1504.42 Q1134.96 1505.97 1131.23 1505.97 Q1125.09 1505.97 1121.91 1502.16 Q1118.73 1498.34 1118.73 1490.98 M1133.46 1468.54 L1133.46 1468.54 Z" fill="#000000" fill-rule="nonzero" fill-opacity="1" /><path clip-path="url(#clip580)" d="M1188.4 1476.25 Q1190.59 1472.3 1193.65 1470.42 Q1196.71 1468.54 1200.84 1468.54 Q1206.41 1468.54 1209.44 1472.46 Q1212.46 1476.34 1212.46 1483.54 L1212.46 1505.05 L1206.57 1505.05 L1206.57 1483.73 Q1206.57 1478.6 1204.76 1476.12 Q1202.94 1473.64 1199.22 1473.64 Q1194.67 1473.64 1192.03 1476.66 Q1189.38 1479.68 1189.38 1484.9 L1189.38 1505.05 L1183.5 1505.05 L1183.5 1483.73 Q1183.5 1478.57 1181.68 1476.12 Q1179.87 1473.64 1176.08 1473.64 Q1171.59 1473.64 1168.95 1476.69 Q1166.31 1479.72 1166.31 1484.9 L1166.31 1505.05 L1160.42 1505.05 L1160.42 1469.4 L1166.31 1469.4 L1166.31 1474.94 Q1168.31 1471.66 1171.12 1470.1 Q1173.92 1468.54 1177.77 1468.54 Q1181.65 1468.54 1184.36 1470.52 Q1187.09 1472.49 1188.4 1476.25 Z" fill="#000000" fill-rule="nonzero" fill-opacity="1" /><path clip-path="url(#clip580)" d="M1229.81 1499.7 L1229.81 1518.61 L1223.92 1518.61 L1223.92 1469.4 L1229.81 1469.4 L1229.81 1474.81 Q1231.65 1471.63 1234.45 1470.1 Q1237.29 1468.54 1241.2 1468.54 Q1247.69 1468.54 1251.74 1473.7 Q1255.81 1478.86 1255.81 1487.26 Q1255.81 1495.66 1251.74 1500.82 Q1247.69 1505.97 1241.2 1505.97 Q1237.29 1505.97 1234.45 1504.45 Q1231.65 1502.89 1229.81 1499.7 M1249.73 1487.26 Q1249.73 1480.8 1247.06 1477.14 Q1244.42 1473.45 1239.77 1473.45 Q1235.12 1473.45 1232.45 1477.14 Q1229.81 1480.8 1229.81 1487.26 Q1229.81 1493.72 1232.45 1497.41 Q1235.12 1501.07 1239.77 1501.07 Q1244.42 1501.07 1247.06 1497.41 Q1249.73 1493.72 1249.73 1487.26 Z" fill="#000000" fill-rule="nonzero" fill-opacity="1" /><path clip-path="url(#clip580)" d="M1271.31 1459.28 L1271.31 1469.4 L1283.37 1469.4 L1283.37 1473.96 L1271.31 1473.96 L1271.31 1493.31 Q1271.31 1497.67 1272.49 1498.91 Q1273.7 1500.15 1277.36 1500.15 L1283.37 1500.15 L1283.37 1505.05 L1277.36 1505.05 Q1270.58 1505.05 1268 1502.54 Q1265.42 1499.99 1265.42 1493.31 L1265.42 1473.96 L1261.13 1473.96 L1261.13 1469.4 L1265.42 1469.4 L1265.42 1459.28 L1271.31 1459.28 Z" fill="#000000" fill-rule="nonzero" fill-opacity="1" /><path clip-path="url(#clip580)" d="M1291.08 1469.4 L1296.93 1469.4 L1296.93 1505.05 L1291.08 1505.05 L1291.08 1469.4 M1291.08 1455.53 L1296.93 1455.53 L1296.93 1462.94 L1291.08 1462.94 L1291.08 1455.53 Z" fill="#000000" fill-rule="nonzero" fill-opacity="1" /><path clip-path="url(#clip580)" d="M1323 1473.51 Q1318.29 1473.51 1315.55 1477.2 Q1312.82 1480.86 1312.82 1487.26 Q1312.82 1493.66 1315.52 1497.35 Q1318.26 1501.01 1323 1501.01 Q1327.68 1501.01 1330.42 1497.32 Q1333.15 1493.63 1333.15 1487.26 Q1333.15 1480.93 1330.42 1477.23 Q1327.68 1473.51 1323 1473.51 M1323 1468.54 Q1330.64 1468.54 1335 1473.51 Q1339.36 1478.47 1339.36 1487.26 Q1339.36 1496.01 1335 1501.01 Q1330.64 1505.97 1323 1505.97 Q1315.33 1505.97 1310.97 1501.01 Q1306.64 1496.01 1306.64 1487.26 Q1306.64 1478.47 1310.97 1473.51 Q1315.33 1468.54 1323 1468.54 Z" fill="#000000" fill-rule="nonzero" fill-opacity="1" /><path clip-path="url(#clip580)" d="M1378.7 1483.54 L1378.7 1505.05 L1372.84 1505.05 L1372.84 1483.73 Q1372.84 1478.67 1370.87 1476.15 Q1368.9 1473.64 1364.95 1473.64 Q1360.21 1473.64 1357.47 1476.66 Q1354.73 1479.68 1354.73 1484.9 L1354.73 1505.05 L1348.85 1505.05 L1348.85 1469.4 L1354.73 1469.4 L1354.73 1474.94 Q1356.83 1471.73 1359.67 1470.14 Q1362.53 1468.54 1366.26 1468.54 Q1372.4 1468.54 1375.55 1472.36 Q1378.7 1476.15 1378.7 1483.54 Z" fill="#000000" fill-rule="nonzero" fill-opacity="1" /><path clip-path="url(#clip580)" d="M1431.76 1474.88 Q1430.77 1474.31 1429.59 1474.05 Q1428.45 1473.76 1427.05 1473.76 Q1422.08 1473.76 1419.41 1477.01 Q1416.77 1480.23 1416.77 1486.27 L1416.77 1505.05 L1410.88 1505.05 L1410.88 1469.4 L1416.77 1469.4 L1416.77 1474.94 Q1418.61 1471.7 1421.57 1470.14 Q1424.53 1468.54 1428.77 1468.54 Q1429.37 1468.54 1430.1 1468.64 Q1430.84 1468.7 1431.73 1468.86 L1431.76 1474.88 Z" fill="#000000" fill-rule="nonzero" fill-opacity="1" /><path clip-path="url(#clip580)" d="M1454.1 1487.13 Q1447 1487.13 1444.27 1488.76 Q1441.53 1490.38 1441.53 1494.29 Q1441.53 1497.41 1443.57 1499.26 Q1445.64 1501.07 1449.17 1501.07 Q1454.04 1501.07 1456.97 1497.64 Q1459.93 1494.17 1459.93 1488.44 L1459.93 1487.13 L1454.1 1487.13 M1465.78 1484.71 L1465.78 1505.05 L1459.93 1505.05 L1459.93 1499.64 Q1457.92 1502.89 1454.93 1504.45 Q1451.94 1505.97 1447.61 1505.97 Q1442.14 1505.97 1438.89 1502.92 Q1435.67 1499.83 1435.67 1494.68 Q1435.67 1488.66 1439.68 1485.6 Q1443.73 1482.55 1451.72 1482.55 L1459.93 1482.55 L1459.93 1481.98 Q1459.93 1477.93 1457.25 1475.74 Q1454.61 1473.51 1449.81 1473.51 Q1446.75 1473.51 1443.85 1474.24 Q1440.96 1474.97 1438.28 1476.44 L1438.28 1471.03 Q1441.5 1469.79 1444.52 1469.18 Q1447.55 1468.54 1450.41 1468.54 Q1458.14 1468.54 1461.96 1472.55 Q1465.78 1476.57 1465.78 1484.71 Z" fill="#000000" fill-rule="nonzero" fill-opacity="1" /><path clip-path="url(#clip580)" d="M1483.64 1459.28 L1483.64 1469.4 L1495.7 1469.4 L1495.7 1473.96 L1483.64 1473.96 L1483.64 1493.31 Q1483.64 1497.67 1484.82 1498.91 Q1486.03 1500.15 1489.69 1500.15 L1495.7 1500.15 L1495.7 1505.05 L1489.69 1505.05 Q1482.91 1505.05 1480.33 1502.54 Q1477.75 1499.99 1477.75 1493.31 L1477.75 1473.96 L1473.45 1473.96 L1473.45 1469.4 L1477.75 1469.4 L1477.75 1459.28 L1483.64 1459.28 Z" fill="#000000" fill-rule="nonzero" fill-opacity="1" /><path clip-path="url(#clip580)" d="M1503.41 1469.4 L1509.26 1469.4 L1509.26 1505.05 L1503.41 1505.05 L1503.41 1469.4 M1503.41 1455.53 L1509.26 1455.53 L1509.26 1462.94 L1503.41 1462.94 L1503.41 1455.53 Z" fill="#000000" fill-rule="nonzero" fill-opacity="1" /><path clip-path="url(#clip580)" d="M1535.33 1473.51 Q1530.62 1473.51 1527.88 1477.2 Q1525.14 1480.86 1525.14 1487.26 Q1525.14 1493.66 1527.85 1497.35 Q1530.59 1501.01 1535.33 1501.01 Q1540.01 1501.01 1542.75 1497.32 Q1545.48 1493.63 1545.48 1487.26 Q1545.48 1480.93 1542.75 1477.23 Q1540.01 1473.51 1535.33 1473.51 M1535.33 1468.54 Q1542.97 1468.54 1547.33 1473.51 Q1551.69 1478.47 1551.69 1487.26 Q1551.69 1496.01 1547.33 1501.01 Q1542.97 1505.97 1535.33 1505.97 Q1527.66 1505.97 1523.3 1501.01 Q1518.97 1496.01 1518.97 1487.26 Q1518.97 1478.47 1523.3 1473.51 Q1527.66 1468.54 1535.33 1468.54 Z" fill="#000000" fill-rule="nonzero" fill-opacity="1" /><path clip-path="url(#clip580)" d="M1610.86 1459.09 L1610.86 1465.36 Q1607.2 1463.61 1603.95 1462.75 Q1600.7 1461.89 1597.68 1461.89 Q1592.43 1461.89 1589.56 1463.93 Q1586.73 1465.97 1586.73 1469.72 Q1586.73 1472.87 1588.61 1474.5 Q1590.52 1476.09 1595.8 1477.07 L1599.69 1477.87 Q1606.88 1479.24 1610.29 1482.71 Q1613.72 1486.15 1613.72 1491.94 Q1613.72 1498.85 1609.08 1502.41 Q1604.46 1505.97 1595.52 1505.97 Q1592.14 1505.97 1588.32 1505.21 Q1584.54 1504.45 1580.46 1502.95 L1580.46 1496.33 Q1584.38 1498.53 1588.13 1499.64 Q1591.89 1500.75 1595.52 1500.75 Q1601.02 1500.75 1604.02 1498.59 Q1607.01 1496.43 1607.01 1492.42 Q1607.01 1488.91 1604.84 1486.94 Q1602.71 1484.97 1597.81 1483.98 L1593.89 1483.22 Q1586.7 1481.79 1583.49 1478.73 Q1580.27 1475.67 1580.27 1470.23 Q1580.27 1463.93 1584.7 1460.3 Q1589.15 1456.67 1596.95 1456.67 Q1600.29 1456.67 1603.76 1457.28 Q1607.23 1457.88 1610.86 1459.09 Z" fill="#000000" fill-rule="nonzero" fill-opacity="1" /><path clip-path="url(#clip580)" d="M1644.98 1475.45 L1685.78 1475.45 L1685.78 1480.8 L1644.98 1480.8 L1644.98 1475.45 M1644.98 1488.44 L1685.78 1488.44 L1685.78 1493.85 L1644.98 1493.85 L1644.98 1488.44 Z" fill="#000000" fill-rule="nonzero" fill-opacity="1" /><path clip-path="url(#clip580)" d="M1750.04 1485.76 L1750.04 1488.63 L1723.12 1488.63 Q1723.5 1494.68 1726.75 1497.86 Q1730.02 1501.01 1735.85 1501.01 Q1739.22 1501.01 1742.37 1500.18 Q1745.56 1499.35 1748.68 1497.7 L1748.68 1503.24 Q1745.52 1504.57 1742.21 1505.27 Q1738.9 1505.97 1735.5 1505.97 Q1726.97 1505.97 1721.97 1501.01 Q1717.01 1496.04 1717.01 1487.58 Q1717.01 1478.83 1721.72 1473.7 Q1726.46 1468.54 1734.48 1468.54 Q1741.67 1468.54 1745.84 1473.19 Q1750.04 1477.81 1750.04 1485.76 M1744.19 1484.04 Q1744.12 1479.24 1741.48 1476.37 Q1738.87 1473.51 1734.54 1473.51 Q1729.64 1473.51 1726.68 1476.28 Q1723.75 1479.05 1723.31 1484.08 L1744.19 1484.04 Z" fill="#000000" fill-rule="nonzero" fill-opacity="1" /><path clip-path="url(#clip580)" d="M1788.14 1469.4 L1775.25 1486.75 L1788.81 1505.05 L1781.9 1505.05 L1771.53 1491.05 L1761.15 1505.05 L1754.25 1505.05 L1768.09 1486.4 L1755.42 1469.4 L1762.33 1469.4 L1771.78 1482.1 L1781.24 1469.4 L1788.14 1469.4 Z" fill="#000000" fill-rule="nonzero" fill-opacity="1" /><path clip-path="url(#clip580)" d="M1802.75 1499.7 L1802.75 1518.61 L1796.86 1518.61 L1796.86 1469.4 L1802.75 1469.4 L1802.75 1474.81 Q1804.6 1471.63 1807.4 1470.1 Q1810.23 1468.54 1814.15 1468.54 Q1820.64 1468.54 1824.68 1473.7 Q1828.76 1478.86 1828.76 1487.26 Q1828.76 1495.66 1824.68 1500.82 Q1820.64 1505.97 1814.15 1505.97 Q1810.23 1505.97 1807.4 1504.45 Q1804.6 1502.89 1802.75 1499.7 M1822.68 1487.26 Q1822.68 1480.8 1820 1477.14 Q1817.36 1473.45 1812.71 1473.45 Q1808.07 1473.45 1805.39 1477.14 Q1802.75 1480.8 1802.75 1487.26 Q1802.75 1493.72 1805.39 1497.41 Q1808.07 1501.07 1812.71 1501.07 Q1817.36 1501.07 1820 1497.41 Q1822.68 1493.72 1822.68 1487.26 Z" fill="#000000" fill-rule="nonzero" fill-opacity="1" /><path clip-path="url(#clip580)" d="M1852.53 1455.59 Q1848.27 1462.91 1846.2 1470.07 Q1844.13 1477.23 1844.13 1484.59 Q1844.13 1491.94 1846.2 1499.16 Q1848.3 1506.36 1852.53 1513.65 L1847.44 1513.65 Q1842.67 1506.17 1840.28 1498.94 Q1837.92 1491.72 1837.92 1484.59 Q1837.92 1477.49 1840.28 1470.29 Q1842.63 1463.1 1847.44 1455.59 L1852.53 1455.59 Z" fill="#000000" fill-rule="nonzero" fill-opacity="1" /><path clip-path="url(#clip580)" d="M1886.62 1470.45 L1886.62 1475.99 Q1884.14 1474.72 1881.46 1474.08 Q1878.79 1473.45 1875.93 1473.45 Q1871.57 1473.45 1869.37 1474.78 Q1867.21 1476.12 1867.21 1478.79 Q1867.21 1480.83 1868.76 1482.01 Q1870.32 1483.15 1875.04 1484.2 L1877.04 1484.65 Q1883.28 1485.99 1885.89 1488.44 Q1888.53 1490.86 1888.53 1495.22 Q1888.53 1500.18 1884.58 1503.08 Q1880.67 1505.97 1873.79 1505.97 Q1870.93 1505.97 1867.81 1505.4 Q1864.72 1504.86 1861.29 1503.75 L1861.29 1497.7 Q1864.53 1499.39 1867.68 1500.25 Q1870.83 1501.07 1873.92 1501.07 Q1878.06 1501.07 1880.29 1499.67 Q1882.51 1498.24 1882.51 1495.66 Q1882.51 1493.28 1880.89 1492 Q1879.3 1490.73 1873.86 1489.55 L1871.82 1489.07 Q1866.38 1487.93 1863.96 1485.57 Q1861.54 1483.19 1861.54 1479.05 Q1861.54 1474.02 1865.1 1471.28 Q1868.67 1468.54 1875.23 1468.54 Q1878.47 1468.54 1881.34 1469.02 Q1884.2 1469.5 1886.62 1470.45 Z" fill="#000000" fill-rule="nonzero" fill-opacity="1" /><path clip-path="url(#clip580)" d="M1896.93 1455.59 L1902.03 1455.59 Q1906.8 1463.1 1909.16 1470.29 Q1911.54 1477.49 1911.54 1484.59 Q1911.54 1491.72 1909.16 1498.94 Q1906.8 1506.17 1902.03 1513.65 L1896.93 1513.65 Q1901.17 1506.36 1903.24 1499.16 Q1905.34 1491.94 1905.34 1484.59 Q1905.34 1477.23 1903.24 1470.07 Q1901.17 1462.91 1896.93 1455.59 Z" fill="#000000" fill-rule="nonzero" fill-opacity="1" /><polyline clip-path="url(#clip580)" style="stroke:#000000; stroke-linecap:round; stroke-linejoin:round; stroke-width:4; stroke-opacity:1; fill:none" points="266.956,1360.19 266.956,47.2441 "/>
<polyline clip-path="url(#clip580)" style="stroke:#000000; stroke-linecap:round; stroke-linejoin:round; stroke-width:4; stroke-opacity:1; fill:none" points="266.956,1220.18 285.853,1220.18 "/>
<polyline clip-path="url(#clip580)" style="stroke:#000000; stroke-linecap:round; stroke-linejoin:round; stroke-width:4; stroke-opacity:1; fill:none" points="266.956,865.06 285.853,865.06 "/>
<polyline clip-path="url(#clip580)" style="stroke:#000000; stroke-linecap:round; stroke-linejoin:round; stroke-width:4; stroke-opacity:1; fill:none" points="266.956,509.94 285.853,509.94 "/>
<polyline clip-path="url(#clip580)" style="stroke:#000000; stroke-linecap:round; stroke-linejoin:round; stroke-width:4; stroke-opacity:1; fill:none" points="266.956,154.819 285.853,154.819 "/>
<path clip-path="url(#clip580)" d="M182.877 1233.53 L199.197 1233.53 L199.197 1237.46 L177.252 1237.46 L177.252 1233.53 Q179.914 1230.77 184.498 1226.14 Q189.104 1221.49 190.285 1220.15 Q192.53 1217.62 193.41 1215.89 Q194.312 1214.13 194.312 1212.44 Q194.312 1209.68 192.368 1207.95 Q190.447 1206.21 187.345 1206.21 Q185.146 1206.21 182.692 1206.98 Q180.262 1207.74 177.484 1209.29 L177.484 1204.57 Q180.308 1203.43 182.762 1202.85 Q185.215 1202.28 187.252 1202.28 Q192.623 1202.28 195.817 1204.96 Q199.011 1207.65 199.011 1212.14 Q199.011 1214.27 198.201 1216.19 Q197.414 1218.09 195.308 1220.68 Q194.729 1221.35 191.627 1224.57 Q188.525 1227.76 182.877 1233.53 Z" fill="#000000" fill-rule="nonzero" fill-opacity="1" /><path clip-path="url(#clip580)" d="M219.011 1205.98 Q215.4 1205.98 213.572 1209.54 Q211.766 1213.09 211.766 1220.22 Q211.766 1227.32 213.572 1230.89 Q215.4 1234.43 219.011 1234.43 Q222.646 1234.43 224.451 1230.89 Q226.28 1227.32 226.28 1220.22 Q226.28 1213.09 224.451 1209.54 Q222.646 1205.98 219.011 1205.98 M219.011 1202.28 Q224.821 1202.28 227.877 1206.88 Q230.956 1211.47 230.956 1220.22 Q230.956 1228.94 227.877 1233.55 Q224.821 1238.13 219.011 1238.13 Q213.201 1238.13 210.122 1233.55 Q207.067 1228.94 207.067 1220.22 Q207.067 1211.47 210.122 1206.88 Q213.201 1202.28 219.011 1202.28 Z" fill="#000000" fill-rule="nonzero" fill-opacity="1" /><path clip-path="url(#clip580)" d="M183.873 878.405 L200.192 878.405 L200.192 882.34 L178.248 882.34 L178.248 878.405 Q180.91 875.651 185.493 871.021 Q190.099 866.368 191.28 865.026 Q193.525 862.503 194.405 860.766 Q195.308 859.007 195.308 857.317 Q195.308 854.563 193.363 852.827 Q191.442 851.091 188.34 851.091 Q186.141 851.091 183.687 851.854 Q181.257 852.618 178.479 854.169 L178.479 849.447 Q181.303 848.313 183.757 847.734 Q186.211 847.155 188.248 847.155 Q193.618 847.155 196.812 849.841 Q200.007 852.526 200.007 857.017 Q200.007 859.146 199.197 861.067 Q198.41 862.966 196.303 865.558 Q195.724 866.229 192.623 869.447 Q189.521 872.641 183.873 878.405 Z" fill="#000000" fill-rule="nonzero" fill-opacity="1" /><path clip-path="url(#clip580)" d="M210.053 847.78 L228.409 847.78 L228.409 851.716 L214.335 851.716 L214.335 860.188 Q215.354 859.841 216.372 859.679 Q217.391 859.493 218.409 859.493 Q224.196 859.493 227.576 862.665 Q230.956 865.836 230.956 871.253 Q230.956 876.831 227.483 879.933 Q224.011 883.012 217.692 883.012 Q215.516 883.012 213.247 882.641 Q211.002 882.271 208.595 881.53 L208.595 876.831 Q210.678 877.965 212.9 878.521 Q215.122 879.077 217.599 879.077 Q221.604 879.077 223.942 876.97 Q226.28 874.864 226.28 871.253 Q226.28 867.641 223.942 865.535 Q221.604 863.429 217.599 863.429 Q215.724 863.429 213.849 863.845 Q211.997 864.262 210.053 865.141 L210.053 847.78 Z" fill="#000000" fill-rule="nonzero" fill-opacity="1" /><path clip-path="url(#clip580)" d="M193.016 508.586 Q196.373 509.303 198.248 511.572 Q200.146 513.84 200.146 517.173 Q200.146 522.289 196.627 525.09 Q193.109 527.891 186.627 527.891 Q184.451 527.891 182.137 527.451 Q179.845 527.035 177.391 526.178 L177.391 521.664 Q179.336 522.798 181.65 523.377 Q183.965 523.956 186.488 523.956 Q190.886 523.956 193.178 522.22 Q195.493 520.484 195.493 517.173 Q195.493 514.118 193.34 512.405 Q191.211 510.669 187.391 510.669 L183.363 510.669 L183.363 506.826 L187.576 506.826 Q191.025 506.826 192.854 505.461 Q194.683 504.072 194.683 501.479 Q194.683 498.817 192.785 497.405 Q190.91 495.97 187.391 495.97 Q185.47 495.97 183.271 496.387 Q181.072 496.803 178.433 497.683 L178.433 493.516 Q181.095 492.775 183.41 492.405 Q185.748 492.035 187.808 492.035 Q193.132 492.035 196.234 494.465 Q199.335 496.873 199.335 500.993 Q199.335 503.863 197.692 505.854 Q196.048 507.822 193.016 508.586 Z" fill="#000000" fill-rule="nonzero" fill-opacity="1" /><path clip-path="url(#clip580)" d="M219.011 495.738 Q215.4 495.738 213.572 499.303 Q211.766 502.845 211.766 509.974 Q211.766 517.081 213.572 520.646 Q215.4 524.187 219.011 524.187 Q222.646 524.187 224.451 520.646 Q226.28 517.081 226.28 509.974 Q226.28 502.845 224.451 499.303 Q222.646 495.738 219.011 495.738 M219.011 492.035 Q224.821 492.035 227.877 496.641 Q230.956 501.224 230.956 509.974 Q230.956 518.701 227.877 523.308 Q224.821 527.891 219.011 527.891 Q213.201 527.891 210.122 523.308 Q207.067 518.701 207.067 509.974 Q207.067 501.224 210.122 496.641 Q213.201 492.035 219.011 492.035 Z" fill="#000000" fill-rule="nonzero" fill-opacity="1" /><path clip-path="url(#clip580)" d="M194.011 153.465 Q197.368 154.182 199.243 156.451 Q201.141 158.719 201.141 162.053 Q201.141 167.168 197.623 169.969 Q194.104 172.77 187.623 172.77 Q185.447 172.77 183.132 172.33 Q180.84 171.914 178.387 171.057 L178.387 166.543 Q180.331 167.678 182.646 168.256 Q184.961 168.835 187.484 168.835 Q191.882 168.835 194.173 167.099 Q196.488 165.363 196.488 162.053 Q196.488 158.997 194.336 157.284 Q192.206 155.548 188.386 155.548 L184.359 155.548 L184.359 151.706 L188.572 151.706 Q192.021 151.706 193.849 150.34 Q195.678 148.951 195.678 146.358 Q195.678 143.696 193.78 142.284 Q191.905 140.849 188.386 140.849 Q186.465 140.849 184.266 141.266 Q182.067 141.682 179.428 142.562 L179.428 138.395 Q182.09 137.655 184.405 137.284 Q186.743 136.914 188.803 136.914 Q194.127 136.914 197.229 139.344 Q200.331 141.752 200.331 145.872 Q200.331 148.743 198.687 150.733 Q197.044 152.701 194.011 153.465 Z" fill="#000000" fill-rule="nonzero" fill-opacity="1" /><path clip-path="url(#clip580)" d="M210.053 137.539 L228.409 137.539 L228.409 141.474 L214.335 141.474 L214.335 149.946 Q215.354 149.599 216.372 149.437 Q217.391 149.252 218.409 149.252 Q224.196 149.252 227.576 152.423 Q230.956 155.594 230.956 161.011 Q230.956 166.59 227.483 169.692 Q224.011 172.77 217.692 172.77 Q215.516 172.77 213.247 172.4 Q211.002 172.03 208.595 171.289 L208.595 166.59 Q210.678 167.724 212.9 168.28 Q215.122 168.835 217.599 168.835 Q221.604 168.835 223.942 166.729 Q226.28 164.622 226.28 161.011 Q226.28 157.4 223.942 155.293 Q221.604 153.187 217.599 153.187 Q215.724 153.187 213.849 153.604 Q211.997 154.02 210.053 154.9 L210.053 137.539 Z" fill="#000000" fill-rule="nonzero" fill-opacity="1" /><path clip-path="url(#clip580)" d="M121.649 1118.08 L140.555 1118.08 L140.555 1123.96 L91.3483 1123.96 L91.3483 1118.08 L96.7592 1118.08 Q93.5763 1116.23 92.0486 1113.43 Q90.489 1110.6 90.489 1106.68 Q90.489 1100.19 95.6452 1096.15 Q100.801 1092.07 109.204 1092.07 Q117.607 1092.07 122.763 1096.15 Q127.919 1100.19 127.919 1106.68 Q127.919 1110.6 126.392 1113.43 Q124.832 1116.23 121.649 1118.08 M109.204 1098.15 Q102.743 1098.15 99.0827 1100.82 Q95.3906 1103.47 95.3906 1108.11 Q95.3906 1112.76 99.0827 1115.43 Q102.743 1118.08 109.204 1118.08 Q115.665 1118.08 119.357 1115.43 Q123.018 1112.76 123.018 1108.11 Q123.018 1103.47 119.357 1100.82 Q115.665 1098.15 109.204 1098.15 Z" fill="#000000" fill-rule="nonzero" fill-opacity="1" /><path clip-path="url(#clip580)" d="M96.8228 1061.71 Q96.2499 1062.69 95.9953 1063.87 Q95.7088 1065.02 95.7088 1066.42 Q95.7088 1071.38 98.9553 1074.06 Q102.17 1076.7 108.217 1076.7 L126.996 1076.7 L126.996 1082.59 L91.3483 1082.59 L91.3483 1076.7 L96.8865 1076.7 Q93.64 1074.85 92.0804 1071.89 Q90.489 1068.93 90.489 1064.7 Q90.489 1064.09 90.5844 1063.36 Q90.6481 1062.63 90.8072 1061.74 L96.8228 1061.71 Z" fill="#000000" fill-rule="nonzero" fill-opacity="1" /><path clip-path="url(#clip580)" d="M91.3483 1055.56 L91.3483 1049.71 L126.996 1049.71 L126.996 1055.56 L91.3483 1055.56 M77.4711 1055.56 L77.4711 1049.71 L84.8871 1049.71 L84.8871 1055.56 L77.4711 1055.56 Z" fill="#000000" fill-rule="nonzero" fill-opacity="1" /><path clip-path="url(#clip580)" d="M92.717 1011.8 L98.1915 1011.8 Q96.8228 1014.28 96.1544 1016.8 Q95.4542 1019.28 95.4542 1021.83 Q95.4542 1027.52 99.0827 1030.67 Q102.679 1033.83 109.204 1033.83 Q115.729 1033.83 119.357 1030.67 Q122.954 1027.52 122.954 1021.83 Q122.954 1019.28 122.286 1016.8 Q121.585 1014.28 120.217 1011.8 L125.628 1011.8 Q126.773 1014.25 127.346 1016.89 Q127.919 1019.5 127.919 1022.46 Q127.919 1030.52 122.859 1035.26 Q117.798 1040 109.204 1040 Q100.483 1040 95.486 1035.23 Q90.489 1030.42 90.489 1022.08 Q90.489 1019.38 91.0619 1016.8 Q91.603 1014.22 92.717 1011.8 Z" fill="#000000" fill-rule="nonzero" fill-opacity="1" /><path clip-path="url(#clip580)" d="M107.708 971.123 L110.573 971.123 L110.573 998.05 Q116.62 997.668 119.803 994.422 Q122.954 991.143 122.954 985.319 Q122.954 981.945 122.127 978.794 Q121.299 975.611 119.644 972.492 L125.182 972.492 Q126.519 975.643 127.219 978.953 Q127.919 982.263 127.919 985.669 Q127.919 994.199 122.954 999.196 Q117.989 1004.16 109.522 1004.16 Q100.77 1004.16 95.6452 999.451 Q90.489 994.708 90.489 986.687 Q90.489 979.494 95.1359 975.325 Q99.7511 971.123 107.708 971.123 M105.989 976.98 Q101.183 977.043 98.3188 979.685 Q95.4542 982.295 95.4542 986.624 Q95.4542 991.525 98.2233 994.485 Q100.992 997.414 106.021 997.859 L105.989 976.98 Z" fill="#000000" fill-rule="nonzero" fill-opacity="1" /><path clip-path="url(#clip580)" d="M106.849 964.471 L106.849 938.244 L111.432 938.244 L111.432 964.471 L106.849 964.471 Z" fill="#000000" fill-rule="nonzero" fill-opacity="1" /><path clip-path="url(#clip580)" d="M92.717 903.265 L98.1915 903.265 Q96.8228 905.748 96.1544 908.262 Q95.4542 910.745 95.4542 913.291 Q95.4542 918.988 99.0827 922.139 Q102.679 925.29 109.204 925.29 Q115.729 925.29 119.357 922.139 Q122.954 918.988 122.954 913.291 Q122.954 910.745 122.286 908.262 Q121.585 905.748 120.217 903.265 L125.628 903.265 Q126.773 905.716 127.346 908.357 Q127.919 910.967 127.919 913.927 Q127.919 921.98 122.859 926.723 Q117.798 931.465 109.204 931.465 Q100.483 931.465 95.486 926.691 Q90.489 921.885 90.489 913.546 Q90.489 910.84 91.0619 908.262 Q91.603 905.684 92.717 903.265 Z" fill="#000000" fill-rule="nonzero" fill-opacity="1" /><path clip-path="url(#clip580)" d="M95.4542 879.266 Q95.4542 883.977 99.1463 886.714 Q102.807 889.451 109.204 889.451 Q115.602 889.451 119.294 886.746 Q122.954 884.009 122.954 879.266 Q122.954 874.587 119.262 871.85 Q115.57 869.113 109.204 869.113 Q102.87 869.113 99.1781 871.85 Q95.4542 874.587 95.4542 879.266 M90.489 879.266 Q90.489 871.627 95.4542 867.267 Q100.419 862.906 109.204 862.906 Q117.957 862.906 122.954 867.267 Q127.919 871.627 127.919 879.266 Q127.919 886.937 122.954 891.297 Q117.957 895.626 109.204 895.626 Q100.419 895.626 95.4542 891.297 Q90.489 886.937 90.489 879.266 Z" fill="#000000" fill-rule="nonzero" fill-opacity="1" /><path clip-path="url(#clip580)" d="M105.48 823.566 L126.996 823.566 L126.996 829.423 L105.671 829.423 Q100.61 829.423 98.096 831.396 Q95.5815 833.369 95.5815 837.316 Q95.5815 842.059 98.6052 844.796 Q101.629 847.533 106.849 847.533 L126.996 847.533 L126.996 853.421 L91.3483 853.421 L91.3483 847.533 L96.8865 847.533 Q93.6718 845.432 92.0804 842.6 Q90.489 839.735 90.489 836.011 Q90.489 829.868 94.3084 826.717 Q98.096 823.566 105.48 823.566 Z" fill="#000000" fill-rule="nonzero" fill-opacity="1" /><path clip-path="url(#clip580)" d="M92.3987 789.16 L97.9368 789.16 Q96.6637 791.642 96.0271 794.316 Q95.3906 796.989 95.3906 799.854 Q95.3906 804.214 96.7273 806.411 Q98.0641 808.575 100.738 808.575 Q102.775 808.575 103.952 807.015 Q105.098 805.456 106.149 800.745 L106.594 798.74 Q107.931 792.502 110.382 789.892 Q112.801 787.25 117.161 787.25 Q122.127 787.25 125.023 791.197 Q127.919 795.112 127.919 801.987 Q127.919 804.851 127.346 807.97 Q126.805 811.058 125.691 814.495 L119.644 814.495 Q121.331 811.249 122.19 808.098 Q123.018 804.947 123.018 801.859 Q123.018 797.721 121.617 795.493 Q120.185 793.265 117.607 793.265 Q115.22 793.265 113.947 794.889 Q112.673 796.48 111.496 801.923 L111.018 803.96 Q109.873 809.403 107.517 811.822 Q105.13 814.24 100.992 814.24 Q95.9635 814.24 93.2262 810.676 Q90.489 807.111 90.489 800.554 Q90.489 797.308 90.9664 794.443 Q91.4438 791.579 92.3987 789.16 Z" fill="#000000" fill-rule="nonzero" fill-opacity="1" /><path clip-path="url(#clip580)" d="M112.928 778.529 L91.3483 778.529 L91.3483 772.672 L112.705 772.672 Q117.766 772.672 120.312 770.699 Q122.827 768.726 122.827 764.779 Q122.827 760.036 119.803 757.299 Q116.779 754.53 111.559 754.53 L91.3483 754.53 L91.3483 748.674 L126.996 748.674 L126.996 754.53 L121.522 754.53 Q124.768 756.663 126.36 759.495 Q127.919 762.296 127.919 766.02 Q127.919 772.163 124.1 775.346 Q120.28 778.529 112.928 778.529 M90.489 763.792 L90.489 763.792 Z" fill="#000000" fill-rule="nonzero" fill-opacity="1" /><path clip-path="url(#clip580)" d="M98.1915 708.856 Q94.2447 706.66 92.3668 703.605 Q90.489 700.549 90.489 696.411 Q90.489 690.841 94.4039 687.818 Q98.2869 684.794 105.48 684.794 L126.996 684.794 L126.996 690.682 L105.671 690.682 Q100.547 690.682 98.0641 692.496 Q95.5815 694.311 95.5815 698.035 Q95.5815 702.586 98.6052 705.228 Q101.629 707.87 106.849 707.87 L126.996 707.87 L126.996 713.758 L105.671 713.758 Q100.515 713.758 98.0641 715.572 Q95.5815 717.386 95.5815 721.174 Q95.5815 725.662 98.6371 728.303 Q101.661 730.945 106.849 730.945 L126.996 730.945 L126.996 736.833 L91.3483 736.833 L91.3483 730.945 L96.8865 730.945 Q93.6082 728.94 92.0486 726.139 Q90.489 723.338 90.489 719.487 Q90.489 715.604 92.4623 712.898 Q94.4357 710.161 98.1915 708.856 Z" fill="#000000" fill-rule="nonzero" fill-opacity="1" /><path clip-path="url(#clip580)" d="M121.649 667.447 L140.555 667.447 L140.555 673.336 L91.3483 673.336 L91.3483 667.447 L96.7592 667.447 Q93.5763 665.601 92.0486 662.8 Q90.489 659.968 90.489 656.053 Q90.489 649.56 95.6452 645.517 Q100.801 641.443 109.204 641.443 Q117.607 641.443 122.763 645.517 Q127.919 649.56 127.919 656.053 Q127.919 659.968 126.392 662.8 Q124.832 665.601 121.649 667.447 M109.204 647.523 Q102.743 647.523 99.0827 650.196 Q95.3906 652.838 95.3906 657.485 Q95.3906 662.132 99.0827 664.806 Q102.743 667.447 109.204 667.447 Q115.665 667.447 119.357 664.806 Q123.018 662.132 123.018 657.485 Q123.018 652.838 119.357 650.196 Q115.665 647.523 109.204 647.523 Z" fill="#000000" fill-rule="nonzero" fill-opacity="1" /><path clip-path="url(#clip580)" d="M81.2269 625.943 L91.3483 625.943 L91.3483 613.88 L95.8998 613.88 L95.8998 625.943 L115.252 625.943 Q119.612 625.943 120.853 624.765 Q122.095 623.556 122.095 619.895 L122.095 613.88 L126.996 613.88 L126.996 619.895 Q126.996 626.675 124.482 629.253 Q121.936 631.831 115.252 631.831 L95.8998 631.831 L95.8998 636.128 L91.3483 636.128 L91.3483 631.831 L81.2269 631.831 L81.2269 625.943 Z" fill="#000000" fill-rule="nonzero" fill-opacity="1" /><path clip-path="url(#clip580)" d="M91.3483 606.177 L91.3483 600.321 L126.996 600.321 L126.996 606.177 L91.3483 606.177 M77.4711 606.177 L77.4711 600.321 L84.8871 600.321 L84.8871 606.177 L77.4711 606.177 Z" fill="#000000" fill-rule="nonzero" fill-opacity="1" /><path clip-path="url(#clip580)" d="M95.4542 574.253 Q95.4542 578.964 99.1463 581.701 Q102.807 584.438 109.204 584.438 Q115.602 584.438 119.294 581.733 Q122.954 578.996 122.954 574.253 Q122.954 569.575 119.262 566.837 Q115.57 564.1 109.204 564.1 Q102.87 564.1 99.1781 566.837 Q95.4542 569.575 95.4542 574.253 M90.489 574.253 Q90.489 566.614 95.4542 562.254 Q100.419 557.893 109.204 557.893 Q117.957 557.893 122.954 562.254 Q127.919 566.614 127.919 574.253 Q127.919 581.924 122.954 586.285 Q117.957 590.613 109.204 590.613 Q100.419 590.613 95.4542 586.285 Q90.489 581.924 90.489 574.253 Z" fill="#000000" fill-rule="nonzero" fill-opacity="1" /><path clip-path="url(#clip580)" d="M105.48 518.553 L126.996 518.553 L126.996 524.41 L105.671 524.41 Q100.61 524.41 98.096 526.383 Q95.5815 528.357 95.5815 532.303 Q95.5815 537.046 98.6052 539.783 Q101.629 542.52 106.849 542.52 L126.996 542.52 L126.996 548.409 L91.3483 548.409 L91.3483 542.52 L96.8865 542.52 Q93.6718 540.42 92.0804 537.587 Q90.489 534.722 90.489 530.998 Q90.489 524.855 94.3084 521.704 Q98.096 518.553 105.48 518.553 Z" fill="#000000" fill-rule="nonzero" fill-opacity="1" /><path clip-path="url(#clip580)" d="M96.8228 465.495 Q96.2499 466.482 95.9953 467.66 Q95.7088 468.805 95.7088 470.206 Q95.7088 475.171 98.9553 477.845 Q102.17 480.486 108.217 480.486 L126.996 480.486 L126.996 486.375 L91.3483 486.375 L91.3483 480.486 L96.8865 480.486 Q93.64 478.64 92.0804 475.68 Q90.489 472.72 90.489 468.487 Q90.489 467.882 90.5844 467.15 Q90.6481 466.418 90.8072 465.527 L96.8228 465.495 Z" fill="#000000" fill-rule="nonzero" fill-opacity="1" /><path clip-path="url(#clip580)" d="M109.077 443.152 Q109.077 450.249 110.7 452.987 Q112.323 455.724 116.238 455.724 Q119.357 455.724 121.203 453.687 Q123.018 451.618 123.018 448.085 Q123.018 443.215 119.58 440.287 Q116.111 437.327 110.382 437.327 L109.077 437.327 L109.077 443.152 M106.658 431.471 L126.996 431.471 L126.996 437.327 L121.585 437.327 Q124.832 439.332 126.392 442.324 Q127.919 445.316 127.919 449.645 Q127.919 455.119 124.864 458.366 Q121.776 461.58 116.62 461.58 Q110.605 461.58 107.549 457.57 Q104.494 453.528 104.494 445.539 L104.494 437.327 L103.921 437.327 Q99.8784 437.327 97.6822 440.001 Q95.4542 442.642 95.4542 447.448 Q95.4542 450.504 96.1863 453.4 Q96.9183 456.297 98.3824 458.97 L92.9716 458.97 Q91.7303 455.756 91.1255 452.732 Q90.489 449.708 90.489 446.844 Q90.489 439.109 94.4994 435.29 Q98.5097 431.471 106.658 431.471 Z" fill="#000000" fill-rule="nonzero" fill-opacity="1" /><path clip-path="url(#clip580)" d="M81.2269 413.615 L91.3483 413.615 L91.3483 401.552 L95.8998 401.552 L95.8998 413.615 L115.252 413.615 Q119.612 413.615 120.853 412.437 Q122.095 411.228 122.095 407.567 L122.095 401.552 L126.996 401.552 L126.996 407.567 Q126.996 414.347 124.482 416.925 Q121.936 419.503 115.252 419.503 L95.8998 419.503 L95.8998 423.8 L91.3483 423.8 L91.3483 419.503 L81.2269 419.503 L81.2269 413.615 Z" fill="#000000" fill-rule="nonzero" fill-opacity="1" /><path clip-path="url(#clip580)" d="M91.3483 393.849 L91.3483 387.993 L126.996 387.993 L126.996 393.849 L91.3483 393.849 M77.4711 393.849 L77.4711 387.993 L84.8871 387.993 L84.8871 393.849 L77.4711 393.849 Z" fill="#000000" fill-rule="nonzero" fill-opacity="1" /><path clip-path="url(#clip580)" d="M95.4542 361.925 Q95.4542 366.636 99.1463 369.373 Q102.807 372.11 109.204 372.11 Q115.602 372.11 119.294 369.405 Q122.954 366.668 122.954 361.925 Q122.954 357.246 119.262 354.509 Q115.57 351.772 109.204 351.772 Q102.87 351.772 99.1781 354.509 Q95.4542 357.246 95.4542 361.925 M90.489 361.925 Q90.489 354.286 95.4542 349.926 Q100.419 345.565 109.204 345.565 Q117.957 345.565 122.954 349.926 Q127.919 354.286 127.919 361.925 Q127.919 369.596 122.954 373.956 Q117.957 378.285 109.204 378.285 Q100.419 378.285 95.4542 373.956 Q90.489 369.596 90.489 361.925 Z" fill="#000000" fill-rule="nonzero" fill-opacity="1" /><path clip-path="url(#clip580)" d="M121.649 309.472 L140.555 309.472 L140.555 315.36 L91.3483 315.36 L91.3483 309.472 L96.7592 309.472 Q93.5763 307.626 92.0486 304.825 Q90.489 301.992 90.489 298.077 Q90.489 291.584 95.6452 287.542 Q100.801 283.468 109.204 283.468 Q117.607 283.468 122.763 287.542 Q127.919 291.584 127.919 298.077 Q127.919 301.992 126.392 304.825 Q124.832 307.626 121.649 309.472 M109.204 289.547 Q102.743 289.547 99.0827 292.221 Q95.3906 294.862 95.3906 299.509 Q95.3906 304.156 99.0827 306.83 Q102.743 309.472 109.204 309.472 Q115.665 309.472 119.357 306.83 Q123.018 304.156 123.018 299.509 Q123.018 294.862 119.357 292.221 Q115.665 289.547 109.204 289.547 Z" fill="#000000" fill-rule="nonzero" fill-opacity="1" /><polyline clip-path="url(#clip581)" style="stroke:#009af9; stroke-linecap:round; stroke-linejoin:round; stroke-width:4; stroke-opacity:1; fill:none" points="325.988,1323.03 346.274,1280.37 366.56,1246.7 386.846,1218.18 407.132,1193.03 427.417,1170.27 447.703,1149.31 467.989,1129.75 488.275,1111.31 508.561,1093.79 528.847,1077.04 549.133,1060.95 569.419,1045.41 589.705,1030.36 609.991,1015.73 630.277,1001.48 650.563,987.554 670.849,973.928 691.135,960.567 711.421,947.444 731.707,934.537 751.992,921.825 772.278,909.291 792.564,896.919 812.85,884.695 833.136,872.607 853.422,860.644 873.708,848.794 893.994,837.05 914.28,825.403 934.566,813.845 954.852,802.37 975.138,790.971 995.424,779.642 1015.71,768.378 1036,757.174 1056.28,746.026 1076.57,734.929 1096.85,723.88 1117.14,712.873 1137.43,701.908 1157.71,690.979 1178,680.084 1198.28,669.22 1218.57,658.385 1238.86,647.576 1259.14,636.79 1279.43,626.026 1299.71,615.281 1320,604.554 1340.28,593.842 1360.57,583.143 1380.86,572.457 1401.14,561.781 1421.43,551.114 1441.71,540.454 1462,529.8 1482.29,519.15 1502.57,508.504 1522.86,497.86 1543.14,487.216 1563.43,476.572 1583.72,465.927 1604,455.279 1624.29,444.627 1644.57,433.971 1664.86,423.309 1685.15,412.64 1705.43,401.964 1725.72,391.279 1746,380.584 1766.29,369.88 1786.58,359.164 1806.86,348.435 1827.15,337.694 1847.43,326.939 1867.72,316.169 1888.01,305.384 1908.29,294.582 1928.58,283.762 1948.86,272.924 1969.15,262.066 1989.43,251.189 2009.72,240.289 2030.01,229.367 2050.29,218.421 2070.58,207.451 2090.86,196.453 2111.15,185.428 2131.44,174.373 2151.72,163.286 2172.01,152.165 2192.29,141.006 2212.58,129.806 2232.87,118.56 2253.15,107.259 2273.44,95.8872 2293.72,84.4029 "/>
</svg>
