<?xml version="1.0" encoding="utf-8"?>
<svg xmlns="http://www.w3.org/2000/svg" xmlns:xlink="http://www.w3.org/1999/xlink" width="600" height="400" viewBox="0 0 2400 1600">
<defs>
  <clipPath id="clip910">
    <rect x="0" y="0" width="2400" height="1600"/>
  </clipPath>
</defs>
<path clip-path="url(#clip910)" d="M0 1600 L2400 1600 L2400 0 L0 0  Z" fill="#ffffff" fill-rule="evenodd" fill-opacity="1"/>
<defs>
  <clipPath id="clip911">
    <rect x="242" y="47" width="2112" height="1377"/>
  </clipPath>
</defs>
<path clip-path="url(#clip910)" d="M242.135 1423.18 L2352.76 1423.18 L2352.76 47.2441 L242.135 47.2441  Z" fill="#ffffff" fill-rule="evenodd" fill-opacity="1"/>
<polyline clip-path="url(#clip911)" style="stroke:#000000; stroke-linecap:round; stroke-linejoin:round; stroke-width:2; stroke-opacity:0.1; fill:none" points="261.233,1423.18 261.233,47.2441 "/>
<polyline clip-path="url(#clip911)" style="stroke:#000000; stroke-linecap:round; stroke-linejoin:round; stroke-width:2; stroke-opacity:0.1; fill:none" points="716.619,1423.18 716.619,47.2441 "/>
<polyline clip-path="url(#clip911)" style="stroke:#000000; stroke-linecap:round; stroke-linejoin:round; stroke-width:2; stroke-opacity:0.1; fill:none" points="1172,1423.18 1172,47.2441 "/>
<polyline clip-path="url(#clip911)" style="stroke:#000000; stroke-linecap:round; stroke-linejoin:round; stroke-width:2; stroke-opacity:0.1; fill:none" points="1627.39,1423.18 1627.39,47.2441 "/>
<polyline clip-path="url(#clip911)" style="stroke:#000000; stroke-linecap:round; stroke-linejoin:round; stroke-width:2; stroke-opacity:0.1; fill:none" points="2082.78,1423.18 2082.78,47.2441 "/>
<polyline clip-path="url(#clip911)" style="stroke:#000000; stroke-linecap:round; stroke-linejoin:round; stroke-width:2; stroke-opacity:0.1; fill:none" points="242.135,1218.53 2352.76,1218.53 "/>
<polyline clip-path="url(#clip911)" style="stroke:#000000; stroke-linecap:round; stroke-linejoin:round; stroke-width:2; stroke-opacity:0.1; fill:none" points="242.135,962.77 2352.76,962.77 "/>
<polyline clip-path="url(#clip911)" style="stroke:#000000; stroke-linecap:round; stroke-linejoin:round; stroke-width:2; stroke-opacity:0.1; fill:none" points="242.135,707.006 2352.76,707.006 "/>
<polyline clip-path="url(#clip911)" style="stroke:#000000; stroke-linecap:round; stroke-linejoin:round; stroke-width:2; stroke-opacity:0.1; fill:none" points="242.135,451.241 2352.76,451.241 "/>
<polyline clip-path="url(#clip911)" style="stroke:#000000; stroke-linecap:round; stroke-linejoin:round; stroke-width:2; stroke-opacity:0.1; fill:none" points="242.135,195.477 2352.76,195.477 "/>
<polyline clip-path="url(#clip910)" style="stroke:#000000; stroke-linecap:round; stroke-linejoin:round; stroke-width:4; stroke-opacity:1; fill:none" points="242.135,1423.18 2352.76,1423.18 "/>
<polyline clip-path="url(#clip910)" style="stroke:#000000; stroke-linecap:round; stroke-linejoin:round; stroke-width:4; stroke-opacity:1; fill:none" points="261.233,1423.18 261.233,1404.28 "/>
<polyline clip-path="url(#clip910)" style="stroke:#000000; stroke-linecap:round; stroke-linejoin:round; stroke-width:4; stroke-opacity:1; fill:none" points="716.619,1423.18 716.619,1404.28 "/>
<polyline clip-path="url(#clip910)" style="stroke:#000000; stroke-linecap:round; stroke-linejoin:round; stroke-width:4; stroke-opacity:1; fill:none" points="1172,1423.18 1172,1404.28 "/>
<polyline clip-path="url(#clip910)" style="stroke:#000000; stroke-linecap:round; stroke-linejoin:round; stroke-width:4; stroke-opacity:1; fill:none" points="1627.39,1423.18 1627.39,1404.28 "/>
<polyline clip-path="url(#clip910)" style="stroke:#000000; stroke-linecap:round; stroke-linejoin:round; stroke-width:4; stroke-opacity:1; fill:none" points="2082.78,1423.18 2082.78,1404.28 "/>
<path clip-path="url(#clip910)" d="M261.233 1454.1 Q257.622 1454.1 255.794 1457.66 Q253.988 1461.2 253.988 1468.33 Q253.988 1475.44 255.794 1479.01 Q257.622 1482.55 261.233 1482.55 Q264.868 1482.55 266.673 1479.01 Q268.502 1475.44 268.502 1468.33 Q268.502 1461.2 266.673 1457.66 Q264.868 1454.1 261.233 1454.1 M261.233 1450.39 Q267.044 1450.39 270.099 1455 Q273.178 1459.58 273.178 1468.33 Q273.178 1477.06 270.099 1481.67 Q267.044 1486.25 261.233 1486.25 Q255.423 1486.25 252.345 1481.67 Q249.289 1477.06 249.289 1468.33 Q249.289 1459.58 252.345 1455 Q255.423 1450.39 261.233 1450.39 Z" fill="#000000" fill-rule="nonzero" fill-opacity="1" /><path clip-path="url(#clip910)" d="M711.272 1481.64 L727.591 1481.64 L727.591 1485.58 L705.647 1485.58 L705.647 1481.64 Q708.309 1478.89 712.892 1474.26 Q717.499 1469.61 718.679 1468.27 Q720.925 1465.74 721.804 1464.01 Q722.707 1462.25 722.707 1460.56 Q722.707 1457.8 720.763 1456.07 Q718.841 1454.33 715.74 1454.33 Q713.541 1454.33 711.087 1455.09 Q708.656 1455.86 705.879 1457.41 L705.879 1452.69 Q708.703 1451.55 711.156 1450.97 Q713.61 1450.39 715.647 1450.39 Q721.017 1450.39 724.212 1453.08 Q727.406 1455.77 727.406 1460.26 Q727.406 1462.39 726.596 1464.31 Q725.809 1466.2 723.702 1468.8 Q723.124 1469.47 720.022 1472.69 Q716.92 1475.88 711.272 1481.64 Z" fill="#000000" fill-rule="nonzero" fill-opacity="1" /><path clip-path="url(#clip910)" d="M1175.01 1455.09 L1163.21 1473.54 L1175.01 1473.54 L1175.01 1455.09 M1173.79 1451.02 L1179.67 1451.02 L1179.67 1473.54 L1184.6 1473.54 L1184.6 1477.43 L1179.67 1477.43 L1179.67 1485.58 L1175.01 1485.58 L1175.01 1477.43 L1159.41 1477.43 L1159.41 1472.92 L1173.79 1451.02 Z" fill="#000000" fill-rule="nonzero" fill-opacity="1" /><path clip-path="url(#clip910)" d="M1627.8 1466.44 Q1624.65 1466.44 1622.8 1468.59 Q1620.97 1470.74 1620.97 1474.49 Q1620.97 1478.22 1622.8 1480.39 Q1624.65 1482.55 1627.8 1482.55 Q1630.94 1482.55 1632.77 1480.39 Q1634.62 1478.22 1634.62 1474.49 Q1634.62 1470.74 1632.77 1468.59 Q1630.94 1466.44 1627.8 1466.44 M1637.08 1451.78 L1637.08 1456.04 Q1635.32 1455.21 1633.51 1454.77 Q1631.73 1454.33 1629.97 1454.33 Q1625.34 1454.33 1622.89 1457.45 Q1620.46 1460.58 1620.11 1466.9 Q1621.48 1464.89 1623.54 1463.82 Q1625.6 1462.73 1628.07 1462.73 Q1633.28 1462.73 1636.29 1465.9 Q1639.32 1469.05 1639.32 1474.49 Q1639.32 1479.82 1636.18 1483.03 Q1633.03 1486.25 1627.8 1486.25 Q1621.8 1486.25 1618.63 1481.67 Q1615.46 1477.06 1615.46 1468.33 Q1615.46 1460.14 1619.35 1455.28 Q1623.24 1450.39 1629.79 1450.39 Q1631.55 1450.39 1633.33 1450.74 Q1635.13 1451.09 1637.08 1451.78 Z" fill="#000000" fill-rule="nonzero" fill-opacity="1" /><path clip-path="url(#clip910)" d="M2082.78 1469.17 Q2079.44 1469.17 2077.52 1470.95 Q2075.62 1472.73 2075.62 1475.86 Q2075.62 1478.98 2077.52 1480.77 Q2079.44 1482.55 2082.78 1482.55 Q2086.11 1482.55 2088.03 1480.77 Q2089.95 1478.96 2089.95 1475.86 Q2089.95 1472.73 2088.03 1470.95 Q2086.13 1469.17 2082.78 1469.17 M2078.1 1467.18 Q2075.09 1466.44 2073.4 1464.38 Q2071.73 1462.32 2071.73 1459.35 Q2071.73 1455.21 2074.67 1452.8 Q2077.64 1450.39 2082.78 1450.39 Q2087.94 1450.39 2090.88 1452.8 Q2093.82 1455.21 2093.82 1459.35 Q2093.82 1462.32 2092.13 1464.38 Q2090.46 1466.44 2087.48 1467.18 Q2090.86 1467.96 2092.73 1470.26 Q2094.63 1472.55 2094.63 1475.86 Q2094.63 1480.88 2091.55 1483.57 Q2088.49 1486.25 2082.78 1486.25 Q2077.06 1486.25 2073.98 1483.57 Q2070.92 1480.88 2070.92 1475.86 Q2070.92 1472.55 2072.82 1470.26 Q2074.72 1467.96 2078.1 1467.18 M2076.39 1459.79 Q2076.39 1462.48 2078.05 1463.98 Q2079.74 1465.49 2082.78 1465.49 Q2085.79 1465.49 2087.48 1463.98 Q2089.19 1462.48 2089.19 1459.79 Q2089.19 1457.11 2087.48 1455.6 Q2085.79 1454.1 2082.78 1454.1 Q2079.74 1454.1 2078.05 1455.6 Q2076.39 1457.11 2076.39 1459.79 Z" fill="#000000" fill-rule="nonzero" fill-opacity="1" /><path clip-path="url(#clip910)" d="M1188.86 1533.76 L1188.86 1539.24 Q1186.38 1537.87 1183.87 1537.2 Q1181.38 1536.5 1178.84 1536.5 Q1173.14 1536.5 1169.99 1540.13 Q1166.84 1543.73 1166.84 1550.25 Q1166.84 1556.78 1169.99 1560.4 Q1173.14 1564 1178.84 1564 Q1181.38 1564 1183.87 1563.33 Q1186.38 1562.63 1188.86 1561.26 L1188.86 1566.68 Q1186.41 1567.82 1183.77 1568.39 Q1181.16 1568.97 1178.2 1568.97 Q1170.15 1568.97 1165.4 1563.91 Q1160.66 1558.85 1160.66 1550.25 Q1160.66 1541.53 1165.44 1536.53 Q1170.24 1531.54 1178.58 1531.54 Q1181.29 1531.54 1183.87 1532.11 Q1186.44 1532.65 1188.86 1533.76 Z" fill="#000000" fill-rule="nonzero" fill-opacity="1" /><path clip-path="url(#clip910)" d="M1215.25 1550.12 Q1208.15 1550.12 1205.41 1551.75 Q1202.68 1553.37 1202.68 1557.29 Q1202.68 1560.4 1204.71 1562.25 Q1206.78 1564.07 1210.31 1564.07 Q1215.18 1564.07 1218.11 1560.63 Q1221.07 1557.16 1221.07 1551.43 L1221.07 1550.12 L1215.25 1550.12 M1226.93 1547.71 L1226.93 1568.04 L1221.07 1568.04 L1221.07 1562.63 Q1219.07 1565.88 1216.08 1567.44 Q1213.08 1568.97 1208.76 1568.97 Q1203.28 1568.97 1200.03 1565.91 Q1196.82 1562.82 1196.82 1557.67 Q1196.82 1551.65 1200.83 1548.6 Q1204.87 1545.54 1212.86 1545.54 L1221.07 1545.54 L1221.07 1544.97 Q1221.07 1540.93 1218.4 1538.73 Q1215.76 1536.5 1210.95 1536.5 Q1207.9 1536.5 1205 1537.23 Q1202.1 1537.97 1199.43 1539.43 L1199.43 1534.02 Q1202.64 1532.78 1205.67 1532.17 Q1208.69 1531.54 1211.56 1531.54 Q1219.29 1531.54 1223.11 1535.55 Q1226.93 1539.56 1226.93 1547.71 Z" fill="#000000" fill-rule="nonzero" fill-opacity="1" /><path clip-path="url(#clip910)" d="M1244.66 1562.7 L1244.66 1581.6 L1238.77 1581.6 L1238.77 1532.4 L1244.66 1532.4 L1244.66 1537.81 Q1246.5 1534.62 1249.3 1533.1 Q1252.14 1531.54 1256.05 1531.54 Q1262.55 1531.54 1266.59 1536.69 Q1270.66 1541.85 1270.66 1550.25 Q1270.66 1558.65 1266.59 1563.81 Q1262.55 1568.97 1256.05 1568.97 Q1252.14 1568.97 1249.3 1567.44 Q1246.5 1565.88 1244.66 1562.7 M1264.58 1550.25 Q1264.58 1543.79 1261.91 1540.13 Q1259.27 1536.44 1254.62 1536.44 Q1249.97 1536.44 1247.3 1540.13 Q1244.66 1543.79 1244.66 1550.25 Q1244.66 1556.71 1247.3 1560.4 Q1249.97 1564.07 1254.62 1564.07 Q1259.27 1564.07 1261.91 1560.4 Q1264.58 1556.71 1264.58 1550.25 Z" fill="#000000" fill-rule="nonzero" fill-opacity="1" /><path clip-path="url(#clip910)" d="M1280.37 1532.4 L1286.23 1532.4 L1286.23 1568.04 L1280.37 1568.04 L1280.37 1532.4 M1280.37 1518.52 L1286.23 1518.52 L1286.23 1525.93 L1280.37 1525.93 L1280.37 1518.52 Z" fill="#000000" fill-rule="nonzero" fill-opacity="1" /><path clip-path="url(#clip910)" d="M1304.27 1522.27 L1304.27 1532.4 L1316.34 1532.4 L1316.34 1536.95 L1304.27 1536.95 L1304.27 1556.3 Q1304.27 1560.66 1305.45 1561.9 Q1306.66 1563.14 1310.32 1563.14 L1316.34 1563.14 L1316.34 1568.04 L1310.32 1568.04 Q1303.54 1568.04 1300.96 1565.53 Q1298.38 1562.98 1298.38 1556.3 L1298.38 1536.95 L1294.09 1536.95 L1294.09 1532.4 L1298.38 1532.4 L1298.38 1522.27 L1304.27 1522.27 Z" fill="#000000" fill-rule="nonzero" fill-opacity="1" /><path clip-path="url(#clip910)" d="M1340.24 1550.12 Q1333.14 1550.12 1330.4 1551.75 Q1327.67 1553.37 1327.67 1557.29 Q1327.67 1560.4 1329.7 1562.25 Q1331.77 1564.07 1335.31 1564.07 Q1340.18 1564.07 1343.1 1560.63 Q1346.06 1557.16 1346.06 1551.43 L1346.06 1550.12 L1340.24 1550.12 M1351.92 1547.71 L1351.92 1568.04 L1346.06 1568.04 L1346.06 1562.63 Q1344.06 1565.88 1341.07 1567.44 Q1338.07 1568.97 1333.75 1568.97 Q1328.27 1568.97 1325.02 1565.91 Q1321.81 1562.82 1321.81 1557.67 Q1321.81 1551.65 1325.82 1548.6 Q1329.86 1545.54 1337.85 1545.54 L1346.06 1545.54 L1346.06 1544.97 Q1346.06 1540.93 1343.39 1538.73 Q1340.75 1536.5 1335.94 1536.5 Q1332.89 1536.5 1329.99 1537.23 Q1327.09 1537.97 1324.42 1539.43 L1324.42 1534.02 Q1327.63 1532.78 1330.66 1532.17 Q1333.68 1531.54 1336.55 1531.54 Q1344.28 1531.54 1348.1 1535.55 Q1351.92 1539.56 1351.92 1547.71 Z" fill="#000000" fill-rule="nonzero" fill-opacity="1" /><path clip-path="url(#clip910)" d="M1363.98 1518.52 L1369.84 1518.52 L1369.84 1568.04 L1363.98 1568.04 L1363.98 1518.52 Z" fill="#000000" fill-rule="nonzero" fill-opacity="1" /><path clip-path="url(#clip910)" d="M1402.59 1518.52 L1408.48 1518.52 L1408.48 1547.77 L1425.95 1532.4 L1433.43 1532.4 L1414.53 1549.07 L1434.23 1568.04 L1426.59 1568.04 L1408.48 1550.63 L1408.48 1568.04 L1402.59 1568.04 L1402.59 1518.52 Z" fill="#000000" fill-rule="nonzero" fill-opacity="1" /><polyline clip-path="url(#clip910)" style="stroke:#000000; stroke-linecap:round; stroke-linejoin:round; stroke-width:4; stroke-opacity:1; fill:none" points="242.135,1423.18 242.135,47.2441 "/>
<polyline clip-path="url(#clip910)" style="stroke:#000000; stroke-linecap:round; stroke-linejoin:round; stroke-width:4; stroke-opacity:1; fill:none" points="242.135,1218.53 261.032,1218.53 "/>
<polyline clip-path="url(#clip910)" style="stroke:#000000; stroke-linecap:round; stroke-linejoin:round; stroke-width:4; stroke-opacity:1; fill:none" points="242.135,962.77 261.032,962.77 "/>
<polyline clip-path="url(#clip910)" style="stroke:#000000; stroke-linecap:round; stroke-linejoin:round; stroke-width:4; stroke-opacity:1; fill:none" points="242.135,707.006 261.032,707.006 "/>
<polyline clip-path="url(#clip910)" style="stroke:#000000; stroke-linecap:round; stroke-linejoin:round; stroke-width:4; stroke-opacity:1; fill:none" points="242.135,451.241 261.032,451.241 "/>
<polyline clip-path="url(#clip910)" style="stroke:#000000; stroke-linecap:round; stroke-linejoin:round; stroke-width:4; stroke-opacity:1; fill:none" points="242.135,195.477 261.032,195.477 "/>
<path clip-path="url(#clip910)" d="M114.26 1218.99 L143.936 1218.99 L143.936 1222.92 L114.26 1222.92 L114.26 1218.99 Z" fill="#000000" fill-rule="nonzero" fill-opacity="1" /><path clip-path="url(#clip910)" d="M154.075 1201.25 L172.431 1201.25 L172.431 1205.19 L158.357 1205.19 L158.357 1213.66 Q159.376 1213.31 160.394 1213.15 Q161.413 1212.97 162.431 1212.97 Q168.218 1212.97 171.598 1216.14 Q174.977 1219.31 174.977 1224.73 Q174.977 1230.31 171.505 1233.41 Q168.033 1236.49 161.714 1236.49 Q159.538 1236.49 157.269 1236.12 Q155.024 1235.75 152.616 1235 L152.616 1230.31 Q154.7 1231.44 156.922 1232 Q159.144 1232.55 161.621 1232.55 Q165.626 1232.55 167.964 1230.44 Q170.302 1228.34 170.302 1224.73 Q170.302 1221.12 167.964 1219.01 Q165.626 1216.9 161.621 1216.9 Q159.746 1216.9 157.871 1217.32 Q156.019 1217.74 154.075 1218.62 L154.075 1201.25 Z" fill="#000000" fill-rule="nonzero" fill-opacity="1" /><path clip-path="url(#clip910)" d="M194.19 1204.33 Q190.579 1204.33 188.75 1207.9 Q186.945 1211.44 186.945 1218.57 Q186.945 1225.68 188.75 1229.24 Q190.579 1232.78 194.19 1232.78 Q197.825 1232.78 199.63 1229.24 Q201.459 1225.68 201.459 1218.57 Q201.459 1211.44 199.63 1207.9 Q197.825 1204.33 194.19 1204.33 M194.19 1200.63 Q200 1200.63 203.056 1205.24 Q206.135 1209.82 206.135 1218.57 Q206.135 1227.3 203.056 1231.9 Q200 1236.49 194.19 1236.49 Q188.38 1236.49 185.301 1231.9 Q182.246 1227.3 182.246 1218.57 Q182.246 1209.82 185.301 1205.24 Q188.38 1200.63 194.19 1200.63 Z" fill="#000000" fill-rule="nonzero" fill-opacity="1" /><path clip-path="url(#clip910)" d="M115.256 963.222 L144.931 963.222 L144.931 967.157 L115.256 967.157 L115.256 963.222 Z" fill="#000000" fill-rule="nonzero" fill-opacity="1" /><path clip-path="url(#clip910)" d="M167.871 949.564 L156.065 968.013 L167.871 968.013 L167.871 949.564 M166.644 945.49 L172.524 945.49 L172.524 968.013 L177.454 968.013 L177.454 971.902 L172.524 971.902 L172.524 980.05 L167.871 980.05 L167.871 971.902 L152.269 971.902 L152.269 967.388 L166.644 945.49 Z" fill="#000000" fill-rule="nonzero" fill-opacity="1" /><path clip-path="url(#clip910)" d="M185.232 945.49 L203.588 945.49 L203.588 949.425 L189.514 949.425 L189.514 957.898 Q190.533 957.55 191.551 957.388 Q192.57 957.203 193.588 957.203 Q199.375 957.203 202.755 960.374 Q206.135 963.546 206.135 968.962 Q206.135 974.541 202.662 977.643 Q199.19 980.722 192.871 980.722 Q190.695 980.722 188.426 980.351 Q186.181 979.981 183.774 979.24 L183.774 974.541 Q185.857 975.675 188.079 976.231 Q190.301 976.786 192.778 976.786 Q196.783 976.786 199.121 974.68 Q201.459 972.573 201.459 968.962 Q201.459 965.351 199.121 963.245 Q196.783 961.138 192.778 961.138 Q190.903 961.138 189.028 961.555 Q187.176 961.972 185.232 962.851 L185.232 945.49 Z" fill="#000000" fill-rule="nonzero" fill-opacity="1" /><path clip-path="url(#clip910)" d="M114.26 707.457 L143.936 707.457 L143.936 711.392 L114.26 711.392 L114.26 707.457 Z" fill="#000000" fill-rule="nonzero" fill-opacity="1" /><path clip-path="url(#clip910)" d="M166.876 693.8 L155.07 712.249 L166.876 712.249 L166.876 693.8 M165.649 689.726 L171.528 689.726 L171.528 712.249 L176.459 712.249 L176.459 716.138 L171.528 716.138 L171.528 724.286 L166.876 724.286 L166.876 716.138 L151.274 716.138 L151.274 711.624 L165.649 689.726 Z" fill="#000000" fill-rule="nonzero" fill-opacity="1" /><path clip-path="url(#clip910)" d="M194.19 692.804 Q190.579 692.804 188.75 696.369 Q186.945 699.911 186.945 707.041 Q186.945 714.147 188.75 717.712 Q190.579 721.253 194.19 721.253 Q197.825 721.253 199.63 717.712 Q201.459 714.147 201.459 707.041 Q201.459 699.911 199.63 696.369 Q197.825 692.804 194.19 692.804 M194.19 689.101 Q200 689.101 203.056 693.707 Q206.135 698.291 206.135 707.041 Q206.135 715.767 203.056 720.374 Q200 724.957 194.19 724.957 Q188.38 724.957 185.301 720.374 Q182.246 715.767 182.246 707.041 Q182.246 698.291 185.301 693.707 Q188.38 689.101 194.19 689.101 Z" fill="#000000" fill-rule="nonzero" fill-opacity="1" /><path clip-path="url(#clip910)" d="M115.256 451.693 L144.931 451.693 L144.931 455.628 L115.256 455.628 L115.256 451.693 Z" fill="#000000" fill-rule="nonzero" fill-opacity="1" /><path clip-path="url(#clip910)" d="M169.19 449.887 Q172.547 450.605 174.422 452.873 Q176.32 455.142 176.32 458.475 Q176.32 463.591 172.802 466.392 Q169.283 469.193 162.802 469.193 Q160.626 469.193 158.311 468.753 Q156.019 468.336 153.566 467.48 L153.566 462.966 Q155.51 464.1 157.825 464.679 Q160.14 465.257 162.663 465.257 Q167.061 465.257 169.352 463.521 Q171.667 461.785 171.667 458.475 Q171.667 455.42 169.514 453.707 Q167.385 451.97 163.565 451.97 L159.538 451.97 L159.538 448.128 L163.751 448.128 Q167.2 448.128 169.028 446.762 Q170.857 445.373 170.857 442.781 Q170.857 440.119 168.959 438.707 Q167.084 437.271 163.565 437.271 Q161.644 437.271 159.445 437.688 Q157.246 438.105 154.607 438.984 L154.607 434.818 Q157.269 434.077 159.584 433.707 Q161.922 433.336 163.982 433.336 Q169.306 433.336 172.408 435.767 Q175.51 438.174 175.51 442.295 Q175.51 445.165 173.866 447.156 Q172.223 449.123 169.19 449.887 Z" fill="#000000" fill-rule="nonzero" fill-opacity="1" /><path clip-path="url(#clip910)" d="M185.232 433.961 L203.588 433.961 L203.588 437.896 L189.514 437.896 L189.514 446.369 Q190.533 446.021 191.551 445.859 Q192.57 445.674 193.588 445.674 Q199.375 445.674 202.755 448.845 Q206.135 452.017 206.135 457.433 Q206.135 463.012 202.662 466.114 Q199.19 469.193 192.871 469.193 Q190.695 469.193 188.426 468.822 Q186.181 468.452 183.774 467.711 L183.774 463.012 Q185.857 464.146 188.079 464.702 Q190.301 465.257 192.778 465.257 Q196.783 465.257 199.121 463.151 Q201.459 461.045 201.459 457.433 Q201.459 453.822 199.121 451.716 Q196.783 449.609 192.778 449.609 Q190.903 449.609 189.028 450.026 Q187.176 450.443 185.232 451.322 L185.232 433.961 Z" fill="#000000" fill-rule="nonzero" fill-opacity="1" /><path clip-path="url(#clip910)" d="M114.26 195.928 L143.936 195.928 L143.936 199.863 L114.26 199.863 L114.26 195.928 Z" fill="#000000" fill-rule="nonzero" fill-opacity="1" /><path clip-path="url(#clip910)" d="M168.195 194.123 Q171.552 194.84 173.427 197.109 Q175.325 199.377 175.325 202.711 Q175.325 207.826 171.806 210.627 Q168.288 213.428 161.806 213.428 Q159.63 213.428 157.315 212.988 Q155.024 212.572 152.57 211.715 L152.57 207.201 Q154.515 208.336 156.829 208.914 Q159.144 209.493 161.667 209.493 Q166.065 209.493 168.357 207.757 Q170.672 206.021 170.672 202.711 Q170.672 199.655 168.519 197.942 Q166.39 196.206 162.57 196.206 L158.542 196.206 L158.542 192.363 L162.755 192.363 Q166.204 192.363 168.033 190.998 Q169.862 189.609 169.862 187.016 Q169.862 184.354 167.964 182.942 Q166.089 181.507 162.57 181.507 Q160.649 181.507 158.45 181.924 Q156.251 182.34 153.612 183.22 L153.612 179.053 Q156.274 178.313 158.589 177.942 Q160.927 177.572 162.987 177.572 Q168.311 177.572 171.413 180.002 Q174.514 182.41 174.514 186.53 Q174.514 189.4 172.871 191.391 Q171.227 193.359 168.195 194.123 Z" fill="#000000" fill-rule="nonzero" fill-opacity="1" /><path clip-path="url(#clip910)" d="M194.19 181.276 Q190.579 181.276 188.75 184.84 Q186.945 188.382 186.945 195.512 Q186.945 202.618 188.75 206.183 Q190.579 209.724 194.19 209.724 Q197.825 209.724 199.63 206.183 Q201.459 202.618 201.459 195.512 Q201.459 188.382 199.63 184.84 Q197.825 181.276 194.19 181.276 M194.19 177.572 Q200 177.572 203.056 182.178 Q206.135 186.762 206.135 195.512 Q206.135 204.238 203.056 208.845 Q200 213.428 194.19 213.428 Q188.38 213.428 185.301 208.845 Q182.246 204.238 182.246 195.512 Q182.246 186.762 185.301 182.178 Q188.38 177.572 194.19 177.572 Z" fill="#000000" fill-rule="nonzero" fill-opacity="1" /><path clip-path="url(#clip910)" d="M28.3562 894.418 L28.3562 888.212 L58.275 877.072 L28.3562 865.932 L28.3562 859.725 L64.0042 873.093 L64.0042 881.05 L28.3562 894.418 Z" fill="#000000" fill-rule="nonzero" fill-opacity="1" /><path clip-path="url(#clip910)" d="M46.0847 835.44 Q46.0847 842.538 47.7079 845.275 Q49.3312 848.012 53.2461 848.012 Q56.3653 848.012 58.2114 845.975 Q60.0256 843.906 60.0256 840.373 Q60.0256 835.504 56.5881 832.575 Q53.1188 829.615 47.3897 829.615 L46.0847 829.615 L46.0847 835.44 M43.6657 823.759 L64.0042 823.759 L64.0042 829.615 L58.5933 829.615 Q61.8398 831.621 63.3994 834.612 Q64.9272 837.604 64.9272 841.933 Q64.9272 847.408 61.8716 850.654 Q58.7843 853.869 53.6281 853.869 Q47.6125 853.869 44.5569 849.858 Q41.5014 845.816 41.5014 837.827 L41.5014 829.615 L40.9285 829.615 Q36.8862 829.615 34.6901 832.289 Q32.4621 834.931 32.4621 839.737 Q32.4621 842.792 33.1941 845.689 Q33.9262 848.585 35.3903 851.259 L29.9795 851.259 Q28.7381 848.044 28.1334 845.02 Q27.4968 841.997 27.4968 839.132 Q27.4968 831.398 31.5072 827.578 Q35.5176 823.759 43.6657 823.759 Z" fill="#000000" fill-rule="nonzero" fill-opacity="1" /><path clip-path="url(#clip910)" d="M14.479 811.696 L14.479 805.839 L64.0042 805.839 L64.0042 811.696 L14.479 811.696 Z" fill="#000000" fill-rule="nonzero" fill-opacity="1" /><path clip-path="url(#clip910)" d="M49.9359 794.19 L28.3562 794.19 L28.3562 788.334 L49.7131 788.334 Q54.7739 788.334 57.3202 786.36 Q59.8346 784.387 59.8346 780.44 Q59.8346 775.698 56.8109 772.961 Q53.7872 770.192 48.5673 770.192 L28.3562 770.192 L28.3562 764.335 L64.0042 764.335 L64.0042 770.192 L58.5296 770.192 Q61.7762 772.324 63.3676 775.157 Q64.9272 777.958 64.9272 781.682 Q64.9272 787.825 61.1078 791.007 Q57.2883 794.19 49.9359 794.19 M27.4968 779.454 L27.4968 779.454 Z" fill="#000000" fill-rule="nonzero" fill-opacity="1" /><path clip-path="url(#clip910)" d="M44.7161 721.78 L47.5806 721.78 L47.5806 748.707 Q53.6281 748.325 56.8109 745.079 Q59.9619 741.8 59.9619 735.976 Q59.9619 732.602 59.1344 729.451 Q58.3069 726.268 56.6518 723.149 L62.1899 723.149 Q63.5267 726.3 64.227 729.61 Q64.9272 732.92 64.9272 736.326 Q64.9272 744.856 59.9619 749.853 Q54.9967 754.818 46.5303 754.818 Q37.7774 754.818 32.6531 750.108 Q27.4968 745.365 27.4968 737.344 Q27.4968 730.151 32.1438 725.982 Q36.7589 721.78 44.7161 721.78 M42.9973 727.637 Q38.1912 727.7 35.3266 730.342 Q32.4621 732.952 32.4621 737.281 Q32.4621 742.182 35.2312 745.142 Q38.0002 748.071 43.0292 748.516 L42.9973 727.637 Z" fill="#000000" fill-rule="nonzero" fill-opacity="1" /><path clip-path="url(#clip910)" d="M28.3562 695.649 L28.3562 689.443 L58.275 678.303 L28.3562 667.163 L28.3562 660.956 L64.0042 674.324 L64.0042 682.281 L28.3562 695.649 Z" fill="#000000" fill-rule="nonzero" fill-opacity="1" /><path clip-path="url(#clip910)" d="M14.5426 638.803 Q21.8632 643.068 29.0246 645.137 Q36.186 647.206 43.5384 647.206 Q50.8908 647.206 58.1159 645.137 Q65.3091 643.037 72.5979 638.803 L72.5979 643.896 Q65.1182 648.67 57.8931 651.057 Q50.668 653.413 43.5384 653.413 Q36.4406 653.413 29.2474 651.057 Q22.0542 648.702 14.5426 643.896 L14.5426 638.803 Z" fill="#000000" fill-rule="nonzero" fill-opacity="1" /><path clip-path="url(#clip910)" d="M14.479 627.663 L14.479 621.775 L43.7294 621.775 L28.3562 604.301 L28.3562 596.822 L45.0344 615.728 L64.0042 596.026 L64.0042 603.665 L46.5939 621.775 L64.0042 621.775 L64.0042 627.663 L14.479 627.663 Z" fill="#000000" fill-rule="nonzero" fill-opacity="1" /><path clip-path="url(#clip910)" d="M14.5426 590.615 L14.5426 585.522 Q22.0542 580.748 29.2474 578.393 Q36.4406 576.006 43.5384 576.006 Q50.668 576.006 57.8931 578.393 Q65.1182 580.748 72.5979 585.522 L72.5979 590.615 Q65.3091 586.382 58.1159 584.313 Q50.8908 582.212 43.5384 582.212 Q36.186 582.212 29.0246 584.313 Q21.8632 586.382 14.5426 590.615 Z" fill="#000000" fill-rule="nonzero" fill-opacity="1" /><polyline clip-path="url(#clip911)" style="stroke:#009af9; stroke-linecap:round; stroke-linejoin:round; stroke-width:4; stroke-opacity:1; fill:none" points="301.869,1384.24 303.862,1372.52 305.856,1361.22 307.849,1350.31 309.842,1339.76 311.835,1329.54 313.828,1319.64 315.821,1310.02 317.814,1300.68 319.808,1291.6 321.801,1282.76 323.794,1274.14 325.787,1265.75 327.78,1257.55 329.773,1249.55 331.766,1241.73 333.76,1234.09 335.753,1226.61 337.746,1219.3 339.739,1212.13 341.732,1205.11 343.725,1198.23 345.718,1191.48 347.712,1184.85 349.705,1178.35 351.698,1171.97 353.691,1165.7 355.684,1159.54 357.677,1153.49 359.67,1147.53 361.664,1141.67 363.657,1135.91 365.65,1130.24 367.643,1124.66 369.636,1119.16 371.629,1113.74 373.622,1108.4 375.616,1103.14 377.609,1097.96 379.602,1092.84 381.595,1087.8 383.588,1082.83 385.581,1077.92 387.574,1073.08 389.568,1068.3 391.561,1063.58 393.554,1058.92 395.547,1054.32 397.54,1049.78 399.533,1045.29 401.526,1040.85 403.52,1036.47 405.513,1032.14 407.506,1027.85 409.499,1023.62 411.492,1019.43 413.485,1015.29 415.479,1011.2 417.472,1007.15 419.465,1003.14 421.458,999.171 423.451,995.247 425.444,991.362 427.437,987.518 429.431,983.712 431.424,979.944 433.417,976.213 435.41,972.518 437.403,968.86 439.396,965.236 441.389,961.646 443.383,958.089 445.376,954.566 447.369,951.075 449.362,947.616 451.355,944.187 453.348,940.789 455.341,937.421 457.335,934.083 459.328,930.773 461.321,927.492 463.314,924.238 465.307,921.012 467.3,917.812 469.293,914.639 471.287,911.492 473.28,908.371 475.273,905.275 477.266,902.203 479.259,899.155 481.252,896.132 483.245,893.132 485.239,890.155 487.232,887.201 489.225,884.269 491.218,881.359 493.211,878.471 495.204,875.604 497.197,872.759 499.191,869.934 501.184,867.129 503.177,864.345 505.17,861.58 507.163,858.835 509.156,856.11 511.149,853.403 513.143,850.715 515.136,848.045 517.129,845.393 519.122,842.76 521.115,840.144 523.108,837.546 525.101,834.964 527.095,832.4 529.088,829.852 531.081,827.321 533.074,824.807 535.067,822.308 537.06,819.825 539.054,817.358 541.047,814.906 543.04,812.47 545.033,810.049 547.026,807.642 549.019,805.25 551.012,802.873 553.006,800.51 554.999,798.161 556.992,795.827 558.985,793.506 560.978,791.198 562.971,788.904 564.964,786.624 566.958,784.357 568.951,782.102 570.944,779.861 572.937,777.632 574.93,775.416 576.923,773.212 578.916,771.021 580.91,768.841 582.903,766.674 584.896,764.518 586.889,762.375 588.882,760.243 590.875,758.122 592.868,756.013 594.862,753.915 596.855,751.828 598.848,749.752 600.841,747.687 602.834,745.632 604.827,743.589 606.82,741.555 608.814,739.533 610.807,737.52 612.8,735.518 614.793,733.526 616.786,731.544 618.779,729.572 620.772,727.61 622.766,725.657 624.759,723.714 626.752,721.78 628.745,719.856 630.738,717.941 632.731,716.036 634.724,714.139 636.718,712.252 638.711,710.374 640.704,708.504 642.697,706.643 644.69,704.791 646.683,702.948 648.677,701.113 650.67,699.287 652.663,697.469 654.656,695.659 656.649,693.858 658.642,692.065 660.635,690.279 662.629,688.502 664.622,686.733 666.615,684.972 668.608,683.221 670.601,681.48 672.594,679.746 674.587,678.02 676.581,676.302 678.574,674.59 680.567,672.887 682.56,671.19 684.553,669.501 686.546,667.819 688.539,666.144 690.533,664.476 692.526,662.815 694.519,661.161 696.512,659.514 698.505,657.874 700.498,656.24 702.491,654.613 704.485,652.993 706.478,651.379 708.471,649.772 710.464,648.172 712.457,646.578 714.45,644.99 716.443,643.408 718.437,641.833 720.43,640.264 722.423,638.701 724.416,637.145 726.409,635.594 728.402,634.049 730.395,632.511 732.389,630.978 734.382,629.451 736.375,627.93 738.368,626.415 740.361,624.906 742.354,623.402 744.347,621.904 746.341,620.412 748.334,618.925 750.327,617.444 752.32,615.969 754.313,614.498 756.306,613.034 758.299,611.574 760.293,610.12 762.286,608.671 764.279,607.228 766.272,605.79 768.265,604.357 770.258,602.929 772.252,601.506 774.245,600.088 776.238,598.676 778.231,597.268 780.224,595.865 782.217,594.467 784.21,593.075 786.204,591.687 788.197,590.304 790.19,588.925 792.183,587.552 794.176,586.183 796.169,584.819 798.162,583.459 800.156,582.104 802.149,580.754 804.142,579.409 806.135,578.068 808.128,576.731 810.121,575.399 812.114,574.071 814.108,572.748 816.101,571.429 818.094,570.115 820.087,568.805 822.08,567.499 824.073,566.198 826.066,564.9 828.06,563.607 830.053,562.319 832.046,561.034 834.039,559.754 836.032,558.477 838.025,557.205 840.018,555.937 842.012,554.673 844.005,553.412 845.998,552.156 847.991,550.904 849.984,549.656 851.977,548.412 853.97,547.171 855.964,545.935 857.957,544.702 859.95,543.473 861.943,542.248 863.936,541.027 865.929,539.809 867.922,538.595 869.916,537.385 871.909,536.179 873.902,534.976 875.895,533.777 877.888,532.581 879.881,531.389 881.874,530.201 883.868,529.016 885.861,527.835 887.854,526.657 889.847,525.483 891.84,524.312 893.833,523.145 895.827,521.981 897.82,520.82 899.813,519.663 901.806,518.51 903.799,517.359 905.792,516.212 907.785,515.068 909.779,513.928 911.772,512.791 913.765,511.657 915.758,510.526 917.751,509.399 919.744,508.275 921.737,507.154 923.731,506.036 925.724,504.921 927.717,503.809 929.71,502.701 931.703,501.595 933.696,500.493 935.689,499.394 937.683,498.298 939.676,497.205 941.669,496.114 943.662,495.027 945.655,493.943 947.648,492.862 949.641,491.784 951.635,490.708 953.628,489.636 955.621,488.567 957.614,487.5 959.607,486.436 961.6,485.375 963.593,484.317 965.587,483.262 967.58,482.21 969.573,481.16 971.566,480.113 973.559,479.069 975.552,478.028 977.545,476.989 979.539,475.954 981.532,474.921 983.525,473.89 985.518,472.862 987.511,471.837 989.504,470.815 991.497,469.795 993.491,468.778 995.484,467.764 997.477,466.752 999.47,465.742 1001.46,464.736 1003.46,463.731 1005.45,462.73 1007.44,461.731 1009.44,460.734 1011.43,459.74 1013.42,458.748 1015.42,457.759 1017.41,456.773 1019.4,455.789 1021.39,454.807 1023.39,453.828 1025.38,452.851 1027.37,451.877 1029.37,450.905 1031.36,449.935 1033.35,448.968 1035.35,448.003 1037.34,447.041 1039.33,446.081 1041.33,445.123 1043.32,444.167 1045.31,443.214 1047.31,442.263 1049.3,441.315 1051.29,440.368 1053.28,439.424 1055.28,438.483 1057.27,437.543 1059.26,436.606 1061.26,435.671 1063.25,434.738 1065.24,433.808 1067.24,432.879 1069.23,431.953 1071.22,431.029 1073.22,430.107 1075.21,429.187 1077.2,428.27 1079.2,427.354 1081.19,426.441 1083.18,425.53 1085.18,424.621 1087.17,423.714 1089.16,422.809 1091.15,421.906 1093.15,421.006 1095.14,420.107 1097.13,419.21 1099.13,418.316 1101.12,417.423 1103.11,416.533 1105.11,415.644 1107.1,414.758 1109.09,413.873 1111.09,412.991 1113.08,412.111 1115.07,411.232 1117.07,410.355 1119.06,409.481 1121.05,408.608 1123.05,407.737 1125.04,406.869 1127.03,406.002 1129.02,405.137 1131.02,404.274 1133.01,403.413 1135,402.553 1137,401.696 1138.99,400.841 1140.98,399.987 1142.98,399.135 1144.97,398.285 1146.96,397.437 1148.96,396.591 1150.95,395.747 1152.94,394.904 1154.94,394.063 1156.93,393.224 1158.92,392.387 1160.91,391.552 1162.91,390.718 1164.9,389.886 1166.89,389.056 1168.89,388.228 1170.88,387.401 1172.87,386.576 1174.87,385.753 1176.86,384.932 1178.85,384.112 1180.85,383.294 1182.84,382.478 1184.83,381.664 1186.83,380.851 1188.82,380.04 1190.81,379.23 1192.81,378.422 1194.8,377.616 1196.79,376.812 1198.78,376.009 1200.78,375.208 1202.77,374.409 1204.76,373.611 1206.76,372.814 1208.75,372.02 1210.74,371.227 1212.74,370.436 1214.73,369.646 1216.72,368.858 1218.72,368.071 1220.71,367.286 1222.7,366.503 1224.7,365.721 1226.69,364.94 1228.68,364.162 1230.67,363.385 1232.67,362.609 1234.66,361.835 1236.65,361.062 1238.65,360.291 1240.64,359.522 1242.63,358.754 1244.63,357.987 1246.62,357.222 1248.61,356.459 1250.61,355.697 1252.6,354.937 1254.59,354.178 1256.59,353.42 1258.58,352.664 1260.57,351.91 1262.57,351.156 1264.56,350.405 1266.55,349.655 1268.54,348.906 1270.54,348.159 1272.53,347.413 1274.52,346.668 1276.52,345.925 1278.51,345.184 1280.5,344.443 1282.5,343.705 1284.49,342.967 1286.48,342.231 1288.48,341.497 1290.47,340.764 1292.46,340.032 1294.46,339.301 1296.45,338.572 1298.44,337.845 1300.44,337.118 1302.43,336.393 1304.42,335.67 1306.41,334.947 1308.41,334.226 1310.4,333.507 1312.39,332.789 1314.39,332.072 1316.38,331.356 1318.37,330.642 1320.37,329.929 1322.36,329.217 1324.35,328.507 1326.35,327.798 1328.34,327.09 1330.33,326.384 1332.33,325.678 1334.32,324.975 1336.31,324.272 1338.3,323.571 1340.3,322.871 1342.29,322.172 1344.28,321.474 1346.28,320.778 1348.27,320.083 1350.26,319.389 1352.26,318.697 1354.25,318.006 1356.24,317.316 1358.24,316.627 1360.23,315.939 1362.22,315.253 1364.22,314.568 1366.21,313.884 1368.2,313.201 1370.2,312.52 1372.19,311.84 1374.18,311.161 1376.17,310.483 1378.17,309.807 1380.16,309.131 1382.15,308.457 1384.15,307.784 1386.14,307.112 1388.13,306.442 1390.13,305.772 1392.12,305.104 1394.11,304.437 1396.11,303.771 1398.1,303.106 1400.09,302.443 1402.09,301.78 1404.08,301.119 1406.07,300.459 1408.06,299.8 1410.06,299.142 1412.05,298.485 1414.04,297.83 1416.04,297.175 1418.03,296.522 1420.02,295.87 1422.02,295.219 1424.01,294.569 1426,293.92 1428,293.273 1429.99,292.626 1431.98,291.981 1433.98,291.336 1435.97,290.693 1437.96,290.051 1439.96,289.41 1441.95,288.77 1443.94,288.131 1445.93,287.494 1447.93,286.857 1449.92,286.221 1451.91,285.587 1453.91,284.953 1455.9,284.321 1457.89,283.69 1459.89,283.06 1461.88,282.43 1463.87,281.802 1465.87,281.175 1467.86,280.549 1469.85,279.924 1471.85,279.3 1473.84,278.678 1475.83,278.056 1477.82,277.435 1479.82,276.815 1481.81,276.197 1483.8,275.579 1485.8,274.962 1487.79,274.347 1489.78,273.732 1491.78,273.118 1493.77,272.506 1495.76,271.894 1497.76,271.284 1499.75,270.674 1501.74,270.066 1503.74,269.458 1505.73,268.851 1507.72,268.246 1509.72,267.641 1511.71,267.038 1513.7,266.435 1515.69,265.834 1517.69,265.233 1519.68,264.633 1521.67,264.035 1523.67,263.437 1525.66,262.84 1527.65,262.245 1529.65,261.65 1531.64,261.056 1533.63,260.463 1535.63,259.871 1537.62,259.28 1539.61,258.69 1541.61,258.101 1543.6,257.513 1545.59,256.926 1547.59,256.34 1549.58,255.754 1551.57,255.17 1553.56,254.586 1555.56,254.004 1557.55,253.422 1559.54,252.842 1561.54,252.262 1563.53,251.683 1565.52,251.105 1567.52,250.528 1569.51,249.952 1571.5,249.377 1573.5,248.803 1575.49,248.23 1577.48,247.657 1579.48,247.086 1581.47,246.515 1583.46,245.945 1585.45,245.376 1587.45,244.809 1589.44,244.241 1591.43,243.675 1593.43,243.11 1595.42,242.546 1597.41,241.982 1599.41,241.419 1601.4,240.858 1603.39,240.297 1605.39,239.737 1607.38,239.177 1609.37,238.619 1611.37,238.062 1613.36,237.505 1615.35,236.949 1617.35,236.394 1619.34,235.84 1621.33,235.287 1623.32,234.735 1625.32,234.183 1627.31,233.633 1629.3,233.083 1631.3,232.534 1633.29,231.986 1635.28,231.439 1637.28,230.892 1639.27,230.347 1641.26,229.802 1643.26,229.258 1645.25,228.715 1647.24,228.172 1649.24,227.631 1651.23,227.09 1653.22,226.55 1655.21,226.011 1657.21,225.473 1659.2,224.936 1661.19,224.399 1663.19,223.863 1665.18,223.328 1667.17,222.794 1669.17,222.26 1671.16,221.728 1673.15,221.196 1675.15,220.665 1677.14,220.135 1679.13,219.605 1681.13,219.077 1683.12,218.549 1685.11,218.022 1687.11,217.495 1689.1,216.97 1691.09,216.445 1693.08,215.921 1695.08,215.398 1697.07,214.875 1699.06,214.354 1701.06,213.833 1703.05,213.313 1705.04,212.793 1707.04,212.275 1709.03,211.757 1711.02,211.24 1713.02,210.723 1715.01,210.208 1717,209.693 1719,209.179 1720.99,208.665 1722.98,208.153 1724.97,207.641 1726.97,207.13 1728.96,206.619 1730.95,206.11 1732.95,205.601 1734.94,205.092 1736.93,204.585 1738.93,204.078 1740.92,203.572 1742.91,203.067 1744.91,202.562 1746.9,202.059 1748.89,201.555 1750.89,201.053 1752.88,200.551 1754.87,200.05 1756.87,199.55 1758.86,199.051 1760.85,198.552 1762.84,198.054 1764.84,197.556 1766.83,197.06 1768.82,196.564 1770.82,196.068 1772.81,195.574 1774.8,195.08 1776.8,194.587 1778.79,194.094 1780.78,193.602 1782.78,193.111 1784.77,192.621 1786.76,192.131 1788.76,191.642 1790.75,191.154 1792.74,190.666 1794.74,190.179 1796.73,189.693 1798.72,189.207 1800.71,188.722 1802.71,188.238 1804.7,187.754 1806.69,187.271 1808.69,186.789 1810.68,186.307 1812.67,185.826 1814.67,185.346 1816.66,184.867 1818.65,184.388 1820.65,183.909 1822.64,183.432 1824.63,182.955 1826.63,182.478 1828.62,182.003 1830.61,181.528 1832.6,181.053 1834.6,180.58 1836.59,180.106 1838.58,179.634 1840.58,179.162 1842.57,178.691 1844.56,178.221 1846.56,177.751 1848.55,177.282 1850.54,176.813 1852.54,176.345 1854.53,175.878 1856.52,175.411 1858.52,174.945 1860.51,174.48 1862.5,174.015 1864.5,173.551 1866.49,173.087 1868.48,172.624 1870.47,172.162 1872.47,171.7 1874.46,171.239 1876.45,170.779 1878.45,170.319 1880.44,169.86 1882.43,169.401 1884.43,168.943 1886.42,168.486 1888.41,168.029 1890.41,167.573 1892.4,167.117 1894.39,166.662 1896.39,166.208 1898.38,165.754 1900.37,165.301 1902.36,164.848 1904.36,164.396 1906.35,163.945 1908.34,163.494 1910.34,163.044 1912.33,162.595 1914.32,162.146 1916.32,161.697 1918.31,161.249 1920.3,160.802 1922.3,160.356 1924.29,159.91 1926.28,159.464 1928.28,159.019 1930.27,158.575 1932.26,158.131 1934.26,157.688 1936.25,157.245 1938.24,156.803 1940.23,156.362 1942.23,155.921 1944.22,155.481 1946.21,155.041 1948.21,154.602 1950.2,154.163 1952.19,153.725 1954.19,153.288 1956.18,152.851 1958.17,152.415 1960.17,151.979 1962.16,151.544 1964.15,151.109 1966.15,150.675 1968.14,150.242 1970.13,149.809 1972.12,149.376 1974.12,148.944 1976.11,148.513 1978.1,148.082 1980.1,147.652 1982.09,147.222 1984.08,146.793 1986.08,146.365 1988.07,145.936 1990.06,145.509 1992.06,145.082 1994.05,144.656 1996.04,144.23 1998.04,143.804 2000.03,143.38 2002.02,142.955 2004.02,142.531 2006.01,142.108 2008,141.686 2009.99,141.263 2011.99,140.842 2013.98,140.421 2015.97,140 2017.97,139.58 2019.96,139.161 2021.95,138.742 2023.95,138.323 2025.94,137.905 2027.93,137.488 2029.93,137.071 2031.92,136.654 2033.91,136.239 2035.91,135.823 2037.9,135.408 2039.89,134.994 2041.89,134.58 2043.88,134.167 2045.87,133.754 2047.86,133.342 2049.86,132.93 2051.85,132.519 2053.84,132.108 2055.84,131.698 2057.83,131.288 2059.82,130.879 2061.82,130.47 2063.81,130.061 2065.8,129.654 2067.8,129.246 2069.79,128.84 2071.78,128.433 2073.78,128.028 2075.77,127.622 2077.76,127.217 2079.75,126.813 2081.75,126.409 2083.74,126.006 2085.73,125.603 2087.73,125.201 2089.72,124.799 2091.71,124.398 2093.71,123.997 2095.7,123.596 2097.69,123.196 2099.69,122.797 2101.68,122.398 2103.67,121.999 2105.67,121.601 2107.66,121.204 2109.65,120.807 2111.65,120.41 2113.64,120.014 2115.63,119.618 2117.62,119.223 2119.62,118.828 2121.61,118.434 2123.6,118.04 2125.6,117.647 2127.59,117.254 2129.58,116.862 2131.58,116.47 2133.57,116.079 2135.56,115.688 2137.56,115.297 2139.55,114.907 2141.54,114.517 2143.54,114.128 2145.53,113.74 2147.52,113.351 2149.51,112.964 2151.51,112.576 2153.5,112.19 2155.49,111.803 2157.49,111.417 2159.48,111.032 2161.47,110.647 2163.47,110.262 2165.46,109.878 2167.45,109.494 2169.45,109.111 2171.44,108.728 2173.43,108.346 2175.43,107.964 2177.42,107.582 2179.41,107.201 2181.41,106.821 2183.4,106.441 2185.39,106.061 2187.38,105.682 2189.38,105.303 2191.37,104.924 2193.36,104.546 2195.36,104.169 2197.35,103.792 2199.34,103.415 2201.34,103.039 2203.33,102.663 2205.32,102.288 2207.32,101.913 2209.31,101.538 2211.3,101.164 2213.3,100.791 2215.29,100.417 2217.28,100.045 2219.27,99.6723 2221.27,99.3004 2223.26,98.9288 2225.25,98.5577 2227.25,98.1871 2229.24,97.8168 2231.23,97.447 2233.23,97.0775 2235.22,96.7085 2237.21,96.34 2239.21,95.9718 2241.2,95.604 2243.19,95.2367 2245.19,94.8698 2247.18,94.5033 2249.17,94.1372 2251.17,93.7715 2253.16,93.4062 2255.15,93.0413 2257.14,92.6769 2259.14,92.3128 2261.13,91.9492 2263.12,91.586 2265.12,91.2231 2267.11,90.8607 2269.1,90.4987 2271.1,90.1371 2273.09,89.7759 2275.08,89.415 2277.08,89.0546 2279.07,88.6946 2281.06,88.335 2283.06,87.9758 2285.05,87.617 2287.04,87.2586 2289.04,86.9005 2291.03,86.5429 2293.02,86.1857 "/>
</svg>
