<?xml version="1.0" encoding="utf-8"?>
<svg xmlns="http://www.w3.org/2000/svg" xmlns:xlink="http://www.w3.org/1999/xlink" width="600" height="400" viewBox="0 0 2400 1600">
<defs>
  <clipPath id="clip540">
    <rect x="0" y="0" width="2400" height="1600"/>
  </clipPath>
</defs>
<path clip-path="url(#clip540)" d="M0 1600 L2400 1600 L2400 0 L0 0  Z" fill="#ffffff" fill-rule="evenodd" fill-opacity="1"/>
<defs>
  <clipPath id="clip541">
    <rect x="335" y="47" width="2018" height="1314"/>
  </clipPath>
</defs>
<path clip-path="url(#clip540)" d="M335.289 1360.19 L2352.76 1360.19 L2352.76 47.2441 L335.289 47.2441  Z" fill="#ffffff" fill-rule="evenodd" fill-opacity="1"/>
<polyline clip-path="url(#clip541)" style="stroke:#000000; stroke-linecap:round; stroke-linejoin:round; stroke-width:2; stroke-opacity:0.1; fill:none" points="353.545,1360.19 353.545,47.2441 "/>
<polyline clip-path="url(#clip541)" style="stroke:#000000; stroke-linecap:round; stroke-linejoin:round; stroke-width:2; stroke-opacity:0.1; fill:none" points="878.097,1360.19 878.097,47.2441 "/>
<polyline clip-path="url(#clip541)" style="stroke:#000000; stroke-linecap:round; stroke-linejoin:round; stroke-width:2; stroke-opacity:0.1; fill:none" points="1402.65,1360.19 1402.65,47.2441 "/>
<polyline clip-path="url(#clip541)" style="stroke:#000000; stroke-linecap:round; stroke-linejoin:round; stroke-width:2; stroke-opacity:0.1; fill:none" points="1927.2,1360.19 1927.2,47.2441 "/>
<polyline clip-path="url(#clip541)" style="stroke:#000000; stroke-linecap:round; stroke-linejoin:round; stroke-width:2; stroke-opacity:0.1; fill:none" points="335.289,1251.39 2352.76,1251.39 "/>
<polyline clip-path="url(#clip541)" style="stroke:#000000; stroke-linecap:round; stroke-linejoin:round; stroke-width:2; stroke-opacity:0.1; fill:none" points="335.289,884.315 2352.76,884.315 "/>
<polyline clip-path="url(#clip541)" style="stroke:#000000; stroke-linecap:round; stroke-linejoin:round; stroke-width:2; stroke-opacity:0.1; fill:none" points="335.289,517.235 2352.76,517.235 "/>
<polyline clip-path="url(#clip541)" style="stroke:#000000; stroke-linecap:round; stroke-linejoin:round; stroke-width:2; stroke-opacity:0.1; fill:none" points="335.289,150.156 2352.76,150.156 "/>
<polyline clip-path="url(#clip540)" style="stroke:#000000; stroke-linecap:round; stroke-linejoin:round; stroke-width:4; stroke-opacity:1; fill:none" points="335.289,1360.19 2352.76,1360.19 "/>
<polyline clip-path="url(#clip540)" style="stroke:#000000; stroke-linecap:round; stroke-linejoin:round; stroke-width:4; stroke-opacity:1; fill:none" points="353.545,1360.19 353.545,1341.29 "/>
<polyline clip-path="url(#clip540)" style="stroke:#000000; stroke-linecap:round; stroke-linejoin:round; stroke-width:4; stroke-opacity:1; fill:none" points="878.097,1360.19 878.097,1341.29 "/>
<polyline clip-path="url(#clip540)" style="stroke:#000000; stroke-linecap:round; stroke-linejoin:round; stroke-width:4; stroke-opacity:1; fill:none" points="1402.65,1360.19 1402.65,1341.29 "/>
<polyline clip-path="url(#clip540)" style="stroke:#000000; stroke-linecap:round; stroke-linejoin:round; stroke-width:4; stroke-opacity:1; fill:none" points="1927.2,1360.19 1927.2,1341.29 "/>
<path clip-path="url(#clip540)" d="M353.545 1391.11 Q349.933 1391.11 348.105 1394.67 Q346.299 1398.21 346.299 1405.34 Q346.299 1412.45 348.105 1416.01 Q349.933 1419.56 353.545 1419.56 Q357.179 1419.56 358.984 1416.01 Q360.813 1412.45 360.813 1405.34 Q360.813 1398.21 358.984 1394.67 Q357.179 1391.11 353.545 1391.11 M353.545 1387.4 Q359.355 1387.4 362.41 1392.01 Q365.489 1396.59 365.489 1405.34 Q365.489 1414.07 362.41 1418.68 Q359.355 1423.26 353.545 1423.26 Q347.734 1423.26 344.656 1418.68 Q341.6 1414.07 341.6 1405.34 Q341.6 1396.59 344.656 1392.01 Q347.734 1387.4 353.545 1387.4 Z" fill="#000000" fill-rule="nonzero" fill-opacity="1" /><path clip-path="url(#clip540)" d="M868.375 1388.03 L886.731 1388.03 L886.731 1391.96 L872.657 1391.96 L872.657 1400.44 Q873.676 1400.09 874.694 1399.93 Q875.713 1399.74 876.731 1399.74 Q882.518 1399.74 885.898 1402.91 Q889.277 1406.08 889.277 1411.5 Q889.277 1417.08 885.805 1420.18 Q882.333 1423.26 876.014 1423.26 Q873.838 1423.26 871.569 1422.89 Q869.324 1422.52 866.916 1421.78 L866.916 1417.08 Q869 1418.21 871.222 1418.77 Q873.444 1419.32 875.921 1419.32 Q879.926 1419.32 882.264 1417.22 Q884.601 1415.11 884.601 1411.5 Q884.601 1407.89 882.264 1405.78 Q879.926 1403.68 875.921 1403.68 Q874.046 1403.68 872.171 1404.09 Q870.319 1404.51 868.375 1405.39 L868.375 1388.03 Z" fill="#000000" fill-rule="nonzero" fill-opacity="1" /><path clip-path="url(#clip540)" d="M1377.34 1418.65 L1384.98 1418.65 L1384.98 1392.29 L1376.67 1393.95 L1376.67 1389.69 L1384.93 1388.03 L1389.61 1388.03 L1389.61 1418.65 L1397.24 1418.65 L1397.24 1422.59 L1377.34 1422.59 L1377.34 1418.65 Z" fill="#000000" fill-rule="nonzero" fill-opacity="1" /><path clip-path="url(#clip540)" d="M1416.69 1391.11 Q1413.08 1391.11 1411.25 1394.67 Q1409.44 1398.21 1409.44 1405.34 Q1409.44 1412.45 1411.25 1416.01 Q1413.08 1419.56 1416.69 1419.56 Q1420.32 1419.56 1422.13 1416.01 Q1423.96 1412.45 1423.96 1405.34 Q1423.96 1398.21 1422.13 1394.67 Q1420.32 1391.11 1416.69 1391.11 M1416.69 1387.4 Q1422.5 1387.4 1425.55 1392.01 Q1428.63 1396.59 1428.63 1405.34 Q1428.63 1414.07 1425.55 1418.68 Q1422.5 1423.26 1416.69 1423.26 Q1410.88 1423.26 1407.8 1418.68 Q1404.74 1414.07 1404.74 1405.34 Q1404.74 1396.59 1407.8 1392.01 Q1410.88 1387.4 1416.69 1387.4 Z" fill="#000000" fill-rule="nonzero" fill-opacity="1" /><path clip-path="url(#clip540)" d="M1902.39 1418.65 L1910.03 1418.65 L1910.03 1392.29 L1901.72 1393.95 L1901.72 1389.69 L1909.98 1388.03 L1914.66 1388.03 L1914.66 1418.65 L1922.29 1418.65 L1922.29 1422.59 L1902.39 1422.59 L1902.39 1418.65 Z" fill="#000000" fill-rule="nonzero" fill-opacity="1" /><path clip-path="url(#clip540)" d="M1931.78 1388.03 L1950.14 1388.03 L1950.14 1391.96 L1936.07 1391.96 L1936.07 1400.44 Q1937.09 1400.09 1938.1 1399.93 Q1939.12 1399.74 1940.14 1399.74 Q1945.93 1399.74 1949.31 1402.91 Q1952.69 1406.08 1952.69 1411.5 Q1952.69 1417.08 1949.22 1420.18 Q1945.74 1423.26 1939.42 1423.26 Q1937.25 1423.26 1934.98 1422.89 Q1932.73 1422.52 1930.33 1421.78 L1930.33 1417.08 Q1932.41 1418.21 1934.63 1418.77 Q1936.85 1419.32 1939.33 1419.32 Q1943.34 1419.32 1945.67 1417.22 Q1948.01 1415.11 1948.01 1411.5 Q1948.01 1407.89 1945.67 1405.78 Q1943.34 1403.68 1939.33 1403.68 Q1937.46 1403.68 1935.58 1404.09 Q1933.73 1404.51 1931.78 1405.39 L1931.78 1388.03 Z" fill="#000000" fill-rule="nonzero" fill-opacity="1" /><path clip-path="url(#clip540)" d="M1235.44 1470.77 L1235.44 1476.25 Q1232.96 1474.88 1230.44 1474.21 Q1227.96 1473.51 1225.41 1473.51 Q1219.72 1473.51 1216.56 1477.14 Q1213.41 1480.73 1213.41 1487.26 Q1213.41 1493.78 1216.56 1497.41 Q1219.72 1501.01 1225.41 1501.01 Q1227.96 1501.01 1230.44 1500.34 Q1232.96 1499.64 1235.44 1498.27 L1235.44 1503.68 Q1232.99 1504.83 1230.35 1505.4 Q1227.74 1505.97 1224.78 1505.97 Q1216.72 1505.97 1211.98 1500.91 Q1207.24 1495.85 1207.24 1487.26 Q1207.24 1478.54 1212.01 1473.54 Q1216.82 1468.54 1225.16 1468.54 Q1227.86 1468.54 1230.44 1469.12 Q1233.02 1469.66 1235.44 1470.77 Z" fill="#000000" fill-rule="nonzero" fill-opacity="1" /><path clip-path="url(#clip540)" d="M1261.83 1487.13 Q1254.73 1487.13 1251.99 1488.76 Q1249.25 1490.38 1249.25 1494.29 Q1249.25 1497.41 1251.29 1499.26 Q1253.36 1501.07 1256.89 1501.07 Q1261.76 1501.07 1264.69 1497.64 Q1267.65 1494.17 1267.65 1488.44 L1267.65 1487.13 L1261.83 1487.13 M1273.51 1484.71 L1273.51 1505.05 L1267.65 1505.05 L1267.65 1499.64 Q1265.64 1502.89 1262.65 1504.45 Q1259.66 1505.97 1255.33 1505.97 Q1249.86 1505.97 1246.61 1502.92 Q1243.4 1499.83 1243.4 1494.68 Q1243.4 1488.66 1247.41 1485.6 Q1251.45 1482.55 1259.44 1482.55 L1267.65 1482.55 L1267.65 1481.98 Q1267.65 1477.93 1264.98 1475.74 Q1262.33 1473.51 1257.53 1473.51 Q1254.47 1473.51 1251.58 1474.24 Q1248.68 1474.97 1246.01 1476.44 L1246.01 1471.03 Q1249.22 1469.79 1252.24 1469.18 Q1255.27 1468.54 1258.13 1468.54 Q1265.87 1468.54 1269.69 1472.55 Q1273.51 1476.57 1273.51 1484.71 Z" fill="#000000" fill-rule="nonzero" fill-opacity="1" /><path clip-path="url(#clip540)" d="M1291.23 1499.7 L1291.23 1518.61 L1285.35 1518.61 L1285.35 1469.4 L1291.23 1469.4 L1291.23 1474.81 Q1293.08 1471.63 1295.88 1470.1 Q1298.71 1468.54 1302.63 1468.54 Q1309.12 1468.54 1313.16 1473.7 Q1317.24 1478.86 1317.24 1487.26 Q1317.24 1495.66 1313.16 1500.82 Q1309.12 1505.97 1302.63 1505.97 Q1298.71 1505.97 1295.88 1504.45 Q1293.08 1502.89 1291.23 1499.7 M1311.16 1487.26 Q1311.16 1480.8 1308.49 1477.14 Q1305.84 1473.45 1301.2 1473.45 Q1296.55 1473.45 1293.88 1477.14 Q1291.23 1480.8 1291.23 1487.26 Q1291.23 1493.72 1293.88 1497.41 Q1296.55 1501.07 1301.2 1501.07 Q1305.84 1501.07 1308.49 1497.41 Q1311.16 1493.72 1311.16 1487.26 Z" fill="#000000" fill-rule="nonzero" fill-opacity="1" /><path clip-path="url(#clip540)" d="M1326.95 1469.4 L1332.8 1469.4 L1332.8 1505.05 L1326.95 1505.05 L1326.95 1469.4 M1326.95 1455.53 L1332.8 1455.53 L1332.8 1462.94 L1326.95 1462.94 L1326.95 1455.53 Z" fill="#000000" fill-rule="nonzero" fill-opacity="1" /><path clip-path="url(#clip540)" d="M1350.85 1459.28 L1350.85 1469.4 L1362.91 1469.4 L1362.91 1473.96 L1350.85 1473.96 L1350.85 1493.31 Q1350.85 1497.67 1352.03 1498.91 Q1353.24 1500.15 1356.9 1500.15 L1362.91 1500.15 L1362.91 1505.05 L1356.9 1505.05 Q1350.12 1505.05 1347.54 1502.54 Q1344.96 1499.99 1344.96 1493.31 L1344.96 1473.96 L1340.66 1473.96 L1340.66 1469.4 L1344.96 1469.4 L1344.96 1459.28 L1350.85 1459.28 Z" fill="#000000" fill-rule="nonzero" fill-opacity="1" /><path clip-path="url(#clip540)" d="M1386.82 1487.13 Q1379.72 1487.13 1376.98 1488.76 Q1374.24 1490.38 1374.24 1494.29 Q1374.24 1497.41 1376.28 1499.26 Q1378.35 1501.07 1381.88 1501.07 Q1386.75 1501.07 1389.68 1497.64 Q1392.64 1494.17 1392.64 1488.44 L1392.64 1487.13 L1386.82 1487.13 M1398.5 1484.71 L1398.5 1505.05 L1392.64 1505.05 L1392.64 1499.64 Q1390.64 1502.89 1387.64 1504.45 Q1384.65 1505.97 1380.32 1505.97 Q1374.85 1505.97 1371.6 1502.92 Q1368.39 1499.83 1368.39 1494.68 Q1368.39 1488.66 1372.4 1485.6 Q1376.44 1482.55 1384.43 1482.55 L1392.64 1482.55 L1392.64 1481.98 Q1392.64 1477.93 1389.97 1475.74 Q1387.33 1473.51 1382.52 1473.51 Q1379.46 1473.51 1376.57 1474.24 Q1373.67 1474.97 1371 1476.44 L1371 1471.03 Q1374.21 1469.79 1377.24 1469.18 Q1380.26 1468.54 1383.12 1468.54 Q1390.86 1468.54 1394.68 1472.55 Q1398.5 1476.57 1398.5 1484.71 Z" fill="#000000" fill-rule="nonzero" fill-opacity="1" /><path clip-path="url(#clip540)" d="M1410.56 1455.53 L1416.42 1455.53 L1416.42 1505.05 L1410.56 1505.05 L1410.56 1455.53 Z" fill="#000000" fill-rule="nonzero" fill-opacity="1" /><path clip-path="url(#clip540)" d="M1449.17 1455.53 L1455.06 1455.53 L1455.06 1484.78 L1472.53 1469.4 L1480.01 1469.4 L1461.1 1486.08 L1480.81 1505.05 L1473.17 1505.05 L1455.06 1487.64 L1455.06 1505.05 L1449.17 1505.05 L1449.17 1455.53 Z" fill="#000000" fill-rule="nonzero" fill-opacity="1" /><polyline clip-path="url(#clip540)" style="stroke:#000000; stroke-linecap:round; stroke-linejoin:round; stroke-width:4; stroke-opacity:1; fill:none" points="335.289,1360.19 335.289,47.2441 "/>
<polyline clip-path="url(#clip540)" style="stroke:#000000; stroke-linecap:round; stroke-linejoin:round; stroke-width:4; stroke-opacity:1; fill:none" points="335.289,1251.39 354.186,1251.39 "/>
<polyline clip-path="url(#clip540)" style="stroke:#000000; stroke-linecap:round; stroke-linejoin:round; stroke-width:4; stroke-opacity:1; fill:none" points="335.289,884.315 354.186,884.315 "/>
<polyline clip-path="url(#clip540)" style="stroke:#000000; stroke-linecap:round; stroke-linejoin:round; stroke-width:4; stroke-opacity:1; fill:none" points="335.289,517.235 354.186,517.235 "/>
<polyline clip-path="url(#clip540)" style="stroke:#000000; stroke-linecap:round; stroke-linejoin:round; stroke-width:4; stroke-opacity:1; fill:none" points="335.289,150.156 354.186,150.156 "/>
<path clip-path="url(#clip540)" d="M177.252 1251.85 L206.928 1251.85 L206.928 1255.78 L177.252 1255.78 L177.252 1251.85 Z" fill="#000000" fill-rule="nonzero" fill-opacity="1" /><path clip-path="url(#clip540)" d="M231.187 1250.04 Q234.544 1250.76 236.419 1253.03 Q238.317 1255.29 238.317 1258.63 Q238.317 1263.74 234.798 1266.54 Q231.28 1269.35 224.798 1269.35 Q222.622 1269.35 220.308 1268.91 Q218.016 1268.49 215.562 1267.63 L215.562 1263.12 Q217.507 1264.25 219.821 1264.83 Q222.136 1265.41 224.659 1265.41 Q229.058 1265.41 231.349 1263.67 Q233.664 1261.94 233.664 1258.63 Q233.664 1255.57 231.511 1253.86 Q229.382 1252.12 225.562 1252.12 L221.534 1252.12 L221.534 1248.28 L225.747 1248.28 Q229.196 1248.28 231.025 1246.92 Q232.854 1245.53 232.854 1242.93 Q232.854 1240.27 230.956 1238.86 Q229.081 1237.42 225.562 1237.42 Q223.641 1237.42 221.442 1237.84 Q219.243 1238.26 216.604 1239.14 L216.604 1234.97 Q219.266 1234.23 221.581 1233.86 Q223.919 1233.49 225.979 1233.49 Q231.303 1233.49 234.405 1235.92 Q237.507 1238.33 237.507 1242.45 Q237.507 1245.32 235.863 1247.31 Q234.22 1249.28 231.187 1250.04 Z" fill="#000000" fill-rule="nonzero" fill-opacity="1" /><path clip-path="url(#clip540)" d="M257.182 1237.19 Q253.571 1237.19 251.743 1240.76 Q249.937 1244.3 249.937 1251.43 Q249.937 1258.54 251.743 1262.1 Q253.571 1265.64 257.182 1265.64 Q260.817 1265.64 262.622 1262.1 Q264.451 1258.54 264.451 1251.43 Q264.451 1244.3 262.622 1240.76 Q260.817 1237.19 257.182 1237.19 M257.182 1233.49 Q262.993 1233.49 266.048 1238.1 Q269.127 1242.68 269.127 1251.43 Q269.127 1260.16 266.048 1264.76 Q262.993 1269.35 257.182 1269.35 Q251.372 1269.35 248.294 1264.76 Q245.238 1260.16 245.238 1251.43 Q245.238 1242.68 248.294 1238.1 Q251.372 1233.49 257.182 1233.49 Z" fill="#000000" fill-rule="nonzero" fill-opacity="1" /><path clip-path="url(#clip540)" d="M287.344 1237.19 Q283.733 1237.19 281.905 1240.76 Q280.099 1244.3 280.099 1251.43 Q280.099 1258.54 281.905 1262.1 Q283.733 1265.64 287.344 1265.64 Q290.979 1265.64 292.784 1262.1 Q294.613 1258.54 294.613 1251.43 Q294.613 1244.3 292.784 1240.76 Q290.979 1237.19 287.344 1237.19 M287.344 1233.49 Q293.154 1233.49 296.21 1238.1 Q299.289 1242.68 299.289 1251.43 Q299.289 1260.16 296.21 1264.76 Q293.154 1269.35 287.344 1269.35 Q281.534 1269.35 278.455 1264.76 Q275.4 1260.16 275.4 1251.43 Q275.4 1242.68 278.455 1238.1 Q281.534 1233.49 287.344 1233.49 Z" fill="#000000" fill-rule="nonzero" fill-opacity="1" /><path clip-path="url(#clip540)" d="M177.252 884.766 L206.928 884.766 L206.928 888.701 L177.252 888.701 L177.252 884.766 Z" fill="#000000" fill-rule="nonzero" fill-opacity="1" /><path clip-path="url(#clip540)" d="M221.048 897.66 L237.368 897.66 L237.368 901.595 L215.423 901.595 L215.423 897.66 Q218.085 894.905 222.669 890.275 Q227.275 885.623 228.456 884.28 Q230.701 881.757 231.581 880.021 Q232.483 878.262 232.483 876.572 Q232.483 873.817 230.539 872.081 Q228.618 870.345 225.516 870.345 Q223.317 870.345 220.863 871.109 Q218.433 871.873 215.655 873.424 L215.655 868.701 Q218.479 867.567 220.933 866.989 Q223.386 866.41 225.423 866.41 Q230.794 866.41 233.988 869.095 Q237.183 871.78 237.183 876.271 Q237.183 878.401 236.372 880.322 Q235.585 882.22 233.479 884.813 Q232.9 885.484 229.798 888.701 Q226.696 891.896 221.048 897.66 Z" fill="#000000" fill-rule="nonzero" fill-opacity="1" /><path clip-path="url(#clip540)" d="M247.229 867.035 L265.585 867.035 L265.585 870.97 L251.511 870.97 L251.511 879.442 Q252.53 879.095 253.548 878.933 Q254.567 878.748 255.585 878.748 Q261.372 878.748 264.752 881.919 Q268.131 885.09 268.131 890.507 Q268.131 896.086 264.659 899.187 Q261.187 902.266 254.868 902.266 Q252.692 902.266 250.423 901.896 Q248.178 901.525 245.77 900.785 L245.77 896.086 Q247.854 897.22 250.076 897.775 Q252.298 898.331 254.775 898.331 Q258.78 898.331 261.118 896.224 Q263.456 894.118 263.456 890.507 Q263.456 886.896 261.118 884.789 Q258.78 882.683 254.775 882.683 Q252.9 882.683 251.025 883.1 Q249.173 883.516 247.229 884.396 L247.229 867.035 Z" fill="#000000" fill-rule="nonzero" fill-opacity="1" /><path clip-path="url(#clip540)" d="M287.344 870.114 Q283.733 870.114 281.905 873.678 Q280.099 877.22 280.099 884.35 Q280.099 891.456 281.905 895.021 Q283.733 898.562 287.344 898.562 Q290.979 898.562 292.784 895.021 Q294.613 891.456 294.613 884.35 Q294.613 877.22 292.784 873.678 Q290.979 870.114 287.344 870.114 M287.344 866.41 Q293.154 866.41 296.21 871.016 Q299.289 875.6 299.289 884.35 Q299.289 893.076 296.21 897.683 Q293.154 902.266 287.344 902.266 Q281.534 902.266 278.455 897.683 Q275.4 893.076 275.4 884.35 Q275.4 875.6 278.455 871.016 Q281.534 866.41 287.344 866.41 Z" fill="#000000" fill-rule="nonzero" fill-opacity="1" /><path clip-path="url(#clip540)" d="M177.252 517.687 L206.928 517.687 L206.928 521.622 L177.252 521.622 L177.252 517.687 Z" fill="#000000" fill-rule="nonzero" fill-opacity="1" /><path clip-path="url(#clip540)" d="M221.048 530.58 L237.368 530.58 L237.368 534.515 L215.423 534.515 L215.423 530.58 Q218.085 527.826 222.669 523.196 Q227.275 518.543 228.456 517.201 Q230.701 514.678 231.581 512.942 Q232.483 511.182 232.483 509.492 Q232.483 506.738 230.539 505.002 Q228.618 503.266 225.516 503.266 Q223.317 503.266 220.863 504.03 Q218.433 504.793 215.655 506.344 L215.655 501.622 Q218.479 500.488 220.933 499.909 Q223.386 499.33 225.423 499.33 Q230.794 499.33 233.988 502.016 Q237.183 504.701 237.183 509.192 Q237.183 511.321 236.372 513.242 Q235.585 515.141 233.479 517.733 Q232.9 518.404 229.798 521.622 Q226.696 524.816 221.048 530.58 Z" fill="#000000" fill-rule="nonzero" fill-opacity="1" /><path clip-path="url(#clip540)" d="M257.182 503.034 Q253.571 503.034 251.743 506.599 Q249.937 510.141 249.937 517.27 Q249.937 524.377 251.743 527.941 Q253.571 531.483 257.182 531.483 Q260.817 531.483 262.622 527.941 Q264.451 524.377 264.451 517.27 Q264.451 510.141 262.622 506.599 Q260.817 503.034 257.182 503.034 M257.182 499.33 Q262.993 499.33 266.048 503.937 Q269.127 508.52 269.127 517.27 Q269.127 525.997 266.048 530.603 Q262.993 535.187 257.182 535.187 Q251.372 535.187 248.294 530.603 Q245.238 525.997 245.238 517.27 Q245.238 508.52 248.294 503.937 Q251.372 499.33 257.182 499.33 Z" fill="#000000" fill-rule="nonzero" fill-opacity="1" /><path clip-path="url(#clip540)" d="M287.344 503.034 Q283.733 503.034 281.905 506.599 Q280.099 510.141 280.099 517.27 Q280.099 524.377 281.905 527.941 Q283.733 531.483 287.344 531.483 Q290.979 531.483 292.784 527.941 Q294.613 524.377 294.613 517.27 Q294.613 510.141 292.784 506.599 Q290.979 503.034 287.344 503.034 M287.344 499.33 Q293.154 499.33 296.21 503.937 Q299.289 508.52 299.289 517.27 Q299.289 525.997 296.21 530.603 Q293.154 535.187 287.344 535.187 Q281.534 535.187 278.455 530.603 Q275.4 525.997 275.4 517.27 Q275.4 508.52 278.455 503.937 Q281.534 499.33 287.344 499.33 Z" fill="#000000" fill-rule="nonzero" fill-opacity="1" /><path clip-path="url(#clip540)" d="M177.252 150.607 L206.928 150.607 L206.928 154.543 L177.252 154.543 L177.252 150.607 Z" fill="#000000" fill-rule="nonzero" fill-opacity="1" /><path clip-path="url(#clip540)" d="M217.831 163.501 L225.47 163.501 L225.47 137.135 L217.159 138.802 L217.159 134.543 L225.423 132.876 L230.099 132.876 L230.099 163.501 L237.738 163.501 L237.738 167.436 L217.831 167.436 L217.831 163.501 Z" fill="#000000" fill-rule="nonzero" fill-opacity="1" /><path clip-path="url(#clip540)" d="M247.229 132.876 L265.585 132.876 L265.585 136.811 L251.511 136.811 L251.511 145.283 Q252.53 144.936 253.548 144.774 Q254.567 144.589 255.585 144.589 Q261.372 144.589 264.752 147.76 Q268.131 150.932 268.131 156.348 Q268.131 161.927 264.659 165.029 Q261.187 168.107 254.868 168.107 Q252.692 168.107 250.423 167.737 Q248.178 167.367 245.77 166.626 L245.77 161.927 Q247.854 163.061 250.076 163.617 Q252.298 164.172 254.775 164.172 Q258.78 164.172 261.118 162.066 Q263.456 159.959 263.456 156.348 Q263.456 152.737 261.118 150.631 Q258.78 148.524 254.775 148.524 Q252.9 148.524 251.025 148.941 Q249.173 149.358 247.229 150.237 L247.229 132.876 Z" fill="#000000" fill-rule="nonzero" fill-opacity="1" /><path clip-path="url(#clip540)" d="M287.344 135.955 Q283.733 135.955 281.905 139.52 Q280.099 143.061 280.099 150.191 Q280.099 157.297 281.905 160.862 Q283.733 164.404 287.344 164.404 Q290.979 164.404 292.784 160.862 Q294.613 157.297 294.613 150.191 Q294.613 143.061 292.784 139.52 Q290.979 135.955 287.344 135.955 M287.344 132.251 Q293.154 132.251 296.21 136.858 Q299.289 141.441 299.289 150.191 Q299.289 158.918 296.21 163.524 Q293.154 168.107 287.344 168.107 Q281.534 168.107 278.455 163.524 Q275.4 158.918 275.4 150.191 Q275.4 141.441 278.455 136.858 Q281.534 132.251 287.344 132.251 Z" fill="#000000" fill-rule="nonzero" fill-opacity="1" /><path clip-path="url(#clip540)" d="M91.3483 862.922 L91.3483 856.716 L121.267 845.576 L91.3483 834.436 L91.3483 828.229 L126.996 841.597 L126.996 849.554 L91.3483 862.922 Z" fill="#000000" fill-rule="nonzero" fill-opacity="1" /><path clip-path="url(#clip540)" d="M109.077 803.944 Q109.077 811.042 110.7 813.779 Q112.323 816.516 116.238 816.516 Q119.357 816.516 121.203 814.479 Q123.018 812.41 123.018 808.877 Q123.018 804.008 119.58 801.079 Q116.111 798.119 110.382 798.119 L109.077 798.119 L109.077 803.944 M106.658 792.263 L126.996 792.263 L126.996 798.119 L121.585 798.119 Q124.832 800.125 126.392 803.116 Q127.919 806.108 127.919 810.437 Q127.919 815.911 124.864 819.158 Q121.776 822.373 116.62 822.373 Q110.605 822.373 107.549 818.362 Q104.494 814.32 104.494 806.331 L104.494 798.119 L103.921 798.119 Q99.8784 798.119 97.6822 800.793 Q95.4542 803.435 95.4542 808.241 Q95.4542 811.296 96.1863 814.193 Q96.9183 817.089 98.3824 819.763 L92.9716 819.763 Q91.7303 816.548 91.1255 813.524 Q90.489 810.501 90.489 807.636 Q90.489 799.902 94.4994 796.082 Q98.5097 792.263 106.658 792.263 Z" fill="#000000" fill-rule="nonzero" fill-opacity="1" /><path clip-path="url(#clip540)" d="M77.4711 780.2 L77.4711 774.343 L126.996 774.343 L126.996 780.2 L77.4711 780.2 Z" fill="#000000" fill-rule="nonzero" fill-opacity="1" /><path clip-path="url(#clip540)" d="M112.928 762.694 L91.3483 762.694 L91.3483 756.838 L112.705 756.838 Q117.766 756.838 120.312 754.864 Q122.827 752.891 122.827 748.944 Q122.827 744.202 119.803 741.465 Q116.779 738.695 111.559 738.695 L91.3483 738.695 L91.3483 732.839 L126.996 732.839 L126.996 738.695 L121.522 738.695 Q124.768 740.828 126.36 743.661 Q127.919 746.462 127.919 750.186 Q127.919 756.328 124.1 759.511 Q120.28 762.694 112.928 762.694 M90.489 747.958 L90.489 747.958 Z" fill="#000000" fill-rule="nonzero" fill-opacity="1" /><path clip-path="url(#clip540)" d="M107.708 690.284 L110.573 690.284 L110.573 717.211 Q116.62 716.829 119.803 713.583 Q122.954 710.304 122.954 704.48 Q122.954 701.106 122.127 697.955 Q121.299 694.772 119.644 691.653 L125.182 691.653 Q126.519 694.804 127.219 698.114 Q127.919 701.424 127.919 704.83 Q127.919 713.36 122.954 718.357 Q117.989 723.322 109.522 723.322 Q100.77 723.322 95.6452 718.612 Q90.489 713.869 90.489 705.848 Q90.489 698.655 95.1359 694.486 Q99.7511 690.284 107.708 690.284 M105.989 696.141 Q101.183 696.204 98.3188 698.846 Q95.4542 701.456 95.4542 705.785 Q95.4542 710.686 98.2233 713.646 Q100.992 716.575 106.021 717.02 L105.989 696.141 Z" fill="#000000" fill-rule="nonzero" fill-opacity="1" /><path clip-path="url(#clip540)" d="M91.3483 664.153 L91.3483 657.946 L121.267 646.806 L91.3483 635.667 L91.3483 629.46 L126.996 642.828 L126.996 650.785 L91.3483 664.153 Z" fill="#000000" fill-rule="nonzero" fill-opacity="1" /><path clip-path="url(#clip540)" d="M77.5347 607.307 Q84.8553 611.572 92.0167 613.641 Q99.1781 615.71 106.531 615.71 Q113.883 615.71 121.108 613.641 Q128.301 611.54 135.59 607.307 L135.59 612.4 Q128.11 617.174 120.885 619.561 Q113.66 621.917 106.531 621.917 Q99.4328 621.917 92.2395 619.561 Q85.0463 617.206 77.5347 612.4 L77.5347 607.307 Z" fill="#000000" fill-rule="nonzero" fill-opacity="1" /><path clip-path="url(#clip540)" d="M77.4711 596.167 L77.4711 590.279 L106.722 590.279 L91.3483 572.805 L91.3483 565.325 L108.026 584.232 L126.996 564.53 L126.996 572.169 L109.586 590.279 L126.996 590.279 L126.996 596.167 L77.4711 596.167 Z" fill="#000000" fill-rule="nonzero" fill-opacity="1" /><path clip-path="url(#clip540)" d="M77.5347 559.119 L77.5347 554.026 Q85.0463 549.252 92.2395 546.897 Q99.4328 544.51 106.531 544.51 Q113.66 544.51 120.885 546.897 Q128.11 549.252 135.59 554.026 L135.59 559.119 Q128.301 554.886 121.108 552.817 Q113.883 550.716 106.531 550.716 Q99.1781 550.716 92.0167 552.817 Q84.8553 554.886 77.5347 559.119 Z" fill="#000000" fill-rule="nonzero" fill-opacity="1" /><polyline clip-path="url(#clip541)" style="stroke:#009af9; stroke-linecap:round; stroke-linejoin:round; stroke-width:4; stroke-opacity:1; fill:none" points="392.387,1323.03 394.292,1300.84 396.197,1279.89 398.102,1260.06 400.008,1241.24 401.913,1223.34 403.818,1206.29 405.723,1190 407.628,1174.43 409.533,1159.52 411.439,1145.21 413.344,1131.46 415.249,1118.24 417.154,1105.5 419.059,1093.23 420.964,1081.38 422.87,1069.93 424.775,1058.85 426.68,1048.13 428.585,1037.75 430.49,1027.68 432.395,1017.91 434.301,1008.42 436.206,999.198 438.111,990.232 440.016,981.507 441.921,973.013 443.827,964.738 445.732,956.672 447.637,948.805 449.542,941.13 451.447,933.636 453.352,926.318 455.258,919.166 457.163,912.175 459.068,905.338 460.973,898.649 462.878,892.102 464.783,885.691 466.689,879.412 468.594,873.26 470.499,867.229 472.404,861.317 474.309,855.517 476.215,849.828 478.12,844.244 480.025,838.763 481.93,833.38 483.835,828.094 485.74,822.899 487.646,817.795 489.551,812.777 491.456,807.844 493.361,802.992 495.266,798.22 497.171,793.524 499.077,788.903 500.982,784.355 502.887,779.876 504.792,775.467 506.697,771.124 508.603,766.845 510.508,762.63 512.413,758.476 514.318,754.382 516.223,750.346 518.128,746.366 520.034,742.442 521.939,738.571 523.844,734.753 525.749,730.986 527.654,727.269 529.559,723.601 531.465,719.981 533.37,716.407 535.275,712.878 537.18,709.394 539.085,705.953 540.991,702.554 542.896,699.197 544.801,695.88 546.706,692.603 548.611,689.364 550.516,686.164 552.422,683 554.327,679.873 556.232,676.782 558.137,673.725 560.042,670.702 561.947,667.713 563.853,664.757 565.758,661.833 567.663,658.94 569.568,656.078 571.473,653.246 573.379,650.444 575.284,647.671 577.189,644.927 579.094,642.211 580.999,639.522 582.904,636.86 584.81,634.225 586.715,631.616 588.62,629.032 590.525,626.473 592.43,623.939 594.335,621.43 596.241,618.944 598.146,616.481 600.051,614.042 601.956,611.625 603.861,609.23 605.767,606.857 607.672,604.506 609.577,602.176 611.482,599.866 613.387,597.577 615.292,595.308 617.198,593.059 619.103,590.83 621.008,588.619 622.913,586.428 624.818,584.255 626.723,582.1 628.629,579.964 630.534,577.845 632.439,575.744 634.344,573.659 636.249,571.592 638.155,569.542 640.06,567.508 641.965,565.49 643.87,563.488 645.775,561.502 647.68,559.531 649.586,557.576 651.491,555.636 653.396,553.71 655.301,551.8 657.206,549.904 659.111,548.022 661.017,546.154 662.922,544.3 664.827,542.46 666.732,540.633 668.637,538.819 670.543,537.019 672.448,535.232 674.353,533.457 676.258,531.695 678.163,529.946 680.068,528.209 681.974,526.484 683.879,524.771 685.784,523.07 687.689,521.381 689.594,519.703 691.499,518.036 693.405,516.381 695.31,514.737 697.215,513.104 699.12,511.482 701.025,509.871 702.931,508.27 704.836,506.679 706.741,505.099 708.646,503.529 710.551,501.97 712.456,500.42 714.362,498.88 716.267,497.35 718.172,495.829 720.077,494.318 721.982,492.817 723.887,491.325 725.793,489.842 727.698,488.368 729.603,486.903 731.508,485.447 733.413,484 735.319,482.561 737.224,481.131 739.129,479.71 741.034,478.297 742.939,476.896 744.844,475.506 746.75,474.124 748.655,472.75 750.56,471.383 752.465,470.025 754.37,468.675 756.275,467.332 758.181,465.996 760.086,464.669 761.991,463.348 763.896,462.035 765.801,460.73 767.706,459.431 769.612,458.14 771.517,456.855 773.422,455.578 775.327,454.308 777.232,453.044 779.138,451.787 781.043,450.537 782.948,449.294 784.853,448.057 786.758,446.827 788.663,445.603 790.569,444.386 792.474,443.175 794.379,441.97 796.284,440.771 798.189,439.579 800.094,438.392 802,437.212 803.905,436.038 805.81,434.87 807.715,433.707 809.62,432.55 811.526,431.4 813.431,430.254 815.336,429.115 817.241,427.981 819.146,426.853 821.051,425.73 822.957,424.613 824.862,423.501 826.767,422.394 828.672,421.293 830.577,420.197 832.482,419.106 834.388,418.021 836.293,416.941 838.198,415.865 840.103,414.795 842.008,413.73 843.914,412.67 845.819,411.614 847.724,410.564 849.629,409.518 851.534,408.477 853.439,407.441 855.345,406.41 857.25,405.383 859.155,404.361 861.06,403.344 862.965,402.331 864.87,401.323 866.776,400.319 868.681,399.32 870.586,398.325 872.491,397.334 874.396,396.348 876.302,395.366 878.207,394.388 880.112,393.415 882.017,392.446 883.922,391.481 885.827,390.52 887.733,389.563 889.638,388.61 891.543,387.662 893.448,386.717 895.353,385.776 897.258,384.84 899.164,383.907 901.069,382.978 902.974,382.053 904.879,381.132 906.784,380.215 908.69,379.301 910.595,378.391 912.5,377.485 914.405,376.583 916.31,375.684 918.215,374.789 920.121,373.897 922.026,373.009 923.931,372.125 925.836,371.244 927.741,370.367 929.646,369.493 931.552,368.623 933.457,367.756 935.362,366.892 937.267,366.032 939.172,365.175 941.078,364.322 942.983,363.472 944.888,362.625 946.793,361.781 948.698,360.941 950.603,360.104 952.509,359.27 954.414,358.439 956.319,357.611 958.224,356.787 960.129,355.965 962.034,355.147 963.94,354.332 965.845,353.519 967.75,352.71 969.655,351.904 971.56,351.101 973.466,350.301 975.371,349.503 977.276,348.709 979.181,347.917 981.086,347.129 982.991,346.343 984.897,345.56 986.802,344.78 988.707,344.003 990.612,343.228 992.517,342.457 994.422,341.688 996.328,340.922 998.233,340.158 1000.14,339.397 1002.04,338.639 1003.95,337.884 1005.85,337.131 1007.76,336.381 1009.66,335.633 1011.57,334.888 1013.47,334.146 1015.38,333.406 1017.28,332.669 1019.19,331.934 1021.09,331.202 1023,330.472 1024.91,329.745 1026.81,329.02 1028.72,328.298 1030.62,327.578 1032.53,326.86 1034.43,326.145 1036.34,325.433 1038.24,324.722 1040.15,324.015 1042.05,323.309 1043.96,322.606 1045.86,321.905 1047.77,321.206 1049.67,320.51 1051.58,319.816 1053.48,319.124 1055.39,318.435 1057.29,317.747 1059.2,317.062 1061.1,316.38 1063.01,315.699 1064.91,315.021 1066.82,314.344 1068.72,313.67 1070.63,312.998 1072.53,312.328 1074.44,311.661 1076.35,310.995 1078.25,310.332 1080.16,309.67 1082.06,309.011 1083.97,308.354 1085.87,307.698 1087.78,307.045 1089.68,306.394 1091.59,305.745 1093.49,305.098 1095.4,304.453 1097.3,303.81 1099.21,303.169 1101.11,302.529 1103.02,301.892 1104.92,301.257 1106.83,300.623 1108.73,299.992 1110.64,299.362 1112.54,298.735 1114.45,298.109 1116.35,297.485 1118.26,296.863 1120.16,296.243 1122.07,295.624 1123.97,295.008 1125.88,294.393 1127.78,293.78 1129.69,293.169 1131.6,292.56 1133.5,291.953 1135.41,291.347 1137.31,290.743 1139.22,290.141 1141.12,289.54 1143.03,288.942 1144.93,288.345 1146.84,287.749 1148.74,287.156 1150.65,286.564 1152.55,285.974 1154.46,285.385 1156.36,284.799 1158.27,284.213 1160.17,283.63 1162.08,283.048 1163.98,282.468 1165.89,281.889 1167.79,281.313 1169.7,280.737 1171.6,280.164 1173.51,279.591 1175.41,279.021 1177.32,278.452 1179.22,277.885 1181.13,277.319 1183.03,276.755 1184.94,276.192 1186.85,275.631 1188.75,275.071 1190.66,274.513 1192.56,273.957 1194.47,273.402 1196.37,272.848 1198.28,272.296 1200.18,271.746 1202.09,271.197 1203.99,270.649 1205.9,270.103 1207.8,269.558 1209.71,269.015 1211.61,268.473 1213.52,267.933 1215.42,267.394 1217.33,266.857 1219.23,266.321 1221.14,265.786 1223.04,265.253 1224.95,264.721 1226.85,264.191 1228.76,263.662 1230.66,263.134 1232.57,262.608 1234.47,262.083 1236.38,261.559 1238.29,261.037 1240.19,260.516 1242.1,259.997 1244,259.479 1245.91,258.962 1247.81,258.446 1249.72,257.932 1251.62,257.419 1253.53,256.908 1255.43,256.397 1257.34,255.888 1259.24,255.38 1261.15,254.874 1263.05,254.369 1264.96,253.865 1266.86,253.362 1268.77,252.861 1270.67,252.361 1272.58,251.862 1274.48,251.364 1276.39,250.868 1278.29,250.373 1280.2,249.879 1282.1,249.386 1284.01,248.894 1285.91,248.404 1287.82,247.915 1289.72,247.427 1291.63,246.94 1293.54,246.454 1295.44,245.97 1297.35,245.487 1299.25,245.005 1301.16,244.524 1303.06,244.044 1304.97,243.565 1306.87,243.088 1308.78,242.612 1310.68,242.137 1312.59,241.663 1314.49,241.19 1316.4,240.718 1318.3,240.247 1320.21,239.778 1322.11,239.309 1324.02,238.842 1325.92,238.376 1327.83,237.91 1329.73,237.446 1331.64,236.983 1333.54,236.522 1335.45,236.061 1337.35,235.601 1339.26,235.142 1341.16,234.685 1343.07,234.228 1344.97,233.773 1346.88,233.318 1348.79,232.865 1350.69,232.412 1352.6,231.961 1354.5,231.511 1356.41,231.061 1358.31,230.613 1360.22,230.166 1362.12,229.72 1364.03,229.274 1365.93,228.83 1367.84,228.387 1369.74,227.945 1371.65,227.504 1373.55,227.063 1375.46,226.624 1377.36,226.186 1379.27,225.749 1381.17,225.312 1383.08,224.877 1384.98,224.442 1386.89,224.009 1388.79,223.577 1390.7,223.145 1392.6,222.715 1394.51,222.285 1396.41,221.856 1398.32,221.428 1400.22,221.002 1402.13,220.576 1404.04,220.151 1405.94,219.727 1407.85,219.304 1409.75,218.882 1411.66,218.46 1413.56,218.04 1415.47,217.62 1417.37,217.202 1419.28,216.784 1421.18,216.367 1423.09,215.952 1424.99,215.537 1426.9,215.122 1428.8,214.709 1430.71,214.297 1432.61,213.885 1434.52,213.475 1436.42,213.065 1438.33,212.656 1440.23,212.248 1442.14,211.841 1444.04,211.435 1445.95,211.029 1447.85,210.625 1449.76,210.221 1451.66,209.818 1453.57,209.416 1455.48,209.014 1457.38,208.614 1459.29,208.214 1461.19,207.816 1463.1,207.418 1465,207.021 1466.91,206.624 1468.81,206.229 1470.72,205.834 1472.62,205.44 1474.53,205.047 1476.43,204.655 1478.34,204.263 1480.24,203.873 1482.15,203.483 1484.05,203.094 1485.96,202.705 1487.86,202.318 1489.77,201.931 1491.67,201.545 1493.58,201.16 1495.48,200.775 1497.39,200.392 1499.29,200.009 1501.2,199.627 1503.1,199.245 1505.01,198.865 1506.91,198.485 1508.82,198.106 1510.73,197.727 1512.63,197.35 1514.54,196.973 1516.44,196.597 1518.35,196.221 1520.25,195.846 1522.16,195.472 1524.06,195.099 1525.97,194.727 1527.87,194.355 1529.78,193.984 1531.68,193.614 1533.59,193.244 1535.49,192.875 1537.4,192.507 1539.3,192.14 1541.21,191.773 1543.11,191.407 1545.02,191.041 1546.92,190.677 1548.83,190.313 1550.73,189.95 1552.64,189.587 1554.54,189.225 1556.45,188.864 1558.35,188.503 1560.26,188.144 1562.16,187.785 1564.07,187.426 1565.98,187.068 1567.88,186.711 1569.79,186.355 1571.69,185.999 1573.6,185.644 1575.5,185.289 1577.41,184.936 1579.31,184.583 1581.22,184.23 1583.12,183.878 1585.03,183.527 1586.93,183.177 1588.84,182.827 1590.74,182.478 1592.65,182.129 1594.55,181.781 1596.46,181.434 1598.36,181.087 1600.27,180.741 1602.17,180.396 1604.08,180.051 1605.98,179.707 1607.89,179.364 1609.79,179.021 1611.7,178.678 1613.6,178.337 1615.51,177.996 1617.42,177.655 1619.32,177.316 1621.23,176.977 1623.13,176.638 1625.04,176.3 1626.94,175.963 1628.85,175.626 1630.75,175.29 1632.66,174.954 1634.56,174.619 1636.47,174.285 1638.37,173.951 1640.28,173.618 1642.18,173.286 1644.09,172.954 1645.99,172.622 1647.9,172.292 1649.8,171.961 1651.71,171.632 1653.61,171.303 1655.52,170.974 1657.42,170.646 1659.33,170.319 1661.23,169.992 1663.14,169.666 1665.04,169.341 1666.95,169.016 1668.85,168.691 1670.76,168.367 1672.67,168.044 1674.57,167.721 1676.48,167.399 1678.38,167.077 1680.29,166.756 1682.19,166.436 1684.1,166.116 1686,165.796 1687.91,165.477 1689.81,165.159 1691.72,164.841 1693.62,164.524 1695.53,164.207 1697.43,163.891 1699.34,163.575 1701.24,163.26 1703.15,162.945 1705.05,162.631 1706.96,162.318 1708.86,162.005 1710.77,161.692 1712.67,161.38 1714.58,161.069 1716.48,160.758 1718.39,160.448 1720.29,160.138 1722.2,159.828 1724.1,159.52 1726.01,159.211 1727.92,158.903 1729.82,158.596 1731.73,158.289 1733.63,157.983 1735.54,157.677 1737.44,157.372 1739.35,157.067 1741.25,156.763 1743.16,156.459 1745.06,156.156 1746.97,155.853 1748.87,155.551 1750.78,155.249 1752.68,154.948 1754.59,154.647 1756.49,154.347 1758.4,154.047 1760.3,153.748 1762.21,153.449 1764.11,153.151 1766.02,152.853 1767.92,152.555 1769.83,152.258 1771.73,151.962 1773.64,151.666 1775.54,151.371 1777.45,151.076 1779.36,150.781 1781.26,150.487 1783.17,150.193 1785.07,149.9 1786.98,149.608 1788.88,149.315 1790.79,149.024 1792.69,148.732 1794.6,148.442 1796.5,148.151 1798.41,147.861 1800.31,147.572 1802.22,147.283 1804.12,146.995 1806.03,146.707 1807.93,146.419 1809.84,146.132 1811.74,145.845 1813.65,145.559 1815.55,145.273 1817.46,144.988 1819.36,144.703 1821.27,144.418 1823.17,144.134 1825.08,143.851 1826.98,143.568 1828.89,143.285 1830.79,143.003 1832.7,142.721 1834.61,142.439 1836.51,142.158 1838.42,141.878 1840.32,141.598 1842.23,141.318 1844.13,141.039 1846.04,140.76 1847.94,140.482 1849.85,140.204 1851.75,139.926 1853.66,139.649 1855.56,139.372 1857.47,139.096 1859.37,138.82 1861.28,138.545 1863.18,138.27 1865.09,137.995 1866.99,137.721 1868.9,137.447 1870.8,137.174 1872.71,136.901 1874.61,136.628 1876.52,136.356 1878.42,136.085 1880.33,135.813 1882.23,135.542 1884.14,135.272 1886.04,135.002 1887.95,134.732 1889.86,134.463 1891.76,134.194 1893.67,133.925 1895.57,133.657 1897.48,133.39 1899.38,133.122 1901.29,132.855 1903.19,132.589 1905.1,132.323 1907,132.057 1908.91,131.792 1910.81,131.527 1912.72,131.262 1914.62,130.998 1916.53,130.734 1918.43,130.471 1920.34,130.208 1922.24,129.945 1924.15,129.683 1926.05,129.421 1927.96,129.16 1929.86,128.899 1931.77,128.638 1933.67,128.377 1935.58,128.117 1937.48,127.858 1939.39,127.599 1941.3,127.34 1943.2,127.081 1945.11,126.823 1947.01,126.565 1948.92,126.308 1950.82,126.051 1952.73,125.794 1954.63,125.538 1956.54,125.282 1958.44,125.027 1960.35,124.772 1962.25,124.517 1964.16,124.262 1966.06,124.008 1967.97,123.754 1969.87,123.501 1971.78,123.248 1973.68,122.995 1975.59,122.743 1977.49,122.491 1979.4,122.24 1981.3,121.988 1983.21,121.737 1985.11,121.487 1987.02,121.237 1988.92,120.987 1990.83,120.737 1992.73,120.488 1994.64,120.239 1996.55,119.991 1998.45,119.743 2000.36,119.495 2002.26,119.248 2004.17,119.001 2006.07,118.754 2007.98,118.508 2009.88,118.261 2011.79,118.016 2013.69,117.77 2015.6,117.525 2017.5,117.281 2019.41,117.036 2021.31,116.792 2023.22,116.549 2025.12,116.305 2027.03,116.062 2028.93,115.82 2030.84,115.577 2032.74,115.335 2034.65,115.093 2036.55,114.852 2038.46,114.611 2040.36,114.37 2042.27,114.13 2044.17,113.89 2046.08,113.65 2047.98,113.411 2049.89,113.172 2051.8,112.933 2053.7,112.694 2055.61,112.456 2057.51,112.218 2059.42,111.981 2061.32,111.744 2063.23,111.507 2065.13,111.27 2067.04,111.034 2068.94,110.798 2070.85,110.563 2072.75,110.327 2074.66,110.092 2076.56,109.858 2078.47,109.623 2080.37,109.389 2082.28,109.155 2084.18,108.922 2086.09,108.689 2087.99,108.456 2089.9,108.224 2091.8,107.991 2093.71,107.76 2095.61,107.528 2097.52,107.297 2099.42,107.066 2101.33,106.835 2103.23,106.605 2105.14,106.375 2107.05,106.145 2108.95,105.915 2110.86,105.686 2112.76,105.457 2114.67,105.229 2116.57,105 2118.48,104.772 2120.38,104.545 2122.29,104.317 2124.19,104.09 2126.1,103.863 2128,103.637 2129.91,103.411 2131.81,103.185 2133.72,102.959 2135.62,102.734 2137.53,102.509 2139.43,102.284 2141.34,102.059 2143.24,101.835 2145.15,101.611 2147.05,101.387 2148.96,101.164 2150.86,100.941 2152.77,100.718 2154.67,100.496 2156.58,100.274 2158.49,100.052 2160.39,99.8299 2162.3,99.6086 2164.2,99.3875 2166.11,99.1666 2168.01,98.9461 2169.92,98.7258 2171.82,98.5058 2173.73,98.2861 2175.63,98.0667 2177.54,97.8475 2179.44,97.6286 2181.35,97.41 2183.25,97.1917 2185.16,96.9736 2187.06,96.7558 2188.97,96.5383 2190.87,96.321 2192.78,96.104 2194.68,95.8873 2196.59,95.6709 2198.49,95.4547 2200.4,95.2388 2202.3,95.0231 2204.21,94.8078 2206.11,94.5927 2208.02,94.3778 2209.92,94.1632 2211.83,93.9489 2213.74,93.7349 2215.64,93.5211 2217.55,93.3075 2219.45,93.0943 2221.36,92.8813 2223.26,92.6685 2225.17,92.456 2227.07,92.2438 2228.98,92.0318 2230.88,91.8201 2232.79,91.6087 2234.69,91.3975 2236.6,91.1865 2238.5,90.9759 2240.41,90.7654 2242.31,90.5552 2244.22,90.3453 2246.12,90.1357 2248.03,89.9262 2249.93,89.7171 2251.84,89.5082 2253.74,89.2995 2255.65,89.0911 2257.55,88.883 2259.46,88.6751 2261.36,88.4674 2263.27,88.26 2265.17,88.0528 2267.08,87.8459 2268.99,87.6392 2270.89,87.4328 2272.8,87.2266 2274.7,87.0207 2276.61,86.815 2278.51,86.6096 2280.42,86.4044 2282.32,86.1994 2284.23,85.9947 2286.13,85.7903 2288.04,85.586 2289.94,85.3821 2291.85,85.1783 2293.75,84.9748 2295.66,84.7715 "/>
<polyline clip-path="url(#clip541)" style="stroke:#e26f46; stroke-linecap:round; stroke-linejoin:round; stroke-width:4; stroke-opacity:1; fill:none" stroke-dasharray="16, 10" points="392.387,1313.24 394.292,1291.66 396.197,1271.25 398.102,1251.92 400.008,1233.54 401.913,1216.06 403.818,1199.38 405.723,1183.44 407.628,1168.18 409.533,1153.56 411.439,1139.52 413.344,1126.03 415.249,1113.04 417.154,1100.53 419.059,1088.45 420.964,1076.79 422.87,1065.52 424.775,1054.62 426.68,1044.06 428.585,1033.82 430.49,1023.89 432.395,1014.26 434.301,1004.89 436.206,995.794 438.111,986.941 440.016,978.325 441.921,969.934 443.827,961.757 445.732,953.784 447.637,946.007 449.542,938.417 451.447,931.005 453.352,923.764 455.258,916.688 457.163,909.768 459.068,903 460.973,896.376 462.878,889.893 464.783,883.543 466.689,877.322 468.594,871.226 470.499,865.25 472.404,859.39 474.309,853.641 476.215,848 478.12,842.463 480.025,837.027 481.93,831.689 483.835,826.444 485.74,821.291 487.646,816.226 489.551,811.247 491.456,806.35 493.361,801.535 495.266,796.797 497.171,792.135 499.077,787.547 500.982,783.03 502.887,778.583 504.792,774.203 506.697,769.889 508.603,765.639 510.508,761.452 512.413,757.324 514.318,753.256 516.223,749.245 518.128,745.29 520.034,741.39 521.939,737.543 523.844,733.748 525.749,730.003 527.654,726.308 529.559,722.661 531.465,719.061 533.37,715.507 535.275,711.998 537.18,708.533 539.085,705.11 540.991,701.73 542.896,698.39 544.801,695.091 546.706,691.831 548.611,688.609 550.516,685.425 552.422,682.277 554.327,679.166 556.232,676.089 558.137,673.048 560.042,670.04 561.947,667.065 563.853,664.122 565.758,661.212 567.663,658.332 569.568,655.483 571.473,652.665 573.379,649.875 575.284,647.115 577.189,644.382 579.094,641.678 580.999,639.001 582.904,636.35 584.81,633.726 586.715,631.128 588.62,628.555 590.525,626.007 592.43,623.483 594.335,620.984 596.241,618.508 598.146,616.055 600.051,613.625 601.956,611.217 603.861,608.832 605.767,606.468 607.672,604.126 609.577,601.804 611.482,599.504 613.387,597.223 615.292,594.963 617.198,592.722 619.103,590.5 621.008,588.298 622.913,586.114 624.818,583.949 626.723,581.802 628.629,579.673 630.534,577.561 632.439,575.467 634.344,573.39 636.249,571.329 638.155,569.286 640.06,567.258 641.965,565.247 643.87,563.252 645.775,561.272 647.68,559.308 649.586,557.359 651.491,555.425 653.396,553.506 655.301,551.601 657.206,549.71 659.111,547.834 661.017,545.972 662.922,544.124 664.827,542.289 666.732,540.468 668.637,538.66 670.543,536.865 672.448,535.083 674.353,533.313 676.258,531.556 678.163,529.812 680.068,528.08 681.974,526.36 683.879,524.652 685.784,522.955 687.689,521.27 689.594,519.597 691.499,517.935 693.405,516.285 695.31,514.645 697.215,513.016 699.12,511.398 701.025,509.791 702.931,508.194 704.836,506.608 706.741,505.032 708.646,503.466 710.551,501.911 712.456,500.365 714.362,498.829 716.267,497.302 718.172,495.786 720.077,494.278 721.982,492.781 723.887,491.292 725.793,489.812 727.698,488.342 729.603,486.881 731.508,485.428 733.413,483.984 735.319,482.549 737.224,481.122 739.129,479.704 741.034,478.295 742.939,476.893 744.844,475.5 746.75,474.115 748.655,472.738 750.56,471.369 752.465,470.007 754.37,468.654 756.275,467.308 758.181,465.97 760.086,464.639 761.991,463.316 763.896,462 765.801,460.692 767.706,459.391 769.612,458.096 771.517,456.809 773.422,455.529 775.327,454.256 777.232,452.99 779.138,451.731 781.043,450.478 782.948,449.232 784.853,447.993 786.758,446.76 788.663,445.534 790.569,444.314 792.474,443.101 794.379,441.894 796.284,440.693 798.189,439.498 800.094,438.31 802,437.127 803.905,435.951 805.81,434.78 807.715,433.615 809.62,432.457 811.526,431.304 813.431,430.156 815.336,429.015 817.241,427.879 819.146,426.748 821.051,425.624 822.957,424.504 824.862,423.39 826.767,422.282 828.672,421.179 830.577,420.081 832.482,418.988 834.388,417.901 836.293,416.819 838.198,415.741 840.103,414.669 842.008,413.602 843.914,412.54 845.819,411.483 847.724,410.431 849.629,409.383 851.534,408.341 853.439,407.303 855.345,406.27 857.25,405.242 859.155,404.218 861.06,403.199 862.965,402.185 864.87,401.175 866.776,400.169 868.681,399.168 870.586,398.172 872.491,397.179 874.396,396.192 876.302,395.208 878.207,394.229 880.112,393.254 882.017,392.283 883.922,391.317 885.827,390.355 887.733,389.396 889.638,388.442 891.543,387.492 893.448,386.546 895.353,385.604 897.258,384.666 899.164,383.732 901.069,382.802 902.974,381.875 904.879,380.953 906.784,380.034 908.69,379.119 910.595,378.208 912.5,377.301 914.405,376.397 916.31,375.497 918.215,374.601 920.121,373.708 922.026,372.819 923.931,371.933 925.836,371.051 927.741,370.173 929.646,369.298 931.552,368.426 933.457,367.558 935.362,366.693 937.267,365.832 939.172,364.974 941.078,364.119 942.983,363.268 944.888,362.42 946.793,361.575 948.698,360.734 950.603,359.895 952.509,359.06 954.414,358.229 956.319,357.4 958.224,356.574 960.129,355.752 962.034,354.932 963.94,354.116 965.845,353.303 967.75,352.493 969.655,351.686 971.56,350.881 973.466,350.08 975.371,349.282 977.276,348.486 979.181,347.694 981.086,346.904 982.991,346.118 984.897,345.334 986.802,344.553 988.707,343.775 990.612,342.999 992.517,342.227 994.422,341.457 996.328,340.69 998.233,339.925 1000.14,339.164 1002.04,338.405 1003.95,337.648 1005.85,336.895 1007.76,336.144 1009.66,335.395 1011.57,334.649 1013.47,333.906 1015.38,333.166 1017.28,332.427 1019.19,331.692 1021.09,330.959 1023,330.228 1024.91,329.5 1026.81,328.775 1028.72,328.052 1030.62,327.331 1032.53,326.613 1034.43,325.897 1036.34,325.183 1038.24,324.472 1040.15,323.764 1042.05,323.057 1043.96,322.353 1045.86,321.652 1047.77,320.952 1049.67,320.255 1051.58,319.561 1053.48,318.868 1055.39,318.178 1057.29,317.49 1059.2,316.804 1061.1,316.121 1063.01,315.439 1064.91,314.76 1066.82,314.083 1068.72,313.409 1070.63,312.736 1072.53,312.066 1074.44,311.397 1076.35,310.731 1078.25,310.067 1080.16,309.405 1082.06,308.745 1083.97,308.087 1085.87,307.431 1087.78,306.777 1089.68,306.126 1091.59,305.476 1093.49,304.828 1095.4,304.182 1097.3,303.539 1099.21,302.897 1101.11,302.257 1103.02,301.619 1104.92,300.983 1106.83,300.349 1108.73,299.717 1110.64,299.087 1112.54,298.459 1114.45,297.832 1116.35,297.208 1118.26,296.585 1120.16,295.965 1122.07,295.346 1123.97,294.729 1125.88,294.113 1127.78,293.5 1129.69,292.888 1131.6,292.279 1133.5,291.671 1135.41,291.064 1137.31,290.46 1139.22,289.857 1141.12,289.256 1143.03,288.657 1144.93,288.06 1146.84,287.464 1148.74,286.87 1150.65,286.277 1152.55,285.687 1154.46,285.098 1156.36,284.51 1158.27,283.925 1160.17,283.341 1162.08,282.759 1163.98,282.178 1165.89,281.599 1167.79,281.022 1169.7,280.446 1171.6,279.872 1173.51,279.299 1175.41,278.728 1177.32,278.159 1179.22,277.591 1181.13,277.025 1183.03,276.46 1184.94,275.897 1186.85,275.335 1188.75,274.775 1190.66,274.217 1192.56,273.66 1194.47,273.104 1196.37,272.551 1198.28,271.998 1200.18,271.447 1202.09,270.898 1203.99,270.35 1205.9,269.803 1207.8,269.258 1209.71,268.715 1211.61,268.172 1213.52,267.632 1215.42,267.092 1217.33,266.555 1219.23,266.018 1221.14,265.483 1223.04,264.95 1224.95,264.417 1226.85,263.887 1228.76,263.357 1230.66,262.829 1232.57,262.302 1234.47,261.777 1236.38,261.253 1238.29,260.731 1240.19,260.209 1242.1,259.69 1244,259.171 1245.91,258.654 1247.81,258.138 1249.72,257.623 1251.62,257.11 1253.53,256.598 1255.43,256.087 1257.34,255.578 1259.24,255.07 1261.15,254.563 1263.05,254.058 1264.96,253.553 1266.86,253.05 1268.77,252.549 1270.67,252.048 1272.58,251.549 1274.48,251.051 1276.39,250.554 1278.29,250.059 1280.2,249.564 1282.1,249.071 1284.01,248.579 1285.91,248.089 1287.82,247.599 1289.72,247.111 1291.63,246.624 1293.54,246.138 1295.44,245.653 1297.35,245.17 1299.25,244.687 1301.16,244.206 1303.06,243.726 1304.97,243.247 1306.87,242.769 1308.78,242.293 1310.68,241.817 1312.59,241.343 1314.49,240.87 1316.4,240.398 1318.3,239.927 1320.21,239.457 1322.11,238.988 1324.02,238.521 1325.92,238.054 1327.83,237.589 1329.73,237.124 1331.64,236.661 1333.54,236.199 1335.45,235.738 1337.35,235.278 1339.26,234.819 1341.16,234.361 1343.07,233.904 1344.97,233.448 1346.88,232.994 1348.79,232.54 1350.69,232.087 1352.6,231.636 1354.5,231.185 1356.41,230.736 1358.31,230.287 1360.22,229.84 1362.12,229.393 1364.03,228.948 1365.93,228.503 1367.84,228.06 1369.74,227.617 1371.65,227.176 1373.55,226.735 1375.46,226.296 1377.36,225.857 1379.27,225.42 1381.17,224.983 1383.08,224.548 1384.98,224.113 1386.89,223.679 1388.79,223.247 1390.7,222.815 1392.6,222.384 1394.51,221.954 1396.41,221.525 1398.32,221.097 1400.22,220.67 1402.13,220.244 1404.04,219.819 1405.94,219.395 1407.85,218.972 1409.75,218.549 1411.66,218.128 1413.56,217.707 1415.47,217.287 1417.37,216.869 1419.28,216.451 1421.18,216.034 1423.09,215.618 1424.99,215.202 1426.9,214.788 1428.8,214.375 1430.71,213.962 1432.61,213.55 1434.52,213.14 1436.42,212.73 1438.33,212.321 1440.23,211.912 1442.14,211.505 1444.04,211.098 1445.95,210.693 1447.85,210.288 1449.76,209.884 1451.66,209.481 1453.57,209.079 1455.48,208.677 1457.38,208.277 1459.29,207.877 1461.19,207.478 1463.1,207.08 1465,206.682 1466.91,206.286 1468.81,205.89 1470.72,205.495 1472.62,205.101 1474.53,204.708 1476.43,204.315 1478.34,203.924 1480.24,203.533 1482.15,203.143 1484.05,202.754 1485.96,202.365 1487.86,201.977 1489.77,201.59 1491.67,201.204 1493.58,200.819 1495.48,200.434 1497.39,200.05 1499.29,199.667 1501.2,199.285 1503.1,198.903 1505.01,198.523 1506.91,198.143 1508.82,197.763 1510.73,197.385 1512.63,197.007 1514.54,196.63 1516.44,196.254 1518.35,195.878 1520.25,195.503 1522.16,195.129 1524.06,194.756 1525.97,194.383 1527.87,194.011 1529.78,193.64 1531.68,193.27 1533.59,192.9 1535.49,192.531 1537.4,192.162 1539.3,191.795 1541.21,191.428 1543.11,191.062 1545.02,190.696 1546.92,190.331 1548.83,189.967 1550.73,189.604 1552.64,189.241 1554.54,188.879 1556.45,188.518 1558.35,188.157 1560.26,187.797 1562.16,187.438 1564.07,187.079 1565.98,186.722 1567.88,186.364 1569.79,186.008 1571.69,185.652 1573.6,185.297 1575.5,184.942 1577.41,184.588 1579.31,184.235 1581.22,183.882 1583.12,183.53 1585.03,183.179 1586.93,182.828 1588.84,182.478 1590.74,182.129 1592.65,181.78 1594.55,181.432 1596.46,181.085 1598.36,180.738 1600.27,180.392 1602.17,180.047 1604.08,179.702 1605.98,179.357 1607.89,179.014 1609.79,178.671 1611.7,178.329 1613.6,177.987 1615.51,177.646 1617.42,177.305 1619.32,176.965 1621.23,176.626 1623.13,176.287 1625.04,175.949 1626.94,175.612 1628.85,175.275 1630.75,174.939 1632.66,174.603 1634.56,174.268 1636.47,173.934 1638.37,173.6 1640.28,173.267 1642.18,172.934 1644.09,172.602 1645.99,172.27 1647.9,171.94 1649.8,171.609 1651.71,171.28 1653.61,170.95 1655.52,170.622 1657.42,170.294 1659.33,169.966 1661.23,169.64 1663.14,169.313 1665.04,168.988 1666.95,168.662 1668.85,168.338 1670.76,168.014 1672.67,167.69 1674.57,167.368 1676.48,167.045 1678.38,166.723 1680.29,166.402 1682.19,166.082 1684.1,165.761 1686,165.442 1687.91,165.123 1689.81,164.804 1691.72,164.487 1693.62,164.169 1695.53,163.852 1697.43,163.536 1699.34,163.22 1701.24,162.905 1703.15,162.59 1705.05,162.276 1706.96,161.963 1708.86,161.649 1710.77,161.337 1712.67,161.025 1714.58,160.713 1716.48,160.402 1718.39,160.092 1720.29,159.782 1722.2,159.472 1724.1,159.164 1726.01,158.855 1727.92,158.547 1729.82,158.24 1731.73,157.933 1733.63,157.627 1735.54,157.321 1737.44,157.015 1739.35,156.711 1741.25,156.406 1743.16,156.102 1745.06,155.799 1746.97,155.496 1748.87,155.194 1750.78,154.892 1752.68,154.591 1754.59,154.29 1756.49,153.989 1758.4,153.689 1760.3,153.39 1762.21,153.091 1764.11,152.793 1766.02,152.495 1767.92,152.197 1769.83,151.9 1771.73,151.604 1773.64,151.308 1775.54,151.012 1777.45,150.717 1779.36,150.423 1781.26,150.128 1783.17,149.835 1785.07,149.542 1786.98,149.249 1788.88,148.957 1790.79,148.665 1792.69,148.373 1794.6,148.083 1796.5,147.792 1798.41,147.502 1800.31,147.213 1802.22,146.924 1804.12,146.635 1806.03,146.347 1807.93,146.059 1809.84,145.772 1811.74,145.485 1813.65,145.199 1815.55,144.913 1817.46,144.628 1819.36,144.343 1821.27,144.058 1823.17,143.774 1825.08,143.491 1826.98,143.207 1828.89,142.925 1830.79,142.642 1832.7,142.36 1834.61,142.079 1836.51,141.798 1838.42,141.517 1840.32,141.237 1842.23,140.957 1844.13,140.678 1846.04,140.399 1847.94,140.121 1849.85,139.843 1851.75,139.565 1853.66,139.288 1855.56,139.011 1857.47,138.735 1859.37,138.459 1861.28,138.184 1863.18,137.909 1865.09,137.634 1866.99,137.36 1868.9,137.086 1870.8,136.812 1872.71,136.539 1874.61,136.267 1876.52,135.995 1878.42,135.723 1880.33,135.451 1882.23,135.18 1884.14,134.91 1886.04,134.64 1887.95,134.37 1889.86,134.101 1891.76,133.832 1893.67,133.563 1895.57,133.295 1897.48,133.027 1899.38,132.76 1901.29,132.493 1903.19,132.226 1905.1,131.96 1907,131.694 1908.91,131.429 1910.81,131.164 1912.72,130.899 1914.62,130.635 1916.53,130.371 1918.43,130.108 1920.34,129.845 1922.24,129.582 1924.15,129.32 1926.05,129.058 1927.96,128.796 1929.86,128.535 1931.77,128.274 1933.67,128.014 1935.58,127.754 1937.48,127.494 1939.39,127.235 1941.3,126.976 1943.2,126.718 1945.11,126.46 1947.01,126.202 1948.92,125.944 1950.82,125.687 1952.73,125.431 1954.63,125.174 1956.54,124.918 1958.44,124.663 1960.35,124.408 1962.25,124.153 1964.16,123.898 1966.06,123.644 1967.97,123.39 1969.87,123.137 1971.78,122.884 1973.68,122.631 1975.59,122.379 1977.49,122.127 1979.4,121.875 1981.3,121.624 1983.21,121.373 1985.11,121.122 1987.02,120.872 1988.92,120.622 1990.83,120.373 1992.73,120.124 1994.64,119.875 1996.55,119.626 1998.45,119.378 2000.36,119.13 2002.26,118.883 2004.17,118.636 2006.07,118.389 2007.98,118.143 2009.88,117.896 2011.79,117.651 2013.69,117.405 2015.6,117.16 2017.5,116.915 2019.41,116.671 2021.31,116.427 2023.22,116.183 2025.12,115.94 2027.03,115.697 2028.93,115.454 2030.84,115.212 2032.74,114.97 2034.65,114.728 2036.55,114.486 2038.46,114.245 2040.36,114.005 2042.27,113.764 2044.17,113.524 2046.08,113.284 2047.98,113.045 2049.89,112.806 2051.8,112.567 2053.7,112.328 2055.61,112.09 2057.51,111.852 2059.42,111.615 2061.32,111.378 2063.23,111.141 2065.13,110.904 2067.04,110.668 2068.94,110.432 2070.85,110.196 2072.75,109.961 2074.66,109.726 2076.56,109.491 2078.47,109.257 2080.37,109.023 2082.28,108.789 2084.18,108.556 2086.09,108.323 2087.99,108.09 2089.9,107.857 2091.8,107.625 2093.71,107.393 2095.61,107.161 2097.52,106.93 2099.42,106.699 2101.33,106.468 2103.23,106.238 2105.14,106.008 2107.05,105.778 2108.95,105.549 2110.86,105.319 2112.76,105.09 2114.67,104.862 2116.57,104.633 2118.48,104.405 2120.38,104.178 2122.29,103.95 2124.19,103.723 2126.1,103.496 2128,103.27 2129.91,103.044 2131.81,102.818 2133.72,102.592 2135.62,102.366 2137.53,102.141 2139.43,101.917 2141.34,101.692 2143.24,101.468 2145.15,101.244 2147.05,101.02 2148.96,100.797 2150.86,100.574 2152.77,100.351 2154.67,100.128 2156.58,99.9062 2158.49,99.6842 2160.39,99.4625 2162.3,99.2411 2164.2,99.02 2166.11,98.7991 2168.01,98.5786 2169.92,98.3583 2171.82,98.1383 2173.73,97.9185 2175.63,97.6991 2177.54,97.4799 2179.44,97.261 2181.35,97.0423 2183.25,96.824 2185.16,96.6059 2187.06,96.3881 2188.97,96.1705 2190.87,95.9533 2192.78,95.7362 2194.68,95.5195 2196.59,95.303 2198.49,95.0869 2200.4,94.8709 2202.3,94.6553 2204.21,94.4399 2206.11,94.2247 2208.02,94.0099 2209.92,93.7953 2211.83,93.5809 2213.74,93.3669 2215.64,93.153 2217.55,92.9395 2219.45,92.7262 2221.36,92.5132 2223.26,92.3004 2225.17,92.0879 2227.07,91.8757 2228.98,91.6637 2230.88,91.452 2232.79,91.2405 2234.69,91.0293 2236.6,90.8183 2238.5,90.6076 2240.41,90.3972 2242.31,90.187 2244.22,89.977 2246.12,89.7674 2248.03,89.5579 2249.93,89.3488 2251.84,89.1398 2253.74,88.9312 2255.65,88.7227 2257.55,88.5146 2259.46,88.3066 2261.36,88.099 2263.27,87.8916 2265.17,87.6844 2267.08,87.4774 2268.99,87.2708 2270.89,87.0643 2272.8,86.8581 2274.7,86.6522 2276.61,86.4465 2278.51,86.241 2280.42,86.0358 2282.32,85.8309 2284.23,85.6261 2286.13,85.4217 2288.04,85.2174 2289.94,85.0134 2291.85,84.8097 2293.75,84.6062 2295.66,84.4029 "/>
<path clip-path="url(#clip540)" d="M402.538 246.529 L875.44 246.529 L875.44 91.0089 L402.538 91.0089  Z" fill="#ffffff" fill-rule="evenodd" fill-opacity="1"/>
<polyline clip-path="url(#clip540)" style="stroke:#000000; stroke-linecap:round; stroke-linejoin:round; stroke-width:4; stroke-opacity:1; fill:none" points="402.538,246.529 875.44,246.529 875.44,91.0089 402.538,91.0089 402.538,246.529 "/>
<polyline clip-path="url(#clip540)" style="stroke:#009af9; stroke-linecap:round; stroke-linejoin:round; stroke-width:4; stroke-opacity:1; fill:none" points="424.954,142.849 559.452,142.849 "/>
<path clip-path="url(#clip540)" d="M603.581 144.481 L603.581 160.129 L599.322 160.129 L599.322 144.62 Q599.322 140.939 597.886 139.11 Q596.451 137.282 593.581 137.282 Q590.132 137.282 588.141 139.481 Q586.15 141.68 586.15 145.476 L586.15 160.129 L581.868 160.129 L581.868 134.203 L586.15 134.203 L586.15 138.231 Q587.678 135.893 589.738 134.735 Q591.822 133.578 594.53 133.578 Q598.998 133.578 601.289 136.356 Q603.581 139.11 603.581 144.481 Z" fill="#000000" fill-rule="nonzero" fill-opacity="1" /><path clip-path="url(#clip540)" d="M611.636 149.897 L611.636 134.203 L615.896 134.203 L615.896 149.735 Q615.896 153.416 617.331 155.268 Q618.766 157.096 621.636 157.096 Q625.085 157.096 627.076 154.897 Q629.09 152.698 629.09 148.902 L629.09 134.203 L633.349 134.203 L633.349 160.129 L629.09 160.129 L629.09 156.147 Q627.539 158.509 625.479 159.666 Q623.442 160.8 620.734 160.8 Q616.266 160.8 613.951 158.022 Q611.636 155.245 611.636 149.897 M622.354 133.578 L622.354 133.578 Z" fill="#000000" fill-rule="nonzero" fill-opacity="1" /><path clip-path="url(#clip540)" d="M662.307 139.18 Q663.905 136.31 666.127 134.944 Q668.349 133.578 671.358 133.578 Q675.409 133.578 677.608 136.425 Q679.807 139.249 679.807 144.481 L679.807 160.129 L675.525 160.129 L675.525 144.62 Q675.525 140.893 674.205 139.087 Q672.886 137.282 670.178 137.282 Q666.868 137.282 664.946 139.481 Q663.025 141.68 663.025 145.476 L663.025 160.129 L658.743 160.129 L658.743 144.62 Q658.743 140.87 657.423 139.087 Q656.104 137.282 653.349 137.282 Q650.085 137.282 648.164 139.504 Q646.243 141.703 646.243 145.476 L646.243 160.129 L641.96 160.129 L641.96 134.203 L646.243 134.203 L646.243 138.231 Q647.701 135.847 649.738 134.712 Q651.775 133.578 654.576 133.578 Q657.4 133.578 659.368 135.013 Q661.358 136.448 662.307 139.18 Z" fill="#000000" fill-rule="nonzero" fill-opacity="1" /><path clip-path="url(#clip540)" d="M710.478 146.101 L710.478 148.185 L690.895 148.185 Q691.173 152.583 693.534 154.897 Q695.918 157.189 700.154 157.189 Q702.608 157.189 704.9 156.587 Q707.215 155.985 709.483 154.782 L709.483 158.809 Q707.191 159.782 704.784 160.291 Q702.377 160.8 699.9 160.8 Q693.696 160.8 690.062 157.189 Q686.451 153.578 686.451 147.421 Q686.451 141.055 689.877 137.328 Q693.326 133.578 699.159 133.578 Q704.39 133.578 707.423 136.958 Q710.478 140.314 710.478 146.101 M706.219 144.851 Q706.173 141.356 704.252 139.273 Q702.353 137.189 699.205 137.189 Q695.641 137.189 693.488 139.203 Q691.358 141.217 691.034 144.874 L706.219 144.851 Z" fill="#000000" fill-rule="nonzero" fill-opacity="1" /><path clip-path="url(#clip540)" d="M732.492 138.185 Q731.775 137.768 730.918 137.583 Q730.085 137.374 729.066 137.374 Q725.455 137.374 723.511 139.735 Q721.589 142.073 721.589 146.472 L721.589 160.129 L717.307 160.129 L717.307 134.203 L721.589 134.203 L721.589 138.231 Q722.932 135.87 725.085 134.735 Q727.238 133.578 730.316 133.578 Q730.756 133.578 731.288 133.648 Q731.821 133.694 732.469 133.81 L732.492 138.185 Z" fill="#000000" fill-rule="nonzero" fill-opacity="1" /><path clip-path="url(#clip540)" d="M736.96 134.203 L741.219 134.203 L741.219 160.129 L736.96 160.129 L736.96 134.203 M736.96 124.111 L741.219 124.111 L741.219 129.504 L736.96 129.504 L736.96 124.111 Z" fill="#000000" fill-rule="nonzero" fill-opacity="1" /><path clip-path="url(#clip540)" d="M768.788 135.198 L768.788 139.18 Q766.983 138.185 765.154 137.698 Q763.349 137.189 761.497 137.189 Q757.353 137.189 755.062 139.828 Q752.77 142.444 752.77 147.189 Q752.77 151.934 755.062 154.573 Q757.353 157.189 761.497 157.189 Q763.349 157.189 765.154 156.703 Q766.983 156.194 768.788 155.198 L768.788 159.134 Q767.006 159.967 765.085 160.384 Q763.186 160.8 761.034 160.8 Q755.177 160.8 751.728 157.12 Q748.279 153.439 748.279 147.189 Q748.279 140.847 751.751 137.212 Q755.247 133.578 761.311 133.578 Q763.279 133.578 765.154 133.995 Q767.029 134.388 768.788 135.198 Z" fill="#000000" fill-rule="nonzero" fill-opacity="1" /><path clip-path="url(#clip540)" d="M787.978 147.097 Q782.816 147.097 780.825 148.277 Q778.835 149.458 778.835 152.305 Q778.835 154.573 780.316 155.916 Q781.821 157.235 784.39 157.235 Q787.932 157.235 790.061 154.735 Q792.214 152.212 792.214 148.046 L792.214 147.097 L787.978 147.097 M796.473 145.337 L796.473 160.129 L792.214 160.129 L792.214 156.194 Q790.756 158.555 788.58 159.689 Q786.404 160.8 783.256 160.8 Q779.274 160.8 776.913 158.578 Q774.575 156.333 774.575 152.583 Q774.575 148.208 777.492 145.985 Q780.432 143.763 786.242 143.763 L792.214 143.763 L792.214 143.347 Q792.214 140.407 790.27 138.81 Q788.348 137.189 784.853 137.189 Q782.631 137.189 780.524 137.722 Q778.418 138.254 776.473 139.319 L776.473 135.384 Q778.811 134.481 781.01 134.041 Q783.21 133.578 785.293 133.578 Q790.918 133.578 793.696 136.495 Q796.473 139.411 796.473 145.337 Z" fill="#000000" fill-rule="nonzero" fill-opacity="1" /><path clip-path="url(#clip540)" d="M805.246 124.111 L809.506 124.111 L809.506 160.129 L805.246 160.129 L805.246 124.111 Z" fill="#000000" fill-rule="nonzero" fill-opacity="1" /><polyline clip-path="url(#clip540)" style="stroke:#e26f46; stroke-linecap:round; stroke-linejoin:round; stroke-width:4; stroke-opacity:1; fill:none" stroke-dasharray="16, 10" points="424.954,194.689 559.452,194.689 "/>
<path clip-path="url(#clip540)" d="M602.377 187.038 L602.377 191.02 Q600.572 190.025 598.743 189.538 Q596.937 189.029 595.086 189.029 Q590.942 189.029 588.65 191.668 Q586.359 194.284 586.359 199.029 Q586.359 203.774 588.65 206.413 Q590.942 209.029 595.086 209.029 Q596.937 209.029 598.743 208.543 Q600.572 208.034 602.377 207.038 L602.377 210.974 Q600.595 211.807 598.673 212.224 Q596.775 212.64 594.623 212.64 Q588.766 212.64 585.317 208.96 Q581.868 205.279 581.868 199.029 Q581.868 192.687 585.34 189.052 Q588.836 185.418 594.9 185.418 Q596.868 185.418 598.743 185.835 Q600.618 186.228 602.377 187.038 Z" fill="#000000" fill-rule="nonzero" fill-opacity="1" /><path clip-path="url(#clip540)" d="M609.785 175.951 L614.044 175.951 L614.044 211.969 L609.785 211.969 L609.785 175.951 Z" fill="#000000" fill-rule="nonzero" fill-opacity="1" /><path clip-path="url(#clip540)" d="M633.002 189.029 Q629.576 189.029 627.585 191.714 Q625.595 194.376 625.595 199.029 Q625.595 203.682 627.562 206.367 Q629.553 209.029 633.002 209.029 Q636.405 209.029 638.395 206.344 Q640.386 203.659 640.386 199.029 Q640.386 194.423 638.395 191.738 Q636.405 189.029 633.002 189.029 M633.002 185.418 Q638.558 185.418 641.729 189.029 Q644.9 192.64 644.9 199.029 Q644.9 205.395 641.729 209.029 Q638.558 212.64 633.002 212.64 Q627.423 212.64 624.252 209.029 Q621.104 205.395 621.104 199.029 Q621.104 192.64 624.252 189.029 Q627.423 185.418 633.002 185.418 Z" fill="#000000" fill-rule="nonzero" fill-opacity="1" /><path clip-path="url(#clip540)" d="M668.488 186.807 L668.488 190.835 Q666.682 189.909 664.738 189.446 Q662.793 188.983 660.71 188.983 Q657.539 188.983 655.942 189.955 Q654.368 190.927 654.368 192.872 Q654.368 194.353 655.502 195.21 Q656.636 196.043 660.062 196.807 L661.52 197.131 Q666.057 198.103 667.955 199.886 Q669.877 201.645 669.877 204.816 Q669.877 208.427 667.006 210.534 Q664.159 212.64 659.159 212.64 Q657.076 212.64 654.807 212.224 Q652.562 211.83 650.062 211.02 L650.062 206.622 Q652.423 207.849 654.715 208.474 Q657.006 209.075 659.252 209.075 Q662.261 209.075 663.881 208.057 Q665.502 207.015 665.502 205.14 Q665.502 203.404 664.321 202.478 Q663.164 201.552 659.206 200.696 L657.724 200.349 Q653.766 199.515 652.007 197.802 Q650.247 196.066 650.247 193.057 Q650.247 189.4 652.84 187.409 Q655.432 185.418 660.201 185.418 Q662.562 185.418 664.645 185.765 Q666.729 186.113 668.488 186.807 Z" fill="#000000" fill-rule="nonzero" fill-opacity="1" /><path clip-path="url(#clip540)" d="M698.835 197.941 L698.835 200.025 L679.252 200.025 Q679.53 204.423 681.891 206.737 Q684.275 209.029 688.511 209.029 Q690.965 209.029 693.256 208.427 Q695.571 207.825 697.84 206.622 L697.84 210.649 Q695.548 211.622 693.141 212.131 Q690.733 212.64 688.256 212.64 Q682.053 212.64 678.418 209.029 Q674.807 205.418 674.807 199.261 Q674.807 192.895 678.233 189.168 Q681.682 185.418 687.516 185.418 Q692.747 185.418 695.779 188.798 Q698.835 192.154 698.835 197.941 M694.576 196.691 Q694.529 193.196 692.608 191.113 Q690.71 189.029 687.562 189.029 Q683.997 189.029 681.844 191.043 Q679.715 193.057 679.391 196.714 L694.576 196.691 Z" fill="#000000" fill-rule="nonzero" fill-opacity="1" /><path clip-path="url(#clip540)" d="M722.886 189.978 L722.886 175.951 L727.145 175.951 L727.145 211.969 L722.886 211.969 L722.886 208.08 Q721.543 210.395 719.483 211.529 Q717.446 212.64 714.576 212.64 Q709.877 212.64 706.914 208.89 Q703.974 205.14 703.974 199.029 Q703.974 192.918 706.914 189.168 Q709.877 185.418 714.576 185.418 Q717.446 185.418 719.483 186.552 Q721.543 187.663 722.886 189.978 M708.372 199.029 Q708.372 203.728 710.293 206.413 Q712.238 209.075 715.617 209.075 Q718.997 209.075 720.941 206.413 Q722.886 203.728 722.886 199.029 Q722.886 194.33 720.941 191.668 Q718.997 188.983 715.617 188.983 Q712.238 188.983 710.293 191.668 Q708.372 194.33 708.372 199.029 Z" fill="#000000" fill-rule="nonzero" fill-opacity="1" /><path clip-path="url(#clip540)" d="M764.112 175.951 L764.112 179.492 L760.038 179.492 Q757.747 179.492 756.844 180.418 Q755.964 181.344 755.964 183.751 L755.964 186.043 L762.978 186.043 L762.978 189.353 L755.964 189.353 L755.964 211.969 L751.682 211.969 L751.682 189.353 L747.608 189.353 L747.608 186.043 L751.682 186.043 L751.682 184.238 Q751.682 179.909 753.696 177.941 Q755.71 175.951 760.085 175.951 L764.112 175.951 Z" fill="#000000" fill-rule="nonzero" fill-opacity="1" /><path clip-path="url(#clip540)" d="M777.723 189.029 Q774.298 189.029 772.307 191.714 Q770.316 194.376 770.316 199.029 Q770.316 203.682 772.284 206.367 Q774.274 209.029 777.723 209.029 Q781.126 209.029 783.117 206.344 Q785.108 203.659 785.108 199.029 Q785.108 194.423 783.117 191.738 Q781.126 189.029 777.723 189.029 M777.723 185.418 Q783.279 185.418 786.45 189.029 Q789.622 192.64 789.622 199.029 Q789.622 205.395 786.45 209.029 Q783.279 212.64 777.723 212.64 Q772.145 212.64 768.973 209.029 Q765.825 205.395 765.825 199.029 Q765.825 192.64 768.973 189.029 Q772.145 185.418 777.723 185.418 Z" fill="#000000" fill-rule="nonzero" fill-opacity="1" /><path clip-path="url(#clip540)" d="M811.705 190.025 Q810.987 189.608 810.131 189.423 Q809.297 189.214 808.279 189.214 Q804.668 189.214 802.723 191.575 Q800.802 193.913 800.802 198.312 L800.802 211.969 L796.52 211.969 L796.52 186.043 L800.802 186.043 L800.802 190.071 Q802.145 187.71 804.297 186.575 Q806.45 185.418 809.529 185.418 Q809.969 185.418 810.501 185.488 Q811.033 185.534 811.682 185.65 L811.705 190.025 Z" fill="#000000" fill-rule="nonzero" fill-opacity="1" /><path clip-path="url(#clip540)" d="M835.524 191.02 Q837.121 188.15 839.343 186.784 Q841.566 185.418 844.575 185.418 Q848.626 185.418 850.825 188.265 Q853.024 191.089 853.024 196.321 L853.024 211.969 L848.742 211.969 L848.742 196.46 Q848.742 192.733 847.422 190.927 Q846.103 189.122 843.394 189.122 Q840.084 189.122 838.163 191.321 Q836.242 193.52 836.242 197.316 L836.242 211.969 L831.959 211.969 L831.959 196.46 Q831.959 192.71 830.64 190.927 Q829.32 189.122 826.566 189.122 Q823.302 189.122 821.381 191.344 Q819.459 193.543 819.459 197.316 L819.459 211.969 L815.177 211.969 L815.177 186.043 L819.459 186.043 L819.459 190.071 Q820.918 187.687 822.955 186.552 Q824.992 185.418 827.793 185.418 Q830.617 185.418 832.584 186.853 Q834.575 188.288 835.524 191.02 Z" fill="#000000" fill-rule="nonzero" fill-opacity="1" /></svg>
