<?xml version="1.0" encoding="utf-8"?>
<svg xmlns="http://www.w3.org/2000/svg" xmlns:xlink="http://www.w3.org/1999/xlink" width="800" height="300" viewBox="0 0 3200 1200">
<defs>
  <clipPath id="clip920">
    <rect x="0" y="0" width="3200" height="1200"/>
  </clipPath>
</defs>
<path clip-path="url(#clip920)" d="M0 1200 L3200 1200 L3200 0 L0 0  Z" fill="#ffffff" fill-rule="evenodd" fill-opacity="1"/>
<defs>
  <clipPath id="clip921">
    <rect x="1887" y="47" width="1266" height="954"/>
  </clipPath>
</defs>
<path clip-path="url(#clip920)" d="M270.068 1000.1 L1534.89 1000.1 L1534.89 47.2441 L270.068 47.2441  Z" fill="#ffffff" fill-rule="evenodd" fill-opacity="1"/>
<defs>
  <clipPath id="clip922">
    <rect x="270" y="47" width="1266" height="954"/>
  </clipPath>
</defs>
<polyline clip-path="url(#clip922)" style="stroke:#000000; stroke-linecap:round; stroke-linejoin:round; stroke-width:2; stroke-opacity:0.1; fill:none" points="417.54,1000.1 417.54,47.2441 "/>
<polyline clip-path="url(#clip922)" style="stroke:#000000; stroke-linecap:round; stroke-linejoin:round; stroke-width:2; stroke-opacity:0.1; fill:none" points="585.304,1000.1 585.304,47.2441 "/>
<polyline clip-path="url(#clip922)" style="stroke:#000000; stroke-linecap:round; stroke-linejoin:round; stroke-width:2; stroke-opacity:0.1; fill:none" points="753.068,1000.1 753.068,47.2441 "/>
<polyline clip-path="url(#clip922)" style="stroke:#000000; stroke-linecap:round; stroke-linejoin:round; stroke-width:2; stroke-opacity:0.1; fill:none" points="920.833,1000.1 920.833,47.2441 "/>
<polyline clip-path="url(#clip922)" style="stroke:#000000; stroke-linecap:round; stroke-linejoin:round; stroke-width:2; stroke-opacity:0.1; fill:none" points="1088.6,1000.1 1088.6,47.2441 "/>
<polyline clip-path="url(#clip922)" style="stroke:#000000; stroke-linecap:round; stroke-linejoin:round; stroke-width:2; stroke-opacity:0.1; fill:none" points="1256.36,1000.1 1256.36,47.2441 "/>
<polyline clip-path="url(#clip922)" style="stroke:#000000; stroke-linecap:round; stroke-linejoin:round; stroke-width:2; stroke-opacity:0.1; fill:none" points="1424.12,1000.1 1424.12,47.2441 "/>
<polyline clip-path="url(#clip922)" style="stroke:#000000; stroke-linecap:round; stroke-linejoin:round; stroke-width:2; stroke-opacity:0.1; fill:none" points="270.068,973.169 1534.89,973.169 "/>
<polyline clip-path="url(#clip922)" style="stroke:#000000; stroke-linecap:round; stroke-linejoin:round; stroke-width:2; stroke-opacity:0.1; fill:none" points="270.068,711.59 1534.89,711.59 "/>
<polyline clip-path="url(#clip922)" style="stroke:#000000; stroke-linecap:round; stroke-linejoin:round; stroke-width:2; stroke-opacity:0.1; fill:none" points="270.068,450.01 1534.89,450.01 "/>
<polyline clip-path="url(#clip922)" style="stroke:#000000; stroke-linecap:round; stroke-linejoin:round; stroke-width:2; stroke-opacity:0.1; fill:none" points="270.068,188.431 1534.89,188.431 "/>
<polyline clip-path="url(#clip920)" style="stroke:#000000; stroke-linecap:round; stroke-linejoin:round; stroke-width:4; stroke-opacity:1; fill:none" points="270.068,1000.1 1534.89,1000.1 "/>
<polyline clip-path="url(#clip920)" style="stroke:#000000; stroke-linecap:round; stroke-linejoin:round; stroke-width:4; stroke-opacity:1; fill:none" points="417.54,1000.1 417.54,981.2 "/>
<polyline clip-path="url(#clip920)" style="stroke:#000000; stroke-linecap:round; stroke-linejoin:round; stroke-width:4; stroke-opacity:1; fill:none" points="585.304,1000.1 585.304,981.2 "/>
<polyline clip-path="url(#clip920)" style="stroke:#000000; stroke-linecap:round; stroke-linejoin:round; stroke-width:4; stroke-opacity:1; fill:none" points="753.068,1000.1 753.068,981.2 "/>
<polyline clip-path="url(#clip920)" style="stroke:#000000; stroke-linecap:round; stroke-linejoin:round; stroke-width:4; stroke-opacity:1; fill:none" points="920.833,1000.1 920.833,981.2 "/>
<polyline clip-path="url(#clip920)" style="stroke:#000000; stroke-linecap:round; stroke-linejoin:round; stroke-width:4; stroke-opacity:1; fill:none" points="1088.6,1000.1 1088.6,981.2 "/>
<polyline clip-path="url(#clip920)" style="stroke:#000000; stroke-linecap:round; stroke-linejoin:round; stroke-width:4; stroke-opacity:1; fill:none" points="1256.36,1000.1 1256.36,981.2 "/>
<polyline clip-path="url(#clip920)" style="stroke:#000000; stroke-linecap:round; stroke-linejoin:round; stroke-width:4; stroke-opacity:1; fill:none" points="1424.12,1000.1 1424.12,981.2 "/>
<path clip-path="url(#clip920)" d="M371.522 1052.07 L401.198 1052.07 L401.198 1056 L371.522 1056 L371.522 1052.07 Z" fill="#000000" fill-rule="nonzero" fill-opacity="1" /><path clip-path="url(#clip920)" d="M412.1 1064.96 L419.739 1064.96 L419.739 1038.6 L411.429 1040.26 L411.429 1036 L419.693 1034.34 L424.369 1034.34 L424.369 1064.96 L432.008 1064.96 L432.008 1068.9 L412.1 1068.9 L412.1 1064.96 Z" fill="#000000" fill-rule="nonzero" fill-opacity="1" /><path clip-path="url(#clip920)" d="M452.031 1049.75 Q448.883 1049.75 447.031 1051.91 Q445.202 1054.06 445.202 1057.81 Q445.202 1061.54 447.031 1063.71 Q448.883 1065.87 452.031 1065.87 Q455.179 1065.87 457.007 1063.71 Q458.859 1061.54 458.859 1057.81 Q458.859 1054.06 457.007 1051.91 Q455.179 1049.75 452.031 1049.75 M461.313 1035.1 L461.313 1039.36 Q459.554 1038.53 457.748 1038.09 Q455.966 1037.65 454.207 1037.65 Q449.577 1037.65 447.123 1040.77 Q444.693 1043.9 444.346 1050.22 Q445.711 1048.2 447.771 1047.14 Q449.832 1046.05 452.308 1046.05 Q457.517 1046.05 460.526 1049.22 Q463.558 1052.37 463.558 1057.81 Q463.558 1063.13 460.41 1066.35 Q457.262 1069.57 452.031 1069.57 Q446.035 1069.57 442.864 1064.99 Q439.693 1060.38 439.693 1051.65 Q439.693 1043.46 443.582 1038.6 Q447.47 1033.71 454.021 1033.71 Q455.781 1033.71 457.563 1034.06 Q459.369 1034.41 461.313 1035.1 Z" fill="#000000" fill-rule="nonzero" fill-opacity="1" /><path clip-path="url(#clip920)" d="M539.865 1052.07 L569.54 1052.07 L569.54 1056 L539.865 1056 L539.865 1052.07 Z" fill="#000000" fill-rule="nonzero" fill-opacity="1" /><path clip-path="url(#clip920)" d="M580.443 1064.96 L588.082 1064.96 L588.082 1038.6 L579.772 1040.26 L579.772 1036 L588.036 1034.34 L592.712 1034.34 L592.712 1064.96 L600.35 1064.96 L600.35 1068.9 L580.443 1068.9 L580.443 1064.96 Z" fill="#000000" fill-rule="nonzero" fill-opacity="1" /><path clip-path="url(#clip920)" d="M609.841 1034.34 L628.198 1034.34 L628.198 1038.27 L614.124 1038.27 L614.124 1046.75 Q615.142 1046.4 616.161 1046.24 Q617.179 1046.05 618.198 1046.05 Q623.985 1046.05 627.364 1049.22 Q630.744 1052.39 630.744 1057.81 Q630.744 1063.39 627.272 1066.49 Q623.799 1069.57 617.48 1069.57 Q615.304 1069.57 613.036 1069.2 Q610.79 1068.83 608.383 1068.09 L608.383 1063.39 Q610.466 1064.52 612.688 1065.08 Q614.911 1065.63 617.387 1065.63 Q621.392 1065.63 623.73 1063.53 Q626.068 1061.42 626.068 1057.81 Q626.068 1054.2 623.73 1052.09 Q621.392 1049.99 617.387 1049.99 Q615.512 1049.99 613.637 1050.4 Q611.786 1050.82 609.841 1051.7 L609.841 1034.34 Z" fill="#000000" fill-rule="nonzero" fill-opacity="1" /><path clip-path="url(#clip920)" d="M706.888 1052.07 L736.564 1052.07 L736.564 1056 L706.888 1056 L706.888 1052.07 Z" fill="#000000" fill-rule="nonzero" fill-opacity="1" /><path clip-path="url(#clip920)" d="M747.467 1064.96 L755.105 1064.96 L755.105 1038.6 L746.795 1040.26 L746.795 1036 L755.059 1034.34 L759.735 1034.34 L759.735 1064.96 L767.374 1064.96 L767.374 1068.9 L747.467 1068.9 L747.467 1064.96 Z" fill="#000000" fill-rule="nonzero" fill-opacity="1" /><path clip-path="url(#clip920)" d="M789.665 1038.41 L777.86 1056.86 L789.665 1056.86 L789.665 1038.41 M788.439 1034.34 L794.318 1034.34 L794.318 1056.86 L799.249 1056.86 L799.249 1060.75 L794.318 1060.75 L794.318 1068.9 L789.665 1068.9 L789.665 1060.75 L774.064 1060.75 L774.064 1056.24 L788.439 1034.34 Z" fill="#000000" fill-rule="nonzero" fill-opacity="1" /><path clip-path="url(#clip920)" d="M875.219 1052.07 L904.895 1052.07 L904.895 1056 L875.219 1056 L875.219 1052.07 Z" fill="#000000" fill-rule="nonzero" fill-opacity="1" /><path clip-path="url(#clip920)" d="M915.798 1064.96 L923.437 1064.96 L923.437 1038.6 L915.127 1040.26 L915.127 1036 L923.39 1034.34 L928.066 1034.34 L928.066 1064.96 L935.705 1064.96 L935.705 1068.9 L915.798 1068.9 L915.798 1064.96 Z" fill="#000000" fill-rule="nonzero" fill-opacity="1" /><path clip-path="url(#clip920)" d="M959.316 1050.26 Q962.673 1050.98 964.548 1053.25 Q966.446 1055.52 966.446 1058.85 Q966.446 1063.97 962.927 1066.77 Q959.409 1069.57 952.927 1069.57 Q950.751 1069.57 948.437 1069.13 Q946.145 1068.71 943.691 1067.86 L943.691 1063.34 Q945.636 1064.48 947.95 1065.06 Q950.265 1065.63 952.788 1065.63 Q957.186 1065.63 959.478 1063.9 Q961.793 1062.16 961.793 1058.85 Q961.793 1055.8 959.64 1054.08 Q957.511 1052.35 953.691 1052.35 L949.663 1052.35 L949.663 1048.5 L953.876 1048.5 Q957.325 1048.5 959.154 1047.14 Q960.983 1045.75 960.983 1043.16 Q960.983 1040.5 959.085 1039.08 Q957.21 1037.65 953.691 1037.65 Q951.77 1037.65 949.571 1038.06 Q947.372 1038.48 944.733 1039.36 L944.733 1035.19 Q947.395 1034.45 949.71 1034.08 Q952.048 1033.71 954.108 1033.71 Q959.432 1033.71 962.534 1036.14 Q965.636 1038.55 965.636 1042.67 Q965.636 1045.54 963.992 1047.53 Q962.348 1049.5 959.316 1050.26 Z" fill="#000000" fill-rule="nonzero" fill-opacity="1" /><path clip-path="url(#clip920)" d="M1043.46 1052.07 L1073.13 1052.07 L1073.13 1056 L1043.46 1056 L1043.46 1052.07 Z" fill="#000000" fill-rule="nonzero" fill-opacity="1" /><path clip-path="url(#clip920)" d="M1084.04 1064.96 L1091.68 1064.96 L1091.68 1038.6 L1083.37 1040.26 L1083.37 1036 L1091.63 1034.34 L1096.3 1034.34 L1096.3 1064.96 L1103.94 1064.96 L1103.94 1068.9 L1084.04 1068.9 L1084.04 1064.96 Z" fill="#000000" fill-rule="nonzero" fill-opacity="1" /><path clip-path="url(#clip920)" d="M1117.42 1064.96 L1133.74 1064.96 L1133.74 1068.9 L1111.79 1068.9 L1111.79 1064.96 Q1114.45 1062.21 1119.04 1057.58 Q1123.64 1052.93 1124.82 1051.58 Q1127.07 1049.06 1127.95 1047.32 Q1128.85 1045.56 1128.85 1043.87 Q1128.85 1041.12 1126.91 1039.38 Q1124.99 1037.65 1121.88 1037.65 Q1119.68 1037.65 1117.23 1038.41 Q1114.8 1039.18 1112.02 1040.73 L1112.02 1036 Q1114.85 1034.87 1117.3 1034.29 Q1119.75 1033.71 1121.79 1033.71 Q1127.16 1033.71 1130.36 1036.4 Q1133.55 1039.08 1133.55 1043.57 Q1133.55 1045.7 1132.74 1047.62 Q1131.95 1049.52 1129.85 1052.12 Q1129.27 1052.79 1126.17 1056 Q1123.06 1059.2 1117.42 1064.96 Z" fill="#000000" fill-rule="nonzero" fill-opacity="1" /><path clip-path="url(#clip920)" d="M1211.04 1052.07 L1240.71 1052.07 L1240.71 1056 L1211.04 1056 L1211.04 1052.07 Z" fill="#000000" fill-rule="nonzero" fill-opacity="1" /><path clip-path="url(#clip920)" d="M1251.62 1064.96 L1259.25 1064.96 L1259.25 1038.6 L1250.94 1040.26 L1250.94 1036 L1259.21 1034.34 L1263.88 1034.34 L1263.88 1064.96 L1271.52 1064.96 L1271.52 1068.9 L1251.62 1068.9 L1251.62 1064.96 Z" fill="#000000" fill-rule="nonzero" fill-opacity="1" /><path clip-path="url(#clip920)" d="M1281.78 1064.96 L1289.42 1064.96 L1289.42 1038.6 L1281.11 1040.26 L1281.11 1036 L1289.37 1034.34 L1294.05 1034.34 L1294.05 1064.96 L1301.68 1064.96 L1301.68 1068.9 L1281.78 1068.9 L1281.78 1064.96 Z" fill="#000000" fill-rule="nonzero" fill-opacity="1" /><path clip-path="url(#clip920)" d="M1378.19 1052.07 L1407.86 1052.07 L1407.86 1056 L1378.19 1056 L1378.19 1052.07 Z" fill="#000000" fill-rule="nonzero" fill-opacity="1" /><path clip-path="url(#clip920)" d="M1418.77 1064.96 L1426.4 1064.96 L1426.4 1038.6 L1418.09 1040.26 L1418.09 1036 L1426.36 1034.34 L1431.03 1034.34 L1431.03 1064.96 L1438.67 1064.96 L1438.67 1068.9 L1418.77 1068.9 L1418.77 1064.96 Z" fill="#000000" fill-rule="nonzero" fill-opacity="1" /><path clip-path="url(#clip920)" d="M1458.12 1037.42 Q1454.51 1037.42 1452.68 1040.98 Q1450.87 1044.52 1450.87 1051.65 Q1450.87 1058.76 1452.68 1062.32 Q1454.51 1065.87 1458.12 1065.87 Q1461.75 1065.87 1463.56 1062.32 Q1465.39 1058.76 1465.39 1051.65 Q1465.39 1044.52 1463.56 1040.98 Q1461.75 1037.42 1458.12 1037.42 M1458.12 1033.71 Q1463.93 1033.71 1466.98 1038.32 Q1470.06 1042.9 1470.06 1051.65 Q1470.06 1060.38 1466.98 1064.99 Q1463.93 1069.57 1458.12 1069.57 Q1452.31 1069.57 1449.23 1064.99 Q1446.17 1060.38 1446.17 1051.65 Q1446.17 1042.9 1449.23 1038.32 Q1452.31 1033.71 1458.12 1033.71 Z" fill="#000000" fill-rule="nonzero" fill-opacity="1" /><path clip-path="url(#clip920)" d="M791.746 1139.04 Q784.648 1139.04 781.911 1140.67 Q779.173 1142.29 779.173 1146.2 Q779.173 1149.32 781.21 1151.17 Q783.279 1152.98 786.812 1152.98 Q791.682 1152.98 794.61 1149.55 Q797.57 1146.08 797.57 1140.35 L797.57 1139.04 L791.746 1139.04 M803.427 1136.62 L803.427 1156.96 L797.57 1156.96 L797.57 1151.55 Q795.565 1154.8 792.573 1156.36 Q789.581 1157.88 785.253 1157.88 Q779.778 1157.88 776.532 1154.83 Q773.317 1151.74 773.317 1146.59 Q773.317 1140.57 777.327 1137.51 Q781.369 1134.46 789.358 1134.46 L797.57 1134.46 L797.57 1133.89 Q797.57 1129.84 794.897 1127.65 Q792.255 1125.42 787.449 1125.42 Q784.393 1125.42 781.497 1126.15 Q778.6 1126.88 775.927 1128.35 L775.927 1122.94 Q779.141 1121.7 782.165 1121.09 Q785.189 1120.45 788.053 1120.45 Q795.788 1120.45 799.607 1124.46 Q803.427 1128.48 803.427 1136.62 Z" fill="#000000" fill-rule="nonzero" fill-opacity="1" /><path clip-path="url(#clip920)" d="M838.215 1122.36 L838.215 1127.9 Q835.733 1126.63 833.059 1125.99 Q830.385 1125.36 827.521 1125.36 Q823.16 1125.36 820.964 1126.69 Q818.8 1128.03 818.8 1130.7 Q818.8 1132.74 820.359 1133.92 Q821.919 1135.06 826.63 1136.11 L828.635 1136.56 Q834.873 1137.9 837.483 1140.35 Q840.125 1142.77 840.125 1147.13 Q840.125 1152.09 836.178 1154.99 Q832.263 1157.88 825.388 1157.88 Q822.524 1157.88 819.405 1157.31 Q816.317 1156.77 812.88 1155.66 L812.88 1149.61 Q816.126 1151.3 819.277 1152.16 Q822.428 1152.98 825.516 1152.98 Q829.653 1152.98 831.881 1151.58 Q834.109 1150.15 834.109 1147.57 Q834.109 1145.19 832.486 1143.91 Q830.895 1142.64 825.452 1141.46 L823.415 1140.98 Q817.972 1139.84 815.553 1137.48 Q813.134 1135.1 813.134 1130.96 Q813.134 1125.93 816.699 1123.19 Q820.264 1120.45 826.821 1120.45 Q830.067 1120.45 832.932 1120.93 Q835.796 1121.41 838.215 1122.36 Z" fill="#000000" fill-rule="nonzero" fill-opacity="1" /><path clip-path="url(#clip920)" d="M872.176 1122.36 L872.176 1127.9 Q869.694 1126.63 867.02 1125.99 Q864.346 1125.36 861.482 1125.36 Q857.121 1125.36 854.925 1126.69 Q852.761 1128.03 852.761 1130.7 Q852.761 1132.74 854.32 1133.92 Q855.88 1135.06 860.591 1136.11 L862.596 1136.56 Q868.834 1137.9 871.444 1140.35 Q874.086 1142.77 874.086 1147.13 Q874.086 1152.09 870.139 1154.99 Q866.224 1157.88 859.349 1157.88 Q856.485 1157.88 853.366 1157.31 Q850.278 1156.77 846.841 1155.66 L846.841 1149.61 Q850.087 1151.3 853.238 1152.16 Q856.389 1152.98 859.477 1152.98 Q863.614 1152.98 865.842 1151.58 Q868.07 1150.15 868.07 1147.57 Q868.07 1145.19 866.447 1143.91 Q864.856 1142.64 859.413 1141.46 L857.376 1140.98 Q851.933 1139.84 849.514 1137.48 Q847.095 1135.1 847.095 1130.96 Q847.095 1125.93 850.66 1123.19 Q854.225 1120.45 860.782 1120.45 Q864.028 1120.45 866.893 1120.93 Q869.757 1121.41 872.176 1122.36 Z" fill="#000000" fill-rule="nonzero" fill-opacity="1" /><path clip-path="url(#clip920)" d="M913.903 1137.67 L913.903 1140.54 L886.977 1140.54 Q887.358 1146.59 890.605 1149.77 Q893.883 1152.92 899.708 1152.92 Q903.082 1152.92 906.233 1152.09 Q909.416 1151.26 912.535 1149.61 L912.535 1155.15 Q909.384 1156.48 906.074 1157.18 Q902.763 1157.88 899.358 1157.88 Q890.828 1157.88 885.831 1152.92 Q880.865 1147.95 880.865 1139.49 Q880.865 1130.74 885.576 1125.61 Q890.319 1120.45 898.339 1120.45 Q905.533 1120.45 909.702 1125.1 Q913.903 1129.72 913.903 1137.67 M908.047 1135.95 Q907.983 1131.15 905.342 1128.28 Q902.732 1125.42 898.403 1125.42 Q893.501 1125.42 890.541 1128.19 Q887.613 1130.96 887.167 1135.99 L908.047 1135.95 Z" fill="#000000" fill-rule="nonzero" fill-opacity="1" /><path clip-path="url(#clip920)" d="M929.308 1111.19 L929.308 1121.31 L941.371 1121.31 L941.371 1125.87 L929.308 1125.87 L929.308 1145.22 Q929.308 1149.58 930.486 1150.82 Q931.696 1152.06 935.356 1152.06 L941.371 1152.06 L941.371 1156.96 L935.356 1156.96 Q928.576 1156.96 925.998 1154.45 Q923.42 1151.9 923.42 1145.22 L923.42 1125.87 L919.123 1125.87 L919.123 1121.31 L923.42 1121.31 L923.42 1111.19 L929.308 1111.19 Z" fill="#000000" fill-rule="nonzero" fill-opacity="1" /><path clip-path="url(#clip920)" d="M971.8 1122.36 L971.8 1127.9 Q969.317 1126.63 966.643 1125.99 Q963.97 1125.36 961.105 1125.36 Q956.745 1125.36 954.548 1126.69 Q952.384 1128.03 952.384 1130.7 Q952.384 1132.74 953.944 1133.92 Q955.503 1135.06 960.214 1136.11 L962.219 1136.56 Q968.458 1137.9 971.068 1140.35 Q973.709 1142.77 973.709 1147.13 Q973.709 1152.09 969.763 1154.99 Q965.848 1157.88 958.973 1157.88 Q956.108 1157.88 952.989 1157.31 Q949.902 1156.77 946.464 1155.66 L946.464 1149.61 Q949.711 1151.3 952.862 1152.16 Q956.013 1152.98 959.1 1152.98 Q963.238 1152.98 965.466 1151.58 Q967.694 1150.15 967.694 1147.57 Q967.694 1145.19 966.07 1143.91 Q964.479 1142.64 959.036 1141.46 L956.999 1140.98 Q951.557 1139.84 949.138 1137.48 Q946.719 1135.1 946.719 1130.96 Q946.719 1125.93 950.283 1123.19 Q953.848 1120.45 960.405 1120.45 Q963.651 1120.45 966.516 1120.93 Q969.381 1121.41 971.8 1122.36 Z" fill="#000000" fill-rule="nonzero" fill-opacity="1" /><path clip-path="url(#clip920)" d="M1019.96 1139.04 Q1012.86 1139.04 1010.12 1140.67 Q1007.38 1142.29 1007.38 1146.2 Q1007.38 1149.32 1009.42 1151.17 Q1011.49 1152.98 1015.02 1152.98 Q1019.89 1152.98 1022.82 1149.55 Q1025.78 1146.08 1025.78 1140.35 L1025.78 1139.04 L1019.96 1139.04 M1031.64 1136.62 L1031.64 1156.96 L1025.78 1156.96 L1025.78 1151.55 Q1023.78 1154.8 1020.78 1156.36 Q1017.79 1157.88 1013.46 1157.88 Q1007.99 1157.88 1004.74 1154.83 Q1001.53 1151.74 1001.53 1146.59 Q1001.53 1140.57 1005.54 1137.51 Q1009.58 1134.46 1017.57 1134.46 L1025.78 1134.46 L1025.78 1133.89 Q1025.78 1129.84 1023.11 1127.65 Q1020.47 1125.42 1015.66 1125.42 Q1012.6 1125.42 1009.71 1126.15 Q1006.81 1126.88 1004.14 1128.35 L1004.14 1122.94 Q1007.35 1121.7 1010.38 1121.09 Q1013.4 1120.45 1016.26 1120.45 Q1024 1120.45 1027.82 1124.46 Q1031.64 1128.48 1031.64 1136.62 Z" fill="#000000" fill-rule="nonzero" fill-opacity="1" /><polyline clip-path="url(#clip920)" style="stroke:#000000; stroke-linecap:round; stroke-linejoin:round; stroke-width:4; stroke-opacity:1; fill:none" points="270.068,1000.1 270.068,47.2441 "/>
<polyline clip-path="url(#clip920)" style="stroke:#000000; stroke-linecap:round; stroke-linejoin:round; stroke-width:4; stroke-opacity:1; fill:none" points="270.068,973.169 288.966,973.169 "/>
<polyline clip-path="url(#clip920)" style="stroke:#000000; stroke-linecap:round; stroke-linejoin:round; stroke-width:4; stroke-opacity:1; fill:none" points="270.068,711.59 288.966,711.59 "/>
<polyline clip-path="url(#clip920)" style="stroke:#000000; stroke-linecap:round; stroke-linejoin:round; stroke-width:4; stroke-opacity:1; fill:none" points="270.068,450.01 288.966,450.01 "/>
<polyline clip-path="url(#clip920)" style="stroke:#000000; stroke-linecap:round; stroke-linejoin:round; stroke-width:4; stroke-opacity:1; fill:none" points="270.068,188.431 288.966,188.431 "/>
<path clip-path="url(#clip920)" d="M164.893 958.968 Q161.282 958.968 159.453 962.533 Q157.647 966.075 157.647 973.204 Q157.647 980.311 159.453 983.875 Q161.282 987.417 164.893 987.417 Q168.527 987.417 170.333 983.875 Q172.161 980.311 172.161 973.204 Q172.161 966.075 170.333 962.533 Q168.527 958.968 164.893 958.968 M164.893 955.264 Q170.703 955.264 173.758 959.871 Q176.837 964.454 176.837 973.204 Q176.837 981.931 173.758 986.537 Q170.703 991.121 164.893 991.121 Q159.083 991.121 156.004 986.537 Q152.948 981.931 152.948 973.204 Q152.948 964.454 156.004 959.871 Q159.083 955.264 164.893 955.264 Z" fill="#000000" fill-rule="nonzero" fill-opacity="1" /><path clip-path="url(#clip920)" d="M185.055 984.57 L189.939 984.57 L189.939 990.449 L185.055 990.449 L185.055 984.57 Z" fill="#000000" fill-rule="nonzero" fill-opacity="1" /><path clip-path="url(#clip920)" d="M210.124 958.968 Q206.513 958.968 204.684 962.533 Q202.879 966.075 202.879 973.204 Q202.879 980.311 204.684 983.875 Q206.513 987.417 210.124 987.417 Q213.758 987.417 215.564 983.875 Q217.392 980.311 217.392 973.204 Q217.392 966.075 215.564 962.533 Q213.758 958.968 210.124 958.968 M210.124 955.264 Q215.934 955.264 218.99 959.871 Q222.068 964.454 222.068 973.204 Q222.068 981.931 218.99 986.537 Q215.934 991.121 210.124 991.121 Q204.314 991.121 201.235 986.537 Q198.18 981.931 198.18 973.204 Q198.18 964.454 201.235 959.871 Q204.314 955.264 210.124 955.264 Z" fill="#000000" fill-rule="nonzero" fill-opacity="1" /><path clip-path="url(#clip920)" d="M166.49 697.388 Q162.879 697.388 161.05 700.953 Q159.245 704.495 159.245 711.625 Q159.245 718.731 161.05 722.296 Q162.879 725.837 166.49 725.837 Q170.124 725.837 171.93 722.296 Q173.758 718.731 173.758 711.625 Q173.758 704.495 171.93 700.953 Q170.124 697.388 166.49 697.388 M166.49 693.685 Q172.3 693.685 175.356 698.291 Q178.434 702.875 178.434 711.625 Q178.434 720.351 175.356 724.958 Q172.3 729.541 166.49 729.541 Q160.68 729.541 157.601 724.958 Q154.546 720.351 154.546 711.625 Q154.546 702.875 157.601 698.291 Q160.68 693.685 166.49 693.685 Z" fill="#000000" fill-rule="nonzero" fill-opacity="1" /><path clip-path="url(#clip920)" d="M186.652 722.99 L191.536 722.99 L191.536 728.87 L186.652 728.87 L186.652 722.99 Z" fill="#000000" fill-rule="nonzero" fill-opacity="1" /><path clip-path="url(#clip920)" d="M205.749 724.935 L222.068 724.935 L222.068 728.87 L200.124 728.87 L200.124 724.935 Q202.786 722.18 207.369 717.55 Q211.976 712.898 213.156 711.555 Q215.402 709.032 216.281 707.296 Q217.184 705.537 217.184 703.847 Q217.184 701.092 215.24 699.356 Q213.318 697.62 210.217 697.62 Q208.018 697.62 205.564 698.384 Q203.133 699.148 200.356 700.699 L200.356 695.976 Q203.18 694.842 205.633 694.264 Q208.087 693.685 210.124 693.685 Q215.494 693.685 218.689 696.37 Q221.883 699.055 221.883 703.546 Q221.883 705.675 221.073 707.597 Q220.286 709.495 218.18 712.087 Q217.601 712.759 214.499 715.976 Q211.397 719.171 205.749 724.935 Z" fill="#000000" fill-rule="nonzero" fill-opacity="1" /><path clip-path="url(#clip920)" d="M164.407 435.809 Q160.796 435.809 158.967 439.374 Q157.161 442.915 157.161 450.045 Q157.161 457.151 158.967 460.716 Q160.796 464.258 164.407 464.258 Q168.041 464.258 169.846 460.716 Q171.675 457.151 171.675 450.045 Q171.675 442.915 169.846 439.374 Q168.041 435.809 164.407 435.809 M164.407 432.105 Q170.217 432.105 173.272 436.712 Q176.351 441.295 176.351 450.045 Q176.351 458.772 173.272 463.378 Q170.217 467.962 164.407 467.962 Q158.597 467.962 155.518 463.378 Q152.462 458.772 152.462 450.045 Q152.462 441.295 155.518 436.712 Q158.597 432.105 164.407 432.105 Z" fill="#000000" fill-rule="nonzero" fill-opacity="1" /><path clip-path="url(#clip920)" d="M184.569 461.411 L189.453 461.411 L189.453 467.29 L184.569 467.29 L184.569 461.411 Z" fill="#000000" fill-rule="nonzero" fill-opacity="1" /><path clip-path="url(#clip920)" d="M212.485 436.804 L200.68 455.253 L212.485 455.253 L212.485 436.804 M211.258 432.73 L217.138 432.73 L217.138 455.253 L222.068 455.253 L222.068 459.142 L217.138 459.142 L217.138 467.29 L212.485 467.29 L212.485 459.142 L196.883 459.142 L196.883 454.628 L211.258 432.73 Z" fill="#000000" fill-rule="nonzero" fill-opacity="1" /><path clip-path="url(#clip920)" d="M164.731 174.229 Q161.12 174.229 159.291 177.794 Q157.485 181.336 157.485 188.465 Q157.485 195.572 159.291 199.137 Q161.12 202.678 164.731 202.678 Q168.365 202.678 170.171 199.137 Q171.999 195.572 171.999 188.465 Q171.999 181.336 170.171 177.794 Q168.365 174.229 164.731 174.229 M164.731 170.526 Q170.541 170.526 173.596 175.132 Q176.675 179.715 176.675 188.465 Q176.675 197.192 173.596 201.799 Q170.541 206.382 164.731 206.382 Q158.921 206.382 155.842 201.799 Q152.786 197.192 152.786 188.465 Q152.786 179.715 155.842 175.132 Q158.921 170.526 164.731 170.526 Z" fill="#000000" fill-rule="nonzero" fill-opacity="1" /><path clip-path="url(#clip920)" d="M184.893 199.831 L189.777 199.831 L189.777 205.711 L184.893 205.711 L184.893 199.831 Z" fill="#000000" fill-rule="nonzero" fill-opacity="1" /><path clip-path="url(#clip920)" d="M210.541 186.567 Q207.393 186.567 205.541 188.72 Q203.712 190.873 203.712 194.623 Q203.712 198.35 205.541 200.525 Q207.393 202.678 210.541 202.678 Q213.689 202.678 215.518 200.525 Q217.369 198.35 217.369 194.623 Q217.369 190.873 215.518 188.72 Q213.689 186.567 210.541 186.567 M219.823 171.915 L219.823 176.174 Q218.064 175.34 216.258 174.901 Q214.476 174.461 212.717 174.461 Q208.087 174.461 205.633 177.586 Q203.203 180.711 202.856 187.03 Q204.221 185.016 206.281 183.951 Q208.342 182.864 210.818 182.864 Q216.027 182.864 219.036 186.035 Q222.068 189.183 222.068 194.623 Q222.068 199.947 218.92 203.164 Q215.772 206.382 210.541 206.382 Q204.545 206.382 201.374 201.799 Q198.203 197.192 198.203 188.465 Q198.203 180.271 202.092 175.41 Q205.981 170.526 212.531 170.526 Q214.291 170.526 216.073 170.873 Q217.879 171.22 219.823 171.915 Z" fill="#000000" fill-rule="nonzero" fill-opacity="1" /><path clip-path="url(#clip920)" d="M55.927 775.578 L61.4015 775.578 Q60.0328 778.06 59.3644 780.575 Q58.6642 783.058 58.6642 785.604 Q58.6642 791.301 62.2927 794.452 Q65.8893 797.603 72.4141 797.603 Q78.939 797.603 82.5674 794.452 Q86.1641 791.301 86.1641 785.604 Q86.1641 783.058 85.4957 780.575 Q84.7954 778.06 83.4268 775.578 L88.8377 775.578 Q89.9835 778.029 90.5564 780.67 Q91.1293 783.28 91.1293 786.24 Q91.1293 794.293 86.0686 799.035 Q81.0078 803.778 72.4141 803.778 Q63.6931 803.778 58.696 799.004 Q53.699 794.198 53.699 785.858 Q53.699 783.153 54.2719 780.575 Q54.813 777.997 55.927 775.578 Z" fill="#000000" fill-rule="nonzero" fill-opacity="1" /><path clip-path="url(#clip920)" d="M58.6642 751.579 Q58.6642 756.29 62.3563 759.027 Q66.0166 761.764 72.4141 761.764 Q78.8117 761.764 82.5038 759.059 Q86.1641 756.322 86.1641 751.579 Q86.1641 746.9 82.4719 744.163 Q78.7798 741.426 72.4141 741.426 Q66.0803 741.426 62.3881 744.163 Q58.6642 746.9 58.6642 751.579 M53.699 751.579 Q53.699 743.94 58.6642 739.58 Q63.6295 735.219 72.4141 735.219 Q81.167 735.219 86.1641 739.58 Q91.1293 743.94 91.1293 751.579 Q91.1293 759.25 86.1641 763.61 Q81.167 767.939 72.4141 767.939 Q63.6295 767.939 58.6642 763.61 Q53.699 759.25 53.699 751.579 Z" fill="#000000" fill-rule="nonzero" fill-opacity="1" /><path clip-path="url(#clip920)" d="M68.6902 695.879 L90.2063 695.879 L90.2063 701.736 L68.8812 701.736 Q63.8204 701.736 61.306 703.709 Q58.7915 705.682 58.7915 709.629 Q58.7915 714.372 61.8152 717.109 Q64.8389 719.846 70.0588 719.846 L90.2063 719.846 L90.2063 725.734 L54.5583 725.734 L54.5583 719.846 L60.0965 719.846 Q56.8818 717.745 55.2904 714.913 Q53.699 712.048 53.699 708.324 Q53.699 702.181 57.5184 699.03 Q61.306 695.879 68.6902 695.879 Z" fill="#000000" fill-rule="nonzero" fill-opacity="1" /><path clip-path="url(#clip920)" d="M55.6087 661.473 L61.1468 661.473 Q59.8737 663.955 59.2371 666.629 Q58.6006 669.302 58.6006 672.167 Q58.6006 676.527 59.9373 678.724 Q61.2741 680.888 63.9477 680.888 Q65.9848 680.888 67.1624 679.328 Q68.3083 677.769 69.3586 673.058 L69.8042 671.053 Q71.141 664.815 73.5918 662.205 Q76.0108 659.563 80.3713 659.563 Q85.3365 659.563 88.2329 663.51 Q91.1293 667.424 91.1293 674.299 Q91.1293 677.164 90.5564 680.283 Q90.0153 683.371 88.9013 686.808 L82.8539 686.808 Q84.5408 683.562 85.4002 680.411 Q86.2277 677.259 86.2277 674.172 Q86.2277 670.034 84.8273 667.806 Q83.395 665.578 80.8169 665.578 Q78.4297 665.578 77.1566 667.202 Q75.8834 668.793 74.7058 674.236 L74.2284 676.273 Q73.0825 681.715 70.7272 684.134 Q68.3401 686.553 64.2024 686.553 Q59.1735 686.553 56.4362 682.989 Q53.699 679.424 53.699 672.867 Q53.699 669.621 54.1764 666.756 Q54.6538 663.892 55.6087 661.473 Z" fill="#000000" fill-rule="nonzero" fill-opacity="1" /><path clip-path="url(#clip920)" d="M76.1381 650.842 L54.5583 650.842 L54.5583 644.985 L75.9153 644.985 Q80.976 644.985 83.5223 643.012 Q86.0367 641.039 86.0367 637.092 Q86.0367 632.349 83.013 629.612 Q79.9893 626.843 74.7694 626.843 L54.5583 626.843 L54.5583 620.987 L90.2063 620.987 L90.2063 626.843 L84.7318 626.843 Q87.9783 628.976 89.5697 631.808 Q91.1293 634.609 91.1293 638.333 Q91.1293 644.476 87.3099 647.659 Q83.4905 650.842 76.1381 650.842 M53.699 636.105 L53.699 636.105 Z" fill="#000000" fill-rule="nonzero" fill-opacity="1" /><path clip-path="url(#clip920)" d="M61.4015 581.169 Q57.4547 578.973 55.5768 575.917 Q53.699 572.862 53.699 568.724 Q53.699 563.154 57.6139 560.13 Q61.4969 557.107 68.6902 557.107 L90.2063 557.107 L90.2063 562.995 L68.8812 562.995 Q63.7568 562.995 61.2741 564.809 Q58.7915 566.624 58.7915 570.347 Q58.7915 574.899 61.8152 577.541 Q64.8389 580.182 70.0588 580.182 L90.2063 580.182 L90.2063 586.071 L68.8812 586.071 Q63.7249 586.071 61.2741 587.885 Q58.7915 589.699 58.7915 593.487 Q58.7915 597.975 61.8471 600.616 Q64.8708 603.258 70.0588 603.258 L90.2063 603.258 L90.2063 609.146 L54.5583 609.146 L54.5583 603.258 L60.0965 603.258 Q56.8182 601.253 55.2586 598.452 Q53.699 595.651 53.699 591.8 Q53.699 587.917 55.6723 585.211 Q57.6457 582.474 61.4015 581.169 Z" fill="#000000" fill-rule="nonzero" fill-opacity="1" /><path clip-path="url(#clip920)" d="M84.8591 539.76 L103.765 539.76 L103.765 545.649 L54.5583 545.649 L54.5583 539.76 L59.9692 539.76 Q56.7863 537.914 55.2586 535.113 Q53.699 532.281 53.699 528.366 Q53.699 521.873 58.8552 517.83 Q64.0114 513.756 72.4141 513.756 Q80.8169 513.756 85.9731 517.83 Q91.1293 521.873 91.1293 528.366 Q91.1293 532.281 89.6015 535.113 Q88.0419 537.914 84.8591 539.76 M72.4141 519.836 Q65.9529 519.836 62.2927 522.509 Q58.6006 525.151 58.6006 529.798 Q58.6006 534.445 62.2927 537.118 Q65.9529 539.76 72.4141 539.76 Q78.8753 539.76 82.5674 537.118 Q86.2277 534.445 86.2277 529.798 Q86.2277 525.151 82.5674 522.509 Q78.8753 519.836 72.4141 519.836 Z" fill="#000000" fill-rule="nonzero" fill-opacity="1" /><path clip-path="url(#clip920)" d="M44.4369 498.256 L54.5583 498.256 L54.5583 486.193 L59.1098 486.193 L59.1098 498.256 L78.4616 498.256 Q82.8221 498.256 84.0634 497.078 Q85.3047 495.869 85.3047 492.208 L85.3047 486.193 L90.2063 486.193 L90.2063 492.208 Q90.2063 498.988 87.6918 501.566 Q85.1455 504.144 78.4616 504.144 L59.1098 504.144 L59.1098 508.441 L54.5583 508.441 L54.5583 504.144 L44.4369 504.144 L44.4369 498.256 Z" fill="#000000" fill-rule="nonzero" fill-opacity="1" /><path clip-path="url(#clip920)" d="M54.5583 478.49 L54.5583 472.634 L90.2063 472.634 L90.2063 478.49 L54.5583 478.49 M40.6811 478.49 L40.6811 472.634 L48.0971 472.634 L48.0971 478.49 L40.6811 478.49 Z" fill="#000000" fill-rule="nonzero" fill-opacity="1" /><path clip-path="url(#clip920)" d="M58.6642 446.566 Q58.6642 451.277 62.3563 454.014 Q66.0166 456.751 72.4141 456.751 Q78.8117 456.751 82.5038 454.046 Q86.1641 451.309 86.1641 446.566 Q86.1641 441.887 82.4719 439.15 Q78.7798 436.413 72.4141 436.413 Q66.0803 436.413 62.3881 439.15 Q58.6642 441.887 58.6642 446.566 M53.699 446.566 Q53.699 438.927 58.6642 434.567 Q63.6295 430.206 72.4141 430.206 Q81.167 430.206 86.1641 434.567 Q91.1293 438.927 91.1293 446.566 Q91.1293 454.237 86.1641 458.597 Q81.167 462.926 72.4141 462.926 Q63.6295 462.926 58.6642 458.597 Q53.699 454.237 53.699 446.566 Z" fill="#000000" fill-rule="nonzero" fill-opacity="1" /><path clip-path="url(#clip920)" d="M68.6902 390.866 L90.2063 390.866 L90.2063 396.723 L68.8812 396.723 Q63.8204 396.723 61.306 398.696 Q58.7915 400.67 58.7915 404.616 Q58.7915 409.359 61.8152 412.096 Q64.8389 414.833 70.0588 414.833 L90.2063 414.833 L90.2063 420.722 L54.5583 420.722 L54.5583 414.833 L60.0965 414.833 Q56.8818 412.733 55.2904 409.9 Q53.699 407.035 53.699 403.311 Q53.699 397.168 57.5184 394.017 Q61.306 390.866 68.6902 390.866 Z" fill="#000000" fill-rule="nonzero" fill-opacity="1" /><path clip-path="url(#clip920)" d="M55.927 332.811 L61.4015 332.811 Q60.0328 335.294 59.3644 337.808 Q58.6642 340.291 58.6642 342.837 Q58.6642 348.534 62.2927 351.685 Q65.8893 354.836 72.4141 354.836 Q78.939 354.836 82.5674 351.685 Q86.1641 348.534 86.1641 342.837 Q86.1641 340.291 85.4957 337.808 Q84.7954 335.294 83.4268 332.811 L88.8377 332.811 Q89.9835 335.262 90.5564 337.904 Q91.1293 340.514 91.1293 343.474 Q91.1293 351.526 86.0686 356.269 Q81.0078 361.011 72.4141 361.011 Q63.6931 361.011 58.696 356.237 Q53.699 351.431 53.699 343.092 Q53.699 340.386 54.2719 337.808 Q54.813 335.23 55.927 332.811 Z" fill="#000000" fill-rule="nonzero" fill-opacity="1" /><path clip-path="url(#clip920)" d="M40.7447 308.558 Q48.0653 312.823 55.2267 314.892 Q62.3881 316.96 69.7405 316.96 Q77.0929 316.96 84.318 314.892 Q91.5113 312.791 98.8 308.558 L98.8 313.65 Q91.3203 318.425 84.0952 320.812 Q76.8701 323.167 69.7405 323.167 Q62.6428 323.167 55.4495 320.812 Q48.2563 318.456 40.7447 313.65 L40.7447 308.558 Z" fill="#000000" fill-rule="nonzero" fill-opacity="1" /><path clip-path="url(#clip920)" d="M72.2868 280.994 Q72.2868 288.092 73.9101 290.829 Q75.5333 293.567 79.4482 293.567 Q82.5674 293.567 84.4135 291.529 Q86.2277 289.461 86.2277 285.928 Q86.2277 281.058 82.7902 278.13 Q79.3209 275.17 73.5918 275.17 L72.2868 275.17 L72.2868 280.994 M69.8679 269.313 L90.2063 269.313 L90.2063 275.17 L84.7954 275.17 Q88.0419 277.175 89.6015 280.167 Q91.1293 283.159 91.1293 287.487 Q91.1293 292.962 88.0738 296.208 Q84.9864 299.423 79.8302 299.423 Q73.8146 299.423 70.759 295.413 Q67.7035 291.37 67.7035 283.381 L67.7035 275.17 L67.1306 275.17 Q63.0884 275.17 60.8922 277.843 Q58.6642 280.485 58.6642 285.291 Q58.6642 288.347 59.3963 291.243 Q60.1283 294.139 61.5924 296.813 L56.1816 296.813 Q54.9403 293.598 54.3355 290.575 Q53.699 287.551 53.699 284.686 Q53.699 276.952 57.7094 273.133 Q61.7197 269.313 69.8679 269.313 Z" fill="#000000" fill-rule="nonzero" fill-opacity="1" /><path clip-path="url(#clip920)" d="M40.7447 258.173 L40.7447 253.081 Q48.2563 248.306 55.4495 245.951 Q62.6428 243.564 69.7405 243.564 Q76.8701 243.564 84.0952 245.951 Q91.3203 248.306 98.8 253.081 L98.8 258.173 Q91.5113 253.94 84.318 251.871 Q77.0929 249.77 69.7405 249.77 Q62.3881 249.77 55.2267 251.871 Q48.0653 253.94 40.7447 258.173 Z" fill="#000000" fill-rule="nonzero" fill-opacity="1" /><polyline clip-path="url(#clip922)" style="stroke:#009af9; stroke-linecap:round; stroke-linejoin:round; stroke-width:4; stroke-opacity:1; fill:none" points="305.865,973.13 306.148,972.996 306.995,972.626 308.407,971.846 310.384,970.565 312.926,968.741 316.032,966.356 319.704,963.402 323.94,959.88 328.741,955.794 334.107,951.152 340.038,945.961 346.534,940.234 353.594,933.98 361.219,927.213 369.41,919.946 378.165,912.194 387.484,903.973 397.369,895.298 407.819,886.186 418.833,876.653 430.412,866.717 442.556,856.395 455.265,845.704 468.539,834.663 482.378,823.287 496.781,811.595 511.749,799.604 527.282,787.33 543.38,774.789 560.043,761.998 577.271,748.972 595.063,735.727 613.42,722.275 632.342,708.632 651.829,694.81 671.881,680.822 692.498,666.68 713.679,652.395 735.426,637.979 757.737,623.44 780.613,608.789 804.054,594.034 828.059,579.184 852.63,564.246 877.765,549.226 903.465,534.132 929.731,518.969 956.56,503.742 983.955,488.457 1011.91,473.118 1040.44,457.727 1069.53,442.29 1099.18,426.809 1129.4,411.286 1160.19,395.724 1191.53,380.125 1223.45,364.49 1255.93,348.82 1288.97,333.117 1322.58,317.38 1356.75,301.612 1391.49,285.811 1426.79,269.978 1462.66,254.112 1499.09,238.213 "/>
<polyline clip-path="url(#clip922)" style="stroke:#e26f46; stroke-linecap:round; stroke-linejoin:round; stroke-width:4; stroke-opacity:1; fill:none" points="305.865,965.366 306.148,959.315 306.995,949.241 308.407,937.079 310.384,923.85 312.926,910.093 316.032,896.086 319.704,881.977 323.94,867.841 328.741,853.721 334.107,839.638 340.038,825.602 346.534,811.616 353.594,797.681 361.219,783.794 369.41,769.953 378.165,756.152 387.484,742.389 397.369,728.659 407.819,714.958 418.833,701.282 430.412,687.627 442.556,673.99 455.265,660.367 468.539,646.756 482.378,633.152 496.781,619.555 511.749,605.96 527.282,592.365 543.38,578.769 560.043,565.169 577.271,551.562 595.063,537.948 613.42,524.324 632.342,510.688 651.829,497.04 671.881,483.376 692.498,469.696 713.679,455.997 735.426,442.28 757.737,428.541 780.613,414.78 804.054,400.995 828.059,387.186 852.63,373.349 877.765,359.485 903.465,345.591 929.731,331.667 956.56,317.711 983.955,303.721 1011.91,289.696 1040.44,275.636 1069.53,261.538 1099.18,247.401 1129.4,233.224 1160.19,219.005 1191.53,204.743 1223.45,190.437 1255.93,176.084 1288.97,161.685 1322.58,147.236 1356.75,132.738 1391.49,118.187 1426.79,103.584 1462.66,88.9258 1499.09,74.2116 "/>
<path clip-path="url(#clip920)" d="M1081.01 968.336 L1492.73 968.336 L1492.73 812.816 L1081.01 812.816  Z" fill="#ffffff" fill-rule="evenodd" fill-opacity="1"/>
<polyline clip-path="url(#clip920)" style="stroke:#000000; stroke-linecap:round; stroke-linejoin:round; stroke-width:4; stroke-opacity:1; fill:none" points="1081.01,968.336 1492.73,968.336 1492.73,812.816 1081.01,812.816 1081.01,968.336 "/>
<polyline clip-path="url(#clip920)" style="stroke:#009af9; stroke-linecap:round; stroke-linejoin:round; stroke-width:4; stroke-opacity:1; fill:none" points="1095.07,864.656 1179.39,864.656 "/>
<path clip-path="url(#clip920)" d="M1193.44 845.918 L1197.7 845.918 L1197.7 881.936 L1193.44 881.936 L1193.44 845.918 Z" fill="#000000" fill-rule="nonzero" fill-opacity="1" /><path clip-path="url(#clip920)" d="M1216.66 858.996 Q1213.23 858.996 1211.24 861.681 Q1209.25 864.343 1209.25 868.996 Q1209.25 873.649 1211.22 876.334 Q1213.21 878.996 1216.66 878.996 Q1220.06 878.996 1222.05 876.311 Q1224.04 873.626 1224.04 868.996 Q1224.04 864.39 1222.05 861.705 Q1220.06 858.996 1216.66 858.996 M1216.66 855.385 Q1222.21 855.385 1225.39 858.996 Q1228.56 862.607 1228.56 868.996 Q1228.56 875.362 1225.39 878.996 Q1222.21 882.607 1216.66 882.607 Q1211.08 882.607 1207.91 878.996 Q1204.76 875.362 1204.76 868.996 Q1204.76 862.607 1207.91 858.996 Q1211.08 855.385 1216.66 855.385 Z" fill="#000000" fill-rule="nonzero" fill-opacity="1" /><path clip-path="url(#clip920)" d="M1233.14 856.01 L1237.4 856.01 L1242.72 876.242 L1248.02 856.01 L1253.05 856.01 L1258.37 876.242 L1263.67 856.01 L1267.93 856.01 L1261.15 881.936 L1256.13 881.936 L1250.55 860.686 L1244.95 881.936 L1239.92 881.936 L1233.14 856.01 Z" fill="#000000" fill-rule="nonzero" fill-opacity="1" /><path clip-path="url(#clip920)" d="M1289.46 856.01 L1293.72 856.01 L1293.72 881.936 L1289.46 881.936 L1289.46 856.01 M1289.46 845.918 L1293.72 845.918 L1293.72 851.311 L1289.46 851.311 L1289.46 845.918 Z" fill="#000000" fill-rule="nonzero" fill-opacity="1" /><path clip-path="url(#clip920)" d="M1324.18 866.288 L1324.18 881.936 L1319.92 881.936 L1319.92 866.427 Q1319.92 862.746 1318.49 860.918 Q1317.05 859.089 1314.18 859.089 Q1310.73 859.089 1308.74 861.288 Q1306.75 863.487 1306.75 867.283 L1306.75 881.936 L1302.47 881.936 L1302.47 856.01 L1306.75 856.01 L1306.75 860.038 Q1308.28 857.7 1310.34 856.543 Q1312.42 855.385 1315.13 855.385 Q1319.6 855.385 1321.89 858.163 Q1324.18 860.918 1324.18 866.288 Z" fill="#000000" fill-rule="nonzero" fill-opacity="1" /><path clip-path="url(#clip920)" d="M1351.33 857.006 L1351.33 860.987 Q1349.53 859.992 1347.7 859.505 Q1345.89 858.996 1344.04 858.996 Q1339.9 858.996 1337.61 861.635 Q1335.32 864.251 1335.32 868.996 Q1335.32 873.742 1337.61 876.38 Q1339.9 878.996 1344.04 878.996 Q1345.89 878.996 1347.7 878.51 Q1349.53 878.001 1351.33 877.005 L1351.33 880.941 Q1349.55 881.774 1347.63 882.191 Q1345.73 882.607 1343.58 882.607 Q1337.72 882.607 1334.27 878.927 Q1330.83 875.246 1330.83 868.996 Q1330.83 862.654 1334.3 859.019 Q1337.79 855.385 1343.86 855.385 Q1345.83 855.385 1347.7 855.802 Q1349.58 856.195 1351.33 857.006 Z" fill="#000000" fill-rule="nonzero" fill-opacity="1" /><path clip-path="url(#clip920)" d="M1368.79 858.996 Q1365.36 858.996 1363.37 861.681 Q1361.38 864.343 1361.38 868.996 Q1361.38 873.649 1363.35 876.334 Q1365.34 878.996 1368.79 878.996 Q1372.19 878.996 1374.18 876.311 Q1376.17 873.626 1376.17 868.996 Q1376.17 864.39 1374.18 861.705 Q1372.19 858.996 1368.79 858.996 M1368.79 855.385 Q1374.34 855.385 1377.51 858.996 Q1380.69 862.607 1380.69 868.996 Q1380.69 875.362 1377.51 878.996 Q1374.34 882.607 1368.79 882.607 Q1363.21 882.607 1360.04 878.996 Q1356.89 875.362 1356.89 868.996 Q1356.89 862.607 1360.04 858.996 Q1363.21 855.385 1368.79 855.385 Z" fill="#000000" fill-rule="nonzero" fill-opacity="1" /><path clip-path="url(#clip920)" d="M1407.93 860.987 Q1409.53 858.117 1411.75 856.751 Q1413.97 855.385 1416.98 855.385 Q1421.03 855.385 1423.23 858.232 Q1425.43 861.056 1425.43 866.288 L1425.43 881.936 L1421.15 881.936 L1421.15 866.427 Q1421.15 862.7 1419.83 860.894 Q1418.51 859.089 1415.8 859.089 Q1412.49 859.089 1410.57 861.288 Q1408.65 863.487 1408.65 867.283 L1408.65 881.936 L1404.37 881.936 L1404.37 866.427 Q1404.37 862.677 1403.05 860.894 Q1401.73 859.089 1398.97 859.089 Q1395.71 859.089 1393.79 861.311 Q1391.87 863.51 1391.87 867.283 L1391.87 881.936 L1387.58 881.936 L1387.58 856.01 L1391.87 856.01 L1391.87 860.038 Q1393.32 857.654 1395.36 856.519 Q1397.4 855.385 1400.2 855.385 Q1403.02 855.385 1404.99 856.82 Q1406.98 858.256 1407.93 860.987 Z" fill="#000000" fill-rule="nonzero" fill-opacity="1" /><path clip-path="url(#clip920)" d="M1456.1 867.908 L1456.1 869.992 L1436.52 869.992 Q1436.8 874.39 1439.16 876.704 Q1441.54 878.996 1445.78 878.996 Q1448.23 878.996 1450.52 878.394 Q1452.84 877.792 1455.11 876.589 L1455.11 880.616 Q1452.82 881.589 1450.41 882.098 Q1448 882.607 1445.52 882.607 Q1439.32 882.607 1435.69 878.996 Q1432.07 875.385 1432.07 869.228 Q1432.07 862.862 1435.5 859.135 Q1438.95 855.385 1444.78 855.385 Q1450.01 855.385 1453.05 858.765 Q1456.1 862.121 1456.1 867.908 M1451.84 866.658 Q1451.8 863.163 1449.88 861.08 Q1447.98 858.996 1444.83 858.996 Q1441.26 858.996 1439.11 861.01 Q1436.98 863.024 1436.66 866.681 L1451.84 866.658 Z" fill="#000000" fill-rule="nonzero" fill-opacity="1" /><polyline clip-path="url(#clip920)" style="stroke:#e26f46; stroke-linecap:round; stroke-linejoin:round; stroke-width:4; stroke-opacity:1; fill:none" points="1095.07,916.496 1179.39,916.496 "/>
<path clip-path="url(#clip920)" d="M1215.15 918.128 L1215.15 933.776 L1210.9 933.776 L1210.9 918.267 Q1210.9 914.586 1209.46 912.758 Q1208.02 910.929 1205.15 910.929 Q1201.71 910.929 1199.71 913.128 Q1197.72 915.327 1197.72 919.123 L1197.72 933.776 L1193.44 933.776 L1193.44 897.758 L1197.72 897.758 L1197.72 911.878 Q1199.25 909.54 1201.31 908.383 Q1203.4 907.225 1206.1 907.225 Q1210.57 907.225 1212.86 910.003 Q1215.15 912.758 1215.15 918.128 Z" fill="#000000" fill-rule="nonzero" fill-opacity="1" /><path clip-path="url(#clip920)" d="M1223.65 907.85 L1227.91 907.85 L1227.91 933.776 L1223.65 933.776 L1223.65 907.85 M1223.65 897.758 L1227.91 897.758 L1227.91 903.151 L1223.65 903.151 L1223.65 897.758 Z" fill="#000000" fill-rule="nonzero" fill-opacity="1" /><path clip-path="url(#clip920)" d="M1253.88 920.512 Q1253.88 915.883 1251.96 913.336 Q1250.06 910.79 1246.61 910.79 Q1243.19 910.79 1241.27 913.336 Q1239.37 915.883 1239.37 920.512 Q1239.37 925.119 1241.27 927.665 Q1243.19 930.211 1246.61 930.211 Q1250.06 930.211 1251.96 927.665 Q1253.88 925.119 1253.88 920.512 M1258.14 930.558 Q1258.14 937.179 1255.2 940.396 Q1252.26 943.637 1246.2 943.637 Q1243.95 943.637 1241.96 943.29 Q1239.97 942.966 1238.09 942.271 L1238.09 938.128 Q1239.97 939.146 1241.8 939.632 Q1243.63 940.118 1245.52 940.118 Q1249.71 940.118 1251.8 937.919 Q1253.88 935.744 1253.88 931.322 L1253.88 929.216 Q1252.56 931.507 1250.5 932.642 Q1248.44 933.776 1245.57 933.776 Q1240.8 933.776 1237.89 930.142 Q1234.97 926.507 1234.97 920.512 Q1234.97 914.494 1237.89 910.859 Q1240.8 907.225 1245.57 907.225 Q1248.44 907.225 1250.5 908.359 Q1252.56 909.494 1253.88 911.785 L1253.88 907.85 L1258.14 907.85 L1258.14 930.558 Z" fill="#000000" fill-rule="nonzero" fill-opacity="1" /><path clip-path="url(#clip920)" d="M1288.46 918.128 L1288.46 933.776 L1284.2 933.776 L1284.2 918.267 Q1284.2 914.586 1282.77 912.758 Q1281.33 910.929 1278.46 910.929 Q1275.02 910.929 1273.02 913.128 Q1271.03 915.327 1271.03 919.123 L1271.03 933.776 L1266.75 933.776 L1266.75 897.758 L1271.03 897.758 L1271.03 911.878 Q1272.56 909.54 1274.62 908.383 Q1276.71 907.225 1279.41 907.225 Q1283.88 907.225 1286.17 910.003 Q1288.46 912.758 1288.46 918.128 Z" fill="#000000" fill-rule="nonzero" fill-opacity="1" /><path clip-path="url(#clip920)" d="M1312.03 907.85 L1316.29 907.85 L1316.29 933.776 L1312.03 933.776 L1312.03 907.85 M1312.03 897.758 L1316.29 897.758 L1316.29 903.151 L1312.03 903.151 L1312.03 897.758 Z" fill="#000000" fill-rule="nonzero" fill-opacity="1" /><path clip-path="url(#clip920)" d="M1346.75 918.128 L1346.75 933.776 L1342.49 933.776 L1342.49 918.267 Q1342.49 914.586 1341.06 912.758 Q1339.62 910.929 1336.75 910.929 Q1333.3 910.929 1331.31 913.128 Q1329.32 915.327 1329.32 919.123 L1329.32 933.776 L1325.04 933.776 L1325.04 907.85 L1329.32 907.85 L1329.32 911.878 Q1330.85 909.54 1332.91 908.383 Q1334.99 907.225 1337.7 907.225 Q1342.17 907.225 1344.46 910.003 Q1346.75 912.758 1346.75 918.128 Z" fill="#000000" fill-rule="nonzero" fill-opacity="1" /><path clip-path="url(#clip920)" d="M1373.9 908.846 L1373.9 912.827 Q1372.1 911.832 1370.27 911.345 Q1368.46 910.836 1366.61 910.836 Q1362.47 910.836 1360.18 913.475 Q1357.89 916.091 1357.89 920.836 Q1357.89 925.582 1360.18 928.22 Q1362.47 930.836 1366.61 930.836 Q1368.46 930.836 1370.27 930.35 Q1372.1 929.841 1373.9 928.845 L1373.9 932.781 Q1372.12 933.614 1370.2 934.031 Q1368.3 934.447 1366.15 934.447 Q1360.29 934.447 1356.84 930.767 Q1353.39 927.086 1353.39 920.836 Q1353.39 914.494 1356.87 910.859 Q1360.36 907.225 1366.43 907.225 Q1368.39 907.225 1370.27 907.642 Q1372.14 908.035 1373.9 908.846 Z" fill="#000000" fill-rule="nonzero" fill-opacity="1" /><path clip-path="url(#clip920)" d="M1391.36 910.836 Q1387.93 910.836 1385.94 913.521 Q1383.95 916.183 1383.95 920.836 Q1383.95 925.489 1385.92 928.174 Q1387.91 930.836 1391.36 930.836 Q1394.76 930.836 1396.75 928.151 Q1398.74 925.466 1398.74 920.836 Q1398.74 916.23 1396.75 913.545 Q1394.76 910.836 1391.36 910.836 M1391.36 907.225 Q1396.91 907.225 1400.08 910.836 Q1403.26 914.447 1403.26 920.836 Q1403.26 927.202 1400.08 930.836 Q1396.91 934.447 1391.36 934.447 Q1385.78 934.447 1382.61 930.836 Q1379.46 927.202 1379.46 920.836 Q1379.46 914.447 1382.61 910.836 Q1385.78 907.225 1391.36 907.225 Z" fill="#000000" fill-rule="nonzero" fill-opacity="1" /><path clip-path="url(#clip920)" d="M1430.5 912.827 Q1432.1 909.957 1434.32 908.591 Q1436.54 907.225 1439.55 907.225 Q1443.6 907.225 1445.8 910.072 Q1448 912.896 1448 918.128 L1448 933.776 L1443.72 933.776 L1443.72 918.267 Q1443.72 914.54 1442.4 912.734 Q1441.08 910.929 1438.37 910.929 Q1435.06 910.929 1433.14 913.128 Q1431.22 915.327 1431.22 919.123 L1431.22 933.776 L1426.94 933.776 L1426.94 918.267 Q1426.94 914.517 1425.62 912.734 Q1424.3 910.929 1421.54 910.929 Q1418.28 910.929 1416.36 913.151 Q1414.44 915.35 1414.44 919.123 L1414.44 933.776 L1410.15 933.776 L1410.15 907.85 L1414.44 907.85 L1414.44 911.878 Q1415.89 909.494 1417.93 908.359 Q1419.97 907.225 1422.77 907.225 Q1425.59 907.225 1427.56 908.66 Q1429.55 910.096 1430.5 912.827 Z" fill="#000000" fill-rule="nonzero" fill-opacity="1" /><path clip-path="url(#clip920)" d="M1478.67 919.748 L1478.67 921.832 L1459.09 921.832 Q1459.37 926.23 1461.73 928.544 Q1464.11 930.836 1468.35 930.836 Q1470.8 930.836 1473.09 930.234 Q1475.41 929.632 1477.68 928.429 L1477.68 932.456 Q1475.38 933.429 1472.98 933.938 Q1470.57 934.447 1468.09 934.447 Q1461.89 934.447 1458.25 930.836 Q1454.64 927.225 1454.64 921.068 Q1454.64 914.702 1458.07 910.975 Q1461.52 907.225 1467.35 907.225 Q1472.58 907.225 1475.62 910.605 Q1478.67 913.961 1478.67 919.748 M1474.41 918.498 Q1474.37 915.003 1472.44 912.92 Q1470.55 910.836 1467.4 910.836 Q1463.83 910.836 1461.68 912.85 Q1459.55 914.864 1459.23 918.521 L1474.41 918.498 Z" fill="#000000" fill-rule="nonzero" fill-opacity="1" /><path clip-path="url(#clip920)" d="M1887.94 1000.1 L3152.76 1000.1 L3152.76 47.2441 L1887.94 47.2441  Z" fill="#ffffff" fill-rule="evenodd" fill-opacity="1"/>
<polyline clip-path="url(#clip921)" style="stroke:#000000; stroke-linecap:round; stroke-linejoin:round; stroke-width:2; stroke-opacity:0.1; fill:none" points="2035.41,1000.1 2035.41,47.2441 "/>
<polyline clip-path="url(#clip921)" style="stroke:#000000; stroke-linecap:round; stroke-linejoin:round; stroke-width:2; stroke-opacity:0.1; fill:none" points="2203.17,1000.1 2203.17,47.2441 "/>
<polyline clip-path="url(#clip921)" style="stroke:#000000; stroke-linecap:round; stroke-linejoin:round; stroke-width:2; stroke-opacity:0.1; fill:none" points="2370.94,1000.1 2370.94,47.2441 "/>
<polyline clip-path="url(#clip921)" style="stroke:#000000; stroke-linecap:round; stroke-linejoin:round; stroke-width:2; stroke-opacity:0.1; fill:none" points="2538.7,1000.1 2538.7,47.2441 "/>
<polyline clip-path="url(#clip921)" style="stroke:#000000; stroke-linecap:round; stroke-linejoin:round; stroke-width:2; stroke-opacity:0.1; fill:none" points="2706.47,1000.1 2706.47,47.2441 "/>
<polyline clip-path="url(#clip921)" style="stroke:#000000; stroke-linecap:round; stroke-linejoin:round; stroke-width:2; stroke-opacity:0.1; fill:none" points="2874.23,1000.1 2874.23,47.2441 "/>
<polyline clip-path="url(#clip921)" style="stroke:#000000; stroke-linecap:round; stroke-linejoin:round; stroke-width:2; stroke-opacity:0.1; fill:none" points="3042,1000.1 3042,47.2441 "/>
<polyline clip-path="url(#clip921)" style="stroke:#000000; stroke-linecap:round; stroke-linejoin:round; stroke-width:2; stroke-opacity:0.1; fill:none" points="1887.94,873.683 3152.76,873.683 "/>
<polyline clip-path="url(#clip921)" style="stroke:#000000; stroke-linecap:round; stroke-linejoin:round; stroke-width:2; stroke-opacity:0.1; fill:none" points="1887.94,739.775 3152.76,739.775 "/>
<polyline clip-path="url(#clip921)" style="stroke:#000000; stroke-linecap:round; stroke-linejoin:round; stroke-width:2; stroke-opacity:0.1; fill:none" points="1887.94,605.867 3152.76,605.867 "/>
<polyline clip-path="url(#clip921)" style="stroke:#000000; stroke-linecap:round; stroke-linejoin:round; stroke-width:2; stroke-opacity:0.1; fill:none" points="1887.94,471.96 3152.76,471.96 "/>
<polyline clip-path="url(#clip921)" style="stroke:#000000; stroke-linecap:round; stroke-linejoin:round; stroke-width:2; stroke-opacity:0.1; fill:none" points="1887.94,338.052 3152.76,338.052 "/>
<polyline clip-path="url(#clip921)" style="stroke:#000000; stroke-linecap:round; stroke-linejoin:round; stroke-width:2; stroke-opacity:0.1; fill:none" points="1887.94,204.145 3152.76,204.145 "/>
<polyline clip-path="url(#clip921)" style="stroke:#000000; stroke-linecap:round; stroke-linejoin:round; stroke-width:2; stroke-opacity:0.1; fill:none" points="1887.94,70.2371 3152.76,70.2371 "/>
<polyline clip-path="url(#clip920)" style="stroke:#000000; stroke-linecap:round; stroke-linejoin:round; stroke-width:4; stroke-opacity:1; fill:none" points="1887.94,1000.1 3152.76,1000.1 "/>
<polyline clip-path="url(#clip920)" style="stroke:#000000; stroke-linecap:round; stroke-linejoin:round; stroke-width:4; stroke-opacity:1; fill:none" points="2035.41,1000.1 2035.41,981.2 "/>
<polyline clip-path="url(#clip920)" style="stroke:#000000; stroke-linecap:round; stroke-linejoin:round; stroke-width:4; stroke-opacity:1; fill:none" points="2203.17,1000.1 2203.17,981.2 "/>
<polyline clip-path="url(#clip920)" style="stroke:#000000; stroke-linecap:round; stroke-linejoin:round; stroke-width:4; stroke-opacity:1; fill:none" points="2370.94,1000.1 2370.94,981.2 "/>
<polyline clip-path="url(#clip920)" style="stroke:#000000; stroke-linecap:round; stroke-linejoin:round; stroke-width:4; stroke-opacity:1; fill:none" points="2538.7,1000.1 2538.7,981.2 "/>
<polyline clip-path="url(#clip920)" style="stroke:#000000; stroke-linecap:round; stroke-linejoin:round; stroke-width:4; stroke-opacity:1; fill:none" points="2706.47,1000.1 2706.47,981.2 "/>
<polyline clip-path="url(#clip920)" style="stroke:#000000; stroke-linecap:round; stroke-linejoin:round; stroke-width:4; stroke-opacity:1; fill:none" points="2874.23,1000.1 2874.23,981.2 "/>
<polyline clip-path="url(#clip920)" style="stroke:#000000; stroke-linecap:round; stroke-linejoin:round; stroke-width:4; stroke-opacity:1; fill:none" points="3042,1000.1 3042,981.2 "/>
<path clip-path="url(#clip920)" d="M1989.39 1052.07 L2019.07 1052.07 L2019.07 1056 L1989.39 1056 L1989.39 1052.07 Z" fill="#000000" fill-rule="nonzero" fill-opacity="1" /><path clip-path="url(#clip920)" d="M2029.97 1064.96 L2037.61 1064.96 L2037.61 1038.6 L2029.3 1040.26 L2029.3 1036 L2037.56 1034.34 L2042.24 1034.34 L2042.24 1064.96 L2049.88 1064.96 L2049.88 1068.9 L2029.97 1068.9 L2029.97 1064.96 Z" fill="#000000" fill-rule="nonzero" fill-opacity="1" /><path clip-path="url(#clip920)" d="M2069.9 1049.75 Q2066.75 1049.75 2064.9 1051.91 Q2063.07 1054.06 2063.07 1057.81 Q2063.07 1061.54 2064.9 1063.71 Q2066.75 1065.87 2069.9 1065.87 Q2073.05 1065.87 2074.88 1063.71 Q2076.73 1061.54 2076.73 1057.81 Q2076.73 1054.06 2074.88 1051.91 Q2073.05 1049.75 2069.9 1049.75 M2079.18 1035.1 L2079.18 1039.36 Q2077.42 1038.53 2075.62 1038.09 Q2073.84 1037.65 2072.08 1037.65 Q2067.45 1037.65 2064.99 1040.77 Q2062.56 1043.9 2062.22 1050.22 Q2063.58 1048.2 2065.64 1047.14 Q2067.7 1046.05 2070.18 1046.05 Q2075.39 1046.05 2078.4 1049.22 Q2081.43 1052.37 2081.43 1057.81 Q2081.43 1063.13 2078.28 1066.35 Q2075.13 1069.57 2069.9 1069.57 Q2063.91 1069.57 2060.73 1064.99 Q2057.56 1060.38 2057.56 1051.65 Q2057.56 1043.46 2061.45 1038.6 Q2065.34 1033.71 2071.89 1033.71 Q2073.65 1033.71 2075.43 1034.06 Q2077.24 1034.41 2079.18 1035.1 Z" fill="#000000" fill-rule="nonzero" fill-opacity="1" /><path clip-path="url(#clip920)" d="M2157.73 1052.07 L2187.41 1052.07 L2187.41 1056 L2157.73 1056 L2157.73 1052.07 Z" fill="#000000" fill-rule="nonzero" fill-opacity="1" /><path clip-path="url(#clip920)" d="M2198.31 1064.96 L2205.95 1064.96 L2205.95 1038.6 L2197.64 1040.26 L2197.64 1036 L2205.91 1034.34 L2210.58 1034.34 L2210.58 1064.96 L2218.22 1064.96 L2218.22 1068.9 L2198.31 1068.9 L2198.31 1064.96 Z" fill="#000000" fill-rule="nonzero" fill-opacity="1" /><path clip-path="url(#clip920)" d="M2227.71 1034.34 L2246.07 1034.34 L2246.07 1038.27 L2231.99 1038.27 L2231.99 1046.75 Q2233.01 1046.4 2234.03 1046.24 Q2235.05 1046.05 2236.07 1046.05 Q2241.85 1046.05 2245.23 1049.22 Q2248.61 1052.39 2248.61 1057.81 Q2248.61 1063.39 2245.14 1066.49 Q2241.67 1069.57 2235.35 1069.57 Q2233.17 1069.57 2230.91 1069.2 Q2228.66 1068.83 2226.25 1068.09 L2226.25 1063.39 Q2228.34 1064.52 2230.56 1065.08 Q2232.78 1065.63 2235.26 1065.63 Q2239.26 1065.63 2241.6 1063.53 Q2243.94 1061.42 2243.94 1057.81 Q2243.94 1054.2 2241.6 1052.09 Q2239.26 1049.99 2235.26 1049.99 Q2233.38 1049.99 2231.51 1050.4 Q2229.66 1050.82 2227.71 1051.7 L2227.71 1034.34 Z" fill="#000000" fill-rule="nonzero" fill-opacity="1" /><path clip-path="url(#clip920)" d="M2324.76 1052.07 L2354.43 1052.07 L2354.43 1056 L2324.76 1056 L2324.76 1052.07 Z" fill="#000000" fill-rule="nonzero" fill-opacity="1" /><path clip-path="url(#clip920)" d="M2365.34 1064.96 L2372.98 1064.96 L2372.98 1038.6 L2364.67 1040.26 L2364.67 1036 L2372.93 1034.34 L2377.61 1034.34 L2377.61 1064.96 L2385.24 1064.96 L2385.24 1068.9 L2365.34 1068.9 L2365.34 1064.96 Z" fill="#000000" fill-rule="nonzero" fill-opacity="1" /><path clip-path="url(#clip920)" d="M2407.54 1038.41 L2395.73 1056.86 L2407.54 1056.86 L2407.54 1038.41 M2406.31 1034.34 L2412.19 1034.34 L2412.19 1056.86 L2417.12 1056.86 L2417.12 1060.75 L2412.19 1060.75 L2412.19 1068.9 L2407.54 1068.9 L2407.54 1060.75 L2391.93 1060.75 L2391.93 1056.24 L2406.31 1034.34 Z" fill="#000000" fill-rule="nonzero" fill-opacity="1" /><path clip-path="url(#clip920)" d="M2493.09 1052.07 L2522.77 1052.07 L2522.77 1056 L2493.09 1056 L2493.09 1052.07 Z" fill="#000000" fill-rule="nonzero" fill-opacity="1" /><path clip-path="url(#clip920)" d="M2533.67 1064.96 L2541.31 1064.96 L2541.31 1038.6 L2533 1040.26 L2533 1036 L2541.26 1034.34 L2545.94 1034.34 L2545.94 1064.96 L2553.58 1064.96 L2553.58 1068.9 L2533.67 1068.9 L2533.67 1064.96 Z" fill="#000000" fill-rule="nonzero" fill-opacity="1" /><path clip-path="url(#clip920)" d="M2577.19 1050.26 Q2580.54 1050.98 2582.42 1053.25 Q2584.32 1055.52 2584.32 1058.85 Q2584.32 1063.97 2580.8 1066.77 Q2577.28 1069.57 2570.8 1069.57 Q2568.62 1069.57 2566.31 1069.13 Q2564.02 1068.71 2561.56 1067.86 L2561.56 1063.34 Q2563.51 1064.48 2565.82 1065.06 Q2568.14 1065.63 2570.66 1065.63 Q2575.06 1065.63 2577.35 1063.9 Q2579.66 1062.16 2579.66 1058.85 Q2579.66 1055.8 2577.51 1054.08 Q2575.38 1052.35 2571.56 1052.35 L2567.53 1052.35 L2567.53 1048.5 L2571.75 1048.5 Q2575.2 1048.5 2577.02 1047.14 Q2578.85 1045.75 2578.85 1043.16 Q2578.85 1040.5 2576.95 1039.08 Q2575.08 1037.65 2571.56 1037.65 Q2569.64 1037.65 2567.44 1038.06 Q2565.24 1038.48 2562.6 1039.36 L2562.6 1035.19 Q2565.27 1034.45 2567.58 1034.08 Q2569.92 1033.71 2571.98 1033.71 Q2577.3 1033.71 2580.4 1036.14 Q2583.51 1038.55 2583.51 1042.67 Q2583.51 1045.54 2581.86 1047.53 Q2580.22 1049.5 2577.19 1050.26 Z" fill="#000000" fill-rule="nonzero" fill-opacity="1" /><path clip-path="url(#clip920)" d="M2661.33 1052.07 L2691 1052.07 L2691 1056 L2661.33 1056 L2661.33 1052.07 Z" fill="#000000" fill-rule="nonzero" fill-opacity="1" /><path clip-path="url(#clip920)" d="M2701.91 1064.96 L2709.55 1064.96 L2709.55 1038.6 L2701.24 1040.26 L2701.24 1036 L2709.5 1034.34 L2714.18 1034.34 L2714.18 1064.96 L2721.81 1064.96 L2721.81 1068.9 L2701.91 1068.9 L2701.91 1064.96 Z" fill="#000000" fill-rule="nonzero" fill-opacity="1" /><path clip-path="url(#clip920)" d="M2735.29 1064.96 L2751.61 1064.96 L2751.61 1068.9 L2729.66 1068.9 L2729.66 1064.96 Q2732.32 1062.21 2736.91 1057.58 Q2741.51 1052.93 2742.69 1051.58 Q2744.94 1049.06 2745.82 1047.32 Q2746.72 1045.56 2746.72 1043.87 Q2746.72 1041.12 2744.78 1039.38 Q2742.86 1037.65 2739.75 1037.65 Q2737.55 1037.65 2735.1 1038.41 Q2732.67 1039.18 2729.89 1040.73 L2729.89 1036 Q2732.72 1034.87 2735.17 1034.29 Q2737.62 1033.71 2739.66 1033.71 Q2745.03 1033.71 2748.23 1036.4 Q2751.42 1039.08 2751.42 1043.57 Q2751.42 1045.7 2750.61 1047.62 Q2749.82 1049.52 2747.72 1052.12 Q2747.14 1052.79 2744.04 1056 Q2740.93 1059.2 2735.29 1064.96 Z" fill="#000000" fill-rule="nonzero" fill-opacity="1" /><path clip-path="url(#clip920)" d="M2828.91 1052.07 L2858.58 1052.07 L2858.58 1056 L2828.91 1056 L2828.91 1052.07 Z" fill="#000000" fill-rule="nonzero" fill-opacity="1" /><path clip-path="url(#clip920)" d="M2869.49 1064.96 L2877.12 1064.96 L2877.12 1038.6 L2868.81 1040.26 L2868.81 1036 L2877.08 1034.34 L2881.75 1034.34 L2881.75 1064.96 L2889.39 1064.96 L2889.39 1068.9 L2869.49 1068.9 L2869.49 1064.96 Z" fill="#000000" fill-rule="nonzero" fill-opacity="1" /><path clip-path="url(#clip920)" d="M2899.65 1064.96 L2907.29 1064.96 L2907.29 1038.6 L2898.98 1040.26 L2898.98 1036 L2907.24 1034.34 L2911.92 1034.34 L2911.92 1064.96 L2919.55 1064.96 L2919.55 1068.9 L2899.65 1068.9 L2899.65 1064.96 Z" fill="#000000" fill-rule="nonzero" fill-opacity="1" /><path clip-path="url(#clip920)" d="M2996.06 1052.07 L3025.73 1052.07 L3025.73 1056 L2996.06 1056 L2996.06 1052.07 Z" fill="#000000" fill-rule="nonzero" fill-opacity="1" /><path clip-path="url(#clip920)" d="M3036.64 1064.96 L3044.28 1064.96 L3044.28 1038.6 L3035.97 1040.26 L3035.97 1036 L3044.23 1034.34 L3048.9 1034.34 L3048.9 1064.96 L3056.54 1064.96 L3056.54 1068.9 L3036.64 1068.9 L3036.64 1064.96 Z" fill="#000000" fill-rule="nonzero" fill-opacity="1" /><path clip-path="url(#clip920)" d="M3075.99 1037.42 Q3072.38 1037.42 3070.55 1040.98 Q3068.74 1044.52 3068.74 1051.65 Q3068.74 1058.76 3070.55 1062.32 Q3072.38 1065.87 3075.99 1065.87 Q3079.62 1065.87 3081.43 1062.32 Q3083.26 1058.76 3083.26 1051.65 Q3083.26 1044.52 3081.43 1040.98 Q3079.62 1037.42 3075.99 1037.42 M3075.99 1033.71 Q3081.8 1033.71 3084.85 1038.32 Q3087.93 1042.9 3087.93 1051.65 Q3087.93 1060.38 3084.85 1064.99 Q3081.8 1069.57 3075.99 1069.57 Q3070.18 1069.57 3067.1 1064.99 Q3064.04 1060.38 3064.04 1051.65 Q3064.04 1042.9 3067.1 1038.32 Q3070.18 1033.71 3075.99 1033.71 Z" fill="#000000" fill-rule="nonzero" fill-opacity="1" /><path clip-path="url(#clip920)" d="M2409.62 1139.04 Q2402.52 1139.04 2399.78 1140.67 Q2397.04 1142.29 2397.04 1146.2 Q2397.04 1149.32 2399.08 1151.17 Q2401.15 1152.98 2404.68 1152.98 Q2409.55 1152.98 2412.48 1149.55 Q2415.44 1146.08 2415.44 1140.35 L2415.44 1139.04 L2409.62 1139.04 M2421.3 1136.62 L2421.3 1156.96 L2415.44 1156.96 L2415.44 1151.55 Q2413.44 1154.8 2410.44 1156.36 Q2407.45 1157.88 2403.12 1157.88 Q2397.65 1157.88 2394.4 1154.83 Q2391.19 1151.74 2391.19 1146.59 Q2391.19 1140.57 2395.2 1137.51 Q2399.24 1134.46 2407.23 1134.46 L2415.44 1134.46 L2415.44 1133.89 Q2415.44 1129.84 2412.77 1127.65 Q2410.13 1125.42 2405.32 1125.42 Q2402.26 1125.42 2399.37 1126.15 Q2396.47 1126.88 2393.8 1128.35 L2393.8 1122.94 Q2397.01 1121.7 2400.04 1121.09 Q2403.06 1120.45 2405.92 1120.45 Q2413.66 1120.45 2417.48 1124.46 Q2421.3 1128.48 2421.3 1136.62 Z" fill="#000000" fill-rule="nonzero" fill-opacity="1" /><path clip-path="url(#clip920)" d="M2456.09 1122.36 L2456.09 1127.9 Q2453.6 1126.63 2450.93 1125.99 Q2448.26 1125.36 2445.39 1125.36 Q2441.03 1125.36 2438.83 1126.69 Q2436.67 1128.03 2436.67 1130.7 Q2436.67 1132.74 2438.23 1133.92 Q2439.79 1135.06 2444.5 1136.11 L2446.51 1136.56 Q2452.74 1137.9 2455.35 1140.35 Q2458 1142.77 2458 1147.13 Q2458 1152.09 2454.05 1154.99 Q2450.13 1157.88 2443.26 1157.88 Q2440.39 1157.88 2437.27 1157.31 Q2434.19 1156.77 2430.75 1155.66 L2430.75 1149.61 Q2434 1151.3 2437.15 1152.16 Q2440.3 1152.98 2443.39 1152.98 Q2447.52 1152.98 2449.75 1151.58 Q2451.98 1150.15 2451.98 1147.57 Q2451.98 1145.19 2450.36 1143.91 Q2448.76 1142.64 2443.32 1141.46 L2441.29 1140.98 Q2435.84 1139.84 2433.42 1137.48 Q2431 1135.1 2431 1130.96 Q2431 1125.93 2434.57 1123.19 Q2438.13 1120.45 2444.69 1120.45 Q2447.94 1120.45 2450.8 1120.93 Q2453.67 1121.41 2456.09 1122.36 Z" fill="#000000" fill-rule="nonzero" fill-opacity="1" /><path clip-path="url(#clip920)" d="M2490.05 1122.36 L2490.05 1127.9 Q2487.56 1126.63 2484.89 1125.99 Q2482.22 1125.36 2479.35 1125.36 Q2474.99 1125.36 2472.8 1126.69 Q2470.63 1128.03 2470.63 1130.7 Q2470.63 1132.74 2472.19 1133.92 Q2473.75 1135.06 2478.46 1136.11 L2480.47 1136.56 Q2486.7 1137.9 2489.31 1140.35 Q2491.96 1142.77 2491.96 1147.13 Q2491.96 1152.09 2488.01 1154.99 Q2484.09 1157.88 2477.22 1157.88 Q2474.36 1157.88 2471.24 1157.31 Q2468.15 1156.77 2464.71 1155.66 L2464.71 1149.61 Q2467.96 1151.3 2471.11 1152.16 Q2474.26 1152.98 2477.35 1152.98 Q2481.48 1152.98 2483.71 1151.58 Q2485.94 1150.15 2485.94 1147.57 Q2485.94 1145.19 2484.32 1143.91 Q2482.73 1142.64 2477.28 1141.46 L2475.25 1140.98 Q2469.8 1139.84 2467.38 1137.48 Q2464.97 1135.1 2464.97 1130.96 Q2464.97 1125.93 2468.53 1123.19 Q2472.1 1120.45 2478.65 1120.45 Q2481.9 1120.45 2484.76 1120.93 Q2487.63 1121.41 2490.05 1122.36 Z" fill="#000000" fill-rule="nonzero" fill-opacity="1" /><path clip-path="url(#clip920)" d="M2531.77 1137.67 L2531.77 1140.54 L2504.85 1140.54 Q2505.23 1146.59 2508.48 1149.77 Q2511.75 1152.92 2517.58 1152.92 Q2520.95 1152.92 2524.1 1152.09 Q2527.29 1151.26 2530.41 1149.61 L2530.41 1155.15 Q2527.25 1156.48 2523.94 1157.18 Q2520.63 1157.88 2517.23 1157.88 Q2508.7 1157.88 2503.7 1152.92 Q2498.74 1147.95 2498.74 1139.49 Q2498.74 1130.74 2503.45 1125.61 Q2508.19 1120.45 2516.21 1120.45 Q2523.4 1120.45 2527.57 1125.1 Q2531.77 1129.72 2531.77 1137.67 M2525.92 1135.95 Q2525.85 1131.15 2523.21 1128.28 Q2520.6 1125.42 2516.27 1125.42 Q2511.37 1125.42 2508.41 1128.19 Q2505.48 1130.96 2505.04 1135.99 L2525.92 1135.95 Z" fill="#000000" fill-rule="nonzero" fill-opacity="1" /><path clip-path="url(#clip920)" d="M2547.18 1111.19 L2547.18 1121.31 L2559.24 1121.31 L2559.24 1125.87 L2547.18 1125.87 L2547.18 1145.22 Q2547.18 1149.58 2548.36 1150.82 Q2549.57 1152.06 2553.23 1152.06 L2559.24 1152.06 L2559.24 1156.96 L2553.23 1156.96 Q2546.45 1156.96 2543.87 1154.45 Q2541.29 1151.9 2541.29 1145.22 L2541.29 1125.87 L2536.99 1125.87 L2536.99 1121.31 L2541.29 1121.31 L2541.29 1111.19 L2547.18 1111.19 Z" fill="#000000" fill-rule="nonzero" fill-opacity="1" /><path clip-path="url(#clip920)" d="M2589.67 1122.36 L2589.67 1127.9 Q2587.19 1126.63 2584.51 1125.99 Q2581.84 1125.36 2578.98 1125.36 Q2574.61 1125.36 2572.42 1126.69 Q2570.25 1128.03 2570.25 1130.7 Q2570.25 1132.74 2571.81 1133.92 Q2573.37 1135.06 2578.08 1136.11 L2580.09 1136.56 Q2586.33 1137.9 2588.94 1140.35 Q2591.58 1142.77 2591.58 1147.13 Q2591.58 1152.09 2587.63 1154.99 Q2583.72 1157.88 2576.84 1157.88 Q2573.98 1157.88 2570.86 1157.31 Q2567.77 1156.77 2564.33 1155.66 L2564.33 1149.61 Q2567.58 1151.3 2570.73 1152.16 Q2573.88 1152.98 2576.97 1152.98 Q2581.11 1152.98 2583.34 1151.58 Q2585.56 1150.15 2585.56 1147.57 Q2585.56 1145.19 2583.94 1143.91 Q2582.35 1142.64 2576.91 1141.46 L2574.87 1140.98 Q2569.43 1139.84 2567.01 1137.48 Q2564.59 1135.1 2564.59 1130.96 Q2564.59 1125.93 2568.15 1123.19 Q2571.72 1120.45 2578.28 1120.45 Q2581.52 1120.45 2584.39 1120.93 Q2587.25 1121.41 2589.67 1122.36 Z" fill="#000000" fill-rule="nonzero" fill-opacity="1" /><path clip-path="url(#clip920)" d="M2637.83 1139.04 Q2630.73 1139.04 2627.99 1140.67 Q2625.25 1142.29 2625.25 1146.2 Q2625.25 1149.32 2627.29 1151.17 Q2629.36 1152.98 2632.89 1152.98 Q2637.76 1152.98 2640.69 1149.55 Q2643.65 1146.08 2643.65 1140.35 L2643.65 1139.04 L2637.83 1139.04 M2649.51 1136.62 L2649.51 1156.96 L2643.65 1156.96 L2643.65 1151.55 Q2641.65 1154.8 2638.65 1156.36 Q2635.66 1157.88 2631.33 1157.88 Q2625.86 1157.88 2622.61 1154.83 Q2619.4 1151.74 2619.4 1146.59 Q2619.4 1140.57 2623.41 1137.51 Q2627.45 1134.46 2635.44 1134.46 L2643.65 1134.46 L2643.65 1133.89 Q2643.65 1129.84 2640.98 1127.65 Q2638.34 1125.42 2633.53 1125.42 Q2630.47 1125.42 2627.58 1126.15 Q2624.68 1126.88 2622.01 1128.35 L2622.01 1122.94 Q2625.22 1121.7 2628.25 1121.09 Q2631.27 1120.45 2634.13 1120.45 Q2641.87 1120.45 2645.69 1124.46 Q2649.51 1128.48 2649.51 1136.62 Z" fill="#000000" fill-rule="nonzero" fill-opacity="1" /><polyline clip-path="url(#clip920)" style="stroke:#000000; stroke-linecap:round; stroke-linejoin:round; stroke-width:4; stroke-opacity:1; fill:none" points="1887.94,1000.1 1887.94,47.2441 "/>
<polyline clip-path="url(#clip920)" style="stroke:#000000; stroke-linecap:round; stroke-linejoin:round; stroke-width:4; stroke-opacity:1; fill:none" points="1887.94,873.683 1906.84,873.683 "/>
<polyline clip-path="url(#clip920)" style="stroke:#000000; stroke-linecap:round; stroke-linejoin:round; stroke-width:4; stroke-opacity:1; fill:none" points="1887.94,739.775 1906.84,739.775 "/>
<polyline clip-path="url(#clip920)" style="stroke:#000000; stroke-linecap:round; stroke-linejoin:round; stroke-width:4; stroke-opacity:1; fill:none" points="1887.94,605.867 1906.84,605.867 "/>
<polyline clip-path="url(#clip920)" style="stroke:#000000; stroke-linecap:round; stroke-linejoin:round; stroke-width:4; stroke-opacity:1; fill:none" points="1887.94,471.96 1906.84,471.96 "/>
<polyline clip-path="url(#clip920)" style="stroke:#000000; stroke-linecap:round; stroke-linejoin:round; stroke-width:4; stroke-opacity:1; fill:none" points="1887.94,338.052 1906.84,338.052 "/>
<polyline clip-path="url(#clip920)" style="stroke:#000000; stroke-linecap:round; stroke-linejoin:round; stroke-width:4; stroke-opacity:1; fill:none" points="1887.94,204.145 1906.84,204.145 "/>
<polyline clip-path="url(#clip920)" style="stroke:#000000; stroke-linecap:round; stroke-linejoin:round; stroke-width:4; stroke-opacity:1; fill:none" points="1887.94,70.2371 1906.84,70.2371 "/>
<path clip-path="url(#clip920)" d="M1734.59 874.134 L1764.27 874.134 L1764.27 878.069 L1734.59 878.069 L1734.59 874.134 Z" fill="#000000" fill-rule="nonzero" fill-opacity="1" /><path clip-path="url(#clip920)" d="M1784.36 859.481 Q1780.75 859.481 1778.92 863.046 Q1777.11 866.588 1777.11 873.717 Q1777.11 880.824 1778.92 884.389 Q1780.75 887.93 1784.36 887.93 Q1787.99 887.93 1789.8 884.389 Q1791.63 880.824 1791.63 873.717 Q1791.63 866.588 1789.8 863.046 Q1787.99 859.481 1784.36 859.481 M1784.36 855.778 Q1790.17 855.778 1793.23 860.384 Q1796.3 864.967 1796.3 873.717 Q1796.3 882.444 1793.23 887.051 Q1790.17 891.634 1784.36 891.634 Q1778.55 891.634 1775.47 887.051 Q1772.42 882.444 1772.42 873.717 Q1772.42 864.967 1775.47 860.384 Q1778.55 855.778 1784.36 855.778 Z" fill="#000000" fill-rule="nonzero" fill-opacity="1" /><path clip-path="url(#clip920)" d="M1804.52 885.083 L1809.41 885.083 L1809.41 890.963 L1804.52 890.963 L1804.52 885.083 Z" fill="#000000" fill-rule="nonzero" fill-opacity="1" /><path clip-path="url(#clip920)" d="M1823.62 887.027 L1839.94 887.027 L1839.94 890.963 L1817.99 890.963 L1817.99 887.027 Q1820.66 884.273 1825.24 879.643 Q1829.85 874.991 1831.03 873.648 Q1833.27 871.125 1834.15 869.389 Q1835.05 867.629 1835.05 865.94 Q1835.05 863.185 1833.11 861.449 Q1831.19 859.713 1828.09 859.713 Q1825.89 859.713 1823.43 860.477 Q1821 861.241 1818.23 862.792 L1818.23 858.069 Q1821.05 856.935 1823.5 856.356 Q1825.96 855.778 1827.99 855.778 Q1833.36 855.778 1836.56 858.463 Q1839.75 861.148 1839.75 865.639 Q1839.75 867.768 1838.94 869.69 Q1838.16 871.588 1836.05 874.18 Q1835.47 874.852 1832.37 878.069 Q1829.27 881.264 1823.62 887.027 Z" fill="#000000" fill-rule="nonzero" fill-opacity="1" /><path clip-path="url(#clip920)" d="M1782.76 725.574 Q1779.15 725.574 1777.32 729.139 Q1775.52 732.68 1775.52 739.81 Q1775.52 746.916 1777.32 750.481 Q1779.15 754.023 1782.76 754.023 Q1786.4 754.023 1788.2 750.481 Q1790.03 746.916 1790.03 739.81 Q1790.03 732.68 1788.2 729.139 Q1786.4 725.574 1782.76 725.574 M1782.76 721.87 Q1788.57 721.87 1791.63 726.477 Q1794.71 731.06 1794.71 739.81 Q1794.71 748.537 1791.63 753.143 Q1788.57 757.726 1782.76 757.726 Q1776.95 757.726 1773.87 753.143 Q1770.82 748.537 1770.82 739.81 Q1770.82 731.06 1773.87 726.477 Q1776.95 721.87 1782.76 721.87 Z" fill="#000000" fill-rule="nonzero" fill-opacity="1" /><path clip-path="url(#clip920)" d="M1802.92 751.175 L1807.81 751.175 L1807.81 757.055 L1802.92 757.055 L1802.92 751.175 Z" fill="#000000" fill-rule="nonzero" fill-opacity="1" /><path clip-path="url(#clip920)" d="M1827.99 725.574 Q1824.38 725.574 1822.55 729.139 Q1820.75 732.68 1820.75 739.81 Q1820.75 746.916 1822.55 750.481 Q1824.38 754.023 1827.99 754.023 Q1831.63 754.023 1833.43 750.481 Q1835.26 746.916 1835.26 739.81 Q1835.26 732.68 1833.43 729.139 Q1831.63 725.574 1827.99 725.574 M1827.99 721.87 Q1833.8 721.87 1836.86 726.477 Q1839.94 731.06 1839.94 739.81 Q1839.94 748.537 1836.86 753.143 Q1833.8 757.726 1827.99 757.726 Q1822.18 757.726 1819.11 753.143 Q1816.05 748.537 1816.05 739.81 Q1816.05 731.06 1819.11 726.477 Q1822.18 721.87 1827.99 721.87 Z" fill="#000000" fill-rule="nonzero" fill-opacity="1" /><path clip-path="url(#clip920)" d="M1784.36 591.666 Q1780.75 591.666 1778.92 595.231 Q1777.11 598.773 1777.11 605.902 Q1777.11 613.009 1778.92 616.573 Q1780.75 620.115 1784.36 620.115 Q1787.99 620.115 1789.8 616.573 Q1791.63 613.009 1791.63 605.902 Q1791.63 598.773 1789.8 595.231 Q1787.99 591.666 1784.36 591.666 M1784.36 587.962 Q1790.17 587.962 1793.23 592.569 Q1796.3 597.152 1796.3 605.902 Q1796.3 614.629 1793.23 619.235 Q1790.17 623.819 1784.36 623.819 Q1778.55 623.819 1775.47 619.235 Q1772.42 614.629 1772.42 605.902 Q1772.42 597.152 1775.47 592.569 Q1778.55 587.962 1784.36 587.962 Z" fill="#000000" fill-rule="nonzero" fill-opacity="1" /><path clip-path="url(#clip920)" d="M1804.52 617.268 L1809.41 617.268 L1809.41 623.147 L1804.52 623.147 L1804.52 617.268 Z" fill="#000000" fill-rule="nonzero" fill-opacity="1" /><path clip-path="url(#clip920)" d="M1823.62 619.212 L1839.94 619.212 L1839.94 623.147 L1817.99 623.147 L1817.99 619.212 Q1820.66 616.458 1825.24 611.828 Q1829.85 607.175 1831.03 605.833 Q1833.27 603.31 1834.15 601.573 Q1835.05 599.814 1835.05 598.124 Q1835.05 595.37 1833.11 593.634 Q1831.19 591.898 1828.09 591.898 Q1825.89 591.898 1823.43 592.662 Q1821 593.425 1818.23 594.976 L1818.23 590.254 Q1821.05 589.12 1823.5 588.541 Q1825.96 587.962 1827.99 587.962 Q1833.36 587.962 1836.56 590.648 Q1839.75 593.333 1839.75 597.824 Q1839.75 599.953 1838.94 601.874 Q1838.16 603.773 1836.05 606.365 Q1835.47 607.036 1832.37 610.254 Q1829.27 613.448 1823.62 619.212 Z" fill="#000000" fill-rule="nonzero" fill-opacity="1" /><path clip-path="url(#clip920)" d="M1782.28 457.759 Q1778.67 457.759 1776.84 461.323 Q1775.03 464.865 1775.03 471.995 Q1775.03 479.101 1776.84 482.666 Q1778.67 486.207 1782.28 486.207 Q1785.91 486.207 1787.72 482.666 Q1789.55 479.101 1789.55 471.995 Q1789.55 464.865 1787.72 461.323 Q1785.91 457.759 1782.28 457.759 M1782.28 454.055 Q1788.09 454.055 1791.14 458.661 Q1794.22 463.245 1794.22 471.995 Q1794.22 480.721 1791.14 485.328 Q1788.09 489.911 1782.28 489.911 Q1776.47 489.911 1773.39 485.328 Q1770.33 480.721 1770.33 471.995 Q1770.33 463.245 1773.39 458.661 Q1776.47 454.055 1782.28 454.055 Z" fill="#000000" fill-rule="nonzero" fill-opacity="1" /><path clip-path="url(#clip920)" d="M1802.44 483.36 L1807.32 483.36 L1807.32 489.24 L1802.44 489.24 L1802.44 483.36 Z" fill="#000000" fill-rule="nonzero" fill-opacity="1" /><path clip-path="url(#clip920)" d="M1830.36 458.754 L1818.55 477.203 L1830.36 477.203 L1830.36 458.754 M1829.13 454.68 L1835.01 454.68 L1835.01 477.203 L1839.94 477.203 L1839.94 481.092 L1835.01 481.092 L1835.01 489.24 L1830.36 489.24 L1830.36 481.092 L1814.75 481.092 L1814.75 476.578 L1829.13 454.68 Z" fill="#000000" fill-rule="nonzero" fill-opacity="1" /><path clip-path="url(#clip920)" d="M1782.6 323.851 Q1778.99 323.851 1777.16 327.416 Q1775.36 330.957 1775.36 338.087 Q1775.36 345.193 1777.16 348.758 Q1778.99 352.3 1782.6 352.3 Q1786.24 352.3 1788.04 348.758 Q1789.87 345.193 1789.87 338.087 Q1789.87 330.957 1788.04 327.416 Q1786.24 323.851 1782.6 323.851 M1782.6 320.147 Q1788.41 320.147 1791.47 324.754 Q1794.55 329.337 1794.55 338.087 Q1794.55 346.814 1791.47 351.42 Q1788.41 356.004 1782.6 356.004 Q1776.79 356.004 1773.71 351.42 Q1770.66 346.814 1770.66 338.087 Q1770.66 329.337 1773.71 324.754 Q1776.79 320.147 1782.6 320.147 Z" fill="#000000" fill-rule="nonzero" fill-opacity="1" /><path clip-path="url(#clip920)" d="M1802.76 349.453 L1807.65 349.453 L1807.65 355.332 L1802.76 355.332 L1802.76 349.453 Z" fill="#000000" fill-rule="nonzero" fill-opacity="1" /><path clip-path="url(#clip920)" d="M1828.41 336.189 Q1825.26 336.189 1823.41 338.342 Q1821.58 340.494 1821.58 344.244 Q1821.58 347.971 1823.41 350.147 Q1825.26 352.3 1828.41 352.3 Q1831.56 352.3 1833.39 350.147 Q1835.24 347.971 1835.24 344.244 Q1835.24 340.494 1833.39 338.342 Q1831.56 336.189 1828.41 336.189 M1837.69 321.536 L1837.69 325.795 Q1835.93 324.962 1834.13 324.522 Q1832.35 324.082 1830.59 324.082 Q1825.96 324.082 1823.5 327.207 Q1821.07 330.332 1820.73 336.652 Q1822.09 334.638 1824.15 333.573 Q1826.21 332.485 1828.69 332.485 Q1833.9 332.485 1836.91 335.656 Q1839.94 338.805 1839.94 344.244 Q1839.94 349.568 1836.79 352.786 Q1833.64 356.004 1828.41 356.004 Q1822.42 356.004 1819.24 351.42 Q1816.07 346.814 1816.07 338.087 Q1816.07 329.893 1819.96 325.031 Q1823.85 320.147 1830.4 320.147 Q1832.16 320.147 1833.94 320.494 Q1835.75 320.842 1837.69 321.536 Z" fill="#000000" fill-rule="nonzero" fill-opacity="1" /><path clip-path="url(#clip920)" d="M1782.86 189.943 Q1779.24 189.943 1777.42 193.508 Q1775.61 197.05 1775.61 204.179 Q1775.61 211.286 1777.42 214.851 Q1779.24 218.392 1782.86 218.392 Q1786.49 218.392 1788.3 214.851 Q1790.12 211.286 1790.12 204.179 Q1790.12 197.05 1788.3 193.508 Q1786.49 189.943 1782.86 189.943 M1782.86 186.24 Q1788.67 186.24 1791.72 190.846 Q1794.8 195.429 1794.8 204.179 Q1794.8 212.906 1791.72 217.513 Q1788.67 222.096 1782.86 222.096 Q1777.05 222.096 1773.97 217.513 Q1770.91 212.906 1770.91 204.179 Q1770.91 195.429 1773.97 190.846 Q1777.05 186.24 1782.86 186.24 Z" fill="#000000" fill-rule="nonzero" fill-opacity="1" /><path clip-path="url(#clip920)" d="M1803.02 215.545 L1807.9 215.545 L1807.9 221.425 L1803.02 221.425 L1803.02 215.545 Z" fill="#000000" fill-rule="nonzero" fill-opacity="1" /><path clip-path="url(#clip920)" d="M1828.09 205.013 Q1824.75 205.013 1822.83 206.795 Q1820.93 208.578 1820.93 211.702 Q1820.93 214.827 1822.83 216.61 Q1824.75 218.392 1828.09 218.392 Q1831.42 218.392 1833.34 216.61 Q1835.26 214.804 1835.26 211.702 Q1835.26 208.578 1833.34 206.795 Q1831.44 205.013 1828.09 205.013 M1823.41 203.022 Q1820.4 202.281 1818.71 200.221 Q1817.05 198.161 1817.05 195.198 Q1817.05 191.054 1819.99 188.647 Q1822.95 186.24 1828.09 186.24 Q1833.25 186.24 1836.19 188.647 Q1839.13 191.054 1839.13 195.198 Q1839.13 198.161 1837.44 200.221 Q1835.77 202.281 1832.79 203.022 Q1836.17 203.809 1838.04 206.101 Q1839.94 208.392 1839.94 211.702 Q1839.94 216.726 1836.86 219.411 Q1833.8 222.096 1828.09 222.096 Q1822.37 222.096 1819.29 219.411 Q1816.24 216.726 1816.24 211.702 Q1816.24 208.392 1818.13 206.101 Q1820.03 203.809 1823.41 203.022 M1821.7 195.638 Q1821.7 198.323 1823.36 199.828 Q1825.05 201.332 1828.09 201.332 Q1831.1 201.332 1832.79 199.828 Q1834.5 198.323 1834.5 195.638 Q1834.5 192.953 1832.79 191.448 Q1831.1 189.943 1828.09 189.943 Q1825.05 189.943 1823.36 191.448 Q1821.7 192.953 1821.7 195.638 Z" fill="#000000" fill-rule="nonzero" fill-opacity="1" /><path clip-path="url(#clip920)" d="M1773.57 83.5819 L1781.21 83.5819 L1781.21 57.2163 L1772.9 58.883 L1772.9 54.6237 L1781.17 52.9571 L1785.84 52.9571 L1785.84 83.5819 L1793.48 83.5819 L1793.48 87.5171 L1773.57 87.5171 L1773.57 83.5819 Z" fill="#000000" fill-rule="nonzero" fill-opacity="1" /><path clip-path="url(#clip920)" d="M1802.92 81.6375 L1807.81 81.6375 L1807.81 87.5171 L1802.92 87.5171 L1802.92 81.6375 Z" fill="#000000" fill-rule="nonzero" fill-opacity="1" /><path clip-path="url(#clip920)" d="M1827.99 56.0358 Q1824.38 56.0358 1822.55 59.6005 Q1820.75 63.1422 1820.75 70.2718 Q1820.75 77.3782 1822.55 80.943 Q1824.38 84.4847 1827.99 84.4847 Q1831.63 84.4847 1833.43 80.943 Q1835.26 77.3782 1835.26 70.2718 Q1835.26 63.1422 1833.43 59.6005 Q1831.63 56.0358 1827.99 56.0358 M1827.99 52.3321 Q1833.8 52.3321 1836.86 56.9385 Q1839.94 61.5218 1839.94 70.2718 Q1839.94 78.9986 1836.86 83.605 Q1833.8 88.1884 1827.99 88.1884 Q1822.18 88.1884 1819.11 83.605 Q1816.05 78.9986 1816.05 70.2718 Q1816.05 61.5218 1819.11 56.9385 Q1822.18 52.3321 1827.99 52.3321 Z" fill="#000000" fill-rule="nonzero" fill-opacity="1" /><path clip-path="url(#clip920)" d="M1637.74 696.882 L1643.28 696.882 Q1642 699.364 1641.37 702.038 Q1640.73 704.712 1640.73 707.576 Q1640.73 711.937 1642.07 714.133 Q1643.4 716.297 1646.08 716.297 Q1648.11 716.297 1649.29 714.738 Q1650.44 713.178 1651.49 708.467 L1651.93 706.462 Q1653.27 700.224 1655.72 697.614 Q1658.14 694.972 1662.5 694.972 Q1667.47 694.972 1670.36 698.919 Q1673.26 702.834 1673.26 709.709 Q1673.26 712.573 1672.69 715.692 Q1672.15 718.78 1671.03 722.217 L1664.98 722.217 Q1666.67 718.971 1667.53 715.82 Q1668.36 712.669 1668.36 709.581 Q1668.36 705.444 1666.96 703.216 Q1665.52 700.988 1662.95 700.988 Q1660.56 700.988 1659.29 702.611 Q1658.01 704.202 1656.84 709.645 L1656.36 711.682 Q1655.21 717.125 1652.86 719.544 Q1650.47 721.963 1646.33 721.963 Q1641.3 721.963 1638.57 718.398 Q1635.83 714.833 1635.83 708.276 Q1635.83 705.03 1636.31 702.165 Q1636.78 699.301 1637.74 696.882 Z" fill="#000000" fill-rule="nonzero" fill-opacity="1" /><path clip-path="url(#clip920)" d="M1654.42 669.446 Q1654.42 676.543 1656.04 679.281 Q1657.66 682.018 1661.58 682.018 Q1664.7 682.018 1666.54 679.981 Q1668.36 677.912 1668.36 674.379 Q1668.36 669.509 1664.92 666.581 Q1661.45 663.621 1655.72 663.621 L1654.42 663.621 L1654.42 669.446 M1652 657.765 L1672.34 657.765 L1672.34 663.621 L1666.93 663.621 Q1670.17 665.626 1671.73 668.618 Q1673.26 671.61 1673.26 675.939 Q1673.26 681.413 1670.2 684.66 Q1667.12 687.874 1661.96 687.874 Q1655.94 687.874 1652.89 683.864 Q1649.83 679.822 1649.83 671.833 L1649.83 663.621 L1649.26 663.621 Q1645.22 663.621 1643.02 666.295 Q1640.79 668.936 1640.79 673.742 Q1640.79 676.798 1641.53 679.694 Q1642.26 682.591 1643.72 685.264 L1638.31 685.264 Q1637.07 682.05 1636.47 679.026 Q1635.83 676.002 1635.83 673.138 Q1635.83 665.403 1639.84 661.584 Q1643.85 657.765 1652 657.765 Z" fill="#000000" fill-rule="nonzero" fill-opacity="1" /><path clip-path="url(#clip920)" d="M1636.69 649.903 L1636.69 643.696 L1666.61 632.556 L1636.69 621.416 L1636.69 615.21 L1672.34 628.578 L1672.34 636.535 L1636.69 649.903 Z" fill="#000000" fill-rule="nonzero" fill-opacity="1" /><path clip-path="url(#clip920)" d="M1636.69 607.125 L1636.69 601.269 L1672.34 601.269 L1672.34 607.125 L1636.69 607.125 M1622.81 607.125 L1622.81 601.269 L1630.23 601.269 L1630.23 607.125 L1622.81 607.125 Z" fill="#000000" fill-rule="nonzero" fill-opacity="1" /><path clip-path="url(#clip920)" d="M1650.82 559.383 L1672.34 559.383 L1672.34 565.239 L1651.01 565.239 Q1645.95 565.239 1643.44 567.212 Q1640.92 569.186 1640.92 573.132 Q1640.92 577.875 1643.94 580.612 Q1646.97 583.349 1652.19 583.349 L1672.34 583.349 L1672.34 589.238 L1636.69 589.238 L1636.69 583.349 L1642.23 583.349 Q1639.01 581.249 1637.42 578.416 Q1635.83 575.551 1635.83 571.827 Q1635.83 565.685 1639.65 562.534 Q1643.44 559.383 1650.82 559.383 Z" fill="#000000" fill-rule="nonzero" fill-opacity="1" /><path clip-path="url(#clip920)" d="M1654.1 524.244 Q1647.73 524.244 1644.23 526.886 Q1640.73 529.496 1640.73 534.238 Q1640.73 538.949 1644.23 541.59 Q1647.73 544.2 1654.1 544.2 Q1660.43 544.2 1663.93 541.59 Q1667.43 538.949 1667.43 534.238 Q1667.43 529.496 1663.93 526.886 Q1660.43 524.244 1654.1 524.244 M1667.91 518.387 Q1677.01 518.387 1681.44 522.43 Q1685.89 526.472 1685.89 534.811 Q1685.89 537.898 1685.42 540.636 Q1684.97 543.373 1684.02 545.951 L1678.32 545.951 Q1679.72 543.373 1680.39 540.858 Q1681.06 538.344 1681.06 535.734 Q1681.06 529.973 1678.03 527.108 Q1675.04 524.244 1668.96 524.244 L1666.07 524.244 Q1669.22 526.058 1670.78 528.891 Q1672.34 531.724 1672.34 535.67 Q1672.34 542.227 1667.34 546.237 Q1662.34 550.248 1654.1 550.248 Q1645.82 550.248 1640.83 546.237 Q1635.83 542.227 1635.83 535.67 Q1635.83 531.724 1637.39 528.891 Q1638.95 526.058 1642.1 524.244 L1636.69 524.244 L1636.69 518.387 L1667.91 518.387 Z" fill="#000000" fill-rule="nonzero" fill-opacity="1" /><path clip-path="url(#clip920)" d="M1685.89 486.209 L1636.69 486.209 L1636.69 480.352 L1658.84 480.352 Q1663.46 480.352 1665.81 478.156 Q1668.17 475.96 1668.17 471.663 Q1668.17 466.952 1665.49 464.597 Q1662.82 462.21 1657.47 462.21 L1636.69 462.21 L1636.69 456.354 L1664.12 456.354 Q1666.03 456.354 1666.96 455.812 Q1667.85 455.24 1667.85 454.062 Q1667.85 453.775 1667.69 453.266 Q1667.5 452.757 1667.12 451.866 L1671.83 451.866 Q1672.56 453.171 1672.91 454.348 Q1673.26 455.494 1673.26 456.608 Q1673.26 458.804 1672.02 460.109 Q1670.78 461.414 1668.23 461.892 Q1670.74 463.483 1672.02 465.807 Q1673.26 468.098 1673.26 471.217 Q1673.26 474.464 1672.02 476.756 Q1670.78 479.015 1668.29 480.352 L1685.89 480.352 L1685.89 486.209 Z" fill="#000000" fill-rule="nonzero" fill-opacity="1" /><path clip-path="url(#clip920)" d="M1654.42 427.931 Q1654.42 435.028 1656.04 437.766 Q1657.66 440.503 1661.58 440.503 Q1664.7 440.503 1666.54 438.466 Q1668.36 436.397 1668.36 432.864 Q1668.36 427.994 1664.92 425.066 Q1661.45 422.106 1655.72 422.106 L1654.42 422.106 L1654.42 427.931 M1652 416.25 L1672.34 416.25 L1672.34 422.106 L1666.93 422.106 Q1670.17 424.111 1671.73 427.103 Q1673.26 430.095 1673.26 434.424 Q1673.26 439.898 1670.2 443.145 Q1667.12 446.359 1661.96 446.359 Q1655.94 446.359 1652.89 442.349 Q1649.83 438.307 1649.83 430.318 L1649.83 422.106 L1649.26 422.106 Q1645.22 422.106 1643.02 424.78 Q1640.79 427.421 1640.79 432.228 Q1640.79 435.283 1641.53 438.179 Q1642.26 441.076 1643.72 443.749 L1638.31 443.749 Q1637.07 440.535 1636.47 437.511 Q1635.83 434.487 1635.83 431.623 Q1635.83 423.888 1639.84 420.069 Q1643.85 416.25 1652 416.25 Z" fill="#000000" fill-rule="nonzero" fill-opacity="1" /><path clip-path="url(#clip920)" d="M1622.87 390.118 Q1630.2 394.383 1637.36 396.452 Q1644.52 398.521 1651.87 398.521 Q1659.22 398.521 1666.45 396.452 Q1673.64 394.352 1680.93 390.118 L1680.93 395.211 Q1673.45 399.985 1666.22 402.372 Q1659 404.728 1651.87 404.728 Q1644.77 404.728 1637.58 402.372 Q1630.39 400.017 1622.87 395.211 L1622.87 390.118 Z" fill="#000000" fill-rule="nonzero" fill-opacity="1" /><path clip-path="url(#clip920)" d="M1654.42 362.555 Q1654.42 369.653 1656.04 372.39 Q1657.66 375.127 1661.58 375.127 Q1664.7 375.127 1666.54 373.09 Q1668.36 371.021 1668.36 367.488 Q1668.36 362.619 1664.92 359.69 Q1661.45 356.73 1655.72 356.73 L1654.42 356.73 L1654.42 362.555 M1652 350.874 L1672.34 350.874 L1672.34 356.73 L1666.93 356.73 Q1670.17 358.735 1671.73 361.727 Q1673.26 364.719 1673.26 369.048 Q1673.26 374.522 1670.2 377.769 Q1667.12 380.984 1661.96 380.984 Q1655.94 380.984 1652.89 376.973 Q1649.83 372.931 1649.83 364.942 L1649.83 356.73 L1649.26 356.73 Q1645.22 356.73 1643.02 359.404 Q1640.79 362.046 1640.79 366.852 Q1640.79 369.907 1641.53 372.804 Q1642.26 375.7 1643.72 378.374 L1638.31 378.374 Q1637.07 375.159 1636.47 372.135 Q1635.83 369.112 1635.83 366.247 Q1635.83 358.513 1639.84 354.693 Q1643.85 350.874 1652 350.874 Z" fill="#000000" fill-rule="nonzero" fill-opacity="1" /><path clip-path="url(#clip920)" d="M1622.87 339.734 L1622.87 334.641 Q1630.39 329.867 1637.58 327.512 Q1644.77 325.125 1651.87 325.125 Q1659 325.125 1666.22 327.512 Q1673.45 329.867 1680.93 334.641 L1680.93 339.734 Q1673.64 335.501 1666.45 333.432 Q1659.22 331.331 1651.87 331.331 Q1644.52 331.331 1637.36 333.432 Q1630.2 335.501 1622.87 339.734 Z" fill="#000000" fill-rule="nonzero" fill-opacity="1" /><polyline clip-path="url(#clip921)" style="stroke:#009af9; stroke-linecap:round; stroke-linejoin:round; stroke-width:4; stroke-opacity:1; fill:none" points="1923.74,739.775 1924.02,739.81 1924.87,739.898 1926.28,740.128 1928.25,740.547 1930.8,741.177 1933.9,742.026 1937.57,743.098 1941.81,744.394 1946.61,745.911 1951.98,747.645 1957.91,749.592 1964.4,751.746 1971.46,754.102 1979.09,756.654 1987.28,759.393 1996.03,762.313 2005.35,765.406 2015.24,768.663 2025.69,772.077 2036.7,775.638 2048.28,779.338 2060.43,783.168 2073.14,787.119 2086.41,791.183 2100.25,795.349 2114.65,799.61 2129.62,803.956 2145.15,808.38 2161.25,812.872 2177.91,817.425 2195.14,822.031 2212.93,826.681 2231.29,831.37 2250.21,836.088 2269.7,840.831 2289.75,845.591 2310.37,850.362 2331.55,855.138 2353.3,859.915 2375.61,864.686 2398.48,869.447 2421.92,874.194 2445.93,878.922 2470.5,883.628 2495.64,888.307 2521.34,892.957 2547.6,897.574 2574.43,902.157 2601.83,906.702 2629.78,911.207 2658.31,915.67 2687.4,920.09 2717.05,924.465 2747.27,928.793 2778.06,933.074 2809.4,937.306 2841.32,941.489 2873.8,945.622 2906.84,949.705 2940.45,953.737 2974.62,957.717 3009.36,961.647 3044.66,965.526 3080.53,969.353 3116.96,973.13 "/>
<polyline clip-path="url(#clip921)" style="stroke:#e26f46; stroke-linecap:round; stroke-linejoin:round; stroke-width:4; stroke-opacity:1; fill:none" points="1923.74,74.2116 1924.02,77.2754 1924.87,82.3309 1926.28,88.3881 1928.25,94.9235 1930.8,101.662 1933.9,108.46 1937.57,115.243 1941.81,121.972 1946.61,128.626 1951.98,135.193 1957.91,141.668 1964.4,148.05 1971.46,154.338 1979.09,160.534 1987.28,166.639 1996.03,172.656 2005.35,178.586 2015.24,184.431 2025.69,190.194 2036.7,195.876 2048.28,201.48 2060.43,207.007 2073.14,212.459 2086.41,217.838 2100.25,223.145 2114.65,228.381 2129.62,233.549 2145.15,238.648 2161.25,243.681 2177.91,248.648 2195.14,253.551 2212.93,258.39 2231.29,263.166 2250.21,267.881 2269.7,272.535 2289.75,277.129 2310.37,281.664 2331.55,286.14 2353.3,290.559 2375.61,294.921 2398.48,299.226 2421.92,303.476 2445.93,307.672 2470.5,311.813 2495.64,315.901 2521.34,319.937 2547.6,323.92 2574.43,327.852 2601.83,331.734 2629.78,335.566 2658.31,339.348 2687.4,343.083 2717.05,346.769 2747.27,350.409 2778.06,354.002 2809.4,357.549 2841.32,361.052 2873.8,364.511 2906.84,367.926 2940.45,371.299 2974.62,374.629 3009.36,377.919 3044.66,381.168 3080.53,384.377 3116.96,387.548 "/>
<polyline clip-path="url(#clip921)" style="stroke:#808080; stroke-linecap:round; stroke-linejoin:round; stroke-width:4; stroke-opacity:1; fill:none" stroke-dasharray="16, 10" points="623.121,739.775 4417.57,739.775 "/>
<path clip-path="url(#clip920)" d="M2698.88 234.526 L3110.6 234.526 L3110.6 79.0059 L2698.88 79.0059  Z" fill="#ffffff" fill-rule="evenodd" fill-opacity="1"/>
<polyline clip-path="url(#clip920)" style="stroke:#000000; stroke-linecap:round; stroke-linejoin:round; stroke-width:4; stroke-opacity:1; fill:none" points="2698.88,234.526 3110.6,234.526 3110.6,79.0059 2698.88,79.0059 2698.88,234.526 "/>
<polyline clip-path="url(#clip920)" style="stroke:#009af9; stroke-linecap:round; stroke-linejoin:round; stroke-width:4; stroke-opacity:1; fill:none" points="2712.94,130.846 2797.26,130.846 "/>
<path clip-path="url(#clip920)" d="M2811.31 112.108 L2815.57 112.108 L2815.57 148.126 L2811.31 148.126 L2811.31 112.108 Z" fill="#000000" fill-rule="nonzero" fill-opacity="1" /><path clip-path="url(#clip920)" d="M2834.53 125.186 Q2831.1 125.186 2829.11 127.871 Q2827.12 130.533 2827.12 135.186 Q2827.12 139.839 2829.09 142.524 Q2831.08 145.186 2834.53 145.186 Q2837.93 145.186 2839.92 142.501 Q2841.91 139.816 2841.91 135.186 Q2841.91 130.58 2839.92 127.895 Q2837.93 125.186 2834.53 125.186 M2834.53 121.575 Q2840.08 121.575 2843.26 125.186 Q2846.43 128.797 2846.43 135.186 Q2846.43 141.552 2843.26 145.186 Q2840.08 148.797 2834.53 148.797 Q2828.95 148.797 2825.78 145.186 Q2822.63 141.552 2822.63 135.186 Q2822.63 128.797 2825.78 125.186 Q2828.95 121.575 2834.53 121.575 Z" fill="#000000" fill-rule="nonzero" fill-opacity="1" /><path clip-path="url(#clip920)" d="M2851.01 122.2 L2855.27 122.2 L2860.59 142.431 L2865.89 122.2 L2870.92 122.2 L2876.24 142.431 L2881.54 122.2 L2885.8 122.2 L2879.02 148.126 L2874 148.126 L2868.42 126.876 L2862.82 148.126 L2857.79 148.126 L2851.01 122.2 Z" fill="#000000" fill-rule="nonzero" fill-opacity="1" /><path clip-path="url(#clip920)" d="M2907.33 122.2 L2911.59 122.2 L2911.59 148.126 L2907.33 148.126 L2907.33 122.2 M2907.33 112.108 L2911.59 112.108 L2911.59 117.501 L2907.33 117.501 L2907.33 112.108 Z" fill="#000000" fill-rule="nonzero" fill-opacity="1" /><path clip-path="url(#clip920)" d="M2942.05 132.478 L2942.05 148.126 L2937.79 148.126 L2937.79 132.617 Q2937.79 128.936 2936.36 127.107 Q2934.92 125.279 2932.05 125.279 Q2928.6 125.279 2926.61 127.478 Q2924.62 129.677 2924.62 133.473 L2924.62 148.126 L2920.34 148.126 L2920.34 122.2 L2924.62 122.2 L2924.62 126.228 Q2926.15 123.89 2928.21 122.732 Q2930.29 121.575 2933 121.575 Q2937.47 121.575 2939.76 124.353 Q2942.05 127.107 2942.05 132.478 Z" fill="#000000" fill-rule="nonzero" fill-opacity="1" /><path clip-path="url(#clip920)" d="M2969.2 123.195 L2969.2 127.177 Q2967.4 126.182 2965.57 125.695 Q2963.76 125.186 2961.91 125.186 Q2957.77 125.186 2955.48 127.825 Q2953.19 130.441 2953.19 135.186 Q2953.19 139.931 2955.48 142.57 Q2957.77 145.186 2961.91 145.186 Q2963.76 145.186 2965.57 144.7 Q2967.4 144.191 2969.2 143.195 L2969.2 147.131 Q2967.42 147.964 2965.5 148.381 Q2963.6 148.797 2961.45 148.797 Q2955.59 148.797 2952.14 145.117 Q2948.7 141.436 2948.7 135.186 Q2948.7 128.844 2952.17 125.209 Q2955.66 121.575 2961.73 121.575 Q2963.7 121.575 2965.57 121.992 Q2967.45 122.385 2969.2 123.195 Z" fill="#000000" fill-rule="nonzero" fill-opacity="1" /><path clip-path="url(#clip920)" d="M2986.66 125.186 Q2983.23 125.186 2981.24 127.871 Q2979.25 130.533 2979.25 135.186 Q2979.25 139.839 2981.22 142.524 Q2983.21 145.186 2986.66 145.186 Q2990.06 145.186 2992.05 142.501 Q2994.04 139.816 2994.04 135.186 Q2994.04 130.58 2992.05 127.895 Q2990.06 125.186 2986.66 125.186 M2986.66 121.575 Q2992.21 121.575 2995.38 125.186 Q2998.56 128.797 2998.56 135.186 Q2998.56 141.552 2995.38 145.186 Q2992.21 148.797 2986.66 148.797 Q2981.08 148.797 2977.91 145.186 Q2974.76 141.552 2974.76 135.186 Q2974.76 128.797 2977.91 125.186 Q2981.08 121.575 2986.66 121.575 Z" fill="#000000" fill-rule="nonzero" fill-opacity="1" /><path clip-path="url(#clip920)" d="M3025.8 127.177 Q3027.4 124.307 3029.62 122.941 Q3031.84 121.575 3034.85 121.575 Q3038.9 121.575 3041.1 124.422 Q3043.3 127.246 3043.3 132.478 L3043.3 148.126 L3039.02 148.126 L3039.02 132.617 Q3039.02 128.89 3037.7 127.084 Q3036.38 125.279 3033.67 125.279 Q3030.36 125.279 3028.44 127.478 Q3026.52 129.677 3026.52 133.473 L3026.52 148.126 L3022.24 148.126 L3022.24 132.617 Q3022.24 128.867 3020.92 127.084 Q3019.6 125.279 3016.84 125.279 Q3013.58 125.279 3011.66 127.501 Q3009.74 129.7 3009.74 133.473 L3009.74 148.126 L3005.45 148.126 L3005.45 122.2 L3009.74 122.2 L3009.74 126.228 Q3011.2 123.844 3013.23 122.709 Q3015.27 121.575 3018.07 121.575 Q3020.89 121.575 3022.86 123.01 Q3024.85 124.445 3025.8 127.177 Z" fill="#000000" fill-rule="nonzero" fill-opacity="1" /><path clip-path="url(#clip920)" d="M3073.97 134.098 L3073.97 136.182 L3054.39 136.182 Q3054.67 140.58 3057.03 142.894 Q3059.41 145.186 3063.65 145.186 Q3066.1 145.186 3068.39 144.584 Q3070.71 143.982 3072.98 142.779 L3072.98 146.806 Q3070.69 147.779 3068.28 148.288 Q3065.87 148.797 3063.39 148.797 Q3057.19 148.797 3053.56 145.186 Q3049.94 141.575 3049.94 135.418 Q3049.94 129.052 3053.37 125.325 Q3056.82 121.575 3062.65 121.575 Q3067.88 121.575 3070.92 124.955 Q3073.97 128.311 3073.97 134.098 M3069.71 132.848 Q3069.67 129.353 3067.75 127.27 Q3065.85 125.186 3062.7 125.186 Q3059.13 125.186 3056.98 127.2 Q3054.85 129.214 3054.53 132.871 L3069.71 132.848 Z" fill="#000000" fill-rule="nonzero" fill-opacity="1" /><polyline clip-path="url(#clip920)" style="stroke:#e26f46; stroke-linecap:round; stroke-linejoin:round; stroke-width:4; stroke-opacity:1; fill:none" points="2712.94,182.686 2797.26,182.686 "/>
<path clip-path="url(#clip920)" d="M2833.02 184.318 L2833.02 199.966 L2828.77 199.966 L2828.77 184.457 Q2828.77 180.776 2827.33 178.947 Q2825.9 177.119 2823.02 177.119 Q2819.58 177.119 2817.58 179.318 Q2815.59 181.517 2815.59 185.313 L2815.59 199.966 L2811.31 199.966 L2811.31 163.948 L2815.59 163.948 L2815.59 178.068 Q2817.12 175.73 2819.18 174.572 Q2821.27 173.415 2823.97 173.415 Q2828.44 173.415 2830.73 176.193 Q2833.02 178.947 2833.02 184.318 Z" fill="#000000" fill-rule="nonzero" fill-opacity="1" /><path clip-path="url(#clip920)" d="M2841.52 174.04 L2845.78 174.04 L2845.78 199.966 L2841.52 199.966 L2841.52 174.04 M2841.52 163.948 L2845.78 163.948 L2845.78 169.341 L2841.52 169.341 L2841.52 163.948 Z" fill="#000000" fill-rule="nonzero" fill-opacity="1" /><path clip-path="url(#clip920)" d="M2871.75 186.702 Q2871.75 182.072 2869.83 179.526 Q2867.93 176.98 2864.48 176.98 Q2861.06 176.98 2859.14 179.526 Q2857.24 182.072 2857.24 186.702 Q2857.24 191.309 2859.14 193.855 Q2861.06 196.401 2864.48 196.401 Q2867.93 196.401 2869.83 193.855 Q2871.75 191.309 2871.75 186.702 M2876.01 196.748 Q2876.01 203.369 2873.07 206.586 Q2870.13 209.827 2864.07 209.827 Q2861.82 209.827 2859.83 209.48 Q2857.84 209.156 2855.96 208.461 L2855.96 204.318 Q2857.84 205.336 2859.67 205.822 Q2861.5 206.308 2863.39 206.308 Q2867.58 206.308 2869.67 204.109 Q2871.75 201.933 2871.75 197.512 L2871.75 195.406 Q2870.43 197.697 2868.37 198.832 Q2866.31 199.966 2863.44 199.966 Q2858.67 199.966 2855.76 196.332 Q2852.84 192.697 2852.84 186.702 Q2852.84 180.684 2855.76 177.049 Q2858.67 173.415 2863.44 173.415 Q2866.31 173.415 2868.37 174.549 Q2870.43 175.684 2871.75 177.975 L2871.75 174.04 L2876.01 174.04 L2876.01 196.748 Z" fill="#000000" fill-rule="nonzero" fill-opacity="1" /><path clip-path="url(#clip920)" d="M2906.33 184.318 L2906.33 199.966 L2902.08 199.966 L2902.08 184.457 Q2902.08 180.776 2900.64 178.947 Q2899.2 177.119 2896.33 177.119 Q2892.89 177.119 2890.89 179.318 Q2888.9 181.517 2888.9 185.313 L2888.9 199.966 L2884.62 199.966 L2884.62 163.948 L2888.9 163.948 L2888.9 178.068 Q2890.43 175.73 2892.49 174.572 Q2894.58 173.415 2897.28 173.415 Q2901.75 173.415 2904.04 176.193 Q2906.33 178.947 2906.33 184.318 Z" fill="#000000" fill-rule="nonzero" fill-opacity="1" /><path clip-path="url(#clip920)" d="M2929.9 174.04 L2934.16 174.04 L2934.16 199.966 L2929.9 199.966 L2929.9 174.04 M2929.9 163.948 L2934.16 163.948 L2934.16 169.341 L2929.9 169.341 L2929.9 163.948 Z" fill="#000000" fill-rule="nonzero" fill-opacity="1" /><path clip-path="url(#clip920)" d="M2964.62 184.318 L2964.62 199.966 L2960.36 199.966 L2960.36 184.457 Q2960.36 180.776 2958.93 178.947 Q2957.49 177.119 2954.62 177.119 Q2951.17 177.119 2949.18 179.318 Q2947.19 181.517 2947.19 185.313 L2947.19 199.966 L2942.91 199.966 L2942.91 174.04 L2947.19 174.04 L2947.19 178.068 Q2948.72 175.73 2950.78 174.572 Q2952.86 173.415 2955.57 173.415 Q2960.04 173.415 2962.33 176.193 Q2964.62 178.947 2964.62 184.318 Z" fill="#000000" fill-rule="nonzero" fill-opacity="1" /><path clip-path="url(#clip920)" d="M2991.77 175.035 L2991.77 179.017 Q2989.97 178.022 2988.14 177.535 Q2986.33 177.026 2984.48 177.026 Q2980.34 177.026 2978.05 179.665 Q2975.76 182.281 2975.76 187.026 Q2975.76 191.771 2978.05 194.41 Q2980.34 197.026 2984.48 197.026 Q2986.33 197.026 2988.14 196.54 Q2989.97 196.031 2991.77 195.035 L2991.77 198.971 Q2989.99 199.804 2988.07 200.221 Q2986.17 200.637 2984.02 200.637 Q2978.16 200.637 2974.71 196.957 Q2971.26 193.276 2971.26 187.026 Q2971.26 180.684 2974.74 177.049 Q2978.23 173.415 2984.3 173.415 Q2986.26 173.415 2988.14 173.832 Q2990.01 174.225 2991.77 175.035 Z" fill="#000000" fill-rule="nonzero" fill-opacity="1" /><path clip-path="url(#clip920)" d="M3009.23 177.026 Q3005.8 177.026 3003.81 179.711 Q3001.82 182.373 3001.82 187.026 Q3001.82 191.679 3003.79 194.364 Q3005.78 197.026 3009.23 197.026 Q3012.63 197.026 3014.62 194.341 Q3016.61 191.656 3016.61 187.026 Q3016.61 182.42 3014.62 179.735 Q3012.63 177.026 3009.23 177.026 M3009.23 173.415 Q3014.78 173.415 3017.95 177.026 Q3021.13 180.637 3021.13 187.026 Q3021.13 193.392 3017.95 197.026 Q3014.78 200.637 3009.23 200.637 Q3003.65 200.637 3000.48 197.026 Q2997.33 193.392 2997.33 187.026 Q2997.33 180.637 3000.48 177.026 Q3003.65 173.415 3009.23 173.415 Z" fill="#000000" fill-rule="nonzero" fill-opacity="1" /><path clip-path="url(#clip920)" d="M3048.37 179.017 Q3049.97 176.147 3052.19 174.781 Q3054.41 173.415 3057.42 173.415 Q3061.47 173.415 3063.67 176.262 Q3065.87 179.086 3065.87 184.318 L3065.87 199.966 L3061.59 199.966 L3061.59 184.457 Q3061.59 180.73 3060.27 178.924 Q3058.95 177.119 3056.24 177.119 Q3052.93 177.119 3051.01 179.318 Q3049.09 181.517 3049.09 185.313 L3049.09 199.966 L3044.81 199.966 L3044.81 184.457 Q3044.81 180.707 3043.49 178.924 Q3042.17 177.119 3039.41 177.119 Q3036.15 177.119 3034.23 179.341 Q3032.31 181.54 3032.31 185.313 L3032.31 199.966 L3028.02 199.966 L3028.02 174.04 L3032.31 174.04 L3032.31 178.068 Q3033.76 175.684 3035.8 174.549 Q3037.84 173.415 3040.64 173.415 Q3043.46 173.415 3045.43 174.85 Q3047.42 176.285 3048.37 179.017 Z" fill="#000000" fill-rule="nonzero" fill-opacity="1" /><path clip-path="url(#clip920)" d="M3096.54 185.938 L3096.54 188.022 L3076.96 188.022 Q3077.24 192.42 3079.6 194.734 Q3081.98 197.026 3086.22 197.026 Q3088.67 197.026 3090.96 196.424 Q3093.28 195.822 3095.55 194.619 L3095.55 198.646 Q3093.25 199.619 3090.85 200.128 Q3088.44 200.637 3085.96 200.637 Q3079.76 200.637 3076.13 197.026 Q3072.51 193.415 3072.51 187.258 Q3072.51 180.892 3075.94 177.165 Q3079.39 173.415 3085.22 173.415 Q3090.45 173.415 3093.49 176.795 Q3096.54 180.151 3096.54 185.938 M3092.28 184.688 Q3092.24 181.193 3090.31 179.11 Q3088.42 177.026 3085.27 177.026 Q3081.7 177.026 3079.55 179.04 Q3077.42 181.054 3077.1 184.711 L3092.28 184.688 Z" fill="#000000" fill-rule="nonzero" fill-opacity="1" /></svg>
