<?xml version="1.0" encoding="utf-8"?>
<svg xmlns="http://www.w3.org/2000/svg" xmlns:xlink="http://www.w3.org/1999/xlink" width="800" height="300" viewBox="0 0 3200 1200">
<defs>
  <clipPath id="clip790">
    <rect x="0" y="0" width="3200" height="1200"/>
  </clipPath>
</defs>
<path clip-path="url(#clip790)" d="M0 1200 L3200 1200 L3200 0 L0 0  Z" fill="#ffffff" fill-rule="evenodd" fill-opacity="1"/>
<defs>
  <clipPath id="clip791">
    <rect x="1880" y="47" width="1274" height="954"/>
  </clipPath>
</defs>
<path clip-path="url(#clip790)" d="M252.916 1000.1 L1525.51 1000.1 L1525.51 47.2441 L252.916 47.2441  Z" fill="#ffffff" fill-rule="evenodd" fill-opacity="1"/>
<defs>
  <clipPath id="clip792">
    <rect x="252" y="47" width="1274" height="954"/>
  </clipPath>
</defs>
<polyline clip-path="url(#clip792)" style="stroke:#000000; stroke-linecap:round; stroke-linejoin:round; stroke-width:2; stroke-opacity:0.1; fill:none" points="288.933,1000.1 288.933,47.2441 "/>
<polyline clip-path="url(#clip792)" style="stroke:#000000; stroke-linecap:round; stroke-linejoin:round; stroke-width:2; stroke-opacity:0.1; fill:none" points="660.356,1000.1 660.356,47.2441 "/>
<polyline clip-path="url(#clip792)" style="stroke:#000000; stroke-linecap:round; stroke-linejoin:round; stroke-width:2; stroke-opacity:0.1; fill:none" points="1031.78,1000.1 1031.78,47.2441 "/>
<polyline clip-path="url(#clip792)" style="stroke:#000000; stroke-linecap:round; stroke-linejoin:round; stroke-width:2; stroke-opacity:0.1; fill:none" points="1403.2,1000.1 1403.2,47.2441 "/>
<polyline clip-path="url(#clip792)" style="stroke:#000000; stroke-linecap:round; stroke-linejoin:round; stroke-width:2; stroke-opacity:0.1; fill:none" points="252.916,882.288 1525.51,882.288 "/>
<polyline clip-path="url(#clip792)" style="stroke:#000000; stroke-linecap:round; stroke-linejoin:round; stroke-width:2; stroke-opacity:0.1; fill:none" points="252.916,753.888 1525.51,753.888 "/>
<polyline clip-path="url(#clip792)" style="stroke:#000000; stroke-linecap:round; stroke-linejoin:round; stroke-width:2; stroke-opacity:0.1; fill:none" points="252.916,625.487 1525.51,625.487 "/>
<polyline clip-path="url(#clip792)" style="stroke:#000000; stroke-linecap:round; stroke-linejoin:round; stroke-width:2; stroke-opacity:0.1; fill:none" points="252.916,497.087 1525.51,497.087 "/>
<polyline clip-path="url(#clip792)" style="stroke:#000000; stroke-linecap:round; stroke-linejoin:round; stroke-width:2; stroke-opacity:0.1; fill:none" points="252.916,368.686 1525.51,368.686 "/>
<polyline clip-path="url(#clip792)" style="stroke:#000000; stroke-linecap:round; stroke-linejoin:round; stroke-width:2; stroke-opacity:0.1; fill:none" points="252.916,240.285 1525.51,240.285 "/>
<polyline clip-path="url(#clip792)" style="stroke:#000000; stroke-linecap:round; stroke-linejoin:round; stroke-width:2; stroke-opacity:0.1; fill:none" points="252.916,111.885 1525.51,111.885 "/>
<polyline clip-path="url(#clip790)" style="stroke:#000000; stroke-linecap:round; stroke-linejoin:round; stroke-width:4; stroke-opacity:1; fill:none" points="252.916,1000.1 1525.51,1000.1 "/>
<polyline clip-path="url(#clip790)" style="stroke:#000000; stroke-linecap:round; stroke-linejoin:round; stroke-width:4; stroke-opacity:1; fill:none" points="288.933,1000.1 288.933,981.2 "/>
<polyline clip-path="url(#clip790)" style="stroke:#000000; stroke-linecap:round; stroke-linejoin:round; stroke-width:4; stroke-opacity:1; fill:none" points="660.356,1000.1 660.356,981.2 "/>
<polyline clip-path="url(#clip790)" style="stroke:#000000; stroke-linecap:round; stroke-linejoin:round; stroke-width:4; stroke-opacity:1; fill:none" points="1031.78,1000.1 1031.78,981.2 "/>
<polyline clip-path="url(#clip790)" style="stroke:#000000; stroke-linecap:round; stroke-linejoin:round; stroke-width:4; stroke-opacity:1; fill:none" points="1403.2,1000.1 1403.2,981.2 "/>
<path clip-path="url(#clip790)" d="M288.933 1037.42 Q285.321 1037.42 283.493 1040.98 Q281.687 1044.52 281.687 1051.65 Q281.687 1058.76 283.493 1062.32 Q285.321 1065.87 288.933 1065.87 Q292.567 1065.87 294.372 1062.32 Q296.201 1058.76 296.201 1051.65 Q296.201 1044.52 294.372 1040.98 Q292.567 1037.42 288.933 1037.42 M288.933 1033.71 Q294.743 1033.71 297.798 1038.32 Q300.877 1042.9 300.877 1051.65 Q300.877 1060.38 297.798 1064.99 Q294.743 1069.57 288.933 1069.57 Q283.122 1069.57 280.044 1064.99 Q276.988 1060.38 276.988 1051.65 Q276.988 1042.9 280.044 1038.32 Q283.122 1033.71 288.933 1033.71 Z" fill="#000000" fill-rule="nonzero" fill-opacity="1" /><path clip-path="url(#clip790)" d="M619.963 1064.96 L627.602 1064.96 L627.602 1038.6 L619.292 1040.26 L619.292 1036 L627.555 1034.34 L632.231 1034.34 L632.231 1064.96 L639.87 1064.96 L639.87 1068.9 L619.963 1068.9 L619.963 1064.96 Z" fill="#000000" fill-rule="nonzero" fill-opacity="1" /><path clip-path="url(#clip790)" d="M659.315 1037.42 Q655.703 1037.42 653.875 1040.98 Q652.069 1044.52 652.069 1051.65 Q652.069 1058.76 653.875 1062.32 Q655.703 1065.87 659.315 1065.87 Q662.949 1065.87 664.754 1062.32 Q666.583 1058.76 666.583 1051.65 Q666.583 1044.52 664.754 1040.98 Q662.949 1037.42 659.315 1037.42 M659.315 1033.71 Q665.125 1033.71 668.18 1038.32 Q671.259 1042.9 671.259 1051.65 Q671.259 1060.38 668.18 1064.99 Q665.125 1069.57 659.315 1069.57 Q653.504 1069.57 650.426 1064.99 Q647.37 1060.38 647.37 1051.65 Q647.37 1042.9 650.426 1038.32 Q653.504 1033.71 659.315 1033.71 Z" fill="#000000" fill-rule="nonzero" fill-opacity="1" /><path clip-path="url(#clip790)" d="M689.476 1037.42 Q685.865 1037.42 684.037 1040.98 Q682.231 1044.52 682.231 1051.65 Q682.231 1058.76 684.037 1062.32 Q685.865 1065.87 689.476 1065.87 Q693.111 1065.87 694.916 1062.32 Q696.745 1058.76 696.745 1051.65 Q696.745 1044.52 694.916 1040.98 Q693.111 1037.42 689.476 1037.42 M689.476 1033.71 Q695.287 1033.71 698.342 1038.32 Q701.421 1042.9 701.421 1051.65 Q701.421 1060.38 698.342 1064.99 Q695.287 1069.57 689.476 1069.57 Q683.666 1069.57 680.588 1064.99 Q677.532 1060.38 677.532 1051.65 Q677.532 1042.9 680.588 1038.32 Q683.666 1033.71 689.476 1033.71 Z" fill="#000000" fill-rule="nonzero" fill-opacity="1" /><path clip-path="url(#clip790)" d="M995.472 1064.96 L1011.79 1064.96 L1011.79 1068.9 L989.847 1068.9 L989.847 1064.96 Q992.509 1062.21 997.093 1057.58 Q1001.7 1052.93 1002.88 1051.58 Q1005.12 1049.06 1006 1047.32 Q1006.91 1045.56 1006.91 1043.87 Q1006.91 1041.12 1004.96 1039.38 Q1003.04 1037.65 999.94 1037.65 Q997.741 1037.65 995.287 1038.41 Q992.856 1039.18 990.079 1040.73 L990.079 1036 Q992.903 1034.87 995.356 1034.29 Q997.81 1033.71 999.847 1033.71 Q1005.22 1033.71 1008.41 1036.4 Q1011.61 1039.08 1011.61 1043.57 Q1011.61 1045.7 1010.8 1047.62 Q1010.01 1049.52 1007.9 1052.12 Q1007.32 1052.79 1004.22 1056 Q1001.12 1059.2 995.472 1064.96 Z" fill="#000000" fill-rule="nonzero" fill-opacity="1" /><path clip-path="url(#clip790)" d="M1031.61 1037.42 Q1028 1037.42 1026.17 1040.98 Q1024.36 1044.52 1024.36 1051.65 Q1024.36 1058.76 1026.17 1062.32 Q1028 1065.87 1031.61 1065.87 Q1035.24 1065.87 1037.05 1062.32 Q1038.87 1058.76 1038.87 1051.65 Q1038.87 1044.52 1037.05 1040.98 Q1035.24 1037.42 1031.61 1037.42 M1031.61 1033.71 Q1037.42 1033.71 1040.47 1038.32 Q1043.55 1042.9 1043.55 1051.65 Q1043.55 1060.38 1040.47 1064.99 Q1037.42 1069.57 1031.61 1069.57 Q1025.8 1069.57 1022.72 1064.99 Q1019.66 1060.38 1019.66 1051.65 Q1019.66 1042.9 1022.72 1038.32 Q1025.8 1033.71 1031.61 1033.71 Z" fill="#000000" fill-rule="nonzero" fill-opacity="1" /><path clip-path="url(#clip790)" d="M1061.77 1037.42 Q1058.16 1037.42 1056.33 1040.98 Q1054.52 1044.52 1054.52 1051.65 Q1054.52 1058.76 1056.33 1062.32 Q1058.16 1065.87 1061.77 1065.87 Q1065.4 1065.87 1067.21 1062.32 Q1069.04 1058.76 1069.04 1051.65 Q1069.04 1044.52 1067.21 1040.98 Q1065.4 1037.42 1061.77 1037.42 M1061.77 1033.71 Q1067.58 1033.71 1070.63 1038.32 Q1073.71 1042.9 1073.71 1051.65 Q1073.71 1060.38 1070.63 1064.99 Q1067.58 1069.57 1061.77 1069.57 Q1055.96 1069.57 1052.88 1064.99 Q1049.82 1060.38 1049.82 1051.65 Q1049.82 1042.9 1052.88 1038.32 Q1055.96 1033.71 1061.77 1033.71 Z" fill="#000000" fill-rule="nonzero" fill-opacity="1" /><path clip-path="url(#clip790)" d="M1376.97 1050.26 Q1380.32 1050.98 1382.2 1053.25 Q1384.09 1055.52 1384.09 1058.85 Q1384.09 1063.97 1380.58 1066.77 Q1377.06 1069.57 1370.58 1069.57 Q1368.4 1069.57 1366.09 1069.13 Q1363.79 1068.71 1361.34 1067.86 L1361.34 1063.34 Q1363.28 1064.48 1365.6 1065.06 Q1367.91 1065.63 1370.44 1065.63 Q1374.84 1065.63 1377.13 1063.9 Q1379.44 1062.16 1379.44 1058.85 Q1379.44 1055.8 1377.29 1054.08 Q1375.16 1052.35 1371.34 1052.35 L1367.31 1052.35 L1367.31 1048.5 L1371.53 1048.5 Q1374.97 1048.5 1376.8 1047.14 Q1378.63 1045.75 1378.63 1043.16 Q1378.63 1040.5 1376.73 1039.08 Q1374.86 1037.65 1371.34 1037.65 Q1369.42 1037.65 1367.22 1038.06 Q1365.02 1038.48 1362.38 1039.36 L1362.38 1035.19 Q1365.04 1034.45 1367.36 1034.08 Q1369.7 1033.71 1371.76 1033.71 Q1377.08 1033.71 1380.18 1036.14 Q1383.28 1038.55 1383.28 1042.67 Q1383.28 1045.54 1381.64 1047.53 Q1380 1049.5 1376.97 1050.26 Z" fill="#000000" fill-rule="nonzero" fill-opacity="1" /><path clip-path="url(#clip790)" d="M1402.96 1037.42 Q1399.35 1037.42 1397.52 1040.98 Q1395.72 1044.52 1395.72 1051.65 Q1395.72 1058.76 1397.52 1062.32 Q1399.35 1065.87 1402.96 1065.87 Q1406.59 1065.87 1408.4 1062.32 Q1410.23 1058.76 1410.23 1051.65 Q1410.23 1044.52 1408.4 1040.98 Q1406.59 1037.42 1402.96 1037.42 M1402.96 1033.71 Q1408.77 1033.71 1411.83 1038.32 Q1414.9 1042.9 1414.9 1051.65 Q1414.9 1060.38 1411.83 1064.99 Q1408.77 1069.57 1402.96 1069.57 Q1397.15 1069.57 1394.07 1064.99 Q1391.02 1060.38 1391.02 1051.65 Q1391.02 1042.9 1394.07 1038.32 Q1397.15 1033.71 1402.96 1033.71 Z" fill="#000000" fill-rule="nonzero" fill-opacity="1" /><path clip-path="url(#clip790)" d="M1433.12 1037.42 Q1429.51 1037.42 1427.68 1040.98 Q1425.88 1044.52 1425.88 1051.65 Q1425.88 1058.76 1427.68 1062.32 Q1429.51 1065.87 1433.12 1065.87 Q1436.76 1065.87 1438.56 1062.32 Q1440.39 1058.76 1440.39 1051.65 Q1440.39 1044.52 1438.56 1040.98 Q1436.76 1037.42 1433.12 1037.42 M1433.12 1033.71 Q1438.93 1033.71 1441.99 1038.32 Q1445.07 1042.9 1445.07 1051.65 Q1445.07 1060.38 1441.99 1064.99 Q1438.93 1069.57 1433.12 1069.57 Q1427.31 1069.57 1424.23 1064.99 Q1421.18 1060.38 1421.18 1051.65 Q1421.18 1042.9 1424.23 1038.32 Q1427.31 1033.71 1433.12 1033.71 Z" fill="#000000" fill-rule="nonzero" fill-opacity="1" /><path clip-path="url(#clip790)" d="M754.037 1121.31 L759.894 1121.31 L767.214 1149.13 L774.503 1121.31 L781.41 1121.31 L788.731 1149.13 L796.019 1121.31 L801.876 1121.31 L792.55 1156.96 L785.643 1156.96 L777.972 1127.74 L770.27 1156.96 L763.363 1156.96 L754.037 1121.31 Z" fill="#000000" fill-rule="nonzero" fill-opacity="1" /><path clip-path="url(#clip790)" d="M841.248 1137.67 L841.248 1140.54 L814.321 1140.54 Q814.703 1146.59 817.949 1149.77 Q821.227 1152.92 827.052 1152.92 Q830.426 1152.92 833.577 1152.09 Q836.76 1151.26 839.879 1149.61 L839.879 1155.15 Q836.728 1156.48 833.418 1157.18 Q830.108 1157.88 826.702 1157.88 Q818.172 1157.88 813.175 1152.92 Q808.21 1147.95 808.21 1139.49 Q808.21 1130.74 812.92 1125.61 Q817.663 1120.45 825.683 1120.45 Q832.877 1120.45 837.046 1125.1 Q841.248 1129.72 841.248 1137.67 M835.391 1135.95 Q835.327 1131.15 832.686 1128.28 Q830.076 1125.42 825.747 1125.42 Q820.846 1125.42 817.885 1128.19 Q814.957 1130.96 814.512 1135.99 L835.391 1135.95 Z" fill="#000000" fill-rule="nonzero" fill-opacity="1" /><path clip-path="url(#clip790)" d="M867.061 1139.04 Q859.963 1139.04 857.226 1140.67 Q854.488 1142.29 854.488 1146.2 Q854.488 1149.32 856.525 1151.17 Q858.594 1152.98 862.127 1152.98 Q866.997 1152.98 869.925 1149.55 Q872.885 1146.08 872.885 1140.35 L872.885 1139.04 L867.061 1139.04 M878.742 1136.62 L878.742 1156.96 L872.885 1156.96 L872.885 1151.55 Q870.88 1154.8 867.888 1156.36 Q864.896 1157.88 860.568 1157.88 Q855.093 1157.88 851.846 1154.83 Q848.632 1151.74 848.632 1146.59 Q848.632 1140.57 852.642 1137.51 Q856.684 1134.46 864.673 1134.46 L872.885 1134.46 L872.885 1133.89 Q872.885 1129.84 870.212 1127.65 Q867.57 1125.42 862.764 1125.42 Q859.708 1125.42 856.812 1126.15 Q853.915 1126.88 851.242 1128.35 L851.242 1122.94 Q854.456 1121.7 857.48 1121.09 Q860.504 1120.45 863.368 1120.45 Q871.103 1120.45 874.922 1124.46 Q878.742 1128.48 878.742 1136.62 Z" fill="#000000" fill-rule="nonzero" fill-opacity="1" /><path clip-path="url(#clip790)" d="M890.805 1107.44 L896.661 1107.44 L896.661 1156.96 L890.805 1156.96 L890.805 1107.44 Z" fill="#000000" fill-rule="nonzero" fill-opacity="1" /><path clip-path="url(#clip790)" d="M914.708 1111.19 L914.708 1121.31 L926.771 1121.31 L926.771 1125.87 L914.708 1125.87 L914.708 1145.22 Q914.708 1149.58 915.886 1150.82 Q917.095 1152.06 920.755 1152.06 L926.771 1152.06 L926.771 1156.96 L920.755 1156.96 Q913.976 1156.96 911.398 1154.45 Q908.82 1151.9 908.82 1145.22 L908.82 1125.87 L904.523 1125.87 L904.523 1121.31 L908.82 1121.31 L908.82 1111.19 L914.708 1111.19 Z" fill="#000000" fill-rule="nonzero" fill-opacity="1" /><path clip-path="url(#clip790)" d="M964.106 1135.45 L964.106 1156.96 L958.249 1156.96 L958.249 1135.64 Q958.249 1130.58 956.276 1128.06 Q954.303 1125.55 950.356 1125.55 Q945.613 1125.55 942.876 1128.57 Q940.139 1131.59 940.139 1136.81 L940.139 1156.96 L934.251 1156.96 L934.251 1107.44 L940.139 1107.44 L940.139 1126.85 Q942.24 1123.64 945.072 1122.05 Q947.937 1120.45 951.661 1120.45 Q957.804 1120.45 960.955 1124.27 Q964.106 1128.06 964.106 1135.45 Z" fill="#000000" fill-rule="nonzero" fill-opacity="1" /><path clip-path="url(#clip790)" d="M1012.71 1139.04 Q1005.61 1139.04 1002.87 1140.67 Q1000.14 1142.29 1000.14 1146.2 Q1000.14 1149.32 1002.17 1151.17 Q1004.24 1152.98 1007.77 1152.98 Q1012.64 1152.98 1015.57 1149.55 Q1018.53 1146.08 1018.53 1140.35 L1018.53 1139.04 L1012.71 1139.04 M1024.39 1136.62 L1024.39 1156.96 L1018.53 1156.96 L1018.53 1151.55 Q1016.53 1154.8 1013.54 1156.36 Q1010.54 1157.88 1006.21 1157.88 Q1000.74 1157.88 997.494 1154.83 Q994.279 1151.74 994.279 1146.59 Q994.279 1140.57 998.29 1137.51 Q1002.33 1134.46 1010.32 1134.46 L1018.53 1134.46 L1018.53 1133.89 Q1018.53 1129.84 1015.86 1127.65 Q1013.22 1125.42 1008.41 1125.42 Q1005.36 1125.42 1002.46 1126.15 Q999.563 1126.88 996.889 1128.35 L996.889 1122.94 Q1000.1 1121.7 1003.13 1121.09 Q1006.15 1120.45 1009.02 1120.45 Q1016.75 1120.45 1020.57 1124.46 Q1024.39 1128.48 1024.39 1136.62 Z" fill="#000000" fill-rule="nonzero" fill-opacity="1" /><polyline clip-path="url(#clip790)" style="stroke:#000000; stroke-linecap:round; stroke-linejoin:round; stroke-width:4; stroke-opacity:1; fill:none" points="252.916,1000.1 252.916,47.2441 "/>
<polyline clip-path="url(#clip790)" style="stroke:#000000; stroke-linecap:round; stroke-linejoin:round; stroke-width:4; stroke-opacity:1; fill:none" points="252.916,882.288 271.813,882.288 "/>
<polyline clip-path="url(#clip790)" style="stroke:#000000; stroke-linecap:round; stroke-linejoin:round; stroke-width:4; stroke-opacity:1; fill:none" points="252.916,753.888 271.813,753.888 "/>
<polyline clip-path="url(#clip790)" style="stroke:#000000; stroke-linecap:round; stroke-linejoin:round; stroke-width:4; stroke-opacity:1; fill:none" points="252.916,625.487 271.813,625.487 "/>
<polyline clip-path="url(#clip790)" style="stroke:#000000; stroke-linecap:round; stroke-linejoin:round; stroke-width:4; stroke-opacity:1; fill:none" points="252.916,497.087 271.813,497.087 "/>
<polyline clip-path="url(#clip790)" style="stroke:#000000; stroke-linecap:round; stroke-linejoin:round; stroke-width:4; stroke-opacity:1; fill:none" points="252.916,368.686 271.813,368.686 "/>
<polyline clip-path="url(#clip790)" style="stroke:#000000; stroke-linecap:round; stroke-linejoin:round; stroke-width:4; stroke-opacity:1; fill:none" points="252.916,240.285 271.813,240.285 "/>
<polyline clip-path="url(#clip790)" style="stroke:#000000; stroke-linecap:round; stroke-linejoin:round; stroke-width:4; stroke-opacity:1; fill:none" points="252.916,111.885 271.813,111.885 "/>
<path clip-path="url(#clip790)" d="M188.596 895.633 L204.916 895.633 L204.916 899.568 L182.971 899.568 L182.971 895.633 Q185.633 892.878 190.217 888.249 Q194.823 883.596 196.004 882.253 Q198.249 879.73 199.129 877.994 Q200.031 876.235 200.031 874.545 Q200.031 871.791 198.087 870.054 Q196.166 868.318 193.064 868.318 Q190.865 868.318 188.411 869.082 Q185.981 869.846 183.203 871.397 L183.203 866.675 Q186.027 865.541 188.481 864.962 Q190.934 864.383 192.971 864.383 Q198.342 864.383 201.536 867.068 Q204.731 869.753 204.731 874.244 Q204.731 876.374 203.92 878.295 Q203.133 880.193 201.027 882.786 Q200.448 883.457 197.346 886.675 Q194.244 889.869 188.596 895.633 Z" fill="#000000" fill-rule="nonzero" fill-opacity="1" /><path clip-path="url(#clip790)" d="M195.332 740.682 L183.527 759.131 L195.332 759.131 L195.332 740.682 M194.106 736.608 L199.985 736.608 L199.985 759.131 L204.916 759.131 L204.916 763.019 L199.985 763.019 L199.985 771.168 L195.332 771.168 L195.332 763.019 L179.731 763.019 L179.731 758.506 L194.106 736.608 Z" fill="#000000" fill-rule="nonzero" fill-opacity="1" /><path clip-path="url(#clip790)" d="M193.388 623.624 Q190.24 623.624 188.388 625.776 Q186.559 627.929 186.559 631.679 Q186.559 635.406 188.388 637.582 Q190.24 639.735 193.388 639.735 Q196.536 639.735 198.365 637.582 Q200.217 635.406 200.217 631.679 Q200.217 627.929 198.365 625.776 Q196.536 623.624 193.388 623.624 M202.67 608.971 L202.67 613.23 Q200.911 612.397 199.106 611.957 Q197.323 611.517 195.564 611.517 Q190.934 611.517 188.481 614.642 Q186.05 617.767 185.703 624.087 Q187.069 622.073 189.129 621.008 Q191.189 619.92 193.666 619.92 Q198.874 619.92 201.883 623.091 Q204.916 626.239 204.916 631.679 Q204.916 637.003 201.768 640.221 Q198.619 643.438 193.388 643.438 Q187.393 643.438 184.221 638.855 Q181.05 634.249 181.05 625.522 Q181.05 617.327 184.939 612.466 Q188.828 607.582 195.379 607.582 Q197.138 607.582 198.92 607.929 Q200.726 608.276 202.67 608.971 Z" fill="#000000" fill-rule="nonzero" fill-opacity="1" /><path clip-path="url(#clip790)" d="M193.064 497.955 Q189.731 497.955 187.809 499.737 Q185.911 501.519 185.911 504.644 Q185.911 507.769 187.809 509.552 Q189.731 511.334 193.064 511.334 Q196.397 511.334 198.319 509.552 Q200.24 507.746 200.24 504.644 Q200.24 501.519 198.319 499.737 Q196.42 497.955 193.064 497.955 M188.388 495.964 Q185.379 495.223 183.689 493.163 Q182.022 491.103 182.022 488.14 Q182.022 483.996 184.962 481.589 Q187.925 479.182 193.064 479.182 Q198.226 479.182 201.166 481.589 Q204.106 483.996 204.106 488.14 Q204.106 491.103 202.416 493.163 Q200.749 495.223 197.763 495.964 Q201.143 496.751 203.018 499.043 Q204.916 501.334 204.916 504.644 Q204.916 509.667 201.837 512.353 Q198.781 515.038 193.064 515.038 Q187.346 515.038 184.268 512.353 Q181.212 509.667 181.212 504.644 Q181.212 501.334 183.11 499.043 Q185.008 496.751 188.388 495.964 M186.675 488.58 Q186.675 491.265 188.342 492.769 Q190.032 494.274 193.064 494.274 Q196.073 494.274 197.763 492.769 Q199.476 491.265 199.476 488.58 Q199.476 485.894 197.763 484.39 Q196.073 482.885 193.064 482.885 Q190.032 482.885 188.342 484.39 Q186.675 485.894 186.675 488.58 Z" fill="#000000" fill-rule="nonzero" fill-opacity="1" /><path clip-path="url(#clip790)" d="M153.62 382.031 L161.259 382.031 L161.259 355.665 L152.948 357.332 L152.948 353.073 L161.212 351.406 L165.888 351.406 L165.888 382.031 L173.527 382.031 L173.527 385.966 L153.62 385.966 L153.62 382.031 Z" fill="#000000" fill-rule="nonzero" fill-opacity="1" /><path clip-path="url(#clip790)" d="M192.971 354.485 Q189.36 354.485 187.532 358.049 Q185.726 361.591 185.726 368.721 Q185.726 375.827 187.532 379.392 Q189.36 382.934 192.971 382.934 Q196.606 382.934 198.411 379.392 Q200.24 375.827 200.24 368.721 Q200.24 361.591 198.411 358.049 Q196.606 354.485 192.971 354.485 M192.971 350.781 Q198.781 350.781 201.837 355.387 Q204.916 359.971 204.916 368.721 Q204.916 377.447 201.837 382.054 Q198.781 386.637 192.971 386.637 Q187.161 386.637 184.082 382.054 Q181.027 377.447 181.027 368.721 Q181.027 359.971 184.082 355.387 Q187.161 350.781 192.971 350.781 Z" fill="#000000" fill-rule="nonzero" fill-opacity="1" /><path clip-path="url(#clip790)" d="M155.217 253.63 L162.856 253.63 L162.856 227.265 L154.546 228.931 L154.546 224.672 L162.809 223.005 L167.485 223.005 L167.485 253.63 L175.124 253.63 L175.124 257.565 L155.217 257.565 L155.217 253.63 Z" fill="#000000" fill-rule="nonzero" fill-opacity="1" /><path clip-path="url(#clip790)" d="M188.596 253.63 L204.916 253.63 L204.916 257.565 L182.971 257.565 L182.971 253.63 Q185.633 250.876 190.217 246.246 Q194.823 241.593 196.004 240.251 Q198.249 237.728 199.129 235.991 Q200.031 234.232 200.031 232.542 Q200.031 229.788 198.087 228.052 Q196.166 226.316 193.064 226.316 Q190.865 226.316 188.411 227.079 Q185.981 227.843 183.203 229.394 L183.203 224.672 Q186.027 223.538 188.481 222.959 Q190.934 222.38 192.971 222.38 Q198.342 222.38 201.536 225.066 Q204.731 227.751 204.731 232.241 Q204.731 234.371 203.92 236.292 Q203.133 238.191 201.027 240.783 Q200.448 241.454 197.346 244.672 Q194.244 247.866 188.596 253.63 Z" fill="#000000" fill-rule="nonzero" fill-opacity="1" /><path clip-path="url(#clip790)" d="M153.134 125.23 L160.772 125.23 L160.772 98.8641 L152.462 100.531 L152.462 96.2715 L160.726 94.6049 L165.402 94.6049 L165.402 125.23 L173.041 125.23 L173.041 129.165 L153.134 129.165 L153.134 125.23 Z" fill="#000000" fill-rule="nonzero" fill-opacity="1" /><path clip-path="url(#clip790)" d="M195.332 98.6789 L183.527 117.128 L195.332 117.128 L195.332 98.6789 M194.106 94.6049 L199.985 94.6049 L199.985 117.128 L204.916 117.128 L204.916 121.017 L199.985 121.017 L199.985 129.165 L195.332 129.165 L195.332 121.017 L179.731 121.017 L179.731 116.503 L194.106 94.6049 Z" fill="#000000" fill-rule="nonzero" fill-opacity="1" /><path clip-path="url(#clip790)" d="M55.927 730.954 L61.4015 730.954 Q60.0328 733.437 59.3644 735.951 Q58.6642 738.434 58.6642 740.98 Q58.6642 746.678 62.2927 749.829 Q65.8893 752.98 72.4141 752.98 Q78.939 752.98 82.5674 749.829 Q86.1641 746.678 86.1641 740.98 Q86.1641 738.434 85.4957 735.951 Q84.7954 733.437 83.4268 730.954 L88.8377 730.954 Q89.9835 733.405 90.5564 736.047 Q91.1293 738.657 91.1293 741.617 Q91.1293 749.669 86.0686 754.412 Q81.0078 759.154 72.4141 759.154 Q63.6931 759.154 58.696 754.38 Q53.699 749.574 53.699 741.235 Q53.699 738.529 54.2719 735.951 Q54.813 733.373 55.927 730.954 Z" fill="#000000" fill-rule="nonzero" fill-opacity="1" /><path clip-path="url(#clip790)" d="M58.6642 706.956 Q58.6642 711.666 62.3563 714.403 Q66.0166 717.141 72.4141 717.141 Q78.8117 717.141 82.5038 714.435 Q86.1641 711.698 86.1641 706.956 Q86.1641 702.277 82.4719 699.539 Q78.7798 696.802 72.4141 696.802 Q66.0803 696.802 62.3881 699.539 Q58.6642 702.277 58.6642 706.956 M53.699 706.956 Q53.699 699.317 58.6642 694.956 Q63.6295 690.596 72.4141 690.596 Q81.167 690.596 86.1641 694.956 Q91.1293 699.317 91.1293 706.956 Q91.1293 714.626 86.1641 718.987 Q81.167 723.315 72.4141 723.315 Q63.6295 723.315 58.6642 718.987 Q53.699 714.626 53.699 706.956 Z" fill="#000000" fill-rule="nonzero" fill-opacity="1" /><path clip-path="url(#clip790)" d="M68.6902 651.256 L90.2063 651.256 L90.2063 657.112 L68.8812 657.112 Q63.8204 657.112 61.306 659.085 Q58.7915 661.059 58.7915 665.006 Q58.7915 669.748 61.8152 672.485 Q64.8389 675.222 70.0588 675.222 L90.2063 675.222 L90.2063 681.111 L54.5583 681.111 L54.5583 675.222 L60.0965 675.222 Q56.8818 673.122 55.2904 670.289 Q53.699 667.424 53.699 663.701 Q53.699 657.558 57.5184 654.407 Q61.306 651.256 68.6902 651.256 Z" fill="#000000" fill-rule="nonzero" fill-opacity="1" /><path clip-path="url(#clip790)" d="M55.6087 616.849 L61.1468 616.849 Q59.8737 619.332 59.2371 622.005 Q58.6006 624.679 58.6006 627.543 Q58.6006 631.904 59.9373 634.1 Q61.2741 636.264 63.9477 636.264 Q65.9848 636.264 67.1624 634.705 Q68.3083 633.145 69.3586 628.435 L69.8042 626.429 Q71.141 620.191 73.5918 617.581 Q76.0108 614.939 80.3713 614.939 Q85.3365 614.939 88.2329 618.886 Q91.1293 622.801 91.1293 629.676 Q91.1293 632.54 90.5564 635.66 Q90.0153 638.747 88.9013 642.184 L82.8539 642.184 Q84.5408 638.938 85.4002 635.787 Q86.2277 632.636 86.2277 629.549 Q86.2277 625.411 84.8273 623.183 Q83.395 620.955 80.8169 620.955 Q78.4297 620.955 77.1566 622.578 Q75.8834 624.169 74.7058 629.612 L74.2284 631.649 Q73.0825 637.092 70.7272 639.511 Q68.3401 641.93 64.2024 641.93 Q59.1735 641.93 56.4362 638.365 Q53.699 634.8 53.699 628.244 Q53.699 624.997 54.1764 622.132 Q54.6538 619.268 55.6087 616.849 Z" fill="#000000" fill-rule="nonzero" fill-opacity="1" /><path clip-path="url(#clip790)" d="M76.1381 606.218 L54.5583 606.218 L54.5583 600.362 L75.9153 600.362 Q80.976 600.362 83.5223 598.388 Q86.0367 596.415 86.0367 592.468 Q86.0367 587.726 83.013 584.989 Q79.9893 582.219 74.7694 582.219 L54.5583 582.219 L54.5583 576.363 L90.2063 576.363 L90.2063 582.219 L84.7318 582.219 Q87.9783 584.352 89.5697 587.185 Q91.1293 589.986 91.1293 593.71 Q91.1293 599.852 87.3099 603.035 Q83.4905 606.218 76.1381 606.218 M53.699 591.482 L53.699 591.482 Z" fill="#000000" fill-rule="nonzero" fill-opacity="1" /><path clip-path="url(#clip790)" d="M61.4015 536.546 Q57.4547 534.349 55.5768 531.294 Q53.699 528.238 53.699 524.101 Q53.699 518.531 57.6139 515.507 Q61.4969 512.483 68.6902 512.483 L90.2063 512.483 L90.2063 518.371 L68.8812 518.371 Q63.7568 518.371 61.2741 520.186 Q58.7915 522 58.7915 525.724 Q58.7915 530.275 61.8152 532.917 Q64.8389 535.559 70.0588 535.559 L90.2063 535.559 L90.2063 541.447 L68.8812 541.447 Q63.7249 541.447 61.2741 543.261 Q58.7915 545.076 58.7915 548.863 Q58.7915 553.351 61.8471 555.993 Q64.8708 558.635 70.0588 558.635 L90.2063 558.635 L90.2063 564.523 L54.5583 564.523 L54.5583 558.635 L60.0965 558.635 Q56.8182 556.629 55.2586 553.828 Q53.699 551.028 53.699 547.176 Q53.699 543.293 55.6723 540.588 Q57.6457 537.851 61.4015 536.546 Z" fill="#000000" fill-rule="nonzero" fill-opacity="1" /><path clip-path="url(#clip790)" d="M84.8591 495.137 L103.765 495.137 L103.765 501.025 L54.5583 501.025 L54.5583 495.137 L59.9692 495.137 Q56.7863 493.291 55.2586 490.49 Q53.699 487.657 53.699 483.742 Q53.699 477.249 58.8552 473.207 Q64.0114 469.133 72.4141 469.133 Q80.8169 469.133 85.9731 473.207 Q91.1293 477.249 91.1293 483.742 Q91.1293 487.657 89.6015 490.49 Q88.0419 493.291 84.8591 495.137 M72.4141 475.212 Q65.9529 475.212 62.2927 477.886 Q58.6006 480.527 58.6006 485.174 Q58.6006 489.821 62.2927 492.495 Q65.9529 495.137 72.4141 495.137 Q78.8753 495.137 82.5674 492.495 Q86.2277 489.821 86.2277 485.174 Q86.2277 480.527 82.5674 477.886 Q78.8753 475.212 72.4141 475.212 Z" fill="#000000" fill-rule="nonzero" fill-opacity="1" /><path clip-path="url(#clip790)" d="M44.4369 453.632 L54.5583 453.632 L54.5583 441.569 L59.1098 441.569 L59.1098 453.632 L78.4616 453.632 Q82.8221 453.632 84.0634 452.455 Q85.3047 451.245 85.3047 447.585 L85.3047 441.569 L90.2063 441.569 L90.2063 447.585 Q90.2063 454.364 87.6918 456.942 Q85.1455 459.52 78.4616 459.52 L59.1098 459.52 L59.1098 463.817 L54.5583 463.817 L54.5583 459.52 L44.4369 459.52 L44.4369 453.632 Z" fill="#000000" fill-rule="nonzero" fill-opacity="1" /><path clip-path="url(#clip790)" d="M54.5583 433.867 L54.5583 428.01 L90.2063 428.01 L90.2063 433.867 L54.5583 433.867 M40.6811 433.867 L40.6811 428.01 L48.0971 428.01 L48.0971 433.867 L40.6811 433.867 Z" fill="#000000" fill-rule="nonzero" fill-opacity="1" /><path clip-path="url(#clip790)" d="M58.6642 401.943 Q58.6642 406.653 62.3563 409.391 Q66.0166 412.128 72.4141 412.128 Q78.8117 412.128 82.5038 409.422 Q86.1641 406.685 86.1641 401.943 Q86.1641 397.264 82.4719 394.527 Q78.7798 391.789 72.4141 391.789 Q66.0803 391.789 62.3881 394.527 Q58.6642 397.264 58.6642 401.943 M53.699 401.943 Q53.699 394.304 58.6642 389.943 Q63.6295 385.583 72.4141 385.583 Q81.167 385.583 86.1641 389.943 Q91.1293 394.304 91.1293 401.943 Q91.1293 409.613 86.1641 413.974 Q81.167 418.303 72.4141 418.303 Q63.6295 418.303 58.6642 413.974 Q53.699 409.613 53.699 401.943 Z" fill="#000000" fill-rule="nonzero" fill-opacity="1" /><path clip-path="url(#clip790)" d="M68.6902 346.243 L90.2063 346.243 L90.2063 352.099 L68.8812 352.099 Q63.8204 352.099 61.306 354.073 Q58.7915 356.046 58.7915 359.993 Q58.7915 364.735 61.8152 367.472 Q64.8389 370.21 70.0588 370.21 L90.2063 370.21 L90.2063 376.098 L54.5583 376.098 L54.5583 370.21 L60.0965 370.21 Q56.8818 368.109 55.2904 365.276 Q53.699 362.412 53.699 358.688 Q53.699 352.545 57.5184 349.394 Q61.306 346.243 68.6902 346.243 Z" fill="#000000" fill-rule="nonzero" fill-opacity="1" /><path clip-path="url(#clip790)" d="M55.927 288.188 L61.4015 288.188 Q60.0328 290.67 59.3644 293.185 Q58.6642 295.667 58.6642 298.213 Q58.6642 303.911 62.2927 307.062 Q65.8893 310.213 72.4141 310.213 Q78.939 310.213 82.5674 307.062 Q86.1641 303.911 86.1641 298.213 Q86.1641 295.667 85.4957 293.185 Q84.7954 290.67 83.4268 288.188 L88.8377 288.188 Q89.9835 290.638 90.5564 293.28 Q91.1293 295.89 91.1293 298.85 Q91.1293 306.903 86.0686 311.645 Q81.0078 316.388 72.4141 316.388 Q63.6931 316.388 58.696 311.613 Q53.699 306.807 53.699 298.468 Q53.699 295.763 54.2719 293.185 Q54.813 290.606 55.927 288.188 Z" fill="#000000" fill-rule="nonzero" fill-opacity="1" /><polyline clip-path="url(#clip792)" style="stroke:#009af9; stroke-linecap:round; stroke-linejoin:round; stroke-width:4; stroke-opacity:1; fill:none" points="288.933,973.13 326.45,938.536 363.968,906.439 401.485,876.234 439.003,847.204 476.52,819.012 514.038,791.305 551.555,763.89 589.073,736.661 626.59,709.555 664.108,682.533 701.625,655.572 739.143,628.654 776.661,601.768 814.178,574.907 851.696,548.065 889.213,521.238 926.731,494.423 964.248,467.618 1001.77,440.82 1039.28,414.028 1076.8,387.242 1114.32,360.46 1151.84,333.682 1189.35,306.908 1226.87,280.135 1264.39,253.366 1301.91,226.598 1339.42,199.832 1376.94,173.067 1414.46,146.304 1451.98,119.542 1489.49,92.7814 "/>
<polyline clip-path="url(#clip792)" style="stroke:#e26f46; stroke-linecap:round; stroke-linejoin:round; stroke-width:4; stroke-opacity:1; fill:none" points="288.933,942.021 326.45,916.082 363.968,890.142 401.485,864.172 439.003,835.694 476.52,807.923 514.038,780.551 551.555,753.393 589.073,726.362 626.59,699.413 664.108,672.517 701.625,645.659 739.143,618.827 776.661,592.014 814.178,565.215 851.696,538.427 889.213,511.647 926.731,484.873 964.248,458.104 1001.77,431.339 1039.28,404.577 1076.8,377.818 1114.32,351.06 1151.84,324.304 1189.35,297.55 1226.87,270.796 1264.39,244.044 1301.91,217.292 1339.42,190.541 1376.94,163.79 1414.46,137.04 1451.98,110.29 1489.49,83.5405 "/>
<polyline clip-path="url(#clip792)" style="stroke:#3da44d; stroke-linecap:round; stroke-linejoin:round; stroke-width:4; stroke-opacity:1; fill:none" points="288.933,916.184 326.45,884.973 363.968,859.034 401.485,834.612 439.003,810.502 476.52,786.542 514.038,762.685 551.555,738.916 589.073,715.196 626.59,689.423 664.108,662.588 701.625,635.794 739.143,609.023 776.661,582.264 814.178,555.513 851.696,528.767 889.213,502.024 926.731,475.284 964.248,448.545 1001.77,421.807 1039.28,395.07 1076.8,368.332 1114.32,341.595 1151.84,314.858 1189.35,288.121 1226.87,261.383 1264.39,234.645 1301.91,207.907 1339.42,181.169 1376.94,154.43 1414.46,127.691 1451.98,100.951 1489.49,74.2116 "/>
<path clip-path="url(#clip790)" d="M295.336 286.366 L621.321 286.366 L621.321 79.0059 L295.336 79.0059  Z" fill="#ffffff" fill-rule="evenodd" fill-opacity="1"/>
<polyline clip-path="url(#clip790)" style="stroke:#000000; stroke-linecap:round; stroke-linejoin:round; stroke-width:4; stroke-opacity:1; fill:none" points="295.336,286.366 621.321,286.366 621.321,79.0059 295.336,79.0059 295.336,286.366 "/>
<polyline clip-path="url(#clip790)" style="stroke:#009af9; stroke-linecap:round; stroke-linejoin:round; stroke-width:4; stroke-opacity:1; fill:none" points="309.475,130.846 394.315,130.846 "/>
<path clip-path="url(#clip790)" d="M422.298 150.533 Q420.492 155.163 418.779 156.575 Q417.066 157.987 414.196 157.987 L410.793 157.987 L410.793 154.422 L413.293 154.422 Q415.052 154.422 416.024 153.589 Q416.997 152.755 418.177 149.654 L418.941 147.709 L408.455 122.2 L412.969 122.2 L421.071 142.478 L429.173 122.2 L433.686 122.2 L422.298 150.533 Z" fill="#000000" fill-rule="nonzero" fill-opacity="1" /><path clip-path="url(#clip790)" d="M455.191 126.598 L484.867 126.598 L484.867 130.487 L455.191 130.487 L455.191 126.598 M455.191 136.043 L484.867 136.043 L484.867 139.978 L455.191 139.978 L455.191 136.043 Z" fill="#000000" fill-rule="nonzero" fill-opacity="1" /><path clip-path="url(#clip790)" d="M520.029 116.645 Q516.417 116.645 514.589 120.209 Q512.783 123.751 512.783 130.881 Q512.783 137.987 514.589 141.552 Q516.417 145.093 520.029 145.093 Q523.663 145.093 525.468 141.552 Q527.297 137.987 527.297 130.881 Q527.297 123.751 525.468 120.209 Q523.663 116.645 520.029 116.645 M520.029 112.941 Q525.839 112.941 528.894 117.547 Q531.973 122.131 531.973 130.881 Q531.973 139.607 528.894 144.214 Q525.839 148.797 520.029 148.797 Q514.218 148.797 511.14 144.214 Q508.084 139.607 508.084 130.881 Q508.084 122.131 511.14 117.547 Q514.218 112.941 520.029 112.941 Z" fill="#000000" fill-rule="nonzero" fill-opacity="1" /><path clip-path="url(#clip790)" d="M540.19 142.246 L545.075 142.246 L545.075 148.126 L540.19 148.126 L540.19 142.246 Z" fill="#000000" fill-rule="nonzero" fill-opacity="1" /><path clip-path="url(#clip790)" d="M555.306 113.566 L573.663 113.566 L573.663 117.501 L559.589 117.501 L559.589 125.973 Q560.607 125.626 561.626 125.464 Q562.644 125.279 563.663 125.279 Q569.45 125.279 572.829 128.45 Q576.209 131.621 576.209 137.038 Q576.209 142.617 572.737 145.718 Q569.264 148.797 562.945 148.797 Q560.769 148.797 558.501 148.427 Q556.255 148.056 553.848 147.316 L553.848 142.617 Q555.931 143.751 558.153 144.306 Q560.376 144.862 562.852 144.862 Q566.857 144.862 569.195 142.756 Q571.533 140.649 571.533 137.038 Q571.533 133.427 569.195 131.32 Q566.857 129.214 562.852 129.214 Q560.977 129.214 559.102 129.631 Q557.251 130.047 555.306 130.927 L555.306 113.566 Z" fill="#000000" fill-rule="nonzero" fill-opacity="1" /><path clip-path="url(#clip790)" d="M585.561 147.408 L585.561 143.149 Q587.32 143.982 589.125 144.422 Q590.931 144.862 592.667 144.862 Q597.297 144.862 599.727 141.76 Q602.181 138.635 602.528 132.293 Q601.186 134.283 599.125 135.348 Q597.065 136.413 594.565 136.413 Q589.38 136.413 586.348 133.288 Q583.338 130.14 583.338 124.7 Q583.338 119.376 586.487 116.158 Q589.635 112.941 594.866 112.941 Q600.861 112.941 604.01 117.547 Q607.181 122.131 607.181 130.881 Q607.181 139.052 603.292 143.936 Q599.426 148.797 592.875 148.797 Q591.116 148.797 589.311 148.45 Q587.505 148.103 585.561 147.408 M594.866 132.756 Q598.014 132.756 599.843 130.603 Q601.695 128.45 601.695 124.7 Q601.695 120.973 599.843 118.82 Q598.014 116.645 594.866 116.645 Q591.718 116.645 589.866 118.82 Q588.037 120.973 588.037 124.7 Q588.037 128.45 589.866 130.603 Q591.718 132.756 594.866 132.756 Z" fill="#000000" fill-rule="nonzero" fill-opacity="1" /><polyline clip-path="url(#clip790)" style="stroke:#e26f46; stroke-linecap:round; stroke-linejoin:round; stroke-width:4; stroke-opacity:1; fill:none" points="309.475,182.686 394.315,182.686 "/>
<path clip-path="url(#clip790)" d="M422.298 202.373 Q420.492 207.003 418.779 208.415 Q417.066 209.827 414.196 209.827 L410.793 209.827 L410.793 206.262 L413.293 206.262 Q415.052 206.262 416.024 205.429 Q416.997 204.595 418.177 201.494 L418.941 199.549 L408.455 174.04 L412.969 174.04 L421.071 194.318 L429.173 174.04 L433.686 174.04 L422.298 202.373 Z" fill="#000000" fill-rule="nonzero" fill-opacity="1" /><path clip-path="url(#clip790)" d="M455.191 178.438 L484.867 178.438 L484.867 182.327 L455.191 182.327 L455.191 178.438 M455.191 187.883 L484.867 187.883 L484.867 191.818 L455.191 191.818 L455.191 187.883 Z" fill="#000000" fill-rule="nonzero" fill-opacity="1" /><path clip-path="url(#clip790)" d="M510.839 196.031 L518.478 196.031 L518.478 169.665 L510.168 171.332 L510.168 167.073 L518.431 165.406 L523.107 165.406 L523.107 196.031 L530.746 196.031 L530.746 199.966 L510.839 199.966 L510.839 196.031 Z" fill="#000000" fill-rule="nonzero" fill-opacity="1" /><path clip-path="url(#clip790)" d="M540.19 194.086 L545.075 194.086 L545.075 199.966 L540.19 199.966 L540.19 194.086 Z" fill="#000000" fill-rule="nonzero" fill-opacity="1" /><path clip-path="url(#clip790)" d="M565.26 168.485 Q561.649 168.485 559.82 172.049 Q558.014 175.591 558.014 182.721 Q558.014 189.827 559.82 193.392 Q561.649 196.933 565.26 196.933 Q568.894 196.933 570.7 193.392 Q572.528 189.827 572.528 182.721 Q572.528 175.591 570.7 172.049 Q568.894 168.485 565.26 168.485 M565.26 164.781 Q571.07 164.781 574.126 169.387 Q577.204 173.971 577.204 182.721 Q577.204 191.447 574.126 196.054 Q571.07 200.637 565.26 200.637 Q559.45 200.637 556.371 196.054 Q553.315 191.447 553.315 182.721 Q553.315 173.971 556.371 169.387 Q559.45 164.781 565.26 164.781 Z" fill="#000000" fill-rule="nonzero" fill-opacity="1" /><path clip-path="url(#clip790)" d="M584.241 165.406 L606.463 165.406 L606.463 167.397 L593.917 199.966 L589.033 199.966 L600.838 169.341 L584.241 169.341 L584.241 165.406 Z" fill="#000000" fill-rule="nonzero" fill-opacity="1" /><polyline clip-path="url(#clip790)" style="stroke:#3da44d; stroke-linecap:round; stroke-linejoin:round; stroke-width:4; stroke-opacity:1; fill:none" points="309.475,234.526 394.315,234.526 "/>
<path clip-path="url(#clip790)" d="M422.298 254.213 Q420.492 258.843 418.779 260.255 Q417.066 261.667 414.196 261.667 L410.793 261.667 L410.793 258.102 L413.293 258.102 Q415.052 258.102 416.024 257.269 Q416.997 256.435 418.177 253.334 L418.941 251.389 L408.455 225.88 L412.969 225.88 L421.071 246.158 L429.173 225.88 L433.686 225.88 L422.298 254.213 Z" fill="#000000" fill-rule="nonzero" fill-opacity="1" /><path clip-path="url(#clip790)" d="M455.191 230.278 L484.867 230.278 L484.867 234.167 L455.191 234.167 L455.191 230.278 M455.191 239.723 L484.867 239.723 L484.867 243.658 L455.191 243.658 L455.191 239.723 Z" fill="#000000" fill-rule="nonzero" fill-opacity="1" /><path clip-path="url(#clip790)" d="M510.839 247.871 L518.478 247.871 L518.478 221.505 L510.168 223.172 L510.168 218.913 L518.431 217.246 L523.107 217.246 L523.107 247.871 L530.746 247.871 L530.746 251.806 L510.839 251.806 L510.839 247.871 Z" fill="#000000" fill-rule="nonzero" fill-opacity="1" /><path clip-path="url(#clip790)" d="M540.19 245.926 L545.075 245.926 L545.075 251.806 L540.19 251.806 L540.19 245.926 Z" fill="#000000" fill-rule="nonzero" fill-opacity="1" /><path clip-path="url(#clip790)" d="M555.306 217.246 L573.663 217.246 L573.663 221.181 L559.589 221.181 L559.589 229.653 Q560.607 229.306 561.626 229.144 Q562.644 228.959 563.663 228.959 Q569.45 228.959 572.829 232.13 Q576.209 235.301 576.209 240.718 Q576.209 246.297 572.737 249.398 Q569.264 252.477 562.945 252.477 Q560.769 252.477 558.501 252.107 Q556.255 251.736 553.848 250.996 L553.848 246.297 Q555.931 247.431 558.153 247.986 Q560.376 248.542 562.852 248.542 Q566.857 248.542 569.195 246.436 Q571.533 244.329 571.533 240.718 Q571.533 237.107 569.195 235 Q566.857 232.894 562.852 232.894 Q560.977 232.894 559.102 233.311 Q557.251 233.727 555.306 234.607 L555.306 217.246 Z" fill="#000000" fill-rule="nonzero" fill-opacity="1" /><path clip-path="url(#clip790)" d="M585.468 217.246 L603.824 217.246 L603.824 221.181 L589.75 221.181 L589.75 229.653 Q590.769 229.306 591.787 229.144 Q592.806 228.959 593.824 228.959 Q599.611 228.959 602.991 232.13 Q606.371 235.301 606.371 240.718 Q606.371 246.297 602.898 249.398 Q599.426 252.477 593.107 252.477 Q590.931 252.477 588.662 252.107 Q586.417 251.736 584.01 250.996 L584.01 246.297 Q586.093 247.431 588.315 247.986 Q590.537 248.542 593.014 248.542 Q597.019 248.542 599.357 246.436 Q601.695 244.329 601.695 240.718 Q601.695 237.107 599.357 235 Q597.019 232.894 593.014 232.894 Q591.139 232.894 589.264 233.311 Q587.412 233.727 585.468 234.607 L585.468 217.246 Z" fill="#000000" fill-rule="nonzero" fill-opacity="1" /><path clip-path="url(#clip790)" d="M1880.16 1000.1 L3152.76 1000.1 L3152.76 47.2441 L1880.16 47.2441  Z" fill="#ffffff" fill-rule="evenodd" fill-opacity="1"/>
<polyline clip-path="url(#clip791)" style="stroke:#000000; stroke-linecap:round; stroke-linejoin:round; stroke-width:2; stroke-opacity:0.1; fill:none" points="1916.18,1000.1 1916.18,47.2441 "/>
<polyline clip-path="url(#clip791)" style="stroke:#000000; stroke-linecap:round; stroke-linejoin:round; stroke-width:2; stroke-opacity:0.1; fill:none" points="2287.6,1000.1 2287.6,47.2441 "/>
<polyline clip-path="url(#clip791)" style="stroke:#000000; stroke-linecap:round; stroke-linejoin:round; stroke-width:2; stroke-opacity:0.1; fill:none" points="2659.03,1000.1 2659.03,47.2441 "/>
<polyline clip-path="url(#clip791)" style="stroke:#000000; stroke-linecap:round; stroke-linejoin:round; stroke-width:2; stroke-opacity:0.1; fill:none" points="3030.45,1000.1 3030.45,47.2441 "/>
<polyline clip-path="url(#clip791)" style="stroke:#000000; stroke-linecap:round; stroke-linejoin:round; stroke-width:2; stroke-opacity:0.1; fill:none" points="1880.16,891.824 3152.76,891.824 "/>
<polyline clip-path="url(#clip791)" style="stroke:#000000; stroke-linecap:round; stroke-linejoin:round; stroke-width:2; stroke-opacity:0.1; fill:none" points="1880.16,695.481 3152.76,695.481 "/>
<polyline clip-path="url(#clip791)" style="stroke:#000000; stroke-linecap:round; stroke-linejoin:round; stroke-width:2; stroke-opacity:0.1; fill:none" points="1880.16,499.139 3152.76,499.139 "/>
<polyline clip-path="url(#clip791)" style="stroke:#000000; stroke-linecap:round; stroke-linejoin:round; stroke-width:2; stroke-opacity:0.1; fill:none" points="1880.16,302.796 3152.76,302.796 "/>
<polyline clip-path="url(#clip791)" style="stroke:#000000; stroke-linecap:round; stroke-linejoin:round; stroke-width:2; stroke-opacity:0.1; fill:none" points="1880.16,106.454 3152.76,106.454 "/>
<polyline clip-path="url(#clip790)" style="stroke:#000000; stroke-linecap:round; stroke-linejoin:round; stroke-width:4; stroke-opacity:1; fill:none" points="1880.16,1000.1 3152.76,1000.1 "/>
<polyline clip-path="url(#clip790)" style="stroke:#000000; stroke-linecap:round; stroke-linejoin:round; stroke-width:4; stroke-opacity:1; fill:none" points="1916.18,1000.1 1916.18,981.2 "/>
<polyline clip-path="url(#clip790)" style="stroke:#000000; stroke-linecap:round; stroke-linejoin:round; stroke-width:4; stroke-opacity:1; fill:none" points="2287.6,1000.1 2287.6,981.2 "/>
<polyline clip-path="url(#clip790)" style="stroke:#000000; stroke-linecap:round; stroke-linejoin:round; stroke-width:4; stroke-opacity:1; fill:none" points="2659.03,1000.1 2659.03,981.2 "/>
<polyline clip-path="url(#clip790)" style="stroke:#000000; stroke-linecap:round; stroke-linejoin:round; stroke-width:4; stroke-opacity:1; fill:none" points="3030.45,1000.1 3030.45,981.2 "/>
<path clip-path="url(#clip790)" d="M1916.18 1037.42 Q1912.57 1037.42 1910.74 1040.98 Q1908.93 1044.52 1908.93 1051.65 Q1908.93 1058.76 1910.74 1062.32 Q1912.57 1065.87 1916.18 1065.87 Q1919.81 1065.87 1921.62 1062.32 Q1923.45 1058.76 1923.45 1051.65 Q1923.45 1044.52 1921.62 1040.98 Q1919.81 1037.42 1916.18 1037.42 M1916.18 1033.71 Q1921.99 1033.71 1925.04 1038.32 Q1928.12 1042.9 1928.12 1051.65 Q1928.12 1060.38 1925.04 1064.99 Q1921.99 1069.57 1916.18 1069.57 Q1910.37 1069.57 1907.29 1064.99 Q1904.23 1060.38 1904.23 1051.65 Q1904.23 1042.9 1907.29 1038.32 Q1910.37 1033.71 1916.18 1033.71 Z" fill="#000000" fill-rule="nonzero" fill-opacity="1" /><path clip-path="url(#clip790)" d="M2247.21 1064.96 L2254.85 1064.96 L2254.85 1038.6 L2246.54 1040.26 L2246.54 1036 L2254.8 1034.34 L2259.48 1034.34 L2259.48 1064.96 L2267.12 1064.96 L2267.12 1068.9 L2247.21 1068.9 L2247.21 1064.96 Z" fill="#000000" fill-rule="nonzero" fill-opacity="1" /><path clip-path="url(#clip790)" d="M2286.56 1037.42 Q2282.95 1037.42 2281.12 1040.98 Q2279.31 1044.52 2279.31 1051.65 Q2279.31 1058.76 2281.12 1062.32 Q2282.95 1065.87 2286.56 1065.87 Q2290.19 1065.87 2292 1062.32 Q2293.83 1058.76 2293.83 1051.65 Q2293.83 1044.52 2292 1040.98 Q2290.19 1037.42 2286.56 1037.42 M2286.56 1033.71 Q2292.37 1033.71 2295.43 1038.32 Q2298.5 1042.9 2298.5 1051.65 Q2298.5 1060.38 2295.43 1064.99 Q2292.37 1069.57 2286.56 1069.57 Q2280.75 1069.57 2277.67 1064.99 Q2274.62 1060.38 2274.62 1051.65 Q2274.62 1042.9 2277.67 1038.32 Q2280.75 1033.71 2286.56 1033.71 Z" fill="#000000" fill-rule="nonzero" fill-opacity="1" /><path clip-path="url(#clip790)" d="M2316.72 1037.42 Q2313.11 1037.42 2311.28 1040.98 Q2309.48 1044.52 2309.48 1051.65 Q2309.48 1058.76 2311.28 1062.32 Q2313.11 1065.87 2316.72 1065.87 Q2320.36 1065.87 2322.16 1062.32 Q2323.99 1058.76 2323.99 1051.65 Q2323.99 1044.52 2322.16 1040.98 Q2320.36 1037.42 2316.72 1037.42 M2316.72 1033.71 Q2322.53 1033.71 2325.59 1038.32 Q2328.67 1042.9 2328.67 1051.65 Q2328.67 1060.38 2325.59 1064.99 Q2322.53 1069.57 2316.72 1069.57 Q2310.91 1069.57 2307.83 1064.99 Q2304.78 1060.38 2304.78 1051.65 Q2304.78 1042.9 2307.83 1038.32 Q2310.91 1033.71 2316.72 1033.71 Z" fill="#000000" fill-rule="nonzero" fill-opacity="1" /><path clip-path="url(#clip790)" d="M2622.72 1064.96 L2639.04 1064.96 L2639.04 1068.9 L2617.09 1068.9 L2617.09 1064.96 Q2619.75 1062.21 2624.34 1057.58 Q2628.94 1052.93 2630.12 1051.58 Q2632.37 1049.06 2633.25 1047.32 Q2634.15 1045.56 2634.15 1043.87 Q2634.15 1041.12 2632.21 1039.38 Q2630.29 1037.65 2627.18 1037.65 Q2624.99 1037.65 2622.53 1038.41 Q2620.1 1039.18 2617.32 1040.73 L2617.32 1036 Q2620.15 1034.87 2622.6 1034.29 Q2625.06 1033.71 2627.09 1033.71 Q2632.46 1033.71 2635.66 1036.4 Q2638.85 1039.08 2638.85 1043.57 Q2638.85 1045.7 2638.04 1047.62 Q2637.25 1049.52 2635.15 1052.12 Q2634.57 1052.79 2631.47 1056 Q2628.37 1059.2 2622.72 1064.96 Z" fill="#000000" fill-rule="nonzero" fill-opacity="1" /><path clip-path="url(#clip790)" d="M2658.85 1037.42 Q2655.24 1037.42 2653.41 1040.98 Q2651.61 1044.52 2651.61 1051.65 Q2651.61 1058.76 2653.41 1062.32 Q2655.24 1065.87 2658.85 1065.87 Q2662.49 1065.87 2664.29 1062.32 Q2666.12 1058.76 2666.12 1051.65 Q2666.12 1044.52 2664.29 1040.98 Q2662.49 1037.42 2658.85 1037.42 M2658.85 1033.71 Q2664.66 1033.71 2667.72 1038.32 Q2670.8 1042.9 2670.8 1051.65 Q2670.8 1060.38 2667.72 1064.99 Q2664.66 1069.57 2658.85 1069.57 Q2653.04 1069.57 2649.96 1064.99 Q2646.91 1060.38 2646.91 1051.65 Q2646.91 1042.9 2649.96 1038.32 Q2653.04 1033.71 2658.85 1033.71 Z" fill="#000000" fill-rule="nonzero" fill-opacity="1" /><path clip-path="url(#clip790)" d="M2689.01 1037.42 Q2685.4 1037.42 2683.57 1040.98 Q2681.77 1044.52 2681.77 1051.65 Q2681.77 1058.76 2683.57 1062.32 Q2685.4 1065.87 2689.01 1065.87 Q2692.65 1065.87 2694.45 1062.32 Q2696.28 1058.76 2696.28 1051.65 Q2696.28 1044.52 2694.45 1040.98 Q2692.65 1037.42 2689.01 1037.42 M2689.01 1033.71 Q2694.82 1033.71 2697.88 1038.32 Q2700.96 1042.9 2700.96 1051.65 Q2700.96 1060.38 2697.88 1064.99 Q2694.82 1069.57 2689.01 1069.57 Q2683.2 1069.57 2680.12 1064.99 Q2677.07 1060.38 2677.07 1051.65 Q2677.07 1042.9 2680.12 1038.32 Q2683.2 1033.71 2689.01 1033.71 Z" fill="#000000" fill-rule="nonzero" fill-opacity="1" /><path clip-path="url(#clip790)" d="M3004.21 1050.26 Q3007.57 1050.98 3009.44 1053.25 Q3011.34 1055.52 3011.34 1058.85 Q3011.34 1063.97 3007.82 1066.77 Q3004.3 1069.57 2997.82 1069.57 Q2995.65 1069.57 2993.33 1069.13 Q2991.04 1068.71 2988.59 1067.86 L2988.59 1063.34 Q2990.53 1064.48 2992.84 1065.06 Q2995.16 1065.63 2997.68 1065.63 Q3002.08 1065.63 3004.37 1063.9 Q3006.69 1062.16 3006.69 1058.85 Q3006.69 1055.8 3004.53 1054.08 Q3002.4 1052.35 2998.59 1052.35 L2994.56 1052.35 L2994.56 1048.5 L2998.77 1048.5 Q3002.22 1048.5 3004.05 1047.14 Q3005.88 1045.75 3005.88 1043.16 Q3005.88 1040.5 3003.98 1039.08 Q3002.1 1037.65 2998.59 1037.65 Q2996.66 1037.65 2994.47 1038.06 Q2992.27 1038.48 2989.63 1039.36 L2989.63 1035.19 Q2992.29 1034.45 2994.6 1034.08 Q2996.94 1033.71 2999 1033.71 Q3004.33 1033.71 3007.43 1036.14 Q3010.53 1038.55 3010.53 1042.67 Q3010.53 1045.54 3008.89 1047.53 Q3007.24 1049.5 3004.21 1050.26 Z" fill="#000000" fill-rule="nonzero" fill-opacity="1" /><path clip-path="url(#clip790)" d="M3030.21 1037.42 Q3026.59 1037.42 3024.77 1040.98 Q3022.96 1044.52 3022.96 1051.65 Q3022.96 1058.76 3024.77 1062.32 Q3026.59 1065.87 3030.21 1065.87 Q3033.84 1065.87 3035.65 1062.32 Q3037.47 1058.76 3037.47 1051.65 Q3037.47 1044.52 3035.65 1040.98 Q3033.84 1037.42 3030.21 1037.42 M3030.21 1033.71 Q3036.02 1033.71 3039.07 1038.32 Q3042.15 1042.9 3042.15 1051.65 Q3042.15 1060.38 3039.07 1064.99 Q3036.02 1069.57 3030.21 1069.57 Q3024.4 1069.57 3021.32 1064.99 Q3018.26 1060.38 3018.26 1051.65 Q3018.26 1042.9 3021.32 1038.32 Q3024.4 1033.71 3030.21 1033.71 Z" fill="#000000" fill-rule="nonzero" fill-opacity="1" /><path clip-path="url(#clip790)" d="M3060.37 1037.42 Q3056.76 1037.42 3054.93 1040.98 Q3053.12 1044.52 3053.12 1051.65 Q3053.12 1058.76 3054.93 1062.32 Q3056.76 1065.87 3060.37 1065.87 Q3064 1065.87 3065.81 1062.32 Q3067.64 1058.76 3067.64 1051.65 Q3067.64 1044.52 3065.81 1040.98 Q3064 1037.42 3060.37 1037.42 M3060.37 1033.71 Q3066.18 1033.71 3069.23 1038.32 Q3072.31 1042.9 3072.31 1051.65 Q3072.31 1060.38 3069.23 1064.99 Q3066.18 1069.57 3060.37 1069.57 Q3054.56 1069.57 3051.48 1064.99 Q3048.42 1060.38 3048.42 1051.65 Q3048.42 1042.9 3051.48 1038.32 Q3054.56 1033.71 3060.37 1033.71 Z" fill="#000000" fill-rule="nonzero" fill-opacity="1" /><path clip-path="url(#clip790)" d="M2381.28 1121.31 L2387.14 1121.31 L2394.46 1149.13 L2401.75 1121.31 L2408.66 1121.31 L2415.98 1149.13 L2423.26 1121.31 L2429.12 1121.31 L2419.8 1156.96 L2412.89 1156.96 L2405.22 1127.74 L2397.52 1156.96 L2390.61 1156.96 L2381.28 1121.31 Z" fill="#000000" fill-rule="nonzero" fill-opacity="1" /><path clip-path="url(#clip790)" d="M2468.49 1137.67 L2468.49 1140.54 L2441.57 1140.54 Q2441.95 1146.59 2445.19 1149.77 Q2448.47 1152.92 2454.3 1152.92 Q2457.67 1152.92 2460.82 1152.09 Q2464 1151.26 2467.12 1149.61 L2467.12 1155.15 Q2463.97 1156.48 2460.66 1157.18 Q2457.35 1157.88 2453.95 1157.88 Q2445.42 1157.88 2440.42 1152.92 Q2435.45 1147.95 2435.45 1139.49 Q2435.45 1130.74 2440.17 1125.61 Q2444.91 1120.45 2452.93 1120.45 Q2460.12 1120.45 2464.29 1125.1 Q2468.49 1129.72 2468.49 1137.67 M2462.64 1135.95 Q2462.57 1131.15 2459.93 1128.28 Q2457.32 1125.42 2452.99 1125.42 Q2448.09 1125.42 2445.13 1128.19 Q2442.2 1130.96 2441.76 1135.99 L2462.64 1135.95 Z" fill="#000000" fill-rule="nonzero" fill-opacity="1" /><path clip-path="url(#clip790)" d="M2494.31 1139.04 Q2487.21 1139.04 2484.47 1140.67 Q2481.73 1142.29 2481.73 1146.2 Q2481.73 1149.32 2483.77 1151.17 Q2485.84 1152.98 2489.37 1152.98 Q2494.24 1152.98 2497.17 1149.55 Q2500.13 1146.08 2500.13 1140.35 L2500.13 1139.04 L2494.31 1139.04 M2505.99 1136.62 L2505.99 1156.96 L2500.13 1156.96 L2500.13 1151.55 Q2498.13 1154.8 2495.13 1156.36 Q2492.14 1157.88 2487.81 1157.88 Q2482.34 1157.88 2479.09 1154.83 Q2475.88 1151.74 2475.88 1146.59 Q2475.88 1140.57 2479.89 1137.51 Q2483.93 1134.46 2491.92 1134.46 L2500.13 1134.46 L2500.13 1133.89 Q2500.13 1129.84 2497.46 1127.65 Q2494.82 1125.42 2490.01 1125.42 Q2486.95 1125.42 2484.06 1126.15 Q2481.16 1126.88 2478.49 1128.35 L2478.49 1122.94 Q2481.7 1121.7 2484.73 1121.09 Q2487.75 1120.45 2490.61 1120.45 Q2498.35 1120.45 2502.17 1124.46 Q2505.99 1128.48 2505.99 1136.62 Z" fill="#000000" fill-rule="nonzero" fill-opacity="1" /><path clip-path="url(#clip790)" d="M2518.05 1107.44 L2523.91 1107.44 L2523.91 1156.96 L2518.05 1156.96 L2518.05 1107.44 Z" fill="#000000" fill-rule="nonzero" fill-opacity="1" /><path clip-path="url(#clip790)" d="M2541.95 1111.19 L2541.95 1121.31 L2554.02 1121.31 L2554.02 1125.87 L2541.95 1125.87 L2541.95 1145.22 Q2541.95 1149.58 2543.13 1150.82 Q2544.34 1152.06 2548 1152.06 L2554.02 1152.06 L2554.02 1156.96 L2548 1156.96 Q2541.22 1156.96 2538.64 1154.45 Q2536.06 1151.9 2536.06 1145.22 L2536.06 1125.87 L2531.77 1125.87 L2531.77 1121.31 L2536.06 1121.31 L2536.06 1111.19 L2541.95 1111.19 Z" fill="#000000" fill-rule="nonzero" fill-opacity="1" /><path clip-path="url(#clip790)" d="M2591.35 1135.45 L2591.35 1156.96 L2585.49 1156.96 L2585.49 1135.64 Q2585.49 1130.58 2583.52 1128.06 Q2581.55 1125.55 2577.6 1125.55 Q2572.86 1125.55 2570.12 1128.57 Q2567.38 1131.59 2567.38 1136.81 L2567.38 1156.96 L2561.5 1156.96 L2561.5 1107.44 L2567.38 1107.44 L2567.38 1126.85 Q2569.48 1123.64 2572.32 1122.05 Q2575.18 1120.45 2578.91 1120.45 Q2585.05 1120.45 2588.2 1124.27 Q2591.35 1128.06 2591.35 1135.45 Z" fill="#000000" fill-rule="nonzero" fill-opacity="1" /><path clip-path="url(#clip790)" d="M2639.95 1139.04 Q2632.86 1139.04 2630.12 1140.67 Q2627.38 1142.29 2627.38 1146.2 Q2627.38 1149.32 2629.42 1151.17 Q2631.49 1152.98 2635.02 1152.98 Q2639.89 1152.98 2642.82 1149.55 Q2645.78 1146.08 2645.78 1140.35 L2645.78 1139.04 L2639.95 1139.04 M2651.63 1136.62 L2651.63 1156.96 L2645.78 1156.96 L2645.78 1151.55 Q2643.77 1154.8 2640.78 1156.36 Q2637.79 1157.88 2633.46 1157.88 Q2627.99 1157.88 2624.74 1154.83 Q2621.52 1151.74 2621.52 1146.59 Q2621.52 1140.57 2625.53 1137.51 Q2629.58 1134.46 2637.57 1134.46 L2645.78 1134.46 L2645.78 1133.89 Q2645.78 1129.84 2643.1 1127.65 Q2640.46 1125.42 2635.66 1125.42 Q2632.6 1125.42 2629.7 1126.15 Q2626.81 1126.88 2624.13 1128.35 L2624.13 1122.94 Q2627.35 1121.7 2630.37 1121.09 Q2633.4 1120.45 2636.26 1120.45 Q2644 1120.45 2647.81 1124.46 Q2651.63 1128.48 2651.63 1136.62 Z" fill="#000000" fill-rule="nonzero" fill-opacity="1" /><polyline clip-path="url(#clip790)" style="stroke:#000000; stroke-linecap:round; stroke-linejoin:round; stroke-width:4; stroke-opacity:1; fill:none" points="1880.16,1000.1 1880.16,47.2441 "/>
<polyline clip-path="url(#clip790)" style="stroke:#000000; stroke-linecap:round; stroke-linejoin:round; stroke-width:4; stroke-opacity:1; fill:none" points="1880.16,891.824 1899.06,891.824 "/>
<polyline clip-path="url(#clip790)" style="stroke:#000000; stroke-linecap:round; stroke-linejoin:round; stroke-width:4; stroke-opacity:1; fill:none" points="1880.16,695.481 1899.06,695.481 "/>
<polyline clip-path="url(#clip790)" style="stroke:#000000; stroke-linecap:round; stroke-linejoin:round; stroke-width:4; stroke-opacity:1; fill:none" points="1880.16,499.139 1899.06,499.139 "/>
<polyline clip-path="url(#clip790)" style="stroke:#000000; stroke-linecap:round; stroke-linejoin:round; stroke-width:4; stroke-opacity:1; fill:none" points="1880.16,302.796 1899.06,302.796 "/>
<polyline clip-path="url(#clip790)" style="stroke:#000000; stroke-linecap:round; stroke-linejoin:round; stroke-width:4; stroke-opacity:1; fill:none" points="1880.16,106.454 1899.06,106.454 "/>
<path clip-path="url(#clip790)" d="M1725.22 892.275 L1754.89 892.275 L1754.89 896.21 L1725.22 896.21 L1725.22 892.275 Z" fill="#000000" fill-rule="nonzero" fill-opacity="1" /><path clip-path="url(#clip790)" d="M1769.01 905.168 L1785.33 905.168 L1785.33 909.104 L1763.39 909.104 L1763.39 905.168 Q1766.05 902.414 1770.63 897.784 Q1775.24 893.131 1776.42 891.789 Q1778.67 889.266 1779.55 887.53 Q1780.45 885.77 1780.45 884.081 Q1780.45 881.326 1778.5 879.59 Q1776.58 877.854 1773.48 877.854 Q1771.28 877.854 1768.83 878.618 Q1766.4 879.382 1763.62 880.932 L1763.62 876.21 Q1766.44 875.076 1768.9 874.497 Q1771.35 873.919 1773.39 873.919 Q1778.76 873.919 1781.95 876.604 Q1785.15 879.289 1785.15 883.78 Q1785.15 885.909 1784.34 887.831 Q1783.55 889.729 1781.44 892.321 Q1780.86 892.993 1777.76 896.21 Q1774.66 899.405 1769.01 905.168 Z" fill="#000000" fill-rule="nonzero" fill-opacity="1" /><path clip-path="url(#clip790)" d="M1795.15 903.224 L1800.03 903.224 L1800.03 909.104 L1795.15 909.104 L1795.15 903.224 Z" fill="#000000" fill-rule="nonzero" fill-opacity="1" /><path clip-path="url(#clip790)" d="M1820.22 877.622 Q1816.61 877.622 1814.78 881.187 Q1812.97 884.729 1812.97 891.858 Q1812.97 898.965 1814.78 902.53 Q1816.61 906.071 1820.22 906.071 Q1823.85 906.071 1825.66 902.53 Q1827.49 898.965 1827.49 891.858 Q1827.49 884.729 1825.66 881.187 Q1823.85 877.622 1820.22 877.622 M1820.22 873.919 Q1826.03 873.919 1829.08 878.525 Q1832.16 883.108 1832.16 891.858 Q1832.16 900.585 1829.08 905.192 Q1826.03 909.775 1820.22 909.775 Q1814.41 909.775 1811.33 905.192 Q1808.27 900.585 1808.27 891.858 Q1808.27 883.108 1811.33 878.525 Q1814.41 873.919 1820.22 873.919 Z" fill="#000000" fill-rule="nonzero" fill-opacity="1" /><path clip-path="url(#clip790)" d="M1726.21 695.933 L1755.89 695.933 L1755.89 699.868 L1726.21 699.868 L1726.21 695.933 Z" fill="#000000" fill-rule="nonzero" fill-opacity="1" /><path clip-path="url(#clip790)" d="M1766.79 708.826 L1774.43 708.826 L1774.43 682.46 L1766.12 684.127 L1766.12 679.868 L1774.38 678.201 L1779.06 678.201 L1779.06 708.826 L1786.7 708.826 L1786.7 712.761 L1766.79 712.761 L1766.79 708.826 Z" fill="#000000" fill-rule="nonzero" fill-opacity="1" /><path clip-path="url(#clip790)" d="M1796.14 706.882 L1801.03 706.882 L1801.03 712.761 L1796.14 712.761 L1796.14 706.882 Z" fill="#000000" fill-rule="nonzero" fill-opacity="1" /><path clip-path="url(#clip790)" d="M1811.26 678.201 L1829.61 678.201 L1829.61 682.136 L1815.54 682.136 L1815.54 690.609 Q1816.56 690.261 1817.58 690.099 Q1818.6 689.914 1819.61 689.914 Q1825.4 689.914 1828.78 693.085 Q1832.16 696.257 1832.16 701.673 Q1832.16 707.252 1828.69 710.354 Q1825.22 713.433 1818.9 713.433 Q1816.72 713.433 1814.45 713.062 Q1812.21 712.692 1809.8 711.951 L1809.8 707.252 Q1811.88 708.386 1814.11 708.942 Q1816.33 709.497 1818.8 709.497 Q1822.81 709.497 1825.15 707.391 Q1827.49 705.284 1827.49 701.673 Q1827.49 698.062 1825.15 695.956 Q1822.81 693.849 1818.8 693.849 Q1816.93 693.849 1815.05 694.266 Q1813.2 694.683 1811.26 695.562 L1811.26 678.201 Z" fill="#000000" fill-rule="nonzero" fill-opacity="1" /><path clip-path="url(#clip790)" d="M1725.22 499.59 L1754.89 499.59 L1754.89 503.525 L1725.22 503.525 L1725.22 499.59 Z" fill="#000000" fill-rule="nonzero" fill-opacity="1" /><path clip-path="url(#clip790)" d="M1765.8 512.484 L1773.43 512.484 L1773.43 486.118 L1765.12 487.785 L1765.12 483.525 L1773.39 481.859 L1778.06 481.859 L1778.06 512.484 L1785.7 512.484 L1785.7 516.419 L1765.8 516.419 L1765.8 512.484 Z" fill="#000000" fill-rule="nonzero" fill-opacity="1" /><path clip-path="url(#clip790)" d="M1795.15 510.539 L1800.03 510.539 L1800.03 516.419 L1795.15 516.419 L1795.15 510.539 Z" fill="#000000" fill-rule="nonzero" fill-opacity="1" /><path clip-path="url(#clip790)" d="M1820.22 484.938 Q1816.61 484.938 1814.78 488.502 Q1812.97 492.044 1812.97 499.174 Q1812.97 506.28 1814.78 509.845 Q1816.61 513.386 1820.22 513.386 Q1823.85 513.386 1825.66 509.845 Q1827.49 506.28 1827.49 499.174 Q1827.49 492.044 1825.66 488.502 Q1823.85 484.938 1820.22 484.938 M1820.22 481.234 Q1826.03 481.234 1829.08 485.84 Q1832.16 490.424 1832.16 499.174 Q1832.16 507.9 1829.08 512.507 Q1826.03 517.09 1820.22 517.09 Q1814.41 517.09 1811.33 512.507 Q1808.27 507.9 1808.27 499.174 Q1808.27 490.424 1811.33 485.84 Q1814.41 481.234 1820.22 481.234 Z" fill="#000000" fill-rule="nonzero" fill-opacity="1" /><path clip-path="url(#clip790)" d="M1726.21 303.248 L1755.89 303.248 L1755.89 307.183 L1726.21 307.183 L1726.21 303.248 Z" fill="#000000" fill-rule="nonzero" fill-opacity="1" /><path clip-path="url(#clip790)" d="M1775.98 288.595 Q1772.37 288.595 1770.54 292.16 Q1768.74 295.702 1768.74 302.831 Q1768.74 309.938 1770.54 313.502 Q1772.37 317.044 1775.98 317.044 Q1779.61 317.044 1781.42 313.502 Q1783.25 309.938 1783.25 302.831 Q1783.25 295.702 1781.42 292.16 Q1779.61 288.595 1775.98 288.595 M1775.98 284.891 Q1781.79 284.891 1784.85 289.498 Q1787.93 294.081 1787.93 302.831 Q1787.93 311.558 1784.85 316.164 Q1781.79 320.748 1775.98 320.748 Q1770.17 320.748 1767.09 316.164 Q1764.04 311.558 1764.04 302.831 Q1764.04 294.081 1767.09 289.498 Q1770.17 284.891 1775.98 284.891 Z" fill="#000000" fill-rule="nonzero" fill-opacity="1" /><path clip-path="url(#clip790)" d="M1796.14 314.197 L1801.03 314.197 L1801.03 320.076 L1796.14 320.076 L1796.14 314.197 Z" fill="#000000" fill-rule="nonzero" fill-opacity="1" /><path clip-path="url(#clip790)" d="M1811.26 285.516 L1829.61 285.516 L1829.61 289.452 L1815.54 289.452 L1815.54 297.924 Q1816.56 297.577 1817.58 297.415 Q1818.6 297.229 1819.61 297.229 Q1825.4 297.229 1828.78 300.401 Q1832.16 303.572 1832.16 308.989 Q1832.16 314.567 1828.69 317.669 Q1825.22 320.748 1818.9 320.748 Q1816.72 320.748 1814.45 320.377 Q1812.21 320.007 1809.8 319.266 L1809.8 314.567 Q1811.88 315.701 1814.11 316.257 Q1816.33 316.813 1818.8 316.813 Q1822.81 316.813 1825.15 314.706 Q1827.49 312.6 1827.49 308.989 Q1827.49 305.377 1825.15 303.271 Q1822.81 301.165 1818.8 301.165 Q1816.93 301.165 1815.05 301.581 Q1813.2 301.998 1811.26 302.877 L1811.26 285.516 Z" fill="#000000" fill-rule="nonzero" fill-opacity="1" /><path clip-path="url(#clip790)" d="M1774.99 92.2528 Q1771.37 92.2528 1769.55 95.8176 Q1767.74 99.3592 1767.74 106.489 Q1767.74 113.595 1769.55 117.16 Q1771.37 120.702 1774.99 120.702 Q1778.62 120.702 1780.43 117.16 Q1782.25 113.595 1782.25 106.489 Q1782.25 99.3592 1780.43 95.8176 Q1778.62 92.2528 1774.99 92.2528 M1774.99 88.5491 Q1780.8 88.5491 1783.85 93.1555 Q1786.93 97.7388 1786.93 106.489 Q1786.93 115.216 1783.85 119.822 Q1780.8 124.405 1774.99 124.405 Q1769.18 124.405 1766.1 119.822 Q1763.04 115.216 1763.04 106.489 Q1763.04 97.7388 1766.1 93.1555 Q1769.18 88.5491 1774.99 88.5491 Z" fill="#000000" fill-rule="nonzero" fill-opacity="1" /><path clip-path="url(#clip790)" d="M1795.15 117.854 L1800.03 117.854 L1800.03 123.734 L1795.15 123.734 L1795.15 117.854 Z" fill="#000000" fill-rule="nonzero" fill-opacity="1" /><path clip-path="url(#clip790)" d="M1820.22 92.2528 Q1816.61 92.2528 1814.78 95.8176 Q1812.97 99.3592 1812.97 106.489 Q1812.97 113.595 1814.78 117.16 Q1816.61 120.702 1820.22 120.702 Q1823.85 120.702 1825.66 117.16 Q1827.49 113.595 1827.49 106.489 Q1827.49 99.3592 1825.66 95.8176 Q1823.85 92.2528 1820.22 92.2528 M1820.22 88.5491 Q1826.03 88.5491 1829.08 93.1555 Q1832.16 97.7388 1832.16 106.489 Q1832.16 115.216 1829.08 119.822 Q1826.03 124.405 1820.22 124.405 Q1814.41 124.405 1811.33 119.822 Q1808.27 115.216 1808.27 106.489 Q1808.27 97.7388 1811.33 93.1555 Q1814.41 88.5491 1820.22 88.5491 Z" fill="#000000" fill-rule="nonzero" fill-opacity="1" /><path clip-path="url(#clip790)" d="M1628.36 651.319 L1633.9 651.319 Q1632.63 653.802 1631.99 656.475 Q1631.36 659.149 1631.36 662.014 Q1631.36 666.374 1632.69 668.57 Q1634.03 670.735 1636.7 670.735 Q1638.74 670.735 1639.92 669.175 Q1641.06 667.615 1642.11 662.905 L1642.56 660.9 Q1643.9 654.661 1646.35 652.051 Q1648.77 649.41 1653.13 649.41 Q1658.09 649.41 1660.99 653.356 Q1663.88 657.271 1663.88 664.146 Q1663.88 667.011 1663.31 670.13 Q1662.77 673.217 1661.66 676.655 L1655.61 676.655 Q1657.3 673.408 1658.15 670.257 Q1658.98 667.106 1658.98 664.019 Q1658.98 659.881 1657.58 657.653 Q1656.15 655.425 1653.57 655.425 Q1651.18 655.425 1649.91 657.048 Q1648.64 658.64 1647.46 664.082 L1646.98 666.12 Q1645.84 671.562 1643.48 673.981 Q1641.09 676.4 1636.96 676.4 Q1631.93 676.4 1629.19 672.835 Q1626.45 669.271 1626.45 662.714 Q1626.45 659.467 1626.93 656.603 Q1627.41 653.738 1628.36 651.319 Z" fill="#000000" fill-rule="nonzero" fill-opacity="1" /><path clip-path="url(#clip790)" d="M1645.04 623.883 Q1645.04 630.981 1646.66 633.718 Q1648.29 636.455 1652.2 636.455 Q1655.32 636.455 1657.17 634.418 Q1658.98 632.349 1658.98 628.816 Q1658.98 623.947 1655.55 621.018 Q1652.08 618.058 1646.35 618.058 L1645.04 618.058 L1645.04 623.883 M1642.62 612.202 L1662.96 612.202 L1662.96 618.058 L1657.55 618.058 Q1660.8 620.064 1662.36 623.056 Q1663.88 626.047 1663.88 630.376 Q1663.88 635.851 1660.83 639.097 Q1657.74 642.312 1652.58 642.312 Q1646.57 642.312 1643.51 638.301 Q1640.46 634.259 1640.46 626.27 L1640.46 618.058 L1639.89 618.058 Q1635.84 618.058 1633.65 620.732 Q1631.42 623.374 1631.42 628.18 Q1631.42 631.235 1632.15 634.132 Q1632.88 637.028 1634.35 639.702 L1628.94 639.702 Q1627.7 636.487 1627.09 633.463 Q1626.45 630.44 1626.45 627.575 Q1626.45 619.841 1630.46 616.021 Q1634.47 612.202 1642.62 612.202 Z" fill="#000000" fill-rule="nonzero" fill-opacity="1" /><path clip-path="url(#clip790)" d="M1627.31 604.34 L1627.31 598.134 L1657.23 586.994 L1627.31 575.854 L1627.31 569.647 L1662.96 583.015 L1662.96 590.972 L1627.31 604.34 Z" fill="#000000" fill-rule="nonzero" fill-opacity="1" /><path clip-path="url(#clip790)" d="M1627.31 561.563 L1627.31 555.706 L1662.96 555.706 L1662.96 561.563 L1627.31 561.563 M1613.44 561.563 L1613.44 555.706 L1620.85 555.706 L1620.85 561.563 L1613.44 561.563 Z" fill="#000000" fill-rule="nonzero" fill-opacity="1" /><path clip-path="url(#clip790)" d="M1641.44 513.82 L1662.96 513.82 L1662.96 519.676 L1641.64 519.676 Q1636.58 519.676 1634.06 521.65 Q1631.55 523.623 1631.55 527.57 Q1631.55 532.312 1634.57 535.05 Q1637.59 537.787 1642.81 537.787 L1662.96 537.787 L1662.96 543.675 L1627.31 543.675 L1627.31 537.787 L1632.85 537.787 Q1629.64 535.686 1628.05 532.853 Q1626.45 529.989 1626.45 526.265 Q1626.45 520.122 1630.27 516.971 Q1634.06 513.82 1641.44 513.82 Z" fill="#000000" fill-rule="nonzero" fill-opacity="1" /><path clip-path="url(#clip790)" d="M1644.72 478.681 Q1638.36 478.681 1634.86 481.323 Q1631.36 483.933 1631.36 488.675 Q1631.36 493.386 1634.86 496.028 Q1638.36 498.638 1644.72 498.638 Q1651.06 498.638 1654.56 496.028 Q1658.06 493.386 1658.06 488.675 Q1658.06 483.933 1654.56 481.323 Q1651.06 478.681 1644.72 478.681 M1658.54 472.825 Q1667.64 472.825 1672.06 476.867 Q1676.52 480.909 1676.52 489.248 Q1676.52 492.336 1676.04 495.073 Q1675.6 497.81 1674.64 500.388 L1668.94 500.388 Q1670.35 497.81 1671.01 495.296 Q1671.68 492.781 1671.68 490.171 Q1671.68 484.41 1668.66 481.546 Q1665.67 478.681 1659.59 478.681 L1656.69 478.681 Q1659.84 480.496 1661.4 483.328 Q1662.96 486.161 1662.96 490.108 Q1662.96 496.664 1657.96 500.675 Q1652.97 504.685 1644.72 504.685 Q1636.45 504.685 1631.45 500.675 Q1626.45 496.664 1626.45 490.108 Q1626.45 486.161 1628.01 483.328 Q1629.57 480.496 1632.72 478.681 L1627.31 478.681 L1627.31 472.825 L1658.54 472.825 Z" fill="#000000" fill-rule="nonzero" fill-opacity="1" /><path clip-path="url(#clip790)" d="M1676.52 440.646 L1627.31 440.646 L1627.31 434.79 L1649.47 434.79 Q1654.08 434.79 1656.44 432.594 Q1658.79 430.397 1658.79 426.101 Q1658.79 421.39 1656.12 419.035 Q1653.44 416.647 1648.1 416.647 L1627.31 416.647 L1627.31 410.791 L1654.75 410.791 Q1656.66 410.791 1657.58 410.25 Q1658.47 409.677 1658.47 408.499 Q1658.47 408.213 1658.31 407.704 Q1658.12 407.194 1657.74 406.303 L1662.45 406.303 Q1663.18 407.608 1663.53 408.786 Q1663.88 409.932 1663.88 411.046 Q1663.88 413.242 1662.64 414.547 Q1661.4 415.852 1658.86 416.329 Q1661.37 417.921 1662.64 420.244 Q1663.88 422.536 1663.88 425.655 Q1663.88 428.901 1662.64 431.193 Q1661.4 433.453 1658.92 434.79 L1676.52 434.79 L1676.52 440.646 Z" fill="#000000" fill-rule="nonzero" fill-opacity="1" /><path clip-path="url(#clip790)" d="M1645.04 382.368 Q1645.04 389.466 1646.66 392.203 Q1648.29 394.94 1652.2 394.94 Q1655.32 394.94 1657.17 392.903 Q1658.98 390.835 1658.98 387.302 Q1658.98 382.432 1655.55 379.504 Q1652.08 376.544 1646.35 376.544 L1645.04 376.544 L1645.04 382.368 M1642.62 370.687 L1662.96 370.687 L1662.96 376.544 L1657.55 376.544 Q1660.8 378.549 1662.36 381.541 Q1663.88 384.532 1663.88 388.861 Q1663.88 394.336 1660.83 397.582 Q1657.74 400.797 1652.58 400.797 Q1646.57 400.797 1643.51 396.786 Q1640.46 392.744 1640.46 384.755 L1640.46 376.544 L1639.89 376.544 Q1635.84 376.544 1633.65 379.217 Q1631.42 381.859 1631.42 386.665 Q1631.42 389.721 1632.15 392.617 Q1632.88 395.513 1634.35 398.187 L1628.94 398.187 Q1627.7 394.972 1627.09 391.949 Q1626.45 388.925 1626.45 386.06 Q1626.45 378.326 1630.46 374.506 Q1634.47 370.687 1642.62 370.687 Z" fill="#000000" fill-rule="nonzero" fill-opacity="1" /><polyline clip-path="url(#clip791)" style="stroke:#009af9; stroke-linecap:round; stroke-linejoin:round; stroke-width:4; stroke-opacity:1; fill:none" points="1916.18,106.454 1953.7,159.389 1991.21,197.054 2028.73,223.144 2066.25,255.163 2103.77,286.534 2141.28,315.589 2178.8,343.292 2216.32,370.157 2253.84,396.477 2291.35,422.427 2328.87,448.117 2366.39,473.62 2403.91,498.984 2441.42,524.244 2478.94,549.423 2516.46,574.539 2553.98,599.605 2591.49,624.631 2629.01,649.624 2666.53,674.59 2704.05,699.534 2741.56,724.46 2779.08,749.369 2816.6,774.265 2854.12,799.15 2891.63,824.025 2929.15,848.892 2966.67,873.751 3004.19,898.603 3041.7,923.45 3079.22,948.292 3116.74,973.13 "/>
<polyline clip-path="url(#clip791)" style="stroke:#e26f46; stroke-linecap:round; stroke-linejoin:round; stroke-width:4; stroke-opacity:1; fill:none" points="1916.18,106.454 1953.7,106.454 1991.21,106.454 2028.73,106.642 2066.25,125.379 2103.77,154.408 2141.28,181.765 2178.8,208.22 2216.32,234.144 2253.84,259.732 2291.35,285.099 2328.87,310.315 2366.39,335.424 2403.91,360.457 2441.42,385.433 2478.94,410.367 2516.46,435.269 2553.98,460.146 2591.49,485.004 2629.01,509.847 2666.53,534.679 2704.05,559.5 2741.56,584.315 2779.08,609.123 2816.6,633.926 2854.12,658.725 2891.63,683.521 2929.15,708.314 2966.67,733.105 3004.19,757.894 3041.7,782.681 3079.22,807.468 3116.74,832.253 "/>
<polyline clip-path="url(#clip791)" style="stroke:#3da44d; stroke-linecap:round; stroke-linejoin:round; stroke-width:4; stroke-opacity:1; fill:none" points="1916.18,74.2116 1953.7,106.454 1991.21,106.454 2028.73,106.454 2066.25,106.454 2103.77,106.454 2141.28,106.454 2178.8,106.454 2216.32,106.454 2253.84,122.67 2291.35,147.613 2328.87,172.469 2366.39,197.272 2403.91,222.042 2441.42,246.79 2478.94,271.526 2516.46,296.253 2553.98,320.974 2591.49,345.694 2629.01,370.412 2666.53,395.13 2704.05,419.849 2741.56,444.569 2779.08,469.291 2816.6,494.015 2854.12,518.741 2891.63,543.469 2929.15,568.199 2966.67,592.931 3004.19,617.665 3041.7,642.401 3079.22,667.14 3116.74,691.88 "/>
<polyline clip-path="url(#clip791)" style="stroke:#808080; stroke-linecap:round; stroke-linejoin:round; stroke-width:4; stroke-opacity:1; fill:none" stroke-dasharray="16, 10" points="607.566,106.454 4425.35,106.454 "/>
<path clip-path="url(#clip790)" d="M1922.58 968.336 L2248.57 968.336 L2248.57 760.976 L1922.58 760.976  Z" fill="#ffffff" fill-rule="evenodd" fill-opacity="1"/>
<polyline clip-path="url(#clip790)" style="stroke:#000000; stroke-linecap:round; stroke-linejoin:round; stroke-width:4; stroke-opacity:1; fill:none" points="1922.58,968.336 2248.57,968.336 2248.57,760.976 1922.58,760.976 1922.58,968.336 "/>
<polyline clip-path="url(#clip790)" style="stroke:#009af9; stroke-linecap:round; stroke-linejoin:round; stroke-width:4; stroke-opacity:1; fill:none" points="1936.72,812.816 2021.56,812.816 "/>
<path clip-path="url(#clip790)" d="M2049.54 832.503 Q2047.74 837.133 2046.02 838.545 Q2044.31 839.957 2041.44 839.957 L2038.04 839.957 L2038.04 836.392 L2040.54 836.392 Q2042.3 836.392 2043.27 835.559 Q2044.24 834.726 2045.42 831.624 L2046.19 829.679 L2035.7 804.17 L2040.21 804.17 L2048.32 824.448 L2056.42 804.17 L2060.93 804.17 L2049.54 832.503 Z" fill="#000000" fill-rule="nonzero" fill-opacity="1" /><path clip-path="url(#clip790)" d="M2082.44 808.568 L2112.11 808.568 L2112.11 812.457 L2082.44 812.457 L2082.44 808.568 M2082.44 818.013 L2112.11 818.013 L2112.11 821.948 L2082.44 821.948 L2082.44 818.013 Z" fill="#000000" fill-rule="nonzero" fill-opacity="1" /><path clip-path="url(#clip790)" d="M2147.27 798.615 Q2143.66 798.615 2141.83 802.179 Q2140.03 805.721 2140.03 812.851 Q2140.03 819.957 2141.83 823.522 Q2143.66 827.064 2147.27 827.064 Q2150.91 827.064 2152.71 823.522 Q2154.54 819.957 2154.54 812.851 Q2154.54 805.721 2152.71 802.179 Q2150.91 798.615 2147.27 798.615 M2147.27 794.911 Q2153.08 794.911 2156.14 799.517 Q2159.22 804.101 2159.22 812.851 Q2159.22 821.577 2156.14 826.184 Q2153.08 830.767 2147.27 830.767 Q2141.46 830.767 2138.38 826.184 Q2135.33 821.577 2135.33 812.851 Q2135.33 804.101 2138.38 799.517 Q2141.46 794.911 2147.27 794.911 Z" fill="#000000" fill-rule="nonzero" fill-opacity="1" /><path clip-path="url(#clip790)" d="M2167.44 824.216 L2172.32 824.216 L2172.32 830.096 L2167.44 830.096 L2167.44 824.216 Z" fill="#000000" fill-rule="nonzero" fill-opacity="1" /><path clip-path="url(#clip790)" d="M2182.55 795.536 L2200.91 795.536 L2200.91 799.471 L2186.83 799.471 L2186.83 807.943 Q2187.85 807.596 2188.87 807.434 Q2189.89 807.249 2190.91 807.249 Q2196.69 807.249 2200.07 810.42 Q2203.45 813.591 2203.45 819.008 Q2203.45 824.587 2199.98 827.689 Q2196.51 830.767 2190.19 830.767 Q2188.01 830.767 2185.75 830.397 Q2183.5 830.026 2181.09 829.286 L2181.09 824.587 Q2183.18 825.721 2185.4 826.277 Q2187.62 826.832 2190.1 826.832 Q2194.1 826.832 2196.44 824.726 Q2198.78 822.619 2198.78 819.008 Q2198.78 815.397 2196.44 813.29 Q2194.1 811.184 2190.1 811.184 Q2188.22 811.184 2186.35 811.601 Q2184.5 812.017 2182.55 812.897 L2182.55 795.536 Z" fill="#000000" fill-rule="nonzero" fill-opacity="1" /><path clip-path="url(#clip790)" d="M2212.81 829.378 L2212.81 825.119 Q2214.57 825.952 2216.37 826.392 Q2218.18 826.832 2219.91 826.832 Q2224.54 826.832 2226.97 823.73 Q2229.43 820.605 2229.77 814.263 Q2228.43 816.253 2226.37 817.318 Q2224.31 818.383 2221.81 818.383 Q2216.63 818.383 2213.59 815.258 Q2210.58 812.11 2210.58 806.67 Q2210.58 801.346 2213.73 798.129 Q2216.88 794.911 2222.11 794.911 Q2228.11 794.911 2231.25 799.517 Q2234.43 804.101 2234.43 812.851 Q2234.43 821.022 2230.54 825.906 Q2226.67 830.767 2220.12 830.767 Q2218.36 830.767 2216.56 830.42 Q2214.75 830.073 2212.81 829.378 M2222.11 814.726 Q2225.26 814.726 2227.09 812.573 Q2228.94 810.42 2228.94 806.67 Q2228.94 802.943 2227.09 800.791 Q2225.26 798.615 2222.11 798.615 Q2218.96 798.615 2217.11 800.791 Q2215.28 802.943 2215.28 806.67 Q2215.28 810.42 2217.11 812.573 Q2218.96 814.726 2222.11 814.726 Z" fill="#000000" fill-rule="nonzero" fill-opacity="1" /><polyline clip-path="url(#clip790)" style="stroke:#e26f46; stroke-linecap:round; stroke-linejoin:round; stroke-width:4; stroke-opacity:1; fill:none" points="1936.72,864.656 2021.56,864.656 "/>
<path clip-path="url(#clip790)" d="M2049.54 884.343 Q2047.74 888.973 2046.02 890.385 Q2044.31 891.797 2041.44 891.797 L2038.04 891.797 L2038.04 888.232 L2040.54 888.232 Q2042.3 888.232 2043.27 887.399 Q2044.24 886.566 2045.42 883.464 L2046.19 881.519 L2035.7 856.01 L2040.21 856.01 L2048.32 876.288 L2056.42 856.01 L2060.93 856.01 L2049.54 884.343 Z" fill="#000000" fill-rule="nonzero" fill-opacity="1" /><path clip-path="url(#clip790)" d="M2082.44 860.408 L2112.11 860.408 L2112.11 864.297 L2082.44 864.297 L2082.44 860.408 M2082.44 869.853 L2112.11 869.853 L2112.11 873.788 L2082.44 873.788 L2082.44 869.853 Z" fill="#000000" fill-rule="nonzero" fill-opacity="1" /><path clip-path="url(#clip790)" d="M2138.08 878.001 L2145.72 878.001 L2145.72 851.635 L2137.41 853.302 L2137.41 849.043 L2145.68 847.376 L2150.35 847.376 L2150.35 878.001 L2157.99 878.001 L2157.99 881.936 L2138.08 881.936 L2138.08 878.001 Z" fill="#000000" fill-rule="nonzero" fill-opacity="1" /><path clip-path="url(#clip790)" d="M2167.44 876.056 L2172.32 876.056 L2172.32 881.936 L2167.44 881.936 L2167.44 876.056 Z" fill="#000000" fill-rule="nonzero" fill-opacity="1" /><path clip-path="url(#clip790)" d="M2192.51 850.455 Q2188.89 850.455 2187.07 854.019 Q2185.26 857.561 2185.26 864.691 Q2185.26 871.797 2187.07 875.362 Q2188.89 878.904 2192.51 878.904 Q2196.14 878.904 2197.94 875.362 Q2199.77 871.797 2199.77 864.691 Q2199.77 857.561 2197.94 854.019 Q2196.14 850.455 2192.51 850.455 M2192.51 846.751 Q2198.32 846.751 2201.37 851.357 Q2204.45 855.941 2204.45 864.691 Q2204.45 873.417 2201.37 878.024 Q2198.32 882.607 2192.51 882.607 Q2186.69 882.607 2183.62 878.024 Q2180.56 873.417 2180.56 864.691 Q2180.56 855.941 2183.62 851.357 Q2186.69 846.751 2192.51 846.751 Z" fill="#000000" fill-rule="nonzero" fill-opacity="1" /><path clip-path="url(#clip790)" d="M2211.49 847.376 L2233.71 847.376 L2233.71 849.367 L2221.16 881.936 L2216.28 881.936 L2228.08 851.311 L2211.49 851.311 L2211.49 847.376 Z" fill="#000000" fill-rule="nonzero" fill-opacity="1" /><polyline clip-path="url(#clip790)" style="stroke:#3da44d; stroke-linecap:round; stroke-linejoin:round; stroke-width:4; stroke-opacity:1; fill:none" points="1936.72,916.496 2021.56,916.496 "/>
<path clip-path="url(#clip790)" d="M2049.54 936.183 Q2047.74 940.813 2046.02 942.225 Q2044.31 943.637 2041.44 943.637 L2038.04 943.637 L2038.04 940.072 L2040.54 940.072 Q2042.3 940.072 2043.27 939.239 Q2044.24 938.406 2045.42 935.304 L2046.19 933.359 L2035.7 907.85 L2040.21 907.85 L2048.32 928.128 L2056.42 907.85 L2060.93 907.85 L2049.54 936.183 Z" fill="#000000" fill-rule="nonzero" fill-opacity="1" /><path clip-path="url(#clip790)" d="M2082.44 912.248 L2112.11 912.248 L2112.11 916.137 L2082.44 916.137 L2082.44 912.248 M2082.44 921.693 L2112.11 921.693 L2112.11 925.628 L2082.44 925.628 L2082.44 921.693 Z" fill="#000000" fill-rule="nonzero" fill-opacity="1" /><path clip-path="url(#clip790)" d="M2138.08 929.841 L2145.72 929.841 L2145.72 903.475 L2137.41 905.142 L2137.41 900.883 L2145.68 899.216 L2150.35 899.216 L2150.35 929.841 L2157.99 929.841 L2157.99 933.776 L2138.08 933.776 L2138.08 929.841 Z" fill="#000000" fill-rule="nonzero" fill-opacity="1" /><path clip-path="url(#clip790)" d="M2167.44 927.896 L2172.32 927.896 L2172.32 933.776 L2167.44 933.776 L2167.44 927.896 Z" fill="#000000" fill-rule="nonzero" fill-opacity="1" /><path clip-path="url(#clip790)" d="M2182.55 899.216 L2200.91 899.216 L2200.91 903.151 L2186.83 903.151 L2186.83 911.623 Q2187.85 911.276 2188.87 911.114 Q2189.89 910.929 2190.91 910.929 Q2196.69 910.929 2200.07 914.1 Q2203.45 917.271 2203.45 922.688 Q2203.45 928.267 2199.98 931.369 Q2196.51 934.447 2190.19 934.447 Q2188.01 934.447 2185.75 934.077 Q2183.5 933.706 2181.09 932.966 L2181.09 928.267 Q2183.18 929.401 2185.4 929.957 Q2187.62 930.512 2190.1 930.512 Q2194.1 930.512 2196.44 928.406 Q2198.78 926.299 2198.78 922.688 Q2198.78 919.077 2196.44 916.97 Q2194.1 914.864 2190.1 914.864 Q2188.22 914.864 2186.35 915.281 Q2184.5 915.697 2182.55 916.577 L2182.55 899.216 Z" fill="#000000" fill-rule="nonzero" fill-opacity="1" /><path clip-path="url(#clip790)" d="M2212.71 899.216 L2231.07 899.216 L2231.07 903.151 L2217 903.151 L2217 911.623 Q2218.01 911.276 2219.03 911.114 Q2220.05 910.929 2221.07 910.929 Q2226.86 910.929 2230.24 914.1 Q2233.62 917.271 2233.62 922.688 Q2233.62 928.267 2230.14 931.369 Q2226.67 934.447 2220.35 934.447 Q2218.18 934.447 2215.91 934.077 Q2213.66 933.706 2211.25 932.966 L2211.25 928.267 Q2213.34 929.401 2215.56 929.957 Q2217.78 930.512 2220.26 930.512 Q2224.26 930.512 2226.6 928.406 Q2228.94 926.299 2228.94 922.688 Q2228.94 919.077 2226.6 916.97 Q2224.26 914.864 2220.26 914.864 Q2218.38 914.864 2216.51 915.281 Q2214.66 915.697 2212.71 916.577 L2212.71 899.216 Z" fill="#000000" fill-rule="nonzero" fill-opacity="1" /></svg>
