<?xml version="1.0" encoding="utf-8"?>
<svg xmlns="http://www.w3.org/2000/svg" xmlns:xlink="http://www.w3.org/1999/xlink" width="800" height="300" viewBox="0 0 3200 1200">
<defs>
  <clipPath id="clip970">
    <rect x="0" y="0" width="3200" height="1200"/>
  </clipPath>
</defs>
<path clip-path="url(#clip970)" d="M0 1200 L3200 1200 L3200 0 L0 0  Z" fill="#ffffff" fill-rule="evenodd" fill-opacity="1"/>
<defs>
  <clipPath id="clip971">
    <rect x="1888" y="47" width="1265" height="954"/>
  </clipPath>
</defs>
<path clip-path="url(#clip970)" d="M270.068 1000.1 L1533.84 1000.1 L1533.84 47.2441 L270.068 47.2441  Z" fill="#ffffff" fill-rule="evenodd" fill-opacity="1"/>
<defs>
  <clipPath id="clip972">
    <rect x="270" y="47" width="1265" height="954"/>
  </clipPath>
</defs>
<polyline clip-path="url(#clip972)" style="stroke:#000000; stroke-linecap:round; stroke-linejoin:round; stroke-width:2; stroke-opacity:0.1; fill:none" points="281.504,1000.1 281.504,47.2441 "/>
<polyline clip-path="url(#clip972)" style="stroke:#000000; stroke-linecap:round; stroke-linejoin:round; stroke-width:2; stroke-opacity:0.1; fill:none" points="554.175,1000.1 554.175,47.2441 "/>
<polyline clip-path="url(#clip972)" style="stroke:#000000; stroke-linecap:round; stroke-linejoin:round; stroke-width:2; stroke-opacity:0.1; fill:none" points="826.846,1000.1 826.846,47.2441 "/>
<polyline clip-path="url(#clip972)" style="stroke:#000000; stroke-linecap:round; stroke-linejoin:round; stroke-width:2; stroke-opacity:0.1; fill:none" points="1099.52,1000.1 1099.52,47.2441 "/>
<polyline clip-path="url(#clip972)" style="stroke:#000000; stroke-linecap:round; stroke-linejoin:round; stroke-width:2; stroke-opacity:0.1; fill:none" points="1372.19,1000.1 1372.19,47.2441 "/>
<polyline clip-path="url(#clip972)" style="stroke:#000000; stroke-linecap:round; stroke-linejoin:round; stroke-width:2; stroke-opacity:0.1; fill:none" points="270.068,967.831 1533.84,967.831 "/>
<polyline clip-path="url(#clip972)" style="stroke:#000000; stroke-linecap:round; stroke-linejoin:round; stroke-width:2; stroke-opacity:0.1; fill:none" points="270.068,733.934 1533.84,733.934 "/>
<polyline clip-path="url(#clip972)" style="stroke:#000000; stroke-linecap:round; stroke-linejoin:round; stroke-width:2; stroke-opacity:0.1; fill:none" points="270.068,500.037 1533.84,500.037 "/>
<polyline clip-path="url(#clip972)" style="stroke:#000000; stroke-linecap:round; stroke-linejoin:round; stroke-width:2; stroke-opacity:0.1; fill:none" points="270.068,266.141 1533.84,266.141 "/>
<polyline clip-path="url(#clip970)" style="stroke:#000000; stroke-linecap:round; stroke-linejoin:round; stroke-width:4; stroke-opacity:1; fill:none" points="270.068,1000.1 1533.84,1000.1 "/>
<polyline clip-path="url(#clip970)" style="stroke:#000000; stroke-linecap:round; stroke-linejoin:round; stroke-width:4; stroke-opacity:1; fill:none" points="281.504,1000.1 281.504,981.2 "/>
<polyline clip-path="url(#clip970)" style="stroke:#000000; stroke-linecap:round; stroke-linejoin:round; stroke-width:4; stroke-opacity:1; fill:none" points="554.175,1000.1 554.175,981.2 "/>
<polyline clip-path="url(#clip970)" style="stroke:#000000; stroke-linecap:round; stroke-linejoin:round; stroke-width:4; stroke-opacity:1; fill:none" points="826.846,1000.1 826.846,981.2 "/>
<polyline clip-path="url(#clip970)" style="stroke:#000000; stroke-linecap:round; stroke-linejoin:round; stroke-width:4; stroke-opacity:1; fill:none" points="1099.52,1000.1 1099.52,981.2 "/>
<polyline clip-path="url(#clip970)" style="stroke:#000000; stroke-linecap:round; stroke-linejoin:round; stroke-width:4; stroke-opacity:1; fill:none" points="1372.19,1000.1 1372.19,981.2 "/>
<path clip-path="url(#clip970)" d="M281.504 1037.42 Q277.893 1037.42 276.064 1040.98 Q274.259 1044.52 274.259 1051.65 Q274.259 1058.76 276.064 1062.32 Q277.893 1065.87 281.504 1065.87 Q285.138 1065.87 286.944 1062.32 Q288.773 1058.76 288.773 1051.65 Q288.773 1044.52 286.944 1040.98 Q285.138 1037.42 281.504 1037.42 M281.504 1033.71 Q287.314 1033.71 290.37 1038.32 Q293.449 1042.9 293.449 1051.65 Q293.449 1060.38 290.37 1064.99 Q287.314 1069.57 281.504 1069.57 Q275.694 1069.57 272.615 1064.99 Q269.56 1060.38 269.56 1051.65 Q269.56 1042.9 272.615 1038.32 Q275.694 1033.71 281.504 1033.71 Z" fill="#000000" fill-rule="nonzero" fill-opacity="1" /><path clip-path="url(#clip970)" d="M548.828 1064.96 L565.147 1064.96 L565.147 1068.9 L543.203 1068.9 L543.203 1064.96 Q545.865 1062.21 550.448 1057.58 Q555.055 1052.93 556.235 1051.58 Q558.481 1049.06 559.36 1047.32 Q560.263 1045.56 560.263 1043.87 Q560.263 1041.12 558.319 1039.38 Q556.397 1037.65 553.296 1037.65 Q551.097 1037.65 548.643 1038.41 Q546.212 1039.18 543.435 1040.73 L543.435 1036 Q546.259 1034.87 548.712 1034.29 Q551.166 1033.71 553.203 1033.71 Q558.573 1033.71 561.768 1036.4 Q564.962 1039.08 564.962 1043.57 Q564.962 1045.7 564.152 1047.62 Q563.365 1049.52 561.259 1052.12 Q560.68 1052.79 557.578 1056 Q554.476 1059.2 548.828 1064.96 Z" fill="#000000" fill-rule="nonzero" fill-opacity="1" /><path clip-path="url(#clip970)" d="M829.856 1038.41 L818.05 1056.86 L829.856 1056.86 L829.856 1038.41 M828.629 1034.34 L834.508 1034.34 L834.508 1056.86 L839.439 1056.86 L839.439 1060.75 L834.508 1060.75 L834.508 1068.9 L829.856 1068.9 L829.856 1060.75 L814.254 1060.75 L814.254 1056.24 L828.629 1034.34 Z" fill="#000000" fill-rule="nonzero" fill-opacity="1" /><path clip-path="url(#clip970)" d="M1099.92 1049.75 Q1096.77 1049.75 1094.92 1051.91 Q1093.09 1054.06 1093.09 1057.81 Q1093.09 1061.54 1094.92 1063.71 Q1096.77 1065.87 1099.92 1065.87 Q1103.07 1065.87 1104.9 1063.71 Q1106.75 1061.54 1106.75 1057.81 Q1106.75 1054.06 1104.9 1051.91 Q1103.07 1049.75 1099.92 1049.75 M1109.2 1035.1 L1109.2 1039.36 Q1107.45 1038.53 1105.64 1038.09 Q1103.86 1037.65 1102.1 1037.65 Q1097.47 1037.65 1095.02 1040.77 Q1092.58 1043.9 1092.24 1050.22 Q1093.6 1048.2 1095.66 1047.14 Q1097.72 1046.05 1100.2 1046.05 Q1105.41 1046.05 1108.42 1049.22 Q1111.45 1052.37 1111.45 1057.81 Q1111.45 1063.13 1108.3 1066.35 Q1105.15 1069.57 1099.92 1069.57 Q1093.93 1069.57 1090.76 1064.99 Q1087.58 1060.38 1087.58 1051.65 Q1087.58 1043.46 1091.47 1038.6 Q1095.36 1033.71 1101.91 1033.71 Q1103.67 1033.71 1105.45 1034.06 Q1107.26 1034.41 1109.2 1035.1 Z" fill="#000000" fill-rule="nonzero" fill-opacity="1" /><path clip-path="url(#clip970)" d="M1372.19 1052.49 Q1368.86 1052.49 1366.93 1054.27 Q1365.04 1056.05 1365.04 1059.18 Q1365.04 1062.3 1366.93 1064.08 Q1368.86 1065.87 1372.19 1065.87 Q1375.52 1065.87 1377.44 1064.08 Q1379.36 1062.28 1379.36 1059.18 Q1379.36 1056.05 1377.44 1054.27 Q1375.54 1052.49 1372.19 1052.49 M1367.51 1050.5 Q1364.5 1049.75 1362.81 1047.69 Q1361.15 1045.63 1361.15 1042.67 Q1361.15 1038.53 1364.09 1036.12 Q1367.05 1033.71 1372.19 1033.71 Q1377.35 1033.71 1380.29 1036.12 Q1383.23 1038.53 1383.23 1042.67 Q1383.23 1045.63 1381.54 1047.69 Q1379.87 1049.75 1376.89 1050.5 Q1380.27 1051.28 1382.14 1053.57 Q1384.04 1055.87 1384.04 1059.18 Q1384.04 1064.2 1380.96 1066.88 Q1377.91 1069.57 1372.19 1069.57 Q1366.47 1069.57 1363.39 1066.88 Q1360.34 1064.2 1360.34 1059.18 Q1360.34 1055.87 1362.23 1053.57 Q1364.13 1051.28 1367.51 1050.5 M1365.8 1043.11 Q1365.8 1045.8 1367.47 1047.3 Q1369.16 1048.81 1372.19 1048.81 Q1375.2 1048.81 1376.89 1047.3 Q1378.6 1045.8 1378.6 1043.11 Q1378.6 1040.43 1376.89 1038.92 Q1375.2 1037.42 1372.19 1037.42 Q1369.16 1037.42 1367.47 1038.92 Q1365.8 1040.43 1365.8 1043.11 Z" fill="#000000" fill-rule="nonzero" fill-opacity="1" /><path clip-path="url(#clip970)" d="M793.373 1122.68 L793.373 1128.16 Q790.891 1126.79 788.376 1126.12 Q785.893 1125.42 783.347 1125.42 Q777.65 1125.42 774.499 1129.05 Q771.348 1132.64 771.348 1139.17 Q771.348 1145.69 774.499 1149.32 Q777.65 1152.92 783.347 1152.92 Q785.893 1152.92 788.376 1152.25 Q790.891 1151.55 793.373 1150.18 L793.373 1155.59 Q790.922 1156.74 788.281 1157.31 Q785.671 1157.88 782.711 1157.88 Q774.658 1157.88 769.916 1152.82 Q765.173 1147.76 765.173 1139.17 Q765.173 1130.45 769.947 1125.45 Q774.753 1120.45 783.093 1120.45 Q785.798 1120.45 788.376 1121.03 Q790.954 1121.57 793.373 1122.68 Z" fill="#000000" fill-rule="nonzero" fill-opacity="1" /><path clip-path="url(#clip970)" d="M819.759 1139.04 Q812.661 1139.04 809.924 1140.67 Q807.187 1142.29 807.187 1146.2 Q807.187 1149.32 809.224 1151.17 Q811.293 1152.98 814.826 1152.98 Q819.695 1152.98 822.624 1149.55 Q825.584 1146.08 825.584 1140.35 L825.584 1139.04 L819.759 1139.04 M831.44 1136.62 L831.44 1156.96 L825.584 1156.96 L825.584 1151.55 Q823.578 1154.8 820.587 1156.36 Q817.595 1157.88 813.266 1157.88 Q807.791 1157.88 804.545 1154.83 Q801.33 1151.74 801.33 1146.59 Q801.33 1140.57 805.341 1137.51 Q809.383 1134.46 817.372 1134.46 L825.584 1134.46 L825.584 1133.89 Q825.584 1129.84 822.91 1127.65 Q820.268 1125.42 815.462 1125.42 Q812.407 1125.42 809.51 1126.15 Q806.614 1126.88 803.94 1128.35 L803.94 1122.94 Q807.155 1121.7 810.179 1121.09 Q813.202 1120.45 816.067 1120.45 Q823.801 1120.45 827.621 1124.46 Q831.44 1128.48 831.44 1136.62 Z" fill="#000000" fill-rule="nonzero" fill-opacity="1" /><path clip-path="url(#clip970)" d="M849.169 1151.61 L849.169 1170.52 L843.28 1170.52 L843.28 1121.31 L849.169 1121.31 L849.169 1126.72 Q851.015 1123.54 853.816 1122.01 Q856.648 1120.45 860.563 1120.45 Q867.056 1120.45 871.098 1125.61 Q875.172 1130.77 875.172 1139.17 Q875.172 1147.57 871.098 1152.73 Q867.056 1157.88 860.563 1157.88 Q856.648 1157.88 853.816 1156.36 Q851.015 1154.8 849.169 1151.61 M869.093 1139.17 Q869.093 1132.71 866.42 1129.05 Q863.778 1125.36 859.131 1125.36 Q854.484 1125.36 851.81 1129.05 Q849.169 1132.71 849.169 1139.17 Q849.169 1145.63 851.81 1149.32 Q854.484 1152.98 859.131 1152.98 Q863.778 1152.98 866.42 1149.32 Q869.093 1145.63 869.093 1139.17 Z" fill="#000000" fill-rule="nonzero" fill-opacity="1" /><path clip-path="url(#clip970)" d="M884.88 1121.31 L890.737 1121.31 L890.737 1156.96 L884.88 1156.96 L884.88 1121.31 M884.88 1107.44 L890.737 1107.44 L890.737 1114.85 L884.88 1114.85 L884.88 1107.44 Z" fill="#000000" fill-rule="nonzero" fill-opacity="1" /><path clip-path="url(#clip970)" d="M908.783 1111.19 L908.783 1121.31 L920.846 1121.31 L920.846 1125.87 L908.783 1125.87 L908.783 1145.22 Q908.783 1149.58 909.961 1150.82 Q911.171 1152.06 914.831 1152.06 L920.846 1152.06 L920.846 1156.96 L914.831 1156.96 Q908.051 1156.96 905.473 1154.45 Q902.895 1151.9 902.895 1145.22 L902.895 1125.87 L898.598 1125.87 L898.598 1121.31 L902.895 1121.31 L902.895 1111.19 L908.783 1111.19 Z" fill="#000000" fill-rule="nonzero" fill-opacity="1" /><path clip-path="url(#clip970)" d="M944.75 1139.04 Q937.652 1139.04 934.915 1140.67 Q932.177 1142.29 932.177 1146.2 Q932.177 1149.32 934.214 1151.17 Q936.283 1152.98 939.816 1152.98 Q944.686 1152.98 947.614 1149.55 Q950.574 1146.08 950.574 1140.35 L950.574 1139.04 L944.75 1139.04 M956.431 1136.62 L956.431 1156.96 L950.574 1156.96 L950.574 1151.55 Q948.569 1154.8 945.577 1156.36 Q942.585 1157.88 938.257 1157.88 Q932.782 1157.88 929.536 1154.83 Q926.321 1151.74 926.321 1146.59 Q926.321 1140.57 930.331 1137.51 Q934.374 1134.46 942.363 1134.46 L950.574 1134.46 L950.574 1133.89 Q950.574 1129.84 947.901 1127.65 Q945.259 1125.42 940.453 1125.42 Q937.397 1125.42 934.501 1126.15 Q931.604 1126.88 928.931 1128.35 L928.931 1122.94 Q932.146 1121.7 935.169 1121.09 Q938.193 1120.45 941.058 1120.45 Q948.792 1120.45 952.611 1124.46 Q956.431 1128.48 956.431 1136.62 Z" fill="#000000" fill-rule="nonzero" fill-opacity="1" /><path clip-path="url(#clip970)" d="M968.494 1107.44 L974.35 1107.44 L974.35 1156.96 L968.494 1156.96 L968.494 1107.44 Z" fill="#000000" fill-rule="nonzero" fill-opacity="1" /><path clip-path="url(#clip970)" d="M1007.1 1107.44 L1012.99 1107.44 L1012.99 1136.69 L1030.46 1121.31 L1037.94 1121.31 L1019.04 1137.99 L1038.74 1156.96 L1031.1 1156.96 L1012.99 1139.55 L1012.99 1156.96 L1007.1 1156.96 L1007.1 1107.44 Z" fill="#000000" fill-rule="nonzero" fill-opacity="1" /><polyline clip-path="url(#clip970)" style="stroke:#000000; stroke-linecap:round; stroke-linejoin:round; stroke-width:4; stroke-opacity:1; fill:none" points="270.068,1000.1 270.068,47.2441 "/>
<polyline clip-path="url(#clip970)" style="stroke:#000000; stroke-linecap:round; stroke-linejoin:round; stroke-width:4; stroke-opacity:1; fill:none" points="270.068,967.831 288.966,967.831 "/>
<polyline clip-path="url(#clip970)" style="stroke:#000000; stroke-linecap:round; stroke-linejoin:round; stroke-width:4; stroke-opacity:1; fill:none" points="270.068,733.934 288.966,733.934 "/>
<polyline clip-path="url(#clip970)" style="stroke:#000000; stroke-linecap:round; stroke-linejoin:round; stroke-width:4; stroke-opacity:1; fill:none" points="270.068,500.037 288.966,500.037 "/>
<polyline clip-path="url(#clip970)" style="stroke:#000000; stroke-linecap:round; stroke-linejoin:round; stroke-width:4; stroke-opacity:1; fill:none" points="270.068,266.141 288.966,266.141 "/>
<path clip-path="url(#clip970)" d="M166.49 953.629 Q162.879 953.629 161.05 957.194 Q159.245 960.736 159.245 967.865 Q159.245 974.972 161.05 978.537 Q162.879 982.078 166.49 982.078 Q170.124 982.078 171.93 978.537 Q173.758 974.972 173.758 967.865 Q173.758 960.736 171.93 957.194 Q170.124 953.629 166.49 953.629 M166.49 949.926 Q172.3 949.926 175.356 954.532 Q178.434 959.115 178.434 967.865 Q178.434 976.592 175.356 981.199 Q172.3 985.782 166.49 985.782 Q160.68 985.782 157.601 981.199 Q154.546 976.592 154.546 967.865 Q154.546 959.115 157.601 954.532 Q160.68 949.926 166.49 949.926 Z" fill="#000000" fill-rule="nonzero" fill-opacity="1" /><path clip-path="url(#clip970)" d="M186.652 979.231 L191.536 979.231 L191.536 985.111 L186.652 985.111 L186.652 979.231 Z" fill="#000000" fill-rule="nonzero" fill-opacity="1" /><path clip-path="url(#clip970)" d="M205.749 981.175 L222.068 981.175 L222.068 985.111 L200.124 985.111 L200.124 981.175 Q202.786 978.421 207.369 973.791 Q211.976 969.138 213.156 967.796 Q215.402 965.273 216.281 963.537 Q217.184 961.777 217.184 960.088 Q217.184 957.333 215.24 955.597 Q213.318 953.861 210.217 953.861 Q208.018 953.861 205.564 954.625 Q203.133 955.389 200.356 956.939 L200.356 952.217 Q203.18 951.083 205.633 950.504 Q208.087 949.926 210.124 949.926 Q215.494 949.926 218.689 952.611 Q221.883 955.296 221.883 959.787 Q221.883 961.916 221.073 963.838 Q220.286 965.736 218.18 968.328 Q217.601 969 214.499 972.217 Q211.397 975.412 205.749 981.175 Z" fill="#000000" fill-rule="nonzero" fill-opacity="1" /><path clip-path="url(#clip970)" d="M164.407 719.733 Q160.796 719.733 158.967 723.297 Q157.161 726.839 157.161 733.969 Q157.161 741.075 158.967 744.64 Q160.796 748.182 164.407 748.182 Q168.041 748.182 169.846 744.64 Q171.675 741.075 171.675 733.969 Q171.675 726.839 169.846 723.297 Q168.041 719.733 164.407 719.733 M164.407 716.029 Q170.217 716.029 173.272 720.635 Q176.351 725.219 176.351 733.969 Q176.351 742.696 173.272 747.302 Q170.217 751.885 164.407 751.885 Q158.597 751.885 155.518 747.302 Q152.462 742.696 152.462 733.969 Q152.462 725.219 155.518 720.635 Q158.597 716.029 164.407 716.029 Z" fill="#000000" fill-rule="nonzero" fill-opacity="1" /><path clip-path="url(#clip970)" d="M184.569 745.334 L189.453 745.334 L189.453 751.214 L184.569 751.214 L184.569 745.334 Z" fill="#000000" fill-rule="nonzero" fill-opacity="1" /><path clip-path="url(#clip970)" d="M212.485 720.728 L200.68 739.177 L212.485 739.177 L212.485 720.728 M211.258 716.654 L217.138 716.654 L217.138 739.177 L222.068 739.177 L222.068 743.066 L217.138 743.066 L217.138 751.214 L212.485 751.214 L212.485 743.066 L196.883 743.066 L196.883 738.552 L211.258 716.654 Z" fill="#000000" fill-rule="nonzero" fill-opacity="1" /><path clip-path="url(#clip970)" d="M164.731 485.836 Q161.12 485.836 159.291 489.401 Q157.485 492.943 157.485 500.072 Q157.485 507.179 159.291 510.743 Q161.12 514.285 164.731 514.285 Q168.365 514.285 170.171 510.743 Q171.999 507.179 171.999 500.072 Q171.999 492.943 170.171 489.401 Q168.365 485.836 164.731 485.836 M164.731 482.132 Q170.541 482.132 173.596 486.739 Q176.675 491.322 176.675 500.072 Q176.675 508.799 173.596 513.405 Q170.541 517.989 164.731 517.989 Q158.921 517.989 155.842 513.405 Q152.786 508.799 152.786 500.072 Q152.786 491.322 155.842 486.739 Q158.921 482.132 164.731 482.132 Z" fill="#000000" fill-rule="nonzero" fill-opacity="1" /><path clip-path="url(#clip970)" d="M184.893 511.438 L189.777 511.438 L189.777 517.317 L184.893 517.317 L184.893 511.438 Z" fill="#000000" fill-rule="nonzero" fill-opacity="1" /><path clip-path="url(#clip970)" d="M210.541 498.174 Q207.393 498.174 205.541 500.327 Q203.712 502.48 203.712 506.23 Q203.712 509.956 205.541 512.132 Q207.393 514.285 210.541 514.285 Q213.689 514.285 215.518 512.132 Q217.369 509.956 217.369 506.23 Q217.369 502.48 215.518 500.327 Q213.689 498.174 210.541 498.174 M219.823 483.521 L219.823 487.781 Q218.064 486.947 216.258 486.507 Q214.476 486.068 212.717 486.068 Q208.087 486.068 205.633 489.193 Q203.203 492.318 202.856 498.637 Q204.221 496.623 206.281 495.558 Q208.342 494.47 210.818 494.47 Q216.027 494.47 219.036 497.642 Q222.068 500.79 222.068 506.23 Q222.068 511.554 218.92 514.771 Q215.772 517.989 210.541 517.989 Q204.545 517.989 201.374 513.405 Q198.203 508.799 198.203 500.072 Q198.203 491.878 202.092 487.017 Q205.981 482.132 212.531 482.132 Q214.291 482.132 216.073 482.48 Q217.879 482.827 219.823 483.521 Z" fill="#000000" fill-rule="nonzero" fill-opacity="1" /><path clip-path="url(#clip970)" d="M164.985 251.94 Q161.374 251.94 159.546 255.504 Q157.74 259.046 157.74 266.176 Q157.74 273.282 159.546 276.847 Q161.374 280.389 164.985 280.389 Q168.62 280.389 170.425 276.847 Q172.254 273.282 172.254 266.176 Q172.254 259.046 170.425 255.504 Q168.62 251.94 164.985 251.94 M164.985 248.236 Q170.796 248.236 173.851 252.842 Q176.93 257.426 176.93 266.176 Q176.93 274.902 173.851 279.509 Q170.796 284.092 164.985 284.092 Q159.175 284.092 156.097 279.509 Q153.041 274.902 153.041 266.176 Q153.041 257.426 156.097 252.842 Q159.175 248.236 164.985 248.236 Z" fill="#000000" fill-rule="nonzero" fill-opacity="1" /><path clip-path="url(#clip970)" d="M185.147 277.541 L190.032 277.541 L190.032 283.421 L185.147 283.421 L185.147 277.541 Z" fill="#000000" fill-rule="nonzero" fill-opacity="1" /><path clip-path="url(#clip970)" d="M210.217 267.009 Q206.883 267.009 204.962 268.791 Q203.064 270.574 203.064 273.699 Q203.064 276.824 204.962 278.606 Q206.883 280.389 210.217 280.389 Q213.55 280.389 215.471 278.606 Q217.392 276.801 217.392 273.699 Q217.392 270.574 215.471 268.791 Q213.573 267.009 210.217 267.009 M205.541 265.018 Q202.531 264.278 200.842 262.217 Q199.175 260.157 199.175 257.194 Q199.175 253.051 202.115 250.643 Q205.078 248.236 210.217 248.236 Q215.379 248.236 218.318 250.643 Q221.258 253.051 221.258 257.194 Q221.258 260.157 219.568 262.217 Q217.902 264.278 214.916 265.018 Q218.295 265.805 220.17 268.097 Q222.068 270.389 222.068 273.699 Q222.068 278.722 218.99 281.407 Q215.934 284.092 210.217 284.092 Q204.499 284.092 201.42 281.407 Q198.365 278.722 198.365 273.699 Q198.365 270.389 200.263 268.097 Q202.161 265.805 205.541 265.018 M203.828 257.634 Q203.828 260.319 205.494 261.824 Q207.184 263.328 210.217 263.328 Q213.226 263.328 214.916 261.824 Q216.629 260.319 216.629 257.634 Q216.629 254.949 214.916 253.444 Q213.226 251.94 210.217 251.94 Q207.184 251.94 205.494 253.444 Q203.828 254.949 203.828 257.634 Z" fill="#000000" fill-rule="nonzero" fill-opacity="1" /><path clip-path="url(#clip970)" d="M55.927 774.48 L61.4015 774.48 Q60.0328 776.962 59.3644 779.477 Q58.6642 781.959 58.6642 784.506 Q58.6642 790.203 62.2927 793.354 Q65.8893 796.505 72.4141 796.505 Q78.939 796.505 82.5674 793.354 Q86.1641 790.203 86.1641 784.506 Q86.1641 781.959 85.4957 779.477 Q84.7954 776.962 83.4268 774.48 L88.8377 774.48 Q89.9835 776.931 90.5564 779.572 Q91.1293 782.182 91.1293 785.142 Q91.1293 793.195 86.0686 797.937 Q81.0078 802.68 72.4141 802.68 Q63.6931 802.68 58.696 797.906 Q53.699 793.099 53.699 784.76 Q53.699 782.055 54.2719 779.477 Q54.813 776.899 55.927 774.48 Z" fill="#000000" fill-rule="nonzero" fill-opacity="1" /><path clip-path="url(#clip970)" d="M58.6642 750.481 Q58.6642 755.192 62.3563 757.929 Q66.0166 760.666 72.4141 760.666 Q78.8117 760.666 82.5038 757.961 Q86.1641 755.223 86.1641 750.481 Q86.1641 745.802 82.4719 743.065 Q78.7798 740.328 72.4141 740.328 Q66.0803 740.328 62.3881 743.065 Q58.6642 745.802 58.6642 750.481 M53.699 750.481 Q53.699 742.842 58.6642 738.482 Q63.6295 734.121 72.4141 734.121 Q81.167 734.121 86.1641 738.482 Q91.1293 742.842 91.1293 750.481 Q91.1293 758.152 86.1641 762.512 Q81.167 766.841 72.4141 766.841 Q63.6295 766.841 58.6642 762.512 Q53.699 758.152 53.699 750.481 Z" fill="#000000" fill-rule="nonzero" fill-opacity="1" /><path clip-path="url(#clip970)" d="M68.6902 694.781 L90.2063 694.781 L90.2063 700.638 L68.8812 700.638 Q63.8204 700.638 61.306 702.611 Q58.7915 704.584 58.7915 708.531 Q58.7915 713.273 61.8152 716.011 Q64.8389 718.748 70.0588 718.748 L90.2063 718.748 L90.2063 724.636 L54.5583 724.636 L54.5583 718.748 L60.0965 718.748 Q56.8818 716.647 55.2904 713.815 Q53.699 710.95 53.699 707.226 Q53.699 701.083 57.5184 697.932 Q61.306 694.781 68.6902 694.781 Z" fill="#000000" fill-rule="nonzero" fill-opacity="1" /><path clip-path="url(#clip970)" d="M55.6087 660.374 L61.1468 660.374 Q59.8737 662.857 59.2371 665.531 Q58.6006 668.204 58.6006 671.069 Q58.6006 675.429 59.9373 677.626 Q61.2741 679.79 63.9477 679.79 Q65.9848 679.79 67.1624 678.23 Q68.3083 676.671 69.3586 671.96 L69.8042 669.955 Q71.141 663.716 73.5918 661.107 Q76.0108 658.465 80.3713 658.465 Q85.3365 658.465 88.2329 662.411 Q91.1293 666.326 91.1293 673.201 Q91.1293 676.066 90.5564 679.185 Q90.0153 682.272 88.9013 685.71 L82.8539 685.71 Q84.5408 682.463 85.4002 679.312 Q86.2277 676.161 86.2277 673.074 Q86.2277 668.936 84.8273 666.708 Q83.395 664.48 80.8169 664.48 Q78.4297 664.48 77.1566 666.104 Q75.8834 667.695 74.7058 673.138 L74.2284 675.175 Q73.0825 680.617 70.7272 683.036 Q68.3401 685.455 64.2024 685.455 Q59.1735 685.455 56.4362 681.891 Q53.699 678.326 53.699 671.769 Q53.699 668.523 54.1764 665.658 Q54.6538 662.793 55.6087 660.374 Z" fill="#000000" fill-rule="nonzero" fill-opacity="1" /><path clip-path="url(#clip970)" d="M76.1381 649.744 L54.5583 649.744 L54.5583 643.887 L75.9153 643.887 Q80.976 643.887 83.5223 641.914 Q86.0367 639.941 86.0367 635.994 Q86.0367 631.251 83.013 628.514 Q79.9893 625.745 74.7694 625.745 L54.5583 625.745 L54.5583 619.889 L90.2063 619.889 L90.2063 625.745 L84.7318 625.745 Q87.9783 627.878 89.5697 630.71 Q91.1293 633.511 91.1293 637.235 Q91.1293 643.378 87.3099 646.561 Q83.4905 649.744 76.1381 649.744 M53.699 635.007 L53.699 635.007 Z" fill="#000000" fill-rule="nonzero" fill-opacity="1" /><path clip-path="url(#clip970)" d="M61.4015 580.071 Q57.4547 577.875 55.5768 574.819 Q53.699 571.764 53.699 567.626 Q53.699 562.056 57.6139 559.032 Q61.4969 556.009 68.6902 556.009 L90.2063 556.009 L90.2063 561.897 L68.8812 561.897 Q63.7568 561.897 61.2741 563.711 Q58.7915 565.525 58.7915 569.249 Q58.7915 573.801 61.8152 576.443 Q64.8389 579.084 70.0588 579.084 L90.2063 579.084 L90.2063 584.973 L68.8812 584.973 Q63.7249 584.973 61.2741 586.787 Q58.7915 588.601 58.7915 592.389 Q58.7915 596.877 61.8471 599.518 Q64.8708 602.16 70.0588 602.16 L90.2063 602.16 L90.2063 608.048 L54.5583 608.048 L54.5583 602.16 L60.0965 602.16 Q56.8182 600.155 55.2586 597.354 Q53.699 594.553 53.699 590.702 Q53.699 586.819 55.6723 584.113 Q57.6457 581.376 61.4015 580.071 Z" fill="#000000" fill-rule="nonzero" fill-opacity="1" /><path clip-path="url(#clip970)" d="M84.8591 538.662 L103.765 538.662 L103.765 544.55 L54.5583 544.55 L54.5583 538.662 L59.9692 538.662 Q56.7863 536.816 55.2586 534.015 Q53.699 531.182 53.699 527.268 Q53.699 520.775 58.8552 516.732 Q64.0114 512.658 72.4141 512.658 Q80.8169 512.658 85.9731 516.732 Q91.1293 520.775 91.1293 527.268 Q91.1293 531.182 89.6015 534.015 Q88.0419 536.816 84.8591 538.662 M72.4141 518.737 Q65.9529 518.737 62.2927 521.411 Q58.6006 524.053 58.6006 528.7 Q58.6006 533.347 62.2927 536.02 Q65.9529 538.662 72.4141 538.662 Q78.8753 538.662 82.5674 536.02 Q86.2277 533.347 86.2277 528.7 Q86.2277 524.053 82.5674 521.411 Q78.8753 518.737 72.4141 518.737 Z" fill="#000000" fill-rule="nonzero" fill-opacity="1" /><path clip-path="url(#clip970)" d="M44.4369 497.158 L54.5583 497.158 L54.5583 485.095 L59.1098 485.095 L59.1098 497.158 L78.4616 497.158 Q82.8221 497.158 84.0634 495.98 Q85.3047 494.771 85.3047 491.11 L85.3047 485.095 L90.2063 485.095 L90.2063 491.11 Q90.2063 497.89 87.6918 500.468 Q85.1455 503.046 78.4616 503.046 L59.1098 503.046 L59.1098 507.343 L54.5583 507.343 L54.5583 503.046 L44.4369 503.046 L44.4369 497.158 Z" fill="#000000" fill-rule="nonzero" fill-opacity="1" /><path clip-path="url(#clip970)" d="M54.5583 477.392 L54.5583 471.536 L90.2063 471.536 L90.2063 477.392 L54.5583 477.392 M40.6811 477.392 L40.6811 471.536 L48.0971 471.536 L48.0971 477.392 L40.6811 477.392 Z" fill="#000000" fill-rule="nonzero" fill-opacity="1" /><path clip-path="url(#clip970)" d="M58.6642 445.468 Q58.6642 450.179 62.3563 452.916 Q66.0166 455.653 72.4141 455.653 Q78.8117 455.653 82.5038 452.948 Q86.1641 450.211 86.1641 445.468 Q86.1641 440.789 82.4719 438.052 Q78.7798 435.315 72.4141 435.315 Q66.0803 435.315 62.3881 438.052 Q58.6642 440.789 58.6642 445.468 M53.699 445.468 Q53.699 437.829 58.6642 433.469 Q63.6295 429.108 72.4141 429.108 Q81.167 429.108 86.1641 433.469 Q91.1293 437.829 91.1293 445.468 Q91.1293 453.139 86.1641 457.499 Q81.167 461.828 72.4141 461.828 Q63.6295 461.828 58.6642 457.499 Q53.699 453.139 53.699 445.468 Z" fill="#000000" fill-rule="nonzero" fill-opacity="1" /><path clip-path="url(#clip970)" d="M68.6902 389.768 L90.2063 389.768 L90.2063 395.625 L68.8812 395.625 Q63.8204 395.625 61.306 397.598 Q58.7915 399.571 58.7915 403.518 Q58.7915 408.261 61.8152 410.998 Q64.8389 413.735 70.0588 413.735 L90.2063 413.735 L90.2063 419.623 L54.5583 419.623 L54.5583 413.735 L60.0965 413.735 Q56.8818 411.634 55.2904 408.802 Q53.699 405.937 53.699 402.213 Q53.699 396.07 57.5184 392.919 Q61.306 389.768 68.6902 389.768 Z" fill="#000000" fill-rule="nonzero" fill-opacity="1" /><path clip-path="url(#clip970)" d="M55.927 331.713 L61.4015 331.713 Q60.0328 334.196 59.3644 336.71 Q58.6642 339.193 58.6642 341.739 Q58.6642 347.436 62.2927 350.587 Q65.8893 353.738 72.4141 353.738 Q78.939 353.738 82.5674 350.587 Q86.1641 347.436 86.1641 341.739 Q86.1641 339.193 85.4957 336.71 Q84.7954 334.196 83.4268 331.713 L88.8377 331.713 Q89.9835 334.164 90.5564 336.806 Q91.1293 339.416 91.1293 342.376 Q91.1293 350.428 86.0686 355.171 Q81.0078 359.913 72.4141 359.913 Q63.6931 359.913 58.696 355.139 Q53.699 350.333 53.699 341.994 Q53.699 339.288 54.2719 336.71 Q54.813 334.132 55.927 331.713 Z" fill="#000000" fill-rule="nonzero" fill-opacity="1" /><path clip-path="url(#clip970)" d="M40.7447 307.46 Q48.0653 311.725 55.2267 313.794 Q62.3881 315.862 69.7405 315.862 Q77.0929 315.862 84.318 313.794 Q91.5113 311.693 98.8 307.46 L98.8 312.552 Q91.3203 317.327 84.0952 319.714 Q76.8701 322.069 69.7405 322.069 Q62.6428 322.069 55.4495 319.714 Q48.2563 317.358 40.7447 312.552 L40.7447 307.46 Z" fill="#000000" fill-rule="nonzero" fill-opacity="1" /><path clip-path="url(#clip970)" d="M40.6811 296.32 L40.6811 290.431 L69.9315 290.431 L54.5583 272.958 L54.5583 265.478 L71.2365 284.384 L90.2063 264.682 L90.2063 272.321 L72.7961 290.431 L90.2063 290.431 L90.2063 296.32 L40.6811 296.32 Z" fill="#000000" fill-rule="nonzero" fill-opacity="1" /><path clip-path="url(#clip970)" d="M40.7447 259.271 L40.7447 254.179 Q48.2563 249.404 55.4495 247.049 Q62.6428 244.662 69.7405 244.662 Q76.8701 244.662 84.0952 247.049 Q91.3203 249.404 98.8 254.179 L98.8 259.271 Q91.5113 255.038 84.318 252.969 Q77.0929 250.869 69.7405 250.869 Q62.3881 250.869 55.2267 252.969 Q48.0653 255.038 40.7447 259.271 Z" fill="#000000" fill-rule="nonzero" fill-opacity="1" /><polyline clip-path="url(#clip972)" style="stroke:#009af9; stroke-linecap:round; stroke-linejoin:round; stroke-width:4; stroke-opacity:1; fill:none" points="305.836,973.13 307.029,968.916 308.222,964.81 309.416,960.805 310.609,956.893 311.803,953.069 312.996,949.327 314.19,945.663 315.383,942.07 316.577,938.546 317.77,935.087 318.963,931.69 320.157,928.35 321.35,925.066 322.544,921.835 323.737,918.654 324.931,915.521 326.124,912.434 327.317,909.391 328.511,906.39 329.704,903.43 330.898,900.508 332.091,897.624 333.285,894.776 334.478,891.962 335.671,889.182 336.865,886.434 338.058,883.717 339.252,881.03 340.445,878.372 341.639,875.742 342.832,873.14 344.026,870.564 345.219,868.013 346.412,865.488 347.606,862.986 348.799,860.508 349.993,858.053 351.186,855.62 352.38,853.208 353.573,850.817 354.766,848.447 355.96,846.097 357.153,843.766 358.347,841.454 359.54,839.16 360.734,836.884 361.927,834.626 363.12,832.385 364.314,830.161 365.507,827.953 366.701,825.761 367.894,823.585 369.088,821.424 370.281,819.278 371.475,817.147 372.668,815.03 373.861,812.927 375.055,810.838 376.248,808.762 377.442,806.699 378.635,804.65 379.829,802.613 381.022,800.588 382.215,798.576 383.409,796.576 384.602,794.587 385.796,792.61 386.989,790.645 388.183,788.69 389.376,786.747 390.569,784.814 391.763,782.892 392.956,780.98 394.15,779.078 395.343,777.187 396.537,775.305 397.73,773.433 398.924,771.571 400.117,769.718 401.31,767.874 402.504,766.039 403.697,764.214 404.891,762.397 406.084,760.588 407.278,758.789 408.471,756.998 409.664,755.215 410.858,753.44 412.051,751.673 413.245,749.915 414.438,748.164 415.632,746.421 416.825,744.685 418.018,742.957 419.212,741.237 420.405,739.523 421.599,737.817 422.792,736.118 423.986,734.426 425.179,732.741 426.373,731.063 427.566,729.392 428.759,727.727 429.953,726.069 431.146,724.417 432.34,722.772 433.533,721.133 434.727,719.5 435.92,717.874 437.113,716.253 438.307,714.639 439.5,713.03 440.694,711.428 441.887,709.831 443.081,708.24 444.274,706.655 445.467,705.075 446.661,703.501 447.854,701.932 449.048,700.369 450.241,698.811 451.435,697.259 452.628,695.711 453.822,694.169 455.015,692.632 456.208,691.1 457.402,689.573 458.595,688.052 459.789,686.535 460.982,685.022 462.176,683.515 463.369,682.013 464.562,680.515 465.756,679.022 466.949,677.533 468.143,676.049 469.336,674.57 470.53,673.095 471.723,671.624 472.916,670.158 474.11,668.696 475.303,667.239 476.497,665.786 477.69,664.337 478.884,662.892 480.077,661.452 481.271,660.015 482.464,658.583 483.657,657.154 484.851,655.73 486.044,654.31 487.238,652.893 488.431,651.48 489.625,650.072 490.818,648.667 492.011,647.266 493.205,645.868 494.398,644.475 495.592,643.085 496.785,641.698 497.979,640.315 499.172,638.936 500.365,637.561 501.559,636.189 502.752,634.82 503.946,633.455 505.139,632.094 506.333,630.735 507.526,629.38 508.719,628.029 509.913,626.681 511.106,625.336 512.3,623.994 513.493,622.656 514.687,621.321 515.88,619.989 517.074,618.66 518.267,617.334 519.46,616.012 520.654,614.692 521.847,613.374 523.041,612.058 524.234,610.62 525.428,610.108 526.621,608.662 527.814,607.357 529.008,606.058 530.201,604.762 531.395,603.47 532.588,602.18 533.782,600.894 534.975,599.61 536.168,598.329 537.362,597.051 538.555,595.776 539.749,594.503 540.942,593.234 542.136,591.967 543.329,590.702 544.523,589.441 545.716,588.182 546.909,586.925 548.103,585.671 549.296,584.42 550.49,583.171 551.683,581.925 552.877,580.682 554.07,579.441 555.263,578.202 556.457,576.966 557.65,575.733 558.844,574.502 560.037,573.273 561.231,572.047 562.424,570.823 563.617,569.602 564.811,568.383 566.004,567.166 567.198,565.952 568.391,564.74 569.585,563.53 570.778,562.322 571.972,561.117 573.165,559.915 574.358,558.714 575.552,557.516 576.745,556.319 577.939,555.126 579.132,553.934 580.326,552.744 581.519,551.557 582.712,550.372 583.906,549.189 585.099,548.008 586.293,546.829 587.486,545.652 588.68,544.478 589.873,543.305 591.066,542.135 592.26,540.966 593.453,539.8 594.647,538.635 595.84,537.473 597.034,536.313 598.227,535.155 599.421,533.998 600.614,532.844 601.807,531.691 603.001,530.541 604.194,529.393 605.388,528.246 606.581,527.101 607.775,525.959 608.968,524.818 610.161,523.679 611.355,522.542 612.548,521.406 613.742,520.273 614.935,519.141 616.129,518.012 617.322,516.884 618.515,515.758 619.709,514.633 620.902,513.511 622.096,512.39 623.289,511.271 624.483,510.154 625.676,509.039 626.87,507.925 628.063,506.813 629.256,505.703 630.45,504.594 631.643,503.487 632.837,502.382 634.03,501.279 635.224,500.177 636.417,499.077 637.61,497.979 638.804,496.882 639.997,495.787 641.191,494.693 642.384,493.602 643.578,492.511 644.771,491.423 645.964,490.336 647.158,489.25 648.351,488.167 649.545,487.084 650.738,486.004 651.932,484.925 653.125,483.847 654.319,482.771 655.512,481.697 656.705,480.624 657.899,479.552 659.092,478.482 660.286,477.414 661.479,476.347 662.673,475.282 663.866,474.218 665.059,473.156 666.253,472.095 667.446,471.035 668.64,469.977 669.833,468.921 671.027,467.866 672.22,466.812 673.413,465.76 674.607,464.709 675.8,463.66 676.994,462.612 678.187,461.565 679.381,460.52 680.574,459.476 681.768,458.434 682.961,457.393 684.154,456.353 685.348,455.315 686.541,454.278 687.735,453.242 688.928,452.208 690.122,451.175 691.315,450.144 692.508,449.114 693.702,448.085 694.895,447.057 696.089,446.031 697.282,445.006 698.476,443.983 699.669,442.96 700.862,441.939 702.056,440.919 703.249,439.901 704.443,438.884 705.636,437.868 706.83,436.853 708.023,435.84 709.217,434.828 710.41,433.817 711.603,432.807 712.797,431.799 713.99,430.792 715.184,429.786 716.377,428.781 717.571,427.777 718.764,426.775 719.957,425.774 721.151,424.774 722.344,423.775 723.538,422.778 724.731,421.781 725.925,420.786 727.118,419.792 728.311,418.799 729.505,417.808 730.698,416.817 731.892,415.828 733.085,414.839 734.279,413.852 735.472,412.866 736.665,411.882 737.859,410.898 739.052,409.916 740.246,408.934 741.439,407.954 742.633,406.975 743.826,405.997 745.02,405.02 746.213,404.044 747.406,403.069 748.6,402.095 749.793,401.123 750.987,400.151 752.18,399.181 753.374,398.212 754.567,397.243 755.76,396.276 756.954,395.31 758.147,394.345 759.341,393.381 760.534,392.418 761.728,391.456 762.921,390.495 764.114,389.535 765.308,388.576 766.501,387.619 767.695,386.662 768.888,385.706 770.082,384.751 771.275,383.798 772.469,382.845 773.662,381.893 774.855,380.943 776.049,379.993 777.242,379.044 778.436,378.097 779.629,377.15 780.823,376.204 782.016,375.259 783.209,374.316 784.403,373.373 785.596,372.431 786.79,371.49 787.983,370.55 789.177,369.612 790.37,368.674 791.563,367.737 792.757,366.8 793.95,365.865 795.144,364.931 796.337,363.998 797.531,363.066 798.724,362.134 799.918,361.204 801.111,360.274 802.304,359.346 803.498,358.418 804.691,357.491 805.885,356.566 807.078,355.641 808.272,354.717 809.465,353.794 810.658,352.871 811.852,351.95 813.045,351.03 814.239,350.11 815.432,349.191 816.626,348.274 817.819,347.357 819.012,346.441 820.206,345.526 821.399,344.612 822.593,343.698 823.786,342.786 824.98,341.874 826.173,340.963 827.367,340.053 828.56,339.144 829.753,338.236 830.947,337.329 832.14,336.422 833.334,335.517 834.527,334.612 835.721,333.708 836.914,332.805 838.107,331.902 839.301,331.001 840.494,330.1 841.688,329.2 842.881,328.301 844.075,327.403 845.268,326.506 846.461,325.609 847.655,324.714 848.848,323.819 850.042,322.924 851.235,322.031 852.429,321.139 853.622,320.247 854.816,319.356 856.009,318.466 857.202,317.577 858.396,316.688 859.589,315.8 860.783,314.913 861.976,314.027 863.17,313.142 864.363,312.257 865.556,311.373 866.75,310.49 867.943,309.608 869.137,308.726 870.33,307.845 871.524,306.965 872.717,306.086 873.91,305.207 875.104,304.33 876.297,303.453 877.491,302.576 878.684,301.701 879.878,300.826 881.071,299.952 882.265,299.079 883.458,298.206 884.651,297.335 885.845,296.463 887.038,295.593 888.232,294.724 889.425,293.855 890.619,292.986 891.812,292.119 893.005,291.252 894.199,290.386 895.392,289.521 896.586,288.657 897.779,287.793 898.973,286.93 900.166,286.067 901.359,285.205 902.553,284.344 903.746,283.484 904.94,282.624 906.133,281.766 907.327,280.907 908.52,280.05 909.714,279.193 910.907,278.337 912.1,277.481 913.294,276.627 914.487,275.773 915.681,274.919 916.874,274.066 918.068,273.33 919.261,272.809 920.454,272.287 921.648,271.767 922.841,271.247 924.035,270.728 925.228,270.21 926.422,269.692 927.615,269.175 928.808,268.658 930.002,268.143 931.195,267.628 932.389,267.113 933.582,266.599 934.776,266.086 935.969,265.574 937.162,265.062 938.356,264.551 939.549,264.04 940.743,263.53 941.936,263.021 943.13,262.513 944.323,262.005 945.517,261.497 946.71,260.991 947.903,260.485 949.097,259.979 950.29,259.475 951.484,258.971 952.677,258.467 953.871,257.964 955.064,257.462 956.257,256.96 957.451,256.459 958.644,255.959 959.838,255.459 961.031,254.96 962.225,254.462 963.418,253.964 964.611,253.466 965.805,252.97 966.998,252.474 968.192,251.978 969.385,251.483 970.579,250.989 971.772,250.495 972.966,250.002 974.159,249.51 975.352,249.018 976.546,248.526 977.739,248.036 978.933,247.546 980.126,247.056 981.32,246.567 982.513,246.079 983.706,245.591 984.9,245.104 986.093,244.617 987.287,244.131 988.48,243.646 989.674,243.161 990.867,242.676 992.06,242.192 993.254,241.709 994.447,241.227 995.641,240.745 996.834,240.263 998.028,239.782 999.221,239.302 1000.41,238.822 1001.61,238.343 1002.8,237.864 1003.99,237.386 1005.19,236.908 1006.38,236.431 1007.58,235.955 1008.77,235.479 1009.96,235.003 1011.16,234.528 1012.35,234.054 1013.54,233.58 1014.74,233.107 1015.93,232.634 1017.12,232.162 1018.32,231.691 1019.51,231.219 1020.7,230.749 1021.9,230.279 1023.09,229.809 1024.28,229.34 1025.48,228.872 1026.67,228.404 1027.86,227.937 1029.06,227.47 1030.25,227.003 1031.44,226.538 1032.64,226.072 1033.83,225.608 1035.02,225.143 1036.22,224.68 1037.41,224.216 1038.6,223.754 1039.8,223.291 1040.99,222.83 1042.18,222.368 1043.38,221.908 1044.57,221.447 1045.77,220.988 1046.96,220.529 1048.15,220.07 1049.35,219.612 1050.54,219.154 1051.73,218.697 1052.93,218.24 1054.12,217.784 1055.31,217.328 1056.51,216.873 1057.7,216.418 1058.89,215.964 1060.09,215.51 1061.28,215.057 1062.47,214.604 1063.67,214.152 1064.86,213.7 1066.05,213.249 1067.25,212.798 1068.44,212.348 1069.63,211.898 1070.83,211.448 1072.02,210.999 1073.21,210.551 1074.41,210.103 1075.6,209.655 1076.79,209.208 1077.99,208.762 1079.18,208.316 1080.37,207.87 1081.57,207.425 1082.76,206.98 1083.95,206.536 1085.15,206.092 1086.34,205.649 1087.54,205.206 1088.73,204.763 1089.92,204.321 1091.12,203.88 1092.31,203.439 1093.5,202.998 1094.7,202.558 1095.89,202.118 1097.08,201.679 1098.28,201.24 1099.47,200.802 1100.66,200.364 1101.86,199.927 1103.05,199.49 1104.24,199.053 1105.44,198.617 1106.63,198.181 1107.82,197.746 1109.02,197.311 1110.21,196.877 1111.4,196.443 1112.6,196.01 1113.79,195.577 1114.98,195.144 1116.18,194.712 1117.37,194.28 1118.56,193.849 1119.76,193.418 1120.95,192.987 1122.14,192.557 1123.34,192.128 1124.53,191.699 1125.73,191.27 1126.92,190.842 1128.11,190.414 1129.31,189.986 1130.5,189.559 1131.69,189.132 1132.89,188.706 1134.08,188.28 1135.27,187.855 1136.47,187.43 1137.66,187.006 1138.85,186.581 1140.05,186.158 1141.24,185.734 1142.43,185.312 1143.63,184.889 1144.82,184.467 1146.01,184.045 1147.21,183.624 1148.4,183.203 1149.59,182.783 1150.79,182.363 1151.98,181.943 1153.17,181.524 1154.37,181.105 1155.56,180.687 1156.75,180.268 1157.95,179.851 1159.14,179.434 1160.33,179.017 1161.53,178.6 1162.72,178.184 1163.92,177.769 1165.11,177.353 1166.3,176.938 1167.5,176.524 1168.69,176.11 1169.88,175.696 1171.08,175.283 1172.27,174.87 1173.46,174.457 1174.66,174.045 1175.85,173.634 1177.04,173.222 1178.24,172.811 1179.43,172.401 1180.62,171.99 1181.82,171.58 1183.01,171.171 1184.2,170.762 1185.4,170.353 1186.59,169.945 1187.78,169.537 1188.98,169.129 1190.17,168.722 1191.36,168.315 1192.56,167.909 1193.75,167.503 1194.94,167.097 1196.14,166.692 1197.33,166.287 1198.52,165.882 1199.72,165.478 1200.91,165.074 1202.1,164.67 1203.3,164.267 1204.49,163.864 1205.69,163.462 1206.88,163.06 1208.07,162.658 1209.27,162.257 1210.46,161.856 1211.65,161.455 1212.85,161.055 1214.04,160.655 1215.23,160.256 1216.43,159.857 1217.62,159.458 1218.81,159.059 1220.01,158.661 1221.2,158.264 1222.39,157.866 1223.59,157.469 1224.78,157.072 1225.97,156.676 1227.17,156.28 1228.36,155.885 1229.55,155.489 1230.75,155.094 1231.94,154.7 1233.13,154.305 1234.33,153.912 1235.52,153.518 1236.71,153.125 1237.91,152.732 1239.1,152.339 1240.29,151.947 1241.49,151.555 1242.68,151.164 1243.88,150.773 1245.07,150.382 1246.26,149.991 1247.46,149.601 1248.65,149.212 1249.84,148.822 1251.04,148.433 1252.23,148.044 1253.42,147.656 1254.62,147.268 1255.81,146.88 1257,146.492 1258.2,146.105 1259.39,145.718 1260.58,145.332 1261.78,144.946 1262.97,144.56 1264.16,144.174 1265.36,143.789 1266.55,143.404 1267.74,143.02 1268.94,142.636 1270.13,142.252 1271.32,141.868 1272.52,141.485 1273.71,141.102 1274.9,140.72 1276.1,140.338 1277.29,139.956 1278.48,139.574 1279.68,139.193 1280.87,138.812 1282.07,138.431 1283.26,138.051 1284.45,137.671 1285.65,137.291 1286.84,136.912 1288.03,136.533 1289.23,136.154 1290.42,135.776 1291.61,135.397 1292.81,135.02 1294,134.642 1295.19,134.265 1296.39,133.888 1297.58,133.512 1298.77,133.135 1299.97,132.759 1301.16,132.384 1302.35,132.008 1303.55,131.633 1304.74,131.259 1305.93,130.884 1307.13,130.51 1308.32,130.136 1309.51,129.763 1310.71,129.39 1311.9,129.017 1313.09,128.644 1314.29,128.272 1315.48,127.9 1316.67,127.528 1317.87,127.157 1319.06,126.786 1320.25,126.415 1321.45,126.045 1322.64,125.674 1323.84,125.305 1325.03,124.935 1326.22,124.566 1327.42,124.197 1328.61,123.828 1329.8,123.459 1331,123.091 1332.19,122.724 1333.38,122.356 1334.58,121.989 1335.77,121.622 1336.96,121.255 1338.16,120.889 1339.35,120.523 1340.54,120.157 1341.74,119.791 1342.93,119.426 1344.12,119.061 1345.32,118.697 1346.51,118.332 1347.7,117.968 1348.9,117.604 1350.09,117.241 1351.28,116.878 1352.48,116.515 1353.67,116.152 1354.86,115.79 1356.06,115.428 1357.25,115.066 1358.44,114.704 1359.64,114.343 1360.83,113.982 1362.03,113.621 1363.22,113.261 1364.41,112.901 1365.61,112.541 1366.8,112.182 1367.99,111.822 1369.19,111.463 1370.38,111.104 1371.57,110.746 1372.77,110.388 1373.96,110.03 1375.15,109.672 1376.35,109.315 1377.54,108.958 1378.73,108.601 1379.93,108.244 1381.12,107.888 1382.31,107.532 1383.51,107.176 1384.7,106.821 1385.89,106.466 1387.09,106.111 1388.28,105.756 1389.47,105.402 1390.67,105.048 1391.86,104.694 1393.05,104.34 1394.25,103.987 1395.44,103.634 1396.63,103.281 1397.83,102.928 1399.02,102.576 1400.22,102.224 1401.41,101.872 1402.6,101.521 1403.8,101.17 1404.99,100.819 1406.18,100.468 1407.38,100.117 1408.57,99.7672 1409.76,99.4173 1410.96,99.0676 1412.15,98.7182 1413.34,98.3691 1414.54,98.0202 1415.73,97.6715 1416.92,97.3232 1418.12,96.975 1419.31,96.6272 1420.5,96.2796 1421.7,95.9322 1422.89,95.5851 1424.08,95.2383 1425.28,94.8917 1426.47,94.5453 1427.66,94.1992 1428.86,93.8534 1430.05,93.5078 1431.24,93.1625 1432.44,92.8174 1433.63,92.4726 1434.82,92.128 1436.02,91.7836 1437.21,91.4396 1438.41,91.0957 1439.6,90.7521 1440.79,90.4088 1441.99,90.0657 1443.18,89.7229 1444.37,89.3803 1445.57,89.0379 1446.76,88.6958 1447.95,88.3539 1449.15,88.0123 1450.34,87.671 1451.53,87.3298 1452.73,86.9889 1453.92,86.6483 1455.11,86.3079 1456.31,85.9677 1457.5,85.6278 1458.69,85.2882 1459.89,84.9487 1461.08,84.6095 1462.27,84.2706 1463.47,83.9319 1464.66,83.5934 1465.85,83.2552 1467.05,82.9172 1468.24,82.5794 1469.43,82.2419 1470.63,81.9046 1471.82,81.5675 1473.01,81.2307 1474.21,80.8942 1475.4,80.5578 1476.59,80.2217 1477.79,79.8859 1478.98,79.5502 1480.18,79.2148 1481.37,78.8797 1482.56,78.5447 1483.76,78.21 1484.95,77.8756 1486.14,77.5413 1487.34,77.2073 1488.53,76.8735 1489.72,76.54 1490.92,76.2067 1492.11,75.8736 1493.3,75.5408 1494.5,75.2081 1495.69,74.8757 1496.88,74.5436 1498.08,74.2116 "/>
<path clip-path="url(#clip970)" d="M1888.98 1000.1 L3152.76 1000.1 L3152.76 47.2441 L1888.98 47.2441  Z" fill="#ffffff" fill-rule="evenodd" fill-opacity="1"/>
<polyline clip-path="url(#clip971)" style="stroke:#000000; stroke-linecap:round; stroke-linejoin:round; stroke-width:2; stroke-opacity:0.1; fill:none" points="1900.42,1000.1 1900.42,47.2441 "/>
<polyline clip-path="url(#clip971)" style="stroke:#000000; stroke-linecap:round; stroke-linejoin:round; stroke-width:2; stroke-opacity:0.1; fill:none" points="2173.09,1000.1 2173.09,47.2441 "/>
<polyline clip-path="url(#clip971)" style="stroke:#000000; stroke-linecap:round; stroke-linejoin:round; stroke-width:2; stroke-opacity:0.1; fill:none" points="2445.76,1000.1 2445.76,47.2441 "/>
<polyline clip-path="url(#clip971)" style="stroke:#000000; stroke-linecap:round; stroke-linejoin:round; stroke-width:2; stroke-opacity:0.1; fill:none" points="2718.43,1000.1 2718.43,47.2441 "/>
<polyline clip-path="url(#clip971)" style="stroke:#000000; stroke-linecap:round; stroke-linejoin:round; stroke-width:2; stroke-opacity:0.1; fill:none" points="2991.1,1000.1 2991.1,47.2441 "/>
<polyline clip-path="url(#clip971)" style="stroke:#000000; stroke-linecap:round; stroke-linejoin:round; stroke-width:2; stroke-opacity:0.1; fill:none" points="1888.98,896.417 3152.76,896.417 "/>
<polyline clip-path="url(#clip971)" style="stroke:#000000; stroke-linecap:round; stroke-linejoin:round; stroke-width:2; stroke-opacity:0.1; fill:none" points="1888.98,730.257 3152.76,730.257 "/>
<polyline clip-path="url(#clip971)" style="stroke:#000000; stroke-linecap:round; stroke-linejoin:round; stroke-width:2; stroke-opacity:0.1; fill:none" points="1888.98,564.098 3152.76,564.098 "/>
<polyline clip-path="url(#clip971)" style="stroke:#000000; stroke-linecap:round; stroke-linejoin:round; stroke-width:2; stroke-opacity:0.1; fill:none" points="1888.98,397.938 3152.76,397.938 "/>
<polyline clip-path="url(#clip971)" style="stroke:#000000; stroke-linecap:round; stroke-linejoin:round; stroke-width:2; stroke-opacity:0.1; fill:none" points="1888.98,231.779 3152.76,231.779 "/>
<polyline clip-path="url(#clip971)" style="stroke:#000000; stroke-linecap:round; stroke-linejoin:round; stroke-width:2; stroke-opacity:0.1; fill:none" points="1888.98,65.619 3152.76,65.619 "/>
<polyline clip-path="url(#clip970)" style="stroke:#000000; stroke-linecap:round; stroke-linejoin:round; stroke-width:4; stroke-opacity:1; fill:none" points="1888.98,1000.1 3152.76,1000.1 "/>
<polyline clip-path="url(#clip970)" style="stroke:#000000; stroke-linecap:round; stroke-linejoin:round; stroke-width:4; stroke-opacity:1; fill:none" points="1900.42,1000.1 1900.42,981.2 "/>
<polyline clip-path="url(#clip970)" style="stroke:#000000; stroke-linecap:round; stroke-linejoin:round; stroke-width:4; stroke-opacity:1; fill:none" points="2173.09,1000.1 2173.09,981.2 "/>
<polyline clip-path="url(#clip970)" style="stroke:#000000; stroke-linecap:round; stroke-linejoin:round; stroke-width:4; stroke-opacity:1; fill:none" points="2445.76,1000.1 2445.76,981.2 "/>
<polyline clip-path="url(#clip970)" style="stroke:#000000; stroke-linecap:round; stroke-linejoin:round; stroke-width:4; stroke-opacity:1; fill:none" points="2718.43,1000.1 2718.43,981.2 "/>
<polyline clip-path="url(#clip970)" style="stroke:#000000; stroke-linecap:round; stroke-linejoin:round; stroke-width:4; stroke-opacity:1; fill:none" points="2991.1,1000.1 2991.1,981.2 "/>
<path clip-path="url(#clip970)" d="M1900.42 1037.42 Q1896.81 1037.42 1894.98 1040.98 Q1893.17 1044.52 1893.17 1051.65 Q1893.17 1058.76 1894.98 1062.32 Q1896.81 1065.87 1900.42 1065.87 Q1904.05 1065.87 1905.86 1062.32 Q1907.68 1058.76 1907.68 1051.65 Q1907.68 1044.52 1905.86 1040.98 Q1904.05 1037.42 1900.42 1037.42 M1900.42 1033.71 Q1906.23 1033.71 1909.28 1038.32 Q1912.36 1042.9 1912.36 1051.65 Q1912.36 1060.38 1909.28 1064.99 Q1906.23 1069.57 1900.42 1069.57 Q1894.61 1069.57 1891.53 1064.99 Q1888.47 1060.38 1888.47 1051.65 Q1888.47 1042.9 1891.53 1038.32 Q1894.61 1033.71 1900.42 1033.71 Z" fill="#000000" fill-rule="nonzero" fill-opacity="1" /><path clip-path="url(#clip970)" d="M2167.74 1064.96 L2184.06 1064.96 L2184.06 1068.9 L2162.12 1068.9 L2162.12 1064.96 Q2164.78 1062.21 2169.36 1057.58 Q2173.97 1052.93 2175.15 1051.58 Q2177.39 1049.06 2178.27 1047.32 Q2179.18 1045.56 2179.18 1043.87 Q2179.18 1041.12 2177.23 1039.38 Q2175.31 1037.65 2172.21 1037.65 Q2170.01 1037.65 2167.55 1038.41 Q2165.12 1039.18 2162.35 1040.73 L2162.35 1036 Q2165.17 1034.87 2167.62 1034.29 Q2170.08 1033.71 2172.11 1033.71 Q2177.49 1033.71 2180.68 1036.4 Q2183.87 1039.08 2183.87 1043.57 Q2183.87 1045.7 2183.06 1047.62 Q2182.28 1049.52 2180.17 1052.12 Q2179.59 1052.79 2176.49 1056 Q2173.39 1059.2 2167.74 1064.96 Z" fill="#000000" fill-rule="nonzero" fill-opacity="1" /><path clip-path="url(#clip970)" d="M2448.77 1038.41 L2436.96 1056.86 L2448.77 1056.86 L2448.77 1038.41 M2447.54 1034.34 L2453.42 1034.34 L2453.42 1056.86 L2458.35 1056.86 L2458.35 1060.75 L2453.42 1060.75 L2453.42 1068.9 L2448.77 1068.9 L2448.77 1060.75 L2433.17 1060.75 L2433.17 1056.24 L2447.54 1034.34 Z" fill="#000000" fill-rule="nonzero" fill-opacity="1" /><path clip-path="url(#clip970)" d="M2718.83 1049.75 Q2715.69 1049.75 2713.83 1051.91 Q2712.01 1054.06 2712.01 1057.81 Q2712.01 1061.54 2713.83 1063.71 Q2715.69 1065.87 2718.83 1065.87 Q2721.98 1065.87 2723.81 1063.71 Q2725.66 1061.54 2725.66 1057.81 Q2725.66 1054.06 2723.81 1051.91 Q2721.98 1049.75 2718.83 1049.75 M2728.12 1035.1 L2728.12 1039.36 Q2726.36 1038.53 2724.55 1038.09 Q2722.77 1037.65 2721.01 1037.65 Q2716.38 1037.65 2713.93 1040.77 Q2711.5 1043.9 2711.15 1050.22 Q2712.52 1048.2 2714.58 1047.14 Q2716.64 1046.05 2719.11 1046.05 Q2724.32 1046.05 2727.33 1049.22 Q2730.36 1052.37 2730.36 1057.81 Q2730.36 1063.13 2727.21 1066.35 Q2724.07 1069.57 2718.83 1069.57 Q2712.84 1069.57 2709.67 1064.99 Q2706.5 1060.38 2706.5 1051.65 Q2706.5 1043.46 2710.39 1038.6 Q2714.27 1033.71 2720.83 1033.71 Q2722.58 1033.71 2724.37 1034.06 Q2726.17 1034.41 2728.12 1035.1 Z" fill="#000000" fill-rule="nonzero" fill-opacity="1" /><path clip-path="url(#clip970)" d="M2991.1 1052.49 Q2987.77 1052.49 2985.85 1054.27 Q2983.95 1056.05 2983.95 1059.18 Q2983.95 1062.3 2985.85 1064.08 Q2987.77 1065.87 2991.1 1065.87 Q2994.43 1065.87 2996.36 1064.08 Q2998.28 1062.28 2998.28 1059.18 Q2998.28 1056.05 2996.36 1054.27 Q2994.46 1052.49 2991.1 1052.49 M2986.42 1050.5 Q2983.42 1049.75 2981.73 1047.69 Q2980.06 1045.63 2980.06 1042.67 Q2980.06 1038.53 2983 1036.12 Q2985.96 1033.71 2991.1 1033.71 Q2996.26 1033.71 2999.2 1036.12 Q3002.14 1038.53 3002.14 1042.67 Q3002.14 1045.63 3000.45 1047.69 Q2998.79 1049.75 2995.8 1050.5 Q2999.18 1051.28 3001.05 1053.57 Q3002.95 1055.87 3002.95 1059.18 Q3002.95 1064.2 2999.87 1066.88 Q2996.82 1069.57 2991.1 1069.57 Q2985.38 1069.57 2982.3 1066.88 Q2979.25 1064.2 2979.25 1059.18 Q2979.25 1055.87 2981.15 1053.57 Q2983.04 1051.28 2986.42 1050.5 M2984.71 1043.11 Q2984.71 1045.8 2986.38 1047.3 Q2988.07 1048.81 2991.1 1048.81 Q2994.11 1048.81 2995.8 1047.3 Q2997.51 1045.8 2997.51 1043.11 Q2997.51 1040.43 2995.8 1038.92 Q2994.11 1037.42 2991.1 1037.42 Q2988.07 1037.42 2986.38 1038.92 Q2984.71 1040.43 2984.71 1043.11 Z" fill="#000000" fill-rule="nonzero" fill-opacity="1" /><path clip-path="url(#clip970)" d="M2412.29 1122.68 L2412.29 1128.16 Q2409.8 1126.79 2407.29 1126.12 Q2404.81 1125.42 2402.26 1125.42 Q2396.56 1125.42 2393.41 1129.05 Q2390.26 1132.64 2390.26 1139.17 Q2390.26 1145.69 2393.41 1149.32 Q2396.56 1152.92 2402.26 1152.92 Q2404.81 1152.92 2407.29 1152.25 Q2409.8 1151.55 2412.29 1150.18 L2412.29 1155.59 Q2409.83 1156.74 2407.19 1157.31 Q2404.58 1157.88 2401.62 1157.88 Q2393.57 1157.88 2388.83 1152.82 Q2384.08 1147.76 2384.08 1139.17 Q2384.08 1130.45 2388.86 1125.45 Q2393.67 1120.45 2402 1120.45 Q2404.71 1120.45 2407.29 1121.03 Q2409.87 1121.57 2412.29 1122.68 Z" fill="#000000" fill-rule="nonzero" fill-opacity="1" /><path clip-path="url(#clip970)" d="M2438.67 1139.04 Q2431.57 1139.04 2428.84 1140.67 Q2426.1 1142.29 2426.1 1146.2 Q2426.1 1149.32 2428.14 1151.17 Q2430.2 1152.98 2433.74 1152.98 Q2438.61 1152.98 2441.54 1149.55 Q2444.5 1146.08 2444.5 1140.35 L2444.5 1139.04 L2438.67 1139.04 M2450.35 1136.62 L2450.35 1156.96 L2444.5 1156.96 L2444.5 1151.55 Q2442.49 1154.8 2439.5 1156.36 Q2436.51 1157.88 2432.18 1157.88 Q2426.7 1157.88 2423.46 1154.83 Q2420.24 1151.74 2420.24 1146.59 Q2420.24 1140.57 2424.25 1137.51 Q2428.29 1134.46 2436.28 1134.46 L2444.5 1134.46 L2444.5 1133.89 Q2444.5 1129.84 2441.82 1127.65 Q2439.18 1125.42 2434.37 1125.42 Q2431.32 1125.42 2428.42 1126.15 Q2425.53 1126.88 2422.85 1128.35 L2422.85 1122.94 Q2426.07 1121.7 2429.09 1121.09 Q2432.11 1120.45 2434.98 1120.45 Q2442.71 1120.45 2446.53 1124.46 Q2450.35 1128.48 2450.35 1136.62 Z" fill="#000000" fill-rule="nonzero" fill-opacity="1" /><path clip-path="url(#clip970)" d="M2468.08 1151.61 L2468.08 1170.52 L2462.19 1170.52 L2462.19 1121.31 L2468.08 1121.31 L2468.08 1126.72 Q2469.93 1123.54 2472.73 1122.01 Q2475.56 1120.45 2479.48 1120.45 Q2485.97 1120.45 2490.01 1125.61 Q2494.08 1130.77 2494.08 1139.17 Q2494.08 1147.57 2490.01 1152.73 Q2485.97 1157.88 2479.48 1157.88 Q2475.56 1157.88 2472.73 1156.36 Q2469.93 1154.8 2468.08 1151.61 M2488.01 1139.17 Q2488.01 1132.71 2485.33 1129.05 Q2482.69 1125.36 2478.04 1125.36 Q2473.4 1125.36 2470.72 1129.05 Q2468.08 1132.71 2468.08 1139.17 Q2468.08 1145.63 2470.72 1149.32 Q2473.4 1152.98 2478.04 1152.98 Q2482.69 1152.98 2485.33 1149.32 Q2488.01 1145.63 2488.01 1139.17 Z" fill="#000000" fill-rule="nonzero" fill-opacity="1" /><path clip-path="url(#clip970)" d="M2503.79 1121.31 L2509.65 1121.31 L2509.65 1156.96 L2503.79 1156.96 L2503.79 1121.31 M2503.79 1107.44 L2509.65 1107.44 L2509.65 1114.85 L2503.79 1114.85 L2503.79 1107.44 Z" fill="#000000" fill-rule="nonzero" fill-opacity="1" /><path clip-path="url(#clip970)" d="M2527.7 1111.19 L2527.7 1121.31 L2539.76 1121.31 L2539.76 1125.87 L2527.7 1125.87 L2527.7 1145.22 Q2527.7 1149.58 2528.87 1150.82 Q2530.08 1152.06 2533.74 1152.06 L2539.76 1152.06 L2539.76 1156.96 L2533.74 1156.96 Q2526.96 1156.96 2524.39 1154.45 Q2521.81 1151.9 2521.81 1145.22 L2521.81 1125.87 L2517.51 1125.87 L2517.51 1121.31 L2521.81 1121.31 L2521.81 1111.19 L2527.7 1111.19 Z" fill="#000000" fill-rule="nonzero" fill-opacity="1" /><path clip-path="url(#clip970)" d="M2563.66 1139.04 Q2556.56 1139.04 2553.83 1140.67 Q2551.09 1142.29 2551.09 1146.2 Q2551.09 1149.32 2553.13 1151.17 Q2555.2 1152.98 2558.73 1152.98 Q2563.6 1152.98 2566.53 1149.55 Q2569.49 1146.08 2569.49 1140.35 L2569.49 1139.04 L2563.66 1139.04 M2575.34 1136.62 L2575.34 1156.96 L2569.49 1156.96 L2569.49 1151.55 Q2567.48 1154.8 2564.49 1156.36 Q2561.5 1157.88 2557.17 1157.88 Q2551.69 1157.88 2548.45 1154.83 Q2545.23 1151.74 2545.23 1146.59 Q2545.23 1140.57 2549.24 1137.51 Q2553.29 1134.46 2561.27 1134.46 L2569.49 1134.46 L2569.49 1133.89 Q2569.49 1129.84 2566.81 1127.65 Q2564.17 1125.42 2559.36 1125.42 Q2556.31 1125.42 2553.41 1126.15 Q2550.52 1126.88 2547.84 1128.35 L2547.84 1122.94 Q2551.06 1121.7 2554.08 1121.09 Q2557.1 1120.45 2559.97 1120.45 Q2567.7 1120.45 2571.52 1124.46 Q2575.34 1128.48 2575.34 1136.62 Z" fill="#000000" fill-rule="nonzero" fill-opacity="1" /><path clip-path="url(#clip970)" d="M2587.41 1107.44 L2593.26 1107.44 L2593.26 1156.96 L2587.41 1156.96 L2587.41 1107.44 Z" fill="#000000" fill-rule="nonzero" fill-opacity="1" /><path clip-path="url(#clip970)" d="M2626.01 1107.44 L2631.9 1107.44 L2631.9 1136.69 L2649.38 1121.31 L2656.86 1121.31 L2637.95 1137.99 L2657.65 1156.96 L2650.01 1156.96 L2631.9 1139.55 L2631.9 1156.96 L2626.01 1156.96 L2626.01 1107.44 Z" fill="#000000" fill-rule="nonzero" fill-opacity="1" /><polyline clip-path="url(#clip970)" style="stroke:#000000; stroke-linecap:round; stroke-linejoin:round; stroke-width:4; stroke-opacity:1; fill:none" points="1888.98,1000.1 1888.98,47.2441 "/>
<polyline clip-path="url(#clip970)" style="stroke:#000000; stroke-linecap:round; stroke-linejoin:round; stroke-width:4; stroke-opacity:1; fill:none" points="1888.98,896.417 1907.88,896.417 "/>
<polyline clip-path="url(#clip970)" style="stroke:#000000; stroke-linecap:round; stroke-linejoin:round; stroke-width:4; stroke-opacity:1; fill:none" points="1888.98,730.257 1907.88,730.257 "/>
<polyline clip-path="url(#clip970)" style="stroke:#000000; stroke-linecap:round; stroke-linejoin:round; stroke-width:4; stroke-opacity:1; fill:none" points="1888.98,564.098 1907.88,564.098 "/>
<polyline clip-path="url(#clip970)" style="stroke:#000000; stroke-linecap:round; stroke-linejoin:round; stroke-width:4; stroke-opacity:1; fill:none" points="1888.98,397.938 1907.88,397.938 "/>
<polyline clip-path="url(#clip970)" style="stroke:#000000; stroke-linecap:round; stroke-linejoin:round; stroke-width:4; stroke-opacity:1; fill:none" points="1888.98,231.779 1907.88,231.779 "/>
<polyline clip-path="url(#clip970)" style="stroke:#000000; stroke-linecap:round; stroke-linejoin:round; stroke-width:4; stroke-opacity:1; fill:none" points="1888.98,65.619 1907.88,65.619 "/>
<path clip-path="url(#clip970)" d="M1733.55 896.868 L1763.23 896.868 L1763.23 900.803 L1733.55 900.803 L1733.55 896.868 Z" fill="#000000" fill-rule="nonzero" fill-opacity="1" /><path clip-path="url(#clip970)" d="M1783.32 882.215 Q1779.71 882.215 1777.88 885.78 Q1776.07 889.322 1776.07 896.451 Q1776.07 903.558 1777.88 907.123 Q1779.71 910.664 1783.32 910.664 Q1786.95 910.664 1788.76 907.123 Q1790.59 903.558 1790.59 896.451 Q1790.59 889.322 1788.76 885.78 Q1786.95 882.215 1783.32 882.215 M1783.32 878.512 Q1789.13 878.512 1792.18 883.118 Q1795.26 887.701 1795.26 896.451 Q1795.26 905.178 1792.18 909.785 Q1789.13 914.368 1783.32 914.368 Q1777.51 914.368 1774.43 909.785 Q1771.37 905.178 1771.37 896.451 Q1771.37 887.701 1774.43 883.118 Q1777.51 878.512 1783.32 878.512 Z" fill="#000000" fill-rule="nonzero" fill-opacity="1" /><path clip-path="url(#clip970)" d="M1803.48 907.817 L1808.36 907.817 L1808.36 913.697 L1803.48 913.697 L1803.48 907.817 Z" fill="#000000" fill-rule="nonzero" fill-opacity="1" /><path clip-path="url(#clip970)" d="M1831.4 883.211 L1819.59 901.66 L1831.4 901.66 L1831.4 883.211 M1830.17 879.137 L1836.05 879.137 L1836.05 901.66 L1840.98 901.66 L1840.98 905.549 L1836.05 905.549 L1836.05 913.697 L1831.4 913.697 L1831.4 905.549 L1815.8 905.549 L1815.8 901.035 L1830.17 879.137 Z" fill="#000000" fill-rule="nonzero" fill-opacity="1" /><path clip-path="url(#clip970)" d="M1734.68 730.709 L1764.36 730.709 L1764.36 734.644 L1734.68 734.644 L1734.68 730.709 Z" fill="#000000" fill-rule="nonzero" fill-opacity="1" /><path clip-path="url(#clip970)" d="M1784.45 716.056 Q1780.84 716.056 1779.01 719.621 Q1777.21 723.162 1777.21 730.292 Q1777.21 737.398 1779.01 740.963 Q1780.84 744.505 1784.45 744.505 Q1788.09 744.505 1789.89 740.963 Q1791.72 737.398 1791.72 730.292 Q1791.72 723.162 1789.89 719.621 Q1788.09 716.056 1784.45 716.056 M1784.45 712.352 Q1790.26 712.352 1793.32 716.959 Q1796.4 721.542 1796.4 730.292 Q1796.4 739.019 1793.32 743.625 Q1790.26 748.208 1784.45 748.208 Q1778.64 748.208 1775.56 743.625 Q1772.51 739.019 1772.51 730.292 Q1772.51 721.542 1775.56 716.959 Q1778.64 712.352 1784.45 712.352 Z" fill="#000000" fill-rule="nonzero" fill-opacity="1" /><path clip-path="url(#clip970)" d="M1804.61 741.658 L1809.5 741.658 L1809.5 747.537 L1804.61 747.537 L1804.61 741.658 Z" fill="#000000" fill-rule="nonzero" fill-opacity="1" /><path clip-path="url(#clip970)" d="M1833.85 728.903 Q1837.21 729.621 1839.08 731.889 Q1840.98 734.158 1840.98 737.491 Q1840.98 742.607 1837.46 745.408 Q1833.94 748.208 1827.46 748.208 Q1825.29 748.208 1822.97 747.769 Q1820.68 747.352 1818.23 746.496 L1818.23 741.982 Q1820.17 743.116 1822.49 743.695 Q1824.8 744.273 1827.32 744.273 Q1831.72 744.273 1834.01 742.537 Q1836.33 740.801 1836.33 737.491 Q1836.33 734.435 1834.17 732.722 Q1832.05 730.986 1828.23 730.986 L1824.2 730.986 L1824.2 727.144 L1828.41 727.144 Q1831.86 727.144 1833.69 725.778 Q1835.52 724.389 1835.52 721.797 Q1835.52 719.135 1833.62 717.723 Q1831.74 716.287 1828.23 716.287 Q1826.3 716.287 1824.11 716.704 Q1821.91 717.121 1819.27 718 L1819.27 713.834 Q1821.93 713.093 1824.24 712.723 Q1826.58 712.352 1828.64 712.352 Q1833.97 712.352 1837.07 714.783 Q1840.17 717.19 1840.17 721.31 Q1840.17 724.181 1838.53 726.172 Q1836.88 728.139 1833.85 728.903 Z" fill="#000000" fill-rule="nonzero" fill-opacity="1" /><path clip-path="url(#clip970)" d="M1735.63 564.549 L1765.31 564.549 L1765.31 568.484 L1735.63 568.484 L1735.63 564.549 Z" fill="#000000" fill-rule="nonzero" fill-opacity="1" /><path clip-path="url(#clip970)" d="M1785.4 549.896 Q1781.79 549.896 1779.96 553.461 Q1778.16 557.003 1778.16 564.132 Q1778.16 571.239 1779.96 574.804 Q1781.79 578.345 1785.4 578.345 Q1789.04 578.345 1790.84 574.804 Q1792.67 571.239 1792.67 564.132 Q1792.67 557.003 1790.84 553.461 Q1789.04 549.896 1785.4 549.896 M1785.4 546.193 Q1791.21 546.193 1794.27 550.799 Q1797.35 555.382 1797.35 564.132 Q1797.35 572.859 1794.27 577.466 Q1791.21 582.049 1785.4 582.049 Q1779.59 582.049 1776.51 577.466 Q1773.46 572.859 1773.46 564.132 Q1773.46 555.382 1776.51 550.799 Q1779.59 546.193 1785.4 546.193 Z" fill="#000000" fill-rule="nonzero" fill-opacity="1" /><path clip-path="url(#clip970)" d="M1805.56 575.498 L1810.45 575.498 L1810.45 581.378 L1805.56 581.378 L1805.56 575.498 Z" fill="#000000" fill-rule="nonzero" fill-opacity="1" /><path clip-path="url(#clip970)" d="M1824.66 577.442 L1840.98 577.442 L1840.98 581.378 L1819.04 581.378 L1819.04 577.442 Q1821.7 574.688 1826.28 570.058 Q1830.89 565.406 1832.07 564.063 Q1834.31 561.54 1835.19 559.804 Q1836.1 558.044 1836.1 556.355 Q1836.1 553.6 1834.15 551.864 Q1832.23 550.128 1829.13 550.128 Q1826.93 550.128 1824.48 550.892 Q1822.05 551.656 1819.27 553.206 L1819.27 548.484 Q1822.09 547.35 1824.55 546.771 Q1827 546.193 1829.04 546.193 Q1834.41 546.193 1837.6 548.878 Q1840.8 551.563 1840.8 556.054 Q1840.8 558.183 1839.98 560.105 Q1839.2 562.003 1837.09 564.595 Q1836.51 565.267 1833.41 568.484 Q1830.31 571.679 1824.66 577.442 Z" fill="#000000" fill-rule="nonzero" fill-opacity="1" /><path clip-path="url(#clip970)" d="M1735.26 398.389 L1764.94 398.389 L1764.94 402.325 L1735.26 402.325 L1735.26 398.389 Z" fill="#000000" fill-rule="nonzero" fill-opacity="1" /><path clip-path="url(#clip970)" d="M1785.03 383.737 Q1781.42 383.737 1779.59 387.302 Q1777.79 390.843 1777.79 397.973 Q1777.79 405.079 1779.59 408.644 Q1781.42 412.186 1785.03 412.186 Q1788.67 412.186 1790.47 408.644 Q1792.3 405.079 1792.3 397.973 Q1792.3 390.843 1790.47 387.302 Q1788.67 383.737 1785.03 383.737 M1785.03 380.033 Q1790.84 380.033 1793.9 384.64 Q1796.98 389.223 1796.98 397.973 Q1796.98 406.7 1793.9 411.306 Q1790.84 415.889 1785.03 415.889 Q1779.22 415.889 1776.14 411.306 Q1773.09 406.7 1773.09 397.973 Q1773.09 389.223 1776.14 384.64 Q1779.22 380.033 1785.03 380.033 Z" fill="#000000" fill-rule="nonzero" fill-opacity="1" /><path clip-path="url(#clip970)" d="M1805.19 409.338 L1810.08 409.338 L1810.08 415.218 L1805.19 415.218 L1805.19 409.338 Z" fill="#000000" fill-rule="nonzero" fill-opacity="1" /><path clip-path="url(#clip970)" d="M1821.07 411.283 L1828.71 411.283 L1828.71 384.917 L1820.4 386.584 L1820.4 382.325 L1828.67 380.658 L1833.34 380.658 L1833.34 411.283 L1840.98 411.283 L1840.98 415.218 L1821.07 415.218 L1821.07 411.283 Z" fill="#000000" fill-rule="nonzero" fill-opacity="1" /><path clip-path="url(#clip970)" d="M1783.8 217.577 Q1780.19 217.577 1778.36 221.142 Q1776.56 224.684 1776.56 231.813 Q1776.56 238.92 1778.36 242.485 Q1780.19 246.026 1783.8 246.026 Q1787.44 246.026 1789.24 242.485 Q1791.07 238.92 1791.07 231.813 Q1791.07 224.684 1789.24 221.142 Q1787.44 217.577 1783.8 217.577 M1783.8 213.874 Q1789.61 213.874 1792.67 218.48 Q1795.75 223.063 1795.75 231.813 Q1795.75 240.54 1792.67 245.147 Q1789.61 249.73 1783.8 249.73 Q1777.99 249.73 1774.92 245.147 Q1771.86 240.54 1771.86 231.813 Q1771.86 223.063 1774.92 218.48 Q1777.99 213.874 1783.8 213.874 Z" fill="#000000" fill-rule="nonzero" fill-opacity="1" /><path clip-path="url(#clip970)" d="M1803.97 243.179 L1808.85 243.179 L1808.85 249.059 L1803.97 249.059 L1803.97 243.179 Z" fill="#000000" fill-rule="nonzero" fill-opacity="1" /><path clip-path="url(#clip970)" d="M1829.04 217.577 Q1825.42 217.577 1823.6 221.142 Q1821.79 224.684 1821.79 231.813 Q1821.79 238.92 1823.6 242.485 Q1825.42 246.026 1829.04 246.026 Q1832.67 246.026 1834.48 242.485 Q1836.3 238.92 1836.3 231.813 Q1836.3 224.684 1834.48 221.142 Q1832.67 217.577 1829.04 217.577 M1829.04 213.874 Q1834.85 213.874 1837.9 218.48 Q1840.98 223.063 1840.98 231.813 Q1840.98 240.54 1837.9 245.147 Q1834.85 249.73 1829.04 249.73 Q1823.23 249.73 1820.15 245.147 Q1817.09 240.54 1817.09 231.813 Q1817.09 223.063 1820.15 218.48 Q1823.23 213.874 1829.04 213.874 Z" fill="#000000" fill-rule="nonzero" fill-opacity="1" /><path clip-path="url(#clip970)" d="M1785.03 51.4177 Q1781.42 51.4177 1779.59 54.9825 Q1777.79 58.5241 1777.79 65.6537 Q1777.79 72.7602 1779.59 76.325 Q1781.42 79.8666 1785.03 79.8666 Q1788.67 79.8666 1790.47 76.325 Q1792.3 72.7602 1792.3 65.6537 Q1792.3 58.5241 1790.47 54.9825 Q1788.67 51.4177 1785.03 51.4177 M1785.03 47.714 Q1790.84 47.714 1793.9 52.3205 Q1796.98 56.9038 1796.98 65.6537 Q1796.98 74.3805 1793.9 78.987 Q1790.84 83.5703 1785.03 83.5703 Q1779.22 83.5703 1776.14 78.987 Q1773.09 74.3805 1773.09 65.6537 Q1773.09 56.9038 1776.14 52.3205 Q1779.22 47.714 1785.03 47.714 Z" fill="#000000" fill-rule="nonzero" fill-opacity="1" /><path clip-path="url(#clip970)" d="M1805.19 77.0194 L1810.08 77.0194 L1810.08 82.899 L1805.19 82.899 L1805.19 77.0194 Z" fill="#000000" fill-rule="nonzero" fill-opacity="1" /><path clip-path="url(#clip970)" d="M1821.07 78.9639 L1828.71 78.9639 L1828.71 52.5983 L1820.4 54.2649 L1820.4 50.0057 L1828.67 48.339 L1833.34 48.339 L1833.34 78.9639 L1840.98 78.9639 L1840.98 82.899 L1821.07 82.899 L1821.07 78.9639 Z" fill="#000000" fill-rule="nonzero" fill-opacity="1" /><path clip-path="url(#clip970)" d="M1637.02 730.174 L1642.49 730.174 Q1641.12 732.657 1640.45 735.172 Q1639.75 737.654 1639.75 740.2 Q1639.75 745.898 1643.38 749.049 Q1646.98 752.2 1653.5 752.2 Q1660.03 752.2 1663.66 749.049 Q1667.25 745.898 1667.25 740.2 Q1667.25 737.654 1666.58 735.172 Q1665.88 732.657 1664.51 730.174 L1669.93 730.174 Q1671.07 732.625 1671.64 735.267 Q1672.22 737.877 1672.22 740.837 Q1672.22 748.89 1667.16 753.632 Q1662.1 758.375 1653.5 758.375 Q1644.78 758.375 1639.78 753.6 Q1634.79 748.794 1634.79 740.455 Q1634.79 737.75 1635.36 735.172 Q1635.9 732.593 1637.02 730.174 Z" fill="#000000" fill-rule="nonzero" fill-opacity="1" /><path clip-path="url(#clip970)" d="M1653.37 703.789 Q1653.37 710.886 1655 713.624 Q1656.62 716.361 1660.54 716.361 Q1663.66 716.361 1665.5 714.324 Q1667.32 712.255 1667.32 708.722 Q1667.32 703.852 1663.88 700.924 Q1660.41 697.964 1654.68 697.964 L1653.37 697.964 L1653.37 703.789 M1650.96 692.108 L1671.29 692.108 L1671.29 697.964 L1665.88 697.964 Q1669.13 699.969 1670.69 702.961 Q1672.22 705.953 1672.22 710.282 Q1672.22 715.756 1669.16 719.003 Q1666.07 722.217 1660.92 722.217 Q1654.9 722.217 1651.85 718.207 Q1648.79 714.165 1648.79 706.176 L1648.79 697.964 L1648.22 697.964 Q1644.18 697.964 1641.98 700.638 Q1639.75 703.279 1639.75 708.085 Q1639.75 711.141 1640.48 714.037 Q1641.22 716.934 1642.68 719.607 L1637.27 719.607 Q1636.03 716.393 1635.42 713.369 Q1634.79 710.345 1634.79 707.481 Q1634.79 699.746 1638.8 695.927 Q1642.81 692.108 1650.96 692.108 Z" fill="#000000" fill-rule="nonzero" fill-opacity="1" /><path clip-path="url(#clip970)" d="M1665.95 674.379 L1684.85 674.379 L1684.85 680.267 L1635.65 680.267 L1635.65 674.379 L1641.06 674.379 Q1637.87 672.533 1636.35 669.732 Q1634.79 666.899 1634.79 662.984 Q1634.79 656.491 1639.94 652.449 Q1645.1 648.375 1653.5 648.375 Q1661.9 648.375 1667.06 652.449 Q1672.22 656.491 1672.22 662.984 Q1672.22 666.899 1670.69 669.732 Q1669.13 672.533 1665.95 674.379 M1653.5 654.454 Q1647.04 654.454 1643.38 657.128 Q1639.69 659.77 1639.69 664.417 Q1639.69 669.064 1643.38 671.737 Q1647.04 674.379 1653.5 674.379 Q1659.96 674.379 1663.66 671.737 Q1667.32 669.064 1667.32 664.417 Q1667.32 659.77 1663.66 657.128 Q1659.96 654.454 1653.5 654.454 Z" fill="#000000" fill-rule="nonzero" fill-opacity="1" /><path clip-path="url(#clip970)" d="M1635.65 638.667 L1635.65 632.811 L1671.29 632.811 L1671.29 638.667 L1635.65 638.667 M1621.77 638.667 L1621.77 632.811 L1629.19 632.811 L1629.19 638.667 L1621.77 638.667 Z" fill="#000000" fill-rule="nonzero" fill-opacity="1" /><path clip-path="url(#clip970)" d="M1625.52 614.764 L1635.65 614.764 L1635.65 602.701 L1640.2 602.701 L1640.2 614.764 L1659.55 614.764 Q1663.91 614.764 1665.15 613.587 Q1666.39 612.377 1666.39 608.717 L1666.39 602.701 L1671.29 602.701 L1671.29 608.717 Q1671.29 615.496 1668.78 618.074 Q1666.23 620.652 1659.55 620.652 L1640.2 620.652 L1640.2 624.949 L1635.65 624.949 L1635.65 620.652 L1625.52 620.652 L1625.52 614.764 Z" fill="#000000" fill-rule="nonzero" fill-opacity="1" /><path clip-path="url(#clip970)" d="M1653.37 578.798 Q1653.37 585.896 1655 588.633 Q1656.62 591.37 1660.54 591.37 Q1663.66 591.37 1665.5 589.333 Q1667.32 587.264 1667.32 583.731 Q1667.32 578.862 1663.88 575.933 Q1660.41 572.973 1654.68 572.973 L1653.37 572.973 L1653.37 578.798 M1650.96 567.117 L1671.29 567.117 L1671.29 572.973 L1665.88 572.973 Q1669.13 574.979 1670.69 577.97 Q1672.22 580.962 1672.22 585.291 Q1672.22 590.765 1669.16 594.012 Q1666.07 597.227 1660.92 597.227 Q1654.9 597.227 1651.85 593.216 Q1648.79 589.174 1648.79 581.185 L1648.79 572.973 L1648.22 572.973 Q1644.18 572.973 1641.98 575.647 Q1639.75 578.289 1639.75 583.095 Q1639.75 586.15 1640.48 589.047 Q1641.22 591.943 1642.68 594.617 L1637.27 594.617 Q1636.03 591.402 1635.42 588.378 Q1634.79 585.355 1634.79 582.49 Q1634.79 574.756 1638.8 570.936 Q1642.81 567.117 1650.96 567.117 Z" fill="#000000" fill-rule="nonzero" fill-opacity="1" /><path clip-path="url(#clip970)" d="M1621.77 555.054 L1621.77 549.197 L1671.29 549.197 L1671.29 555.054 L1621.77 555.054 Z" fill="#000000" fill-rule="nonzero" fill-opacity="1" /><path clip-path="url(#clip970)" d="M1641.06 492.765 L1621.77 492.765 L1621.77 486.909 L1671.29 486.909 L1671.29 492.765 L1665.95 492.765 Q1669.13 494.611 1670.69 497.444 Q1672.22 500.245 1672.22 504.192 Q1672.22 510.653 1667.06 514.727 Q1661.9 518.769 1653.5 518.769 Q1645.1 518.769 1639.94 514.727 Q1634.79 510.653 1634.79 504.192 Q1634.79 500.245 1636.35 497.444 Q1637.87 494.611 1641.06 492.765 M1653.5 512.722 Q1659.96 512.722 1663.66 510.08 Q1667.32 507.407 1667.32 502.76 Q1667.32 498.113 1663.66 495.439 Q1659.96 492.765 1653.5 492.765 Q1647.04 492.765 1643.38 495.439 Q1639.69 498.113 1639.69 502.76 Q1639.69 507.407 1643.38 510.08 Q1647.04 512.722 1653.5 512.722 Z" fill="#000000" fill-rule="nonzero" fill-opacity="1" /><path clip-path="url(#clip970)" d="M1641.12 454.189 Q1640.55 455.176 1640.29 456.354 Q1640.01 457.499 1640.01 458.9 Q1640.01 463.865 1643.25 466.539 Q1646.47 469.18 1652.52 469.18 L1671.29 469.18 L1671.29 475.069 L1635.65 475.069 L1635.65 469.18 L1641.18 469.18 Q1637.94 467.334 1636.38 464.374 Q1634.79 461.414 1634.79 457.181 Q1634.79 456.576 1634.88 455.844 Q1634.95 455.112 1635.11 454.221 L1641.12 454.189 Z" fill="#000000" fill-rule="nonzero" fill-opacity="1" /><path clip-path="url(#clip970)" d="M1635.65 448.046 L1635.65 442.19 L1671.29 442.19 L1671.29 448.046 L1635.65 448.046 M1621.77 448.046 L1621.77 442.19 L1629.19 442.19 L1629.19 448.046 L1621.77 448.046 Z" fill="#000000" fill-rule="nonzero" fill-opacity="1" /><path clip-path="url(#clip970)" d="M1621.77 411.889 L1626.64 411.889 L1626.64 417.491 Q1626.64 420.642 1627.91 421.883 Q1629.19 423.093 1632.5 423.093 L1635.65 423.093 L1635.65 413.449 L1640.2 413.449 L1640.2 423.093 L1671.29 423.093 L1671.29 428.981 L1640.2 428.981 L1640.2 434.583 L1635.65 434.583 L1635.65 428.981 L1633.16 428.981 Q1627.21 428.981 1624.51 426.212 Q1621.77 423.443 1621.77 417.427 L1621.77 411.889 Z" fill="#000000" fill-rule="nonzero" fill-opacity="1" /><path clip-path="url(#clip970)" d="M1625.52 402.341 L1635.65 402.341 L1635.65 390.278 L1640.2 390.278 L1640.2 402.341 L1659.55 402.341 Q1663.91 402.341 1665.15 401.163 Q1666.39 399.953 1666.39 396.293 L1666.39 390.278 L1671.29 390.278 L1671.29 396.293 Q1671.29 403.073 1668.78 405.651 Q1666.23 408.229 1659.55 408.229 L1640.2 408.229 L1640.2 412.526 L1635.65 412.526 L1635.65 408.229 L1625.52 408.229 L1625.52 402.341 Z" fill="#000000" fill-rule="nonzero" fill-opacity="1" /><path clip-path="url(#clip970)" d="M1684.85 362.459 L1635.65 362.459 L1635.65 356.603 L1657.8 356.603 Q1662.41 356.603 1664.77 354.407 Q1667.12 352.211 1667.12 347.914 Q1667.12 343.203 1664.45 340.848 Q1661.78 338.461 1656.43 338.461 L1635.65 338.461 L1635.65 332.604 L1663.08 332.604 Q1664.99 332.604 1665.92 332.063 Q1666.81 331.49 1666.81 330.313 Q1666.81 330.026 1666.65 329.517 Q1666.46 329.008 1666.07 328.116 L1670.79 328.116 Q1671.52 329.421 1671.87 330.599 Q1672.22 331.745 1672.22 332.859 Q1672.22 335.055 1670.98 336.36 Q1669.73 337.665 1667.19 338.142 Q1669.7 339.734 1670.98 342.057 Q1672.22 344.349 1672.22 347.468 Q1672.22 350.715 1670.98 353.006 Q1669.73 355.266 1667.25 356.603 L1684.85 356.603 L1684.85 362.459 Z" fill="#000000" fill-rule="nonzero" fill-opacity="1" /><path clip-path="url(#clip970)" d="M1621.77 320.605 L1621.77 314.717 L1651.02 314.717 L1635.65 297.243 L1635.65 289.763 L1652.32 308.669 L1671.29 288.967 L1671.29 296.606 L1653.88 314.717 L1671.29 314.717 L1671.29 320.605 L1621.77 320.605 Z" fill="#000000" fill-rule="nonzero" fill-opacity="1" /><polyline clip-path="url(#clip971)" style="stroke:#009af9; stroke-linecap:round; stroke-linejoin:round; stroke-width:4; stroke-opacity:1; fill:none" points="1924.75,75.9871 1925.94,75.5337 1927.13,75.1573 1928.33,74.8518 1929.52,74.6114 1930.71,74.4314 1931.91,74.3073 1933.1,74.2352 1934.3,74.2116 1935.49,74.2334 1936.68,74.2975 1937.88,74.4016 1939.07,74.543 1940.26,74.7198 1941.46,74.9299 1942.65,75.1714 1943.84,75.4428 1945.04,75.7425 1946.23,76.0689 1947.42,76.4209 1948.62,76.7971 1949.81,77.1965 1951,77.6179 1952.2,78.0604 1953.39,78.523 1954.58,79.0049 1955.78,79.5053 1956.97,80.0233 1958.16,80.5583 1959.36,81.1095 1960.55,81.6764 1961.74,82.2584 1962.94,82.8548 1964.13,83.4652 1965.32,84.089 1966.52,84.7257 1967.71,85.375 1968.9,86.0363 1970.1,86.7092 1971.29,87.3933 1972.48,88.0884 1973.68,88.794 1974.87,89.5097 1976.07,90.2353 1977.26,90.9705 1978.45,91.7149 1979.65,92.4683 1980.84,93.2304 1982.03,94.001 1983.23,94.7797 1984.42,95.5664 1985.61,96.3609 1986.81,97.1628 1988,97.9721 1989.19,98.7885 1990.39,99.6118 1991.58,100.442 1992.77,101.278 1993.97,102.121 1995.16,102.971 1996.35,103.826 1997.55,104.687 1998.74,105.554 1999.93,106.426 2001.13,107.304 2002.32,108.188 2003.51,109.076 2004.71,109.97 2005.9,110.868 2007.09,111.772 2008.29,112.68 2009.48,113.593 2010.67,114.51 2011.87,115.432 2013.06,116.358 2014.26,117.289 2015.45,118.223 2016.64,119.162 2017.84,120.104 2019.03,121.05 2020.22,122.001 2021.42,122.954 2022.61,123.912 2023.8,124.873 2025,125.838 2026.19,126.806 2027.38,127.777 2028.58,128.752 2029.77,129.729 2030.96,130.711 2032.16,131.695 2033.35,132.682 2034.54,133.672 2035.74,134.665 2036.93,135.661 2038.12,136.66 2039.32,137.661 2040.51,138.665 2041.7,139.672 2042.9,140.682 2044.09,141.694 2045.28,142.708 2046.48,143.725 2047.67,144.745 2048.86,145.767 2050.06,146.791 2051.25,147.817 2052.45,148.846 2053.64,149.877 2054.83,150.91 2056.03,151.945 2057.22,152.983 2058.41,154.022 2059.61,155.064 2060.8,156.107 2061.99,157.153 2063.19,158.201 2064.38,159.25 2065.57,160.301 2066.77,161.354 2067.96,162.409 2069.15,163.466 2070.35,164.524 2071.54,165.585 2072.73,166.647 2073.93,167.71 2075.12,168.776 2076.31,169.842 2077.51,170.911 2078.7,171.981 2079.89,173.053 2081.09,174.126 2082.28,175.201 2083.47,176.277 2084.67,177.354 2085.86,178.434 2087.05,179.514 2088.25,180.596 2089.44,181.679 2090.63,182.764 2091.83,183.85 2093.02,184.937 2094.22,186.026 2095.41,187.116 2096.6,188.207 2097.8,189.3 2098.99,190.393 2100.18,191.488 2101.38,192.584 2102.57,193.681 2103.76,194.78 2104.96,195.879 2106.15,196.98 2107.34,198.082 2108.54,199.185 2109.73,200.289 2110.92,201.394 2112.12,202.5 2113.31,203.607 2114.5,204.716 2115.7,205.825 2116.89,206.935 2118.08,208.046 2119.28,209.158 2120.47,210.272 2121.66,211.386 2122.86,212.501 2124.05,213.617 2125.24,214.734 2126.44,215.852 2127.63,216.97 2128.82,218.09 2130.02,219.21 2131.21,220.332 2132.41,221.454 2133.6,222.577 2134.79,223.701 2135.99,224.826 2137.18,225.951 2138.37,227.078 2139.57,228.206 2140.76,229.335 2141.95,230.469 2143.15,231.779 2144.34,231.779 2145.53,233.111 2146.73,234.248 2147.92,235.382 2149.11,236.515 2150.31,237.649 2151.5,238.783 2152.69,239.917 2153.89,241.053 2155.08,242.189 2156.27,243.325 2157.47,244.462 2158.66,245.6 2159.85,246.739 2161.05,247.878 2162.24,249.017 2163.43,250.158 2164.63,251.299 2165.82,252.44 2167.01,253.582 2168.21,254.725 2169.4,255.868 2170.6,257.012 2171.79,258.157 2172.98,259.302 2174.18,260.447 2175.37,261.593 2176.56,262.74 2177.76,263.887 2178.95,265.035 2180.14,266.183 2181.34,267.332 2182.53,268.481 2183.72,269.631 2184.92,270.781 2186.11,271.932 2187.3,273.084 2188.5,274.235 2189.69,275.388 2190.88,276.54 2192.08,277.694 2193.27,278.847 2194.46,280.001 2195.66,281.156 2196.85,282.311 2198.04,283.466 2199.24,284.622 2200.43,285.779 2201.62,286.936 2202.82,288.093 2204.01,289.25 2205.2,290.409 2206.4,291.567 2207.59,292.726 2208.78,293.885 2209.98,295.045 2211.17,296.205 2212.37,297.366 2213.56,298.526 2214.75,299.688 2215.95,300.849 2217.14,302.011 2218.33,303.174 2219.53,304.336 2220.72,305.5 2221.91,306.663 2223.11,307.827 2224.3,308.991 2225.49,310.156 2226.69,311.32 2227.88,312.486 2229.07,313.651 2230.27,314.817 2231.46,315.983 2232.65,317.15 2233.85,318.317 2235.04,319.484 2236.23,320.651 2237.43,321.819 2238.62,322.987 2239.81,324.156 2241.01,325.325 2242.2,326.494 2243.39,327.663 2244.59,328.833 2245.78,330.003 2246.97,331.173 2248.17,332.343 2249.36,333.514 2250.56,334.685 2251.75,335.857 2252.94,337.028 2254.14,338.2 2255.33,339.372 2256.52,340.545 2257.72,341.717 2258.91,342.89 2260.1,344.064 2261.3,345.237 2262.49,346.411 2263.68,347.585 2264.88,348.759 2266.07,349.933 2267.26,351.108 2268.46,352.283 2269.65,353.458 2270.84,354.634 2272.04,355.809 2273.23,356.985 2274.42,358.161 2275.62,359.338 2276.81,360.514 2278,361.691 2279.2,362.868 2280.39,364.045 2281.58,365.223 2282.78,366.4 2283.97,367.578 2285.16,368.756 2286.36,369.935 2287.55,371.113 2288.75,372.292 2289.94,373.471 2291.13,374.65 2292.33,375.829 2293.52,377.009 2294.71,378.188 2295.91,379.368 2297.1,380.548 2298.29,381.728 2299.49,382.909 2300.68,384.089 2301.87,385.27 2303.07,386.451 2304.26,387.632 2305.45,388.814 2306.65,389.995 2307.84,391.177 2309.03,392.359 2310.23,393.541 2311.42,394.723 2312.61,395.905 2313.81,397.088 2315,398.27 2316.19,399.453 2317.39,400.636 2318.58,401.819 2319.77,403.003 2320.97,404.186 2322.16,405.37 2323.35,406.553 2324.55,407.737 2325.74,408.921 2326.94,410.106 2328.13,411.29 2329.32,412.475 2330.52,413.659 2331.71,414.844 2332.9,416.029 2334.1,417.214 2335.29,418.399 2336.48,419.584 2337.68,420.77 2338.87,421.955 2340.06,423.141 2341.26,424.327 2342.45,425.513 2343.64,426.699 2344.84,427.885 2346.03,429.072 2347.22,430.258 2348.42,431.445 2349.61,432.632 2350.8,433.818 2352,435.005 2353.19,436.193 2354.38,437.38 2355.58,438.567 2356.77,439.754 2357.96,440.942 2359.16,442.13 2360.35,443.317 2361.54,444.505 2362.74,445.693 2363.93,446.881 2365.12,448.07 2366.32,449.258 2367.51,450.446 2368.71,451.635 2369.9,452.823 2371.09,454.012 2372.29,455.201 2373.48,456.39 2374.67,457.579 2375.87,458.768 2377.06,459.957 2378.25,461.146 2379.45,462.336 2380.64,463.525 2381.83,464.715 2383.03,465.904 2384.22,467.094 2385.41,468.284 2386.61,469.474 2387.8,470.664 2388.99,471.854 2390.19,473.044 2391.38,474.234 2392.57,475.425 2393.77,476.615 2394.96,477.806 2396.15,478.996 2397.35,480.187 2398.54,481.378 2399.73,482.569 2400.93,483.759 2402.12,484.95 2403.31,486.141 2404.51,487.333 2405.7,488.524 2406.9,489.715 2408.09,490.906 2409.28,492.098 2410.48,493.289 2411.67,494.481 2412.86,495.672 2414.06,496.864 2415.25,498.056 2416.44,499.248 2417.64,500.44 2418.83,501.631 2420.02,502.824 2421.22,504.016 2422.41,505.208 2423.6,506.4 2424.8,507.592 2425.99,508.784 2427.18,509.977 2428.38,511.169 2429.57,512.362 2430.76,513.554 2431.96,514.747 2433.15,515.94 2434.34,517.132 2435.54,518.325 2436.73,519.518 2437.92,520.711 2439.12,521.904 2440.31,523.097 2441.5,524.29 2442.7,525.483 2443.89,526.676 2445.09,527.869 2446.28,529.062 2447.47,530.256 2448.67,531.449 2449.86,532.642 2451.05,533.836 2452.25,535.029 2453.44,536.223 2454.63,537.416 2455.83,538.61 2457.02,539.804 2458.21,540.997 2459.41,542.191 2460.6,543.385 2461.79,544.579 2462.99,545.773 2464.18,546.966 2465.37,548.16 2466.57,549.354 2467.76,550.548 2468.95,551.742 2470.15,552.937 2471.34,554.131 2472.53,555.325 2473.73,556.519 2474.92,557.713 2476.11,558.908 2477.31,560.102 2478.5,561.296 2479.69,562.491 2480.89,563.685 2482.08,564.879 2483.27,566.074 2484.47,567.268 2485.66,568.463 2486.86,569.658 2488.05,570.852 2489.24,572.047 2490.44,573.241 2491.63,574.436 2492.82,575.631 2494.02,576.825 2495.21,578.02 2496.4,579.215 2497.6,580.41 2498.79,581.605 2499.98,582.8 2501.18,583.994 2502.37,585.189 2503.56,586.384 2504.76,587.579 2505.95,588.774 2507.14,589.969 2508.34,591.164 2509.53,592.359 2510.72,593.554 2511.92,594.75 2513.11,595.945 2514.3,597.14 2515.5,598.335 2516.69,599.53 2517.88,600.725 2519.08,601.92 2520.27,603.116 2521.46,604.311 2522.66,605.506 2523.85,606.702 2525.05,607.897 2526.24,609.092 2527.43,610.287 2528.63,611.483 2529.82,612.678 2531.01,613.874 2532.21,615.069 2533.4,616.264 2534.59,617.46 2535.79,618.655 2536.98,619.686 2538.17,620.413 2539.37,621.14 2540.56,621.868 2541.75,622.595 2542.95,623.322 2544.14,624.049 2545.33,624.777 2546.53,625.504 2547.72,626.231 2548.91,626.958 2550.11,627.686 2551.3,628.413 2552.49,629.14 2553.69,629.867 2554.88,630.595 2556.07,631.322 2557.27,632.049 2558.46,632.776 2559.65,633.504 2560.85,634.231 2562.04,634.958 2563.24,635.685 2564.43,636.413 2565.62,637.14 2566.82,637.867 2568.01,638.594 2569.2,639.322 2570.4,640.049 2571.59,640.776 2572.78,641.503 2573.98,642.231 2575.17,642.958 2576.36,643.685 2577.56,644.412 2578.75,645.14 2579.94,645.867 2581.14,646.594 2582.33,647.321 2583.52,648.049 2584.72,648.776 2585.91,649.503 2587.1,650.23 2588.3,650.958 2589.49,651.685 2590.68,652.412 2591.88,653.139 2593.07,653.867 2594.26,654.594 2595.46,655.321 2596.65,656.048 2597.84,656.776 2599.04,657.503 2600.23,658.23 2601.42,658.957 2602.62,659.685 2603.81,660.412 2605.01,661.139 2606.2,661.866 2607.39,662.594 2608.59,663.321 2609.78,664.048 2610.97,664.775 2612.17,665.503 2613.36,666.23 2614.55,666.957 2615.75,667.684 2616.94,668.412 2618.13,669.139 2619.33,669.866 2620.52,670.593 2621.71,671.321 2622.91,672.048 2624.1,672.775 2625.29,673.502 2626.49,674.23 2627.68,674.957 2628.87,675.684 2630.07,676.411 2631.26,677.139 2632.45,677.866 2633.65,678.593 2634.84,679.32 2636.03,680.048 2637.23,680.775 2638.42,681.502 2639.61,682.229 2640.81,682.957 2642,683.684 2643.2,684.411 2644.39,685.138 2645.58,685.866 2646.78,686.593 2647.97,687.32 2649.16,688.047 2650.36,688.775 2651.55,689.502 2652.74,690.229 2653.94,690.956 2655.13,691.684 2656.32,692.411 2657.52,693.138 2658.71,693.865 2659.9,694.593 2661.1,695.32 2662.29,696.047 2663.48,696.774 2664.68,697.502 2665.87,698.229 2667.06,698.956 2668.26,699.683 2669.45,700.411 2670.64,701.138 2671.84,701.865 2673.03,702.592 2674.22,703.32 2675.42,704.047 2676.61,704.774 2677.8,705.501 2679,706.229 2680.19,706.956 2681.39,707.683 2682.58,708.41 2683.77,709.138 2684.97,709.865 2686.16,710.592 2687.35,711.32 2688.55,712.047 2689.74,712.774 2690.93,713.501 2692.13,714.229 2693.32,714.956 2694.51,715.683 2695.71,716.41 2696.9,717.138 2698.09,717.865 2699.29,718.592 2700.48,719.319 2701.67,720.047 2702.87,720.774 2704.06,721.501 2705.25,722.228 2706.45,722.956 2707.64,723.683 2708.83,724.41 2710.03,725.137 2711.22,725.865 2712.41,726.592 2713.61,727.319 2714.8,728.046 2715.99,728.774 2717.19,729.501 2718.38,730.228 2719.57,730.955 2720.77,731.683 2721.96,732.41 2723.16,733.137 2724.35,733.864 2725.54,734.592 2726.74,735.319 2727.93,736.046 2729.12,736.773 2730.32,737.501 2731.51,738.228 2732.7,738.955 2733.9,739.682 2735.09,740.41 2736.28,741.137 2737.48,741.864 2738.67,742.591 2739.86,743.319 2741.06,744.046 2742.25,744.773 2743.44,745.5 2744.64,746.228 2745.83,746.955 2747.02,747.682 2748.22,748.409 2749.41,749.137 2750.6,749.864 2751.8,750.591 2752.99,751.318 2754.18,752.046 2755.38,752.773 2756.57,753.5 2757.76,754.227 2758.96,754.955 2760.15,755.682 2761.35,756.409 2762.54,757.136 2763.73,757.864 2764.93,758.591 2766.12,759.318 2767.31,760.045 2768.51,760.773 2769.7,761.5 2770.89,762.227 2772.09,762.954 2773.28,763.682 2774.47,764.409 2775.67,765.136 2776.86,765.863 2778.05,766.591 2779.25,767.318 2780.44,768.045 2781.63,768.772 2782.83,769.5 2784.02,770.227 2785.21,770.954 2786.41,771.681 2787.6,772.409 2788.79,773.136 2789.99,773.863 2791.18,774.59 2792.37,775.318 2793.57,776.045 2794.76,776.772 2795.95,777.499 2797.15,778.227 2798.34,778.954 2799.54,779.681 2800.73,780.408 2801.92,781.136 2803.12,781.863 2804.31,782.59 2805.5,783.317 2806.7,784.045 2807.89,784.772 2809.08,785.499 2810.28,786.226 2811.47,786.954 2812.66,787.681 2813.86,788.408 2815.05,789.135 2816.24,789.863 2817.44,790.59 2818.63,791.317 2819.82,792.044 2821.02,792.772 2822.21,793.499 2823.4,794.226 2824.6,794.953 2825.79,795.681 2826.98,796.408 2828.18,797.135 2829.37,797.862 2830.56,798.59 2831.76,799.317 2832.95,800.044 2834.14,800.771 2835.34,801.499 2836.53,802.226 2837.72,802.953 2838.92,803.68 2840.11,804.408 2841.31,805.135 2842.5,805.862 2843.69,806.589 2844.89,807.317 2846.08,808.044 2847.27,808.771 2848.47,809.499 2849.66,810.226 2850.85,810.953 2852.05,811.68 2853.24,812.408 2854.43,813.135 2855.63,813.862 2856.82,814.589 2858.01,815.317 2859.21,816.044 2860.4,816.771 2861.59,817.498 2862.79,818.226 2863.98,818.953 2865.17,819.68 2866.37,820.407 2867.56,821.135 2868.75,821.862 2869.95,822.589 2871.14,823.316 2872.33,824.044 2873.53,824.771 2874.72,825.498 2875.91,826.225 2877.11,826.953 2878.3,827.68 2879.5,828.407 2880.69,829.134 2881.88,829.862 2883.08,830.589 2884.27,831.316 2885.46,832.043 2886.66,832.771 2887.85,833.498 2889.04,834.225 2890.24,834.952 2891.43,835.68 2892.62,836.407 2893.82,837.134 2895.01,837.861 2896.2,838.589 2897.4,839.316 2898.59,840.043 2899.78,840.77 2900.98,841.498 2902.17,842.225 2903.36,842.952 2904.56,843.679 2905.75,844.407 2906.94,845.134 2908.14,845.861 2909.33,846.588 2910.52,847.316 2911.72,848.043 2912.91,848.77 2914.1,849.497 2915.3,850.225 2916.49,850.952 2917.69,851.679 2918.88,852.406 2920.07,853.134 2921.27,853.861 2922.46,854.588 2923.65,855.315 2924.85,856.043 2926.04,856.77 2927.23,857.497 2928.43,858.224 2929.62,858.952 2930.81,859.679 2932.01,860.406 2933.2,861.133 2934.39,861.861 2935.59,862.588 2936.78,863.315 2937.97,864.042 2939.17,864.77 2940.36,865.497 2941.55,866.224 2942.75,866.951 2943.94,867.679 2945.13,868.406 2946.33,869.133 2947.52,869.86 2948.71,870.588 2949.91,871.315 2951.1,872.042 2952.29,872.769 2953.49,873.497 2954.68,874.224 2955.88,874.951 2957.07,875.678 2958.26,876.406 2959.46,877.133 2960.65,877.86 2961.84,878.587 2963.04,879.315 2964.23,880.042 2965.42,880.769 2966.62,881.496 2967.81,882.224 2969,882.951 2970.2,883.678 2971.39,884.405 2972.58,885.133 2973.78,885.86 2974.97,886.587 2976.16,887.314 2977.36,888.042 2978.55,888.769 2979.74,889.496 2980.94,890.223 2982.13,890.951 2983.32,891.678 2984.52,892.405 2985.71,893.132 2986.9,893.86 2988.1,894.587 2989.29,895.314 2990.48,896.041 2991.68,896.769 2992.87,897.496 2994.06,898.223 2995.26,898.95 2996.45,899.678 2997.65,900.405 2998.84,901.132 3000.03,901.859 3001.23,902.587 3002.42,903.314 3003.61,904.041 3004.81,904.768 3006,905.496 3007.19,906.223 3008.39,906.95 3009.58,907.677 3010.77,908.405 3011.97,909.132 3013.16,909.859 3014.35,910.587 3015.55,911.314 3016.74,912.041 3017.93,912.768 3019.13,913.496 3020.32,914.223 3021.51,914.95 3022.71,915.677 3023.9,916.405 3025.09,917.132 3026.29,917.859 3027.48,918.586 3028.67,919.314 3029.87,920.041 3031.06,920.768 3032.25,921.495 3033.45,922.223 3034.64,922.95 3035.84,923.677 3037.03,924.404 3038.22,925.132 3039.42,925.859 3040.61,926.586 3041.8,927.313 3043,928.041 3044.19,928.768 3045.38,929.495 3046.58,930.222 3047.77,930.95 3048.96,931.677 3050.16,932.404 3051.35,933.131 3052.54,933.859 3053.74,934.586 3054.93,935.313 3056.12,936.04 3057.32,936.768 3058.51,937.495 3059.7,938.222 3060.9,938.949 3062.09,939.677 3063.28,940.404 3064.48,941.131 3065.67,941.858 3066.86,942.586 3068.06,943.313 3069.25,944.04 3070.44,944.767 3071.64,945.495 3072.83,946.222 3074.03,946.949 3075.22,947.676 3076.41,948.404 3077.61,949.131 3078.8,949.858 3079.99,950.585 3081.19,951.313 3082.38,952.04 3083.57,952.767 3084.77,953.494 3085.96,954.222 3087.15,954.949 3088.35,955.676 3089.54,956.403 3090.73,957.131 3091.93,957.858 3093.12,958.585 3094.31,959.312 3095.51,960.04 3096.7,960.767 3097.89,961.494 3099.09,962.221 3100.28,962.949 3101.47,963.676 3102.67,964.403 3103.86,965.13 3105.05,965.858 3106.25,966.585 3107.44,967.312 3108.63,968.039 3109.83,968.767 3111.02,969.494 3112.21,970.221 3113.41,970.948 3114.6,971.676 3115.8,972.403 3116.99,973.13 "/>
<polyline clip-path="url(#clip971)" style="stroke:#808080; stroke-linecap:round; stroke-linejoin:round; stroke-width:4; stroke-opacity:1; fill:none" stroke-dasharray="16, 10" points="625.205,231.779 4416.53,231.779 "/>
<polyline clip-path="url(#clip971)" style="stroke:#ff0000; stroke-linecap:round; stroke-linejoin:round; stroke-width:4; stroke-opacity:1; fill:none" stroke-dasharray="2, 4" points="2143.73,1952.95 2143.73,-905.61 "/>
</svg>
