<?xml version="1.0" encoding="utf-8"?>
<svg xmlns="http://www.w3.org/2000/svg" xmlns:xlink="http://www.w3.org/1999/xlink" width="600" height="400" viewBox="0 0 2400 1600">
<defs>
  <clipPath id="clip630">
    <rect x="0" y="0" width="2400" height="1600"/>
  </clipPath>
</defs>
<path clip-path="url(#clip630)" d="M0 1600 L2400 1600 L2400 0 L0 0  Z" fill="#ffffff" fill-rule="evenodd" fill-opacity="1"/>
<defs>
  <clipPath id="clip631">
    <rect x="305" y="47" width="2049" height="1314"/>
  </clipPath>
</defs>
<path clip-path="url(#clip630)" d="M305.127 1360.19 L2352.76 1360.19 L2352.76 47.2441 L305.127 47.2441  Z" fill="#ffffff" fill-rule="evenodd" fill-opacity="1"/>
<polyline clip-path="url(#clip631)" style="stroke:#000000; stroke-linecap:round; stroke-linejoin:round; stroke-width:2; stroke-opacity:0.1; fill:none" points="323.656,1360.19 323.656,47.2441 "/>
<polyline clip-path="url(#clip631)" style="stroke:#000000; stroke-linecap:round; stroke-linejoin:round; stroke-width:2; stroke-opacity:0.1; fill:none" points="765.45,1360.19 765.45,47.2441 "/>
<polyline clip-path="url(#clip631)" style="stroke:#000000; stroke-linecap:round; stroke-linejoin:round; stroke-width:2; stroke-opacity:0.1; fill:none" points="1207.24,1360.19 1207.24,47.2441 "/>
<polyline clip-path="url(#clip631)" style="stroke:#000000; stroke-linecap:round; stroke-linejoin:round; stroke-width:2; stroke-opacity:0.1; fill:none" points="1649.04,1360.19 1649.04,47.2441 "/>
<polyline clip-path="url(#clip631)" style="stroke:#000000; stroke-linecap:round; stroke-linejoin:round; stroke-width:2; stroke-opacity:0.1; fill:none" points="2090.83,1360.19 2090.83,47.2441 "/>
<polyline clip-path="url(#clip631)" style="stroke:#000000; stroke-linecap:round; stroke-linejoin:round; stroke-width:2; stroke-opacity:0.1; fill:none" points="305.127,1165.29 2352.76,1165.29 "/>
<polyline clip-path="url(#clip631)" style="stroke:#000000; stroke-linecap:round; stroke-linejoin:round; stroke-width:2; stroke-opacity:0.1; fill:none" points="305.127,921.826 2352.76,921.826 "/>
<polyline clip-path="url(#clip631)" style="stroke:#000000; stroke-linecap:round; stroke-linejoin:round; stroke-width:2; stroke-opacity:0.1; fill:none" points="305.127,678.359 2352.76,678.359 "/>
<polyline clip-path="url(#clip631)" style="stroke:#000000; stroke-linecap:round; stroke-linejoin:round; stroke-width:2; stroke-opacity:0.1; fill:none" points="305.127,434.892 2352.76,434.892 "/>
<polyline clip-path="url(#clip631)" style="stroke:#000000; stroke-linecap:round; stroke-linejoin:round; stroke-width:2; stroke-opacity:0.1; fill:none" points="305.127,191.425 2352.76,191.425 "/>
<polyline clip-path="url(#clip630)" style="stroke:#000000; stroke-linecap:round; stroke-linejoin:round; stroke-width:4; stroke-opacity:1; fill:none" points="305.127,1360.19 2352.76,1360.19 "/>
<polyline clip-path="url(#clip630)" style="stroke:#000000; stroke-linecap:round; stroke-linejoin:round; stroke-width:4; stroke-opacity:1; fill:none" points="323.656,1360.19 323.656,1341.29 "/>
<polyline clip-path="url(#clip630)" style="stroke:#000000; stroke-linecap:round; stroke-linejoin:round; stroke-width:4; stroke-opacity:1; fill:none" points="765.45,1360.19 765.45,1341.29 "/>
<polyline clip-path="url(#clip630)" style="stroke:#000000; stroke-linecap:round; stroke-linejoin:round; stroke-width:4; stroke-opacity:1; fill:none" points="1207.24,1360.19 1207.24,1341.29 "/>
<polyline clip-path="url(#clip630)" style="stroke:#000000; stroke-linecap:round; stroke-linejoin:round; stroke-width:4; stroke-opacity:1; fill:none" points="1649.04,1360.19 1649.04,1341.29 "/>
<polyline clip-path="url(#clip630)" style="stroke:#000000; stroke-linecap:round; stroke-linejoin:round; stroke-width:4; stroke-opacity:1; fill:none" points="2090.83,1360.19 2090.83,1341.29 "/>
<path clip-path="url(#clip630)" d="M323.656 1391.11 Q320.044 1391.11 318.216 1394.67 Q316.41 1398.21 316.41 1405.34 Q316.41 1412.45 318.216 1416.01 Q320.044 1419.56 323.656 1419.56 Q327.29 1419.56 329.095 1416.01 Q330.924 1412.45 330.924 1405.34 Q330.924 1398.21 329.095 1394.67 Q327.29 1391.11 323.656 1391.11 M323.656 1387.4 Q329.466 1387.4 332.521 1392.01 Q335.6 1396.59 335.6 1405.34 Q335.6 1414.07 332.521 1418.68 Q329.466 1423.26 323.656 1423.26 Q317.845 1423.26 314.767 1418.68 Q311.711 1414.07 311.711 1405.34 Q311.711 1396.59 314.767 1392.01 Q317.845 1387.4 323.656 1387.4 Z" fill="#000000" fill-rule="nonzero" fill-opacity="1" /><path clip-path="url(#clip630)" d="M760.103 1418.65 L776.422 1418.65 L776.422 1422.59 L754.478 1422.59 L754.478 1418.65 Q757.14 1415.9 761.723 1411.27 Q766.33 1406.62 767.51 1405.27 Q769.756 1402.75 770.635 1401.01 Q771.538 1399.25 771.538 1397.56 Q771.538 1394.81 769.594 1393.07 Q767.672 1391.34 764.571 1391.34 Q762.372 1391.34 759.918 1392.1 Q757.487 1392.87 754.71 1394.42 L754.71 1389.69 Q757.534 1388.56 759.987 1387.98 Q762.441 1387.4 764.478 1387.4 Q769.848 1387.4 773.043 1390.09 Q776.237 1392.77 776.237 1397.26 Q776.237 1399.39 775.427 1401.31 Q774.64 1403.21 772.533 1405.81 Q771.955 1406.48 768.853 1409.69 Q765.751 1412.89 760.103 1418.65 Z" fill="#000000" fill-rule="nonzero" fill-opacity="1" /><path clip-path="url(#clip630)" d="M1210.25 1392.1 L1198.45 1410.55 L1210.25 1410.55 L1210.25 1392.1 M1209.03 1388.03 L1214.91 1388.03 L1214.91 1410.55 L1219.84 1410.55 L1219.84 1414.44 L1214.91 1414.44 L1214.91 1422.59 L1210.25 1422.59 L1210.25 1414.44 L1194.65 1414.44 L1194.65 1409.93 L1209.03 1388.03 Z" fill="#000000" fill-rule="nonzero" fill-opacity="1" /><path clip-path="url(#clip630)" d="M1649.44 1403.44 Q1646.3 1403.44 1644.44 1405.6 Q1642.62 1407.75 1642.62 1411.5 Q1642.62 1415.23 1644.44 1417.4 Q1646.3 1419.56 1649.44 1419.56 Q1652.59 1419.56 1654.42 1417.4 Q1656.27 1415.23 1656.27 1411.5 Q1656.27 1407.75 1654.42 1405.6 Q1652.59 1403.44 1649.44 1403.44 M1658.73 1388.79 L1658.73 1393.05 Q1656.97 1392.22 1655.16 1391.78 Q1653.38 1391.34 1651.62 1391.34 Q1646.99 1391.34 1644.54 1394.46 Q1642.11 1397.59 1641.76 1403.91 Q1643.13 1401.89 1645.19 1400.83 Q1647.25 1399.74 1649.72 1399.74 Q1654.93 1399.74 1657.94 1402.91 Q1660.97 1406.06 1660.97 1411.5 Q1660.97 1416.82 1657.82 1420.04 Q1654.68 1423.26 1649.44 1423.26 Q1643.45 1423.26 1640.28 1418.68 Q1637.11 1414.07 1637.11 1405.34 Q1637.11 1397.15 1641 1392.29 Q1644.88 1387.4 1651.44 1387.4 Q1653.19 1387.4 1654.98 1387.75 Q1656.78 1388.1 1658.73 1388.79 Z" fill="#000000" fill-rule="nonzero" fill-opacity="1" /><path clip-path="url(#clip630)" d="M2090.83 1406.18 Q2087.5 1406.18 2085.58 1407.96 Q2083.68 1409.74 2083.68 1412.87 Q2083.68 1415.99 2085.58 1417.77 Q2087.5 1419.56 2090.83 1419.56 Q2094.17 1419.56 2096.09 1417.77 Q2098.01 1415.97 2098.01 1412.87 Q2098.01 1409.74 2096.09 1407.96 Q2094.19 1406.18 2090.83 1406.18 M2086.16 1404.19 Q2083.15 1403.44 2081.46 1401.38 Q2079.79 1399.32 2079.79 1396.36 Q2079.79 1392.22 2082.73 1389.81 Q2085.7 1387.4 2090.83 1387.4 Q2096 1387.4 2098.94 1389.81 Q2101.88 1392.22 2101.88 1396.36 Q2101.88 1399.32 2100.19 1401.38 Q2098.52 1403.44 2095.53 1404.19 Q2098.91 1404.97 2100.79 1407.26 Q2102.69 1409.56 2102.69 1412.87 Q2102.69 1417.89 2099.61 1420.57 Q2096.55 1423.26 2090.83 1423.26 Q2085.12 1423.26 2082.04 1420.57 Q2078.98 1417.89 2078.98 1412.87 Q2078.98 1409.56 2080.88 1407.26 Q2082.78 1404.97 2086.16 1404.19 M2084.45 1396.8 Q2084.45 1399.49 2086.11 1400.99 Q2087.8 1402.5 2090.83 1402.5 Q2093.84 1402.5 2095.53 1400.99 Q2097.25 1399.49 2097.25 1396.8 Q2097.25 1394.12 2095.53 1392.61 Q2093.84 1391.11 2090.83 1391.11 Q2087.8 1391.11 2086.11 1392.61 Q2084.45 1394.12 2084.45 1396.8 Z" fill="#000000" fill-rule="nonzero" fill-opacity="1" /><path clip-path="url(#clip630)" d="M1220.36 1470.77 L1220.36 1476.25 Q1217.88 1474.88 1215.36 1474.21 Q1212.88 1473.51 1210.33 1473.51 Q1204.64 1473.51 1201.48 1477.14 Q1198.33 1480.73 1198.33 1487.26 Q1198.33 1493.78 1201.48 1497.41 Q1204.64 1501.01 1210.33 1501.01 Q1212.88 1501.01 1215.36 1500.34 Q1217.88 1499.64 1220.36 1498.27 L1220.36 1503.68 Q1217.91 1504.83 1215.27 1505.4 Q1212.66 1505.97 1209.7 1505.97 Q1201.64 1505.97 1196.9 1500.91 Q1192.16 1495.85 1192.16 1487.26 Q1192.16 1478.54 1196.93 1473.54 Q1201.74 1468.54 1210.08 1468.54 Q1212.78 1468.54 1215.36 1469.12 Q1217.94 1469.66 1220.36 1470.77 Z" fill="#000000" fill-rule="nonzero" fill-opacity="1" /><path clip-path="url(#clip630)" d="M1246.74 1487.13 Q1239.65 1487.13 1236.91 1488.76 Q1234.17 1490.38 1234.17 1494.29 Q1234.17 1497.41 1236.21 1499.26 Q1238.28 1501.07 1241.81 1501.07 Q1246.68 1501.07 1249.61 1497.64 Q1252.57 1494.17 1252.57 1488.44 L1252.57 1487.13 L1246.74 1487.13 M1258.43 1484.71 L1258.43 1505.05 L1252.57 1505.05 L1252.57 1499.64 Q1250.56 1502.89 1247.57 1504.45 Q1244.58 1505.97 1240.25 1505.97 Q1234.78 1505.97 1231.53 1502.92 Q1228.32 1499.83 1228.32 1494.68 Q1228.32 1488.66 1232.33 1485.6 Q1236.37 1482.55 1244.36 1482.55 L1252.57 1482.55 L1252.57 1481.98 Q1252.57 1477.93 1249.9 1475.74 Q1247.25 1473.51 1242.45 1473.51 Q1239.39 1473.51 1236.5 1474.24 Q1233.6 1474.97 1230.93 1476.44 L1230.93 1471.03 Q1234.14 1469.79 1237.16 1469.18 Q1240.19 1468.54 1243.05 1468.54 Q1250.79 1468.54 1254.61 1472.55 Q1258.43 1476.57 1258.43 1484.71 Z" fill="#000000" fill-rule="nonzero" fill-opacity="1" /><path clip-path="url(#clip630)" d="M1276.15 1499.7 L1276.15 1518.61 L1270.27 1518.61 L1270.27 1469.4 L1276.15 1469.4 L1276.15 1474.81 Q1278 1471.63 1280.8 1470.1 Q1283.63 1468.54 1287.55 1468.54 Q1294.04 1468.54 1298.08 1473.7 Q1302.16 1478.86 1302.16 1487.26 Q1302.16 1495.66 1298.08 1500.82 Q1294.04 1505.97 1287.55 1505.97 Q1283.63 1505.97 1280.8 1504.45 Q1278 1502.89 1276.15 1499.7 M1296.08 1487.26 Q1296.08 1480.8 1293.4 1477.14 Q1290.76 1473.45 1286.12 1473.45 Q1281.47 1473.45 1278.8 1477.14 Q1276.15 1480.8 1276.15 1487.26 Q1276.15 1493.72 1278.8 1497.41 Q1281.47 1501.07 1286.12 1501.07 Q1290.76 1501.07 1293.4 1497.41 Q1296.08 1493.72 1296.08 1487.26 Z" fill="#000000" fill-rule="nonzero" fill-opacity="1" /><path clip-path="url(#clip630)" d="M1311.87 1469.4 L1317.72 1469.4 L1317.72 1505.05 L1311.87 1505.05 L1311.87 1469.4 M1311.87 1455.53 L1317.72 1455.53 L1317.72 1462.94 L1311.87 1462.94 L1311.87 1455.53 Z" fill="#000000" fill-rule="nonzero" fill-opacity="1" /><path clip-path="url(#clip630)" d="M1335.77 1459.28 L1335.77 1469.4 L1347.83 1469.4 L1347.83 1473.96 L1335.77 1473.96 L1335.77 1493.31 Q1335.77 1497.67 1336.95 1498.91 Q1338.16 1500.15 1341.82 1500.15 L1347.83 1500.15 L1347.83 1505.05 L1341.82 1505.05 Q1335.04 1505.05 1332.46 1502.54 Q1329.88 1499.99 1329.88 1493.31 L1329.88 1473.96 L1325.58 1473.96 L1325.58 1469.4 L1329.88 1469.4 L1329.88 1459.28 L1335.77 1459.28 Z" fill="#000000" fill-rule="nonzero" fill-opacity="1" /><path clip-path="url(#clip630)" d="M1371.73 1487.13 Q1364.64 1487.13 1361.9 1488.76 Q1359.16 1490.38 1359.16 1494.29 Q1359.16 1497.41 1361.2 1499.26 Q1363.27 1501.07 1366.8 1501.07 Q1371.67 1501.07 1374.6 1497.64 Q1377.56 1494.17 1377.56 1488.44 L1377.56 1487.13 L1371.73 1487.13 M1383.42 1484.71 L1383.42 1505.05 L1377.56 1505.05 L1377.56 1499.64 Q1375.55 1502.89 1372.56 1504.45 Q1369.57 1505.97 1365.24 1505.97 Q1359.77 1505.97 1356.52 1502.92 Q1353.31 1499.83 1353.31 1494.68 Q1353.31 1488.66 1357.32 1485.6 Q1361.36 1482.55 1369.35 1482.55 L1377.56 1482.55 L1377.56 1481.98 Q1377.56 1477.93 1374.89 1475.74 Q1372.24 1473.51 1367.44 1473.51 Q1364.38 1473.51 1361.49 1474.24 Q1358.59 1474.97 1355.92 1476.44 L1355.92 1471.03 Q1359.13 1469.79 1362.15 1469.18 Q1365.18 1468.54 1368.04 1468.54 Q1375.78 1468.54 1379.6 1472.55 Q1383.42 1476.57 1383.42 1484.71 Z" fill="#000000" fill-rule="nonzero" fill-opacity="1" /><path clip-path="url(#clip630)" d="M1395.48 1455.53 L1401.34 1455.53 L1401.34 1505.05 L1395.48 1505.05 L1395.48 1455.53 Z" fill="#000000" fill-rule="nonzero" fill-opacity="1" /><path clip-path="url(#clip630)" d="M1434.09 1455.53 L1439.98 1455.53 L1439.98 1484.78 L1457.45 1469.4 L1464.93 1469.4 L1446.02 1486.08 L1465.72 1505.05 L1458.09 1505.05 L1439.98 1487.64 L1439.98 1505.05 L1434.09 1505.05 L1434.09 1455.53 Z" fill="#000000" fill-rule="nonzero" fill-opacity="1" /><polyline clip-path="url(#clip630)" style="stroke:#000000; stroke-linecap:round; stroke-linejoin:round; stroke-width:4; stroke-opacity:1; fill:none" points="305.127,1360.19 305.127,47.2441 "/>
<polyline clip-path="url(#clip630)" style="stroke:#000000; stroke-linecap:round; stroke-linejoin:round; stroke-width:4; stroke-opacity:1; fill:none" points="305.127,1165.29 324.024,1165.29 "/>
<polyline clip-path="url(#clip630)" style="stroke:#000000; stroke-linecap:round; stroke-linejoin:round; stroke-width:4; stroke-opacity:1; fill:none" points="305.127,921.826 324.024,921.826 "/>
<polyline clip-path="url(#clip630)" style="stroke:#000000; stroke-linecap:round; stroke-linejoin:round; stroke-width:4; stroke-opacity:1; fill:none" points="305.127,678.359 324.024,678.359 "/>
<polyline clip-path="url(#clip630)" style="stroke:#000000; stroke-linecap:round; stroke-linejoin:round; stroke-width:4; stroke-opacity:1; fill:none" points="305.127,434.892 324.024,434.892 "/>
<polyline clip-path="url(#clip630)" style="stroke:#000000; stroke-linecap:round; stroke-linejoin:round; stroke-width:4; stroke-opacity:1; fill:none" points="305.127,191.425 324.024,191.425 "/>
<path clip-path="url(#clip630)" d="M177.252 1165.74 L206.928 1165.74 L206.928 1169.68 L177.252 1169.68 L177.252 1165.74 Z" fill="#000000" fill-rule="nonzero" fill-opacity="1" /><path clip-path="url(#clip630)" d="M217.067 1148.01 L235.423 1148.01 L235.423 1151.95 L221.349 1151.95 L221.349 1160.42 Q222.368 1160.07 223.386 1159.91 Q224.405 1159.73 225.423 1159.73 Q231.21 1159.73 234.59 1162.9 Q237.97 1166.07 237.97 1171.48 Q237.97 1177.06 234.497 1180.17 Q231.025 1183.24 224.706 1183.24 Q222.53 1183.24 220.261 1182.87 Q218.016 1182.5 215.609 1181.76 L215.609 1177.06 Q217.692 1178.2 219.914 1178.75 Q222.136 1179.31 224.613 1179.31 Q228.618 1179.31 230.956 1177.2 Q233.294 1175.1 233.294 1171.48 Q233.294 1167.87 230.956 1165.77 Q228.618 1163.66 224.613 1163.66 Q222.738 1163.66 220.863 1164.08 Q219.011 1164.49 217.067 1165.37 L217.067 1148.01 Z" fill="#000000" fill-rule="nonzero" fill-opacity="1" /><path clip-path="url(#clip630)" d="M257.182 1151.09 Q253.571 1151.09 251.743 1154.66 Q249.937 1158.2 249.937 1165.33 Q249.937 1172.43 251.743 1176 Q253.571 1179.54 257.182 1179.54 Q260.817 1179.54 262.622 1176 Q264.451 1172.43 264.451 1165.33 Q264.451 1158.2 262.622 1154.66 Q260.817 1151.09 257.182 1151.09 M257.182 1147.39 Q262.993 1147.39 266.048 1151.99 Q269.127 1156.58 269.127 1165.33 Q269.127 1174.05 266.048 1178.66 Q262.993 1183.24 257.182 1183.24 Q251.372 1183.24 248.294 1178.66 Q245.238 1174.05 245.238 1165.33 Q245.238 1156.58 248.294 1151.99 Q251.372 1147.39 257.182 1147.39 Z" fill="#000000" fill-rule="nonzero" fill-opacity="1" /><path clip-path="url(#clip630)" d="M178.248 922.277 L207.923 922.277 L207.923 926.212 L178.248 926.212 L178.248 922.277 Z" fill="#000000" fill-rule="nonzero" fill-opacity="1" /><path clip-path="url(#clip630)" d="M230.863 908.62 L219.058 927.069 L230.863 927.069 L230.863 908.62 M229.636 904.546 L235.516 904.546 L235.516 927.069 L240.446 927.069 L240.446 930.958 L235.516 930.958 L235.516 939.106 L230.863 939.106 L230.863 930.958 L215.261 930.958 L215.261 926.444 L229.636 904.546 Z" fill="#000000" fill-rule="nonzero" fill-opacity="1" /><path clip-path="url(#clip630)" d="M248.224 904.546 L266.581 904.546 L266.581 908.481 L252.507 908.481 L252.507 916.953 Q253.525 916.606 254.544 916.444 Q255.562 916.259 256.581 916.259 Q262.368 916.259 265.747 919.43 Q269.127 922.601 269.127 928.018 Q269.127 933.596 265.655 936.698 Q262.182 939.777 255.863 939.777 Q253.687 939.777 251.419 939.407 Q249.173 939.036 246.766 938.295 L246.766 933.596 Q248.849 934.731 251.071 935.286 Q253.294 935.842 255.77 935.842 Q259.775 935.842 262.113 933.735 Q264.451 931.629 264.451 928.018 Q264.451 924.407 262.113 922.3 Q259.775 920.194 255.77 920.194 Q253.895 920.194 252.02 920.61 Q250.169 921.027 248.224 921.907 L248.224 904.546 Z" fill="#000000" fill-rule="nonzero" fill-opacity="1" /><path clip-path="url(#clip630)" d="M177.252 678.81 L206.928 678.81 L206.928 682.745 L177.252 682.745 L177.252 678.81 Z" fill="#000000" fill-rule="nonzero" fill-opacity="1" /><path clip-path="url(#clip630)" d="M229.868 665.153 L218.062 683.602 L229.868 683.602 L229.868 665.153 M228.641 661.079 L234.52 661.079 L234.52 683.602 L239.451 683.602 L239.451 687.491 L234.52 687.491 L234.52 695.639 L229.868 695.639 L229.868 687.491 L214.266 687.491 L214.266 682.977 L228.641 661.079 Z" fill="#000000" fill-rule="nonzero" fill-opacity="1" /><path clip-path="url(#clip630)" d="M257.182 664.157 Q253.571 664.157 251.743 667.722 Q249.937 671.264 249.937 678.393 Q249.937 685.5 251.743 689.065 Q253.571 692.606 257.182 692.606 Q260.817 692.606 262.622 689.065 Q264.451 685.5 264.451 678.393 Q264.451 671.264 262.622 667.722 Q260.817 664.157 257.182 664.157 M257.182 660.454 Q262.993 660.454 266.048 665.06 Q269.127 669.643 269.127 678.393 Q269.127 687.12 266.048 691.727 Q262.993 696.31 257.182 696.31 Q251.372 696.31 248.294 691.727 Q245.238 687.12 245.238 678.393 Q245.238 669.643 248.294 665.06 Q251.372 660.454 257.182 660.454 Z" fill="#000000" fill-rule="nonzero" fill-opacity="1" /><path clip-path="url(#clip630)" d="M178.248 435.343 L207.923 435.343 L207.923 439.278 L178.248 439.278 L178.248 435.343 Z" fill="#000000" fill-rule="nonzero" fill-opacity="1" /><path clip-path="url(#clip630)" d="M232.183 433.537 Q235.539 434.255 237.414 436.524 Q239.312 438.792 239.312 442.125 Q239.312 447.241 235.794 450.042 Q232.275 452.843 225.794 452.843 Q223.618 452.843 221.303 452.403 Q219.011 451.986 216.558 451.13 L216.558 446.616 Q218.502 447.75 220.817 448.329 Q223.132 448.908 225.655 448.908 Q230.053 448.908 232.345 447.172 Q234.659 445.436 234.659 442.125 Q234.659 439.07 232.507 437.357 Q230.377 435.621 226.558 435.621 L222.53 435.621 L222.53 431.778 L226.743 431.778 Q230.192 431.778 232.021 430.412 Q233.849 429.024 233.849 426.431 Q233.849 423.769 231.951 422.357 Q230.076 420.922 226.558 420.922 Q224.636 420.922 222.437 421.338 Q220.238 421.755 217.599 422.635 L217.599 418.468 Q220.261 417.727 222.576 417.357 Q224.914 416.987 226.974 416.987 Q232.298 416.987 235.4 419.417 Q238.502 421.825 238.502 425.945 Q238.502 428.815 236.858 430.806 Q235.215 432.774 232.183 433.537 Z" fill="#000000" fill-rule="nonzero" fill-opacity="1" /><path clip-path="url(#clip630)" d="M248.224 417.612 L266.581 417.612 L266.581 421.547 L252.507 421.547 L252.507 430.019 Q253.525 429.672 254.544 429.51 Q255.562 429.324 256.581 429.324 Q262.368 429.324 265.747 432.496 Q269.127 435.667 269.127 441.084 Q269.127 446.662 265.655 449.764 Q262.182 452.843 255.863 452.843 Q253.687 452.843 251.419 452.473 Q249.173 452.102 246.766 451.361 L246.766 446.662 Q248.849 447.797 251.071 448.352 Q253.294 448.908 255.77 448.908 Q259.775 448.908 262.113 446.801 Q264.451 444.695 264.451 441.084 Q264.451 437.473 262.113 435.366 Q259.775 433.26 255.77 433.26 Q253.895 433.26 252.02 433.676 Q250.169 434.093 248.224 434.973 L248.224 417.612 Z" fill="#000000" fill-rule="nonzero" fill-opacity="1" /><path clip-path="url(#clip630)" d="M177.252 191.876 L206.928 191.876 L206.928 195.811 L177.252 195.811 L177.252 191.876 Z" fill="#000000" fill-rule="nonzero" fill-opacity="1" /><path clip-path="url(#clip630)" d="M231.187 190.07 Q234.544 190.788 236.419 193.056 Q238.317 195.325 238.317 198.658 Q238.317 203.774 234.798 206.575 Q231.28 209.376 224.798 209.376 Q222.622 209.376 220.308 208.936 Q218.016 208.519 215.562 207.663 L215.562 203.149 Q217.507 204.283 219.821 204.862 Q222.136 205.441 224.659 205.441 Q229.058 205.441 231.349 203.705 Q233.664 201.968 233.664 198.658 Q233.664 195.603 231.511 193.89 Q229.382 192.154 225.562 192.154 L221.534 192.154 L221.534 188.311 L225.747 188.311 Q229.196 188.311 231.025 186.945 Q232.854 185.557 232.854 182.964 Q232.854 180.302 230.956 178.89 Q229.081 177.455 225.562 177.455 Q223.641 177.455 221.442 177.871 Q219.243 178.288 216.604 179.168 L216.604 175.001 Q219.266 174.26 221.581 173.89 Q223.919 173.52 225.979 173.52 Q231.303 173.52 234.405 175.95 Q237.507 178.357 237.507 182.478 Q237.507 185.348 235.863 187.339 Q234.22 189.307 231.187 190.07 Z" fill="#000000" fill-rule="nonzero" fill-opacity="1" /><path clip-path="url(#clip630)" d="M257.182 177.223 Q253.571 177.223 251.743 180.788 Q249.937 184.33 249.937 191.459 Q249.937 198.566 251.743 202.131 Q253.571 205.672 257.182 205.672 Q260.817 205.672 262.622 202.131 Q264.451 198.566 264.451 191.459 Q264.451 184.33 262.622 180.788 Q260.817 177.223 257.182 177.223 M257.182 173.52 Q262.993 173.52 266.048 178.126 Q269.127 182.709 269.127 191.459 Q269.127 200.186 266.048 204.793 Q262.993 209.376 257.182 209.376 Q251.372 209.376 248.294 204.793 Q245.238 200.186 245.238 191.459 Q245.238 182.709 248.294 178.126 Q251.372 173.52 257.182 173.52 Z" fill="#000000" fill-rule="nonzero" fill-opacity="1" /><path clip-path="url(#clip630)" d="M91.3483 862.922 L91.3483 856.716 L121.267 845.576 L91.3483 834.436 L91.3483 828.229 L126.996 841.597 L126.996 849.554 L91.3483 862.922 Z" fill="#000000" fill-rule="nonzero" fill-opacity="1" /><path clip-path="url(#clip630)" d="M109.077 803.944 Q109.077 811.042 110.7 813.779 Q112.323 816.516 116.238 816.516 Q119.357 816.516 121.203 814.479 Q123.018 812.41 123.018 808.877 Q123.018 804.008 119.58 801.079 Q116.111 798.119 110.382 798.119 L109.077 798.119 L109.077 803.944 M106.658 792.263 L126.996 792.263 L126.996 798.119 L121.585 798.119 Q124.832 800.125 126.392 803.116 Q127.919 806.108 127.919 810.437 Q127.919 815.911 124.864 819.158 Q121.776 822.373 116.62 822.373 Q110.605 822.373 107.549 818.362 Q104.494 814.32 104.494 806.331 L104.494 798.119 L103.921 798.119 Q99.8784 798.119 97.6822 800.793 Q95.4542 803.435 95.4542 808.241 Q95.4542 811.296 96.1863 814.193 Q96.9183 817.089 98.3824 819.763 L92.9716 819.763 Q91.7303 816.548 91.1255 813.524 Q90.489 810.501 90.489 807.636 Q90.489 799.902 94.4994 796.082 Q98.5097 792.263 106.658 792.263 Z" fill="#000000" fill-rule="nonzero" fill-opacity="1" /><path clip-path="url(#clip630)" d="M77.4711 780.2 L77.4711 774.343 L126.996 774.343 L126.996 780.2 L77.4711 780.2 Z" fill="#000000" fill-rule="nonzero" fill-opacity="1" /><path clip-path="url(#clip630)" d="M112.928 762.694 L91.3483 762.694 L91.3483 756.838 L112.705 756.838 Q117.766 756.838 120.312 754.864 Q122.827 752.891 122.827 748.944 Q122.827 744.202 119.803 741.465 Q116.779 738.695 111.559 738.695 L91.3483 738.695 L91.3483 732.839 L126.996 732.839 L126.996 738.695 L121.522 738.695 Q124.768 740.828 126.36 743.661 Q127.919 746.462 127.919 750.186 Q127.919 756.328 124.1 759.511 Q120.28 762.694 112.928 762.694 M90.489 747.958 L90.489 747.958 Z" fill="#000000" fill-rule="nonzero" fill-opacity="1" /><path clip-path="url(#clip630)" d="M107.708 690.284 L110.573 690.284 L110.573 717.211 Q116.62 716.829 119.803 713.583 Q122.954 710.304 122.954 704.48 Q122.954 701.106 122.127 697.955 Q121.299 694.772 119.644 691.653 L125.182 691.653 Q126.519 694.804 127.219 698.114 Q127.919 701.424 127.919 704.83 Q127.919 713.36 122.954 718.357 Q117.989 723.322 109.522 723.322 Q100.77 723.322 95.6452 718.612 Q90.489 713.869 90.489 705.848 Q90.489 698.655 95.1359 694.486 Q99.7511 690.284 107.708 690.284 M105.989 696.141 Q101.183 696.204 98.3188 698.846 Q95.4542 701.456 95.4542 705.785 Q95.4542 710.686 98.2233 713.646 Q100.992 716.575 106.021 717.02 L105.989 696.141 Z" fill="#000000" fill-rule="nonzero" fill-opacity="1" /><path clip-path="url(#clip630)" d="M91.3483 664.153 L91.3483 657.946 L121.267 646.806 L91.3483 635.667 L91.3483 629.46 L126.996 642.828 L126.996 650.785 L91.3483 664.153 Z" fill="#000000" fill-rule="nonzero" fill-opacity="1" /><path clip-path="url(#clip630)" d="M77.5347 607.307 Q84.8553 611.572 92.0167 613.641 Q99.1781 615.71 106.531 615.71 Q113.883 615.71 121.108 613.641 Q128.301 611.54 135.59 607.307 L135.59 612.4 Q128.11 617.174 120.885 619.561 Q113.66 621.917 106.531 621.917 Q99.4328 621.917 92.2395 619.561 Q85.0463 617.206 77.5347 612.4 L77.5347 607.307 Z" fill="#000000" fill-rule="nonzero" fill-opacity="1" /><path clip-path="url(#clip630)" d="M77.4711 596.167 L77.4711 590.279 L106.722 590.279 L91.3483 572.805 L91.3483 565.325 L108.026 584.232 L126.996 564.53 L126.996 572.169 L109.586 590.279 L126.996 590.279 L126.996 596.167 L77.4711 596.167 Z" fill="#000000" fill-rule="nonzero" fill-opacity="1" /><path clip-path="url(#clip630)" d="M77.5347 559.119 L77.5347 554.026 Q85.0463 549.252 92.2395 546.897 Q99.4328 544.51 106.531 544.51 Q113.66 544.51 120.885 546.897 Q128.11 549.252 135.59 554.026 L135.59 559.119 Q128.301 554.886 121.108 552.817 Q113.883 550.716 106.531 550.716 Q99.1781 550.716 92.0167 552.817 Q84.8553 554.886 77.5347 559.119 Z" fill="#000000" fill-rule="nonzero" fill-opacity="1" /><polyline clip-path="url(#clip631)" style="stroke:#009af9; stroke-linecap:round; stroke-linejoin:round; stroke-width:4; stroke-opacity:1; fill:none" points="363.079,1323.03 365.012,1311.87 366.946,1301.12 368.88,1290.73 370.813,1280.69 372.747,1270.96 374.681,1261.53 376.614,1252.38 378.548,1243.49 380.481,1234.84 382.415,1226.43 384.349,1218.23 386.282,1210.23 388.216,1202.43 390.15,1194.82 392.083,1187.38 394.017,1180.1 395.951,1172.98 397.884,1166.02 399.818,1159.2 401.752,1152.51 403.685,1145.96 405.619,1139.54 407.553,1133.23 409.486,1127.04 411.42,1120.97 413.354,1115 415.287,1109.14 417.221,1103.37 419.155,1097.7 421.088,1092.13 423.022,1086.64 424.956,1081.24 426.889,1075.93 428.823,1070.69 430.757,1065.54 432.69,1060.46 434.624,1055.45 436.558,1050.51 438.491,1045.65 440.425,1040.85 442.359,1036.11 444.292,1031.44 446.226,1026.83 448.16,1022.28 450.093,1017.79 452.027,1013.36 453.961,1008.98 455.894,1004.65 457.828,1000.38 459.762,996.154 461.695,991.981 463.629,987.857 465.562,983.78 467.496,979.749 469.43,975.764 471.363,971.822 473.297,967.923 475.231,964.067 477.164,960.251 479.098,956.476 481.032,952.74 482.965,949.043 484.899,945.383 486.833,941.76 488.766,938.174 490.7,934.622 492.634,931.105 494.567,927.622 496.501,924.172 498.435,920.755 500.368,917.37 502.302,914.016 504.236,910.693 506.169,907.4 508.103,904.136 510.037,900.902 511.97,897.696 513.904,894.517 515.838,891.367 517.771,888.243 519.705,885.146 521.639,882.075 523.572,879.029 525.506,876.009 527.44,873.013 529.373,870.042 531.307,867.094 533.241,864.17 535.174,861.269 537.108,858.391 539.042,855.535 540.975,852.702 542.909,849.889 544.843,847.099 546.776,844.329 548.71,841.58 550.644,838.851 552.577,836.142 554.511,833.453 556.444,830.783 558.378,828.133 560.312,825.501 562.245,822.888 564.179,820.293 566.113,817.717 568.046,815.158 569.98,812.616 571.914,810.092 573.847,807.585 575.781,805.095 577.715,802.622 579.648,800.165 581.582,797.724 583.516,795.299 585.449,792.889 587.383,790.495 589.317,788.117 591.25,785.753 593.184,783.405 595.118,781.071 597.051,778.752 598.985,776.447 600.919,774.156 602.852,771.879 604.786,769.616 606.72,767.367 608.653,765.131 610.587,762.909 612.521,760.699 614.454,758.503 616.388,756.319 618.322,754.149 620.255,751.99 622.189,749.844 624.123,747.711 626.056,745.589 627.99,743.479 629.924,741.382 631.857,739.295 633.791,737.221 635.725,735.158 637.658,733.106 639.592,731.065 641.525,729.036 643.459,727.017 645.393,725.009 647.326,723.012 649.26,721.025 651.194,719.049 653.127,717.083 655.061,715.128 656.995,713.182 658.928,711.247 660.862,709.322 662.796,707.406 664.729,705.5 666.663,703.604 668.597,701.717 670.53,699.84 672.464,697.972 674.398,696.113 676.331,694.263 678.265,692.423 680.199,690.591 682.132,688.768 684.066,686.954 686,685.149 687.933,683.353 689.867,681.564 691.801,679.785 693.734,678.014 695.668,676.251 697.602,674.496 699.535,672.749 701.469,671.011 703.403,669.28 705.336,667.558 707.27,665.843 709.204,664.136 711.137,662.436 713.071,660.745 715.005,659.061 716.938,657.384 718.872,655.717 720.806,654.06 722.739,652.41 724.673,650.767 726.606,649.131 728.54,647.502 730.474,645.88 732.407,644.265 734.341,642.657 736.275,641.056 738.208,639.462 740.142,637.874 742.076,636.293 744.009,634.718 745.943,633.15 747.877,631.589 749.81,630.034 751.744,628.485 753.678,626.943 755.611,625.407 757.545,623.877 759.479,622.353 761.412,620.836 763.346,619.324 765.28,617.819 767.213,616.319 769.147,614.826 771.081,613.338 773.014,611.856 774.948,610.38 776.882,608.91 778.815,607.445 780.749,605.986 782.683,604.533 784.616,603.085 786.55,601.643 788.484,600.206 790.417,598.775 792.351,597.349 794.285,595.929 796.218,594.513 798.152,593.103 800.086,591.699 802.019,590.299 803.953,588.905 805.887,587.515 807.82,586.131 809.754,584.752 811.688,583.378 813.621,582.009 815.555,580.645 817.488,579.286 819.422,577.931 821.356,576.582 823.289,575.237 825.223,573.897 827.157,572.562 829.09,571.231 831.024,569.905 832.958,568.584 834.891,567.268 836.825,565.955 838.759,564.648 840.692,563.345 842.626,562.046 844.56,560.752 846.493,559.463 848.427,558.177 850.361,556.896 852.294,555.62 854.228,554.348 856.162,553.08 858.095,551.816 860.029,550.556 861.963,549.301 863.896,548.05 865.83,546.803 867.764,545.56 869.697,544.321 871.631,543.086 873.565,541.855 875.498,540.628 877.432,539.405 879.366,538.186 881.299,536.971 883.233,535.76 885.167,534.553 887.1,533.35 889.034,532.15 890.968,530.954 892.901,529.762 894.835,528.574 896.769,527.39 898.702,526.209 900.636,525.032 902.569,523.858 904.503,522.689 906.437,521.522 908.37,520.36 910.304,519.201 912.238,518.045 914.171,516.893 916.105,515.745 918.039,514.6 919.972,513.459 921.906,512.321 923.84,511.186 925.773,510.055 927.707,508.927 929.641,507.802 931.574,506.681 933.508,505.564 935.442,504.449 937.375,503.338 939.309,502.23 941.243,501.125 943.176,500.024 945.11,498.925 947.044,497.83 948.977,496.739 950.911,495.65 952.845,494.564 954.778,493.482 956.712,492.402 958.646,491.326 960.579,490.253 962.513,489.183 964.447,488.115 966.38,487.051 968.314,485.99 970.248,484.932 972.181,483.877 974.115,482.825 976.049,481.775 977.982,480.729 979.916,479.686 981.85,478.645 983.783,477.607 985.717,476.572 987.65,475.54 989.584,474.511 991.518,473.485 993.451,472.461 995.385,471.44 997.319,470.422 999.252,469.407 1001.19,468.394 1003.12,467.384 1005.05,466.377 1006.99,465.373 1008.92,464.371 1010.85,463.372 1012.79,462.375 1014.72,461.382 1016.66,460.39 1018.59,459.402 1020.52,458.416 1022.46,457.432 1024.39,456.451 1026.32,455.473 1028.26,454.497 1030.19,453.524 1032.12,452.553 1034.06,451.585 1035.99,450.619 1037.93,449.656 1039.86,448.695 1041.79,447.737 1043.73,446.781 1045.66,445.828 1047.59,444.877 1049.53,443.928 1051.46,442.982 1053.39,442.038 1055.33,441.096 1057.26,440.157 1059.2,439.22 1061.13,438.286 1063.06,437.354 1065,436.424 1066.93,435.496 1068.86,434.571 1070.8,433.648 1072.73,432.727 1074.67,431.809 1076.6,430.893 1078.53,429.979 1080.47,429.067 1082.4,428.158 1084.33,427.25 1086.27,426.345 1088.2,425.442 1090.13,424.542 1092.07,423.643 1094,422.746 1095.94,421.852 1097.87,420.96 1099.8,420.07 1101.74,419.182 1103.67,418.296 1105.6,417.412 1107.54,416.531 1109.47,415.651 1111.4,414.774 1113.34,413.898 1115.27,413.025 1117.21,412.153 1119.14,411.284 1121.07,410.417 1123.01,409.551 1124.94,408.688 1126.87,407.826 1128.81,406.967 1130.74,406.11 1132.67,405.254 1134.61,404.401 1136.54,403.549 1138.48,402.7 1140.41,401.852 1142.34,401.006 1144.28,400.162 1146.21,399.32 1148.14,398.48 1150.08,397.642 1152.01,396.806 1153.95,395.972 1155.88,395.139 1157.81,394.308 1159.75,393.479 1161.68,392.652 1163.61,391.827 1165.55,391.004 1167.48,390.182 1169.41,389.363 1171.35,388.545 1173.28,387.729 1175.22,386.914 1177.15,386.102 1179.08,385.291 1181.02,384.482 1182.95,383.674 1184.88,382.869 1186.82,382.065 1188.75,381.263 1190.68,380.463 1192.62,379.664 1194.55,378.867 1196.49,378.072 1198.42,377.278 1200.35,376.486 1202.29,375.696 1204.22,374.908 1206.15,374.121 1208.09,373.336 1210.02,372.552 1211.95,371.77 1213.89,370.99 1215.82,370.212 1217.76,369.435 1219.69,368.659 1221.62,367.886 1223.56,367.113 1225.49,366.343 1227.42,365.574 1229.36,364.807 1231.29,364.041 1233.23,363.277 1235.16,362.514 1237.09,361.753 1239.03,360.994 1240.96,360.236 1242.89,359.479 1244.83,358.724 1246.76,357.971 1248.69,357.219 1250.63,356.469 1252.56,355.72 1254.5,354.973 1256.43,354.227 1258.36,353.483 1260.3,352.74 1262.23,351.999 1264.16,351.259 1266.1,350.521 1268.03,349.784 1269.96,349.048 1271.9,348.315 1273.83,347.582 1275.77,346.851 1277.7,346.121 1279.63,345.393 1281.57,344.667 1283.5,343.941 1285.43,343.217 1287.37,342.495 1289.3,341.774 1291.23,341.054 1293.17,340.336 1295.1,339.619 1297.04,338.903 1298.97,338.189 1300.9,337.477 1302.84,336.765 1304.77,336.055 1306.7,335.346 1308.64,334.639 1310.57,333.933 1312.51,333.229 1314.44,332.525 1316.37,331.823 1318.31,331.123 1320.24,330.424 1322.17,329.726 1324.11,329.029 1326.04,328.334 1327.97,327.64 1329.91,326.947 1331.84,326.256 1333.78,325.566 1335.71,324.877 1337.64,324.189 1339.58,323.503 1341.51,322.818 1343.44,322.134 1345.38,321.452 1347.31,320.771 1349.24,320.091 1351.18,319.412 1353.11,318.735 1355.05,318.058 1356.98,317.383 1358.91,316.71 1360.85,316.037 1362.78,315.366 1364.71,314.696 1366.65,314.027 1368.58,313.359 1370.52,312.693 1372.45,312.028 1374.38,311.364 1376.32,310.701 1378.25,310.039 1380.18,309.379 1382.12,308.72 1384.05,308.062 1385.98,307.405 1387.92,306.749 1389.85,306.094 1391.79,305.441 1393.72,304.789 1395.65,304.138 1397.59,303.488 1399.52,302.839 1401.45,302.191 1403.39,301.545 1405.32,300.9 1407.25,300.255 1409.19,299.612 1411.12,298.97 1413.06,298.329 1414.99,297.69 1416.92,297.051 1418.86,296.413 1420.79,295.777 1422.72,295.142 1424.66,294.508 1426.59,293.874 1428.52,293.242 1430.46,292.611 1432.39,291.982 1434.33,291.353 1436.26,290.725 1438.19,290.098 1440.13,289.473 1442.06,288.848 1443.99,288.225 1445.93,287.603 1447.86,286.981 1449.8,286.361 1451.73,285.742 1453.66,285.124 1455.6,284.506 1457.53,283.89 1459.46,283.275 1461.4,282.661 1463.33,282.048 1465.26,281.436 1467.2,280.825 1469.13,280.215 1471.07,279.607 1473,278.999 1474.93,278.392 1476.87,277.786 1478.8,277.181 1480.73,276.577 1482.67,275.974 1484.6,275.372 1486.53,274.771 1488.47,274.171 1490.4,273.572 1492.34,272.975 1494.27,272.378 1496.2,271.782 1498.14,271.187 1500.07,270.592 1502,269.999 1503.94,269.407 1505.87,268.816 1507.8,268.226 1509.74,267.636 1511.67,267.048 1513.61,266.461 1515.54,265.874 1517.47,265.289 1519.41,264.704 1521.34,264.121 1523.27,263.538 1525.21,262.956 1527.14,262.375 1529.08,261.796 1531.01,261.217 1532.94,260.638 1534.88,260.061 1536.81,259.485 1538.74,258.91 1540.68,258.335 1542.61,257.762 1544.54,257.189 1546.48,256.617 1548.41,256.047 1550.35,255.477 1552.28,254.908 1554.21,254.34 1556.15,253.772 1558.08,253.206 1560.01,252.64 1561.95,252.076 1563.88,251.512 1565.81,250.949 1567.75,250.387 1569.68,249.826 1571.62,249.266 1573.55,248.706 1575.48,248.148 1577.42,247.59 1579.35,247.033 1581.28,246.477 1583.22,245.922 1585.15,245.368 1587.08,244.815 1589.02,244.262 1590.95,243.71 1592.89,243.159 1594.82,242.609 1596.75,242.06 1598.69,241.512 1600.62,240.964 1602.55,240.417 1604.49,239.871 1606.42,239.326 1608.36,238.782 1610.29,238.238 1612.22,237.696 1614.16,237.154 1616.09,236.613 1618.02,236.073 1619.96,235.533 1621.89,234.994 1623.82,234.457 1625.76,233.92 1627.69,233.383 1629.63,232.848 1631.56,232.313 1633.49,231.779 1635.43,231.246 1637.36,230.714 1639.29,230.182 1641.23,229.652 1643.16,229.122 1645.09,228.593 1647.03,228.064 1648.96,227.536 1650.9,227.01 1652.83,226.484 1654.76,225.958 1656.7,225.434 1658.63,224.91 1660.56,224.387 1662.5,223.864 1664.43,223.343 1666.36,222.822 1668.3,222.302 1670.23,221.783 1672.17,221.264 1674.1,220.746 1676.03,220.229 1677.97,219.713 1679.9,219.197 1681.83,218.682 1683.77,218.168 1685.7,217.655 1687.64,217.142 1689.57,216.63 1691.5,216.119 1693.44,215.609 1695.37,215.099 1697.3,214.59 1699.24,214.082 1701.17,213.574 1703.1,213.067 1705.04,212.561 1706.97,212.055 1708.91,211.551 1710.84,211.047 1712.77,210.543 1714.71,210.041 1716.64,209.539 1718.57,209.037 1720.51,208.537 1722.44,208.037 1724.37,207.538 1726.31,207.039 1728.24,206.542 1730.18,206.044 1732.11,205.548 1734.04,205.052 1735.98,204.557 1737.91,204.063 1739.84,203.569 1741.78,203.076 1743.71,202.584 1745.64,202.092 1747.58,201.601 1749.51,201.111 1751.45,200.621 1753.38,200.132 1755.31,199.644 1757.25,199.156 1759.18,198.669 1761.11,198.183 1763.05,197.697 1764.98,197.212 1766.92,196.728 1768.85,196.244 1770.78,195.761 1772.72,195.279 1774.65,194.797 1776.58,194.316 1778.52,193.836 1780.45,193.356 1782.38,192.877 1784.32,192.398 1786.25,191.92 1788.19,191.443 1790.12,190.966 1792.05,190.49 1793.99,190.015 1795.92,189.54 1797.85,189.066 1799.79,188.593 1801.72,188.12 1803.65,187.648 1805.59,187.176 1807.52,186.705 1809.46,186.235 1811.39,185.765 1813.32,185.296 1815.26,184.827 1817.19,184.359 1819.12,183.892 1821.06,183.425 1822.99,182.959 1824.92,182.494 1826.86,182.029 1828.79,181.565 1830.73,181.101 1832.66,180.638 1834.59,180.176 1836.53,179.714 1838.46,179.252 1840.39,178.792 1842.33,178.332 1844.26,177.872 1846.2,177.413 1848.13,176.955 1850.06,176.497 1852,176.04 1853.93,175.584 1855.86,175.128 1857.8,174.672 1859.73,174.218 1861.66,173.763 1863.6,173.31 1865.53,172.857 1867.47,172.404 1869.4,171.952 1871.33,171.501 1873.27,171.05 1875.2,170.6 1877.13,170.15 1879.07,169.701 1881,169.253 1882.93,168.805 1884.87,168.357 1886.8,167.911 1888.74,167.464 1890.67,167.019 1892.6,166.574 1894.54,166.129 1896.47,165.685 1898.4,165.242 1900.34,164.799 1902.27,164.356 1904.2,163.914 1906.14,163.473 1908.07,163.032 1910.01,162.592 1911.94,162.153 1913.87,161.714 1915.81,161.275 1917.74,160.837 1919.67,160.4 1921.61,159.963 1923.54,159.526 1925.48,159.09 1927.41,158.655 1929.34,158.22 1931.28,157.786 1933.21,157.352 1935.14,156.919 1937.08,156.487 1939.01,156.054 1940.94,155.623 1942.88,155.192 1944.81,154.761 1946.75,154.331 1948.68,153.902 1950.61,153.473 1952.55,153.044 1954.48,152.616 1956.41,152.189 1958.35,151.762 1960.28,151.335 1962.21,150.909 1964.15,150.484 1966.08,150.059 1968.02,149.635 1969.95,149.211 1971.88,148.788 1973.82,148.365 1975.75,147.942 1977.68,147.521 1979.62,147.099 1981.55,146.678 1983.49,146.258 1985.42,145.838 1987.35,145.419 1989.29,145 1991.22,144.582 1993.15,144.164 1995.09,143.747 1997.02,143.33 1998.95,142.913 2000.89,142.497 2002.82,142.082 2004.76,141.667 2006.69,141.253 2008.62,140.839 2010.56,140.425 2012.49,140.012 2014.42,139.6 2016.36,139.188 2018.29,138.776 2020.22,138.365 2022.16,137.955 2024.09,137.545 2026.03,137.135 2027.96,136.726 2029.89,136.317 2031.83,135.909 2033.76,135.501 2035.69,135.094 2037.63,134.687 2039.56,134.281 2041.49,133.875 2043.43,133.47 2045.36,133.065 2047.3,132.66 2049.23,132.256 2051.16,131.853 2053.1,131.45 2055.03,131.047 2056.96,130.645 2058.9,130.243 2060.83,129.842 2062.77,129.441 2064.7,129.041 2066.63,128.641 2068.57,128.242 2070.5,127.843 2072.43,127.444 2074.37,127.046 2076.3,126.649 2078.23,126.252 2080.17,125.855 2082.1,125.459 2084.04,125.063 2085.97,124.668 2087.9,124.273 2089.84,123.878 2091.77,123.484 2093.7,123.091 2095.64,122.698 2097.57,122.305 2099.5,121.913 2101.44,121.521 2103.37,121.129 2105.31,120.738 2107.24,120.348 2109.17,119.958 2111.11,119.568 2113.04,119.179 2114.97,118.79 2116.91,118.402 2118.84,118.014 2120.77,117.626 2122.71,117.239 2124.64,116.853 2126.58,116.466 2128.51,116.081 2130.44,115.695 2132.38,115.31 2134.31,114.926 2136.24,114.542 2138.18,114.158 2140.11,113.775 2142.05,113.392 2143.98,113.01 2145.91,112.628 2147.85,112.246 2149.78,111.865 2151.71,111.484 2153.65,111.104 2155.58,110.724 2157.51,110.344 2159.45,109.965 2161.38,109.587 2163.32,109.208 2165.25,108.83 2167.18,108.453 2169.12,108.076 2171.05,107.699 2172.98,107.323 2174.92,106.947 2176.85,106.572 2178.78,106.197 2180.72,105.822 2182.65,105.448 2184.59,105.074 2186.52,104.701 2188.45,104.328 2190.39,103.955 2192.32,103.583 2194.25,103.211 2196.19,102.839 2198.12,102.468 2200.05,102.098 2201.99,101.727 2203.92,101.358 2205.86,100.988 2207.79,100.619 2209.72,100.25 2211.66,99.882 2213.59,99.5141 2215.52,99.1466 2217.46,98.7794 2219.39,98.4127 2221.33,98.0463 2223.26,97.6803 2225.19,97.3147 2227.13,96.9495 2229.06,96.5847 2230.99,96.2202 2232.93,95.8562 2234.86,95.4925 2236.79,95.1292 2238.73,94.7662 2240.66,94.4037 2242.6,94.0415 2244.53,93.6797 2246.46,93.3183 2248.4,92.9573 2250.33,92.5966 2252.26,92.2363 2254.2,91.8764 2256.13,91.5168 2258.06,91.1576 2260,90.7988 2261.93,90.4404 2263.87,90.0823 2265.8,89.7246 2267.73,89.3673 2269.67,89.0103 2271.6,88.6537 2273.53,88.2975 2275.47,87.9416 2277.4,87.5861 2279.33,87.231 2281.27,86.8762 2283.2,86.5218 2285.14,86.1677 2287.07,85.814 2289,85.4607 2290.94,85.1077 2292.87,84.7551 2294.8,84.4029 "/>
</svg>
