<?xml version="1.0" encoding="utf-8"?>
<svg xmlns="http://www.w3.org/2000/svg" xmlns:xlink="http://www.w3.org/1999/xlink" width="800" height="300" viewBox="0 0 3200 1200">
<defs>
  <clipPath id="clip470">
    <rect x="0" y="0" width="3200" height="1200"/>
  </clipPath>
</defs>
<path clip-path="url(#clip470)" d="M0 1200 L3200 1200 L3200 0 L0 0  Z" fill="#ffffff" fill-rule="evenodd" fill-opacity="1"/>
<defs>
  <clipPath id="clip471">
    <rect x="1866" y="47" width="1287" height="954"/>
  </clipPath>
</defs>
<path clip-path="url(#clip470)" d="M225.647 1000.1 L1511.8 1000.1 L1511.8 47.2441 L225.647 47.2441  Z" fill="#ffffff" fill-rule="evenodd" fill-opacity="1"/>
<defs>
  <clipPath id="clip472">
    <rect x="225" y="47" width="1287" height="954"/>
  </clipPath>
</defs>
<polyline clip-path="url(#clip472)" style="stroke:#000000; stroke-linecap:round; stroke-linejoin:round; stroke-width:2; stroke-opacity:0.1; fill:none" points="262.048,1000.1 262.048,47.2441 "/>
<polyline clip-path="url(#clip472)" style="stroke:#000000; stroke-linecap:round; stroke-linejoin:round; stroke-width:2; stroke-opacity:0.1; fill:none" points="552.38,1000.1 552.38,47.2441 "/>
<polyline clip-path="url(#clip472)" style="stroke:#000000; stroke-linecap:round; stroke-linejoin:round; stroke-width:2; stroke-opacity:0.1; fill:none" points="842.713,1000.1 842.713,47.2441 "/>
<polyline clip-path="url(#clip472)" style="stroke:#000000; stroke-linecap:round; stroke-linejoin:round; stroke-width:2; stroke-opacity:0.1; fill:none" points="1133.05,1000.1 1133.05,47.2441 "/>
<polyline clip-path="url(#clip472)" style="stroke:#000000; stroke-linecap:round; stroke-linejoin:round; stroke-width:2; stroke-opacity:0.1; fill:none" points="1423.38,1000.1 1423.38,47.2441 "/>
<polyline clip-path="url(#clip472)" style="stroke:#000000; stroke-linecap:round; stroke-linejoin:round; stroke-width:2; stroke-opacity:0.1; fill:none" points="225.647,943.875 1511.8,943.875 "/>
<polyline clip-path="url(#clip472)" style="stroke:#000000; stroke-linecap:round; stroke-linejoin:round; stroke-width:2; stroke-opacity:0.1; fill:none" points="225.647,753.035 1511.8,753.035 "/>
<polyline clip-path="url(#clip472)" style="stroke:#000000; stroke-linecap:round; stroke-linejoin:round; stroke-width:2; stroke-opacity:0.1; fill:none" points="225.647,562.195 1511.8,562.195 "/>
<polyline clip-path="url(#clip472)" style="stroke:#000000; stroke-linecap:round; stroke-linejoin:round; stroke-width:2; stroke-opacity:0.1; fill:none" points="225.647,371.356 1511.8,371.356 "/>
<polyline clip-path="url(#clip472)" style="stroke:#000000; stroke-linecap:round; stroke-linejoin:round; stroke-width:2; stroke-opacity:0.1; fill:none" points="225.647,180.516 1511.8,180.516 "/>
<polyline clip-path="url(#clip470)" style="stroke:#000000; stroke-linecap:round; stroke-linejoin:round; stroke-width:4; stroke-opacity:1; fill:none" points="225.647,1000.1 1511.8,1000.1 "/>
<polyline clip-path="url(#clip470)" style="stroke:#000000; stroke-linecap:round; stroke-linejoin:round; stroke-width:4; stroke-opacity:1; fill:none" points="262.048,1000.1 262.048,981.2 "/>
<polyline clip-path="url(#clip470)" style="stroke:#000000; stroke-linecap:round; stroke-linejoin:round; stroke-width:4; stroke-opacity:1; fill:none" points="552.38,1000.1 552.38,981.2 "/>
<polyline clip-path="url(#clip470)" style="stroke:#000000; stroke-linecap:round; stroke-linejoin:round; stroke-width:4; stroke-opacity:1; fill:none" points="842.713,1000.1 842.713,981.2 "/>
<polyline clip-path="url(#clip470)" style="stroke:#000000; stroke-linecap:round; stroke-linejoin:round; stroke-width:4; stroke-opacity:1; fill:none" points="1133.05,1000.1 1133.05,981.2 "/>
<polyline clip-path="url(#clip470)" style="stroke:#000000; stroke-linecap:round; stroke-linejoin:round; stroke-width:4; stroke-opacity:1; fill:none" points="1423.38,1000.1 1423.38,981.2 "/>
<path clip-path="url(#clip470)" d="M262.048 1037.42 Q258.437 1037.42 256.608 1040.98 Q254.802 1044.52 254.802 1051.65 Q254.802 1058.76 256.608 1062.32 Q258.437 1065.87 262.048 1065.87 Q265.682 1065.87 267.488 1062.32 Q269.316 1058.76 269.316 1051.65 Q269.316 1044.52 267.488 1040.98 Q265.682 1037.42 262.048 1037.42 M262.048 1033.71 Q267.858 1033.71 270.913 1038.32 Q273.992 1042.9 273.992 1051.65 Q273.992 1060.38 270.913 1064.99 Q267.858 1069.57 262.048 1069.57 Q256.238 1069.57 253.159 1064.99 Q250.103 1060.38 250.103 1051.65 Q250.103 1042.9 253.159 1038.32 Q256.238 1033.71 262.048 1033.71 Z" fill="#000000" fill-rule="nonzero" fill-opacity="1" /><path clip-path="url(#clip470)" d="M531.651 1064.96 L547.97 1064.96 L547.97 1068.9 L526.026 1068.9 L526.026 1064.96 Q528.688 1062.21 533.272 1057.58 Q537.878 1052.93 539.059 1051.58 Q541.304 1049.06 542.183 1047.32 Q543.086 1045.56 543.086 1043.87 Q543.086 1041.12 541.142 1039.38 Q539.221 1037.65 536.119 1037.65 Q533.92 1037.65 531.466 1038.41 Q529.035 1039.18 526.258 1040.73 L526.258 1036 Q529.082 1034.87 531.535 1034.29 Q533.989 1033.71 536.026 1033.71 Q541.396 1033.71 544.591 1036.4 Q547.785 1039.08 547.785 1043.57 Q547.785 1045.7 546.975 1047.62 Q546.188 1049.52 544.082 1052.12 Q543.503 1052.79 540.401 1056 Q537.299 1059.2 531.651 1064.96 Z" fill="#000000" fill-rule="nonzero" fill-opacity="1" /><path clip-path="url(#clip470)" d="M557.832 1034.34 L576.188 1034.34 L576.188 1038.27 L562.114 1038.27 L562.114 1046.75 Q563.132 1046.4 564.151 1046.24 Q565.169 1046.05 566.188 1046.05 Q571.975 1046.05 575.355 1049.22 Q578.734 1052.39 578.734 1057.81 Q578.734 1063.39 575.262 1066.49 Q571.79 1069.57 565.47 1069.57 Q563.294 1069.57 561.026 1069.2 Q558.781 1068.83 556.373 1068.09 L556.373 1063.39 Q558.457 1064.52 560.679 1065.08 Q562.901 1065.63 565.378 1065.63 Q569.382 1065.63 571.72 1063.53 Q574.058 1061.42 574.058 1057.81 Q574.058 1054.2 571.72 1052.09 Q569.382 1049.99 565.378 1049.99 Q563.503 1049.99 561.628 1050.4 Q559.776 1050.82 557.832 1051.7 L557.832 1034.34 Z" fill="#000000" fill-rule="nonzero" fill-opacity="1" /><path clip-path="url(#clip470)" d="M817.412 1034.34 L835.768 1034.34 L835.768 1038.27 L821.694 1038.27 L821.694 1046.75 Q822.713 1046.4 823.731 1046.24 Q824.75 1046.05 825.768 1046.05 Q831.555 1046.05 834.935 1049.22 Q838.315 1052.39 838.315 1057.81 Q838.315 1063.39 834.842 1066.49 Q831.37 1069.57 825.051 1069.57 Q822.875 1069.57 820.606 1069.2 Q818.361 1068.83 815.954 1068.09 L815.954 1063.39 Q818.037 1064.52 820.259 1065.08 Q822.481 1065.63 824.958 1065.63 Q828.963 1065.63 831.301 1063.53 Q833.639 1061.42 833.639 1057.81 Q833.639 1054.2 831.301 1052.09 Q828.963 1049.99 824.958 1049.99 Q823.083 1049.99 821.208 1050.4 Q819.356 1050.82 817.412 1051.7 L817.412 1034.34 Z" fill="#000000" fill-rule="nonzero" fill-opacity="1" /><path clip-path="url(#clip470)" d="M857.527 1037.42 Q853.916 1037.42 852.088 1040.98 Q850.282 1044.52 850.282 1051.65 Q850.282 1058.76 852.088 1062.32 Q853.916 1065.87 857.527 1065.87 Q861.162 1065.87 862.967 1062.32 Q864.796 1058.76 864.796 1051.65 Q864.796 1044.52 862.967 1040.98 Q861.162 1037.42 857.527 1037.42 M857.527 1033.71 Q863.338 1033.71 866.393 1038.32 Q869.472 1042.9 869.472 1051.65 Q869.472 1060.38 866.393 1064.99 Q863.338 1069.57 857.527 1069.57 Q851.717 1069.57 848.639 1064.99 Q845.583 1060.38 845.583 1051.65 Q845.583 1042.9 848.639 1038.32 Q851.717 1033.71 857.527 1033.71 Z" fill="#000000" fill-rule="nonzero" fill-opacity="1" /><path clip-path="url(#clip470)" d="M1106.9 1034.34 L1129.12 1034.34 L1129.12 1036.33 L1116.58 1068.9 L1111.69 1068.9 L1123.5 1038.27 L1106.9 1038.27 L1106.9 1034.34 Z" fill="#000000" fill-rule="nonzero" fill-opacity="1" /><path clip-path="url(#clip470)" d="M1138.29 1034.34 L1156.64 1034.34 L1156.64 1038.27 L1142.57 1038.27 L1142.57 1046.75 Q1143.59 1046.4 1144.61 1046.24 Q1145.63 1046.05 1146.64 1046.05 Q1152.43 1046.05 1155.81 1049.22 Q1159.19 1052.39 1159.19 1057.81 Q1159.19 1063.39 1155.72 1066.49 Q1152.25 1069.57 1145.93 1069.57 Q1143.75 1069.57 1141.48 1069.2 Q1139.24 1068.83 1136.83 1068.09 L1136.83 1063.39 Q1138.91 1064.52 1141.14 1065.08 Q1143.36 1065.63 1145.83 1065.63 Q1149.84 1065.63 1152.18 1063.53 Q1154.51 1061.42 1154.51 1057.81 Q1154.51 1054.2 1152.18 1052.09 Q1149.84 1049.99 1145.83 1049.99 Q1143.96 1049.99 1142.08 1050.4 Q1140.23 1050.82 1138.29 1051.7 L1138.29 1034.34 Z" fill="#000000" fill-rule="nonzero" fill-opacity="1" /><path clip-path="url(#clip470)" d="M1382.98 1064.96 L1390.62 1064.96 L1390.62 1038.6 L1382.31 1040.26 L1382.31 1036 L1390.58 1034.34 L1395.25 1034.34 L1395.25 1064.96 L1402.89 1064.96 L1402.89 1068.9 L1382.98 1068.9 L1382.98 1064.96 Z" fill="#000000" fill-rule="nonzero" fill-opacity="1" /><path clip-path="url(#clip470)" d="M1422.34 1037.42 Q1418.72 1037.42 1416.9 1040.98 Q1415.09 1044.52 1415.09 1051.65 Q1415.09 1058.76 1416.9 1062.32 Q1418.72 1065.87 1422.34 1065.87 Q1425.97 1065.87 1427.78 1062.32 Q1429.6 1058.76 1429.6 1051.65 Q1429.6 1044.52 1427.78 1040.98 Q1425.97 1037.42 1422.34 1037.42 M1422.34 1033.71 Q1428.15 1033.71 1431.2 1038.32 Q1434.28 1042.9 1434.28 1051.65 Q1434.28 1060.38 1431.2 1064.99 Q1428.15 1069.57 1422.34 1069.57 Q1416.53 1069.57 1413.45 1064.99 Q1410.39 1060.38 1410.39 1051.65 Q1410.39 1042.9 1413.45 1038.32 Q1416.53 1033.71 1422.34 1033.71 Z" fill="#000000" fill-rule="nonzero" fill-opacity="1" /><path clip-path="url(#clip470)" d="M1452.5 1037.42 Q1448.89 1037.42 1447.06 1040.98 Q1445.25 1044.52 1445.25 1051.65 Q1445.25 1058.76 1447.06 1062.32 Q1448.89 1065.87 1452.5 1065.87 Q1456.13 1065.87 1457.94 1062.32 Q1459.77 1058.76 1459.77 1051.65 Q1459.77 1044.52 1457.94 1040.98 Q1456.13 1037.42 1452.5 1037.42 M1452.5 1033.71 Q1458.31 1033.71 1461.36 1038.32 Q1464.44 1042.9 1464.44 1051.65 Q1464.44 1060.38 1461.36 1064.99 Q1458.31 1069.57 1452.5 1069.57 Q1446.69 1069.57 1443.61 1064.99 Q1440.55 1060.38 1440.55 1051.65 Q1440.55 1042.9 1443.61 1038.32 Q1446.69 1033.71 1452.5 1033.71 Z" fill="#000000" fill-rule="nonzero" fill-opacity="1" /><path clip-path="url(#clip470)" d="M508.629 1121.31 L514.486 1121.31 L521.806 1149.13 L529.095 1121.31 L536.002 1121.31 L543.322 1149.13 L550.611 1121.31 L556.468 1121.31 L547.142 1156.96 L540.235 1156.96 L532.564 1127.74 L524.862 1156.96 L517.955 1156.96 L508.629 1121.31 Z" fill="#000000" fill-rule="nonzero" fill-opacity="1" /><path clip-path="url(#clip470)" d="M595.839 1137.67 L595.839 1140.54 L568.913 1140.54 Q569.294 1146.59 572.541 1149.77 Q575.819 1152.92 581.644 1152.92 Q585.018 1152.92 588.169 1152.09 Q591.352 1151.26 594.471 1149.61 L594.471 1155.15 Q591.32 1156.48 588.01 1157.18 Q584.699 1157.88 581.294 1157.88 Q572.764 1157.88 567.767 1152.92 Q562.801 1147.95 562.801 1139.49 Q562.801 1130.74 567.512 1125.61 Q572.255 1120.45 580.275 1120.45 Q587.469 1120.45 591.638 1125.1 Q595.839 1129.72 595.839 1137.67 M589.983 1135.95 Q589.919 1131.15 587.278 1128.28 Q584.668 1125.42 580.339 1125.42 Q575.437 1125.42 572.477 1128.19 Q569.549 1130.96 569.104 1135.99 L589.983 1135.95 Z" fill="#000000" fill-rule="nonzero" fill-opacity="1" /><path clip-path="url(#clip470)" d="M621.652 1139.04 Q614.555 1139.04 611.817 1140.67 Q609.08 1142.29 609.08 1146.2 Q609.08 1149.32 611.117 1151.17 Q613.186 1152.98 616.719 1152.98 Q621.589 1152.98 624.517 1149.55 Q627.477 1146.08 627.477 1140.35 L627.477 1139.04 L621.652 1139.04 M633.333 1136.62 L633.333 1156.96 L627.477 1156.96 L627.477 1151.55 Q625.472 1154.8 622.48 1156.36 Q619.488 1157.88 615.159 1157.88 Q609.685 1157.88 606.438 1154.83 Q603.224 1151.74 603.224 1146.59 Q603.224 1140.57 607.234 1137.51 Q611.276 1134.46 619.265 1134.46 L627.477 1134.46 L627.477 1133.89 Q627.477 1129.84 624.803 1127.65 Q622.162 1125.42 617.356 1125.42 Q614.3 1125.42 611.404 1126.15 Q608.507 1126.88 605.834 1128.35 L605.834 1122.94 Q609.048 1121.7 612.072 1121.09 Q615.096 1120.45 617.96 1120.45 Q625.695 1120.45 629.514 1124.46 Q633.333 1128.48 633.333 1136.62 Z" fill="#000000" fill-rule="nonzero" fill-opacity="1" /><path clip-path="url(#clip470)" d="M645.397 1107.44 L651.253 1107.44 L651.253 1156.96 L645.397 1156.96 L645.397 1107.44 Z" fill="#000000" fill-rule="nonzero" fill-opacity="1" /><path clip-path="url(#clip470)" d="M669.3 1111.19 L669.3 1121.31 L681.363 1121.31 L681.363 1125.87 L669.3 1125.87 L669.3 1145.22 Q669.3 1149.58 670.477 1150.82 Q671.687 1152.06 675.347 1152.06 L681.363 1152.06 L681.363 1156.96 L675.347 1156.96 Q668.568 1156.96 665.99 1154.45 Q663.411 1151.9 663.411 1145.22 L663.411 1125.87 L659.115 1125.87 L659.115 1121.31 L663.411 1121.31 L663.411 1111.19 L669.3 1111.19 Z" fill="#000000" fill-rule="nonzero" fill-opacity="1" /><path clip-path="url(#clip470)" d="M718.698 1135.45 L718.698 1156.96 L712.841 1156.96 L712.841 1135.64 Q712.841 1130.58 710.868 1128.06 Q708.894 1125.55 704.948 1125.55 Q700.205 1125.55 697.468 1128.57 Q694.731 1131.59 694.731 1136.81 L694.731 1156.96 L688.842 1156.96 L688.842 1107.44 L694.731 1107.44 L694.731 1126.85 Q696.831 1123.64 699.664 1122.05 Q702.529 1120.45 706.253 1120.45 Q712.396 1120.45 715.547 1124.27 Q718.698 1128.06 718.698 1135.45 Z" fill="#000000" fill-rule="nonzero" fill-opacity="1" /><path clip-path="url(#clip470)" d="M727.419 1136.5 L744.574 1136.5 L744.574 1141.72 L727.419 1141.72 L727.419 1136.5 Z" fill="#000000" fill-rule="nonzero" fill-opacity="1" /><path clip-path="url(#clip470)" d="M753.9 1121.31 L759.756 1121.31 L759.756 1156.96 L753.9 1156.96 L753.9 1121.31 M753.9 1107.44 L759.756 1107.44 L759.756 1114.85 L753.9 1114.85 L753.9 1107.44 Z" fill="#000000" fill-rule="nonzero" fill-opacity="1" /><path clip-path="url(#clip470)" d="M801.643 1135.45 L801.643 1156.96 L795.786 1156.96 L795.786 1135.64 Q795.786 1130.58 793.813 1128.06 Q791.84 1125.55 787.893 1125.55 Q783.15 1125.55 780.413 1128.57 Q777.676 1131.59 777.676 1136.81 L777.676 1156.96 L771.788 1156.96 L771.788 1121.31 L777.676 1121.31 L777.676 1126.85 Q779.777 1123.64 782.609 1122.05 Q785.474 1120.45 789.198 1120.45 Q795.341 1120.45 798.492 1124.27 Q801.643 1128.06 801.643 1135.45 Z" fill="#000000" fill-rule="nonzero" fill-opacity="1" /><path clip-path="url(#clip470)" d="M838.978 1122.68 L838.978 1128.16 Q836.495 1126.79 833.981 1126.12 Q831.498 1125.42 828.952 1125.42 Q823.254 1125.42 820.103 1129.05 Q816.952 1132.64 816.952 1139.17 Q816.952 1145.69 820.103 1149.32 Q823.254 1152.92 828.952 1152.92 Q831.498 1152.92 833.981 1152.25 Q836.495 1151.55 838.978 1150.18 L838.978 1155.59 Q836.527 1156.74 833.885 1157.31 Q831.275 1157.88 828.315 1157.88 Q820.262 1157.88 815.52 1152.82 Q810.778 1147.76 810.778 1139.17 Q810.778 1130.45 815.552 1125.45 Q820.358 1120.45 828.697 1120.45 Q831.402 1120.45 833.981 1121.03 Q836.559 1121.57 838.978 1122.68 Z" fill="#000000" fill-rule="nonzero" fill-opacity="1" /><path clip-path="url(#clip470)" d="M862.976 1125.42 Q858.266 1125.42 855.528 1129.11 Q852.791 1132.77 852.791 1139.17 Q852.791 1145.57 855.497 1149.26 Q858.234 1152.92 862.976 1152.92 Q867.655 1152.92 870.392 1149.23 Q873.13 1145.54 873.13 1139.17 Q873.13 1132.84 870.392 1129.14 Q867.655 1125.42 862.976 1125.42 M862.976 1120.45 Q870.615 1120.45 874.976 1125.42 Q879.336 1130.38 879.336 1139.17 Q879.336 1147.92 874.976 1152.92 Q870.615 1157.88 862.976 1157.88 Q855.306 1157.88 850.945 1152.92 Q846.616 1147.92 846.616 1139.17 Q846.616 1130.38 850.945 1125.42 Q855.306 1120.45 862.976 1120.45 Z" fill="#000000" fill-rule="nonzero" fill-opacity="1" /><path clip-path="url(#clip470)" d="M916.798 1128.16 Q918.995 1124.21 922.05 1122.33 Q925.106 1120.45 929.243 1120.45 Q934.813 1120.45 937.837 1124.37 Q940.861 1128.25 940.861 1135.45 L940.861 1156.96 L934.972 1156.96 L934.972 1135.64 Q934.972 1130.51 933.158 1128.03 Q931.344 1125.55 927.62 1125.55 Q923.069 1125.55 920.427 1128.57 Q917.785 1131.59 917.785 1136.81 L917.785 1156.96 L911.897 1156.96 L911.897 1135.64 Q911.897 1130.48 910.083 1128.03 Q908.268 1125.55 904.481 1125.55 Q899.993 1125.55 897.351 1128.6 Q894.709 1131.63 894.709 1136.81 L894.709 1156.96 L888.821 1156.96 L888.821 1121.31 L894.709 1121.31 L894.709 1126.85 Q896.715 1123.57 899.516 1122.01 Q902.316 1120.45 906.168 1120.45 Q910.051 1120.45 912.756 1122.43 Q915.493 1124.4 916.798 1128.16 Z" fill="#000000" fill-rule="nonzero" fill-opacity="1" /><path clip-path="url(#clip470)" d="M983.034 1137.67 L983.034 1140.54 L956.107 1140.54 Q956.489 1146.59 959.735 1149.77 Q963.013 1152.92 968.838 1152.92 Q972.212 1152.92 975.363 1152.09 Q978.546 1151.26 981.665 1149.61 L981.665 1155.15 Q978.514 1156.48 975.204 1157.18 Q971.894 1157.88 968.488 1157.88 Q959.958 1157.88 954.961 1152.92 Q949.996 1147.95 949.996 1139.49 Q949.996 1130.74 954.706 1125.61 Q959.449 1120.45 967.469 1120.45 Q974.663 1120.45 978.832 1125.1 Q983.034 1129.72 983.034 1137.67 M977.177 1135.95 Q977.113 1131.15 974.472 1128.28 Q971.862 1125.42 967.533 1125.42 Q962.631 1125.42 959.671 1128.19 Q956.743 1130.96 956.298 1135.99 L977.177 1135.95 Z" fill="#000000" fill-rule="nonzero" fill-opacity="1" /><path clip-path="url(#clip470)" d="M1034.02 1126.79 Q1033.04 1126.22 1031.86 1125.96 Q1030.71 1125.67 1029.31 1125.67 Q1024.35 1125.67 1021.67 1128.92 Q1019.03 1132.14 1019.03 1138.18 L1019.03 1156.96 L1013.14 1156.96 L1013.14 1121.31 L1019.03 1121.31 L1019.03 1126.85 Q1020.88 1123.61 1023.84 1122.05 Q1026.8 1120.45 1031.03 1120.45 Q1031.64 1120.45 1032.37 1120.55 Q1033.1 1120.61 1033.99 1120.77 L1034.02 1126.79 Z" fill="#000000" fill-rule="nonzero" fill-opacity="1" /><path clip-path="url(#clip470)" d="M1056.37 1139.04 Q1049.27 1139.04 1046.53 1140.67 Q1043.79 1142.29 1043.79 1146.2 Q1043.79 1149.32 1045.83 1151.17 Q1047.9 1152.98 1051.43 1152.98 Q1056.3 1152.98 1059.23 1149.55 Q1062.19 1146.08 1062.19 1140.35 L1062.19 1139.04 L1056.37 1139.04 M1068.05 1136.62 L1068.05 1156.96 L1062.19 1156.96 L1062.19 1151.55 Q1060.19 1154.8 1057.19 1156.36 Q1054.2 1157.88 1049.87 1157.88 Q1044.4 1157.88 1041.15 1154.83 Q1037.94 1151.74 1037.94 1146.59 Q1037.94 1140.57 1041.95 1137.51 Q1045.99 1134.46 1053.98 1134.46 L1062.19 1134.46 L1062.19 1133.89 Q1062.19 1129.84 1059.52 1127.65 Q1056.88 1125.42 1052.07 1125.42 Q1049.01 1125.42 1046.12 1126.15 Q1043.22 1126.88 1040.55 1128.35 L1040.55 1122.94 Q1043.76 1121.7 1046.79 1121.09 Q1049.81 1120.45 1052.67 1120.45 Q1060.41 1120.45 1064.23 1124.46 Q1068.05 1128.48 1068.05 1136.62 Z" fill="#000000" fill-rule="nonzero" fill-opacity="1" /><path clip-path="url(#clip470)" d="M1085.9 1111.19 L1085.9 1121.31 L1097.97 1121.31 L1097.97 1125.87 L1085.9 1125.87 L1085.9 1145.22 Q1085.9 1149.58 1087.08 1150.82 Q1088.29 1152.06 1091.95 1152.06 L1097.97 1152.06 L1097.97 1156.96 L1091.95 1156.96 Q1085.17 1156.96 1082.59 1154.45 Q1080.02 1151.9 1080.02 1145.22 L1080.02 1125.87 L1075.72 1125.87 L1075.72 1121.31 L1080.02 1121.31 L1080.02 1111.19 L1085.9 1111.19 Z" fill="#000000" fill-rule="nonzero" fill-opacity="1" /><path clip-path="url(#clip470)" d="M1105.67 1121.31 L1111.53 1121.31 L1111.53 1156.96 L1105.67 1156.96 L1105.67 1121.31 M1105.67 1107.44 L1111.53 1107.44 L1111.53 1114.85 L1105.67 1114.85 L1105.67 1107.44 Z" fill="#000000" fill-rule="nonzero" fill-opacity="1" /><path clip-path="url(#clip470)" d="M1137.59 1125.42 Q1132.88 1125.42 1130.15 1129.11 Q1127.41 1132.77 1127.41 1139.17 Q1127.41 1145.57 1130.11 1149.26 Q1132.85 1152.92 1137.59 1152.92 Q1142.27 1152.92 1145.01 1149.23 Q1147.75 1145.54 1147.75 1139.17 Q1147.75 1132.84 1145.01 1129.14 Q1142.27 1125.42 1137.59 1125.42 M1137.59 1120.45 Q1145.23 1120.45 1149.59 1125.42 Q1153.95 1130.38 1153.95 1139.17 Q1153.95 1147.92 1149.59 1152.92 Q1145.23 1157.88 1137.59 1157.88 Q1129.92 1157.88 1125.56 1152.92 Q1121.23 1147.92 1121.23 1139.17 Q1121.23 1130.38 1125.56 1125.42 Q1129.92 1120.45 1137.59 1120.45 Z" fill="#000000" fill-rule="nonzero" fill-opacity="1" /><path clip-path="url(#clip470)" d="M1180.98 1121.31 L1186.83 1121.31 L1194.15 1149.13 L1201.44 1121.31 L1208.35 1121.31 L1215.67 1149.13 L1222.96 1121.31 L1228.81 1121.31 L1219.49 1156.96 L1212.58 1156.96 L1204.91 1127.74 L1197.21 1156.96 L1190.3 1156.96 L1180.98 1121.31 Z" fill="#000000" fill-rule="nonzero" fill-opacity="1" /><polyline clip-path="url(#clip470)" style="stroke:#000000; stroke-linecap:round; stroke-linejoin:round; stroke-width:4; stroke-opacity:1; fill:none" points="225.647,1000.1 225.647,47.2441 "/>
<polyline clip-path="url(#clip470)" style="stroke:#000000; stroke-linecap:round; stroke-linejoin:round; stroke-width:4; stroke-opacity:1; fill:none" points="225.647,943.875 244.545,943.875 "/>
<polyline clip-path="url(#clip470)" style="stroke:#000000; stroke-linecap:round; stroke-linejoin:round; stroke-width:4; stroke-opacity:1; fill:none" points="225.647,753.035 244.545,753.035 "/>
<polyline clip-path="url(#clip470)" style="stroke:#000000; stroke-linecap:round; stroke-linejoin:round; stroke-width:4; stroke-opacity:1; fill:none" points="225.647,562.195 244.545,562.195 "/>
<polyline clip-path="url(#clip470)" style="stroke:#000000; stroke-linecap:round; stroke-linejoin:round; stroke-width:4; stroke-opacity:1; fill:none" points="225.647,371.356 244.545,371.356 "/>
<polyline clip-path="url(#clip470)" style="stroke:#000000; stroke-linecap:round; stroke-linejoin:round; stroke-width:4; stroke-opacity:1; fill:none" points="225.647,180.516 244.545,180.516 "/>
<path clip-path="url(#clip470)" d="M157.74 957.22 L165.379 957.22 L165.379 930.855 L157.069 932.521 L157.069 928.262 L165.333 926.595 L170.008 926.595 L170.008 957.22 L177.647 957.22 L177.647 961.155 L157.74 961.155 L157.74 957.22 Z" fill="#000000" fill-rule="nonzero" fill-opacity="1" /><path clip-path="url(#clip470)" d="M161.328 766.38 L177.647 766.38 L177.647 770.315 L155.703 770.315 L155.703 766.38 Q158.365 763.626 162.948 758.996 Q167.555 754.343 168.735 753.001 Q170.981 750.478 171.86 748.741 Q172.763 746.982 172.763 745.292 Q172.763 742.538 170.819 740.802 Q168.897 739.066 165.796 739.066 Q163.596 739.066 161.143 739.829 Q158.712 740.593 155.934 742.144 L155.934 737.422 Q158.759 736.288 161.212 735.709 Q163.666 735.13 165.703 735.13 Q171.073 735.13 174.268 737.816 Q177.462 740.501 177.462 744.991 Q177.462 747.121 176.652 749.042 Q175.865 750.941 173.758 753.533 Q173.18 754.204 170.078 757.422 Q166.976 760.616 161.328 766.38 Z" fill="#000000" fill-rule="nonzero" fill-opacity="1" /><path clip-path="url(#clip470)" d="M170.518 560.841 Q173.874 561.559 175.749 563.827 Q177.647 566.096 177.647 569.429 Q177.647 574.545 174.129 577.346 Q170.61 580.147 164.129 580.147 Q161.953 580.147 159.638 579.707 Q157.347 579.29 154.893 578.434 L154.893 573.92 Q156.837 575.054 159.152 575.633 Q161.467 576.212 163.99 576.212 Q168.388 576.212 170.68 574.475 Q172.995 572.739 172.995 569.429 Q172.995 566.374 170.842 564.661 Q168.712 562.925 164.893 562.925 L160.865 562.925 L160.865 559.082 L165.078 559.082 Q168.527 559.082 170.356 557.716 Q172.184 556.327 172.184 553.735 Q172.184 551.073 170.286 549.661 Q168.411 548.226 164.893 548.226 Q162.971 548.226 160.772 548.642 Q158.573 549.059 155.934 549.939 L155.934 545.772 Q158.597 545.031 160.911 544.661 Q163.249 544.29 165.309 544.29 Q170.633 544.29 173.735 546.721 Q176.837 549.128 176.837 553.249 Q176.837 556.119 175.194 558.11 Q173.55 560.077 170.518 560.841 Z" fill="#000000" fill-rule="nonzero" fill-opacity="1" /><path clip-path="url(#clip470)" d="M168.064 358.15 L156.259 376.599 L168.064 376.599 L168.064 358.15 M166.837 354.076 L172.717 354.076 L172.717 376.599 L177.647 376.599 L177.647 380.487 L172.717 380.487 L172.717 388.636 L168.064 388.636 L168.064 380.487 L152.462 380.487 L152.462 375.974 L166.837 354.076 Z" fill="#000000" fill-rule="nonzero" fill-opacity="1" /><path clip-path="url(#clip470)" d="M156.745 163.236 L175.101 163.236 L175.101 167.171 L161.027 167.171 L161.027 175.643 Q162.046 175.296 163.064 175.134 Q164.083 174.948 165.101 174.948 Q170.888 174.948 174.268 178.12 Q177.647 181.291 177.647 186.708 Q177.647 192.286 174.175 195.388 Q170.703 198.467 164.384 198.467 Q162.208 198.467 159.939 198.096 Q157.694 197.726 155.286 196.985 L155.286 192.286 Q157.37 193.421 159.592 193.976 Q161.814 194.532 164.291 194.532 Q168.296 194.532 170.633 192.425 Q172.971 190.319 172.971 186.708 Q172.971 183.097 170.633 180.99 Q168.296 178.884 164.291 178.884 Q162.416 178.884 160.541 179.3 Q158.689 179.717 156.745 180.597 L156.745 163.236 Z" fill="#000000" fill-rule="nonzero" fill-opacity="1" /><path clip-path="url(#clip470)" d="M55.927 730.954 L61.4015 730.954 Q60.0328 733.437 59.3644 735.951 Q58.6642 738.434 58.6642 740.98 Q58.6642 746.678 62.2927 749.829 Q65.8893 752.98 72.4141 752.98 Q78.939 752.98 82.5674 749.829 Q86.1641 746.678 86.1641 740.98 Q86.1641 738.434 85.4957 735.951 Q84.7954 733.437 83.4268 730.954 L88.8377 730.954 Q89.9835 733.405 90.5564 736.047 Q91.1293 738.657 91.1293 741.617 Q91.1293 749.669 86.0686 754.412 Q81.0078 759.154 72.4141 759.154 Q63.6931 759.154 58.696 754.38 Q53.699 749.574 53.699 741.235 Q53.699 738.529 54.2719 735.951 Q54.813 733.373 55.927 730.954 Z" fill="#000000" fill-rule="nonzero" fill-opacity="1" /><path clip-path="url(#clip470)" d="M58.6642 706.956 Q58.6642 711.666 62.3563 714.403 Q66.0166 717.141 72.4141 717.141 Q78.8117 717.141 82.5038 714.435 Q86.1641 711.698 86.1641 706.956 Q86.1641 702.277 82.4719 699.539 Q78.7798 696.802 72.4141 696.802 Q66.0803 696.802 62.3881 699.539 Q58.6642 702.277 58.6642 706.956 M53.699 706.956 Q53.699 699.317 58.6642 694.956 Q63.6295 690.596 72.4141 690.596 Q81.167 690.596 86.1641 694.956 Q91.1293 699.317 91.1293 706.956 Q91.1293 714.626 86.1641 718.987 Q81.167 723.315 72.4141 723.315 Q63.6295 723.315 58.6642 718.987 Q53.699 714.626 53.699 706.956 Z" fill="#000000" fill-rule="nonzero" fill-opacity="1" /><path clip-path="url(#clip470)" d="M68.6902 651.256 L90.2063 651.256 L90.2063 657.112 L68.8812 657.112 Q63.8204 657.112 61.306 659.085 Q58.7915 661.059 58.7915 665.006 Q58.7915 669.748 61.8152 672.485 Q64.8389 675.222 70.0588 675.222 L90.2063 675.222 L90.2063 681.111 L54.5583 681.111 L54.5583 675.222 L60.0965 675.222 Q56.8818 673.122 55.2904 670.289 Q53.699 667.424 53.699 663.701 Q53.699 657.558 57.5184 654.407 Q61.306 651.256 68.6902 651.256 Z" fill="#000000" fill-rule="nonzero" fill-opacity="1" /><path clip-path="url(#clip470)" d="M55.6087 616.849 L61.1468 616.849 Q59.8737 619.332 59.2371 622.005 Q58.6006 624.679 58.6006 627.543 Q58.6006 631.904 59.9373 634.1 Q61.2741 636.264 63.9477 636.264 Q65.9848 636.264 67.1624 634.705 Q68.3083 633.145 69.3586 628.435 L69.8042 626.429 Q71.141 620.191 73.5918 617.581 Q76.0108 614.939 80.3713 614.939 Q85.3365 614.939 88.2329 618.886 Q91.1293 622.801 91.1293 629.676 Q91.1293 632.54 90.5564 635.66 Q90.0153 638.747 88.9013 642.184 L82.8539 642.184 Q84.5408 638.938 85.4002 635.787 Q86.2277 632.636 86.2277 629.549 Q86.2277 625.411 84.8273 623.183 Q83.395 620.955 80.8169 620.955 Q78.4297 620.955 77.1566 622.578 Q75.8834 624.169 74.7058 629.612 L74.2284 631.649 Q73.0825 637.092 70.7272 639.511 Q68.3401 641.93 64.2024 641.93 Q59.1735 641.93 56.4362 638.365 Q53.699 634.8 53.699 628.244 Q53.699 624.997 54.1764 622.132 Q54.6538 619.268 55.6087 616.849 Z" fill="#000000" fill-rule="nonzero" fill-opacity="1" /><path clip-path="url(#clip470)" d="M76.1381 606.218 L54.5583 606.218 L54.5583 600.362 L75.9153 600.362 Q80.976 600.362 83.5223 598.388 Q86.0367 596.415 86.0367 592.468 Q86.0367 587.726 83.013 584.989 Q79.9893 582.219 74.7694 582.219 L54.5583 582.219 L54.5583 576.363 L90.2063 576.363 L90.2063 582.219 L84.7318 582.219 Q87.9783 584.352 89.5697 587.185 Q91.1293 589.986 91.1293 593.71 Q91.1293 599.852 87.3099 603.035 Q83.4905 606.218 76.1381 606.218 M53.699 591.482 L53.699 591.482 Z" fill="#000000" fill-rule="nonzero" fill-opacity="1" /><path clip-path="url(#clip470)" d="M61.4015 536.546 Q57.4547 534.349 55.5768 531.294 Q53.699 528.238 53.699 524.101 Q53.699 518.531 57.6139 515.507 Q61.4969 512.483 68.6902 512.483 L90.2063 512.483 L90.2063 518.371 L68.8812 518.371 Q63.7568 518.371 61.2741 520.186 Q58.7915 522 58.7915 525.724 Q58.7915 530.275 61.8152 532.917 Q64.8389 535.559 70.0588 535.559 L90.2063 535.559 L90.2063 541.447 L68.8812 541.447 Q63.7249 541.447 61.2741 543.261 Q58.7915 545.076 58.7915 548.863 Q58.7915 553.351 61.8471 555.993 Q64.8708 558.635 70.0588 558.635 L90.2063 558.635 L90.2063 564.523 L54.5583 564.523 L54.5583 558.635 L60.0965 558.635 Q56.8182 556.629 55.2586 553.828 Q53.699 551.028 53.699 547.176 Q53.699 543.293 55.6723 540.588 Q57.6457 537.851 61.4015 536.546 Z" fill="#000000" fill-rule="nonzero" fill-opacity="1" /><path clip-path="url(#clip470)" d="M84.8591 495.137 L103.765 495.137 L103.765 501.025 L54.5583 501.025 L54.5583 495.137 L59.9692 495.137 Q56.7863 493.291 55.2586 490.49 Q53.699 487.657 53.699 483.742 Q53.699 477.249 58.8552 473.207 Q64.0114 469.133 72.4141 469.133 Q80.8169 469.133 85.9731 473.207 Q91.1293 477.249 91.1293 483.742 Q91.1293 487.657 89.6015 490.49 Q88.0419 493.291 84.8591 495.137 M72.4141 475.212 Q65.9529 475.212 62.2927 477.886 Q58.6006 480.527 58.6006 485.174 Q58.6006 489.821 62.2927 492.495 Q65.9529 495.137 72.4141 495.137 Q78.8753 495.137 82.5674 492.495 Q86.2277 489.821 86.2277 485.174 Q86.2277 480.527 82.5674 477.886 Q78.8753 475.212 72.4141 475.212 Z" fill="#000000" fill-rule="nonzero" fill-opacity="1" /><path clip-path="url(#clip470)" d="M44.4369 453.632 L54.5583 453.632 L54.5583 441.569 L59.1098 441.569 L59.1098 453.632 L78.4616 453.632 Q82.8221 453.632 84.0634 452.455 Q85.3047 451.245 85.3047 447.585 L85.3047 441.569 L90.2063 441.569 L90.2063 447.585 Q90.2063 454.364 87.6918 456.942 Q85.1455 459.52 78.4616 459.52 L59.1098 459.52 L59.1098 463.817 L54.5583 463.817 L54.5583 459.52 L44.4369 459.52 L44.4369 453.632 Z" fill="#000000" fill-rule="nonzero" fill-opacity="1" /><path clip-path="url(#clip470)" d="M54.5583 433.867 L54.5583 428.01 L90.2063 428.01 L90.2063 433.867 L54.5583 433.867 M40.6811 433.867 L40.6811 428.01 L48.0971 428.01 L48.0971 433.867 L40.6811 433.867 Z" fill="#000000" fill-rule="nonzero" fill-opacity="1" /><path clip-path="url(#clip470)" d="M58.6642 401.943 Q58.6642 406.653 62.3563 409.391 Q66.0166 412.128 72.4141 412.128 Q78.8117 412.128 82.5038 409.422 Q86.1641 406.685 86.1641 401.943 Q86.1641 397.264 82.4719 394.527 Q78.7798 391.789 72.4141 391.789 Q66.0803 391.789 62.3881 394.527 Q58.6642 397.264 58.6642 401.943 M53.699 401.943 Q53.699 394.304 58.6642 389.943 Q63.6295 385.583 72.4141 385.583 Q81.167 385.583 86.1641 389.943 Q91.1293 394.304 91.1293 401.943 Q91.1293 409.613 86.1641 413.974 Q81.167 418.303 72.4141 418.303 Q63.6295 418.303 58.6642 413.974 Q53.699 409.613 53.699 401.943 Z" fill="#000000" fill-rule="nonzero" fill-opacity="1" /><path clip-path="url(#clip470)" d="M68.6902 346.243 L90.2063 346.243 L90.2063 352.099 L68.8812 352.099 Q63.8204 352.099 61.306 354.073 Q58.7915 356.046 58.7915 359.993 Q58.7915 364.735 61.8152 367.472 Q64.8389 370.21 70.0588 370.21 L90.2063 370.21 L90.2063 376.098 L54.5583 376.098 L54.5583 370.21 L60.0965 370.21 Q56.8818 368.109 55.2904 365.276 Q53.699 362.412 53.699 358.688 Q53.699 352.545 57.5184 349.394 Q61.306 346.243 68.6902 346.243 Z" fill="#000000" fill-rule="nonzero" fill-opacity="1" /><path clip-path="url(#clip470)" d="M55.927 288.188 L61.4015 288.188 Q60.0328 290.67 59.3644 293.185 Q58.6642 295.667 58.6642 298.213 Q58.6642 303.911 62.2927 307.062 Q65.8893 310.213 72.4141 310.213 Q78.939 310.213 82.5674 307.062 Q86.1641 303.911 86.1641 298.213 Q86.1641 295.667 85.4957 293.185 Q84.7954 290.67 83.4268 288.188 L88.8377 288.188 Q89.9835 290.638 90.5564 293.28 Q91.1293 295.89 91.1293 298.85 Q91.1293 306.903 86.0686 311.645 Q81.0078 316.388 72.4141 316.388 Q63.6931 316.388 58.696 311.613 Q53.699 306.807 53.699 298.468 Q53.699 295.763 54.2719 293.185 Q54.813 290.606 55.927 288.188 Z" fill="#000000" fill-rule="nonzero" fill-opacity="1" /><polyline clip-path="url(#clip472)" style="stroke:#009af9; stroke-linecap:round; stroke-linejoin:round; stroke-width:4; stroke-opacity:1; fill:none" points="262.048,973.13 263.233,971.953 266.787,968.468 272.712,962.761 281.006,954.938 291.67,945.119 304.704,933.428 320.108,919.993 337.882,906.49 358.025,890.814 380.539,871.52 405.422,851.08 432.675,829.164 462.297,805.724 494.29,780.756 528.652,754.268 565.385,726.267 604.487,696.758 645.958,665.746 689.8,633.235 736.012,599.227 784.593,563.723 835.544,526.723 888.865,488.226 944.556,448.233 1002.62,406.741 1063.05,363.75 1125.85,319.258 1191.02,273.263 1258.56,225.762 1328.47,176.755 1400.75,126.239 1475.4,74.2116 "/>
<path clip-path="url(#clip470)" d="M1866.61 1000.1 L3152.76 1000.1 L3152.76 47.2441 L1866.61 47.2441  Z" fill="#ffffff" fill-rule="evenodd" fill-opacity="1"/>
<polyline clip-path="url(#clip471)" style="stroke:#000000; stroke-linecap:round; stroke-linejoin:round; stroke-width:2; stroke-opacity:0.1; fill:none" points="1903.01,1000.1 1903.01,47.2441 "/>
<polyline clip-path="url(#clip471)" style="stroke:#000000; stroke-linecap:round; stroke-linejoin:round; stroke-width:2; stroke-opacity:0.1; fill:none" points="2193.34,1000.1 2193.34,47.2441 "/>
<polyline clip-path="url(#clip471)" style="stroke:#000000; stroke-linecap:round; stroke-linejoin:round; stroke-width:2; stroke-opacity:0.1; fill:none" points="2483.67,1000.1 2483.67,47.2441 "/>
<polyline clip-path="url(#clip471)" style="stroke:#000000; stroke-linecap:round; stroke-linejoin:round; stroke-width:2; stroke-opacity:0.1; fill:none" points="2774.01,1000.1 2774.01,47.2441 "/>
<polyline clip-path="url(#clip471)" style="stroke:#000000; stroke-linecap:round; stroke-linejoin:round; stroke-width:2; stroke-opacity:0.1; fill:none" points="3064.34,1000.1 3064.34,47.2441 "/>
<polyline clip-path="url(#clip471)" style="stroke:#000000; stroke-linecap:round; stroke-linejoin:round; stroke-width:2; stroke-opacity:0.1; fill:none" points="1866.61,846.127 3152.76,846.127 "/>
<polyline clip-path="url(#clip471)" style="stroke:#000000; stroke-linecap:round; stroke-linejoin:round; stroke-width:2; stroke-opacity:0.1; fill:none" points="1866.61,675.008 3152.76,675.008 "/>
<polyline clip-path="url(#clip471)" style="stroke:#000000; stroke-linecap:round; stroke-linejoin:round; stroke-width:2; stroke-opacity:0.1; fill:none" points="1866.61,503.889 3152.76,503.889 "/>
<polyline clip-path="url(#clip471)" style="stroke:#000000; stroke-linecap:round; stroke-linejoin:round; stroke-width:2; stroke-opacity:0.1; fill:none" points="1866.61,332.77 3152.76,332.77 "/>
<polyline clip-path="url(#clip471)" style="stroke:#000000; stroke-linecap:round; stroke-linejoin:round; stroke-width:2; stroke-opacity:0.1; fill:none" points="1866.61,161.651 3152.76,161.651 "/>
<polyline clip-path="url(#clip470)" style="stroke:#000000; stroke-linecap:round; stroke-linejoin:round; stroke-width:4; stroke-opacity:1; fill:none" points="1866.61,1000.1 3152.76,1000.1 "/>
<polyline clip-path="url(#clip470)" style="stroke:#000000; stroke-linecap:round; stroke-linejoin:round; stroke-width:4; stroke-opacity:1; fill:none" points="1903.01,1000.1 1903.01,981.2 "/>
<polyline clip-path="url(#clip470)" style="stroke:#000000; stroke-linecap:round; stroke-linejoin:round; stroke-width:4; stroke-opacity:1; fill:none" points="2193.34,1000.1 2193.34,981.2 "/>
<polyline clip-path="url(#clip470)" style="stroke:#000000; stroke-linecap:round; stroke-linejoin:round; stroke-width:4; stroke-opacity:1; fill:none" points="2483.67,1000.1 2483.67,981.2 "/>
<polyline clip-path="url(#clip470)" style="stroke:#000000; stroke-linecap:round; stroke-linejoin:round; stroke-width:4; stroke-opacity:1; fill:none" points="2774.01,1000.1 2774.01,981.2 "/>
<polyline clip-path="url(#clip470)" style="stroke:#000000; stroke-linecap:round; stroke-linejoin:round; stroke-width:4; stroke-opacity:1; fill:none" points="3064.34,1000.1 3064.34,981.2 "/>
<path clip-path="url(#clip470)" d="M1903.01 1037.42 Q1899.4 1037.42 1897.57 1040.98 Q1895.76 1044.52 1895.76 1051.65 Q1895.76 1058.76 1897.57 1062.32 Q1899.4 1065.87 1903.01 1065.87 Q1906.64 1065.87 1908.45 1062.32 Q1910.28 1058.76 1910.28 1051.65 Q1910.28 1044.52 1908.45 1040.98 Q1906.64 1037.42 1903.01 1037.42 M1903.01 1033.71 Q1908.82 1033.71 1911.87 1038.32 Q1914.95 1042.9 1914.95 1051.65 Q1914.95 1060.38 1911.87 1064.99 Q1908.82 1069.57 1903.01 1069.57 Q1897.2 1069.57 1894.12 1064.99 Q1891.06 1060.38 1891.06 1051.65 Q1891.06 1042.9 1894.12 1038.32 Q1897.2 1033.71 1903.01 1033.71 Z" fill="#000000" fill-rule="nonzero" fill-opacity="1" /><path clip-path="url(#clip470)" d="M2172.61 1064.96 L2188.93 1064.96 L2188.93 1068.9 L2166.99 1068.9 L2166.99 1064.96 Q2169.65 1062.21 2174.23 1057.58 Q2178.84 1052.93 2180.02 1051.58 Q2182.26 1049.06 2183.14 1047.32 Q2184.05 1045.56 2184.05 1043.87 Q2184.05 1041.12 2182.1 1039.38 Q2180.18 1037.65 2177.08 1037.65 Q2174.88 1037.65 2172.43 1038.41 Q2170 1039.18 2167.22 1040.73 L2167.22 1036 Q2170.04 1034.87 2172.5 1034.29 Q2174.95 1033.71 2176.99 1033.71 Q2182.36 1033.71 2185.55 1036.4 Q2188.75 1039.08 2188.75 1043.57 Q2188.75 1045.7 2187.94 1047.62 Q2187.15 1049.52 2185.04 1052.12 Q2184.46 1052.79 2181.36 1056 Q2178.26 1059.2 2172.61 1064.96 Z" fill="#000000" fill-rule="nonzero" fill-opacity="1" /><path clip-path="url(#clip470)" d="M2198.79 1034.34 L2217.15 1034.34 L2217.15 1038.27 L2203.07 1038.27 L2203.07 1046.75 Q2204.09 1046.4 2205.11 1046.24 Q2206.13 1046.05 2207.15 1046.05 Q2212.94 1046.05 2216.32 1049.22 Q2219.69 1052.39 2219.69 1057.81 Q2219.69 1063.39 2216.22 1066.49 Q2212.75 1069.57 2206.43 1069.57 Q2204.25 1069.57 2201.99 1069.2 Q2199.74 1068.83 2197.33 1068.09 L2197.33 1063.39 Q2199.42 1064.52 2201.64 1065.08 Q2203.86 1065.63 2206.34 1065.63 Q2210.34 1065.63 2212.68 1063.53 Q2215.02 1061.42 2215.02 1057.81 Q2215.02 1054.2 2212.68 1052.09 Q2210.34 1049.99 2206.34 1049.99 Q2204.46 1049.99 2202.59 1050.4 Q2200.74 1050.82 2198.79 1051.7 L2198.79 1034.34 Z" fill="#000000" fill-rule="nonzero" fill-opacity="1" /><path clip-path="url(#clip470)" d="M2458.37 1034.34 L2476.73 1034.34 L2476.73 1038.27 L2462.65 1038.27 L2462.65 1046.75 Q2463.67 1046.4 2464.69 1046.24 Q2465.71 1046.05 2466.73 1046.05 Q2472.52 1046.05 2475.9 1049.22 Q2479.27 1052.39 2479.27 1057.81 Q2479.27 1063.39 2475.8 1066.49 Q2472.33 1069.57 2466.01 1069.57 Q2463.84 1069.57 2461.57 1069.2 Q2459.32 1068.83 2456.91 1068.09 L2456.91 1063.39 Q2459 1064.52 2461.22 1065.08 Q2463.44 1065.63 2465.92 1065.63 Q2469.92 1065.63 2472.26 1063.53 Q2474.6 1061.42 2474.6 1057.81 Q2474.6 1054.2 2472.26 1052.09 Q2469.92 1049.99 2465.92 1049.99 Q2464.04 1049.99 2462.17 1050.4 Q2460.32 1050.82 2458.37 1051.7 L2458.37 1034.34 Z" fill="#000000" fill-rule="nonzero" fill-opacity="1" /><path clip-path="url(#clip470)" d="M2498.49 1037.42 Q2494.88 1037.42 2493.05 1040.98 Q2491.24 1044.52 2491.24 1051.65 Q2491.24 1058.76 2493.05 1062.32 Q2494.88 1065.87 2498.49 1065.87 Q2502.12 1065.87 2503.93 1062.32 Q2505.76 1058.76 2505.76 1051.65 Q2505.76 1044.52 2503.93 1040.98 Q2502.12 1037.42 2498.49 1037.42 M2498.49 1033.71 Q2504.3 1033.71 2507.35 1038.32 Q2510.43 1042.9 2510.43 1051.65 Q2510.43 1060.38 2507.35 1064.99 Q2504.3 1069.57 2498.49 1069.57 Q2492.68 1069.57 2489.6 1064.99 Q2486.54 1060.38 2486.54 1051.65 Q2486.54 1042.9 2489.6 1038.32 Q2492.68 1033.71 2498.49 1033.71 Z" fill="#000000" fill-rule="nonzero" fill-opacity="1" /><path clip-path="url(#clip470)" d="M2747.86 1034.34 L2770.08 1034.34 L2770.08 1036.33 L2757.54 1068.9 L2752.65 1068.9 L2764.46 1038.27 L2747.86 1038.27 L2747.86 1034.34 Z" fill="#000000" fill-rule="nonzero" fill-opacity="1" /><path clip-path="url(#clip470)" d="M2779.25 1034.34 L2797.6 1034.34 L2797.6 1038.27 L2783.53 1038.27 L2783.53 1046.75 Q2784.55 1046.4 2785.57 1046.24 Q2786.59 1046.05 2787.6 1046.05 Q2793.39 1046.05 2796.77 1049.22 Q2800.15 1052.39 2800.15 1057.81 Q2800.15 1063.39 2796.68 1066.49 Q2793.21 1069.57 2786.89 1069.57 Q2784.71 1069.57 2782.44 1069.2 Q2780.2 1068.83 2777.79 1068.09 L2777.79 1063.39 Q2779.87 1064.52 2782.1 1065.08 Q2784.32 1065.63 2786.79 1065.63 Q2790.8 1065.63 2793.14 1063.53 Q2795.48 1061.42 2795.48 1057.81 Q2795.48 1054.2 2793.14 1052.09 Q2790.8 1049.99 2786.79 1049.99 Q2784.92 1049.99 2783.04 1050.4 Q2781.19 1050.82 2779.25 1051.7 L2779.25 1034.34 Z" fill="#000000" fill-rule="nonzero" fill-opacity="1" /><path clip-path="url(#clip470)" d="M3023.94 1064.96 L3031.58 1064.96 L3031.58 1038.6 L3023.27 1040.26 L3023.27 1036 L3031.54 1034.34 L3036.21 1034.34 L3036.21 1064.96 L3043.85 1064.96 L3043.85 1068.9 L3023.94 1068.9 L3023.94 1064.96 Z" fill="#000000" fill-rule="nonzero" fill-opacity="1" /><path clip-path="url(#clip470)" d="M3063.3 1037.42 Q3059.69 1037.42 3057.86 1040.98 Q3056.05 1044.52 3056.05 1051.65 Q3056.05 1058.76 3057.86 1062.32 Q3059.69 1065.87 3063.3 1065.87 Q3066.93 1065.87 3068.74 1062.32 Q3070.56 1058.76 3070.56 1051.65 Q3070.56 1044.52 3068.74 1040.98 Q3066.93 1037.42 3063.3 1037.42 M3063.3 1033.71 Q3069.11 1033.71 3072.16 1038.32 Q3075.24 1042.9 3075.24 1051.65 Q3075.24 1060.38 3072.16 1064.99 Q3069.11 1069.57 3063.3 1069.57 Q3057.49 1069.57 3054.41 1064.99 Q3051.35 1060.38 3051.35 1051.65 Q3051.35 1042.9 3054.41 1038.32 Q3057.49 1033.71 3063.3 1033.71 Z" fill="#000000" fill-rule="nonzero" fill-opacity="1" /><path clip-path="url(#clip470)" d="M3093.46 1037.42 Q3089.85 1037.42 3088.02 1040.98 Q3086.21 1044.52 3086.21 1051.65 Q3086.21 1058.76 3088.02 1062.32 Q3089.85 1065.87 3093.46 1065.87 Q3097.09 1065.87 3098.9 1062.32 Q3100.73 1058.76 3100.73 1051.65 Q3100.73 1044.52 3098.9 1040.98 Q3097.09 1037.42 3093.46 1037.42 M3093.46 1033.71 Q3099.27 1033.71 3102.32 1038.32 Q3105.4 1042.9 3105.4 1051.65 Q3105.4 1060.38 3102.32 1064.99 Q3099.27 1069.57 3093.46 1069.57 Q3087.65 1069.57 3084.57 1064.99 Q3081.51 1060.38 3081.51 1051.65 Q3081.51 1042.9 3084.57 1038.32 Q3087.65 1033.71 3093.46 1033.71 Z" fill="#000000" fill-rule="nonzero" fill-opacity="1" /><path clip-path="url(#clip470)" d="M2149.59 1121.31 L2155.45 1121.31 L2162.77 1149.13 L2170.06 1121.31 L2176.96 1121.31 L2184.28 1149.13 L2191.57 1121.31 L2197.43 1121.31 L2188.1 1156.96 L2181.2 1156.96 L2173.52 1127.74 L2165.82 1156.96 L2158.92 1156.96 L2149.59 1121.31 Z" fill="#000000" fill-rule="nonzero" fill-opacity="1" /><path clip-path="url(#clip470)" d="M2236.8 1137.67 L2236.8 1140.54 L2209.87 1140.54 Q2210.25 1146.59 2213.5 1149.77 Q2216.78 1152.92 2222.6 1152.92 Q2225.98 1152.92 2229.13 1152.09 Q2232.31 1151.26 2235.43 1149.61 L2235.43 1155.15 Q2232.28 1156.48 2228.97 1157.18 Q2225.66 1157.88 2222.25 1157.88 Q2213.72 1157.88 2208.73 1152.92 Q2203.76 1147.95 2203.76 1139.49 Q2203.76 1130.74 2208.47 1125.61 Q2213.21 1120.45 2221.24 1120.45 Q2228.43 1120.45 2232.6 1125.1 Q2236.8 1129.72 2236.8 1137.67 M2230.94 1135.95 Q2230.88 1131.15 2228.24 1128.28 Q2225.63 1125.42 2221.3 1125.42 Q2216.4 1125.42 2213.44 1128.19 Q2210.51 1130.96 2210.06 1135.99 L2230.94 1135.95 Z" fill="#000000" fill-rule="nonzero" fill-opacity="1" /><path clip-path="url(#clip470)" d="M2262.61 1139.04 Q2255.52 1139.04 2252.78 1140.67 Q2250.04 1142.29 2250.04 1146.2 Q2250.04 1149.32 2252.08 1151.17 Q2254.15 1152.98 2257.68 1152.98 Q2262.55 1152.98 2265.48 1149.55 Q2268.44 1146.08 2268.44 1140.35 L2268.44 1139.04 L2262.61 1139.04 M2274.29 1136.62 L2274.29 1156.96 L2268.44 1156.96 L2268.44 1151.55 Q2266.43 1154.8 2263.44 1156.36 Q2260.45 1157.88 2256.12 1157.88 Q2250.65 1157.88 2247.4 1154.83 Q2244.18 1151.74 2244.18 1146.59 Q2244.18 1140.57 2248.19 1137.51 Q2252.24 1134.46 2260.23 1134.46 L2268.44 1134.46 L2268.44 1133.89 Q2268.44 1129.84 2265.76 1127.65 Q2263.12 1125.42 2258.32 1125.42 Q2255.26 1125.42 2252.36 1126.15 Q2249.47 1126.88 2246.79 1128.35 L2246.79 1122.94 Q2250.01 1121.7 2253.03 1121.09 Q2256.06 1120.45 2258.92 1120.45 Q2266.66 1120.45 2270.47 1124.46 Q2274.29 1128.48 2274.29 1136.62 Z" fill="#000000" fill-rule="nonzero" fill-opacity="1" /><path clip-path="url(#clip470)" d="M2286.36 1107.44 L2292.21 1107.44 L2292.21 1156.96 L2286.36 1156.96 L2286.36 1107.44 Z" fill="#000000" fill-rule="nonzero" fill-opacity="1" /><path clip-path="url(#clip470)" d="M2310.26 1111.19 L2310.26 1121.31 L2322.32 1121.31 L2322.32 1125.87 L2310.26 1125.87 L2310.26 1145.22 Q2310.26 1149.58 2311.44 1150.82 Q2312.65 1152.06 2316.31 1152.06 L2322.32 1152.06 L2322.32 1156.96 L2316.31 1156.96 Q2309.53 1156.96 2306.95 1154.45 Q2304.37 1151.9 2304.37 1145.22 L2304.37 1125.87 L2300.08 1125.87 L2300.08 1121.31 L2304.37 1121.31 L2304.37 1111.19 L2310.26 1111.19 Z" fill="#000000" fill-rule="nonzero" fill-opacity="1" /><path clip-path="url(#clip470)" d="M2359.66 1135.45 L2359.66 1156.96 L2353.8 1156.96 L2353.8 1135.64 Q2353.8 1130.58 2351.83 1128.06 Q2349.85 1125.55 2345.91 1125.55 Q2341.17 1125.55 2338.43 1128.57 Q2335.69 1131.59 2335.69 1136.81 L2335.69 1156.96 L2329.8 1156.96 L2329.8 1107.44 L2335.69 1107.44 L2335.69 1126.85 Q2337.79 1123.64 2340.62 1122.05 Q2343.49 1120.45 2347.21 1120.45 Q2353.36 1120.45 2356.51 1124.27 Q2359.66 1128.06 2359.66 1135.45 Z" fill="#000000" fill-rule="nonzero" fill-opacity="1" /><path clip-path="url(#clip470)" d="M2368.38 1136.5 L2385.53 1136.5 L2385.53 1141.72 L2368.38 1141.72 L2368.38 1136.5 Z" fill="#000000" fill-rule="nonzero" fill-opacity="1" /><path clip-path="url(#clip470)" d="M2394.86 1121.31 L2400.72 1121.31 L2400.72 1156.96 L2394.86 1156.96 L2394.86 1121.31 M2394.86 1107.44 L2400.72 1107.44 L2400.72 1114.85 L2394.86 1114.85 L2394.86 1107.44 Z" fill="#000000" fill-rule="nonzero" fill-opacity="1" /><path clip-path="url(#clip470)" d="M2442.6 1135.45 L2442.6 1156.96 L2436.75 1156.96 L2436.75 1135.64 Q2436.75 1130.58 2434.77 1128.06 Q2432.8 1125.55 2428.85 1125.55 Q2424.11 1125.55 2421.37 1128.57 Q2418.64 1131.59 2418.64 1136.81 L2418.64 1156.96 L2412.75 1156.96 L2412.75 1121.31 L2418.64 1121.31 L2418.64 1126.85 Q2420.74 1123.64 2423.57 1122.05 Q2426.43 1120.45 2430.16 1120.45 Q2436.3 1120.45 2439.45 1124.27 Q2442.6 1128.06 2442.6 1135.45 Z" fill="#000000" fill-rule="nonzero" fill-opacity="1" /><path clip-path="url(#clip470)" d="M2479.94 1122.68 L2479.94 1128.16 Q2477.46 1126.79 2474.94 1126.12 Q2472.46 1125.42 2469.91 1125.42 Q2464.21 1125.42 2461.06 1129.05 Q2457.91 1132.64 2457.91 1139.17 Q2457.91 1145.69 2461.06 1149.32 Q2464.21 1152.92 2469.91 1152.92 Q2472.46 1152.92 2474.94 1152.25 Q2477.46 1151.55 2479.94 1150.18 L2479.94 1155.59 Q2477.49 1156.74 2474.85 1157.31 Q2472.24 1157.88 2469.28 1157.88 Q2461.22 1157.88 2456.48 1152.82 Q2451.74 1147.76 2451.74 1139.17 Q2451.74 1130.45 2456.51 1125.45 Q2461.32 1120.45 2469.66 1120.45 Q2472.36 1120.45 2474.94 1121.03 Q2477.52 1121.57 2479.94 1122.68 Z" fill="#000000" fill-rule="nonzero" fill-opacity="1" /><path clip-path="url(#clip470)" d="M2503.94 1125.42 Q2499.23 1125.42 2496.49 1129.11 Q2493.75 1132.77 2493.75 1139.17 Q2493.75 1145.57 2496.46 1149.26 Q2499.19 1152.92 2503.94 1152.92 Q2508.62 1152.92 2511.35 1149.23 Q2514.09 1145.54 2514.09 1139.17 Q2514.09 1132.84 2511.35 1129.14 Q2508.62 1125.42 2503.94 1125.42 M2503.94 1120.45 Q2511.58 1120.45 2515.94 1125.42 Q2520.3 1130.38 2520.3 1139.17 Q2520.3 1147.92 2515.94 1152.92 Q2511.58 1157.88 2503.94 1157.88 Q2496.27 1157.88 2491.91 1152.92 Q2487.58 1147.92 2487.58 1139.17 Q2487.58 1130.38 2491.91 1125.42 Q2496.27 1120.45 2503.94 1120.45 Z" fill="#000000" fill-rule="nonzero" fill-opacity="1" /><path clip-path="url(#clip470)" d="M2557.76 1128.16 Q2559.96 1124.21 2563.01 1122.33 Q2566.07 1120.45 2570.2 1120.45 Q2575.77 1120.45 2578.8 1124.37 Q2581.82 1128.25 2581.82 1135.45 L2581.82 1156.96 L2575.93 1156.96 L2575.93 1135.64 Q2575.93 1130.51 2574.12 1128.03 Q2572.3 1125.55 2568.58 1125.55 Q2564.03 1125.55 2561.39 1128.57 Q2558.75 1131.59 2558.75 1136.81 L2558.75 1156.96 L2552.86 1156.96 L2552.86 1135.64 Q2552.86 1130.48 2551.04 1128.03 Q2549.23 1125.55 2545.44 1125.55 Q2540.95 1125.55 2538.31 1128.6 Q2535.67 1131.63 2535.67 1136.81 L2535.67 1156.96 L2529.78 1156.96 L2529.78 1121.31 L2535.67 1121.31 L2535.67 1126.85 Q2537.68 1123.57 2540.48 1122.01 Q2543.28 1120.45 2547.13 1120.45 Q2551.01 1120.45 2553.72 1122.43 Q2556.45 1124.4 2557.76 1128.16 Z" fill="#000000" fill-rule="nonzero" fill-opacity="1" /><path clip-path="url(#clip470)" d="M2623.99 1137.67 L2623.99 1140.54 L2597.07 1140.54 Q2597.45 1146.59 2600.7 1149.77 Q2603.97 1152.92 2609.8 1152.92 Q2613.17 1152.92 2616.32 1152.09 Q2619.51 1151.26 2622.63 1149.61 L2622.63 1155.15 Q2619.47 1156.48 2616.16 1157.18 Q2612.85 1157.88 2609.45 1157.88 Q2600.92 1157.88 2595.92 1152.92 Q2590.96 1147.95 2590.96 1139.49 Q2590.96 1130.74 2595.67 1125.61 Q2600.41 1120.45 2608.43 1120.45 Q2615.62 1120.45 2619.79 1125.1 Q2623.99 1129.72 2623.99 1137.67 M2618.14 1135.95 Q2618.07 1131.15 2615.43 1128.28 Q2612.82 1125.42 2608.49 1125.42 Q2603.59 1125.42 2600.63 1128.19 Q2597.7 1130.96 2597.26 1135.99 L2618.14 1135.95 Z" fill="#000000" fill-rule="nonzero" fill-opacity="1" /><path clip-path="url(#clip470)" d="M2674.98 1126.79 Q2674 1126.22 2672.82 1125.96 Q2671.67 1125.67 2670.27 1125.67 Q2665.31 1125.67 2662.63 1128.92 Q2659.99 1132.14 2659.99 1138.18 L2659.99 1156.96 L2654.1 1156.96 L2654.1 1121.31 L2659.99 1121.31 L2659.99 1126.85 Q2661.84 1123.61 2664.8 1122.05 Q2667.76 1120.45 2671.99 1120.45 Q2672.6 1120.45 2673.33 1120.55 Q2674.06 1120.61 2674.95 1120.77 L2674.98 1126.79 Z" fill="#000000" fill-rule="nonzero" fill-opacity="1" /><path clip-path="url(#clip470)" d="M2697.33 1139.04 Q2690.23 1139.04 2687.49 1140.67 Q2684.75 1142.29 2684.75 1146.2 Q2684.75 1149.32 2686.79 1151.17 Q2688.86 1152.98 2692.39 1152.98 Q2697.26 1152.98 2700.19 1149.55 Q2703.15 1146.08 2703.15 1140.35 L2703.15 1139.04 L2697.33 1139.04 M2709.01 1136.62 L2709.01 1156.96 L2703.15 1156.96 L2703.15 1151.55 Q2701.15 1154.8 2698.15 1156.36 Q2695.16 1157.88 2690.83 1157.88 Q2685.36 1157.88 2682.11 1154.83 Q2678.9 1151.74 2678.9 1146.59 Q2678.9 1140.57 2682.91 1137.51 Q2686.95 1134.46 2694.94 1134.46 L2703.15 1134.46 L2703.15 1133.89 Q2703.15 1129.84 2700.48 1127.65 Q2697.84 1125.42 2693.03 1125.42 Q2689.97 1125.42 2687.08 1126.15 Q2684.18 1126.88 2681.51 1128.35 L2681.51 1122.94 Q2684.72 1121.7 2687.75 1121.09 Q2690.77 1120.45 2693.63 1120.45 Q2701.37 1120.45 2705.19 1124.46 Q2709.01 1128.48 2709.01 1136.62 Z" fill="#000000" fill-rule="nonzero" fill-opacity="1" /><path clip-path="url(#clip470)" d="M2726.86 1111.19 L2726.86 1121.31 L2738.93 1121.31 L2738.93 1125.87 L2726.86 1125.87 L2726.86 1145.22 Q2726.86 1149.58 2728.04 1150.82 Q2729.25 1152.06 2732.91 1152.06 L2738.93 1152.06 L2738.93 1156.96 L2732.91 1156.96 Q2726.13 1156.96 2723.55 1154.45 Q2720.98 1151.9 2720.98 1145.22 L2720.98 1125.87 L2716.68 1125.87 L2716.68 1121.31 L2720.98 1121.31 L2720.98 1111.19 L2726.86 1111.19 Z" fill="#000000" fill-rule="nonzero" fill-opacity="1" /><path clip-path="url(#clip470)" d="M2746.63 1121.31 L2752.49 1121.31 L2752.49 1156.96 L2746.63 1156.96 L2746.63 1121.31 M2746.63 1107.44 L2752.49 1107.44 L2752.49 1114.85 L2746.63 1114.85 L2746.63 1107.44 Z" fill="#000000" fill-rule="nonzero" fill-opacity="1" /><path clip-path="url(#clip470)" d="M2778.55 1125.42 Q2773.84 1125.42 2771.11 1129.11 Q2768.37 1132.77 2768.37 1139.17 Q2768.37 1145.57 2771.07 1149.26 Q2773.81 1152.92 2778.55 1152.92 Q2783.23 1152.92 2785.97 1149.23 Q2788.71 1145.54 2788.71 1139.17 Q2788.71 1132.84 2785.97 1129.14 Q2783.23 1125.42 2778.55 1125.42 M2778.55 1120.45 Q2786.19 1120.45 2790.55 1125.42 Q2794.91 1130.38 2794.91 1139.17 Q2794.91 1147.92 2790.55 1152.92 Q2786.19 1157.88 2778.55 1157.88 Q2770.88 1157.88 2766.52 1152.92 Q2762.19 1147.92 2762.19 1139.17 Q2762.19 1130.38 2766.52 1125.42 Q2770.88 1120.45 2778.55 1120.45 Z" fill="#000000" fill-rule="nonzero" fill-opacity="1" /><path clip-path="url(#clip470)" d="M2821.94 1121.31 L2827.79 1121.31 L2835.11 1149.13 L2842.4 1121.31 L2849.31 1121.31 L2856.63 1149.13 L2863.92 1121.31 L2869.77 1121.31 L2860.45 1156.96 L2853.54 1156.96 L2845.87 1127.74 L2838.17 1156.96 L2831.26 1156.96 L2821.94 1121.31 Z" fill="#000000" fill-rule="nonzero" fill-opacity="1" /><polyline clip-path="url(#clip470)" style="stroke:#000000; stroke-linecap:round; stroke-linejoin:round; stroke-width:4; stroke-opacity:1; fill:none" points="1866.61,1000.1 1866.61,47.2441 "/>
<polyline clip-path="url(#clip470)" style="stroke:#000000; stroke-linecap:round; stroke-linejoin:round; stroke-width:4; stroke-opacity:1; fill:none" points="1866.61,846.127 1885.51,846.127 "/>
<polyline clip-path="url(#clip470)" style="stroke:#000000; stroke-linecap:round; stroke-linejoin:round; stroke-width:4; stroke-opacity:1; fill:none" points="1866.61,675.008 1885.51,675.008 "/>
<polyline clip-path="url(#clip470)" style="stroke:#000000; stroke-linecap:round; stroke-linejoin:round; stroke-width:4; stroke-opacity:1; fill:none" points="1866.61,503.889 1885.51,503.889 "/>
<polyline clip-path="url(#clip470)" style="stroke:#000000; stroke-linecap:round; stroke-linejoin:round; stroke-width:4; stroke-opacity:1; fill:none" points="1866.61,332.77 1885.51,332.77 "/>
<polyline clip-path="url(#clip470)" style="stroke:#000000; stroke-linecap:round; stroke-linejoin:round; stroke-width:4; stroke-opacity:1; fill:none" points="1866.61,161.651 1885.51,161.651 "/>
<path clip-path="url(#clip470)" d="M1713.26 846.578 L1742.94 846.578 L1742.94 850.513 L1713.26 850.513 L1713.26 846.578 Z" fill="#000000" fill-rule="nonzero" fill-opacity="1" /><path clip-path="url(#clip470)" d="M1753.84 859.472 L1761.48 859.472 L1761.48 833.106 L1753.17 834.773 L1753.17 830.514 L1761.43 828.847 L1766.11 828.847 L1766.11 859.472 L1773.75 859.472 L1773.75 863.407 L1753.84 863.407 L1753.84 859.472 Z" fill="#000000" fill-rule="nonzero" fill-opacity="1" /><path clip-path="url(#clip470)" d="M1783.19 857.527 L1788.08 857.527 L1788.08 863.407 L1783.19 863.407 L1783.19 857.527 Z" fill="#000000" fill-rule="nonzero" fill-opacity="1" /><path clip-path="url(#clip470)" d="M1802.29 859.472 L1818.61 859.472 L1818.61 863.407 L1796.66 863.407 L1796.66 859.472 Q1799.33 856.717 1803.91 852.088 Q1808.52 847.435 1809.7 846.092 Q1811.94 843.569 1812.82 841.833 Q1813.72 840.074 1813.72 838.384 Q1813.72 835.629 1811.78 833.893 Q1809.86 832.157 1806.76 832.157 Q1804.56 832.157 1802.1 832.921 Q1799.67 833.685 1796.89 835.236 L1796.89 830.514 Q1799.72 829.379 1802.17 828.801 Q1804.63 828.222 1806.66 828.222 Q1812.03 828.222 1815.23 830.907 Q1818.42 833.592 1818.42 838.083 Q1818.42 840.213 1817.61 842.134 Q1816.83 844.032 1814.72 846.625 Q1814.14 847.296 1811.04 850.513 Q1807.94 853.708 1802.29 859.472 Z" fill="#000000" fill-rule="nonzero" fill-opacity="1" /><path clip-path="url(#clip470)" d="M1711.85 675.459 L1741.52 675.459 L1741.52 679.394 L1711.85 679.394 L1711.85 675.459 Z" fill="#000000" fill-rule="nonzero" fill-opacity="1" /><path clip-path="url(#clip470)" d="M1761.62 660.807 Q1758.01 660.807 1756.18 664.371 Q1754.37 667.913 1754.37 675.043 Q1754.37 682.149 1756.18 685.714 Q1758.01 689.255 1761.62 689.255 Q1765.25 689.255 1767.06 685.714 Q1768.89 682.149 1768.89 675.043 Q1768.89 667.913 1767.06 664.371 Q1765.25 660.807 1761.62 660.807 M1761.62 657.103 Q1767.43 657.103 1770.48 661.709 Q1773.56 666.293 1773.56 675.043 Q1773.56 683.769 1770.48 688.376 Q1767.43 692.959 1761.62 692.959 Q1755.81 692.959 1752.73 688.376 Q1749.67 683.769 1749.67 675.043 Q1749.67 666.293 1752.73 661.709 Q1755.81 657.103 1761.62 657.103 Z" fill="#000000" fill-rule="nonzero" fill-opacity="1" /><path clip-path="url(#clip470)" d="M1781.78 686.408 L1786.66 686.408 L1786.66 692.288 L1781.78 692.288 L1781.78 686.408 Z" fill="#000000" fill-rule="nonzero" fill-opacity="1" /><path clip-path="url(#clip470)" d="M1796.99 691.57 L1796.99 687.311 Q1798.75 688.144 1800.55 688.584 Q1802.36 689.024 1804.09 689.024 Q1808.72 689.024 1811.15 685.922 Q1813.61 682.797 1813.96 676.455 Q1812.61 678.445 1810.55 679.51 Q1808.49 680.575 1805.99 680.575 Q1800.81 680.575 1797.77 677.45 Q1794.77 674.302 1794.77 668.862 Q1794.77 663.538 1797.91 660.32 Q1801.06 657.103 1806.29 657.103 Q1812.29 657.103 1815.44 661.709 Q1818.61 666.293 1818.61 675.043 Q1818.61 683.214 1814.72 688.098 Q1810.85 692.959 1804.3 692.959 Q1802.54 692.959 1800.74 692.612 Q1798.93 692.265 1796.99 691.57 M1806.29 676.918 Q1809.44 676.918 1811.27 674.765 Q1813.12 672.612 1813.12 668.862 Q1813.12 665.135 1811.27 662.982 Q1809.44 660.807 1806.29 660.807 Q1803.14 660.807 1801.29 662.982 Q1799.46 665.135 1799.46 668.862 Q1799.46 672.612 1801.29 674.765 Q1803.14 676.918 1806.29 676.918 Z" fill="#000000" fill-rule="nonzero" fill-opacity="1" /><path clip-path="url(#clip470)" d="M1711.5 504.34 L1741.18 504.34 L1741.18 508.275 L1711.5 508.275 L1711.5 504.34 Z" fill="#000000" fill-rule="nonzero" fill-opacity="1" /><path clip-path="url(#clip470)" d="M1761.27 489.687 Q1757.66 489.687 1755.83 493.252 Q1754.02 496.794 1754.02 503.923 Q1754.02 511.03 1755.83 514.595 Q1757.66 518.136 1761.27 518.136 Q1764.9 518.136 1766.71 514.595 Q1768.54 511.03 1768.54 503.923 Q1768.54 496.794 1766.71 493.252 Q1764.9 489.687 1761.27 489.687 M1761.27 485.984 Q1767.08 485.984 1770.14 490.59 Q1773.21 495.174 1773.21 503.923 Q1773.21 512.65 1770.14 517.257 Q1767.08 521.84 1761.27 521.84 Q1755.46 521.84 1752.38 517.257 Q1749.33 512.65 1749.33 503.923 Q1749.33 495.174 1752.38 490.59 Q1755.46 485.984 1761.27 485.984 Z" fill="#000000" fill-rule="nonzero" fill-opacity="1" /><path clip-path="url(#clip470)" d="M1781.43 515.289 L1786.32 515.289 L1786.32 521.169 L1781.43 521.169 L1781.43 515.289 Z" fill="#000000" fill-rule="nonzero" fill-opacity="1" /><path clip-path="url(#clip470)" d="M1807.08 502.025 Q1803.93 502.025 1802.08 504.178 Q1800.25 506.331 1800.25 510.081 Q1800.25 513.808 1802.08 515.984 Q1803.93 518.136 1807.08 518.136 Q1810.23 518.136 1812.06 515.984 Q1813.91 513.808 1813.91 510.081 Q1813.91 506.331 1812.06 504.178 Q1810.23 502.025 1807.08 502.025 M1816.36 487.373 L1816.36 491.632 Q1814.6 490.799 1812.8 490.359 Q1811.02 489.919 1809.26 489.919 Q1804.63 489.919 1802.17 493.044 Q1799.74 496.169 1799.39 502.488 Q1800.76 500.474 1802.82 499.41 Q1804.88 498.322 1807.36 498.322 Q1812.57 498.322 1815.58 501.493 Q1818.61 504.641 1818.61 510.081 Q1818.61 515.405 1815.46 518.622 Q1812.31 521.84 1807.08 521.84 Q1801.08 521.84 1797.91 517.257 Q1794.74 512.65 1794.74 503.923 Q1794.74 495.729 1798.63 490.868 Q1802.52 485.984 1809.07 485.984 Q1810.83 485.984 1812.61 486.331 Q1814.42 486.678 1816.36 487.373 Z" fill="#000000" fill-rule="nonzero" fill-opacity="1" /><path clip-path="url(#clip470)" d="M1712.31 333.221 L1741.99 333.221 L1741.99 337.156 L1712.31 337.156 L1712.31 333.221 Z" fill="#000000" fill-rule="nonzero" fill-opacity="1" /><path clip-path="url(#clip470)" d="M1762.08 318.568 Q1758.47 318.568 1756.64 322.133 Q1754.83 325.675 1754.83 332.804 Q1754.83 339.911 1756.64 343.476 Q1758.47 347.017 1762.08 347.017 Q1765.71 347.017 1767.52 343.476 Q1769.35 339.911 1769.35 332.804 Q1769.35 325.675 1767.52 322.133 Q1765.71 318.568 1762.08 318.568 M1762.08 314.865 Q1767.89 314.865 1770.95 319.471 Q1774.02 324.054 1774.02 332.804 Q1774.02 341.531 1770.95 346.138 Q1767.89 350.721 1762.08 350.721 Q1756.27 350.721 1753.19 346.138 Q1750.14 341.531 1750.14 332.804 Q1750.14 324.054 1753.19 319.471 Q1756.27 314.865 1762.08 314.865 Z" fill="#000000" fill-rule="nonzero" fill-opacity="1" /><path clip-path="url(#clip470)" d="M1782.24 344.17 L1787.13 344.17 L1787.13 350.05 L1782.24 350.05 L1782.24 344.17 Z" fill="#000000" fill-rule="nonzero" fill-opacity="1" /><path clip-path="url(#clip470)" d="M1811.48 331.415 Q1814.83 332.133 1816.71 334.402 Q1818.61 336.67 1818.61 340.003 Q1818.61 345.119 1815.09 347.92 Q1811.57 350.721 1805.09 350.721 Q1802.91 350.721 1800.6 350.281 Q1798.31 349.864 1795.85 349.008 L1795.85 344.494 Q1797.8 345.628 1800.11 346.207 Q1802.43 346.786 1804.95 346.786 Q1809.35 346.786 1811.64 345.05 Q1813.96 343.314 1813.96 340.003 Q1813.96 336.948 1811.8 335.235 Q1809.67 333.499 1805.85 333.499 L1801.83 333.499 L1801.83 329.656 L1806.04 329.656 Q1809.49 329.656 1811.32 328.291 Q1813.14 326.902 1813.14 324.309 Q1813.14 321.647 1811.25 320.235 Q1809.37 318.8 1805.85 318.8 Q1803.93 318.8 1801.73 319.216 Q1799.53 319.633 1796.89 320.513 L1796.89 316.346 Q1799.56 315.605 1801.87 315.235 Q1804.21 314.865 1806.27 314.865 Q1811.59 314.865 1814.7 317.295 Q1817.8 319.703 1817.8 323.823 Q1817.8 326.693 1816.15 328.684 Q1814.51 330.652 1811.48 331.415 Z" fill="#000000" fill-rule="nonzero" fill-opacity="1" /><path clip-path="url(#clip470)" d="M1761.43 147.449 Q1757.82 147.449 1755.99 151.014 Q1754.19 154.556 1754.19 161.685 Q1754.19 168.792 1755.99 172.357 Q1757.82 175.898 1761.43 175.898 Q1765.07 175.898 1766.87 172.357 Q1768.7 168.792 1768.7 161.685 Q1768.7 154.556 1766.87 151.014 Q1765.07 147.449 1761.43 147.449 M1761.43 143.746 Q1767.24 143.746 1770.3 148.352 Q1773.38 152.935 1773.38 161.685 Q1773.38 170.412 1770.3 175.019 Q1767.24 179.602 1761.43 179.602 Q1755.62 179.602 1752.54 175.019 Q1749.49 170.412 1749.49 161.685 Q1749.49 152.935 1752.54 148.352 Q1755.62 143.746 1761.43 143.746 Z" fill="#000000" fill-rule="nonzero" fill-opacity="1" /><path clip-path="url(#clip470)" d="M1781.59 173.051 L1786.48 173.051 L1786.48 178.931 L1781.59 178.931 L1781.59 173.051 Z" fill="#000000" fill-rule="nonzero" fill-opacity="1" /><path clip-path="url(#clip470)" d="M1806.66 147.449 Q1803.05 147.449 1801.22 151.014 Q1799.42 154.556 1799.42 161.685 Q1799.42 168.792 1801.22 172.357 Q1803.05 175.898 1806.66 175.898 Q1810.3 175.898 1812.1 172.357 Q1813.93 168.792 1813.93 161.685 Q1813.93 154.556 1812.1 151.014 Q1810.3 147.449 1806.66 147.449 M1806.66 143.746 Q1812.47 143.746 1815.53 148.352 Q1818.61 152.935 1818.61 161.685 Q1818.61 170.412 1815.53 175.019 Q1812.47 179.602 1806.66 179.602 Q1800.85 179.602 1797.77 175.019 Q1794.72 170.412 1794.72 161.685 Q1794.72 152.935 1797.77 148.352 Q1800.85 143.746 1806.66 143.746 Z" fill="#000000" fill-rule="nonzero" fill-opacity="1" /><path clip-path="url(#clip470)" d="M1614.65 659.595 L1620.19 659.595 Q1618.91 662.077 1618.28 664.751 Q1617.64 667.424 1617.64 670.289 Q1617.64 674.65 1618.98 676.846 Q1620.31 679.01 1622.99 679.01 Q1625.02 679.01 1626.2 677.45 Q1627.35 675.891 1628.4 671.18 L1628.84 669.175 Q1630.18 662.937 1632.63 660.327 Q1635.05 657.685 1639.41 657.685 Q1644.38 657.685 1647.27 661.632 Q1650.17 665.547 1650.17 672.422 Q1650.17 675.286 1649.6 678.405 Q1649.05 681.493 1647.94 684.93 L1641.89 684.93 Q1643.58 681.684 1644.44 678.533 Q1645.27 675.382 1645.27 672.294 Q1645.27 668.157 1643.87 665.929 Q1642.43 663.701 1639.86 663.701 Q1637.47 663.701 1636.2 665.324 Q1634.92 666.915 1633.75 672.358 L1633.27 674.395 Q1632.12 679.838 1629.77 682.257 Q1627.38 684.676 1623.24 684.676 Q1618.21 684.676 1615.48 681.111 Q1612.74 677.546 1612.74 670.989 Q1612.74 667.743 1613.22 664.878 Q1613.69 662.014 1614.65 659.595 Z" fill="#000000" fill-rule="nonzero" fill-opacity="1" /><path clip-path="url(#clip470)" d="M1631.33 632.158 Q1631.33 639.256 1632.95 641.993 Q1634.57 644.731 1638.49 644.731 Q1641.61 644.731 1643.45 642.694 Q1645.27 640.625 1645.27 637.092 Q1645.27 632.222 1641.83 629.294 Q1638.36 626.334 1632.63 626.334 L1631.33 626.334 L1631.33 632.158 M1628.91 620.477 L1649.25 620.477 L1649.25 626.334 L1643.84 626.334 Q1647.08 628.339 1648.64 631.331 Q1650.17 634.323 1650.17 638.651 Q1650.17 644.126 1647.11 647.372 Q1644.03 650.587 1638.87 650.587 Q1632.85 650.587 1629.8 646.577 Q1626.74 642.535 1626.74 634.546 L1626.74 626.334 L1626.17 626.334 Q1622.13 626.334 1619.93 629.007 Q1617.7 631.649 1617.7 636.455 Q1617.7 639.511 1618.44 642.407 Q1619.17 645.304 1620.63 647.977 L1615.22 647.977 Q1613.98 644.763 1613.38 641.739 Q1612.74 638.715 1612.74 635.851 Q1612.74 628.116 1616.75 624.297 Q1620.76 620.477 1628.91 620.477 Z" fill="#000000" fill-rule="nonzero" fill-opacity="1" /><path clip-path="url(#clip470)" d="M1613.6 612.616 L1613.6 606.409 L1643.52 595.269 L1613.6 584.129 L1613.6 577.923 L1649.25 591.291 L1649.25 599.248 L1613.6 612.616 Z" fill="#000000" fill-rule="nonzero" fill-opacity="1" /><path clip-path="url(#clip470)" d="M1613.6 569.838 L1613.6 563.982 L1649.25 563.982 L1649.25 569.838 L1613.6 569.838 M1599.72 569.838 L1599.72 563.982 L1607.14 563.982 L1607.14 569.838 L1599.72 569.838 Z" fill="#000000" fill-rule="nonzero" fill-opacity="1" /><path clip-path="url(#clip470)" d="M1627.73 522.095 L1649.25 522.095 L1649.25 527.952 L1627.92 527.952 Q1622.86 527.952 1620.35 529.925 Q1617.83 531.899 1617.83 535.845 Q1617.83 540.588 1620.85 543.325 Q1623.88 546.062 1629.1 546.062 L1649.25 546.062 L1649.25 551.951 L1613.6 551.951 L1613.6 546.062 L1619.14 546.062 Q1615.92 543.962 1614.33 541.129 Q1612.74 538.264 1612.74 534.54 Q1612.74 528.397 1616.56 525.246 Q1620.35 522.095 1627.73 522.095 Z" fill="#000000" fill-rule="nonzero" fill-opacity="1" /><path clip-path="url(#clip470)" d="M1631.01 486.957 Q1624.64 486.957 1621.14 489.598 Q1617.64 492.208 1617.64 496.951 Q1617.64 501.661 1621.14 504.303 Q1624.64 506.913 1631.01 506.913 Q1637.34 506.913 1640.84 504.303 Q1644.34 501.661 1644.34 496.951 Q1644.34 492.208 1640.84 489.598 Q1637.34 486.957 1631.01 486.957 M1644.82 481.1 Q1653.92 481.1 1658.35 485.142 Q1662.8 489.185 1662.8 497.524 Q1662.8 500.611 1662.33 503.348 Q1661.88 506.086 1660.93 508.664 L1655.23 508.664 Q1656.63 506.086 1657.3 503.571 Q1657.97 501.057 1657.97 498.447 Q1657.97 492.686 1654.94 489.821 Q1651.95 486.957 1645.87 486.957 L1642.98 486.957 Q1646.13 488.771 1647.69 491.604 Q1649.25 494.436 1649.25 498.383 Q1649.25 504.94 1644.25 508.95 Q1639.25 512.961 1631.01 512.961 Q1622.73 512.961 1617.74 508.95 Q1612.74 504.94 1612.74 498.383 Q1612.74 494.436 1614.3 491.604 Q1615.86 488.771 1619.01 486.957 L1613.6 486.957 L1613.6 481.1 L1644.82 481.1 Z" fill="#000000" fill-rule="nonzero" fill-opacity="1" /><path clip-path="url(#clip470)" d="M1662.8 448.922 L1613.6 448.922 L1613.6 443.065 L1635.75 443.065 Q1640.37 443.065 1642.72 440.869 Q1645.08 438.673 1645.08 434.376 Q1645.08 429.665 1642.4 427.31 Q1639.73 424.923 1634.38 424.923 L1613.6 424.923 L1613.6 419.066 L1641.03 419.066 Q1642.94 419.066 1643.87 418.525 Q1644.76 417.952 1644.76 416.775 Q1644.76 416.488 1644.6 415.979 Q1644.41 415.47 1644.03 414.579 L1648.74 414.579 Q1649.47 415.884 1649.82 417.061 Q1650.17 418.207 1650.17 419.321 Q1650.17 421.517 1648.93 422.822 Q1647.69 424.127 1645.14 424.605 Q1647.65 426.196 1648.93 428.52 Q1650.17 430.811 1650.17 433.93 Q1650.17 437.177 1648.93 439.469 Q1647.69 441.728 1645.2 443.065 L1662.8 443.065 L1662.8 448.922 Z" fill="#000000" fill-rule="nonzero" fill-opacity="1" /><path clip-path="url(#clip470)" d="M1613.6 410.25 L1613.6 404.393 L1641.42 397.073 L1613.6 389.784 L1613.6 382.877 L1641.42 375.557 L1613.6 368.268 L1613.6 362.412 L1649.25 371.737 L1649.25 378.644 L1620.03 386.315 L1649.25 394.017 L1649.25 400.924 L1613.6 410.25 Z" fill="#000000" fill-rule="nonzero" fill-opacity="1" /><polyline clip-path="url(#clip471)" style="stroke:#009af9; stroke-linecap:round; stroke-linejoin:round; stroke-width:4; stroke-opacity:1; fill:none" points="1903.01,74.2116 1904.19,75.9833 1907.75,81.1617 1913.67,89.4918 1921.97,100.652 1932.63,114.286 1945.66,130.024 1961.07,147.482 1978.84,161.651 1998.99,178.825 2021.5,203.317 2046.38,227.746 2073.64,253.094 2103.26,279.506 2135.25,306.99 2169.61,335.527 2206.35,365.096 2245.45,395.679 2286.92,427.261 2330.76,459.832 2376.97,493.387 2425.55,527.922 2476.5,563.436 2529.83,599.93 2585.52,637.406 2643.58,675.868 2704.01,715.321 2766.81,755.768 2831.98,797.216 2899.52,839.67 2969.43,883.137 3041.71,927.621 3116.36,973.13 "/>
<polyline clip-path="url(#clip471)" style="stroke:#808080; stroke-linecap:round; stroke-linejoin:round; stroke-width:4; stroke-opacity:1; fill:none" stroke-dasharray="16, 10" points="580.46,161.651 4438.9,161.651 "/>
</svg>
