<?xml version="1.0" encoding="utf-8"?>
<svg xmlns="http://www.w3.org/2000/svg" xmlns:xlink="http://www.w3.org/1999/xlink" width="800" height="300" viewBox="0 0 3200 1200">
<defs>
  <clipPath id="clip830">
    <rect x="0" y="0" width="3200" height="1200"/>
  </clipPath>
</defs>
<path clip-path="url(#clip830)" d="M0 1200 L3200 1200 L3200 0 L0 0  Z" fill="#ffffff" fill-rule="evenodd" fill-opacity="1"/>
<defs>
  <clipPath id="clip831">
    <rect x="1821" y="47" width="1332" height="1017"/>
  </clipPath>
</defs>
<path clip-path="url(#clip830)" d="M207.076 1063.09 L1537.92 1063.09 L1537.92 47.2441 L207.076 47.2441  Z" fill="#ffffff" fill-rule="evenodd" fill-opacity="1"/>
<defs>
  <clipPath id="clip832">
    <rect x="207" y="47" width="1332" height="1017"/>
  </clipPath>
</defs>
<polyline clip-path="url(#clip832)" style="stroke:#000000; stroke-linecap:round; stroke-linejoin:round; stroke-width:2; stroke-opacity:0.1; fill:none" points="244.742,1063.09 244.742,47.2441 "/>
<polyline clip-path="url(#clip832)" style="stroke:#000000; stroke-linecap:round; stroke-linejoin:round; stroke-width:2; stroke-opacity:0.1; fill:none" points="558.619,1063.09 558.619,47.2441 "/>
<polyline clip-path="url(#clip832)" style="stroke:#000000; stroke-linecap:round; stroke-linejoin:round; stroke-width:2; stroke-opacity:0.1; fill:none" points="872.497,1063.09 872.497,47.2441 "/>
<polyline clip-path="url(#clip832)" style="stroke:#000000; stroke-linecap:round; stroke-linejoin:round; stroke-width:2; stroke-opacity:0.1; fill:none" points="1186.37,1063.09 1186.37,47.2441 "/>
<polyline clip-path="url(#clip832)" style="stroke:#000000; stroke-linecap:round; stroke-linejoin:round; stroke-width:2; stroke-opacity:0.1; fill:none" points="1500.25,1063.09 1500.25,47.2441 "/>
<polyline clip-path="url(#clip832)" style="stroke:#000000; stroke-linecap:round; stroke-linejoin:round; stroke-width:2; stroke-opacity:0.1; fill:none" points="207.076,933.793 1537.92,933.793 "/>
<polyline clip-path="url(#clip832)" style="stroke:#000000; stroke-linecap:round; stroke-linejoin:round; stroke-width:2; stroke-opacity:0.1; fill:none" points="207.076,672.632 1537.92,672.632 "/>
<polyline clip-path="url(#clip832)" style="stroke:#000000; stroke-linecap:round; stroke-linejoin:round; stroke-width:2; stroke-opacity:0.1; fill:none" points="207.076,411.472 1537.92,411.472 "/>
<polyline clip-path="url(#clip832)" style="stroke:#000000; stroke-linecap:round; stroke-linejoin:round; stroke-width:2; stroke-opacity:0.1; fill:none" points="207.076,150.311 1537.92,150.311 "/>
<polyline clip-path="url(#clip830)" style="stroke:#000000; stroke-linecap:round; stroke-linejoin:round; stroke-width:4; stroke-opacity:1; fill:none" points="207.076,1063.09 1537.92,1063.09 "/>
<polyline clip-path="url(#clip830)" style="stroke:#000000; stroke-linecap:round; stroke-linejoin:round; stroke-width:4; stroke-opacity:1; fill:none" points="244.742,1063.09 244.742,1044.19 "/>
<polyline clip-path="url(#clip830)" style="stroke:#000000; stroke-linecap:round; stroke-linejoin:round; stroke-width:4; stroke-opacity:1; fill:none" points="558.619,1063.09 558.619,1044.19 "/>
<polyline clip-path="url(#clip830)" style="stroke:#000000; stroke-linecap:round; stroke-linejoin:round; stroke-width:4; stroke-opacity:1; fill:none" points="872.497,1063.09 872.497,1044.19 "/>
<polyline clip-path="url(#clip830)" style="stroke:#000000; stroke-linecap:round; stroke-linejoin:round; stroke-width:4; stroke-opacity:1; fill:none" points="1186.37,1063.09 1186.37,1044.19 "/>
<polyline clip-path="url(#clip830)" style="stroke:#000000; stroke-linecap:round; stroke-linejoin:round; stroke-width:4; stroke-opacity:1; fill:none" points="1500.25,1063.09 1500.25,1044.19 "/>
<path clip-path="url(#clip830)" d="M207.045 1100.41 Q203.434 1100.41 201.605 1103.97 Q199.8 1107.51 199.8 1114.64 Q199.8 1121.75 201.605 1125.32 Q203.434 1128.86 207.045 1128.86 Q210.679 1128.86 212.485 1125.32 Q214.314 1121.75 214.314 1114.64 Q214.314 1107.51 212.485 1103.97 Q210.679 1100.41 207.045 1100.41 M207.045 1096.7 Q212.855 1096.7 215.911 1101.31 Q218.989 1105.89 218.989 1114.64 Q218.989 1123.37 215.911 1127.98 Q212.855 1132.56 207.045 1132.56 Q201.235 1132.56 198.156 1127.98 Q195.101 1123.37 195.101 1114.64 Q195.101 1105.89 198.156 1101.31 Q201.235 1096.7 207.045 1096.7 Z" fill="#000000" fill-rule="nonzero" fill-opacity="1" /><path clip-path="url(#clip830)" d="M227.207 1126.01 L232.091 1126.01 L232.091 1131.89 L227.207 1131.89 L227.207 1126.01 Z" fill="#000000" fill-rule="nonzero" fill-opacity="1" /><path clip-path="url(#clip830)" d="M252.276 1100.41 Q248.665 1100.41 246.836 1103.97 Q245.031 1107.51 245.031 1114.64 Q245.031 1121.75 246.836 1125.32 Q248.665 1128.86 252.276 1128.86 Q255.911 1128.86 257.716 1125.32 Q259.545 1121.75 259.545 1114.64 Q259.545 1107.51 257.716 1103.97 Q255.911 1100.41 252.276 1100.41 M252.276 1096.7 Q258.086 1096.7 261.142 1101.31 Q264.221 1105.89 264.221 1114.64 Q264.221 1123.37 261.142 1127.98 Q258.086 1132.56 252.276 1132.56 Q246.466 1132.56 243.387 1127.98 Q240.332 1123.37 240.332 1114.64 Q240.332 1105.89 243.387 1101.31 Q246.466 1096.7 252.276 1096.7 Z" fill="#000000" fill-rule="nonzero" fill-opacity="1" /><path clip-path="url(#clip830)" d="M282.438 1100.41 Q278.827 1100.41 276.998 1103.97 Q275.193 1107.51 275.193 1114.64 Q275.193 1121.75 276.998 1125.32 Q278.827 1128.86 282.438 1128.86 Q286.072 1128.86 287.878 1125.32 Q289.707 1121.75 289.707 1114.64 Q289.707 1107.51 287.878 1103.97 Q286.072 1100.41 282.438 1100.41 M282.438 1096.7 Q288.248 1096.7 291.304 1101.31 Q294.383 1105.89 294.383 1114.64 Q294.383 1123.37 291.304 1127.98 Q288.248 1132.56 282.438 1132.56 Q276.628 1132.56 273.549 1127.98 Q270.494 1123.37 270.494 1114.64 Q270.494 1105.89 273.549 1101.31 Q276.628 1096.7 282.438 1096.7 Z" fill="#000000" fill-rule="nonzero" fill-opacity="1" /><path clip-path="url(#clip830)" d="M521.42 1100.41 Q517.809 1100.41 515.981 1103.97 Q514.175 1107.51 514.175 1114.64 Q514.175 1121.75 515.981 1125.32 Q517.809 1128.86 521.42 1128.86 Q525.055 1128.86 526.86 1125.32 Q528.689 1121.75 528.689 1114.64 Q528.689 1107.51 526.86 1103.97 Q525.055 1100.41 521.42 1100.41 M521.42 1096.7 Q527.231 1096.7 530.286 1101.31 Q533.365 1105.89 533.365 1114.64 Q533.365 1123.37 530.286 1127.98 Q527.231 1132.56 521.42 1132.56 Q515.61 1132.56 512.532 1127.98 Q509.476 1123.37 509.476 1114.64 Q509.476 1105.89 512.532 1101.31 Q515.61 1096.7 521.42 1096.7 Z" fill="#000000" fill-rule="nonzero" fill-opacity="1" /><path clip-path="url(#clip830)" d="M541.582 1126.01 L546.467 1126.01 L546.467 1131.89 L541.582 1131.89 L541.582 1126.01 Z" fill="#000000" fill-rule="nonzero" fill-opacity="1" /><path clip-path="url(#clip830)" d="M560.68 1127.95 L576.999 1127.95 L576.999 1131.89 L555.055 1131.89 L555.055 1127.95 Q557.717 1125.2 562.3 1120.57 Q566.906 1115.92 568.087 1114.58 Q570.332 1112.05 571.212 1110.32 Q572.115 1108.56 572.115 1106.87 Q572.115 1104.11 570.17 1102.38 Q568.249 1100.64 565.147 1100.64 Q562.948 1100.64 560.494 1101.4 Q558.064 1102.17 555.286 1103.72 L555.286 1099 Q558.11 1097.86 560.564 1097.28 Q563.017 1096.7 565.055 1096.7 Q570.425 1096.7 573.619 1099.39 Q576.814 1102.08 576.814 1106.57 Q576.814 1108.7 576.004 1110.62 Q575.217 1112.51 573.11 1115.11 Q572.531 1115.78 569.429 1119 Q566.328 1122.19 560.68 1127.95 Z" fill="#000000" fill-rule="nonzero" fill-opacity="1" /><path clip-path="url(#clip830)" d="M586.86 1097.33 L605.216 1097.33 L605.216 1101.27 L591.142 1101.27 L591.142 1109.74 Q592.161 1109.39 593.179 1109.23 Q594.198 1109.04 595.216 1109.04 Q601.003 1109.04 604.383 1112.21 Q607.763 1115.39 607.763 1120.8 Q607.763 1126.38 604.29 1129.48 Q600.818 1132.56 594.499 1132.56 Q592.323 1132.56 590.054 1132.19 Q587.809 1131.82 585.402 1131.08 L585.402 1126.38 Q587.485 1127.51 589.707 1128.07 Q591.929 1128.63 594.406 1128.63 Q598.411 1128.63 600.749 1126.52 Q603.087 1124.41 603.087 1120.8 Q603.087 1117.19 600.749 1115.08 Q598.411 1112.98 594.406 1112.98 Q592.531 1112.98 590.656 1113.39 Q588.804 1113.81 586.86 1114.69 L586.86 1097.33 Z" fill="#000000" fill-rule="nonzero" fill-opacity="1" /><path clip-path="url(#clip830)" d="M834.801 1100.41 Q831.189 1100.41 829.361 1103.97 Q827.555 1107.51 827.555 1114.64 Q827.555 1121.75 829.361 1125.32 Q831.189 1128.86 834.801 1128.86 Q838.435 1128.86 840.24 1125.32 Q842.069 1121.75 842.069 1114.64 Q842.069 1107.51 840.24 1103.97 Q838.435 1100.41 834.801 1100.41 M834.801 1096.7 Q840.611 1096.7 843.666 1101.31 Q846.745 1105.89 846.745 1114.64 Q846.745 1123.37 843.666 1127.98 Q840.611 1132.56 834.801 1132.56 Q828.99 1132.56 825.912 1127.98 Q822.856 1123.37 822.856 1114.64 Q822.856 1105.89 825.912 1101.31 Q828.99 1096.7 834.801 1096.7 Z" fill="#000000" fill-rule="nonzero" fill-opacity="1" /><path clip-path="url(#clip830)" d="M854.963 1126.01 L859.847 1126.01 L859.847 1131.89 L854.963 1131.89 L854.963 1126.01 Z" fill="#000000" fill-rule="nonzero" fill-opacity="1" /><path clip-path="url(#clip830)" d="M870.078 1097.33 L888.435 1097.33 L888.435 1101.27 L874.361 1101.27 L874.361 1109.74 Q875.379 1109.39 876.398 1109.23 Q877.416 1109.04 878.435 1109.04 Q884.222 1109.04 887.601 1112.21 Q890.981 1115.39 890.981 1120.8 Q890.981 1126.38 887.509 1129.48 Q884.036 1132.56 877.717 1132.56 Q875.541 1132.56 873.273 1132.19 Q871.027 1131.82 868.62 1131.08 L868.62 1126.38 Q870.703 1127.51 872.925 1128.07 Q875.148 1128.63 877.624 1128.63 Q881.629 1128.63 883.967 1126.52 Q886.305 1124.41 886.305 1120.8 Q886.305 1117.19 883.967 1115.08 Q881.629 1112.98 877.624 1112.98 Q875.749 1112.98 873.874 1113.39 Q872.023 1113.81 870.078 1114.69 L870.078 1097.33 Z" fill="#000000" fill-rule="nonzero" fill-opacity="1" /><path clip-path="url(#clip830)" d="M910.194 1100.41 Q906.583 1100.41 904.754 1103.97 Q902.948 1107.51 902.948 1114.64 Q902.948 1121.75 904.754 1125.32 Q906.583 1128.86 910.194 1128.86 Q913.828 1128.86 915.633 1125.32 Q917.462 1121.75 917.462 1114.64 Q917.462 1107.51 915.633 1103.97 Q913.828 1100.41 910.194 1100.41 M910.194 1096.7 Q916.004 1096.7 919.059 1101.31 Q922.138 1105.89 922.138 1114.64 Q922.138 1123.37 919.059 1127.98 Q916.004 1132.56 910.194 1132.56 Q904.384 1132.56 901.305 1127.98 Q898.249 1123.37 898.249 1114.64 Q898.249 1105.89 901.305 1101.31 Q904.384 1096.7 910.194 1096.7 Z" fill="#000000" fill-rule="nonzero" fill-opacity="1" /><path clip-path="url(#clip830)" d="M1149.18 1100.41 Q1145.56 1100.41 1143.74 1103.97 Q1141.93 1107.51 1141.93 1114.64 Q1141.93 1121.75 1143.74 1125.32 Q1145.56 1128.86 1149.18 1128.86 Q1152.81 1128.86 1154.62 1125.32 Q1156.44 1121.75 1156.44 1114.64 Q1156.44 1107.51 1154.62 1103.97 Q1152.81 1100.41 1149.18 1100.41 M1149.18 1096.7 Q1154.99 1096.7 1158.04 1101.31 Q1161.12 1105.89 1161.12 1114.64 Q1161.12 1123.37 1158.04 1127.98 Q1154.99 1132.56 1149.18 1132.56 Q1143.37 1132.56 1140.29 1127.98 Q1137.23 1123.37 1137.23 1114.64 Q1137.23 1105.89 1140.29 1101.31 Q1143.37 1096.7 1149.18 1096.7 Z" fill="#000000" fill-rule="nonzero" fill-opacity="1" /><path clip-path="url(#clip830)" d="M1169.34 1126.01 L1174.22 1126.01 L1174.22 1131.89 L1169.34 1131.89 L1169.34 1126.01 Z" fill="#000000" fill-rule="nonzero" fill-opacity="1" /><path clip-path="url(#clip830)" d="M1183.23 1097.33 L1205.45 1097.33 L1205.45 1099.32 L1192.9 1131.89 L1188.02 1131.89 L1199.82 1101.27 L1183.23 1101.27 L1183.23 1097.33 Z" fill="#000000" fill-rule="nonzero" fill-opacity="1" /><path clip-path="url(#clip830)" d="M1214.62 1097.33 L1232.97 1097.33 L1232.97 1101.27 L1218.9 1101.27 L1218.9 1109.74 Q1219.92 1109.39 1220.93 1109.23 Q1221.95 1109.04 1222.97 1109.04 Q1228.76 1109.04 1232.14 1112.21 Q1235.52 1115.39 1235.52 1120.8 Q1235.52 1126.38 1232.05 1129.48 Q1228.57 1132.56 1222.25 1132.56 Q1220.08 1132.56 1217.81 1132.19 Q1215.56 1131.82 1213.16 1131.08 L1213.16 1126.38 Q1215.24 1127.51 1217.46 1128.07 Q1219.68 1128.63 1222.16 1128.63 Q1226.17 1128.63 1228.5 1126.52 Q1230.84 1124.41 1230.84 1120.8 Q1230.84 1117.19 1228.5 1115.08 Q1226.17 1112.98 1222.16 1112.98 Q1220.29 1112.98 1218.41 1113.39 Q1216.56 1113.81 1214.62 1114.69 L1214.62 1097.33 Z" fill="#000000" fill-rule="nonzero" fill-opacity="1" /><path clip-path="url(#clip830)" d="M1452.32 1127.95 L1459.96 1127.95 L1459.96 1101.59 L1451.65 1103.26 L1451.65 1099 L1459.92 1097.33 L1464.59 1097.33 L1464.59 1127.95 L1472.23 1127.95 L1472.23 1131.89 L1452.32 1131.89 L1452.32 1127.95 Z" fill="#000000" fill-rule="nonzero" fill-opacity="1" /><path clip-path="url(#clip830)" d="M1481.68 1126.01 L1486.56 1126.01 L1486.56 1131.89 L1481.68 1131.89 L1481.68 1126.01 Z" fill="#000000" fill-rule="nonzero" fill-opacity="1" /><path clip-path="url(#clip830)" d="M1506.75 1100.41 Q1503.13 1100.41 1501.31 1103.97 Q1499.5 1107.51 1499.5 1114.64 Q1499.5 1121.75 1501.31 1125.32 Q1503.13 1128.86 1506.75 1128.86 Q1510.38 1128.86 1512.19 1125.32 Q1514.01 1121.75 1514.01 1114.64 Q1514.01 1107.51 1512.19 1103.97 Q1510.38 1100.41 1506.75 1100.41 M1506.75 1096.7 Q1512.56 1096.7 1515.61 1101.31 Q1518.69 1105.89 1518.69 1114.64 Q1518.69 1123.37 1515.61 1127.98 Q1512.56 1132.56 1506.75 1132.56 Q1500.94 1132.56 1497.86 1127.98 Q1494.8 1123.37 1494.8 1114.64 Q1494.8 1105.89 1497.86 1101.31 Q1500.94 1096.7 1506.75 1096.7 Z" fill="#000000" fill-rule="nonzero" fill-opacity="1" /><path clip-path="url(#clip830)" d="M1536.91 1100.41 Q1533.3 1100.41 1531.47 1103.97 Q1529.66 1107.51 1529.66 1114.64 Q1529.66 1121.75 1531.47 1125.32 Q1533.3 1128.86 1536.91 1128.86 Q1540.54 1128.86 1542.35 1125.32 Q1544.18 1121.75 1544.18 1114.64 Q1544.18 1107.51 1542.35 1103.97 Q1540.54 1100.41 1536.91 1100.41 M1536.91 1096.7 Q1542.72 1096.7 1545.77 1101.31 Q1548.85 1105.89 1548.85 1114.64 Q1548.85 1123.37 1545.77 1127.98 Q1542.72 1132.56 1536.91 1132.56 Q1531.1 1132.56 1528.02 1127.98 Q1524.96 1123.37 1524.96 1114.64 Q1524.96 1105.89 1528.02 1101.31 Q1531.1 1096.7 1536.91 1096.7 Z" fill="#000000" fill-rule="nonzero" fill-opacity="1" /><path clip-path="url(#clip830)" d="M318.187 1185.67 L318.187 1191.15 Q315.705 1189.78 313.19 1189.11 Q310.708 1188.41 308.161 1188.41 Q302.464 1188.41 299.313 1192.04 Q296.162 1195.64 296.162 1202.16 Q296.162 1208.69 299.313 1212.31 Q302.464 1215.91 308.161 1215.91 Q310.708 1215.91 313.19 1215.24 Q315.705 1214.54 318.187 1213.17 L318.187 1218.59 Q315.737 1219.73 313.095 1220.3 Q310.485 1220.88 307.525 1220.88 Q299.472 1220.88 294.73 1215.82 Q289.987 1210.76 289.987 1202.16 Q289.987 1193.44 294.762 1188.44 Q299.568 1183.45 307.907 1183.45 Q310.612 1183.45 313.19 1184.02 Q315.768 1184.56 318.187 1185.67 Z" fill="#000000" fill-rule="nonzero" fill-opacity="1" /><path clip-path="url(#clip830)" d="M342.186 1188.41 Q337.475 1188.41 334.738 1192.1 Q332.001 1195.76 332.001 1202.16 Q332.001 1208.56 334.706 1212.25 Q337.444 1215.91 342.186 1215.91 Q346.865 1215.91 349.602 1212.22 Q352.339 1208.53 352.339 1202.16 Q352.339 1195.83 349.602 1192.14 Q346.865 1188.41 342.186 1188.41 M342.186 1183.45 Q349.825 1183.45 354.185 1188.41 Q358.546 1193.38 358.546 1202.16 Q358.546 1210.91 354.185 1215.91 Q349.825 1220.88 342.186 1220.88 Q334.515 1220.88 330.155 1215.91 Q325.826 1210.91 325.826 1202.16 Q325.826 1193.38 330.155 1188.41 Q334.515 1183.45 342.186 1183.45 Z" fill="#000000" fill-rule="nonzero" fill-opacity="1" /><path clip-path="url(#clip830)" d="M397.886 1198.44 L397.886 1219.95 L392.03 1219.95 L392.03 1198.63 Q392.03 1193.57 390.056 1191.05 Q388.083 1188.54 384.136 1188.54 Q379.394 1188.54 376.656 1191.56 Q373.919 1194.59 373.919 1199.81 L373.919 1219.95 L368.031 1219.95 L368.031 1184.31 L373.919 1184.31 L373.919 1189.84 Q376.02 1186.63 378.853 1185.04 Q381.717 1183.45 385.441 1183.45 Q391.584 1183.45 394.735 1187.27 Q397.886 1191.05 397.886 1198.44 Z" fill="#000000" fill-rule="nonzero" fill-opacity="1" /><path clip-path="url(#clip830)" d="M432.293 1185.36 L432.293 1190.89 Q429.81 1189.62 427.136 1188.98 Q424.463 1188.35 421.598 1188.35 Q417.238 1188.35 415.042 1189.68 Q412.877 1191.02 412.877 1193.7 Q412.877 1195.73 414.437 1196.91 Q415.996 1198.06 420.707 1199.11 L422.712 1199.55 Q428.951 1200.89 431.561 1203.34 Q434.202 1205.76 434.202 1210.12 Q434.202 1215.08 430.256 1217.98 Q426.341 1220.88 419.466 1220.88 Q416.601 1220.88 413.482 1220.3 Q410.395 1219.76 406.957 1218.65 L406.957 1212.6 Q410.204 1214.29 413.355 1215.15 Q416.506 1215.98 419.593 1215.98 Q423.731 1215.98 425.959 1214.57 Q428.187 1213.14 428.187 1210.56 Q428.187 1208.18 426.563 1206.9 Q424.972 1205.63 419.529 1204.45 L417.492 1203.98 Q412.05 1202.83 409.631 1200.47 Q407.212 1198.09 407.212 1193.95 Q407.212 1188.92 410.777 1186.18 Q414.341 1183.45 420.898 1183.45 Q424.145 1183.45 427.009 1183.92 Q429.874 1184.4 432.293 1185.36 Z" fill="#000000" fill-rule="nonzero" fill-opacity="1" /><path clip-path="url(#clip830)" d="M442.923 1205.89 L442.923 1184.31 L448.78 1184.31 L448.78 1205.66 Q448.78 1210.72 450.753 1213.27 Q452.727 1215.78 456.673 1215.78 Q461.416 1215.78 464.153 1212.76 Q466.922 1209.74 466.922 1204.52 L466.922 1184.31 L472.779 1184.31 L472.779 1219.95 L466.922 1219.95 L466.922 1214.48 Q464.79 1217.73 461.957 1219.32 Q459.156 1220.88 455.432 1220.88 Q449.289 1220.88 446.106 1217.06 Q442.923 1213.24 442.923 1205.89 M457.66 1183.45 L457.66 1183.45 Z" fill="#000000" fill-rule="nonzero" fill-opacity="1" /><path clip-path="url(#clip830)" d="M512.596 1191.15 Q514.792 1187.2 517.848 1185.32 Q520.903 1183.45 525.041 1183.45 Q530.611 1183.45 533.635 1187.36 Q536.658 1191.24 536.658 1198.44 L536.658 1219.95 L530.77 1219.95 L530.77 1198.63 Q530.77 1193.5 528.956 1191.02 Q527.142 1188.54 523.418 1188.54 Q518.866 1188.54 516.224 1191.56 Q513.583 1194.59 513.583 1199.81 L513.583 1219.95 L507.694 1219.95 L507.694 1198.63 Q507.694 1193.47 505.88 1191.02 Q504.066 1188.54 500.278 1188.54 Q495.791 1188.54 493.149 1191.59 Q490.507 1194.62 490.507 1199.81 L490.507 1219.95 L484.619 1219.95 L484.619 1184.31 L490.507 1184.31 L490.507 1189.84 Q492.512 1186.57 495.313 1185.01 Q498.114 1183.45 501.965 1183.45 Q505.848 1183.45 508.554 1185.42 Q511.291 1187.39 512.596 1191.15 Z" fill="#000000" fill-rule="nonzero" fill-opacity="1" /><path clip-path="url(#clip830)" d="M554.005 1214.61 L554.005 1233.51 L548.117 1233.51 L548.117 1184.31 L554.005 1184.31 L554.005 1189.72 Q555.851 1186.53 558.652 1185.01 Q561.485 1183.45 565.4 1183.45 Q571.893 1183.45 575.935 1188.6 Q580.009 1193.76 580.009 1202.16 Q580.009 1210.56 575.935 1215.72 Q571.893 1220.88 565.4 1220.88 Q561.485 1220.88 558.652 1219.35 Q555.851 1217.79 554.005 1214.61 M573.93 1202.16 Q573.93 1195.7 571.256 1192.04 Q568.614 1188.35 563.967 1188.35 Q559.32 1188.35 556.647 1192.04 Q554.005 1195.7 554.005 1202.16 Q554.005 1208.62 556.647 1212.31 Q559.32 1215.98 563.967 1215.98 Q568.614 1215.98 571.256 1212.31 Q573.93 1208.62 573.93 1202.16 Z" fill="#000000" fill-rule="nonzero" fill-opacity="1" /><path clip-path="url(#clip830)" d="M595.509 1174.18 L595.509 1184.31 L607.572 1184.31 L607.572 1188.86 L595.509 1188.86 L595.509 1208.21 Q595.509 1212.57 596.687 1213.81 Q597.896 1215.05 601.557 1215.05 L607.572 1215.05 L607.572 1219.95 L601.557 1219.95 Q594.777 1219.95 592.199 1217.44 Q589.621 1214.89 589.621 1208.21 L589.621 1188.86 L585.324 1188.86 L585.324 1184.31 L589.621 1184.31 L589.621 1174.18 L595.509 1174.18 Z" fill="#000000" fill-rule="nonzero" fill-opacity="1" /><path clip-path="url(#clip830)" d="M615.275 1184.31 L621.131 1184.31 L621.131 1219.95 L615.275 1219.95 L615.275 1184.31 M615.275 1170.43 L621.131 1170.43 L621.131 1177.84 L615.275 1177.84 L615.275 1170.43 Z" fill="#000000" fill-rule="nonzero" fill-opacity="1" /><path clip-path="url(#clip830)" d="M647.199 1188.41 Q642.488 1188.41 639.751 1192.1 Q637.014 1195.76 637.014 1202.16 Q637.014 1208.56 639.719 1212.25 Q642.456 1215.91 647.199 1215.91 Q651.878 1215.91 654.615 1212.22 Q657.352 1208.53 657.352 1202.16 Q657.352 1195.83 654.615 1192.14 Q651.878 1188.41 647.199 1188.41 M647.199 1183.45 Q654.838 1183.45 659.198 1188.41 Q663.559 1193.38 663.559 1202.16 Q663.559 1210.91 659.198 1215.91 Q654.838 1220.88 647.199 1220.88 Q639.528 1220.88 635.168 1215.91 Q630.839 1210.91 630.839 1202.16 Q630.839 1193.38 635.168 1188.41 Q639.528 1183.45 647.199 1183.45 Z" fill="#000000" fill-rule="nonzero" fill-opacity="1" /><path clip-path="url(#clip830)" d="M702.899 1198.44 L702.899 1219.95 L697.042 1219.95 L697.042 1198.63 Q697.042 1193.57 695.069 1191.05 Q693.096 1188.54 689.149 1188.54 Q684.406 1188.54 681.669 1191.56 Q678.932 1194.59 678.932 1199.81 L678.932 1219.95 L673.044 1219.95 L673.044 1184.31 L678.932 1184.31 L678.932 1189.84 Q681.033 1186.63 683.865 1185.04 Q686.73 1183.45 690.454 1183.45 Q696.597 1183.45 699.748 1187.27 Q702.899 1191.05 702.899 1198.44 Z" fill="#000000" fill-rule="nonzero" fill-opacity="1" /><path clip-path="url(#clip830)" d="M758.026 1185.36 L758.026 1190.89 Q755.543 1189.62 752.87 1188.98 Q750.196 1188.35 747.331 1188.35 Q742.971 1188.35 740.775 1189.68 Q738.61 1191.02 738.61 1193.7 Q738.61 1195.73 740.17 1196.91 Q741.73 1198.06 746.44 1199.11 L748.445 1199.55 Q754.684 1200.89 757.294 1203.34 Q759.936 1205.76 759.936 1210.12 Q759.936 1215.08 755.989 1217.98 Q752.074 1220.88 745.199 1220.88 Q742.334 1220.88 739.215 1220.3 Q736.128 1219.76 732.69 1218.65 L732.69 1212.6 Q735.937 1214.29 739.088 1215.15 Q742.239 1215.98 745.326 1215.98 Q749.464 1215.98 751.692 1214.57 Q753.92 1213.14 753.92 1210.56 Q753.92 1208.18 752.297 1206.9 Q750.705 1205.63 745.263 1204.45 L743.226 1203.98 Q737.783 1202.83 735.364 1200.47 Q732.945 1198.09 732.945 1193.95 Q732.945 1188.92 736.51 1186.18 Q740.075 1183.45 746.631 1183.45 Q749.878 1183.45 752.742 1183.92 Q755.607 1184.4 758.026 1185.36 Z" fill="#000000" fill-rule="nonzero" fill-opacity="1" /><path clip-path="url(#clip830)" d="M798.894 1198.44 L798.894 1219.95 L793.037 1219.95 L793.037 1198.63 Q793.037 1193.57 791.064 1191.05 Q789.09 1188.54 785.144 1188.54 Q780.401 1188.54 777.664 1191.56 Q774.927 1194.59 774.927 1199.81 L774.927 1219.95 L769.038 1219.95 L769.038 1170.43 L774.927 1170.43 L774.927 1189.84 Q777.027 1186.63 779.86 1185.04 Q782.725 1183.45 786.449 1183.45 Q792.592 1183.45 795.743 1187.27 Q798.894 1191.05 798.894 1198.44 Z" fill="#000000" fill-rule="nonzero" fill-opacity="1" /><path clip-path="url(#clip830)" d="M826.775 1202.03 Q819.678 1202.03 816.94 1203.66 Q814.203 1205.28 814.203 1209.2 Q814.203 1212.31 816.24 1214.16 Q818.309 1215.98 821.842 1215.98 Q826.712 1215.98 829.64 1212.54 Q832.6 1209.07 832.6 1203.34 L832.6 1202.03 L826.775 1202.03 M838.457 1199.62 L838.457 1219.95 L832.6 1219.95 L832.6 1214.54 Q830.595 1217.79 827.603 1219.35 Q824.611 1220.88 820.282 1220.88 Q814.808 1220.88 811.561 1217.82 Q808.347 1214.73 808.347 1209.58 Q808.347 1203.56 812.357 1200.51 Q816.399 1197.45 824.388 1197.45 L832.6 1197.45 L832.6 1196.88 Q832.6 1192.84 829.926 1190.64 Q827.285 1188.41 822.479 1188.41 Q819.423 1188.41 816.527 1189.14 Q813.63 1189.88 810.957 1191.34 L810.957 1185.93 Q814.171 1184.69 817.195 1184.08 Q820.219 1183.45 823.083 1183.45 Q830.818 1183.45 834.637 1187.46 Q838.457 1191.47 838.457 1199.62 Z" fill="#000000" fill-rule="nonzero" fill-opacity="1" /><path clip-path="url(#clip830)" d="M871.176 1189.78 Q870.19 1189.21 869.012 1188.95 Q867.866 1188.67 866.466 1188.67 Q861.5 1188.67 858.827 1191.91 Q856.185 1195.13 856.185 1201.18 L856.185 1219.95 L850.297 1219.95 L850.297 1184.31 L856.185 1184.31 L856.185 1189.84 Q858.031 1186.6 860.991 1185.04 Q863.951 1183.45 868.184 1183.45 Q868.789 1183.45 869.521 1183.54 Q870.253 1183.61 871.144 1183.76 L871.176 1189.78 Z" fill="#000000" fill-rule="nonzero" fill-opacity="1" /><path clip-path="url(#clip830)" d="M906.379 1200.67 L906.379 1203.53 L879.452 1203.53 Q879.834 1209.58 883.08 1212.76 Q886.358 1215.91 892.183 1215.91 Q895.557 1215.91 898.708 1215.08 Q901.891 1214.26 905.01 1212.6 L905.01 1218.14 Q901.859 1219.48 898.549 1220.18 Q895.239 1220.88 891.833 1220.88 Q883.303 1220.88 878.306 1215.91 Q873.341 1210.95 873.341 1202.48 Q873.341 1193.73 878.051 1188.6 Q882.794 1183.45 890.814 1183.45 Q898.008 1183.45 902.177 1188.09 Q906.379 1192.71 906.379 1200.67 M900.522 1198.95 Q900.459 1194.14 897.817 1191.28 Q895.207 1188.41 890.878 1188.41 Q885.977 1188.41 883.016 1191.18 Q880.088 1193.95 879.643 1198.98 L900.522 1198.95 Z" fill="#000000" fill-rule="nonzero" fill-opacity="1" /><path clip-path="url(#clip830)" d="M950.525 1188.41 Q945.814 1188.41 943.077 1192.1 Q940.34 1195.76 940.34 1202.16 Q940.34 1208.56 943.045 1212.25 Q945.782 1215.91 950.525 1215.91 Q955.204 1215.91 957.941 1212.22 Q960.678 1208.53 960.678 1202.16 Q960.678 1195.83 957.941 1192.14 Q955.204 1188.41 950.525 1188.41 M950.525 1183.45 Q958.164 1183.45 962.524 1188.41 Q966.885 1193.38 966.885 1202.16 Q966.885 1210.91 962.524 1215.91 Q958.164 1220.88 950.525 1220.88 Q942.854 1220.88 938.494 1215.91 Q934.165 1210.91 934.165 1202.16 Q934.165 1193.38 938.494 1188.41 Q942.854 1183.45 950.525 1183.45 Z" fill="#000000" fill-rule="nonzero" fill-opacity="1" /><path clip-path="url(#clip830)" d="M994.639 1170.43 L994.639 1175.3 L989.037 1175.3 Q985.886 1175.3 984.645 1176.57 Q983.435 1177.84 983.435 1181.15 L983.435 1184.31 L993.08 1184.31 L993.08 1188.86 L983.435 1188.86 L983.435 1219.95 L977.547 1219.95 L977.547 1188.86 L971.945 1188.86 L971.945 1184.31 L977.547 1184.31 L977.547 1181.82 Q977.547 1175.87 980.316 1173.17 Q983.085 1170.43 989.101 1170.43 L994.639 1170.43 Z" fill="#000000" fill-rule="nonzero" fill-opacity="1" /><path clip-path="url(#clip830)" d="M1045.85 1202.16 Q1045.85 1195.7 1043.18 1192.04 Q1040.54 1188.35 1035.89 1188.35 Q1031.24 1188.35 1028.57 1192.04 Q1025.93 1195.7 1025.93 1202.16 Q1025.93 1208.62 1028.57 1212.31 Q1031.24 1215.98 1035.89 1215.98 Q1040.54 1215.98 1043.18 1212.31 Q1045.85 1208.62 1045.85 1202.16 M1025.93 1189.72 Q1027.77 1186.53 1030.57 1185.01 Q1033.41 1183.45 1037.32 1183.45 Q1043.81 1183.45 1047.86 1188.6 Q1051.93 1193.76 1051.93 1202.16 Q1051.93 1210.56 1047.86 1215.72 Q1043.81 1220.88 1037.32 1220.88 Q1033.41 1220.88 1030.57 1219.35 Q1027.77 1217.79 1025.93 1214.61 L1025.93 1219.95 L1020.04 1219.95 L1020.04 1170.43 L1025.93 1170.43 L1025.93 1189.72 Z" fill="#000000" fill-rule="nonzero" fill-opacity="1" /><path clip-path="url(#clip830)" d="M1075.45 1188.41 Q1070.74 1188.41 1068 1192.1 Q1065.27 1195.76 1065.27 1202.16 Q1065.27 1208.56 1067.97 1212.25 Q1070.71 1215.91 1075.45 1215.91 Q1080.13 1215.91 1082.87 1212.22 Q1085.61 1208.53 1085.61 1202.16 Q1085.61 1195.83 1082.87 1192.14 Q1080.13 1188.41 1075.45 1188.41 M1075.45 1183.45 Q1083.09 1183.45 1087.45 1188.41 Q1091.81 1193.38 1091.81 1202.16 Q1091.81 1210.91 1087.45 1215.91 Q1083.09 1220.88 1075.45 1220.88 Q1067.78 1220.88 1063.42 1215.91 Q1059.09 1210.91 1059.09 1202.16 Q1059.09 1193.38 1063.42 1188.41 Q1067.78 1183.45 1075.45 1183.45 Z" fill="#000000" fill-rule="nonzero" fill-opacity="1" /><path clip-path="url(#clip830)" d="M1101.52 1170.43 L1107.38 1170.43 L1107.38 1219.95 L1101.52 1219.95 L1101.52 1170.43 Z" fill="#000000" fill-rule="nonzero" fill-opacity="1" /><path clip-path="url(#clip830)" d="M1143.09 1189.72 L1143.09 1170.43 L1148.94 1170.43 L1148.94 1219.95 L1143.09 1219.95 L1143.09 1214.61 Q1141.24 1217.79 1138.41 1219.35 Q1135.61 1220.88 1131.66 1220.88 Q1125.2 1220.88 1121.13 1215.72 Q1117.08 1210.56 1117.08 1202.16 Q1117.08 1193.76 1121.13 1188.6 Q1125.2 1183.45 1131.66 1183.45 Q1135.61 1183.45 1138.41 1185.01 Q1141.24 1186.53 1143.09 1189.72 M1123.13 1202.16 Q1123.13 1208.62 1125.77 1212.31 Q1128.45 1215.98 1133.09 1215.98 Q1137.74 1215.98 1140.41 1212.31 Q1143.09 1208.62 1143.09 1202.16 Q1143.09 1195.7 1140.41 1192.04 Q1137.74 1188.35 1133.09 1188.35 Q1128.45 1188.35 1125.77 1192.04 Q1123.13 1195.7 1123.13 1202.16 Z" fill="#000000" fill-rule="nonzero" fill-opacity="1" /><path clip-path="url(#clip830)" d="M1197.93 1202.03 Q1190.83 1202.03 1188.09 1203.66 Q1185.36 1205.28 1185.36 1209.2 Q1185.36 1212.31 1187.39 1214.16 Q1189.46 1215.98 1192.99 1215.98 Q1197.86 1215.98 1200.79 1212.54 Q1203.75 1209.07 1203.75 1203.34 L1203.75 1202.03 L1197.93 1202.03 M1209.61 1199.62 L1209.61 1219.95 L1203.75 1219.95 L1203.75 1214.54 Q1201.75 1217.79 1198.76 1219.35 Q1195.76 1220.88 1191.43 1220.88 Q1185.96 1220.88 1182.71 1217.82 Q1179.5 1214.73 1179.5 1209.58 Q1179.5 1203.56 1183.51 1200.51 Q1187.55 1197.45 1195.54 1197.45 L1203.75 1197.45 L1203.75 1196.88 Q1203.75 1192.84 1201.08 1190.64 Q1198.44 1188.41 1193.63 1188.41 Q1190.58 1188.41 1187.68 1189.14 Q1184.78 1189.88 1182.11 1191.34 L1182.11 1185.93 Q1185.32 1184.69 1188.35 1184.08 Q1191.37 1183.45 1194.24 1183.45 Q1201.97 1183.45 1205.79 1187.46 Q1209.61 1191.47 1209.61 1199.62 Z" fill="#000000" fill-rule="nonzero" fill-opacity="1" /><path clip-path="url(#clip830)" d="M1245.13 1201.72 Q1245.13 1195.35 1242.49 1191.85 Q1239.88 1188.35 1235.14 1188.35 Q1230.42 1188.35 1227.78 1191.85 Q1225.17 1195.35 1225.17 1201.72 Q1225.17 1208.05 1227.78 1211.55 Q1230.42 1215.05 1235.14 1215.05 Q1239.88 1215.05 1242.49 1211.55 Q1245.13 1208.05 1245.13 1201.72 M1250.99 1215.53 Q1250.99 1224.63 1246.94 1229.06 Q1242.9 1233.51 1234.56 1233.51 Q1231.48 1233.51 1228.74 1233.04 Q1226 1232.59 1223.42 1231.63 L1223.42 1225.94 Q1226 1227.34 1228.52 1228.01 Q1231.03 1228.67 1233.64 1228.67 Q1239.4 1228.67 1242.27 1225.65 Q1245.13 1222.66 1245.13 1216.58 L1245.13 1213.68 Q1243.32 1216.83 1240.48 1218.39 Q1237.65 1219.95 1233.7 1219.95 Q1227.15 1219.95 1223.14 1214.96 Q1219.13 1209.96 1219.13 1201.72 Q1219.13 1193.44 1223.14 1188.44 Q1227.15 1183.45 1233.7 1183.45 Q1237.65 1183.45 1240.48 1185.01 Q1243.32 1186.57 1245.13 1189.72 L1245.13 1184.31 L1250.99 1184.31 L1250.99 1215.53 Z" fill="#000000" fill-rule="nonzero" fill-opacity="1" /><path clip-path="url(#clip830)" d="M1293.54 1200.67 L1293.54 1203.53 L1266.61 1203.53 Q1267 1209.58 1270.24 1212.76 Q1273.52 1215.91 1279.35 1215.91 Q1282.72 1215.91 1285.87 1215.08 Q1289.05 1214.26 1292.17 1212.6 L1292.17 1218.14 Q1289.02 1219.48 1285.71 1220.18 Q1282.4 1220.88 1279 1220.88 Q1270.47 1220.88 1265.47 1215.91 Q1260.5 1210.95 1260.5 1202.48 Q1260.5 1193.73 1265.21 1188.6 Q1269.96 1183.45 1277.98 1183.45 Q1285.17 1183.45 1289.34 1188.09 Q1293.54 1192.71 1293.54 1200.67 M1287.68 1198.95 Q1287.62 1194.14 1284.98 1191.28 Q1282.37 1188.41 1278.04 1188.41 Q1273.14 1188.41 1270.18 1191.18 Q1267.25 1193.95 1266.8 1198.98 L1287.68 1198.95 Z" fill="#000000" fill-rule="nonzero" fill-opacity="1" /><path clip-path="url(#clip830)" d="M1332.79 1198.44 L1332.79 1219.95 L1326.93 1219.95 L1326.93 1198.63 Q1326.93 1193.57 1324.96 1191.05 Q1322.98 1188.54 1319.04 1188.54 Q1314.29 1188.54 1311.56 1191.56 Q1308.82 1194.59 1308.82 1199.81 L1308.82 1219.95 L1302.93 1219.95 L1302.93 1184.31 L1308.82 1184.31 L1308.82 1189.84 Q1310.92 1186.63 1313.75 1185.04 Q1316.62 1183.45 1320.34 1183.45 Q1326.48 1183.45 1329.63 1187.27 Q1332.79 1191.05 1332.79 1198.44 Z" fill="#000000" fill-rule="nonzero" fill-opacity="1" /><path clip-path="url(#clip830)" d="M1350.26 1174.18 L1350.26 1184.31 L1362.32 1184.31 L1362.32 1188.86 L1350.26 1188.86 L1350.26 1208.21 Q1350.26 1212.57 1351.44 1213.81 Q1352.65 1215.05 1356.31 1215.05 L1362.32 1215.05 L1362.32 1219.95 L1356.31 1219.95 Q1349.53 1219.95 1346.95 1217.44 Q1344.37 1214.89 1344.37 1208.21 L1344.37 1188.86 L1340.07 1188.86 L1340.07 1184.31 L1344.37 1184.31 L1344.37 1174.18 L1350.26 1174.18 Z" fill="#000000" fill-rule="nonzero" fill-opacity="1" /><path clip-path="url(#clip830)" d="M1392.75 1185.36 L1392.75 1190.89 Q1390.27 1189.62 1387.59 1188.98 Q1384.92 1188.35 1382.06 1188.35 Q1377.7 1188.35 1375.5 1189.68 Q1373.34 1191.02 1373.34 1193.7 Q1373.34 1195.73 1374.89 1196.91 Q1376.45 1198.06 1381.16 1199.11 L1383.17 1199.55 Q1389.41 1200.89 1392.02 1203.34 Q1394.66 1205.76 1394.66 1210.12 Q1394.66 1215.08 1390.71 1217.98 Q1386.8 1220.88 1379.92 1220.88 Q1377.06 1220.88 1373.94 1220.3 Q1370.85 1219.76 1367.41 1218.65 L1367.41 1212.6 Q1370.66 1214.29 1373.81 1215.15 Q1376.96 1215.98 1380.05 1215.98 Q1384.19 1215.98 1386.42 1214.57 Q1388.64 1213.14 1388.64 1210.56 Q1388.64 1208.18 1387.02 1206.9 Q1385.43 1205.63 1379.99 1204.45 L1377.95 1203.98 Q1372.51 1202.83 1370.09 1200.47 Q1367.67 1198.09 1367.67 1193.95 Q1367.67 1188.92 1371.23 1186.18 Q1374.8 1183.45 1381.36 1183.45 Q1384.6 1183.45 1387.47 1183.92 Q1390.33 1184.4 1392.75 1185.36 Z" fill="#000000" fill-rule="nonzero" fill-opacity="1" /><path clip-path="url(#clip830)" d="M1454.34 1184.31 L1441.45 1201.65 L1455.01 1219.95 L1448.1 1219.95 L1437.72 1205.95 L1427.35 1219.95 L1420.44 1219.95 L1434.29 1201.3 L1421.62 1184.31 L1428.53 1184.31 L1437.98 1197.01 L1447.43 1184.31 L1454.34 1184.31 Z" fill="#000000" fill-rule="nonzero" fill-opacity="1" /><polyline clip-path="url(#clip830)" style="stroke:#000000; stroke-linecap:round; stroke-linejoin:round; stroke-width:4; stroke-opacity:1; fill:none" points="207.076,1063.09 207.076,47.2441 "/>
<polyline clip-path="url(#clip830)" style="stroke:#000000; stroke-linecap:round; stroke-linejoin:round; stroke-width:4; stroke-opacity:1; fill:none" points="207.076,933.793 225.974,933.793 "/>
<polyline clip-path="url(#clip830)" style="stroke:#000000; stroke-linecap:round; stroke-linejoin:round; stroke-width:4; stroke-opacity:1; fill:none" points="207.076,672.632 225.974,672.632 "/>
<polyline clip-path="url(#clip830)" style="stroke:#000000; stroke-linecap:round; stroke-linejoin:round; stroke-width:4; stroke-opacity:1; fill:none" points="207.076,411.472 225.974,411.472 "/>
<polyline clip-path="url(#clip830)" style="stroke:#000000; stroke-linecap:round; stroke-linejoin:round; stroke-width:4; stroke-opacity:1; fill:none" points="207.076,150.311 225.974,150.311 "/>
<path clip-path="url(#clip830)" d="M103.127 919.591 Q99.5164 919.591 97.6877 923.156 Q95.8822 926.698 95.8822 933.827 Q95.8822 940.934 97.6877 944.499 Q99.5164 948.04 103.127 948.04 Q106.762 948.04 108.567 944.499 Q110.396 940.934 110.396 933.827 Q110.396 926.698 108.567 923.156 Q106.762 919.591 103.127 919.591 M103.127 915.888 Q108.938 915.888 111.993 920.494 Q115.072 925.077 115.072 933.827 Q115.072 942.554 111.993 947.161 Q108.938 951.744 103.127 951.744 Q97.3173 951.744 94.2387 947.161 Q91.1831 942.554 91.1831 933.827 Q91.1831 925.077 94.2387 920.494 Q97.3173 915.888 103.127 915.888 Z" fill="#000000" fill-rule="nonzero" fill-opacity="1" /><path clip-path="url(#clip830)" d="M123.289 945.193 L128.174 945.193 L128.174 951.073 L123.289 951.073 L123.289 945.193 Z" fill="#000000" fill-rule="nonzero" fill-opacity="1" /><path clip-path="url(#clip830)" d="M139.169 947.138 L146.808 947.138 L146.808 920.772 L138.498 922.439 L138.498 918.179 L146.762 916.513 L151.437 916.513 L151.437 947.138 L159.076 947.138 L159.076 951.073 L139.169 951.073 L139.169 947.138 Z" fill="#000000" fill-rule="nonzero" fill-opacity="1" /><path clip-path="url(#clip830)" d="M103.498 658.431 Q99.8868 658.431 98.0581 661.996 Q96.2525 665.537 96.2525 672.667 Q96.2525 679.773 98.0581 683.338 Q99.8868 686.88 103.498 686.88 Q107.132 686.88 108.938 683.338 Q110.766 679.773 110.766 672.667 Q110.766 665.537 108.938 661.996 Q107.132 658.431 103.498 658.431 M103.498 654.727 Q109.308 654.727 112.364 659.334 Q115.442 663.917 115.442 672.667 Q115.442 681.394 112.364 686 Q109.308 690.583 103.498 690.583 Q97.6877 690.583 94.609 686 Q91.5535 681.394 91.5535 672.667 Q91.5535 663.917 94.609 659.334 Q97.6877 654.727 103.498 654.727 Z" fill="#000000" fill-rule="nonzero" fill-opacity="1" /><path clip-path="url(#clip830)" d="M123.66 684.033 L128.544 684.033 L128.544 689.912 L123.66 689.912 L123.66 684.033 Z" fill="#000000" fill-rule="nonzero" fill-opacity="1" /><path clip-path="url(#clip830)" d="M142.757 685.977 L159.076 685.977 L159.076 689.912 L137.132 689.912 L137.132 685.977 Q139.794 683.222 144.377 678.593 Q148.984 673.94 150.164 672.597 Q152.41 670.074 153.289 668.338 Q154.192 666.579 154.192 664.889 Q154.192 662.135 152.248 660.398 Q150.326 658.662 147.224 658.662 Q145.025 658.662 142.572 659.426 Q140.141 660.19 137.363 661.741 L137.363 657.019 Q140.187 655.885 142.641 655.306 Q145.095 654.727 147.132 654.727 Q152.502 654.727 155.697 657.412 Q158.891 660.097 158.891 664.588 Q158.891 666.718 158.081 668.639 Q157.294 670.537 155.187 673.13 Q154.609 673.801 151.507 677.019 Q148.405 680.213 142.757 685.977 Z" fill="#000000" fill-rule="nonzero" fill-opacity="1" /><path clip-path="url(#clip830)" d="M102.549 397.27 Q98.9377 397.27 97.109 400.835 Q95.3035 404.377 95.3035 411.506 Q95.3035 418.613 97.109 422.178 Q98.9377 425.719 102.549 425.719 Q106.183 425.719 107.989 422.178 Q109.817 418.613 109.817 411.506 Q109.817 404.377 107.989 400.835 Q106.183 397.27 102.549 397.27 M102.549 393.567 Q108.359 393.567 111.414 398.173 Q114.493 402.756 114.493 411.506 Q114.493 420.233 111.414 424.84 Q108.359 429.423 102.549 429.423 Q96.7386 429.423 93.6599 424.84 Q90.6044 420.233 90.6044 411.506 Q90.6044 402.756 93.6599 398.173 Q96.7386 393.567 102.549 393.567 Z" fill="#000000" fill-rule="nonzero" fill-opacity="1" /><path clip-path="url(#clip830)" d="M122.711 422.872 L127.595 422.872 L127.595 428.752 L122.711 428.752 L122.711 422.872 Z" fill="#000000" fill-rule="nonzero" fill-opacity="1" /><path clip-path="url(#clip830)" d="M151.947 410.117 Q155.303 410.835 157.178 413.104 Q159.076 415.372 159.076 418.705 Q159.076 423.821 155.558 426.622 Q152.039 429.423 145.558 429.423 Q143.382 429.423 141.067 428.983 Q138.775 428.566 136.322 427.71 L136.322 423.196 Q138.266 424.33 140.581 424.909 Q142.896 425.488 145.419 425.488 Q149.817 425.488 152.109 423.752 Q154.424 422.016 154.424 418.705 Q154.424 415.65 152.271 413.937 Q150.141 412.201 146.322 412.201 L142.294 412.201 L142.294 408.358 L146.507 408.358 Q149.956 408.358 151.785 406.992 Q153.613 405.604 153.613 403.011 Q153.613 400.349 151.715 398.937 Q149.84 397.502 146.322 397.502 Q144.4 397.502 142.201 397.918 Q140.002 398.335 137.363 399.215 L137.363 395.048 Q140.025 394.307 142.34 393.937 Q144.678 393.567 146.738 393.567 Q152.062 393.567 155.164 395.997 Q158.266 398.405 158.266 402.525 Q158.266 405.395 156.623 407.386 Q154.979 409.354 151.947 410.117 Z" fill="#000000" fill-rule="nonzero" fill-opacity="1" /><path clip-path="url(#clip830)" d="M101.415 136.11 Q97.8034 136.11 95.9748 139.675 Q94.1692 143.216 94.1692 150.346 Q94.1692 157.452 95.9748 161.017 Q97.8034 164.559 101.415 164.559 Q105.049 164.559 106.854 161.017 Q108.683 157.452 108.683 150.346 Q108.683 143.216 106.854 139.675 Q105.049 136.11 101.415 136.11 M101.415 132.406 Q107.225 132.406 110.28 137.013 Q113.359 141.596 113.359 150.346 Q113.359 159.073 110.28 163.679 Q107.225 168.262 101.415 168.262 Q95.6044 168.262 92.5257 163.679 Q89.4702 159.073 89.4702 150.346 Q89.4702 141.596 92.5257 137.013 Q95.6044 132.406 101.415 132.406 Z" fill="#000000" fill-rule="nonzero" fill-opacity="1" /><path clip-path="url(#clip830)" d="M121.576 161.711 L126.461 161.711 L126.461 167.591 L121.576 167.591 L121.576 161.711 Z" fill="#000000" fill-rule="nonzero" fill-opacity="1" /><path clip-path="url(#clip830)" d="M149.493 137.105 L137.687 155.554 L149.493 155.554 L149.493 137.105 M148.266 133.031 L154.146 133.031 L154.146 155.554 L159.076 155.554 L159.076 159.443 L154.146 159.443 L154.146 167.591 L149.493 167.591 L149.493 159.443 L133.891 159.443 L133.891 154.929 L148.266 133.031 Z" fill="#000000" fill-rule="nonzero" fill-opacity="1" /><path clip-path="url(#clip830)" d="M21.867 766.652 L40.7731 766.652 L40.7731 772.54 L-8.4338 772.54 L-8.4338 766.652 L-3.02295 766.652 Q-6.2058 764.806 -7.73357 762.005 Q-9.29317 759.172 -9.29317 755.257 Q-9.29317 748.764 -4.13695 744.722 Q1.01927 740.648 9.42201 740.648 Q17.8247 740.648 22.981 744.722 Q28.1372 748.764 28.1372 755.257 Q28.1372 759.172 26.6094 762.005 Q25.0498 764.806 21.867 766.652 M9.42201 746.727 Q2.96082 746.727 -0.699466 749.401 Q-4.39158 752.042 -4.39158 756.689 Q-4.39158 761.336 -0.699466 764.01 Q2.96082 766.652 9.42201 766.652 Q15.8832 766.652 19.5753 764.01 Q23.2356 761.336 23.2356 756.689 Q23.2356 752.042 19.5753 749.401 Q15.8832 746.727 9.42201 746.727 Z" fill="#000000" fill-rule="nonzero" fill-opacity="1" /><path clip-path="url(#clip830)" d="M-2.95929 710.283 Q-3.53221 711.27 -3.78683 712.448 Q-4.07329 713.593 -4.07329 714.994 Q-4.07329 719.959 -0.82678 722.633 Q2.3879 725.275 8.43532 725.275 L27.2142 725.275 L27.2142 731.163 L-8.4338 731.163 L-8.4338 725.275 L-2.89563 725.275 Q-6.14215 723.429 -7.70174 720.468 Q-9.29317 717.508 -9.29317 713.275 Q-9.29317 712.67 -9.19768 711.938 Q-9.13403 711.206 -8.97488 710.315 L-2.95929 710.283 Z" fill="#000000" fill-rule="nonzero" fill-opacity="1" /><path clip-path="url(#clip830)" d="M-8.4338 704.14 L-8.4338 698.284 L27.2142 698.284 L27.2142 704.14 L-8.4338 704.14 M-22.311 704.14 L-22.311 698.284 L-14.895 698.284 L-14.895 704.14 L-22.311 704.14 Z" fill="#000000" fill-rule="nonzero" fill-opacity="1" /><path clip-path="url(#clip830)" d="M-7.06517 660.376 L-1.59067 660.376 Q-2.95929 662.859 -3.62769 665.373 Q-4.32792 667.856 -4.32792 670.402 Q-4.32792 676.099 -0.699466 679.251 Q2.89716 682.402 9.42201 682.402 Q15.9469 682.402 19.5753 679.251 Q23.1719 676.099 23.1719 670.402 Q23.1719 667.856 22.5035 665.373 Q21.8033 662.859 20.4347 660.376 L25.8455 660.376 Q26.9914 662.827 27.5643 665.469 Q28.1372 668.079 28.1372 671.039 Q28.1372 679.091 23.0764 683.834 Q18.0157 688.576 9.42201 688.576 Q0.700989 688.576 -4.29609 683.802 Q-9.29317 678.996 -9.29317 670.657 Q-9.29317 667.951 -8.72026 665.373 Q-8.17917 662.795 -7.06517 660.376 Z" fill="#000000" fill-rule="nonzero" fill-opacity="1" /><path clip-path="url(#clip830)" d="M7.92607 619.699 L10.7906 619.699 L10.7906 646.626 Q16.8381 646.244 20.0209 642.998 Q23.1719 639.719 23.1719 633.895 Q23.1719 630.521 22.3444 627.37 Q21.5169 624.187 19.8618 621.068 L25.3999 621.068 Q26.7367 624.219 27.437 627.529 Q28.1372 630.839 28.1372 634.245 Q28.1372 642.775 23.1719 647.772 Q18.2067 652.737 9.74029 652.737 Q0.987446 652.737 -4.13695 648.027 Q-9.29317 643.284 -9.29317 635.263 Q-9.29317 628.07 -4.6462 623.901 Q-0.0310669 619.699 7.92607 619.699 M6.20733 625.556 Q1.40122 625.619 -1.46335 628.261 Q-4.32792 630.871 -4.32792 635.2 Q-4.32792 640.101 -1.55884 643.061 Q1.21025 645.99 6.23915 646.435 L6.20733 625.556 Z" fill="#000000" fill-rule="nonzero" fill-opacity="1" /><path clip-path="url(#clip830)" d="M-4.32792 575.553 Q-4.32792 580.264 -0.635809 583.001 Q3.02447 585.738 9.42201 585.738 Q15.8195 585.738 19.5117 583.033 Q23.1719 580.296 23.1719 575.553 Q23.1719 570.874 19.4798 568.137 Q15.7877 565.4 9.42201 565.4 Q3.08813 565.4 -0.60398 568.137 Q-4.32792 570.874 -4.32792 575.553 M-9.29317 575.553 Q-9.29317 567.914 -4.32792 563.554 Q0.637332 559.193 9.42201 559.193 Q18.1749 559.193 23.1719 563.554 Q28.1372 567.914 28.1372 575.553 Q28.1372 583.224 23.1719 587.584 Q18.1749 591.913 9.42201 591.913 Q0.637332 591.913 -4.32792 587.584 Q-9.29317 583.224 -9.29317 575.553 Z" fill="#000000" fill-rule="nonzero" fill-opacity="1" /><path clip-path="url(#clip830)" d="M-22.311 531.439 L-17.4413 531.439 L-17.4413 537.041 Q-17.4413 540.192 -16.1681 541.433 Q-14.895 542.642 -11.5848 542.642 L-8.4338 542.642 L-8.4338 532.998 L-3.88232 532.998 L-3.88232 542.642 L27.2142 542.642 L27.2142 548.531 L-3.88232 548.531 L-3.88232 554.133 L-8.4338 554.133 L-8.4338 548.531 L-10.9164 548.531 Q-16.8684 548.531 -19.5738 545.762 Q-22.311 542.993 -22.311 536.977 L-22.311 531.439 Z" fill="#000000" fill-rule="nonzero" fill-opacity="1" /><path clip-path="url(#clip830)" d="M-2.95929 485.16 Q-3.53221 486.147 -3.78683 487.324 Q-4.07329 488.47 -4.07329 489.871 Q-4.07329 494.836 -0.82678 497.51 Q2.3879 500.151 8.43532 500.151 L27.2142 500.151 L27.2142 506.04 L-8.4338 506.04 L-8.4338 500.151 L-2.89563 500.151 Q-6.14215 498.305 -7.70174 495.345 Q-9.29317 492.385 -9.29317 488.152 Q-9.29317 487.547 -9.19768 486.815 Q-9.13403 486.083 -8.97488 485.192 L-2.95929 485.16 Z" fill="#000000" fill-rule="nonzero" fill-opacity="1" /><path clip-path="url(#clip830)" d="M-8.4338 479.017 L-8.4338 473.161 L27.2142 473.161 L27.2142 479.017 L-8.4338 479.017 M-22.311 479.017 L-22.311 473.161 L-14.895 473.161 L-14.895 479.017 L-22.311 479.017 Z" fill="#000000" fill-rule="nonzero" fill-opacity="1" /><path clip-path="url(#clip830)" d="M-7.38346 438.181 L-1.84529 438.181 Q-3.11843 440.664 -3.75501 443.337 Q-4.39158 446.011 -4.39158 448.876 Q-4.39158 453.236 -3.05478 455.432 Q-1.71798 457.597 0.955618 457.597 Q2.99264 457.597 4.1703 456.037 Q5.31613 454.477 6.36647 449.767 L6.81207 447.762 Q8.14887 441.523 10.5997 438.913 Q13.0186 436.271 17.3791 436.271 Q22.3444 436.271 25.2408 440.218 Q28.1372 444.133 28.1372 451.008 Q28.1372 453.873 27.5643 456.992 Q27.0232 460.079 25.9092 463.517 L19.8618 463.517 Q21.5487 460.27 22.408 457.119 Q23.2356 453.968 23.2356 450.881 Q23.2356 446.743 21.8351 444.515 Q20.4029 442.287 17.8247 442.287 Q15.4376 442.287 14.1645 443.91 Q12.8913 445.502 11.7137 450.944 L11.2362 452.981 Q10.0904 458.424 7.7351 460.843 Q5.34796 463.262 1.21025 463.262 Q-3.81866 463.262 -6.55592 459.697 Q-9.29317 456.132 -9.29317 449.576 Q-9.29317 446.329 -8.81574 443.465 Q-8.33831 440.6 -7.38346 438.181 Z" fill="#000000" fill-rule="nonzero" fill-opacity="1" /><path clip-path="url(#clip830)" d="M-22.311 427.169 L-22.311 421.28 L6.93938 421.28 L-8.4338 403.806 L-8.4338 396.327 L8.24435 415.233 L27.2142 395.531 L27.2142 403.17 L9.80395 421.28 L27.2142 421.28 L27.2142 427.169 L-22.311 427.169 Z" fill="#000000" fill-rule="nonzero" fill-opacity="1" /><path clip-path="url(#clip830)" d="M-8.4338 368.54 L-8.4338 362.493 L6.36647 362.493 L-8.4338 347.12 L-8.4338 339.99 L4.99784 354.027 L27.2142 337.794 L27.2142 344.955 L8.81727 358.132 L12.9231 362.493 L27.2142 362.493 L27.2142 368.54 L-8.4338 368.54 Z" fill="#000000" fill-rule="nonzero" fill-opacity="1" /><polyline clip-path="url(#clip832)" style="stroke:#009af9; stroke-linecap:round; stroke-linejoin:round; stroke-width:4; stroke-opacity:1; fill:none" points="244.742,124.195 257.424,75.9944 270.105,131.606 282.787,192.952 295.469,250.399 308.151,302.344 320.833,348.919 333.515,390.687 346.197,428.273 358.879,462.266 371.561,493.19 384.243,521.511 396.925,544.547 409.607,568.188 422.289,589.99 434.971,610.175 447.652,628.93 460.334,646.412 473.016,662.757 485.698,678.081 498.38,692.486 511.062,706.057 523.744,718.871 536.426,730.995 549.108,742.487 561.79,753.398 574.472,763.775 587.154,773.658 599.836,783.084 612.518,792.085 625.2,800.692 637.881,808.93 650.563,816.824 663.245,824.395 675.927,831.665 688.609,838.651 701.291,845.369 713.973,851.836 726.655,858.065 739.337,864.07 752.019,869.862 764.701,875.453 777.383,880.854 790.065,886.073 802.747,891.12 815.428,896.004 828.11,900.732 840.792,905.312 853.474,909.75 866.156,914.053 878.838,918.227 891.52,922.278 904.202,926.211 916.884,930.032 929.566,933.744 942.248,937.353 954.93,940.862 967.612,944.276 980.294,947.599 992.975,950.834 1005.66,953.985 1018.34,957.054 1031.02,960.046 1043.7,962.962 1056.39,965.806 1069.07,968.581 1081.75,971.288 1094.43,973.93 1107.11,976.51 1119.79,979.03 1132.48,981.491 1145.16,983.896 1157.84,986.247 1170.52,988.546 1183.2,990.793 1195.89,992.992 1208.57,995.143 1221.25,997.248 1233.93,999.309 1246.61,1001.33 1259.3,1003.3 1271.98,1005.24 1284.66,1007.13 1297.34,1008.99 1310.02,1010.81 1322.71,1012.6 1335.39,1014.35 1348.07,1016.06 1360.75,1017.75 1373.43,1019.4 1386.12,1021.02 1398.8,1022.61 1411.48,1024.17 1424.16,1025.7 1436.84,1027.21 1449.52,1028.68 1462.21,1030.14 1474.89,1031.56 1487.57,1032.96 1500.25,1034.34 "/>
<path clip-path="url(#clip830)" d="M1821.91 1063.09 L3152.76 1063.09 L3152.76 47.2441 L1821.91 47.2441  Z" fill="#ffffff" fill-rule="evenodd" fill-opacity="1"/>
<polyline clip-path="url(#clip831)" style="stroke:#000000; stroke-linecap:round; stroke-linejoin:round; stroke-width:2; stroke-opacity:0.1; fill:none" points="1859.58,1063.09 1859.58,47.2441 "/>
<polyline clip-path="url(#clip831)" style="stroke:#000000; stroke-linecap:round; stroke-linejoin:round; stroke-width:2; stroke-opacity:0.1; fill:none" points="2173.46,1063.09 2173.46,47.2441 "/>
<polyline clip-path="url(#clip831)" style="stroke:#000000; stroke-linecap:round; stroke-linejoin:round; stroke-width:2; stroke-opacity:0.1; fill:none" points="2487.34,1063.09 2487.34,47.2441 "/>
<polyline clip-path="url(#clip831)" style="stroke:#000000; stroke-linecap:round; stroke-linejoin:round; stroke-width:2; stroke-opacity:0.1; fill:none" points="2801.21,1063.09 2801.21,47.2441 "/>
<polyline clip-path="url(#clip831)" style="stroke:#000000; stroke-linecap:round; stroke-linejoin:round; stroke-width:2; stroke-opacity:0.1; fill:none" points="3115.09,1063.09 3115.09,47.2441 "/>
<polyline clip-path="url(#clip831)" style="stroke:#000000; stroke-linecap:round; stroke-linejoin:round; stroke-width:2; stroke-opacity:0.1; fill:none" points="1821.91,849.671 3152.76,849.671 "/>
<polyline clip-path="url(#clip831)" style="stroke:#000000; stroke-linecap:round; stroke-linejoin:round; stroke-width:2; stroke-opacity:0.1; fill:none" points="1821.91,634.388 3152.76,634.388 "/>
<polyline clip-path="url(#clip831)" style="stroke:#000000; stroke-linecap:round; stroke-linejoin:round; stroke-width:2; stroke-opacity:0.1; fill:none" points="1821.91,419.105 3152.76,419.105 "/>
<polyline clip-path="url(#clip831)" style="stroke:#000000; stroke-linecap:round; stroke-linejoin:round; stroke-width:2; stroke-opacity:0.1; fill:none" points="1821.91,203.822 3152.76,203.822 "/>
<polyline clip-path="url(#clip830)" style="stroke:#000000; stroke-linecap:round; stroke-linejoin:round; stroke-width:4; stroke-opacity:1; fill:none" points="1821.91,1063.09 3152.76,1063.09 "/>
<polyline clip-path="url(#clip830)" style="stroke:#000000; stroke-linecap:round; stroke-linejoin:round; stroke-width:4; stroke-opacity:1; fill:none" points="1859.58,1063.09 1859.58,1044.19 "/>
<polyline clip-path="url(#clip830)" style="stroke:#000000; stroke-linecap:round; stroke-linejoin:round; stroke-width:4; stroke-opacity:1; fill:none" points="2173.46,1063.09 2173.46,1044.19 "/>
<polyline clip-path="url(#clip830)" style="stroke:#000000; stroke-linecap:round; stroke-linejoin:round; stroke-width:4; stroke-opacity:1; fill:none" points="2487.34,1063.09 2487.34,1044.19 "/>
<polyline clip-path="url(#clip830)" style="stroke:#000000; stroke-linecap:round; stroke-linejoin:round; stroke-width:4; stroke-opacity:1; fill:none" points="2801.21,1063.09 2801.21,1044.19 "/>
<polyline clip-path="url(#clip830)" style="stroke:#000000; stroke-linecap:round; stroke-linejoin:round; stroke-width:4; stroke-opacity:1; fill:none" points="3115.09,1063.09 3115.09,1044.19 "/>
<path clip-path="url(#clip830)" d="M1821.88 1100.41 Q1818.27 1100.41 1816.44 1103.97 Q1814.64 1107.51 1814.64 1114.64 Q1814.64 1121.75 1816.44 1125.32 Q1818.27 1128.86 1821.88 1128.86 Q1825.52 1128.86 1827.32 1125.32 Q1829.15 1121.75 1829.15 1114.64 Q1829.15 1107.51 1827.32 1103.97 Q1825.52 1100.41 1821.88 1100.41 M1821.88 1096.7 Q1827.69 1096.7 1830.75 1101.31 Q1833.83 1105.89 1833.83 1114.64 Q1833.83 1123.37 1830.75 1127.98 Q1827.69 1132.56 1821.88 1132.56 Q1816.07 1132.56 1812.99 1127.98 Q1809.94 1123.37 1809.94 1114.64 Q1809.94 1105.89 1812.99 1101.31 Q1816.07 1096.7 1821.88 1096.7 Z" fill="#000000" fill-rule="nonzero" fill-opacity="1" /><path clip-path="url(#clip830)" d="M1842.04 1126.01 L1846.93 1126.01 L1846.93 1131.89 L1842.04 1131.89 L1842.04 1126.01 Z" fill="#000000" fill-rule="nonzero" fill-opacity="1" /><path clip-path="url(#clip830)" d="M1867.11 1100.41 Q1863.5 1100.41 1861.67 1103.97 Q1859.87 1107.51 1859.87 1114.64 Q1859.87 1121.75 1861.67 1125.32 Q1863.5 1128.86 1867.11 1128.86 Q1870.75 1128.86 1872.55 1125.32 Q1874.38 1121.75 1874.38 1114.64 Q1874.38 1107.51 1872.55 1103.97 Q1870.75 1100.41 1867.11 1100.41 M1867.11 1096.7 Q1872.92 1096.7 1875.98 1101.31 Q1879.06 1105.89 1879.06 1114.64 Q1879.06 1123.37 1875.98 1127.98 Q1872.92 1132.56 1867.11 1132.56 Q1861.3 1132.56 1858.23 1127.98 Q1855.17 1123.37 1855.17 1114.64 Q1855.17 1105.89 1858.23 1101.31 Q1861.3 1096.7 1867.11 1096.7 Z" fill="#000000" fill-rule="nonzero" fill-opacity="1" /><path clip-path="url(#clip830)" d="M1897.28 1100.41 Q1893.66 1100.41 1891.84 1103.97 Q1890.03 1107.51 1890.03 1114.64 Q1890.03 1121.75 1891.84 1125.32 Q1893.66 1128.86 1897.28 1128.86 Q1900.91 1128.86 1902.72 1125.32 Q1904.54 1121.75 1904.54 1114.64 Q1904.54 1107.51 1902.72 1103.97 Q1900.91 1100.41 1897.28 1100.41 M1897.28 1096.7 Q1903.09 1096.7 1906.14 1101.31 Q1909.22 1105.89 1909.22 1114.64 Q1909.22 1123.37 1906.14 1127.98 Q1903.09 1132.56 1897.28 1132.56 Q1891.47 1132.56 1888.39 1127.98 Q1885.33 1123.37 1885.33 1114.64 Q1885.33 1105.89 1888.39 1101.31 Q1891.47 1096.7 1897.28 1096.7 Z" fill="#000000" fill-rule="nonzero" fill-opacity="1" /><path clip-path="url(#clip830)" d="M2136.26 1100.41 Q2132.65 1100.41 2130.82 1103.97 Q2129.01 1107.51 2129.01 1114.64 Q2129.01 1121.75 2130.82 1125.32 Q2132.65 1128.86 2136.26 1128.86 Q2139.89 1128.86 2141.7 1125.32 Q2143.53 1121.75 2143.53 1114.64 Q2143.53 1107.51 2141.7 1103.97 Q2139.89 1100.41 2136.26 1100.41 M2136.26 1096.7 Q2142.07 1096.7 2145.12 1101.31 Q2148.2 1105.89 2148.2 1114.64 Q2148.2 1123.37 2145.12 1127.98 Q2142.07 1132.56 2136.26 1132.56 Q2130.45 1132.56 2127.37 1127.98 Q2124.31 1123.37 2124.31 1114.64 Q2124.31 1105.89 2127.37 1101.31 Q2130.45 1096.7 2136.26 1096.7 Z" fill="#000000" fill-rule="nonzero" fill-opacity="1" /><path clip-path="url(#clip830)" d="M2156.42 1126.01 L2161.3 1126.01 L2161.3 1131.89 L2156.42 1131.89 L2156.42 1126.01 Z" fill="#000000" fill-rule="nonzero" fill-opacity="1" /><path clip-path="url(#clip830)" d="M2175.52 1127.95 L2191.84 1127.95 L2191.84 1131.89 L2169.89 1131.89 L2169.89 1127.95 Q2172.55 1125.2 2177.14 1120.57 Q2181.74 1115.92 2182.92 1114.58 Q2185.17 1112.05 2186.05 1110.32 Q2186.95 1108.56 2186.95 1106.87 Q2186.95 1104.11 2185.01 1102.38 Q2183.09 1100.64 2179.98 1100.64 Q2177.79 1100.64 2175.33 1101.4 Q2172.9 1102.17 2170.12 1103.72 L2170.12 1099 Q2172.95 1097.86 2175.4 1097.28 Q2177.86 1096.7 2179.89 1096.7 Q2185.26 1096.7 2188.46 1099.39 Q2191.65 1102.08 2191.65 1106.57 Q2191.65 1108.7 2190.84 1110.62 Q2190.05 1112.51 2187.95 1115.11 Q2187.37 1115.78 2184.27 1119 Q2181.17 1122.19 2175.52 1127.95 Z" fill="#000000" fill-rule="nonzero" fill-opacity="1" /><path clip-path="url(#clip830)" d="M2201.7 1097.33 L2220.05 1097.33 L2220.05 1101.27 L2205.98 1101.27 L2205.98 1109.74 Q2207 1109.39 2208.02 1109.23 Q2209.04 1109.04 2210.05 1109.04 Q2215.84 1109.04 2219.22 1112.21 Q2222.6 1115.39 2222.6 1120.8 Q2222.6 1126.38 2219.13 1129.48 Q2215.66 1132.56 2209.34 1132.56 Q2207.16 1132.56 2204.89 1132.19 Q2202.65 1131.82 2200.24 1131.08 L2200.24 1126.38 Q2202.32 1127.51 2204.55 1128.07 Q2206.77 1128.63 2209.24 1128.63 Q2213.25 1128.63 2215.59 1126.52 Q2217.92 1124.41 2217.92 1120.8 Q2217.92 1117.19 2215.59 1115.08 Q2213.25 1112.98 2209.24 1112.98 Q2207.37 1112.98 2205.49 1113.39 Q2203.64 1113.81 2201.7 1114.69 L2201.7 1097.33 Z" fill="#000000" fill-rule="nonzero" fill-opacity="1" /><path clip-path="url(#clip830)" d="M2449.64 1100.41 Q2446.03 1100.41 2444.2 1103.97 Q2442.39 1107.51 2442.39 1114.64 Q2442.39 1121.75 2444.2 1125.32 Q2446.03 1128.86 2449.64 1128.86 Q2453.27 1128.86 2455.08 1125.32 Q2456.91 1121.75 2456.91 1114.64 Q2456.91 1107.51 2455.08 1103.97 Q2453.27 1100.41 2449.64 1100.41 M2449.64 1096.7 Q2455.45 1096.7 2458.5 1101.31 Q2461.58 1105.89 2461.58 1114.64 Q2461.58 1123.37 2458.5 1127.98 Q2455.45 1132.56 2449.64 1132.56 Q2443.83 1132.56 2440.75 1127.98 Q2437.69 1123.37 2437.69 1114.64 Q2437.69 1105.89 2440.75 1101.31 Q2443.83 1096.7 2449.64 1096.7 Z" fill="#000000" fill-rule="nonzero" fill-opacity="1" /><path clip-path="url(#clip830)" d="M2469.8 1126.01 L2474.68 1126.01 L2474.68 1131.89 L2469.8 1131.89 L2469.8 1126.01 Z" fill="#000000" fill-rule="nonzero" fill-opacity="1" /><path clip-path="url(#clip830)" d="M2484.92 1097.33 L2503.27 1097.33 L2503.27 1101.27 L2489.2 1101.27 L2489.2 1109.74 Q2490.22 1109.39 2491.24 1109.23 Q2492.25 1109.04 2493.27 1109.04 Q2499.06 1109.04 2502.44 1112.21 Q2505.82 1115.39 2505.82 1120.8 Q2505.82 1126.38 2502.35 1129.48 Q2498.87 1132.56 2492.55 1132.56 Q2490.38 1132.56 2488.11 1132.19 Q2485.87 1131.82 2483.46 1131.08 L2483.46 1126.38 Q2485.54 1127.51 2487.76 1128.07 Q2489.99 1128.63 2492.46 1128.63 Q2496.47 1128.63 2498.8 1126.52 Q2501.14 1124.41 2501.14 1120.8 Q2501.14 1117.19 2498.8 1115.08 Q2496.47 1112.98 2492.46 1112.98 Q2490.59 1112.98 2488.71 1113.39 Q2486.86 1113.81 2484.92 1114.69 L2484.92 1097.33 Z" fill="#000000" fill-rule="nonzero" fill-opacity="1" /><path clip-path="url(#clip830)" d="M2525.03 1100.41 Q2521.42 1100.41 2519.59 1103.97 Q2517.79 1107.51 2517.79 1114.64 Q2517.79 1121.75 2519.59 1125.32 Q2521.42 1128.86 2525.03 1128.86 Q2528.67 1128.86 2530.47 1125.32 Q2532.3 1121.75 2532.3 1114.64 Q2532.3 1107.51 2530.47 1103.97 Q2528.67 1100.41 2525.03 1100.41 M2525.03 1096.7 Q2530.84 1096.7 2533.9 1101.31 Q2536.98 1105.89 2536.98 1114.64 Q2536.98 1123.37 2533.9 1127.98 Q2530.84 1132.56 2525.03 1132.56 Q2519.22 1132.56 2516.14 1127.98 Q2513.09 1123.37 2513.09 1114.64 Q2513.09 1105.89 2516.14 1101.31 Q2519.22 1096.7 2525.03 1096.7 Z" fill="#000000" fill-rule="nonzero" fill-opacity="1" /><path clip-path="url(#clip830)" d="M2764.01 1100.41 Q2760.4 1100.41 2758.57 1103.97 Q2756.77 1107.51 2756.77 1114.64 Q2756.77 1121.75 2758.57 1125.32 Q2760.4 1128.86 2764.01 1128.86 Q2767.65 1128.86 2769.45 1125.32 Q2771.28 1121.75 2771.28 1114.64 Q2771.28 1107.51 2769.45 1103.97 Q2767.65 1100.41 2764.01 1100.41 M2764.01 1096.7 Q2769.82 1096.7 2772.88 1101.31 Q2775.96 1105.89 2775.96 1114.64 Q2775.96 1123.37 2772.88 1127.98 Q2769.82 1132.56 2764.01 1132.56 Q2758.2 1132.56 2755.13 1127.98 Q2752.07 1123.37 2752.07 1114.64 Q2752.07 1105.89 2755.13 1101.31 Q2758.2 1096.7 2764.01 1096.7 Z" fill="#000000" fill-rule="nonzero" fill-opacity="1" /><path clip-path="url(#clip830)" d="M2784.18 1126.01 L2789.06 1126.01 L2789.06 1131.89 L2784.18 1131.89 L2784.18 1126.01 Z" fill="#000000" fill-rule="nonzero" fill-opacity="1" /><path clip-path="url(#clip830)" d="M2798.06 1097.33 L2820.29 1097.33 L2820.29 1099.32 L2807.74 1131.89 L2802.86 1131.89 L2814.66 1101.27 L2798.06 1101.27 L2798.06 1097.33 Z" fill="#000000" fill-rule="nonzero" fill-opacity="1" /><path clip-path="url(#clip830)" d="M2829.45 1097.33 L2847.81 1097.33 L2847.81 1101.27 L2833.74 1101.27 L2833.74 1109.74 Q2834.75 1109.39 2835.77 1109.23 Q2836.79 1109.04 2837.81 1109.04 Q2843.6 1109.04 2846.98 1112.21 Q2850.36 1115.39 2850.36 1120.8 Q2850.36 1126.38 2846.88 1129.48 Q2843.41 1132.56 2837.09 1132.56 Q2834.92 1132.56 2832.65 1132.19 Q2830.4 1131.82 2828 1131.08 L2828 1126.38 Q2830.08 1127.51 2832.3 1128.07 Q2834.52 1128.63 2837 1128.63 Q2841 1128.63 2843.34 1126.52 Q2845.68 1124.41 2845.68 1120.8 Q2845.68 1117.19 2843.34 1115.08 Q2841 1112.98 2837 1112.98 Q2835.12 1112.98 2833.25 1113.39 Q2831.4 1113.81 2829.45 1114.69 L2829.45 1097.33 Z" fill="#000000" fill-rule="nonzero" fill-opacity="1" /><path clip-path="url(#clip830)" d="M3067.16 1127.95 L3074.8 1127.95 L3074.8 1101.59 L3066.49 1103.26 L3066.49 1099 L3074.76 1097.33 L3079.43 1097.33 L3079.43 1127.95 L3087.07 1127.95 L3087.07 1131.89 L3067.16 1131.89 L3067.16 1127.95 Z" fill="#000000" fill-rule="nonzero" fill-opacity="1" /><path clip-path="url(#clip830)" d="M3096.51 1126.01 L3101.4 1126.01 L3101.4 1131.89 L3096.51 1131.89 L3096.51 1126.01 Z" fill="#000000" fill-rule="nonzero" fill-opacity="1" /><path clip-path="url(#clip830)" d="M3121.58 1100.41 Q3117.97 1100.41 3116.14 1103.97 Q3114.34 1107.51 3114.34 1114.64 Q3114.34 1121.75 3116.14 1125.32 Q3117.97 1128.86 3121.58 1128.86 Q3125.22 1128.86 3127.02 1125.32 Q3128.85 1121.75 3128.85 1114.64 Q3128.85 1107.51 3127.02 1103.97 Q3125.22 1100.41 3121.58 1100.41 M3121.58 1096.7 Q3127.39 1096.7 3130.45 1101.31 Q3133.53 1105.89 3133.53 1114.64 Q3133.53 1123.37 3130.45 1127.98 Q3127.39 1132.56 3121.58 1132.56 Q3115.77 1132.56 3112.69 1127.98 Q3109.64 1123.37 3109.64 1114.64 Q3109.64 1105.89 3112.69 1101.31 Q3115.77 1096.7 3121.58 1096.7 Z" fill="#000000" fill-rule="nonzero" fill-opacity="1" /><path clip-path="url(#clip830)" d="M3151.75 1100.41 Q3148.13 1100.41 3146.31 1103.97 Q3144.5 1107.51 3144.5 1114.64 Q3144.5 1121.75 3146.31 1125.32 Q3148.13 1128.86 3151.75 1128.86 Q3155.38 1128.86 3157.19 1125.32 Q3159.01 1121.75 3159.01 1114.64 Q3159.01 1107.51 3157.19 1103.97 Q3155.38 1100.41 3151.75 1100.41 M3151.75 1096.7 Q3157.56 1096.7 3160.61 1101.31 Q3163.69 1105.89 3163.69 1114.64 Q3163.69 1123.37 3160.61 1127.98 Q3157.56 1132.56 3151.75 1132.56 Q3145.94 1132.56 3142.86 1127.98 Q3139.8 1123.37 3139.8 1114.64 Q3139.8 1105.89 3142.86 1101.31 Q3145.94 1096.7 3151.75 1096.7 Z" fill="#000000" fill-rule="nonzero" fill-opacity="1" /><path clip-path="url(#clip830)" d="M1933.03 1185.67 L1933.03 1191.15 Q1930.54 1189.78 1928.03 1189.11 Q1925.55 1188.41 1923 1188.41 Q1917.3 1188.41 1914.15 1192.04 Q1911 1195.64 1911 1202.16 Q1911 1208.69 1914.15 1212.31 Q1917.3 1215.91 1923 1215.91 Q1925.55 1215.91 1928.03 1215.24 Q1930.54 1214.54 1933.03 1213.17 L1933.03 1218.59 Q1930.57 1219.73 1927.93 1220.3 Q1925.32 1220.88 1922.36 1220.88 Q1914.31 1220.88 1909.57 1215.82 Q1904.83 1210.76 1904.83 1202.16 Q1904.83 1193.44 1909.6 1188.44 Q1914.41 1183.45 1922.74 1183.45 Q1925.45 1183.45 1928.03 1184.02 Q1930.61 1184.56 1933.03 1185.67 Z" fill="#000000" fill-rule="nonzero" fill-opacity="1" /><path clip-path="url(#clip830)" d="M1957.02 1188.41 Q1952.31 1188.41 1949.58 1192.1 Q1946.84 1195.76 1946.84 1202.16 Q1946.84 1208.56 1949.54 1212.25 Q1952.28 1215.91 1957.02 1215.91 Q1961.7 1215.91 1964.44 1212.22 Q1967.18 1208.53 1967.18 1202.16 Q1967.18 1195.83 1964.44 1192.14 Q1961.7 1188.41 1957.02 1188.41 M1957.02 1183.45 Q1964.66 1183.45 1969.02 1188.41 Q1973.38 1193.38 1973.38 1202.16 Q1973.38 1210.91 1969.02 1215.91 Q1964.66 1220.88 1957.02 1220.88 Q1949.35 1220.88 1944.99 1215.91 Q1940.66 1210.91 1940.66 1202.16 Q1940.66 1193.38 1944.99 1188.41 Q1949.35 1183.45 1957.02 1183.45 Z" fill="#000000" fill-rule="nonzero" fill-opacity="1" /><path clip-path="url(#clip830)" d="M2012.72 1198.44 L2012.72 1219.95 L2006.87 1219.95 L2006.87 1198.63 Q2006.87 1193.57 2004.89 1191.05 Q2002.92 1188.54 1998.97 1188.54 Q1994.23 1188.54 1991.49 1191.56 Q1988.76 1194.59 1988.76 1199.81 L1988.76 1219.95 L1982.87 1219.95 L1982.87 1184.31 L1988.76 1184.31 L1988.76 1189.84 Q1990.86 1186.63 1993.69 1185.04 Q1996.55 1183.45 2000.28 1183.45 Q2006.42 1183.45 2009.57 1187.27 Q2012.72 1191.05 2012.72 1198.44 Z" fill="#000000" fill-rule="nonzero" fill-opacity="1" /><path clip-path="url(#clip830)" d="M2047.13 1185.36 L2047.13 1190.89 Q2044.65 1189.62 2041.97 1188.98 Q2039.3 1188.35 2036.44 1188.35 Q2032.08 1188.35 2029.88 1189.68 Q2027.72 1191.02 2027.72 1193.7 Q2027.72 1195.73 2029.27 1196.91 Q2030.83 1198.06 2035.54 1199.11 L2037.55 1199.55 Q2043.79 1200.89 2046.4 1203.34 Q2049.04 1205.76 2049.04 1210.12 Q2049.04 1215.08 2045.09 1217.98 Q2041.18 1220.88 2034.3 1220.88 Q2031.44 1220.88 2028.32 1220.3 Q2025.23 1219.76 2021.79 1218.65 L2021.79 1212.6 Q2025.04 1214.29 2028.19 1215.15 Q2031.34 1215.98 2034.43 1215.98 Q2038.57 1215.98 2040.8 1214.57 Q2043.02 1213.14 2043.02 1210.56 Q2043.02 1208.18 2041.4 1206.9 Q2039.81 1205.63 2034.37 1204.45 L2032.33 1203.98 Q2026.89 1202.83 2024.47 1200.47 Q2022.05 1198.09 2022.05 1193.95 Q2022.05 1188.92 2025.61 1186.18 Q2029.18 1183.45 2035.74 1183.45 Q2038.98 1183.45 2041.85 1183.92 Q2044.71 1184.4 2047.13 1185.36 Z" fill="#000000" fill-rule="nonzero" fill-opacity="1" /><path clip-path="url(#clip830)" d="M2057.76 1205.89 L2057.76 1184.31 L2063.62 1184.31 L2063.62 1205.66 Q2063.62 1210.72 2065.59 1213.27 Q2067.56 1215.78 2071.51 1215.78 Q2076.25 1215.78 2078.99 1212.76 Q2081.76 1209.74 2081.76 1204.52 L2081.76 1184.31 L2087.62 1184.31 L2087.62 1219.95 L2081.76 1219.95 L2081.76 1214.48 Q2079.63 1217.73 2076.79 1219.32 Q2073.99 1220.88 2070.27 1220.88 Q2064.13 1220.88 2060.94 1217.06 Q2057.76 1213.24 2057.76 1205.89 M2072.5 1183.45 L2072.5 1183.45 Z" fill="#000000" fill-rule="nonzero" fill-opacity="1" /><path clip-path="url(#clip830)" d="M2127.43 1191.15 Q2129.63 1187.2 2132.69 1185.32 Q2135.74 1183.45 2139.88 1183.45 Q2145.45 1183.45 2148.47 1187.36 Q2151.5 1191.24 2151.5 1198.44 L2151.5 1219.95 L2145.61 1219.95 L2145.61 1198.63 Q2145.61 1193.5 2143.79 1191.02 Q2141.98 1188.54 2138.26 1188.54 Q2133.7 1188.54 2131.06 1191.56 Q2128.42 1194.59 2128.42 1199.81 L2128.42 1219.95 L2122.53 1219.95 L2122.53 1198.63 Q2122.53 1193.47 2120.72 1191.02 Q2118.9 1188.54 2115.12 1188.54 Q2110.63 1188.54 2107.99 1191.59 Q2105.34 1194.62 2105.34 1199.81 L2105.34 1219.95 L2099.46 1219.95 L2099.46 1184.31 L2105.34 1184.31 L2105.34 1189.84 Q2107.35 1186.57 2110.15 1185.01 Q2112.95 1183.45 2116.8 1183.45 Q2120.69 1183.45 2123.39 1185.42 Q2126.13 1187.39 2127.43 1191.15 Z" fill="#000000" fill-rule="nonzero" fill-opacity="1" /><path clip-path="url(#clip830)" d="M2168.84 1214.61 L2168.84 1233.51 L2162.95 1233.51 L2162.95 1184.31 L2168.84 1184.31 L2168.84 1189.72 Q2170.69 1186.53 2173.49 1185.01 Q2176.32 1183.45 2180.24 1183.45 Q2186.73 1183.45 2190.77 1188.6 Q2194.85 1193.76 2194.85 1202.16 Q2194.85 1210.56 2190.77 1215.72 Q2186.73 1220.88 2180.24 1220.88 Q2176.32 1220.88 2173.49 1219.35 Q2170.69 1217.79 2168.84 1214.61 M2188.77 1202.16 Q2188.77 1195.7 2186.09 1192.04 Q2183.45 1188.35 2178.81 1188.35 Q2174.16 1188.35 2171.48 1192.04 Q2168.84 1195.7 2168.84 1202.16 Q2168.84 1208.62 2171.48 1212.31 Q2174.16 1215.98 2178.81 1215.98 Q2183.45 1215.98 2186.09 1212.31 Q2188.77 1208.62 2188.77 1202.16 Z" fill="#000000" fill-rule="nonzero" fill-opacity="1" /><path clip-path="url(#clip830)" d="M2210.35 1174.18 L2210.35 1184.31 L2222.41 1184.31 L2222.41 1188.86 L2210.35 1188.86 L2210.35 1208.21 Q2210.35 1212.57 2211.52 1213.81 Q2212.73 1215.05 2216.39 1215.05 L2222.41 1215.05 L2222.41 1219.95 L2216.39 1219.95 Q2209.62 1219.95 2207.04 1217.44 Q2204.46 1214.89 2204.46 1208.21 L2204.46 1188.86 L2200.16 1188.86 L2200.16 1184.31 L2204.46 1184.31 L2204.46 1174.18 L2210.35 1174.18 Z" fill="#000000" fill-rule="nonzero" fill-opacity="1" /><path clip-path="url(#clip830)" d="M2230.11 1184.31 L2235.97 1184.31 L2235.97 1219.95 L2230.11 1219.95 L2230.11 1184.31 M2230.11 1170.43 L2235.97 1170.43 L2235.97 1177.84 L2230.11 1177.84 L2230.11 1170.43 Z" fill="#000000" fill-rule="nonzero" fill-opacity="1" /><path clip-path="url(#clip830)" d="M2262.04 1188.41 Q2257.33 1188.41 2254.59 1192.1 Q2251.85 1195.76 2251.85 1202.16 Q2251.85 1208.56 2254.56 1212.25 Q2257.29 1215.91 2262.04 1215.91 Q2266.72 1215.91 2269.45 1212.22 Q2272.19 1208.53 2272.19 1202.16 Q2272.19 1195.83 2269.45 1192.14 Q2266.72 1188.41 2262.04 1188.41 M2262.04 1183.45 Q2269.68 1183.45 2274.04 1188.41 Q2278.4 1193.38 2278.4 1202.16 Q2278.4 1210.91 2274.04 1215.91 Q2269.68 1220.88 2262.04 1220.88 Q2254.37 1220.88 2250.01 1215.91 Q2245.68 1210.91 2245.68 1202.16 Q2245.68 1193.38 2250.01 1188.41 Q2254.37 1183.45 2262.04 1183.45 Z" fill="#000000" fill-rule="nonzero" fill-opacity="1" /><path clip-path="url(#clip830)" d="M2317.74 1198.44 L2317.74 1219.95 L2311.88 1219.95 L2311.88 1198.63 Q2311.88 1193.57 2309.91 1191.05 Q2307.93 1188.54 2303.99 1188.54 Q2299.24 1188.54 2296.51 1191.56 Q2293.77 1194.59 2293.77 1199.81 L2293.77 1219.95 L2287.88 1219.95 L2287.88 1184.31 L2293.77 1184.31 L2293.77 1189.84 Q2295.87 1186.63 2298.7 1185.04 Q2301.57 1183.45 2305.29 1183.45 Q2311.43 1183.45 2314.59 1187.27 Q2317.74 1191.05 2317.74 1198.44 Z" fill="#000000" fill-rule="nonzero" fill-opacity="1" /><path clip-path="url(#clip830)" d="M2372.86 1185.36 L2372.86 1190.89 Q2370.38 1189.62 2367.71 1188.98 Q2365.03 1188.35 2362.17 1188.35 Q2357.81 1188.35 2355.61 1189.68 Q2353.45 1191.02 2353.45 1193.7 Q2353.45 1195.73 2355.01 1196.91 Q2356.57 1198.06 2361.28 1199.11 L2363.28 1199.55 Q2369.52 1200.89 2372.13 1203.34 Q2374.77 1205.76 2374.77 1210.12 Q2374.77 1215.08 2370.83 1217.98 Q2366.91 1220.88 2360.04 1220.88 Q2357.17 1220.88 2354.05 1220.3 Q2350.97 1219.76 2347.53 1218.65 L2347.53 1212.6 Q2350.77 1214.29 2353.93 1215.15 Q2357.08 1215.98 2360.16 1215.98 Q2364.3 1215.98 2366.53 1214.57 Q2368.76 1213.14 2368.76 1210.56 Q2368.76 1208.18 2367.13 1206.9 Q2365.54 1205.63 2360.1 1204.45 L2358.06 1203.98 Q2352.62 1202.83 2350.2 1200.47 Q2347.78 1198.09 2347.78 1193.95 Q2347.78 1188.92 2351.35 1186.18 Q2354.91 1183.45 2361.47 1183.45 Q2364.72 1183.45 2367.58 1183.92 Q2370.44 1184.4 2372.86 1185.36 Z" fill="#000000" fill-rule="nonzero" fill-opacity="1" /><path clip-path="url(#clip830)" d="M2413.73 1198.44 L2413.73 1219.95 L2407.88 1219.95 L2407.88 1198.63 Q2407.88 1193.57 2405.9 1191.05 Q2403.93 1188.54 2399.98 1188.54 Q2395.24 1188.54 2392.5 1191.56 Q2389.76 1194.59 2389.76 1199.81 L2389.76 1219.95 L2383.88 1219.95 L2383.88 1170.43 L2389.76 1170.43 L2389.76 1189.84 Q2391.87 1186.63 2394.7 1185.04 Q2397.56 1183.45 2401.29 1183.45 Q2407.43 1183.45 2410.58 1187.27 Q2413.73 1191.05 2413.73 1198.44 Z" fill="#000000" fill-rule="nonzero" fill-opacity="1" /><path clip-path="url(#clip830)" d="M2441.61 1202.03 Q2434.52 1202.03 2431.78 1203.66 Q2429.04 1205.28 2429.04 1209.2 Q2429.04 1212.31 2431.08 1214.16 Q2433.15 1215.98 2436.68 1215.98 Q2441.55 1215.98 2444.48 1212.54 Q2447.44 1209.07 2447.44 1203.34 L2447.44 1202.03 L2441.61 1202.03 M2453.29 1199.62 L2453.29 1219.95 L2447.44 1219.95 L2447.44 1214.54 Q2445.43 1217.79 2442.44 1219.35 Q2439.45 1220.88 2435.12 1220.88 Q2429.65 1220.88 2426.4 1217.82 Q2423.18 1214.73 2423.18 1209.58 Q2423.18 1203.56 2427.2 1200.51 Q2431.24 1197.45 2439.23 1197.45 L2447.44 1197.45 L2447.44 1196.88 Q2447.44 1192.84 2444.76 1190.64 Q2442.12 1188.41 2437.32 1188.41 Q2434.26 1188.41 2431.36 1189.14 Q2428.47 1189.88 2425.79 1191.34 L2425.79 1185.93 Q2429.01 1184.69 2432.03 1184.08 Q2435.06 1183.45 2437.92 1183.45 Q2445.66 1183.45 2449.47 1187.46 Q2453.29 1191.47 2453.29 1199.62 Z" fill="#000000" fill-rule="nonzero" fill-opacity="1" /><path clip-path="url(#clip830)" d="M2486.01 1189.78 Q2485.03 1189.21 2483.85 1188.95 Q2482.7 1188.67 2481.3 1188.67 Q2476.34 1188.67 2473.66 1191.91 Q2471.02 1195.13 2471.02 1201.18 L2471.02 1219.95 L2465.13 1219.95 L2465.13 1184.31 L2471.02 1184.31 L2471.02 1189.84 Q2472.87 1186.6 2475.83 1185.04 Q2478.79 1183.45 2483.02 1183.45 Q2483.63 1183.45 2484.36 1183.54 Q2485.09 1183.61 2485.98 1183.76 L2486.01 1189.78 Z" fill="#000000" fill-rule="nonzero" fill-opacity="1" /><path clip-path="url(#clip830)" d="M2521.22 1200.67 L2521.22 1203.53 L2494.29 1203.53 Q2494.67 1209.58 2497.92 1212.76 Q2501.2 1215.91 2507.02 1215.91 Q2510.39 1215.91 2513.55 1215.08 Q2516.73 1214.26 2519.85 1212.6 L2519.85 1218.14 Q2516.7 1219.48 2513.39 1220.18 Q2510.08 1220.88 2506.67 1220.88 Q2498.14 1220.88 2493.14 1215.91 Q2488.18 1210.95 2488.18 1202.48 Q2488.18 1193.73 2492.89 1188.6 Q2497.63 1183.45 2505.65 1183.45 Q2512.85 1183.45 2517.02 1188.09 Q2521.22 1192.71 2521.22 1200.67 M2515.36 1198.95 Q2515.3 1194.14 2512.65 1191.28 Q2510.04 1188.41 2505.72 1188.41 Q2500.81 1188.41 2497.85 1191.18 Q2494.93 1193.95 2494.48 1198.98 L2515.36 1198.95 Z" fill="#000000" fill-rule="nonzero" fill-opacity="1" /><path clip-path="url(#clip830)" d="M2565.36 1188.41 Q2560.65 1188.41 2557.91 1192.1 Q2555.18 1195.76 2555.18 1202.16 Q2555.18 1208.56 2557.88 1212.25 Q2560.62 1215.91 2565.36 1215.91 Q2570.04 1215.91 2572.78 1212.22 Q2575.52 1208.53 2575.52 1202.16 Q2575.52 1195.83 2572.78 1192.14 Q2570.04 1188.41 2565.36 1188.41 M2565.36 1183.45 Q2573 1183.45 2577.36 1188.41 Q2581.72 1193.38 2581.72 1202.16 Q2581.72 1210.91 2577.36 1215.91 Q2573 1220.88 2565.36 1220.88 Q2557.69 1220.88 2553.33 1215.91 Q2549 1210.91 2549 1202.16 Q2549 1193.38 2553.33 1188.41 Q2557.69 1183.45 2565.36 1183.45 Z" fill="#000000" fill-rule="nonzero" fill-opacity="1" /><path clip-path="url(#clip830)" d="M2609.48 1170.43 L2609.48 1175.3 L2603.88 1175.3 Q2600.72 1175.3 2599.48 1176.57 Q2598.27 1177.84 2598.27 1181.15 L2598.27 1184.31 L2607.92 1184.31 L2607.92 1188.86 L2598.27 1188.86 L2598.27 1219.95 L2592.39 1219.95 L2592.39 1188.86 L2586.78 1188.86 L2586.78 1184.31 L2592.39 1184.31 L2592.39 1181.82 Q2592.39 1175.87 2595.15 1173.17 Q2597.92 1170.43 2603.94 1170.43 L2609.48 1170.43 Z" fill="#000000" fill-rule="nonzero" fill-opacity="1" /><path clip-path="url(#clip830)" d="M2660.69 1202.16 Q2660.69 1195.7 2658.02 1192.04 Q2655.37 1188.35 2650.73 1188.35 Q2646.08 1188.35 2643.41 1192.04 Q2640.76 1195.7 2640.76 1202.16 Q2640.76 1208.62 2643.41 1212.31 Q2646.08 1215.98 2650.73 1215.98 Q2655.37 1215.98 2658.02 1212.31 Q2660.69 1208.62 2660.69 1202.16 M2640.76 1189.72 Q2642.61 1186.53 2645.41 1185.01 Q2648.24 1183.45 2652.16 1183.45 Q2658.65 1183.45 2662.69 1188.6 Q2666.77 1193.76 2666.77 1202.16 Q2666.77 1210.56 2662.69 1215.72 Q2658.65 1220.88 2652.16 1220.88 Q2648.24 1220.88 2645.41 1219.35 Q2642.61 1217.79 2640.76 1214.61 L2640.76 1219.95 L2634.88 1219.95 L2634.88 1170.43 L2640.76 1170.43 L2640.76 1189.72 Z" fill="#000000" fill-rule="nonzero" fill-opacity="1" /><path clip-path="url(#clip830)" d="M2690.29 1188.41 Q2685.58 1188.41 2682.84 1192.1 Q2680.1 1195.76 2680.1 1202.16 Q2680.1 1208.56 2682.81 1212.25 Q2685.55 1215.91 2690.29 1215.91 Q2694.97 1215.91 2697.71 1212.22 Q2700.44 1208.53 2700.44 1202.16 Q2700.44 1195.83 2697.71 1192.14 Q2694.97 1188.41 2690.29 1188.41 M2690.29 1183.45 Q2697.93 1183.45 2702.29 1188.41 Q2706.65 1193.38 2706.65 1202.16 Q2706.65 1210.91 2702.29 1215.91 Q2697.93 1220.88 2690.29 1220.88 Q2682.62 1220.88 2678.26 1215.91 Q2673.93 1210.91 2673.93 1202.16 Q2673.93 1193.38 2678.26 1188.41 Q2682.62 1183.45 2690.29 1183.45 Z" fill="#000000" fill-rule="nonzero" fill-opacity="1" /><path clip-path="url(#clip830)" d="M2716.36 1170.43 L2722.21 1170.43 L2722.21 1219.95 L2716.36 1219.95 L2716.36 1170.43 Z" fill="#000000" fill-rule="nonzero" fill-opacity="1" /><path clip-path="url(#clip830)" d="M2757.93 1189.72 L2757.93 1170.43 L2763.78 1170.43 L2763.78 1219.95 L2757.93 1219.95 L2757.93 1214.61 Q2756.08 1217.79 2753.25 1219.35 Q2750.45 1220.88 2746.5 1220.88 Q2740.04 1220.88 2735.96 1215.72 Q2731.92 1210.56 2731.92 1202.16 Q2731.92 1193.76 2735.96 1188.6 Q2740.04 1183.45 2746.5 1183.45 Q2750.45 1183.45 2753.25 1185.01 Q2756.08 1186.53 2757.93 1189.72 M2737.97 1202.16 Q2737.97 1208.62 2740.61 1212.31 Q2743.28 1215.98 2747.93 1215.98 Q2752.58 1215.98 2755.25 1212.31 Q2757.93 1208.62 2757.93 1202.16 Q2757.93 1195.7 2755.25 1192.04 Q2752.58 1188.35 2747.93 1188.35 Q2743.28 1188.35 2740.61 1192.04 Q2737.97 1195.7 2737.97 1202.16 Z" fill="#000000" fill-rule="nonzero" fill-opacity="1" /><path clip-path="url(#clip830)" d="M2812.77 1202.03 Q2805.67 1202.03 2802.93 1203.66 Q2800.19 1205.28 2800.19 1209.2 Q2800.19 1212.31 2802.23 1214.16 Q2804.3 1215.98 2807.83 1215.98 Q2812.7 1215.98 2815.63 1212.54 Q2818.59 1209.07 2818.59 1203.34 L2818.59 1202.03 L2812.77 1202.03 M2824.45 1199.62 L2824.45 1219.95 L2818.59 1219.95 L2818.59 1214.54 Q2816.59 1217.79 2813.59 1219.35 Q2810.6 1220.88 2806.27 1220.88 Q2800.8 1220.88 2797.55 1217.82 Q2794.34 1214.73 2794.34 1209.58 Q2794.34 1203.56 2798.35 1200.51 Q2802.39 1197.45 2810.38 1197.45 L2818.59 1197.45 L2818.59 1196.88 Q2818.59 1192.84 2815.92 1190.64 Q2813.28 1188.41 2808.47 1188.41 Q2805.41 1188.41 2802.52 1189.14 Q2799.62 1189.88 2796.95 1191.34 L2796.95 1185.93 Q2800.16 1184.69 2803.19 1184.08 Q2806.21 1183.45 2809.07 1183.45 Q2816.81 1183.45 2820.63 1187.46 Q2824.45 1191.47 2824.45 1199.62 Z" fill="#000000" fill-rule="nonzero" fill-opacity="1" /><path clip-path="url(#clip830)" d="M2859.97 1201.72 Q2859.97 1195.35 2857.33 1191.85 Q2854.72 1188.35 2849.97 1188.35 Q2845.26 1188.35 2842.62 1191.85 Q2840.01 1195.35 2840.01 1201.72 Q2840.01 1208.05 2842.62 1211.55 Q2845.26 1215.05 2849.97 1215.05 Q2854.72 1215.05 2857.33 1211.55 Q2859.97 1208.05 2859.97 1201.72 M2865.82 1215.53 Q2865.82 1224.63 2861.78 1229.06 Q2857.74 1233.51 2849.4 1233.51 Q2846.31 1233.51 2843.58 1233.04 Q2840.84 1232.59 2838.26 1231.63 L2838.26 1225.94 Q2840.84 1227.34 2843.35 1228.01 Q2845.87 1228.67 2848.48 1228.67 Q2854.24 1228.67 2857.1 1225.65 Q2859.97 1222.66 2859.97 1216.58 L2859.97 1213.68 Q2858.15 1216.83 2855.32 1218.39 Q2852.49 1219.95 2848.54 1219.95 Q2841.98 1219.95 2837.97 1214.96 Q2833.96 1209.96 2833.96 1201.72 Q2833.96 1193.44 2837.97 1188.44 Q2841.98 1183.45 2848.54 1183.45 Q2852.49 1183.45 2855.32 1185.01 Q2858.15 1186.57 2859.97 1189.72 L2859.97 1184.31 L2865.82 1184.31 L2865.82 1215.53 Z" fill="#000000" fill-rule="nonzero" fill-opacity="1" /><path clip-path="url(#clip830)" d="M2908.38 1200.67 L2908.38 1203.53 L2881.45 1203.53 Q2881.83 1209.58 2885.08 1212.76 Q2888.36 1215.91 2894.18 1215.91 Q2897.56 1215.91 2900.71 1215.08 Q2903.89 1214.26 2907.01 1212.6 L2907.01 1218.14 Q2903.86 1219.48 2900.55 1220.18 Q2897.24 1220.88 2893.83 1220.88 Q2885.3 1220.88 2880.31 1215.91 Q2875.34 1210.95 2875.34 1202.48 Q2875.34 1193.73 2880.05 1188.6 Q2884.79 1183.45 2892.81 1183.45 Q2900.01 1183.45 2904.18 1188.09 Q2908.38 1192.71 2908.38 1200.67 M2902.52 1198.95 Q2902.46 1194.14 2899.82 1191.28 Q2897.21 1188.41 2892.88 1188.41 Q2887.98 1188.41 2885.02 1191.18 Q2882.09 1193.95 2881.64 1198.98 L2902.52 1198.95 Z" fill="#000000" fill-rule="nonzero" fill-opacity="1" /><path clip-path="url(#clip830)" d="M2947.62 1198.44 L2947.62 1219.95 L2941.77 1219.95 L2941.77 1198.63 Q2941.77 1193.57 2939.79 1191.05 Q2937.82 1188.54 2933.87 1188.54 Q2929.13 1188.54 2926.39 1191.56 Q2923.66 1194.59 2923.66 1199.81 L2923.66 1219.95 L2917.77 1219.95 L2917.77 1184.31 L2923.66 1184.31 L2923.66 1189.84 Q2925.76 1186.63 2928.59 1185.04 Q2931.45 1183.45 2935.18 1183.45 Q2941.32 1183.45 2944.47 1187.27 Q2947.62 1191.05 2947.62 1198.44 Z" fill="#000000" fill-rule="nonzero" fill-opacity="1" /><path clip-path="url(#clip830)" d="M2965.1 1174.18 L2965.1 1184.31 L2977.16 1184.31 L2977.16 1188.86 L2965.1 1188.86 L2965.1 1208.21 Q2965.1 1212.57 2966.27 1213.81 Q2967.48 1215.05 2971.14 1215.05 L2977.16 1215.05 L2977.16 1219.95 L2971.14 1219.95 Q2964.37 1219.95 2961.79 1217.44 Q2959.21 1214.89 2959.21 1208.21 L2959.21 1188.86 L2954.91 1188.86 L2954.91 1184.31 L2959.21 1184.31 L2959.21 1174.18 L2965.1 1174.18 Z" fill="#000000" fill-rule="nonzero" fill-opacity="1" /><path clip-path="url(#clip830)" d="M3007.59 1185.36 L3007.59 1190.89 Q3005.11 1189.62 3002.43 1188.98 Q2999.76 1188.35 2996.89 1188.35 Q2992.53 1188.35 2990.34 1189.68 Q2988.17 1191.02 2988.17 1193.7 Q2988.17 1195.73 2989.73 1196.91 Q2991.29 1198.06 2996 1199.11 L2998.01 1199.55 Q3004.25 1200.89 3006.86 1203.34 Q3009.5 1205.76 3009.5 1210.12 Q3009.5 1215.08 3005.55 1217.98 Q3001.64 1220.88 2994.76 1220.88 Q2991.9 1220.88 2988.78 1220.3 Q2985.69 1219.76 2982.25 1218.65 L2982.25 1212.6 Q2985.5 1214.29 2988.65 1215.15 Q2991.8 1215.98 2994.89 1215.98 Q2999.03 1215.98 3001.25 1214.57 Q3003.48 1213.14 3003.48 1210.56 Q3003.48 1208.18 3001.86 1206.9 Q3000.27 1205.63 2994.83 1204.45 L2992.79 1203.98 Q2987.35 1202.83 2984.93 1200.47 Q2982.51 1198.09 2982.51 1193.95 Q2982.51 1188.92 2986.07 1186.18 Q2989.64 1183.45 2996.19 1183.45 Q2999.44 1183.45 3002.3 1183.92 Q3005.17 1184.4 3007.59 1185.36 Z" fill="#000000" fill-rule="nonzero" fill-opacity="1" /><path clip-path="url(#clip830)" d="M3069.18 1184.31 L3056.29 1201.65 L3069.84 1219.95 L3062.94 1219.95 L3052.56 1205.95 L3042.19 1219.95 L3035.28 1219.95 L3049.12 1201.3 L3036.46 1184.31 L3043.36 1184.31 L3052.82 1197.01 L3062.27 1184.31 L3069.18 1184.31 Z" fill="#000000" fill-rule="nonzero" fill-opacity="1" /><polyline clip-path="url(#clip830)" style="stroke:#000000; stroke-linecap:round; stroke-linejoin:round; stroke-width:4; stroke-opacity:1; fill:none" points="1821.91,1063.09 1821.91,47.2441 "/>
<polyline clip-path="url(#clip830)" style="stroke:#000000; stroke-linecap:round; stroke-linejoin:round; stroke-width:4; stroke-opacity:1; fill:none" points="1821.91,849.671 1840.81,849.671 "/>
<polyline clip-path="url(#clip830)" style="stroke:#000000; stroke-linecap:round; stroke-linejoin:round; stroke-width:4; stroke-opacity:1; fill:none" points="1821.91,634.388 1840.81,634.388 "/>
<polyline clip-path="url(#clip830)" style="stroke:#000000; stroke-linecap:round; stroke-linejoin:round; stroke-width:4; stroke-opacity:1; fill:none" points="1821.91,419.105 1840.81,419.105 "/>
<polyline clip-path="url(#clip830)" style="stroke:#000000; stroke-linecap:round; stroke-linejoin:round; stroke-width:4; stroke-opacity:1; fill:none" points="1821.91,203.822 1840.81,203.822 "/>
<path clip-path="url(#clip830)" d="M1687.57 835.47 Q1683.96 835.47 1682.13 839.035 Q1680.33 842.576 1680.33 849.706 Q1680.33 856.812 1682.13 860.377 Q1683.96 863.919 1687.57 863.919 Q1691.21 863.919 1693.01 860.377 Q1694.84 856.812 1694.84 849.706 Q1694.84 842.576 1693.01 839.035 Q1691.21 835.47 1687.57 835.47 M1687.57 831.766 Q1693.38 831.766 1696.44 836.373 Q1699.52 840.956 1699.52 849.706 Q1699.52 858.433 1696.44 863.039 Q1693.38 867.623 1687.57 867.623 Q1681.76 867.623 1678.68 863.039 Q1675.63 858.433 1675.63 849.706 Q1675.63 840.956 1678.68 836.373 Q1681.76 831.766 1687.57 831.766 Z" fill="#000000" fill-rule="nonzero" fill-opacity="1" /><path clip-path="url(#clip830)" d="M1707.73 861.072 L1712.62 861.072 L1712.62 866.951 L1707.73 866.951 L1707.73 861.072 Z" fill="#000000" fill-rule="nonzero" fill-opacity="1" /><path clip-path="url(#clip830)" d="M1732.8 835.47 Q1729.19 835.47 1727.36 839.035 Q1725.56 842.576 1725.56 849.706 Q1725.56 856.812 1727.36 860.377 Q1729.19 863.919 1732.8 863.919 Q1736.44 863.919 1738.24 860.377 Q1740.07 856.812 1740.07 849.706 Q1740.07 842.576 1738.24 839.035 Q1736.44 835.47 1732.8 835.47 M1732.8 831.766 Q1738.61 831.766 1741.67 836.373 Q1744.75 840.956 1744.75 849.706 Q1744.75 858.433 1741.67 863.039 Q1738.61 867.623 1732.8 867.623 Q1726.99 867.623 1723.91 863.039 Q1720.86 858.433 1720.86 849.706 Q1720.86 840.956 1723.91 836.373 Q1726.99 831.766 1732.8 831.766 Z" fill="#000000" fill-rule="nonzero" fill-opacity="1" /><path clip-path="url(#clip830)" d="M1753.01 832.391 L1771.37 832.391 L1771.37 836.326 L1757.29 836.326 L1757.29 844.799 Q1758.31 844.451 1759.33 844.289 Q1760.35 844.104 1761.37 844.104 Q1767.15 844.104 1770.53 847.275 Q1773.91 850.447 1773.91 855.863 Q1773.91 861.442 1770.44 864.544 Q1766.97 867.623 1760.65 867.623 Q1758.47 867.623 1756.21 867.252 Q1753.96 866.882 1751.55 866.141 L1751.55 861.442 Q1753.64 862.576 1755.86 863.132 Q1758.08 863.687 1760.56 863.687 Q1764.56 863.687 1766.9 861.581 Q1769.24 859.474 1769.24 855.863 Q1769.24 852.252 1766.9 850.146 Q1764.56 848.039 1760.56 848.039 Q1758.68 848.039 1756.81 848.456 Q1754.96 848.873 1753.01 849.752 L1753.01 832.391 Z" fill="#000000" fill-rule="nonzero" fill-opacity="1" /><path clip-path="url(#clip830)" d="M1686.58 620.187 Q1682.97 620.187 1681.14 623.752 Q1679.33 627.293 1679.33 634.423 Q1679.33 641.529 1681.14 645.094 Q1682.97 648.636 1686.58 648.636 Q1690.21 648.636 1692.02 645.094 Q1693.85 641.529 1693.85 634.423 Q1693.85 627.293 1692.02 623.752 Q1690.21 620.187 1686.58 620.187 M1686.58 616.483 Q1692.39 616.483 1695.44 621.09 Q1698.52 625.673 1698.52 634.423 Q1698.52 643.15 1695.44 647.756 Q1692.39 652.34 1686.58 652.34 Q1680.77 652.34 1677.69 647.756 Q1674.63 643.15 1674.63 634.423 Q1674.63 625.673 1677.69 621.09 Q1680.77 616.483 1686.58 616.483 Z" fill="#000000" fill-rule="nonzero" fill-opacity="1" /><path clip-path="url(#clip830)" d="M1706.74 645.789 L1711.62 645.789 L1711.62 651.668 L1706.74 651.668 L1706.74 645.789 Z" fill="#000000" fill-rule="nonzero" fill-opacity="1" /><path clip-path="url(#clip830)" d="M1722.62 647.733 L1730.26 647.733 L1730.26 621.368 L1721.95 623.034 L1721.95 618.775 L1730.21 617.108 L1734.89 617.108 L1734.89 647.733 L1742.53 647.733 L1742.53 651.668 L1722.62 651.668 L1722.62 647.733 Z" fill="#000000" fill-rule="nonzero" fill-opacity="1" /><path clip-path="url(#clip830)" d="M1761.97 620.187 Q1758.36 620.187 1756.53 623.752 Q1754.72 627.293 1754.72 634.423 Q1754.72 641.529 1756.53 645.094 Q1758.36 648.636 1761.97 648.636 Q1765.6 648.636 1767.41 645.094 Q1769.24 641.529 1769.24 634.423 Q1769.24 627.293 1767.41 623.752 Q1765.6 620.187 1761.97 620.187 M1761.97 616.483 Q1767.78 616.483 1770.84 621.09 Q1773.91 625.673 1773.91 634.423 Q1773.91 643.15 1770.84 647.756 Q1767.78 652.34 1761.97 652.34 Q1756.16 652.34 1753.08 647.756 Q1750.03 643.15 1750.03 634.423 Q1750.03 625.673 1753.08 621.09 Q1756.16 616.483 1761.97 616.483 Z" fill="#000000" fill-rule="nonzero" fill-opacity="1" /><path clip-path="url(#clip830)" d="M1687.57 404.904 Q1683.96 404.904 1682.13 408.469 Q1680.33 412.01 1680.33 419.14 Q1680.33 426.246 1682.13 429.811 Q1683.96 433.353 1687.57 433.353 Q1691.21 433.353 1693.01 429.811 Q1694.84 426.246 1694.84 419.14 Q1694.84 412.01 1693.01 408.469 Q1691.21 404.904 1687.57 404.904 M1687.57 401.2 Q1693.38 401.2 1696.44 405.807 Q1699.52 410.39 1699.52 419.14 Q1699.52 427.867 1696.44 432.473 Q1693.38 437.057 1687.57 437.057 Q1681.76 437.057 1678.68 432.473 Q1675.63 427.867 1675.63 419.14 Q1675.63 410.39 1678.68 405.807 Q1681.76 401.2 1687.57 401.2 Z" fill="#000000" fill-rule="nonzero" fill-opacity="1" /><path clip-path="url(#clip830)" d="M1707.73 430.506 L1712.62 430.506 L1712.62 436.385 L1707.73 436.385 L1707.73 430.506 Z" fill="#000000" fill-rule="nonzero" fill-opacity="1" /><path clip-path="url(#clip830)" d="M1723.61 432.45 L1731.25 432.45 L1731.25 406.085 L1722.94 407.751 L1722.94 403.492 L1731.21 401.825 L1735.88 401.825 L1735.88 432.45 L1743.52 432.45 L1743.52 436.385 L1723.61 436.385 L1723.61 432.45 Z" fill="#000000" fill-rule="nonzero" fill-opacity="1" /><path clip-path="url(#clip830)" d="M1753.01 401.825 L1771.37 401.825 L1771.37 405.76 L1757.29 405.76 L1757.29 414.233 Q1758.31 413.885 1759.33 413.723 Q1760.35 413.538 1761.37 413.538 Q1767.15 413.538 1770.53 416.709 Q1773.91 419.881 1773.91 425.297 Q1773.91 430.876 1770.44 433.978 Q1766.97 437.057 1760.65 437.057 Q1758.47 437.057 1756.21 436.686 Q1753.96 436.316 1751.55 435.575 L1751.55 430.876 Q1753.64 432.01 1755.86 432.566 Q1758.08 433.121 1760.56 433.121 Q1764.56 433.121 1766.9 431.015 Q1769.24 428.908 1769.24 425.297 Q1769.24 421.686 1766.9 419.58 Q1764.56 417.473 1760.56 417.473 Q1758.68 417.473 1756.81 417.89 Q1754.96 418.307 1753.01 419.186 L1753.01 401.825 Z" fill="#000000" fill-rule="nonzero" fill-opacity="1" /><path clip-path="url(#clip830)" d="M1686.58 189.621 Q1682.97 189.621 1681.14 193.186 Q1679.33 196.727 1679.33 203.857 Q1679.33 210.963 1681.14 214.528 Q1682.97 218.07 1686.58 218.07 Q1690.21 218.07 1692.02 214.528 Q1693.85 210.963 1693.85 203.857 Q1693.85 196.727 1692.02 193.186 Q1690.21 189.621 1686.58 189.621 M1686.58 185.917 Q1692.39 185.917 1695.44 190.524 Q1698.52 195.107 1698.52 203.857 Q1698.52 212.584 1695.44 217.19 Q1692.39 221.774 1686.58 221.774 Q1680.77 221.774 1677.69 217.19 Q1674.63 212.584 1674.63 203.857 Q1674.63 195.107 1677.69 190.524 Q1680.77 185.917 1686.58 185.917 Z" fill="#000000" fill-rule="nonzero" fill-opacity="1" /><path clip-path="url(#clip830)" d="M1706.74 215.223 L1711.62 215.223 L1711.62 221.102 L1706.74 221.102 L1706.74 215.223 Z" fill="#000000" fill-rule="nonzero" fill-opacity="1" /><path clip-path="url(#clip830)" d="M1725.84 217.167 L1742.16 217.167 L1742.16 221.102 L1720.21 221.102 L1720.21 217.167 Q1722.87 214.413 1727.46 209.783 Q1732.06 205.13 1733.24 203.788 Q1735.49 201.264 1736.37 199.528 Q1737.27 197.769 1737.27 196.079 Q1737.27 193.325 1735.33 191.589 Q1733.41 189.852 1730.3 189.852 Q1728.1 189.852 1725.65 190.616 Q1723.22 191.38 1720.44 192.931 L1720.44 188.209 Q1723.27 187.075 1725.72 186.496 Q1728.17 185.917 1730.21 185.917 Q1735.58 185.917 1738.78 188.602 Q1741.97 191.288 1741.97 195.778 Q1741.97 197.908 1741.16 199.829 Q1740.37 201.727 1738.27 204.32 Q1737.69 204.991 1734.59 208.209 Q1731.48 211.403 1725.84 217.167 Z" fill="#000000" fill-rule="nonzero" fill-opacity="1" /><path clip-path="url(#clip830)" d="M1761.97 189.621 Q1758.36 189.621 1756.53 193.186 Q1754.72 196.727 1754.72 203.857 Q1754.72 210.963 1756.53 214.528 Q1758.36 218.07 1761.97 218.07 Q1765.6 218.07 1767.41 214.528 Q1769.24 210.963 1769.24 203.857 Q1769.24 196.727 1767.41 193.186 Q1765.6 189.621 1761.97 189.621 M1761.97 185.917 Q1767.78 185.917 1770.84 190.524 Q1773.91 195.107 1773.91 203.857 Q1773.91 212.584 1770.84 217.19 Q1767.78 221.774 1761.97 221.774 Q1756.16 221.774 1753.08 217.19 Q1750.03 212.584 1750.03 203.857 Q1750.03 195.107 1753.08 190.524 Q1756.16 185.917 1761.97 185.917 Z" fill="#000000" fill-rule="nonzero" fill-opacity="1" /><path clip-path="url(#clip830)" d="M1576.73 777.457 L1576.73 771.601 L1612.38 771.601 L1612.38 777.457 L1576.73 777.457 M1562.85 777.457 L1562.85 771.601 L1570.27 771.601 L1570.27 777.457 L1562.85 777.457 Z" fill="#000000" fill-rule="nonzero" fill-opacity="1" /><path clip-path="url(#clip830)" d="M1590.86 729.715 L1612.38 729.715 L1612.38 735.571 L1591.05 735.571 Q1585.99 735.571 1583.48 737.544 Q1580.96 739.518 1580.96 743.465 Q1580.96 748.207 1583.99 750.944 Q1587.01 753.682 1592.23 753.682 L1612.38 753.682 L1612.38 759.57 L1576.73 759.57 L1576.73 753.682 L1582.27 753.682 Q1579.05 751.581 1577.46 748.748 Q1575.87 745.884 1575.87 742.16 Q1575.87 736.017 1579.69 732.866 Q1583.48 729.715 1590.86 729.715 Z" fill="#000000" fill-rule="nonzero" fill-opacity="1" /><path clip-path="url(#clip830)" d="M1566.61 712.241 L1576.73 712.241 L1576.73 700.178 L1581.28 700.178 L1581.28 712.241 L1600.63 712.241 Q1604.99 712.241 1606.23 711.063 Q1607.47 709.854 1607.47 706.193 L1607.47 700.178 L1612.38 700.178 L1612.38 706.193 Q1612.38 712.973 1609.86 715.551 Q1607.32 718.129 1600.63 718.129 L1581.28 718.129 L1581.28 722.426 L1576.73 722.426 L1576.73 718.129 L1566.61 718.129 L1566.61 712.241 Z" fill="#000000" fill-rule="nonzero" fill-opacity="1" /><path clip-path="url(#clip830)" d="M1593.09 661.984 L1595.95 661.984 L1595.95 688.91 Q1602 688.529 1605.18 685.282 Q1608.33 682.004 1608.33 676.179 Q1608.33 672.805 1607.51 669.654 Q1606.68 666.471 1605.02 663.352 L1610.56 663.352 Q1611.9 666.503 1612.6 669.813 Q1613.3 673.124 1613.3 676.529 Q1613.3 685.059 1608.33 690.056 Q1603.37 695.022 1594.9 695.022 Q1586.15 695.022 1581.03 690.311 Q1575.87 685.568 1575.87 677.548 Q1575.87 670.354 1580.52 666.185 Q1585.13 661.984 1593.09 661.984 M1591.37 667.84 Q1586.56 667.904 1583.7 670.545 Q1580.83 673.155 1580.83 677.484 Q1580.83 682.386 1583.6 685.346 Q1586.37 688.274 1591.4 688.719 L1591.37 667.84 Z" fill="#000000" fill-rule="nonzero" fill-opacity="1" /><path clip-path="url(#clip830)" d="M1582.2 631.715 Q1581.63 632.701 1581.38 633.879 Q1581.09 635.025 1581.09 636.425 Q1581.09 641.39 1584.34 644.064 Q1587.55 646.706 1593.6 646.706 L1612.38 646.706 L1612.38 652.594 L1576.73 652.594 L1576.73 646.706 L1582.27 646.706 Q1579.02 644.86 1577.46 641.9 Q1575.87 638.94 1575.87 634.706 Q1575.87 634.102 1575.96 633.37 Q1576.03 632.638 1576.19 631.746 L1582.2 631.715 Z" fill="#000000" fill-rule="nonzero" fill-opacity="1" /><path clip-path="url(#clip830)" d="M1593.09 596.512 L1595.95 596.512 L1595.95 623.439 Q1602 623.057 1605.18 619.811 Q1608.33 616.532 1608.33 610.708 Q1608.33 607.334 1607.51 604.183 Q1606.68 601 1605.02 597.881 L1610.56 597.881 Q1611.9 601.032 1612.6 604.342 Q1613.3 607.652 1613.3 611.058 Q1613.3 619.588 1608.33 624.585 Q1603.37 629.55 1594.9 629.55 Q1586.15 629.55 1581.03 624.84 Q1575.87 620.097 1575.87 612.076 Q1575.87 604.883 1580.52 600.714 Q1585.13 596.512 1593.09 596.512 M1591.37 602.369 Q1586.56 602.432 1583.7 605.074 Q1580.83 607.684 1580.83 612.013 Q1580.83 616.914 1583.6 619.874 Q1586.37 622.803 1591.4 623.248 L1591.37 602.369 Z" fill="#000000" fill-rule="nonzero" fill-opacity="1" /><path clip-path="url(#clip830)" d="M1577.78 564.174 L1583.32 564.174 Q1582.04 566.657 1581.41 569.331 Q1580.77 572.004 1580.77 574.869 Q1580.77 579.229 1582.11 581.426 Q1583.44 583.59 1586.12 583.59 Q1588.15 583.59 1589.33 582.03 Q1590.48 580.471 1591.53 575.76 L1591.97 573.755 Q1593.31 567.516 1595.76 564.906 Q1598.18 562.265 1602.54 562.265 Q1607.51 562.265 1610.4 566.211 Q1613.3 570.126 1613.3 577.001 Q1613.3 579.866 1612.73 582.985 Q1612.19 586.072 1611.07 589.51 L1605.02 589.51 Q1606.71 586.263 1607.57 583.112 Q1608.4 579.961 1608.4 576.874 Q1608.4 572.736 1607 570.508 Q1605.56 568.28 1602.99 568.28 Q1600.6 568.28 1599.33 569.904 Q1598.05 571.495 1596.88 576.938 L1596.4 578.975 Q1595.25 584.417 1592.9 586.836 Q1590.51 589.255 1586.37 589.255 Q1581.34 589.255 1578.61 585.691 Q1575.87 582.126 1575.87 575.569 Q1575.87 572.323 1576.35 569.458 Q1576.82 566.593 1577.78 564.174 Z" fill="#000000" fill-rule="nonzero" fill-opacity="1" /><path clip-path="url(#clip830)" d="M1566.61 547.146 L1576.73 547.146 L1576.73 535.083 L1581.28 535.083 L1581.28 547.146 L1600.63 547.146 Q1604.99 547.146 1606.23 545.969 Q1607.47 544.759 1607.47 541.099 L1607.47 535.083 L1612.38 535.083 L1612.38 541.099 Q1612.38 547.878 1609.86 550.456 Q1607.32 553.034 1600.63 553.034 L1581.28 553.034 L1581.28 557.331 L1576.73 557.331 L1576.73 553.034 L1566.61 553.034 L1566.61 547.146 Z" fill="#000000" fill-rule="nonzero" fill-opacity="1" /><path clip-path="url(#clip830)" d="M1582.2 486.004 Q1581.63 486.99 1581.38 488.168 Q1581.09 489.314 1581.09 490.714 Q1581.09 495.679 1584.34 498.353 Q1587.55 500.995 1593.6 500.995 L1612.38 500.995 L1612.38 506.883 L1576.73 506.883 L1576.73 500.995 L1582.27 500.995 Q1579.02 499.149 1577.46 496.189 Q1575.87 493.229 1575.87 488.995 Q1575.87 488.391 1575.96 487.659 Q1576.03 486.927 1576.19 486.035 L1582.2 486.004 Z" fill="#000000" fill-rule="nonzero" fill-opacity="1" /><path clip-path="url(#clip830)" d="M1594.46 463.66 Q1594.46 470.758 1596.08 473.495 Q1597.7 476.232 1601.62 476.232 Q1604.74 476.232 1606.58 474.195 Q1608.4 472.126 1608.4 468.593 Q1608.4 463.724 1604.96 460.795 Q1601.49 457.835 1595.76 457.835 L1594.46 457.835 L1594.46 463.66 M1592.04 451.979 L1612.38 451.979 L1612.38 457.835 L1606.97 457.835 Q1610.21 459.841 1611.77 462.832 Q1613.3 465.824 1613.3 470.153 Q1613.3 475.627 1610.24 478.874 Q1607.16 482.089 1602 482.089 Q1595.98 482.089 1592.93 478.078 Q1589.87 474.036 1589.87 466.047 L1589.87 457.835 L1589.3 457.835 Q1585.26 457.835 1583.06 460.509 Q1580.83 463.151 1580.83 467.957 Q1580.83 471.012 1581.57 473.909 Q1582.3 476.805 1583.76 479.479 L1578.35 479.479 Q1577.11 476.264 1576.51 473.24 Q1575.87 470.217 1575.87 467.352 Q1575.87 459.618 1579.88 455.798 Q1583.89 451.979 1592.04 451.979 Z" fill="#000000" fill-rule="nonzero" fill-opacity="1" /><path clip-path="url(#clip830)" d="M1566.61 434.123 L1576.73 434.123 L1576.73 422.06 L1581.28 422.06 L1581.28 434.123 L1600.63 434.123 Q1604.99 434.123 1606.23 432.945 Q1607.47 431.736 1607.47 428.076 L1607.47 422.06 L1612.38 422.06 L1612.38 428.076 Q1612.38 434.855 1609.86 437.433 Q1607.32 440.011 1600.63 440.011 L1581.28 440.011 L1581.28 444.308 L1576.73 444.308 L1576.73 440.011 L1566.61 440.011 L1566.61 434.123 Z" fill="#000000" fill-rule="nonzero" fill-opacity="1" /><path clip-path="url(#clip830)" d="M1593.09 383.866 L1595.95 383.866 L1595.95 410.793 Q1602 410.411 1605.18 407.164 Q1608.33 403.886 1608.33 398.061 Q1608.33 394.688 1607.51 391.536 Q1606.68 388.354 1605.02 385.234 L1610.56 385.234 Q1611.9 388.385 1612.6 391.696 Q1613.3 395.006 1613.3 398.411 Q1613.3 406.941 1608.33 411.939 Q1603.37 416.904 1594.9 416.904 Q1586.15 416.904 1581.03 412.193 Q1575.87 407.451 1575.87 399.43 Q1575.87 392.237 1580.52 388.067 Q1585.13 383.866 1593.09 383.866 M1591.37 389.722 Q1586.56 389.786 1583.7 392.428 Q1580.83 395.038 1580.83 399.366 Q1580.83 404.268 1583.6 407.228 Q1586.37 410.156 1591.4 410.602 L1591.37 389.722 Z" fill="#000000" fill-rule="nonzero" fill-opacity="1" /><path clip-path="url(#clip830)" d="M1582.2 332.876 Q1581.63 333.863 1581.38 335.041 Q1581.09 336.187 1581.09 337.587 Q1581.09 342.552 1584.34 345.226 Q1587.55 347.868 1593.6 347.868 L1612.38 347.868 L1612.38 353.756 L1576.73 353.756 L1576.73 347.868 L1582.27 347.868 Q1579.02 346.022 1577.46 343.062 Q1575.87 340.102 1575.87 335.868 Q1575.87 335.264 1575.96 334.532 Q1576.03 333.8 1576.19 332.908 L1582.2 332.876 Z" fill="#000000" fill-rule="nonzero" fill-opacity="1" /><polyline clip-path="url(#clip831)" style="stroke:#009af9; stroke-linecap:round; stroke-linejoin:round; stroke-width:4; stroke-opacity:1; fill:none" points="1859.58,75.9944 1872.26,711.537 1884.94,875.489 1897.63,948.844 1910.31,986.103 1922.99,1005.81 1935.67,1016.14 1948.35,1021.2 1961.03,1023.21 1973.72,1023.45 1986.4,1022.67 1999.08,1021.31 2011.76,1020.4 2024.44,1018.8 2037.13,1017.28 2049.81,1015.87 2062.49,1014.61 2075.17,1013.49 2087.85,1012.52 2100.54,1011.7 2113.22,1011.02 2125.9,1010.46 2138.58,1010.03 2151.26,1009.71 2163.95,1009.48 2176.63,1009.35 2189.31,1009.29 2201.99,1009.31 2214.67,1009.39 2227.36,1009.53 2240.04,1009.72 2252.72,1009.95 2265.4,1010.22 2278.08,1010.52 2290.77,1010.85 2303.45,1011.21 2316.13,1011.59 2328.81,1011.99 2341.49,1012.4 2354.17,1012.83 2366.86,1013.26 2379.54,1013.71 2392.22,1014.16 2404.9,1014.61 2417.58,1015.07 2430.27,1015.53 2442.95,1016 2455.63,1016.46 2468.31,1016.92 2480.99,1017.38 2493.68,1017.84 2506.36,1018.3 2519.04,1018.75 2531.72,1019.2 2544.4,1019.65 2557.09,1020.09 2569.77,1020.53 2582.45,1020.96 2595.13,1021.38 2607.81,1021.8 2620.5,1022.22 2633.18,1022.63 2645.86,1023.03 2658.54,1023.43 2671.22,1023.83 2683.9,1024.21 2696.59,1024.6 2709.27,1024.97 2721.95,1025.34 2734.63,1025.71 2747.31,1026.07 2760,1026.42 2772.68,1026.77 2785.36,1027.11 2798.04,1027.45 2810.72,1027.78 2823.41,1028.11 2836.09,1028.43 2848.77,1028.75 2861.45,1029.06 2874.13,1029.36 2886.82,1029.66 2899.5,1029.96 2912.18,1030.25 2924.86,1030.54 2937.54,1030.82 2950.23,1031.1 2962.91,1031.37 2975.59,1031.64 2988.27,1031.91 3000.95,1032.17 3013.64,1032.43 3026.32,1032.68 3039,1032.93 3051.68,1033.17 3064.36,1033.41 3077.04,1033.65 3089.73,1033.88 3102.41,1034.11 3115.09,1034.34 "/>
</svg>
