<?xml version="1.0" encoding="utf-8"?>
<svg xmlns="http://www.w3.org/2000/svg" xmlns:xlink="http://www.w3.org/1999/xlink" width="800" height="300" viewBox="0 0 3200 1200">
<defs>
  <clipPath id="clip850">
    <rect x="0" y="0" width="3200" height="1200"/>
  </clipPath>
</defs>
<path clip-path="url(#clip850)" d="M0 1200 L3200 1200 L3200 0 L0 0  Z" fill="#ffffff" fill-rule="evenodd" fill-opacity="1"/>
<defs>
  <clipPath id="clip851">
    <rect x="1807" y="47" width="1346" height="1017"/>
  </clipPath>
</defs>
<path clip-path="url(#clip850)" d="M192.331 1063.09 L1537.67 1063.09 L1537.67 47.2441 L192.331 47.2441  Z" fill="#ffffff" fill-rule="evenodd" fill-opacity="1"/>
<defs>
  <clipPath id="clip852">
    <rect x="192" y="47" width="1346" height="1017"/>
  </clipPath>
</defs>
<polyline clip-path="url(#clip852)" style="stroke:#000000; stroke-linecap:round; stroke-linejoin:round; stroke-width:2; stroke-opacity:0.1; fill:none" points="230.407,1063.09 230.407,47.2441 "/>
<polyline clip-path="url(#clip852)" style="stroke:#000000; stroke-linecap:round; stroke-linejoin:round; stroke-width:2; stroke-opacity:0.1; fill:none" points="547.705,1063.09 547.705,47.2441 "/>
<polyline clip-path="url(#clip852)" style="stroke:#000000; stroke-linecap:round; stroke-linejoin:round; stroke-width:2; stroke-opacity:0.1; fill:none" points="865.003,1063.09 865.003,47.2441 "/>
<polyline clip-path="url(#clip852)" style="stroke:#000000; stroke-linecap:round; stroke-linejoin:round; stroke-width:2; stroke-opacity:0.1; fill:none" points="1182.3,1063.09 1182.3,47.2441 "/>
<polyline clip-path="url(#clip852)" style="stroke:#000000; stroke-linecap:round; stroke-linejoin:round; stroke-width:2; stroke-opacity:0.1; fill:none" points="1499.6,1063.09 1499.6,47.2441 "/>
<polyline clip-path="url(#clip852)" style="stroke:#000000; stroke-linecap:round; stroke-linejoin:round; stroke-width:2; stroke-opacity:0.1; fill:none" points="192.331,1047.66 1537.67,1047.66 "/>
<polyline clip-path="url(#clip852)" style="stroke:#000000; stroke-linecap:round; stroke-linejoin:round; stroke-width:2; stroke-opacity:0.1; fill:none" points="192.331,819.914 1537.67,819.914 "/>
<polyline clip-path="url(#clip852)" style="stroke:#000000; stroke-linecap:round; stroke-linejoin:round; stroke-width:2; stroke-opacity:0.1; fill:none" points="192.331,592.165 1537.67,592.165 "/>
<polyline clip-path="url(#clip852)" style="stroke:#000000; stroke-linecap:round; stroke-linejoin:round; stroke-width:2; stroke-opacity:0.1; fill:none" points="192.331,364.416 1537.67,364.416 "/>
<polyline clip-path="url(#clip852)" style="stroke:#000000; stroke-linecap:round; stroke-linejoin:round; stroke-width:2; stroke-opacity:0.1; fill:none" points="192.331,136.667 1537.67,136.667 "/>
<polyline clip-path="url(#clip850)" style="stroke:#000000; stroke-linecap:round; stroke-linejoin:round; stroke-width:4; stroke-opacity:1; fill:none" points="192.331,1063.09 1537.67,1063.09 "/>
<polyline clip-path="url(#clip850)" style="stroke:#000000; stroke-linecap:round; stroke-linejoin:round; stroke-width:4; stroke-opacity:1; fill:none" points="230.407,1063.09 230.407,1044.19 "/>
<polyline clip-path="url(#clip850)" style="stroke:#000000; stroke-linecap:round; stroke-linejoin:round; stroke-width:4; stroke-opacity:1; fill:none" points="547.705,1063.09 547.705,1044.19 "/>
<polyline clip-path="url(#clip850)" style="stroke:#000000; stroke-linecap:round; stroke-linejoin:round; stroke-width:4; stroke-opacity:1; fill:none" points="865.003,1063.09 865.003,1044.19 "/>
<polyline clip-path="url(#clip850)" style="stroke:#000000; stroke-linecap:round; stroke-linejoin:round; stroke-width:4; stroke-opacity:1; fill:none" points="1182.3,1063.09 1182.3,1044.19 "/>
<polyline clip-path="url(#clip850)" style="stroke:#000000; stroke-linecap:round; stroke-linejoin:round; stroke-width:4; stroke-opacity:1; fill:none" points="1499.6,1063.09 1499.6,1044.19 "/>
<path clip-path="url(#clip850)" d="M230.407 1100.41 Q226.796 1100.41 224.967 1103.97 Q223.161 1107.51 223.161 1114.64 Q223.161 1121.75 224.967 1125.32 Q226.796 1128.86 230.407 1128.86 Q234.041 1128.86 235.847 1125.32 Q237.675 1121.75 237.675 1114.64 Q237.675 1107.51 235.847 1103.97 Q234.041 1100.41 230.407 1100.41 M230.407 1096.7 Q236.217 1096.7 239.272 1101.31 Q242.351 1105.89 242.351 1114.64 Q242.351 1123.37 239.272 1127.98 Q236.217 1132.56 230.407 1132.56 Q224.597 1132.56 221.518 1127.98 Q218.462 1123.37 218.462 1114.64 Q218.462 1105.89 221.518 1101.31 Q224.597 1096.7 230.407 1096.7 Z" fill="#000000" fill-rule="nonzero" fill-opacity="1" /><path clip-path="url(#clip850)" d="M511.397 1127.95 L527.717 1127.95 L527.717 1131.89 L505.772 1131.89 L505.772 1127.95 Q508.434 1125.2 513.018 1120.57 Q517.624 1115.92 518.805 1114.58 Q521.05 1112.05 521.93 1110.32 Q522.832 1108.56 522.832 1106.87 Q522.832 1104.11 520.888 1102.38 Q518.967 1100.64 515.865 1100.64 Q513.666 1100.64 511.212 1101.4 Q508.781 1102.17 506.004 1103.72 L506.004 1099 Q508.828 1097.86 511.281 1097.28 Q513.735 1096.7 515.772 1096.7 Q521.143 1096.7 524.337 1099.39 Q527.531 1102.08 527.531 1106.57 Q527.531 1108.7 526.721 1110.62 Q525.934 1112.51 523.828 1115.11 Q523.249 1115.78 520.147 1119 Q517.045 1122.19 511.397 1127.95 Z" fill="#000000" fill-rule="nonzero" fill-opacity="1" /><path clip-path="url(#clip850)" d="M537.578 1097.33 L555.934 1097.33 L555.934 1101.27 L541.86 1101.27 L541.86 1109.74 Q542.878 1109.39 543.897 1109.23 Q544.916 1109.04 545.934 1109.04 Q551.721 1109.04 555.101 1112.21 Q558.48 1115.39 558.48 1120.8 Q558.48 1126.38 555.008 1129.48 Q551.536 1132.56 545.216 1132.56 Q543.041 1132.56 540.772 1132.19 Q538.527 1131.82 536.119 1131.08 L536.119 1126.38 Q538.203 1127.51 540.425 1128.07 Q542.647 1128.63 545.124 1128.63 Q549.128 1128.63 551.466 1126.52 Q553.804 1124.41 553.804 1120.8 Q553.804 1117.19 551.466 1115.08 Q549.128 1112.98 545.124 1112.98 Q543.249 1112.98 541.374 1113.39 Q539.522 1113.81 537.578 1114.69 L537.578 1097.33 Z" fill="#000000" fill-rule="nonzero" fill-opacity="1" /><path clip-path="url(#clip850)" d="M577.693 1100.41 Q574.082 1100.41 572.253 1103.97 Q570.448 1107.51 570.448 1114.64 Q570.448 1121.75 572.253 1125.32 Q574.082 1128.86 577.693 1128.86 Q581.327 1128.86 583.133 1125.32 Q584.962 1121.75 584.962 1114.64 Q584.962 1107.51 583.133 1103.97 Q581.327 1100.41 577.693 1100.41 M577.693 1096.7 Q583.503 1096.7 586.559 1101.31 Q589.638 1105.89 589.638 1114.64 Q589.638 1123.37 586.559 1127.98 Q583.503 1132.56 577.693 1132.56 Q571.883 1132.56 568.804 1127.98 Q565.749 1123.37 565.749 1114.64 Q565.749 1105.89 568.804 1101.31 Q571.883 1096.7 577.693 1096.7 Z" fill="#000000" fill-rule="nonzero" fill-opacity="1" /><path clip-path="url(#clip850)" d="M824.621 1097.33 L842.978 1097.33 L842.978 1101.27 L828.904 1101.27 L828.904 1109.74 Q829.922 1109.39 830.941 1109.23 Q831.959 1109.04 832.978 1109.04 Q838.765 1109.04 842.144 1112.21 Q845.524 1115.39 845.524 1120.8 Q845.524 1126.38 842.052 1129.48 Q838.58 1132.56 832.26 1132.56 Q830.084 1132.56 827.816 1132.19 Q825.57 1131.82 823.163 1131.08 L823.163 1126.38 Q825.246 1127.51 827.468 1128.07 Q829.691 1128.63 832.167 1128.63 Q836.172 1128.63 838.51 1126.52 Q840.848 1124.41 840.848 1120.8 Q840.848 1117.19 838.51 1115.08 Q836.172 1112.98 832.167 1112.98 Q830.293 1112.98 828.418 1113.39 Q826.566 1113.81 824.621 1114.69 L824.621 1097.33 Z" fill="#000000" fill-rule="nonzero" fill-opacity="1" /><path clip-path="url(#clip850)" d="M864.737 1100.41 Q861.126 1100.41 859.297 1103.97 Q857.491 1107.51 857.491 1114.64 Q857.491 1121.75 859.297 1125.32 Q861.126 1128.86 864.737 1128.86 Q868.371 1128.86 870.177 1125.32 Q872.005 1121.75 872.005 1114.64 Q872.005 1107.51 870.177 1103.97 Q868.371 1100.41 864.737 1100.41 M864.737 1096.7 Q870.547 1096.7 873.602 1101.31 Q876.681 1105.89 876.681 1114.64 Q876.681 1123.37 873.602 1127.98 Q870.547 1132.56 864.737 1132.56 Q858.927 1132.56 855.848 1127.98 Q852.792 1123.37 852.792 1114.64 Q852.792 1105.89 855.848 1101.31 Q858.927 1096.7 864.737 1096.7 Z" fill="#000000" fill-rule="nonzero" fill-opacity="1" /><path clip-path="url(#clip850)" d="M894.899 1100.41 Q891.288 1100.41 889.459 1103.97 Q887.653 1107.51 887.653 1114.64 Q887.653 1121.75 889.459 1125.32 Q891.288 1128.86 894.899 1128.86 Q898.533 1128.86 900.338 1125.32 Q902.167 1121.75 902.167 1114.64 Q902.167 1107.51 900.338 1103.97 Q898.533 1100.41 894.899 1100.41 M894.899 1096.7 Q900.709 1096.7 903.764 1101.31 Q906.843 1105.89 906.843 1114.64 Q906.843 1123.37 903.764 1127.98 Q900.709 1132.56 894.899 1132.56 Q889.088 1132.56 886.01 1127.98 Q882.954 1123.37 882.954 1114.64 Q882.954 1105.89 886.01 1101.31 Q889.088 1096.7 894.899 1096.7 Z" fill="#000000" fill-rule="nonzero" fill-opacity="1" /><path clip-path="url(#clip850)" d="M1140.58 1097.33 L1162.8 1097.33 L1162.8 1099.32 L1150.25 1131.89 L1145.37 1131.89 L1157.17 1101.27 L1140.58 1101.27 L1140.58 1097.33 Z" fill="#000000" fill-rule="nonzero" fill-opacity="1" /><path clip-path="url(#clip850)" d="M1171.97 1097.33 L1190.32 1097.33 L1190.32 1101.27 L1176.25 1101.27 L1176.25 1109.74 Q1177.27 1109.39 1178.28 1109.23 Q1179.3 1109.04 1180.32 1109.04 Q1186.11 1109.04 1189.49 1112.21 Q1192.87 1115.39 1192.87 1120.8 Q1192.87 1126.38 1189.4 1129.48 Q1185.92 1132.56 1179.6 1132.56 Q1177.43 1132.56 1175.16 1132.19 Q1172.91 1131.82 1170.51 1131.08 L1170.51 1126.38 Q1172.59 1127.51 1174.81 1128.07 Q1177.03 1128.63 1179.51 1128.63 Q1183.52 1128.63 1185.85 1126.52 Q1188.19 1124.41 1188.19 1120.8 Q1188.19 1117.19 1185.85 1115.08 Q1183.52 1112.98 1179.51 1112.98 Q1177.64 1112.98 1175.76 1113.39 Q1173.91 1113.81 1171.97 1114.69 L1171.97 1097.33 Z" fill="#000000" fill-rule="nonzero" fill-opacity="1" /><path clip-path="url(#clip850)" d="M1212.08 1100.41 Q1208.47 1100.41 1206.64 1103.97 Q1204.84 1107.51 1204.84 1114.64 Q1204.84 1121.75 1206.64 1125.32 Q1208.47 1128.86 1212.08 1128.86 Q1215.72 1128.86 1217.52 1125.32 Q1219.35 1121.75 1219.35 1114.64 Q1219.35 1107.51 1217.52 1103.97 Q1215.72 1100.41 1212.08 1100.41 M1212.08 1096.7 Q1217.89 1096.7 1220.95 1101.31 Q1224.03 1105.89 1224.03 1114.64 Q1224.03 1123.37 1220.95 1127.98 Q1217.89 1132.56 1212.08 1132.56 Q1206.27 1132.56 1203.19 1127.98 Q1200.14 1123.37 1200.14 1114.64 Q1200.14 1105.89 1203.19 1101.31 Q1206.27 1096.7 1212.08 1096.7 Z" fill="#000000" fill-rule="nonzero" fill-opacity="1" /><path clip-path="url(#clip850)" d="M1444.12 1127.95 L1451.76 1127.95 L1451.76 1101.59 L1443.45 1103.26 L1443.45 1099 L1451.72 1097.33 L1456.39 1097.33 L1456.39 1127.95 L1464.03 1127.95 L1464.03 1131.89 L1444.12 1131.89 L1444.12 1127.95 Z" fill="#000000" fill-rule="nonzero" fill-opacity="1" /><path clip-path="url(#clip850)" d="M1483.48 1100.41 Q1479.87 1100.41 1478.04 1103.97 Q1476.23 1107.51 1476.23 1114.64 Q1476.23 1121.75 1478.04 1125.32 Q1479.87 1128.86 1483.48 1128.86 Q1487.11 1128.86 1488.92 1125.32 Q1490.75 1121.75 1490.75 1114.64 Q1490.75 1107.51 1488.92 1103.97 Q1487.11 1100.41 1483.48 1100.41 M1483.48 1096.7 Q1489.29 1096.7 1492.34 1101.31 Q1495.42 1105.89 1495.42 1114.64 Q1495.42 1123.37 1492.34 1127.98 Q1489.29 1132.56 1483.48 1132.56 Q1477.67 1132.56 1474.59 1127.98 Q1471.53 1123.37 1471.53 1114.64 Q1471.53 1105.89 1474.59 1101.31 Q1477.67 1096.7 1483.48 1096.7 Z" fill="#000000" fill-rule="nonzero" fill-opacity="1" /><path clip-path="url(#clip850)" d="M1513.64 1100.41 Q1510.03 1100.41 1508.2 1103.97 Q1506.39 1107.51 1506.39 1114.64 Q1506.39 1121.75 1508.2 1125.32 Q1510.03 1128.86 1513.64 1128.86 Q1517.27 1128.86 1519.08 1125.32 Q1520.91 1121.75 1520.91 1114.64 Q1520.91 1107.51 1519.08 1103.97 Q1517.27 1100.41 1513.64 1100.41 M1513.64 1096.7 Q1519.45 1096.7 1522.5 1101.31 Q1525.58 1105.89 1525.58 1114.64 Q1525.58 1123.37 1522.5 1127.98 Q1519.45 1132.56 1513.64 1132.56 Q1507.83 1132.56 1504.75 1127.98 Q1501.69 1123.37 1501.69 1114.64 Q1501.69 1105.89 1504.75 1101.31 Q1507.83 1096.7 1513.64 1096.7 Z" fill="#000000" fill-rule="nonzero" fill-opacity="1" /><path clip-path="url(#clip850)" d="M1543.8 1100.41 Q1540.19 1100.41 1538.36 1103.97 Q1536.56 1107.51 1536.56 1114.64 Q1536.56 1121.75 1538.36 1125.32 Q1540.19 1128.86 1543.8 1128.86 Q1547.43 1128.86 1549.24 1125.32 Q1551.07 1121.75 1551.07 1114.64 Q1551.07 1107.51 1549.24 1103.97 Q1547.43 1100.41 1543.8 1100.41 M1543.8 1096.7 Q1549.61 1096.7 1552.67 1101.31 Q1555.74 1105.89 1555.74 1114.64 Q1555.74 1123.37 1552.67 1127.98 Q1549.61 1132.56 1543.8 1132.56 Q1537.99 1132.56 1534.91 1127.98 Q1531.86 1123.37 1531.86 1114.64 Q1531.86 1105.89 1534.91 1101.31 Q1537.99 1096.7 1543.8 1096.7 Z" fill="#000000" fill-rule="nonzero" fill-opacity="1" /><path clip-path="url(#clip850)" d="M729.827 1184.31 L735.684 1184.31 L743.004 1212.12 L750.293 1184.31 L757.2 1184.31 L764.52 1212.12 L771.809 1184.31 L777.665 1184.31 L768.34 1219.95 L761.433 1219.95 L753.762 1190.74 L746.06 1219.95 L739.153 1219.95 L729.827 1184.31 Z" fill="#000000" fill-rule="nonzero" fill-opacity="1" /><path clip-path="url(#clip850)" d="M817.037 1200.67 L817.037 1203.53 L790.11 1203.53 Q790.492 1209.58 793.739 1212.76 Q797.017 1215.91 802.842 1215.91 Q806.216 1215.91 809.367 1215.08 Q812.55 1214.26 815.669 1212.6 L815.669 1218.14 Q812.518 1219.48 809.208 1220.18 Q805.897 1220.88 802.492 1220.88 Q793.962 1220.88 788.965 1215.91 Q783.999 1210.95 783.999 1202.48 Q783.999 1193.73 788.71 1188.6 Q793.452 1183.45 801.473 1183.45 Q808.666 1183.45 812.836 1188.09 Q817.037 1192.71 817.037 1200.67 M811.181 1198.95 Q811.117 1194.14 808.475 1191.28 Q805.866 1188.41 801.537 1188.41 Q796.635 1188.41 793.675 1191.18 Q790.747 1193.95 790.301 1198.98 L811.181 1198.95 Z" fill="#000000" fill-rule="nonzero" fill-opacity="1" /><path clip-path="url(#clip850)" d="M842.85 1202.03 Q835.753 1202.03 833.015 1203.66 Q830.278 1205.28 830.278 1209.2 Q830.278 1212.31 832.315 1214.16 Q834.384 1215.98 837.917 1215.98 Q842.787 1215.98 845.715 1212.54 Q848.675 1209.07 848.675 1203.34 L848.675 1202.03 L842.85 1202.03 M854.531 1199.62 L854.531 1219.95 L848.675 1219.95 L848.675 1214.54 Q846.67 1217.79 843.678 1219.35 Q840.686 1220.88 836.357 1220.88 Q830.883 1220.88 827.636 1217.82 Q824.422 1214.73 824.422 1209.58 Q824.422 1203.56 828.432 1200.51 Q832.474 1197.45 840.463 1197.45 L848.675 1197.45 L848.675 1196.88 Q848.675 1192.84 846.001 1190.64 Q843.36 1188.41 838.553 1188.41 Q835.498 1188.41 832.602 1189.14 Q829.705 1189.88 827.032 1191.34 L827.032 1185.93 Q830.246 1184.69 833.27 1184.08 Q836.294 1183.45 839.158 1183.45 Q846.893 1183.45 850.712 1187.46 Q854.531 1191.47 854.531 1199.62 Z" fill="#000000" fill-rule="nonzero" fill-opacity="1" /><path clip-path="url(#clip850)" d="M866.594 1170.43 L872.451 1170.43 L872.451 1219.95 L866.594 1219.95 L866.594 1170.43 Z" fill="#000000" fill-rule="nonzero" fill-opacity="1" /><path clip-path="url(#clip850)" d="M890.498 1174.18 L890.498 1184.31 L902.561 1184.31 L902.561 1188.86 L890.498 1188.86 L890.498 1208.21 Q890.498 1212.57 891.675 1213.81 Q892.885 1215.05 896.545 1215.05 L902.561 1215.05 L902.561 1219.95 L896.545 1219.95 Q889.766 1219.95 887.187 1217.44 Q884.609 1214.89 884.609 1208.21 L884.609 1188.86 L880.312 1188.86 L880.312 1184.31 L884.609 1184.31 L884.609 1174.18 L890.498 1174.18 Z" fill="#000000" fill-rule="nonzero" fill-opacity="1" /><path clip-path="url(#clip850)" d="M939.896 1198.44 L939.896 1219.95 L934.039 1219.95 L934.039 1198.63 Q934.039 1193.57 932.066 1191.05 Q930.092 1188.54 926.146 1188.54 Q921.403 1188.54 918.666 1191.56 Q915.929 1194.59 915.929 1199.81 L915.929 1219.95 L910.04 1219.95 L910.04 1170.43 L915.929 1170.43 L915.929 1189.84 Q918.029 1186.63 920.862 1185.04 Q923.727 1183.45 927.451 1183.45 Q933.593 1183.45 936.744 1187.27 Q939.896 1191.05 939.896 1198.44 Z" fill="#000000" fill-rule="nonzero" fill-opacity="1" /><path clip-path="url(#clip850)" d="M988.498 1202.03 Q981.4 1202.03 978.663 1203.66 Q975.925 1205.28 975.925 1209.2 Q975.925 1212.31 977.962 1214.16 Q980.031 1215.98 983.564 1215.98 Q988.434 1215.98 991.362 1212.54 Q994.322 1209.07 994.322 1203.34 L994.322 1202.03 L988.498 1202.03 M1000.18 1199.62 L1000.18 1219.95 L994.322 1219.95 L994.322 1214.54 Q992.317 1217.79 989.325 1219.35 Q986.333 1220.88 982.005 1220.88 Q976.53 1220.88 973.284 1217.82 Q970.069 1214.73 970.069 1209.58 Q970.069 1203.56 974.079 1200.51 Q978.122 1197.45 986.111 1197.45 L994.322 1197.45 L994.322 1196.88 Q994.322 1192.84 991.649 1190.64 Q989.007 1188.41 984.201 1188.41 Q981.145 1188.41 978.249 1189.14 Q975.352 1189.88 972.679 1191.34 L972.679 1185.93 Q975.894 1184.69 978.917 1184.08 Q981.941 1183.45 984.806 1183.45 Q992.54 1183.45 996.359 1187.46 Q1000.18 1191.47 1000.18 1199.62 Z" fill="#000000" fill-rule="nonzero" fill-opacity="1" /><polyline clip-path="url(#clip850)" style="stroke:#000000; stroke-linecap:round; stroke-linejoin:round; stroke-width:4; stroke-opacity:1; fill:none" points="192.331,1063.09 192.331,47.2441 "/>
<polyline clip-path="url(#clip850)" style="stroke:#000000; stroke-linecap:round; stroke-linejoin:round; stroke-width:4; stroke-opacity:1; fill:none" points="192.331,1047.66 211.229,1047.66 "/>
<polyline clip-path="url(#clip850)" style="stroke:#000000; stroke-linecap:round; stroke-linejoin:round; stroke-width:4; stroke-opacity:1; fill:none" points="192.331,819.914 211.229,819.914 "/>
<polyline clip-path="url(#clip850)" style="stroke:#000000; stroke-linecap:round; stroke-linejoin:round; stroke-width:4; stroke-opacity:1; fill:none" points="192.331,592.165 211.229,592.165 "/>
<polyline clip-path="url(#clip850)" style="stroke:#000000; stroke-linecap:round; stroke-linejoin:round; stroke-width:4; stroke-opacity:1; fill:none" points="192.331,364.416 211.229,364.416 "/>
<polyline clip-path="url(#clip850)" style="stroke:#000000; stroke-linecap:round; stroke-linejoin:round; stroke-width:4; stroke-opacity:1; fill:none" points="192.331,136.667 211.229,136.667 "/>
<path clip-path="url(#clip850)" d="M132.387 1033.46 Q128.776 1033.46 126.947 1037.03 Q125.141 1040.57 125.141 1047.7 Q125.141 1054.8 126.947 1058.37 Q128.776 1061.91 132.387 1061.91 Q136.021 1061.91 137.826 1058.37 Q139.655 1054.8 139.655 1047.7 Q139.655 1040.57 137.826 1037.03 Q136.021 1033.46 132.387 1033.46 M132.387 1029.76 Q138.197 1029.76 141.252 1034.36 Q144.331 1038.95 144.331 1047.7 Q144.331 1056.42 141.252 1061.03 Q138.197 1065.61 132.387 1065.61 Q126.576 1065.61 123.498 1061.03 Q120.442 1056.42 120.442 1047.7 Q120.442 1038.95 123.498 1034.36 Q126.576 1029.76 132.387 1029.76 Z" fill="#000000" fill-rule="nonzero" fill-opacity="1" /><path clip-path="url(#clip850)" d="M93.035 833.259 L100.674 833.259 L100.674 806.894 L92.3637 808.56 L92.3637 804.301 L100.628 802.634 L105.303 802.634 L105.303 833.259 L112.942 833.259 L112.942 837.194 L93.035 837.194 L93.035 833.259 Z" fill="#000000" fill-rule="nonzero" fill-opacity="1" /><path clip-path="url(#clip850)" d="M132.387 805.713 Q128.776 805.713 126.947 809.278 Q125.141 812.819 125.141 819.949 Q125.141 827.055 126.947 830.62 Q128.776 834.162 132.387 834.162 Q136.021 834.162 137.826 830.62 Q139.655 827.055 139.655 819.949 Q139.655 812.819 137.826 809.278 Q136.021 805.713 132.387 805.713 M132.387 802.009 Q138.197 802.009 141.252 806.616 Q144.331 811.199 144.331 819.949 Q144.331 828.676 141.252 833.282 Q138.197 837.866 132.387 837.866 Q126.576 837.866 123.498 833.282 Q120.442 828.676 120.442 819.949 Q120.442 811.199 123.498 806.616 Q126.576 802.009 132.387 802.009 Z" fill="#000000" fill-rule="nonzero" fill-opacity="1" /><path clip-path="url(#clip850)" d="M96.2525 605.51 L112.572 605.51 L112.572 609.445 L90.6276 609.445 L90.6276 605.51 Q93.2896 602.756 97.8729 598.126 Q102.479 593.473 103.66 592.131 Q105.905 589.607 106.785 587.871 Q107.688 586.112 107.688 584.422 Q107.688 581.668 105.743 579.932 Q103.822 578.196 100.72 578.196 Q98.521 578.196 96.0673 578.959 Q93.6368 579.723 90.859 581.274 L90.859 576.552 Q93.6831 575.418 96.1368 574.839 Q98.5905 574.26 100.628 574.26 Q105.998 574.26 109.192 576.946 Q112.387 579.631 112.387 584.121 Q112.387 586.251 111.577 588.172 Q110.789 590.07 108.683 592.663 Q108.104 593.334 105.002 596.552 Q101.901 599.746 96.2525 605.51 Z" fill="#000000" fill-rule="nonzero" fill-opacity="1" /><path clip-path="url(#clip850)" d="M132.387 577.964 Q128.776 577.964 126.947 581.529 Q125.141 585.07 125.141 592.2 Q125.141 599.307 126.947 602.871 Q128.776 606.413 132.387 606.413 Q136.021 606.413 137.826 602.871 Q139.655 599.307 139.655 592.2 Q139.655 585.07 137.826 581.529 Q136.021 577.964 132.387 577.964 M132.387 574.26 Q138.197 574.26 141.252 578.867 Q144.331 583.45 144.331 592.2 Q144.331 600.927 141.252 605.533 Q138.197 610.117 132.387 610.117 Q126.576 610.117 123.498 605.533 Q120.442 600.927 120.442 592.2 Q120.442 583.45 123.498 578.867 Q126.576 574.26 132.387 574.26 Z" fill="#000000" fill-rule="nonzero" fill-opacity="1" /><path clip-path="url(#clip850)" d="M106.391 363.062 Q109.748 363.78 111.623 366.048 Q113.521 368.317 113.521 371.65 Q113.521 376.766 110.002 379.567 Q106.484 382.368 100.003 382.368 Q97.8266 382.368 95.5118 381.928 Q93.2201 381.511 90.7664 380.655 L90.7664 376.141 Q92.7109 377.275 95.0257 377.854 Q97.3405 378.433 99.8636 378.433 Q104.262 378.433 106.553 376.696 Q108.868 374.96 108.868 371.65 Q108.868 368.595 106.715 366.882 Q104.586 365.146 100.766 365.146 L96.7386 365.146 L96.7386 361.303 L100.952 361.303 Q104.401 361.303 106.229 359.937 Q108.058 358.548 108.058 355.956 Q108.058 353.294 106.16 351.882 Q104.285 350.447 100.766 350.447 Q98.8451 350.447 96.646 350.863 Q94.447 351.28 91.8081 352.16 L91.8081 347.993 Q94.4701 347.252 96.7849 346.882 Q99.1229 346.511 101.183 346.511 Q106.507 346.511 109.609 348.942 Q112.711 351.349 112.711 355.47 Q112.711 358.34 111.067 360.331 Q109.424 362.298 106.391 363.062 Z" fill="#000000" fill-rule="nonzero" fill-opacity="1" /><path clip-path="url(#clip850)" d="M132.387 350.215 Q128.776 350.215 126.947 353.78 Q125.141 357.322 125.141 364.451 Q125.141 371.558 126.947 375.122 Q128.776 378.664 132.387 378.664 Q136.021 378.664 137.826 375.122 Q139.655 371.558 139.655 364.451 Q139.655 357.322 137.826 353.78 Q136.021 350.215 132.387 350.215 M132.387 346.511 Q138.197 346.511 141.252 351.118 Q144.331 355.701 144.331 364.451 Q144.331 373.178 141.252 377.784 Q138.197 382.368 132.387 382.368 Q126.576 382.368 123.498 377.784 Q120.442 373.178 120.442 364.451 Q120.442 355.701 123.498 351.118 Q126.576 346.511 132.387 346.511 Z" fill="#000000" fill-rule="nonzero" fill-opacity="1" /><path clip-path="url(#clip850)" d="M105.072 123.461 L93.2664 141.91 L105.072 141.91 L105.072 123.461 M103.845 119.387 L109.725 119.387 L109.725 141.91 L114.655 141.91 L114.655 145.799 L109.725 145.799 L109.725 153.947 L105.072 153.947 L105.072 145.799 L89.4702 145.799 L89.4702 141.285 L103.845 119.387 Z" fill="#000000" fill-rule="nonzero" fill-opacity="1" /><path clip-path="url(#clip850)" d="M132.387 122.466 Q128.776 122.466 126.947 126.031 Q125.141 129.573 125.141 136.702 Q125.141 143.809 126.947 147.373 Q128.776 150.915 132.387 150.915 Q136.021 150.915 137.826 147.373 Q139.655 143.809 139.655 136.702 Q139.655 129.573 137.826 126.031 Q136.021 122.466 132.387 122.466 M132.387 118.762 Q138.197 118.762 141.252 123.369 Q144.331 127.952 144.331 136.702 Q144.331 145.429 141.252 150.035 Q138.197 154.619 132.387 154.619 Q126.576 154.619 123.498 150.035 Q120.442 145.429 120.442 136.702 Q120.442 127.952 123.498 123.369 Q126.576 118.762 132.387 118.762 Z" fill="#000000" fill-rule="nonzero" fill-opacity="1" /><path clip-path="url(#clip850)" d="M-7.06517 762.45 L-1.59067 762.45 Q-2.95929 764.933 -3.62769 767.447 Q-4.32792 769.93 -4.32792 772.476 Q-4.32792 778.174 -0.699466 781.325 Q2.89716 784.476 9.42201 784.476 Q15.9469 784.476 19.5753 781.325 Q23.1719 778.174 23.1719 772.476 Q23.1719 769.93 22.5035 767.447 Q21.8033 764.933 20.4347 762.45 L25.8455 762.45 Q26.9914 764.901 27.5643 767.543 Q28.1372 770.153 28.1372 773.113 Q28.1372 781.165 23.0764 785.908 Q18.0157 790.65 9.42201 790.65 Q0.700989 790.65 -4.29609 785.876 Q-9.29317 781.07 -9.29317 772.731 Q-9.29317 770.025 -8.72026 767.447 Q-8.17917 764.869 -7.06517 762.45 Z" fill="#000000" fill-rule="nonzero" fill-opacity="1" /><path clip-path="url(#clip850)" d="M-4.32792 738.452 Q-4.32792 743.162 -0.635809 745.899 Q3.02447 748.637 9.42201 748.637 Q15.8195 748.637 19.5117 745.931 Q23.1719 743.194 23.1719 738.452 Q23.1719 733.773 19.4798 731.036 Q15.7877 728.298 9.42201 728.298 Q3.08813 728.298 -0.60398 731.036 Q-4.32792 733.773 -4.32792 738.452 M-9.29317 738.452 Q-9.29317 730.813 -4.32792 726.452 Q0.637332 722.092 9.42201 722.092 Q18.1749 722.092 23.1719 726.452 Q28.1372 730.813 28.1372 738.452 Q28.1372 746.122 23.1719 750.483 Q18.1749 754.811 9.42201 754.811 Q0.637332 754.811 -4.32792 750.483 Q-9.29317 746.122 -9.29317 738.452 Z" fill="#000000" fill-rule="nonzero" fill-opacity="1" /><path clip-path="url(#clip850)" d="M5.69807 682.752 L27.2142 682.752 L27.2142 688.608 L5.88904 688.608 Q0.828303 688.608 -1.68615 690.581 Q-4.2006 692.555 -4.2006 696.502 Q-4.2006 701.244 -1.17689 703.981 Q1.84682 706.719 7.0667 706.719 L27.2142 706.719 L27.2142 712.607 L-8.4338 712.607 L-8.4338 706.719 L-2.89563 706.719 Q-6.11032 704.618 -7.70174 701.785 Q-9.29317 698.921 -9.29317 695.197 Q-9.29317 689.054 -5.47375 685.903 Q-1.68615 682.752 5.69807 682.752 Z" fill="#000000" fill-rule="nonzero" fill-opacity="1" /><path clip-path="url(#clip850)" d="M-7.38346 648.345 L-1.84529 648.345 Q-3.11843 650.828 -3.75501 653.501 Q-4.39158 656.175 -4.39158 659.039 Q-4.39158 663.4 -3.05478 665.596 Q-1.71798 667.76 0.955618 667.76 Q2.99264 667.76 4.1703 666.201 Q5.31613 664.641 6.36647 659.931 L6.81207 657.925 Q8.14887 651.687 10.5997 649.077 Q13.0186 646.435 17.3791 646.435 Q22.3444 646.435 25.2408 650.382 Q28.1372 654.297 28.1372 661.172 Q28.1372 664.036 27.5643 667.156 Q27.0232 670.243 25.9092 673.681 L19.8618 673.681 Q21.5487 670.434 22.408 667.283 Q23.2356 664.132 23.2356 661.045 Q23.2356 656.907 21.8351 654.679 Q20.4029 652.451 17.8247 652.451 Q15.4376 652.451 14.1645 654.074 Q12.8913 655.666 11.7137 661.108 L11.2362 663.145 Q10.0904 668.588 7.7351 671.007 Q5.34796 673.426 1.21025 673.426 Q-3.81866 673.426 -6.55592 669.861 Q-9.29317 666.296 -9.29317 659.74 Q-9.29317 656.493 -8.81574 653.629 Q-8.33831 650.764 -7.38346 648.345 Z" fill="#000000" fill-rule="nonzero" fill-opacity="1" /><path clip-path="url(#clip850)" d="M13.1459 637.714 L-8.4338 637.714 L-8.4338 631.858 L12.9231 631.858 Q17.9839 631.858 20.5302 629.884 Q23.0446 627.911 23.0446 623.964 Q23.0446 619.222 20.0209 616.485 Q16.9972 613.716 11.7773 613.716 L-8.4338 613.716 L-8.4338 607.859 L27.2142 607.859 L27.2142 613.716 L21.7396 613.716 Q24.9862 615.848 26.5776 618.681 Q28.1372 621.482 28.1372 625.206 Q28.1372 631.349 24.3178 634.531 Q20.4983 637.714 13.1459 637.714 M-9.29317 622.978 L-9.29317 622.978 Z" fill="#000000" fill-rule="nonzero" fill-opacity="1" /><path clip-path="url(#clip850)" d="M-1.59067 568.042 Q-5.5374 565.845 -7.41529 562.79 Q-9.29317 559.734 -9.29317 555.597 Q-9.29317 550.027 -5.37826 547.003 Q-1.49518 543.979 5.69807 543.979 L27.2142 543.979 L27.2142 549.868 L5.88904 549.868 Q0.764646 549.868 -1.71798 551.682 Q-4.2006 553.496 -4.2006 557.22 Q-4.2006 561.771 -1.17689 564.413 Q1.84682 567.055 7.0667 567.055 L27.2142 567.055 L27.2142 572.943 L5.88904 572.943 Q0.732818 572.943 -1.71798 574.757 Q-4.2006 576.572 -4.2006 580.359 Q-4.2006 584.847 -1.14507 587.489 Q1.87865 590.131 7.0667 590.131 L27.2142 590.131 L27.2142 596.019 L-8.4338 596.019 L-8.4338 590.131 L-2.89563 590.131 Q-6.17397 588.125 -7.73357 585.325 Q-9.29317 582.524 -9.29317 578.672 Q-9.29317 574.789 -7.3198 572.084 Q-5.34643 569.347 -1.59067 568.042 Z" fill="#000000" fill-rule="nonzero" fill-opacity="1" /><path clip-path="url(#clip850)" d="M21.867 526.633 L40.7731 526.633 L40.7731 532.521 L-8.4338 532.521 L-8.4338 526.633 L-3.02295 526.633 Q-6.2058 524.787 -7.73357 521.986 Q-9.29317 519.153 -9.29317 515.238 Q-9.29317 508.745 -4.13695 504.703 Q1.01927 500.629 9.42201 500.629 Q17.8247 500.629 22.981 504.703 Q28.1372 508.745 28.1372 515.238 Q28.1372 519.153 26.6094 521.986 Q25.0498 524.787 21.867 526.633 M9.42201 506.708 Q2.96082 506.708 -0.699466 509.382 Q-4.39158 512.023 -4.39158 516.67 Q-4.39158 521.317 -0.699466 523.991 Q2.96082 526.633 9.42201 526.633 Q15.8832 526.633 19.5753 523.991 Q23.2356 521.317 23.2356 516.67 Q23.2356 512.023 19.5753 509.382 Q15.8832 506.708 9.42201 506.708 Z" fill="#000000" fill-rule="nonzero" fill-opacity="1" /><path clip-path="url(#clip850)" d="M-18.5553 485.128 L-8.4338 485.128 L-8.4338 473.065 L-3.88232 473.065 L-3.88232 485.128 L15.4694 485.128 Q19.8299 485.128 21.0713 483.951 Q22.3126 482.741 22.3126 479.081 L22.3126 473.065 L27.2142 473.065 L27.2142 479.081 Q27.2142 485.86 24.6997 488.438 Q22.1534 491.017 15.4694 491.017 L-3.88232 491.017 L-3.88232 495.313 L-8.4338 495.313 L-8.4338 491.017 L-18.5553 491.017 L-18.5553 485.128 Z" fill="#000000" fill-rule="nonzero" fill-opacity="1" /><path clip-path="url(#clip850)" d="M-8.4338 465.363 L-8.4338 459.506 L27.2142 459.506 L27.2142 465.363 L-8.4338 465.363 M-22.311 465.363 L-22.311 459.506 L-14.895 459.506 L-14.895 465.363 L-22.311 465.363 Z" fill="#000000" fill-rule="nonzero" fill-opacity="1" /><path clip-path="url(#clip850)" d="M-4.32792 433.439 Q-4.32792 438.149 -0.635809 440.887 Q3.02447 443.624 9.42201 443.624 Q15.8195 443.624 19.5117 440.918 Q23.1719 438.181 23.1719 433.439 Q23.1719 428.76 19.4798 426.023 Q15.7877 423.285 9.42201 423.285 Q3.08813 423.285 -0.60398 426.023 Q-4.32792 428.76 -4.32792 433.439 M-9.29317 433.439 Q-9.29317 425.8 -4.32792 421.439 Q0.637332 417.079 9.42201 417.079 Q18.1749 417.079 23.1719 421.439 Q28.1372 425.8 28.1372 433.439 Q28.1372 441.109 23.1719 445.47 Q18.1749 449.799 9.42201 449.799 Q0.637332 449.799 -4.32792 445.47 Q-9.29317 441.109 -9.29317 433.439 Z" fill="#000000" fill-rule="nonzero" fill-opacity="1" /><path clip-path="url(#clip850)" d="M5.69807 377.739 L27.2142 377.739 L27.2142 383.595 L5.88904 383.595 Q0.828303 383.595 -1.68615 385.569 Q-4.2006 387.542 -4.2006 391.489 Q-4.2006 396.231 -1.17689 398.968 Q1.84682 401.706 7.0667 401.706 L27.2142 401.706 L27.2142 407.594 L-8.4338 407.594 L-8.4338 401.706 L-2.89563 401.706 Q-6.11032 399.605 -7.70174 396.772 Q-9.29317 393.908 -9.29317 390.184 Q-9.29317 384.041 -5.47375 380.89 Q-1.68615 377.739 5.69807 377.739 Z" fill="#000000" fill-rule="nonzero" fill-opacity="1" /><path clip-path="url(#clip850)" d="M-7.06517 319.684 L-1.59067 319.684 Q-2.95929 322.166 -3.62769 324.681 Q-4.32792 327.163 -4.32792 329.71 Q-4.32792 335.407 -0.699466 338.558 Q2.89716 341.709 9.42201 341.709 Q15.9469 341.709 19.5753 338.558 Q23.1719 335.407 23.1719 329.71 Q23.1719 327.163 22.5035 324.681 Q21.8033 322.166 20.4347 319.684 L25.8455 319.684 Q26.9914 322.134 27.5643 324.776 Q28.1372 327.386 28.1372 330.346 Q28.1372 338.399 23.0764 343.141 Q18.0157 347.884 9.42201 347.884 Q0.700989 347.884 -4.29609 343.109 Q-9.29317 338.303 -9.29317 329.964 Q-9.29317 327.259 -8.72026 324.681 Q-8.17917 322.103 -7.06517 319.684 Z" fill="#000000" fill-rule="nonzero" fill-opacity="1" /><polyline clip-path="url(#clip852)" style="stroke:#009af9; stroke-linecap:round; stroke-linejoin:round; stroke-width:4; stroke-opacity:1; fill:none" points="230.407,1034.34 243.227,1022.07 256.047,1010.68 268.867,999.966 281.687,989.667 294.507,979.666 307.328,969.837 320.148,960.112 332.968,950.452 345.788,940.837 358.608,931.251 371.428,921.686 384.248,912.137 397.068,902.6 409.889,893.071 422.709,883.549 435.529,874.032 448.349,864.519 461.169,855.01 473.989,845.504 486.809,835.999 499.629,826.497 512.45,816.996 525.27,807.497 538.09,797.999 550.91,788.501 563.73,779.005 576.55,769.509 589.37,760.014 602.19,750.519 615.011,741.025 627.831,731.531 640.651,722.038 653.471,712.545 666.291,703.052 679.111,693.559 691.931,684.067 704.751,674.575 717.572,665.083 730.392,655.592 743.212,646.1 756.032,636.609 768.852,627.117 781.672,617.626 794.492,608.135 807.312,598.644 820.133,589.153 832.953,579.662 845.773,570.171 858.593,560.68 871.413,551.189 884.233,541.698 897.053,532.207 909.873,522.716 922.694,513.225 935.514,503.734 948.334,494.243 961.154,484.751 973.974,475.259 986.794,465.768 999.614,456.275 1012.43,446.783 1025.25,437.29 1038.07,427.796 1050.89,418.302 1063.71,408.808 1076.54,399.312 1089.36,389.816 1102.18,380.319 1115,370.82 1127.82,361.321 1140.64,351.819 1153.46,342.317 1166.28,332.812 1179.1,323.304 1191.92,313.795 1204.74,304.282 1217.56,294.766 1230.38,285.247 1243.2,275.723 1256.02,266.195 1268.84,256.661 1281.66,247.122 1294.48,237.576 1307.3,228.022 1320.12,218.46 1332.94,208.889 1345.76,199.307 1358.58,189.714 1371.4,180.108 1384.22,170.487 1397.04,160.851 1409.86,151.196 1422.68,141.521 1435.5,131.824 1448.32,122.102 1461.14,112.352 1473.96,102.572 1486.78,92.7572 1499.6,82.9045 "/>
<polyline clip-path="url(#clip852)" style="stroke:#e26f46; stroke-linecap:round; stroke-linejoin:round; stroke-width:4; stroke-opacity:1; fill:none" points="230.407,1023.3 243.227,1014.1 256.047,1004.9 268.867,995.687 281.687,985.584 294.507,975.733 307.328,966.022 320.148,956.388 332.968,946.799 345.788,937.239 358.608,927.698 371.428,918.17 384.248,908.651 397.068,899.139 409.889,889.633 422.709,880.13 435.529,870.629 448.349,861.131 461.169,851.635 473.989,842.14 486.809,832.647 499.629,823.154 512.45,813.662 525.27,804.17 538.09,794.679 550.91,785.188 563.73,775.698 576.55,766.208 589.37,756.718 602.19,747.228 615.011,737.738 627.831,728.249 640.651,718.76 653.471,709.27 666.291,699.781 679.111,690.292 691.931,680.803 704.751,671.314 717.572,661.825 730.392,652.336 743.212,642.847 756.032,633.358 768.852,623.869 781.672,614.38 794.492,604.891 807.312,595.402 820.133,585.913 832.953,576.423 845.773,566.934 858.593,557.445 871.413,547.956 884.233,538.466 897.053,528.977 909.873,519.487 922.694,509.998 935.514,500.508 948.334,491.018 961.154,481.528 973.974,472.037 986.794,462.546 999.614,453.055 1012.43,443.563 1025.25,434.071 1038.07,424.579 1050.89,415.086 1063.71,405.592 1076.54,396.097 1089.36,386.601 1102.18,377.104 1115,367.606 1127.82,358.107 1140.64,348.606 1153.46,339.103 1166.28,329.598 1179.1,320.09 1191.92,310.58 1204.74,301.067 1217.56,291.551 1230.38,282.03 1243.2,272.505 1256.02,262.975 1268.84,253.44 1281.66,243.898 1294.48,234.349 1307.3,224.792 1320.12,215.226 1332.94,205.65 1345.76,196.063 1358.58,186.464 1371.4,176.851 1384.22,167.222 1397.04,157.575 1409.86,147.909 1422.68,138.222 1435.5,128.51 1448.32,118.771 1461.14,109.001 1473.96,99.198 1486.78,89.3571 1499.6,79.474 "/>
<polyline clip-path="url(#clip852)" style="stroke:#3da44d; stroke-linecap:round; stroke-linejoin:round; stroke-width:4; stroke-opacity:1; fill:none" points="230.407,1014.14 243.227,1003.07 256.047,993.864 268.867,985.201 281.687,976.647 294.507,968.148 307.328,959.685 320.148,951.253 332.968,942.838 345.788,933.695 358.608,924.175 371.428,914.67 384.248,905.173 397.068,895.681 409.889,886.191 422.709,876.703 435.529,867.216 448.349,857.73 461.169,848.244 473.989,838.759 486.809,829.274 499.629,819.789 512.45,810.304 525.27,800.819 538.09,791.334 550.91,781.849 563.73,772.364 576.55,762.878 589.37,753.393 602.19,743.908 615.011,734.422 627.831,724.936 640.651,715.45 653.471,705.964 666.291,696.478 679.111,686.992 691.931,677.506 704.751,668.019 717.572,658.533 730.392,649.046 743.212,639.559 756.032,630.072 768.852,620.585 781.672,611.098 794.492,601.611 807.312,592.124 820.133,582.636 832.953,573.149 845.773,563.661 858.593,554.174 871.413,544.686 884.233,535.198 897.053,525.71 909.873,516.221 922.694,506.733 935.514,497.244 948.334,487.755 961.154,478.266 973.974,468.776 986.794,459.287 999.614,449.796 1012.43,440.305 1025.25,430.814 1038.07,421.322 1050.89,411.83 1063.71,402.336 1076.54,392.842 1089.36,383.347 1102.18,373.85 1115,364.353 1127.82,354.853 1140.64,345.352 1153.46,335.849 1166.28,326.344 1179.1,316.836 1191.92,307.326 1204.74,297.812 1217.56,288.294 1230.38,278.772 1243.2,269.246 1256.02,259.714 1268.84,250.176 1281.66,240.632 1294.48,231.08 1307.3,221.519 1320.12,211.949 1332.94,202.369 1345.76,192.776 1358.58,183.17 1371.4,173.549 1384.22,163.912 1397.04,154.255 1409.86,144.577 1422.68,134.876 1435.5,125.149 1448.32,115.392 1461.14,105.603 1473.96,95.7763 1486.78,85.9085 1499.6,75.9944 "/>
<path clip-path="url(#clip850)" d="M237.176 288.466 L570.436 288.466 L570.436 81.1056 L237.176 81.1056  Z" fill="#ffffff" fill-rule="evenodd" fill-opacity="1"/>
<polyline clip-path="url(#clip850)" style="stroke:#000000; stroke-linecap:round; stroke-linejoin:round; stroke-width:4; stroke-opacity:1; fill:none" points="237.176,288.466 570.436,288.466 570.436,81.1056 237.176,81.1056 237.176,288.466 "/>
<polyline clip-path="url(#clip850)" style="stroke:#009af9; stroke-linecap:round; stroke-linejoin:round; stroke-width:4; stroke-opacity:1; fill:none" points="252.124,132.946 341.814,132.946 "/>
<path clip-path="url(#clip850)" d="M370.604 152.633 Q368.799 157.263 367.086 158.675 Q365.373 160.087 362.503 160.087 L359.1 160.087 L359.1 156.522 L361.6 156.522 Q363.359 156.522 364.331 155.689 Q365.304 154.855 366.484 151.753 L367.248 149.809 L356.762 124.3 L361.276 124.3 L369.378 144.578 L377.479 124.3 L381.993 124.3 L370.604 152.633 Z" fill="#000000" fill-rule="nonzero" fill-opacity="1" /><path clip-path="url(#clip850)" d="M403.498 128.698 L433.174 128.698 L433.174 132.587 L403.498 132.587 L403.498 128.698 M403.498 138.142 L433.174 138.142 L433.174 142.078 L403.498 142.078 L403.498 138.142 Z" fill="#000000" fill-rule="nonzero" fill-opacity="1" /><path clip-path="url(#clip850)" d="M468.335 118.744 Q464.724 118.744 462.896 122.309 Q461.09 125.851 461.09 132.98 Q461.09 140.087 462.896 143.652 Q464.724 147.193 468.335 147.193 Q471.97 147.193 473.775 143.652 Q475.604 140.087 475.604 132.98 Q475.604 125.851 473.775 122.309 Q471.97 118.744 468.335 118.744 M468.335 115.041 Q474.146 115.041 477.201 119.647 Q480.28 124.23 480.28 132.98 Q480.28 141.707 477.201 146.314 Q474.146 150.897 468.335 150.897 Q462.525 150.897 459.447 146.314 Q456.391 141.707 456.391 132.98 Q456.391 124.23 459.447 119.647 Q462.525 115.041 468.335 115.041 Z" fill="#000000" fill-rule="nonzero" fill-opacity="1" /><path clip-path="url(#clip850)" d="M488.497 144.346 L493.382 144.346 L493.382 150.226 L488.497 150.226 L488.497 144.346 Z" fill="#000000" fill-rule="nonzero" fill-opacity="1" /><path clip-path="url(#clip850)" d="M503.613 115.666 L521.969 115.666 L521.969 119.601 L507.895 119.601 L507.895 128.073 Q508.914 127.726 509.932 127.564 Q510.951 127.379 511.969 127.379 Q517.756 127.379 521.136 130.55 Q524.516 133.721 524.516 139.138 Q524.516 144.716 521.043 147.818 Q517.571 150.897 511.252 150.897 Q509.076 150.897 506.807 150.527 Q504.562 150.156 502.155 149.415 L502.155 144.716 Q504.238 145.851 506.46 146.406 Q508.682 146.962 511.159 146.962 Q515.164 146.962 517.502 144.855 Q519.84 142.749 519.84 139.138 Q519.84 135.527 517.502 133.42 Q515.164 131.314 511.159 131.314 Q509.284 131.314 507.409 131.73 Q505.557 132.147 503.613 133.027 L503.613 115.666 Z" fill="#000000" fill-rule="nonzero" fill-opacity="1" /><path clip-path="url(#clip850)" d="M533.867 149.508 L533.867 145.249 Q535.627 146.082 537.432 146.522 Q539.238 146.962 540.974 146.962 Q545.603 146.962 548.034 143.86 Q550.488 140.735 550.835 134.392 Q549.492 136.383 547.432 137.448 Q545.372 138.513 542.872 138.513 Q537.687 138.513 534.654 135.388 Q531.645 132.24 531.645 126.8 Q531.645 121.476 534.793 118.258 Q537.941 115.041 543.173 115.041 Q549.168 115.041 552.316 119.647 Q555.488 124.23 555.488 132.98 Q555.488 141.152 551.599 146.036 Q547.733 150.897 541.182 150.897 Q539.423 150.897 537.617 150.55 Q535.812 150.202 533.867 149.508 M543.173 134.855 Q546.321 134.855 548.15 132.703 Q550.002 130.55 550.002 126.8 Q550.002 123.073 548.15 120.92 Q546.321 118.744 543.173 118.744 Q540.025 118.744 538.173 120.92 Q536.344 123.073 536.344 126.8 Q536.344 130.55 538.173 132.703 Q540.025 134.855 543.173 134.855 Z" fill="#000000" fill-rule="nonzero" fill-opacity="1" /><polyline clip-path="url(#clip850)" style="stroke:#e26f46; stroke-linecap:round; stroke-linejoin:round; stroke-width:4; stroke-opacity:1; fill:none" points="252.124,184.786 341.814,184.786 "/>
<path clip-path="url(#clip850)" d="M370.604 204.473 Q368.799 209.103 367.086 210.515 Q365.373 211.927 362.503 211.927 L359.1 211.927 L359.1 208.362 L361.6 208.362 Q363.359 208.362 364.331 207.529 Q365.304 206.695 366.484 203.593 L367.248 201.649 L356.762 176.14 L361.276 176.14 L369.378 196.418 L377.479 176.14 L381.993 176.14 L370.604 204.473 Z" fill="#000000" fill-rule="nonzero" fill-opacity="1" /><path clip-path="url(#clip850)" d="M403.498 180.538 L433.174 180.538 L433.174 184.427 L403.498 184.427 L403.498 180.538 M403.498 189.982 L433.174 189.982 L433.174 193.918 L403.498 193.918 L403.498 189.982 Z" fill="#000000" fill-rule="nonzero" fill-opacity="1" /><path clip-path="url(#clip850)" d="M459.146 198.13 L466.784 198.13 L466.784 171.765 L458.474 173.432 L458.474 169.172 L466.738 167.506 L471.414 167.506 L471.414 198.13 L479.053 198.13 L479.053 202.066 L459.146 202.066 L459.146 198.13 Z" fill="#000000" fill-rule="nonzero" fill-opacity="1" /><path clip-path="url(#clip850)" d="M488.497 196.186 L493.382 196.186 L493.382 202.066 L488.497 202.066 L488.497 196.186 Z" fill="#000000" fill-rule="nonzero" fill-opacity="1" /><path clip-path="url(#clip850)" d="M513.567 170.584 Q509.956 170.584 508.127 174.149 Q506.321 177.691 506.321 184.82 Q506.321 191.927 508.127 195.492 Q509.956 199.033 513.567 199.033 Q517.201 199.033 519.006 195.492 Q520.835 191.927 520.835 184.82 Q520.835 177.691 519.006 174.149 Q517.201 170.584 513.567 170.584 M513.567 166.881 Q519.377 166.881 522.432 171.487 Q525.511 176.07 525.511 184.82 Q525.511 193.547 522.432 198.154 Q519.377 202.737 513.567 202.737 Q507.756 202.737 504.678 198.154 Q501.622 193.547 501.622 184.82 Q501.622 176.07 504.678 171.487 Q507.756 166.881 513.567 166.881 Z" fill="#000000" fill-rule="nonzero" fill-opacity="1" /><path clip-path="url(#clip850)" d="M532.548 167.506 L554.77 167.506 L554.77 169.496 L542.224 202.066 L537.34 202.066 L549.145 171.441 L532.548 171.441 L532.548 167.506 Z" fill="#000000" fill-rule="nonzero" fill-opacity="1" /><polyline clip-path="url(#clip850)" style="stroke:#3da44d; stroke-linecap:round; stroke-linejoin:round; stroke-width:4; stroke-opacity:1; fill:none" points="252.124,236.626 341.814,236.626 "/>
<path clip-path="url(#clip850)" d="M370.604 256.313 Q368.799 260.943 367.086 262.355 Q365.373 263.767 362.503 263.767 L359.1 263.767 L359.1 260.202 L361.6 260.202 Q363.359 260.202 364.331 259.369 Q365.304 258.535 366.484 255.433 L367.248 253.489 L356.762 227.98 L361.276 227.98 L369.378 248.258 L377.479 227.98 L381.993 227.98 L370.604 256.313 Z" fill="#000000" fill-rule="nonzero" fill-opacity="1" /><path clip-path="url(#clip850)" d="M403.498 232.378 L433.174 232.378 L433.174 236.267 L403.498 236.267 L403.498 232.378 M403.498 241.822 L433.174 241.822 L433.174 245.758 L403.498 245.758 L403.498 241.822 Z" fill="#000000" fill-rule="nonzero" fill-opacity="1" /><path clip-path="url(#clip850)" d="M459.146 249.97 L466.784 249.97 L466.784 223.605 L458.474 225.272 L458.474 221.012 L466.738 219.346 L471.414 219.346 L471.414 249.97 L479.053 249.97 L479.053 253.906 L459.146 253.906 L459.146 249.97 Z" fill="#000000" fill-rule="nonzero" fill-opacity="1" /><path clip-path="url(#clip850)" d="M488.497 248.026 L493.382 248.026 L493.382 253.906 L488.497 253.906 L488.497 248.026 Z" fill="#000000" fill-rule="nonzero" fill-opacity="1" /><path clip-path="url(#clip850)" d="M503.613 219.346 L521.969 219.346 L521.969 223.281 L507.895 223.281 L507.895 231.753 Q508.914 231.406 509.932 231.244 Q510.951 231.059 511.969 231.059 Q517.756 231.059 521.136 234.23 Q524.516 237.401 524.516 242.818 Q524.516 248.396 521.043 251.498 Q517.571 254.577 511.252 254.577 Q509.076 254.577 506.807 254.207 Q504.562 253.836 502.155 253.095 L502.155 248.396 Q504.238 249.531 506.46 250.086 Q508.682 250.642 511.159 250.642 Q515.164 250.642 517.502 248.535 Q519.84 246.429 519.84 242.818 Q519.84 239.207 517.502 237.1 Q515.164 234.994 511.159 234.994 Q509.284 234.994 507.409 235.41 Q505.557 235.827 503.613 236.707 L503.613 219.346 Z" fill="#000000" fill-rule="nonzero" fill-opacity="1" /><path clip-path="url(#clip850)" d="M533.775 219.346 L552.131 219.346 L552.131 223.281 L538.057 223.281 L538.057 231.753 Q539.076 231.406 540.094 231.244 Q541.113 231.059 542.131 231.059 Q547.918 231.059 551.298 234.23 Q554.678 237.401 554.678 242.818 Q554.678 248.396 551.205 251.498 Q547.733 254.577 541.414 254.577 Q539.238 254.577 536.969 254.207 Q534.724 253.836 532.317 253.095 L532.317 248.396 Q534.4 249.531 536.622 250.086 Q538.844 250.642 541.321 250.642 Q545.326 250.642 547.664 248.535 Q550.002 246.429 550.002 242.818 Q550.002 239.207 547.664 237.1 Q545.326 234.994 541.321 234.994 Q539.446 234.994 537.571 235.41 Q535.719 235.827 533.775 236.707 L533.775 219.346 Z" fill="#000000" fill-rule="nonzero" fill-opacity="1" /><path clip-path="url(#clip850)" d="M1807.41 1063.09 L3152.76 1063.09 L3152.76 47.2441 L1807.41 47.2441  Z" fill="#ffffff" fill-rule="evenodd" fill-opacity="1"/>
<polyline clip-path="url(#clip851)" style="stroke:#000000; stroke-linecap:round; stroke-linejoin:round; stroke-width:2; stroke-opacity:0.1; fill:none" points="1845.49,1063.09 1845.49,47.2441 "/>
<polyline clip-path="url(#clip851)" style="stroke:#000000; stroke-linecap:round; stroke-linejoin:round; stroke-width:2; stroke-opacity:0.1; fill:none" points="2162.79,1063.09 2162.79,47.2441 "/>
<polyline clip-path="url(#clip851)" style="stroke:#000000; stroke-linecap:round; stroke-linejoin:round; stroke-width:2; stroke-opacity:0.1; fill:none" points="2480.08,1063.09 2480.08,47.2441 "/>
<polyline clip-path="url(#clip851)" style="stroke:#000000; stroke-linecap:round; stroke-linejoin:round; stroke-width:2; stroke-opacity:0.1; fill:none" points="2797.38,1063.09 2797.38,47.2441 "/>
<polyline clip-path="url(#clip851)" style="stroke:#000000; stroke-linecap:round; stroke-linejoin:round; stroke-width:2; stroke-opacity:0.1; fill:none" points="3114.68,1063.09 3114.68,47.2441 "/>
<polyline clip-path="url(#clip851)" style="stroke:#000000; stroke-linecap:round; stroke-linejoin:round; stroke-width:2; stroke-opacity:0.1; fill:none" points="1807.41,1034.34 3152.76,1034.34 "/>
<polyline clip-path="url(#clip851)" style="stroke:#000000; stroke-linecap:round; stroke-linejoin:round; stroke-width:2; stroke-opacity:0.1; fill:none" points="1807.41,842.67 3152.76,842.67 "/>
<polyline clip-path="url(#clip851)" style="stroke:#000000; stroke-linecap:round; stroke-linejoin:round; stroke-width:2; stroke-opacity:0.1; fill:none" points="1807.41,651.001 3152.76,651.001 "/>
<polyline clip-path="url(#clip851)" style="stroke:#000000; stroke-linecap:round; stroke-linejoin:round; stroke-width:2; stroke-opacity:0.1; fill:none" points="1807.41,459.332 3152.76,459.332 "/>
<polyline clip-path="url(#clip851)" style="stroke:#000000; stroke-linecap:round; stroke-linejoin:round; stroke-width:2; stroke-opacity:0.1; fill:none" points="1807.41,267.663 3152.76,267.663 "/>
<polyline clip-path="url(#clip851)" style="stroke:#000000; stroke-linecap:round; stroke-linejoin:round; stroke-width:2; stroke-opacity:0.1; fill:none" points="1807.41,75.9944 3152.76,75.9944 "/>
<polyline clip-path="url(#clip850)" style="stroke:#000000; stroke-linecap:round; stroke-linejoin:round; stroke-width:4; stroke-opacity:1; fill:none" points="1807.41,1063.09 3152.76,1063.09 "/>
<polyline clip-path="url(#clip850)" style="stroke:#000000; stroke-linecap:round; stroke-linejoin:round; stroke-width:4; stroke-opacity:1; fill:none" points="1845.49,1063.09 1845.49,1044.19 "/>
<polyline clip-path="url(#clip850)" style="stroke:#000000; stroke-linecap:round; stroke-linejoin:round; stroke-width:4; stroke-opacity:1; fill:none" points="2162.79,1063.09 2162.79,1044.19 "/>
<polyline clip-path="url(#clip850)" style="stroke:#000000; stroke-linecap:round; stroke-linejoin:round; stroke-width:4; stroke-opacity:1; fill:none" points="2480.08,1063.09 2480.08,1044.19 "/>
<polyline clip-path="url(#clip850)" style="stroke:#000000; stroke-linecap:round; stroke-linejoin:round; stroke-width:4; stroke-opacity:1; fill:none" points="2797.38,1063.09 2797.38,1044.19 "/>
<polyline clip-path="url(#clip850)" style="stroke:#000000; stroke-linecap:round; stroke-linejoin:round; stroke-width:4; stroke-opacity:1; fill:none" points="3114.68,1063.09 3114.68,1044.19 "/>
<path clip-path="url(#clip850)" d="M1845.49 1100.41 Q1841.88 1100.41 1840.05 1103.97 Q1838.24 1107.51 1838.24 1114.64 Q1838.24 1121.75 1840.05 1125.32 Q1841.88 1128.86 1845.49 1128.86 Q1849.12 1128.86 1850.93 1125.32 Q1852.76 1121.75 1852.76 1114.64 Q1852.76 1107.51 1850.93 1103.97 Q1849.12 1100.41 1845.49 1100.41 M1845.49 1096.7 Q1851.3 1096.7 1854.35 1101.31 Q1857.43 1105.89 1857.43 1114.64 Q1857.43 1123.37 1854.35 1127.98 Q1851.3 1132.56 1845.49 1132.56 Q1839.68 1132.56 1836.6 1127.98 Q1833.54 1123.37 1833.54 1114.64 Q1833.54 1105.89 1836.6 1101.31 Q1839.68 1096.7 1845.49 1096.7 Z" fill="#000000" fill-rule="nonzero" fill-opacity="1" /><path clip-path="url(#clip850)" d="M2126.48 1127.95 L2142.8 1127.95 L2142.8 1131.89 L2120.85 1131.89 L2120.85 1127.95 Q2123.52 1125.2 2128.1 1120.57 Q2132.7 1115.92 2133.89 1114.58 Q2136.13 1112.05 2137.01 1110.32 Q2137.91 1108.56 2137.91 1106.87 Q2137.91 1104.11 2135.97 1102.38 Q2134.05 1100.64 2130.95 1100.64 Q2128.75 1100.64 2126.29 1101.4 Q2123.86 1102.17 2121.08 1103.72 L2121.08 1099 Q2123.91 1097.86 2126.36 1097.28 Q2128.82 1096.7 2130.85 1096.7 Q2136.22 1096.7 2139.42 1099.39 Q2142.61 1102.08 2142.61 1106.57 Q2142.61 1108.7 2141.8 1110.62 Q2141.02 1112.51 2138.91 1115.11 Q2138.33 1115.78 2135.23 1119 Q2132.13 1122.19 2126.48 1127.95 Z" fill="#000000" fill-rule="nonzero" fill-opacity="1" /><path clip-path="url(#clip850)" d="M2152.66 1097.33 L2171.01 1097.33 L2171.01 1101.27 L2156.94 1101.27 L2156.94 1109.74 Q2157.96 1109.39 2158.98 1109.23 Q2160 1109.04 2161.01 1109.04 Q2166.8 1109.04 2170.18 1112.21 Q2173.56 1115.39 2173.56 1120.8 Q2173.56 1126.38 2170.09 1129.48 Q2166.62 1132.56 2160.3 1132.56 Q2158.12 1132.56 2155.85 1132.19 Q2153.61 1131.82 2151.2 1131.08 L2151.2 1126.38 Q2153.28 1127.51 2155.51 1128.07 Q2157.73 1128.63 2160.2 1128.63 Q2164.21 1128.63 2166.55 1126.52 Q2168.89 1124.41 2168.89 1120.8 Q2168.89 1117.19 2166.55 1115.08 Q2164.21 1112.98 2160.2 1112.98 Q2158.33 1112.98 2156.45 1113.39 Q2154.6 1113.81 2152.66 1114.69 L2152.66 1097.33 Z" fill="#000000" fill-rule="nonzero" fill-opacity="1" /><path clip-path="url(#clip850)" d="M2192.77 1100.41 Q2189.16 1100.41 2187.33 1103.97 Q2185.53 1107.51 2185.53 1114.64 Q2185.53 1121.75 2187.33 1125.32 Q2189.16 1128.86 2192.77 1128.86 Q2196.41 1128.86 2198.21 1125.32 Q2200.04 1121.75 2200.04 1114.64 Q2200.04 1107.51 2198.21 1103.97 Q2196.41 1100.41 2192.77 1100.41 M2192.77 1096.7 Q2198.58 1096.7 2201.64 1101.31 Q2204.72 1105.89 2204.72 1114.64 Q2204.72 1123.37 2201.64 1127.98 Q2198.58 1132.56 2192.77 1132.56 Q2186.96 1132.56 2183.89 1127.98 Q2180.83 1123.37 2180.83 1114.64 Q2180.83 1105.89 2183.89 1101.31 Q2186.96 1096.7 2192.77 1096.7 Z" fill="#000000" fill-rule="nonzero" fill-opacity="1" /><path clip-path="url(#clip850)" d="M2439.7 1097.33 L2458.06 1097.33 L2458.06 1101.27 L2443.98 1101.27 L2443.98 1109.74 Q2445 1109.39 2446.02 1109.23 Q2447.04 1109.04 2448.06 1109.04 Q2453.85 1109.04 2457.23 1112.21 Q2460.6 1115.39 2460.6 1120.8 Q2460.6 1126.38 2457.13 1129.48 Q2453.66 1132.56 2447.34 1132.56 Q2445.17 1132.56 2442.9 1132.19 Q2440.65 1131.82 2438.24 1131.08 L2438.24 1126.38 Q2440.33 1127.51 2442.55 1128.07 Q2444.77 1128.63 2447.25 1128.63 Q2451.25 1128.63 2453.59 1126.52 Q2455.93 1124.41 2455.93 1120.8 Q2455.93 1117.19 2453.59 1115.08 Q2451.25 1112.98 2447.25 1112.98 Q2445.37 1112.98 2443.5 1113.39 Q2441.65 1113.81 2439.7 1114.69 L2439.7 1097.33 Z" fill="#000000" fill-rule="nonzero" fill-opacity="1" /><path clip-path="url(#clip850)" d="M2479.82 1100.41 Q2476.21 1100.41 2474.38 1103.97 Q2472.57 1107.51 2472.57 1114.64 Q2472.57 1121.75 2474.38 1125.32 Q2476.21 1128.86 2479.82 1128.86 Q2483.45 1128.86 2485.26 1125.32 Q2487.09 1121.75 2487.09 1114.64 Q2487.09 1107.51 2485.26 1103.97 Q2483.45 1100.41 2479.82 1100.41 M2479.82 1096.7 Q2485.63 1096.7 2488.68 1101.31 Q2491.76 1105.89 2491.76 1114.64 Q2491.76 1123.37 2488.68 1127.98 Q2485.63 1132.56 2479.82 1132.56 Q2474.01 1132.56 2470.93 1127.98 Q2467.87 1123.37 2467.87 1114.64 Q2467.87 1105.89 2470.93 1101.31 Q2474.01 1096.7 2479.82 1096.7 Z" fill="#000000" fill-rule="nonzero" fill-opacity="1" /><path clip-path="url(#clip850)" d="M2509.98 1100.41 Q2506.37 1100.41 2504.54 1103.97 Q2502.73 1107.51 2502.73 1114.64 Q2502.73 1121.75 2504.54 1125.32 Q2506.37 1128.86 2509.98 1128.86 Q2513.61 1128.86 2515.42 1125.32 Q2517.25 1121.75 2517.25 1114.64 Q2517.25 1107.51 2515.42 1103.97 Q2513.61 1100.41 2509.98 1100.41 M2509.98 1096.7 Q2515.79 1096.7 2518.85 1101.31 Q2521.92 1105.89 2521.92 1114.64 Q2521.92 1123.37 2518.85 1127.98 Q2515.79 1132.56 2509.98 1132.56 Q2504.17 1132.56 2501.09 1127.98 Q2498.04 1123.37 2498.04 1114.64 Q2498.04 1105.89 2501.09 1101.31 Q2504.17 1096.7 2509.98 1096.7 Z" fill="#000000" fill-rule="nonzero" fill-opacity="1" /><path clip-path="url(#clip850)" d="M2755.66 1097.33 L2777.88 1097.33 L2777.88 1099.32 L2765.33 1131.89 L2760.45 1131.89 L2772.25 1101.27 L2755.66 1101.27 L2755.66 1097.33 Z" fill="#000000" fill-rule="nonzero" fill-opacity="1" /><path clip-path="url(#clip850)" d="M2787.05 1097.33 L2805.4 1097.33 L2805.4 1101.27 L2791.33 1101.27 L2791.33 1109.74 Q2792.35 1109.39 2793.37 1109.23 Q2794.38 1109.04 2795.4 1109.04 Q2801.19 1109.04 2804.57 1112.21 Q2807.95 1115.39 2807.95 1120.8 Q2807.95 1126.38 2804.48 1129.48 Q2801 1132.56 2794.69 1132.56 Q2792.51 1132.56 2790.24 1132.19 Q2788 1131.82 2785.59 1131.08 L2785.59 1126.38 Q2787.67 1127.51 2789.89 1128.07 Q2792.12 1128.63 2794.59 1128.63 Q2798.6 1128.63 2800.94 1126.52 Q2803.27 1124.41 2803.27 1120.8 Q2803.27 1117.19 2800.94 1115.08 Q2798.6 1112.98 2794.59 1112.98 Q2792.72 1112.98 2790.84 1113.39 Q2788.99 1113.81 2787.05 1114.69 L2787.05 1097.33 Z" fill="#000000" fill-rule="nonzero" fill-opacity="1" /><path clip-path="url(#clip850)" d="M2827.16 1100.41 Q2823.55 1100.41 2821.72 1103.97 Q2819.92 1107.51 2819.92 1114.64 Q2819.92 1121.75 2821.72 1125.32 Q2823.55 1128.86 2827.16 1128.86 Q2830.8 1128.86 2832.6 1125.32 Q2834.43 1121.75 2834.43 1114.64 Q2834.43 1107.51 2832.6 1103.97 Q2830.8 1100.41 2827.16 1100.41 M2827.16 1096.7 Q2832.97 1096.7 2836.03 1101.31 Q2839.11 1105.89 2839.11 1114.64 Q2839.11 1123.37 2836.03 1127.98 Q2832.97 1132.56 2827.16 1132.56 Q2821.35 1132.56 2818.27 1127.98 Q2815.22 1123.37 2815.22 1114.64 Q2815.22 1105.89 2818.27 1101.31 Q2821.35 1096.7 2827.16 1096.7 Z" fill="#000000" fill-rule="nonzero" fill-opacity="1" /><path clip-path="url(#clip850)" d="M3059.21 1127.95 L3066.84 1127.95 L3066.84 1101.59 L3058.53 1103.26 L3058.53 1099 L3066.8 1097.33 L3071.47 1097.33 L3071.47 1127.95 L3079.11 1127.95 L3079.11 1131.89 L3059.21 1131.89 L3059.21 1127.95 Z" fill="#000000" fill-rule="nonzero" fill-opacity="1" /><path clip-path="url(#clip850)" d="M3098.56 1100.41 Q3094.95 1100.41 3093.12 1103.97 Q3091.31 1107.51 3091.31 1114.64 Q3091.31 1121.75 3093.12 1125.32 Q3094.95 1128.86 3098.56 1128.86 Q3102.19 1128.86 3104 1125.32 Q3105.83 1121.75 3105.83 1114.64 Q3105.83 1107.51 3104 1103.97 Q3102.19 1100.41 3098.56 1100.41 M3098.56 1096.7 Q3104.37 1096.7 3107.42 1101.31 Q3110.5 1105.89 3110.5 1114.64 Q3110.5 1123.37 3107.42 1127.98 Q3104.37 1132.56 3098.56 1132.56 Q3092.75 1132.56 3089.67 1127.98 Q3086.61 1123.37 3086.61 1114.64 Q3086.61 1105.89 3089.67 1101.31 Q3092.75 1096.7 3098.56 1096.7 Z" fill="#000000" fill-rule="nonzero" fill-opacity="1" /><path clip-path="url(#clip850)" d="M3128.72 1100.41 Q3125.11 1100.41 3123.28 1103.97 Q3121.47 1107.51 3121.47 1114.64 Q3121.47 1121.75 3123.28 1125.32 Q3125.11 1128.86 3128.72 1128.86 Q3132.35 1128.86 3134.16 1125.32 Q3135.99 1121.75 3135.99 1114.64 Q3135.99 1107.51 3134.16 1103.97 Q3132.35 1100.41 3128.72 1100.41 M3128.72 1096.7 Q3134.53 1096.7 3137.59 1101.31 Q3140.66 1105.89 3140.66 1114.64 Q3140.66 1123.37 3137.59 1127.98 Q3134.53 1132.56 3128.72 1132.56 Q3122.91 1132.56 3119.83 1127.98 Q3116.78 1123.37 3116.78 1114.64 Q3116.78 1105.89 3119.83 1101.31 Q3122.91 1096.7 3128.72 1096.7 Z" fill="#000000" fill-rule="nonzero" fill-opacity="1" /><path clip-path="url(#clip850)" d="M3158.88 1100.41 Q3155.27 1100.41 3153.44 1103.97 Q3151.64 1107.51 3151.64 1114.64 Q3151.64 1121.75 3153.44 1125.32 Q3155.27 1128.86 3158.88 1128.86 Q3162.52 1128.86 3164.32 1125.32 Q3166.15 1121.75 3166.15 1114.64 Q3166.15 1107.51 3164.32 1103.97 Q3162.52 1100.41 3158.88 1100.41 M3158.88 1096.7 Q3164.69 1096.7 3167.75 1101.31 Q3170.83 1105.89 3170.83 1114.64 Q3170.83 1123.37 3167.75 1127.98 Q3164.69 1132.56 3158.88 1132.56 Q3153.07 1132.56 3149.99 1127.98 Q3146.94 1123.37 3146.94 1114.64 Q3146.94 1105.89 3149.99 1101.31 Q3153.07 1096.7 3158.88 1096.7 Z" fill="#000000" fill-rule="nonzero" fill-opacity="1" /><path clip-path="url(#clip850)" d="M2344.91 1184.31 L2350.76 1184.31 L2358.09 1212.12 L2365.37 1184.31 L2372.28 1184.31 L2379.6 1212.12 L2386.89 1184.31 L2392.75 1184.31 L2383.42 1219.95 L2376.51 1219.95 L2368.84 1190.74 L2361.14 1219.95 L2354.23 1219.95 L2344.91 1184.31 Z" fill="#000000" fill-rule="nonzero" fill-opacity="1" /><path clip-path="url(#clip850)" d="M2432.12 1200.67 L2432.12 1203.53 L2405.19 1203.53 Q2405.57 1209.58 2408.82 1212.76 Q2412.1 1215.91 2417.92 1215.91 Q2421.3 1215.91 2424.45 1215.08 Q2427.63 1214.26 2430.75 1212.6 L2430.75 1218.14 Q2427.6 1219.48 2424.29 1220.18 Q2420.98 1220.88 2417.57 1220.88 Q2409.04 1220.88 2404.05 1215.91 Q2399.08 1210.95 2399.08 1202.48 Q2399.08 1193.73 2403.79 1188.6 Q2408.53 1183.45 2416.55 1183.45 Q2423.75 1183.45 2427.92 1188.09 Q2432.12 1192.71 2432.12 1200.67 M2426.26 1198.95 Q2426.2 1194.14 2423.56 1191.28 Q2420.95 1188.41 2416.62 1188.41 Q2411.72 1188.41 2408.76 1191.18 Q2405.83 1193.95 2405.38 1198.98 L2426.26 1198.95 Z" fill="#000000" fill-rule="nonzero" fill-opacity="1" /><path clip-path="url(#clip850)" d="M2457.93 1202.03 Q2450.83 1202.03 2448.1 1203.66 Q2445.36 1205.28 2445.36 1209.2 Q2445.36 1212.31 2447.4 1214.16 Q2449.46 1215.98 2453 1215.98 Q2457.87 1215.98 2460.8 1212.54 Q2463.76 1209.07 2463.76 1203.34 L2463.76 1202.03 L2457.93 1202.03 M2469.61 1199.62 L2469.61 1219.95 L2463.76 1219.95 L2463.76 1214.54 Q2461.75 1217.79 2458.76 1219.35 Q2455.77 1220.88 2451.44 1220.88 Q2445.96 1220.88 2442.72 1217.82 Q2439.5 1214.73 2439.5 1209.58 Q2439.5 1203.56 2443.51 1200.51 Q2447.56 1197.45 2455.54 1197.45 L2463.76 1197.45 L2463.76 1196.88 Q2463.76 1192.84 2461.08 1190.64 Q2458.44 1188.41 2453.63 1188.41 Q2450.58 1188.41 2447.68 1189.14 Q2444.79 1189.88 2442.11 1191.34 L2442.11 1185.93 Q2445.33 1184.69 2448.35 1184.08 Q2451.37 1183.45 2454.24 1183.45 Q2461.97 1183.45 2465.79 1187.46 Q2469.61 1191.47 2469.61 1199.62 Z" fill="#000000" fill-rule="nonzero" fill-opacity="1" /><path clip-path="url(#clip850)" d="M2481.68 1170.43 L2487.53 1170.43 L2487.53 1219.95 L2481.68 1219.95 L2481.68 1170.43 Z" fill="#000000" fill-rule="nonzero" fill-opacity="1" /><path clip-path="url(#clip850)" d="M2505.58 1174.18 L2505.58 1184.31 L2517.64 1184.31 L2517.64 1188.86 L2505.58 1188.86 L2505.58 1208.21 Q2505.58 1212.57 2506.76 1213.81 Q2507.97 1215.05 2511.63 1215.05 L2517.64 1215.05 L2517.64 1219.95 L2511.63 1219.95 Q2504.85 1219.95 2502.27 1217.44 Q2499.69 1214.89 2499.69 1208.21 L2499.69 1188.86 L2495.39 1188.86 L2495.39 1184.31 L2499.69 1184.31 L2499.69 1174.18 L2505.58 1174.18 Z" fill="#000000" fill-rule="nonzero" fill-opacity="1" /><path clip-path="url(#clip850)" d="M2554.98 1198.44 L2554.98 1219.95 L2549.12 1219.95 L2549.12 1198.63 Q2549.12 1193.57 2547.15 1191.05 Q2545.17 1188.54 2541.23 1188.54 Q2536.48 1188.54 2533.75 1191.56 Q2531.01 1194.59 2531.01 1199.81 L2531.01 1219.95 L2525.12 1219.95 L2525.12 1170.43 L2531.01 1170.43 L2531.01 1189.84 Q2533.11 1186.63 2535.94 1185.04 Q2538.81 1183.45 2542.53 1183.45 Q2548.67 1183.45 2551.83 1187.27 Q2554.98 1191.05 2554.98 1198.44 Z" fill="#000000" fill-rule="nonzero" fill-opacity="1" /><path clip-path="url(#clip850)" d="M2603.58 1202.03 Q2596.48 1202.03 2593.74 1203.66 Q2591.01 1205.28 2591.01 1209.2 Q2591.01 1212.31 2593.04 1214.16 Q2595.11 1215.98 2598.65 1215.98 Q2603.51 1215.98 2606.44 1212.54 Q2609.4 1209.07 2609.4 1203.34 L2609.4 1202.03 L2603.58 1202.03 M2615.26 1199.62 L2615.26 1219.95 L2609.4 1219.95 L2609.4 1214.54 Q2607.4 1217.79 2604.41 1219.35 Q2601.41 1220.88 2597.09 1220.88 Q2591.61 1220.88 2588.36 1217.82 Q2585.15 1214.73 2585.15 1209.58 Q2585.15 1203.56 2589.16 1200.51 Q2593.2 1197.45 2601.19 1197.45 L2609.4 1197.45 L2609.4 1196.88 Q2609.4 1192.84 2606.73 1190.64 Q2604.09 1188.41 2599.28 1188.41 Q2596.23 1188.41 2593.33 1189.14 Q2590.43 1189.88 2587.76 1191.34 L2587.76 1185.93 Q2590.97 1184.69 2594 1184.08 Q2597.02 1183.45 2599.89 1183.45 Q2607.62 1183.45 2611.44 1187.46 Q2615.26 1191.47 2615.26 1199.62 Z" fill="#000000" fill-rule="nonzero" fill-opacity="1" /><polyline clip-path="url(#clip850)" style="stroke:#000000; stroke-linecap:round; stroke-linejoin:round; stroke-width:4; stroke-opacity:1; fill:none" points="1807.41,1063.09 1807.41,47.2441 "/>
<polyline clip-path="url(#clip850)" style="stroke:#000000; stroke-linecap:round; stroke-linejoin:round; stroke-width:4; stroke-opacity:1; fill:none" points="1807.41,1034.34 1826.31,1034.34 "/>
<polyline clip-path="url(#clip850)" style="stroke:#000000; stroke-linecap:round; stroke-linejoin:round; stroke-width:4; stroke-opacity:1; fill:none" points="1807.41,842.67 1826.31,842.67 "/>
<polyline clip-path="url(#clip850)" style="stroke:#000000; stroke-linecap:round; stroke-linejoin:round; stroke-width:4; stroke-opacity:1; fill:none" points="1807.41,651.001 1826.31,651.001 "/>
<polyline clip-path="url(#clip850)" style="stroke:#000000; stroke-linecap:round; stroke-linejoin:round; stroke-width:4; stroke-opacity:1; fill:none" points="1807.41,459.332 1826.31,459.332 "/>
<polyline clip-path="url(#clip850)" style="stroke:#000000; stroke-linecap:round; stroke-linejoin:round; stroke-width:4; stroke-opacity:1; fill:none" points="1807.41,267.663 1826.31,267.663 "/>
<polyline clip-path="url(#clip850)" style="stroke:#000000; stroke-linecap:round; stroke-linejoin:round; stroke-width:4; stroke-opacity:1; fill:none" points="1807.41,75.9944 1826.31,75.9944 "/>
<path clip-path="url(#clip850)" d="M1747.47 1020.14 Q1743.86 1020.14 1742.03 1023.7 Q1740.22 1027.24 1740.22 1034.37 Q1740.22 1041.48 1742.03 1045.05 Q1743.86 1048.59 1747.47 1048.59 Q1751.1 1048.59 1752.91 1045.05 Q1754.74 1041.48 1754.74 1034.37 Q1754.74 1027.24 1752.91 1023.7 Q1751.1 1020.14 1747.47 1020.14 M1747.47 1016.43 Q1753.28 1016.43 1756.33 1021.04 Q1759.41 1025.62 1759.41 1034.37 Q1759.41 1043.1 1756.33 1047.71 Q1753.28 1052.29 1747.47 1052.29 Q1741.66 1052.29 1738.58 1047.71 Q1735.52 1043.1 1735.52 1034.37 Q1735.52 1025.62 1738.58 1021.04 Q1741.66 1016.43 1747.47 1016.43 Z" fill="#000000" fill-rule="nonzero" fill-opacity="1" /><path clip-path="url(#clip850)" d="M1677.95 856.015 L1685.59 856.015 L1685.59 829.65 L1677.28 831.316 L1677.28 827.057 L1685.55 825.39 L1690.22 825.39 L1690.22 856.015 L1697.86 856.015 L1697.86 859.95 L1677.95 859.95 L1677.95 856.015 Z" fill="#000000" fill-rule="nonzero" fill-opacity="1" /><path clip-path="url(#clip850)" d="M1717.31 828.469 Q1713.69 828.469 1711.87 832.034 Q1710.06 835.576 1710.06 842.705 Q1710.06 849.812 1711.87 853.376 Q1713.69 856.918 1717.31 856.918 Q1720.94 856.918 1722.75 853.376 Q1724.57 849.812 1724.57 842.705 Q1724.57 835.576 1722.75 832.034 Q1720.94 828.469 1717.31 828.469 M1717.31 824.765 Q1723.12 824.765 1726.17 829.372 Q1729.25 833.955 1729.25 842.705 Q1729.25 851.432 1726.17 856.038 Q1723.12 860.622 1717.31 860.622 Q1711.5 860.622 1708.42 856.038 Q1705.36 851.432 1705.36 842.705 Q1705.36 833.955 1708.42 829.372 Q1711.5 824.765 1717.31 824.765 Z" fill="#000000" fill-rule="nonzero" fill-opacity="1" /><path clip-path="url(#clip850)" d="M1747.47 828.469 Q1743.86 828.469 1742.03 832.034 Q1740.22 835.576 1740.22 842.705 Q1740.22 849.812 1742.03 853.376 Q1743.86 856.918 1747.47 856.918 Q1751.1 856.918 1752.91 853.376 Q1754.74 849.812 1754.74 842.705 Q1754.74 835.576 1752.91 832.034 Q1751.1 828.469 1747.47 828.469 M1747.47 824.765 Q1753.28 824.765 1756.33 829.372 Q1759.41 833.955 1759.41 842.705 Q1759.41 851.432 1756.33 856.038 Q1753.28 860.622 1747.47 860.622 Q1741.66 860.622 1738.58 856.038 Q1735.52 851.432 1735.52 842.705 Q1735.52 833.955 1738.58 829.372 Q1741.66 824.765 1747.47 824.765 Z" fill="#000000" fill-rule="nonzero" fill-opacity="1" /><path clip-path="url(#clip850)" d="M1681.17 664.346 L1697.49 664.346 L1697.49 668.281 L1675.55 668.281 L1675.55 664.346 Q1678.21 661.592 1682.79 656.962 Q1687.4 652.309 1688.58 650.967 Q1690.82 648.444 1691.7 646.708 Q1692.61 644.948 1692.61 643.258 Q1692.61 640.504 1690.66 638.768 Q1688.74 637.032 1685.64 637.032 Q1683.44 637.032 1680.99 637.796 Q1678.56 638.559 1675.78 640.11 L1675.78 635.388 Q1678.6 634.254 1681.06 633.675 Q1683.51 633.096 1685.55 633.096 Q1690.92 633.096 1694.11 635.782 Q1697.31 638.467 1697.31 642.958 Q1697.31 645.087 1696.5 647.008 Q1695.71 648.907 1693.6 651.499 Q1693.02 652.17 1689.92 655.388 Q1686.82 658.582 1681.17 664.346 Z" fill="#000000" fill-rule="nonzero" fill-opacity="1" /><path clip-path="url(#clip850)" d="M1717.31 636.8 Q1713.69 636.8 1711.87 640.365 Q1710.06 643.907 1710.06 651.036 Q1710.06 658.143 1711.87 661.707 Q1713.69 665.249 1717.31 665.249 Q1720.94 665.249 1722.75 661.707 Q1724.57 658.143 1724.57 651.036 Q1724.57 643.907 1722.75 640.365 Q1720.94 636.8 1717.31 636.8 M1717.31 633.096 Q1723.12 633.096 1726.17 637.703 Q1729.25 642.286 1729.25 651.036 Q1729.25 659.763 1726.17 664.369 Q1723.12 668.953 1717.31 668.953 Q1711.5 668.953 1708.42 664.369 Q1705.36 659.763 1705.36 651.036 Q1705.36 642.286 1708.42 637.703 Q1711.5 633.096 1717.31 633.096 Z" fill="#000000" fill-rule="nonzero" fill-opacity="1" /><path clip-path="url(#clip850)" d="M1747.47 636.8 Q1743.86 636.8 1742.03 640.365 Q1740.22 643.907 1740.22 651.036 Q1740.22 658.143 1742.03 661.707 Q1743.86 665.249 1747.47 665.249 Q1751.1 665.249 1752.91 661.707 Q1754.74 658.143 1754.74 651.036 Q1754.74 643.907 1752.91 640.365 Q1751.1 636.8 1747.47 636.8 M1747.47 633.096 Q1753.28 633.096 1756.33 637.703 Q1759.41 642.286 1759.41 651.036 Q1759.41 659.763 1756.33 664.369 Q1753.28 668.953 1747.47 668.953 Q1741.66 668.953 1738.58 664.369 Q1735.52 659.763 1735.52 651.036 Q1735.52 642.286 1738.58 637.703 Q1741.66 633.096 1747.47 633.096 Z" fill="#000000" fill-rule="nonzero" fill-opacity="1" /><path clip-path="url(#clip850)" d="M1691.31 457.978 Q1694.67 458.696 1696.54 460.964 Q1698.44 463.233 1698.44 466.566 Q1698.44 471.682 1694.92 474.483 Q1691.4 477.284 1684.92 477.284 Q1682.75 477.284 1680.43 476.844 Q1678.14 476.427 1675.69 475.571 L1675.69 471.057 Q1677.63 472.191 1679.94 472.77 Q1682.26 473.349 1684.78 473.349 Q1689.18 473.349 1691.47 471.612 Q1693.79 469.876 1693.79 466.566 Q1693.79 463.511 1691.63 461.798 Q1689.5 460.062 1685.69 460.062 L1681.66 460.062 L1681.66 456.219 L1685.87 456.219 Q1689.32 456.219 1691.15 454.853 Q1692.98 453.464 1692.98 450.872 Q1692.98 448.21 1691.08 446.798 Q1689.2 445.363 1685.69 445.363 Q1683.76 445.363 1681.57 445.779 Q1679.37 446.196 1676.73 447.076 L1676.73 442.909 Q1679.39 442.168 1681.7 441.798 Q1684.04 441.427 1686.1 441.427 Q1691.43 441.427 1694.53 443.858 Q1697.63 446.265 1697.63 450.386 Q1697.63 453.256 1695.99 455.247 Q1694.34 457.214 1691.31 457.978 Z" fill="#000000" fill-rule="nonzero" fill-opacity="1" /><path clip-path="url(#clip850)" d="M1717.31 445.131 Q1713.69 445.131 1711.87 448.696 Q1710.06 452.238 1710.06 459.367 Q1710.06 466.474 1711.87 470.038 Q1713.69 473.58 1717.31 473.58 Q1720.94 473.58 1722.75 470.038 Q1724.57 466.474 1724.57 459.367 Q1724.57 452.238 1722.75 448.696 Q1720.94 445.131 1717.31 445.131 M1717.31 441.427 Q1723.12 441.427 1726.17 446.034 Q1729.25 450.617 1729.25 459.367 Q1729.25 468.094 1726.17 472.7 Q1723.12 477.284 1717.31 477.284 Q1711.5 477.284 1708.42 472.7 Q1705.36 468.094 1705.36 459.367 Q1705.36 450.617 1708.42 446.034 Q1711.5 441.427 1717.31 441.427 Z" fill="#000000" fill-rule="nonzero" fill-opacity="1" /><path clip-path="url(#clip850)" d="M1747.47 445.131 Q1743.86 445.131 1742.03 448.696 Q1740.22 452.238 1740.22 459.367 Q1740.22 466.474 1742.03 470.038 Q1743.86 473.58 1747.47 473.58 Q1751.1 473.58 1752.91 470.038 Q1754.74 466.474 1754.74 459.367 Q1754.74 452.238 1752.91 448.696 Q1751.1 445.131 1747.47 445.131 M1747.47 441.427 Q1753.28 441.427 1756.33 446.034 Q1759.41 450.617 1759.41 459.367 Q1759.41 468.094 1756.33 472.7 Q1753.28 477.284 1747.47 477.284 Q1741.66 477.284 1738.58 472.7 Q1735.52 468.094 1735.52 459.367 Q1735.52 450.617 1738.58 446.034 Q1741.66 441.427 1747.47 441.427 Z" fill="#000000" fill-rule="nonzero" fill-opacity="1" /><path clip-path="url(#clip850)" d="M1689.99 254.458 L1678.19 272.906 L1689.99 272.906 L1689.99 254.458 M1688.76 250.383 L1694.64 250.383 L1694.64 272.906 L1699.57 272.906 L1699.57 276.795 L1694.64 276.795 L1694.64 284.943 L1689.99 284.943 L1689.99 276.795 L1674.39 276.795 L1674.39 272.281 L1688.76 250.383 Z" fill="#000000" fill-rule="nonzero" fill-opacity="1" /><path clip-path="url(#clip850)" d="M1717.31 253.462 Q1713.69 253.462 1711.87 257.027 Q1710.06 260.569 1710.06 267.698 Q1710.06 274.805 1711.87 278.369 Q1713.69 281.911 1717.31 281.911 Q1720.94 281.911 1722.75 278.369 Q1724.57 274.805 1724.57 267.698 Q1724.57 260.569 1722.75 257.027 Q1720.94 253.462 1717.31 253.462 M1717.31 249.758 Q1723.12 249.758 1726.17 254.365 Q1729.25 258.948 1729.25 267.698 Q1729.25 276.425 1726.17 281.031 Q1723.12 285.615 1717.31 285.615 Q1711.5 285.615 1708.42 281.031 Q1705.36 276.425 1705.36 267.698 Q1705.36 258.948 1708.42 254.365 Q1711.5 249.758 1717.31 249.758 Z" fill="#000000" fill-rule="nonzero" fill-opacity="1" /><path clip-path="url(#clip850)" d="M1747.47 253.462 Q1743.86 253.462 1742.03 257.027 Q1740.22 260.569 1740.22 267.698 Q1740.22 274.805 1742.03 278.369 Q1743.86 281.911 1747.47 281.911 Q1751.1 281.911 1752.91 278.369 Q1754.74 274.805 1754.74 267.698 Q1754.74 260.569 1752.91 257.027 Q1751.1 253.462 1747.47 253.462 M1747.47 249.758 Q1753.28 249.758 1756.33 254.365 Q1759.41 258.948 1759.41 267.698 Q1759.41 276.425 1756.33 281.031 Q1753.28 285.615 1747.47 285.615 Q1741.66 285.615 1738.58 281.031 Q1735.52 276.425 1735.52 267.698 Q1735.52 258.948 1738.58 254.365 Q1741.66 249.758 1747.47 249.758 Z" fill="#000000" fill-rule="nonzero" fill-opacity="1" /><path clip-path="url(#clip850)" d="M1677.19 58.7144 L1695.55 58.7144 L1695.55 62.6496 L1681.47 62.6496 L1681.47 71.1218 Q1682.49 70.7746 1683.51 70.6125 Q1684.53 70.4273 1685.55 70.4273 Q1691.33 70.4273 1694.71 73.5986 Q1698.09 76.7699 1698.09 82.1865 Q1698.09 87.7652 1694.62 90.8671 Q1691.15 93.9457 1684.83 93.9457 Q1682.65 93.9457 1680.38 93.5754 Q1678.14 93.205 1675.73 92.4643 L1675.73 87.7652 Q1677.82 88.8995 1680.04 89.455 Q1682.26 90.0106 1684.74 90.0106 Q1688.74 90.0106 1691.08 87.9041 Q1693.42 85.7976 1693.42 82.1865 Q1693.42 78.5755 1691.08 76.469 Q1688.74 74.3625 1684.74 74.3625 Q1682.86 74.3625 1680.99 74.7792 Q1679.13 75.1958 1677.19 76.0755 L1677.19 58.7144 Z" fill="#000000" fill-rule="nonzero" fill-opacity="1" /><path clip-path="url(#clip850)" d="M1717.31 61.7931 Q1713.69 61.7931 1711.87 65.3579 Q1710.06 68.8996 1710.06 76.0292 Q1710.06 83.1356 1711.87 86.7004 Q1713.69 90.2421 1717.31 90.2421 Q1720.94 90.2421 1722.75 86.7004 Q1724.57 83.1356 1724.57 76.0292 Q1724.57 68.8996 1722.75 65.3579 Q1720.94 61.7931 1717.31 61.7931 M1717.31 58.0894 Q1723.12 58.0894 1726.17 62.6959 Q1729.25 67.2792 1729.25 76.0292 Q1729.25 84.756 1726.17 89.3624 Q1723.12 93.9457 1717.31 93.9457 Q1711.5 93.9457 1708.42 89.3624 Q1705.36 84.756 1705.36 76.0292 Q1705.36 67.2792 1708.42 62.6959 Q1711.5 58.0894 1717.31 58.0894 Z" fill="#000000" fill-rule="nonzero" fill-opacity="1" /><path clip-path="url(#clip850)" d="M1747.47 61.7931 Q1743.86 61.7931 1742.03 65.3579 Q1740.22 68.8996 1740.22 76.0292 Q1740.22 83.1356 1742.03 86.7004 Q1743.86 90.2421 1747.47 90.2421 Q1751.1 90.2421 1752.91 86.7004 Q1754.74 83.1356 1754.74 76.0292 Q1754.74 68.8996 1752.91 65.3579 Q1751.1 61.7931 1747.47 61.7931 M1747.47 58.0894 Q1753.28 58.0894 1756.33 62.6959 Q1759.41 67.2792 1759.41 76.0292 Q1759.41 84.756 1756.33 89.3624 Q1753.28 93.9457 1747.47 93.9457 Q1741.66 93.9457 1738.58 89.3624 Q1735.52 84.756 1735.52 76.0292 Q1735.52 67.2792 1738.58 62.6959 Q1741.66 58.0894 1747.47 58.0894 Z" fill="#000000" fill-rule="nonzero" fill-opacity="1" /><path clip-path="url(#clip850)" d="M1581.96 768.004 Q1581.39 768.991 1581.13 770.169 Q1580.85 771.315 1580.85 772.715 Q1580.85 777.68 1584.09 780.354 Q1587.31 782.996 1593.35 782.996 L1612.13 782.996 L1612.13 788.884 L1576.49 788.884 L1576.49 782.996 L1582.02 782.996 Q1578.78 781.15 1577.22 778.19 Q1575.63 775.229 1575.63 770.996 Q1575.63 770.392 1575.72 769.659 Q1575.79 768.927 1575.94 768.036 L1581.96 768.004 Z" fill="#000000" fill-rule="nonzero" fill-opacity="1" /><path clip-path="url(#clip850)" d="M1576.49 761.861 L1576.49 756.005 L1612.13 756.005 L1612.13 761.861 L1576.49 761.861 M1562.61 761.861 L1562.61 756.005 L1570.02 756.005 L1570.02 761.861 L1562.61 761.861 Z" fill="#000000" fill-rule="nonzero" fill-opacity="1" /><path clip-path="url(#clip850)" d="M1577.54 721.025 L1583.07 721.025 Q1581.8 723.508 1581.16 726.182 Q1580.53 728.855 1580.53 731.72 Q1580.53 736.08 1581.86 738.277 Q1583.2 740.441 1585.87 740.441 Q1587.91 740.441 1589.09 738.881 Q1590.24 737.322 1591.29 732.611 L1591.73 730.606 Q1593.07 724.367 1595.52 721.758 Q1597.94 719.116 1602.3 719.116 Q1607.26 719.116 1610.16 723.062 Q1613.06 726.977 1613.06 733.852 Q1613.06 736.717 1612.48 739.836 Q1611.94 742.923 1610.83 746.361 L1604.78 746.361 Q1606.47 743.114 1607.33 739.963 Q1608.15 736.812 1608.15 733.725 Q1608.15 729.587 1606.75 727.359 Q1605.32 725.131 1602.74 725.131 Q1600.36 725.131 1599.08 726.755 Q1597.81 728.346 1596.63 733.789 L1596.16 735.826 Q1595.01 741.268 1592.65 743.687 Q1590.27 746.106 1586.13 746.106 Q1581.1 746.106 1578.36 742.542 Q1575.63 738.977 1575.63 732.42 Q1575.63 729.174 1576.1 726.309 Q1576.58 723.444 1577.54 721.025 Z" fill="#000000" fill-rule="nonzero" fill-opacity="1" /><path clip-path="url(#clip850)" d="M1562.61 710.013 L1562.61 704.125 L1591.86 704.125 L1576.49 686.651 L1576.49 679.171 L1593.16 698.077 L1612.13 678.375 L1612.13 686.014 L1594.72 704.125 L1612.13 704.125 L1612.13 710.013 L1562.61 710.013 Z" fill="#000000" fill-rule="nonzero" fill-opacity="1" /><path clip-path="url(#clip850)" d="M1615.44 659.533 Q1621.81 662.015 1623.75 664.371 Q1625.69 666.726 1625.69 670.673 L1625.69 675.352 L1620.79 675.352 L1620.79 671.914 Q1620.79 669.495 1619.64 668.158 Q1618.5 666.821 1614.23 665.198 L1611.56 664.148 L1576.49 678.566 L1576.49 672.36 L1604.37 661.22 L1576.49 650.08 L1576.49 643.873 L1615.44 659.533 Z" fill="#000000" fill-rule="nonzero" fill-opacity="1" /><path clip-path="url(#clip850)" d="M1590.62 585.436 L1612.13 585.436 L1612.13 591.292 L1590.81 591.292 Q1585.75 591.292 1583.23 593.266 Q1580.72 595.239 1580.72 599.186 Q1580.72 603.928 1583.74 606.666 Q1586.77 609.403 1591.99 609.403 L1612.13 609.403 L1612.13 615.291 L1562.61 615.291 L1562.61 609.403 L1582.02 609.403 Q1578.81 607.302 1577.22 604.469 Q1575.63 601.605 1575.63 597.881 Q1575.63 591.738 1579.45 588.587 Q1583.23 585.436 1590.62 585.436 Z" fill="#000000" fill-rule="nonzero" fill-opacity="1" /><path clip-path="url(#clip850)" d="M1580.59 559.941 Q1580.59 564.652 1584.28 567.389 Q1587.94 570.126 1594.34 570.126 Q1600.74 570.126 1604.43 567.421 Q1608.09 564.684 1608.09 559.941 Q1608.09 555.262 1604.4 552.525 Q1600.71 549.788 1594.34 549.788 Q1588.01 549.788 1584.32 552.525 Q1580.59 555.262 1580.59 559.941 M1575.63 559.941 Q1575.63 552.302 1580.59 547.942 Q1585.56 543.581 1594.34 543.581 Q1603.09 543.581 1608.09 547.942 Q1613.06 552.302 1613.06 559.941 Q1613.06 567.612 1608.09 571.972 Q1603.09 576.301 1594.34 576.301 Q1585.56 576.301 1580.59 571.972 Q1575.63 567.612 1575.63 559.941 Z" fill="#000000" fill-rule="nonzero" fill-opacity="1" /><path clip-path="url(#clip850)" d="M1562.61 533.874 L1562.61 528.017 L1612.13 528.017 L1612.13 533.874 L1562.61 533.874 Z" fill="#000000" fill-rule="nonzero" fill-opacity="1" /><path clip-path="url(#clip850)" d="M1581.9 492.306 L1562.61 492.306 L1562.61 486.449 L1612.13 486.449 L1612.13 492.306 L1606.79 492.306 Q1609.97 494.152 1611.53 496.984 Q1613.06 499.785 1613.06 503.732 Q1613.06 510.193 1607.9 514.267 Q1602.74 518.31 1594.34 518.31 Q1585.94 518.31 1580.78 514.267 Q1575.63 510.193 1575.63 503.732 Q1575.63 499.785 1577.19 496.984 Q1578.71 494.152 1581.9 492.306 M1594.34 512.262 Q1600.8 512.262 1604.49 509.62 Q1608.15 506.947 1608.15 502.3 Q1608.15 497.653 1604.49 494.979 Q1600.8 492.306 1594.34 492.306 Q1587.88 492.306 1584.22 494.979 Q1580.53 497.653 1580.53 502.3 Q1580.53 506.947 1584.22 509.62 Q1587.88 512.262 1594.34 512.262 Z" fill="#000000" fill-rule="nonzero" fill-opacity="1" /><path clip-path="url(#clip850)" d="M1576.49 474.386 L1576.49 468.53 L1612.13 468.53 L1612.13 474.386 L1576.49 474.386 M1562.61 474.386 L1562.61 468.53 L1570.02 468.53 L1570.02 474.386 L1562.61 474.386 Z" fill="#000000" fill-rule="nonzero" fill-opacity="1" /><path clip-path="url(#clip850)" d="M1590.62 426.643 L1612.13 426.643 L1612.13 432.5 L1590.81 432.5 Q1585.75 432.5 1583.23 434.473 Q1580.72 436.447 1580.72 440.393 Q1580.72 445.136 1583.74 447.873 Q1586.77 450.61 1591.99 450.61 L1612.13 450.61 L1612.13 456.499 L1576.49 456.499 L1576.49 450.61 L1582.02 450.61 Q1578.81 448.51 1577.22 445.677 Q1575.63 442.812 1575.63 439.088 Q1575.63 432.945 1579.45 429.794 Q1583.23 426.643 1590.62 426.643 Z" fill="#000000" fill-rule="nonzero" fill-opacity="1" /><path clip-path="url(#clip850)" d="M1593.9 391.505 Q1587.53 391.505 1584.03 394.146 Q1580.53 396.756 1580.53 401.499 Q1580.53 406.209 1584.03 408.851 Q1587.53 411.461 1593.9 411.461 Q1600.23 411.461 1603.73 408.851 Q1607.23 406.209 1607.23 401.499 Q1607.23 396.756 1603.73 394.146 Q1600.23 391.505 1593.9 391.505 M1607.71 385.648 Q1616.81 385.648 1621.24 389.69 Q1625.69 393.733 1625.69 402.072 Q1625.69 405.159 1625.21 407.896 Q1624.77 410.634 1623.81 413.212 L1618.12 413.212 Q1619.52 410.634 1620.19 408.119 Q1620.85 405.605 1620.85 402.995 Q1620.85 397.234 1617.83 394.369 Q1614.84 391.505 1608.76 391.505 L1605.86 391.505 Q1609.01 393.319 1610.57 396.152 Q1612.13 398.984 1612.13 402.931 Q1612.13 409.488 1607.14 413.498 Q1602.14 417.509 1593.9 417.509 Q1585.62 417.509 1580.62 413.498 Q1575.63 409.488 1575.63 402.931 Q1575.63 398.984 1577.19 396.152 Q1578.75 393.319 1581.9 391.505 L1576.49 391.505 L1576.49 385.648 L1607.71 385.648 Z" fill="#000000" fill-rule="nonzero" fill-opacity="1" /><path clip-path="url(#clip850)" d="M1562.61 353.088 L1562.61 347.199 L1591.86 347.199 L1576.49 329.725 L1576.49 322.246 L1593.16 341.152 L1612.13 321.45 L1612.13 329.089 L1594.72 347.199 L1612.13 347.199 L1612.13 353.088 L1562.61 353.088 Z" fill="#000000" fill-rule="nonzero" fill-opacity="1" /><polyline clip-path="url(#clip851)" style="stroke:#009af9; stroke-linecap:round; stroke-linejoin:round; stroke-width:4; stroke-opacity:1; fill:none" points="1845.49,1034.34 1858.31,1014.98 1871.13,995.618 1883.95,976.258 1896.77,963.299 1909.59,952.526 1922.41,942.069 1935.23,931.826 1948.05,921.728 1960.87,911.732 1973.69,901.807 1986.51,891.935 1999.33,882.101 2012.15,872.297 2024.97,862.515 2037.79,852.75 2050.61,842.999 2063.43,833.259 2076.25,823.528 2089.07,813.804 2101.89,804.086 2114.71,794.373 2127.53,784.664 2140.35,774.958 2153.17,765.256 2165.99,755.556 2178.81,745.858 2191.63,736.162 2204.45,726.468 2217.27,716.775 2230.09,707.083 2242.91,697.392 2255.73,687.703 2268.55,678.014 2281.37,668.326 2294.19,658.639 2307.01,648.952 2319.83,639.266 2332.65,629.581 2345.47,619.896 2358.29,610.211 2371.11,600.527 2383.93,590.844 2396.75,581.16 2409.57,571.478 2422.39,561.796 2435.21,552.114 2448.03,542.433 2460.85,532.753 2473.67,523.074 2486.49,513.395 2499.31,503.717 2512.13,494.041 2524.95,484.365 2537.77,474.692 2550.59,465.02 2563.41,455.35 2576.23,445.682 2589.05,436.018 2601.88,426.356 2614.7,416.698 2627.52,407.045 2640.34,397.397 2653.16,387.754 2665.98,378.118 2678.8,368.49 2691.62,358.871 2704.44,349.262 2717.26,339.665 2730.08,330.081 2742.9,320.513 2755.72,310.961 2768.54,301.43 2781.36,291.921 2794.18,282.438 2807,272.984 2819.82,263.563 2832.64,254.178 2845.46,244.836 2858.28,235.54 2871.1,226.298 2883.92,217.115 2896.74,207.999 2909.56,198.958 2922.38,190.001 2935.2,181.138 2948.02,172.38 2960.84,163.739 2973.66,155.229 2986.48,146.865 2999.3,138.663 3012.12,130.643 3024.94,122.825 3037.76,115.23 3050.58,107.885 3063.4,100.817 3076.22,94.0566 3089.04,87.6393 3101.86,81.6023 3114.68,75.9944 "/>
<polyline clip-path="url(#clip851)" style="stroke:#e26f46; stroke-linecap:round; stroke-linejoin:round; stroke-width:4; stroke-opacity:1; fill:none" points="1845.49,1034.34 1858.31,1014.98 1871.13,995.618 1883.95,976.258 1896.77,958.464 1909.59,947.806 1922.41,937.519 1935.23,927.433 1948.05,917.469 1960.87,907.584 1973.69,897.751 1986.51,887.955 1999.33,878.186 2012.15,868.436 2024.97,858.701 2037.79,848.976 2050.61,839.261 2063.43,829.552 2076.25,819.849 2089.07,810.149 2101.89,800.454 2114.71,790.76 2127.53,781.07 2140.35,771.381 2153.17,761.693 2165.99,752.007 2178.81,742.322 2191.63,732.638 2204.45,722.955 2217.27,713.272 2230.09,703.59 2242.91,693.908 2255.73,684.227 2268.55,674.546 2281.37,664.866 2294.19,655.185 2307.01,645.505 2319.83,635.826 2332.65,626.146 2345.47,616.467 2358.29,606.787 2371.11,597.109 2383.93,587.43 2396.75,577.751 2409.57,568.073 2422.39,558.395 2435.21,548.718 2448.03,539.041 2460.85,529.365 2473.67,519.689 2486.49,510.014 2499.31,500.34 2512.13,490.667 2524.95,480.995 2537.77,471.325 2550.59,461.656 2563.41,451.99 2576.23,442.326 2589.05,432.665 2601.88,423.007 2614.7,413.353 2627.52,403.704 2640.34,394.06 2653.16,384.422 2665.98,374.791 2678.8,365.168 2691.62,355.554 2704.44,345.952 2717.26,336.362 2730.08,326.785 2742.9,317.225 2755.72,307.684 2768.54,298.164 2781.36,288.667 2794.18,279.198 2807,269.76 2819.82,260.356 2832.64,250.993 2845.46,241.674 2858.28,232.405 2871.1,223.193 2883.92,214.046 2896.74,204.97 2909.56,195.975 2922.38,187.071 2935.2,178.269 2948.02,169.581 2960.84,161.02 2973.66,152.603 2986.48,144.345 2999.3,136.266 3012.12,128.387 3024.94,120.73 3037.76,113.322 3050.58,106.193 3063.4,99.3734 3076.22,92.8997 3089.04,86.8137 3101.86,81.1599 3114.68,75.9944 "/>
<polyline clip-path="url(#clip851)" style="stroke:#3da44d; stroke-linecap:round; stroke-linejoin:round; stroke-width:4; stroke-opacity:1; fill:none" points="1845.49,1034.34 1858.31,1014.98 1871.13,995.618 1883.95,980.79 1896.77,966.89 1909.59,953.441 1922.41,940.298 1935.23,927.417 1948.05,914.683 1960.87,903.734 1973.69,893.875 1986.51,884.096 1999.33,874.357 2012.15,864.641 2024.97,854.937 2037.79,845.242 2050.61,835.554 2063.43,825.869 2076.25,816.187 2089.07,806.508 2101.89,796.83 2114.71,787.153 2127.53,777.478 2140.35,767.802 2153.17,758.128 2165.99,748.453 2178.81,738.779 2191.63,729.105 2204.45,719.431 2217.27,709.757 2230.09,700.083 2242.91,690.409 2255.73,680.735 2268.55,671.061 2281.37,661.387 2294.19,651.712 2307.01,642.038 2319.83,632.364 2332.65,622.689 2345.47,613.015 2358.29,603.34 2371.11,593.666 2383.93,583.991 2396.75,574.317 2409.57,564.643 2422.39,554.969 2435.21,545.295 2448.03,535.621 2460.85,525.948 2473.67,516.276 2486.49,506.604 2499.31,496.933 2512.13,487.263 2524.95,477.595 2537.77,467.928 2550.59,458.262 2563.41,448.599 2576.23,438.939 2589.05,429.281 2601.88,419.626 2614.7,409.976 2627.52,400.331 2640.34,390.691 2653.16,381.057 2665.98,371.431 2678.8,361.814 2691.62,352.206 2704.44,342.61 2717.26,333.027 2730.08,323.459 2742.9,313.908 2755.72,304.376 2768.54,294.867 2781.36,285.384 2794.18,275.929 2807,266.508 2819.82,257.123 2832.64,247.781 2845.46,238.487 2858.28,229.247 2871.1,220.067 2883.92,210.956 2896.74,201.923 2909.56,192.976 2922.38,184.127 2935.2,175.388 2948.02,166.773 2960.84,158.295 2973.66,149.973 2986.48,141.824 2999.3,133.87 3012.12,126.134 3024.94,118.642 3037.76,111.422 3050.58,104.51 3063.4,97.9392 3076.22,91.7517 3089.04,85.9952 3101.86,80.721 3114.68,75.9944 "/>
<path clip-path="url(#clip850)" d="M1852.26 288.466 L2185.52 288.466 L2185.52 81.1056 L1852.26 81.1056  Z" fill="#ffffff" fill-rule="evenodd" fill-opacity="1"/>
<polyline clip-path="url(#clip850)" style="stroke:#000000; stroke-linecap:round; stroke-linejoin:round; stroke-width:4; stroke-opacity:1; fill:none" points="1852.26,288.466 2185.52,288.466 2185.52,81.1056 1852.26,81.1056 1852.26,288.466 "/>
<polyline clip-path="url(#clip850)" style="stroke:#009af9; stroke-linecap:round; stroke-linejoin:round; stroke-width:4; stroke-opacity:1; fill:none" points="1867.2,132.946 1956.89,132.946 "/>
<path clip-path="url(#clip850)" d="M1985.69 152.633 Q1983.88 157.263 1982.17 158.675 Q1980.45 160.087 1977.58 160.087 L1974.18 160.087 L1974.18 156.522 L1976.68 156.522 Q1978.44 156.522 1979.41 155.689 Q1980.38 154.855 1981.57 151.753 L1982.33 149.809 L1971.84 124.3 L1976.36 124.3 L1984.46 144.578 L1992.56 124.3 L1997.07 124.3 L1985.69 152.633 Z" fill="#000000" fill-rule="nonzero" fill-opacity="1" /><path clip-path="url(#clip850)" d="M2018.58 128.698 L2048.25 128.698 L2048.25 132.587 L2018.58 132.587 L2018.58 128.698 M2018.58 138.142 L2048.25 138.142 L2048.25 142.078 L2018.58 142.078 L2018.58 138.142 Z" fill="#000000" fill-rule="nonzero" fill-opacity="1" /><path clip-path="url(#clip850)" d="M2083.42 118.744 Q2079.81 118.744 2077.98 122.309 Q2076.17 125.851 2076.17 132.98 Q2076.17 140.087 2077.98 143.652 Q2079.81 147.193 2083.42 147.193 Q2087.05 147.193 2088.86 143.652 Q2090.68 140.087 2090.68 132.98 Q2090.68 125.851 2088.86 122.309 Q2087.05 118.744 2083.42 118.744 M2083.42 115.041 Q2089.23 115.041 2092.28 119.647 Q2095.36 124.23 2095.36 132.98 Q2095.36 141.707 2092.28 146.314 Q2089.23 150.897 2083.42 150.897 Q2077.61 150.897 2074.53 146.314 Q2071.47 141.707 2071.47 132.98 Q2071.47 124.23 2074.53 119.647 Q2077.61 115.041 2083.42 115.041 Z" fill="#000000" fill-rule="nonzero" fill-opacity="1" /><path clip-path="url(#clip850)" d="M2103.58 144.346 L2108.46 144.346 L2108.46 150.226 L2103.58 150.226 L2103.58 144.346 Z" fill="#000000" fill-rule="nonzero" fill-opacity="1" /><path clip-path="url(#clip850)" d="M2118.69 115.666 L2137.05 115.666 L2137.05 119.601 L2122.98 119.601 L2122.98 128.073 Q2123.99 127.726 2125.01 127.564 Q2126.03 127.379 2127.05 127.379 Q2132.84 127.379 2136.22 130.55 Q2139.6 133.721 2139.6 139.138 Q2139.6 144.716 2136.12 147.818 Q2132.65 150.897 2126.33 150.897 Q2124.16 150.897 2121.89 150.527 Q2119.64 150.156 2117.24 149.415 L2117.24 144.716 Q2119.32 145.851 2121.54 146.406 Q2123.76 146.962 2126.24 146.962 Q2130.24 146.962 2132.58 144.855 Q2134.92 142.749 2134.92 139.138 Q2134.92 135.527 2132.58 133.42 Q2130.24 131.314 2126.24 131.314 Q2124.37 131.314 2122.49 131.73 Q2120.64 132.147 2118.69 133.027 L2118.69 115.666 Z" fill="#000000" fill-rule="nonzero" fill-opacity="1" /><path clip-path="url(#clip850)" d="M2148.95 149.508 L2148.95 145.249 Q2150.71 146.082 2152.51 146.522 Q2154.32 146.962 2156.05 146.962 Q2160.68 146.962 2163.11 143.86 Q2165.57 140.735 2165.92 134.392 Q2164.57 136.383 2162.51 137.448 Q2160.45 138.513 2157.95 138.513 Q2152.77 138.513 2149.74 135.388 Q2146.73 132.24 2146.73 126.8 Q2146.73 121.476 2149.87 118.258 Q2153.02 115.041 2158.25 115.041 Q2164.25 115.041 2167.4 119.647 Q2170.57 124.23 2170.57 132.98 Q2170.57 141.152 2166.68 146.036 Q2162.81 150.897 2156.26 150.897 Q2154.5 150.897 2152.7 150.55 Q2150.89 150.202 2148.95 149.508 M2158.25 134.855 Q2161.4 134.855 2163.23 132.703 Q2165.08 130.55 2165.08 126.8 Q2165.08 123.073 2163.23 120.92 Q2161.4 118.744 2158.25 118.744 Q2155.11 118.744 2153.25 120.92 Q2151.43 123.073 2151.43 126.8 Q2151.43 130.55 2153.25 132.703 Q2155.11 134.855 2158.25 134.855 Z" fill="#000000" fill-rule="nonzero" fill-opacity="1" /><polyline clip-path="url(#clip850)" style="stroke:#e26f46; stroke-linecap:round; stroke-linejoin:round; stroke-width:4; stroke-opacity:1; fill:none" points="1867.2,184.786 1956.89,184.786 "/>
<path clip-path="url(#clip850)" d="M1985.69 204.473 Q1983.88 209.103 1982.17 210.515 Q1980.45 211.927 1977.58 211.927 L1974.18 211.927 L1974.18 208.362 L1976.68 208.362 Q1978.44 208.362 1979.41 207.529 Q1980.38 206.695 1981.57 203.593 L1982.33 201.649 L1971.84 176.14 L1976.36 176.14 L1984.46 196.418 L1992.56 176.14 L1997.07 176.14 L1985.69 204.473 Z" fill="#000000" fill-rule="nonzero" fill-opacity="1" /><path clip-path="url(#clip850)" d="M2018.58 180.538 L2048.25 180.538 L2048.25 184.427 L2018.58 184.427 L2018.58 180.538 M2018.58 189.982 L2048.25 189.982 L2048.25 193.918 L2018.58 193.918 L2018.58 189.982 Z" fill="#000000" fill-rule="nonzero" fill-opacity="1" /><path clip-path="url(#clip850)" d="M2074.23 198.13 L2081.87 198.13 L2081.87 171.765 L2073.56 173.432 L2073.56 169.172 L2081.82 167.506 L2086.5 167.506 L2086.5 198.13 L2094.13 198.13 L2094.13 202.066 L2074.23 202.066 L2074.23 198.13 Z" fill="#000000" fill-rule="nonzero" fill-opacity="1" /><path clip-path="url(#clip850)" d="M2103.58 196.186 L2108.46 196.186 L2108.46 202.066 L2103.58 202.066 L2103.58 196.186 Z" fill="#000000" fill-rule="nonzero" fill-opacity="1" /><path clip-path="url(#clip850)" d="M2128.65 170.584 Q2125.04 170.584 2123.21 174.149 Q2121.4 177.691 2121.4 184.82 Q2121.4 191.927 2123.21 195.492 Q2125.04 199.033 2128.65 199.033 Q2132.28 199.033 2134.09 195.492 Q2135.92 191.927 2135.92 184.82 Q2135.92 177.691 2134.09 174.149 Q2132.28 170.584 2128.65 170.584 M2128.65 166.881 Q2134.46 166.881 2137.51 171.487 Q2140.59 176.07 2140.59 184.82 Q2140.59 193.547 2137.51 198.154 Q2134.46 202.737 2128.65 202.737 Q2122.84 202.737 2119.76 198.154 Q2116.7 193.547 2116.7 184.82 Q2116.7 176.07 2119.76 171.487 Q2122.84 166.881 2128.65 166.881 Z" fill="#000000" fill-rule="nonzero" fill-opacity="1" /><path clip-path="url(#clip850)" d="M2147.63 167.506 L2169.85 167.506 L2169.85 169.496 L2157.3 202.066 L2152.42 202.066 L2164.23 171.441 L2147.63 171.441 L2147.63 167.506 Z" fill="#000000" fill-rule="nonzero" fill-opacity="1" /><polyline clip-path="url(#clip850)" style="stroke:#3da44d; stroke-linecap:round; stroke-linejoin:round; stroke-width:4; stroke-opacity:1; fill:none" points="1867.2,236.626 1956.89,236.626 "/>
<path clip-path="url(#clip850)" d="M1985.69 256.313 Q1983.88 260.943 1982.17 262.355 Q1980.45 263.767 1977.58 263.767 L1974.18 263.767 L1974.18 260.202 L1976.68 260.202 Q1978.44 260.202 1979.41 259.369 Q1980.38 258.535 1981.57 255.433 L1982.33 253.489 L1971.84 227.98 L1976.36 227.98 L1984.46 248.258 L1992.56 227.98 L1997.07 227.98 L1985.69 256.313 Z" fill="#000000" fill-rule="nonzero" fill-opacity="1" /><path clip-path="url(#clip850)" d="M2018.58 232.378 L2048.25 232.378 L2048.25 236.267 L2018.58 236.267 L2018.58 232.378 M2018.58 241.822 L2048.25 241.822 L2048.25 245.758 L2018.58 245.758 L2018.58 241.822 Z" fill="#000000" fill-rule="nonzero" fill-opacity="1" /><path clip-path="url(#clip850)" d="M2074.23 249.97 L2081.87 249.97 L2081.87 223.605 L2073.56 225.272 L2073.56 221.012 L2081.82 219.346 L2086.5 219.346 L2086.5 249.97 L2094.13 249.97 L2094.13 253.906 L2074.23 253.906 L2074.23 249.97 Z" fill="#000000" fill-rule="nonzero" fill-opacity="1" /><path clip-path="url(#clip850)" d="M2103.58 248.026 L2108.46 248.026 L2108.46 253.906 L2103.58 253.906 L2103.58 248.026 Z" fill="#000000" fill-rule="nonzero" fill-opacity="1" /><path clip-path="url(#clip850)" d="M2118.69 219.346 L2137.05 219.346 L2137.05 223.281 L2122.98 223.281 L2122.98 231.753 Q2123.99 231.406 2125.01 231.244 Q2126.03 231.059 2127.05 231.059 Q2132.84 231.059 2136.22 234.23 Q2139.6 237.401 2139.6 242.818 Q2139.6 248.396 2136.12 251.498 Q2132.65 254.577 2126.33 254.577 Q2124.16 254.577 2121.89 254.207 Q2119.64 253.836 2117.24 253.095 L2117.24 248.396 Q2119.32 249.531 2121.54 250.086 Q2123.76 250.642 2126.24 250.642 Q2130.24 250.642 2132.58 248.535 Q2134.92 246.429 2134.92 242.818 Q2134.92 239.207 2132.58 237.1 Q2130.24 234.994 2126.24 234.994 Q2124.37 234.994 2122.49 235.41 Q2120.64 235.827 2118.69 236.707 L2118.69 219.346 Z" fill="#000000" fill-rule="nonzero" fill-opacity="1" /><path clip-path="url(#clip850)" d="M2148.86 219.346 L2167.21 219.346 L2167.21 223.281 L2153.14 223.281 L2153.14 231.753 Q2154.16 231.406 2155.18 231.244 Q2156.19 231.059 2157.21 231.059 Q2163 231.059 2166.38 234.23 Q2169.76 237.401 2169.76 242.818 Q2169.76 248.396 2166.29 251.498 Q2162.81 254.577 2156.49 254.577 Q2154.32 254.577 2152.05 254.207 Q2149.8 253.836 2147.4 253.095 L2147.4 248.396 Q2149.48 249.531 2151.7 250.086 Q2153.93 250.642 2156.4 250.642 Q2160.41 250.642 2162.74 248.535 Q2165.08 246.429 2165.08 242.818 Q2165.08 239.207 2162.74 237.1 Q2160.41 234.994 2156.4 234.994 Q2154.53 234.994 2152.65 235.41 Q2150.8 235.827 2148.86 236.707 L2148.86 219.346 Z" fill="#000000" fill-rule="nonzero" fill-opacity="1" /></svg>
