<?xml version="1.0" encoding="utf-8"?>
<svg xmlns="http://www.w3.org/2000/svg" xmlns:xlink="http://www.w3.org/1999/xlink" width="600" height="400" viewBox="0 0 2400 1600">
<defs>
  <clipPath id="clip190">
    <rect x="0" y="0" width="2400" height="1600"/>
  </clipPath>
</defs>
<path clip-path="url(#clip190)" d="M0 1600 L2400 1600 L2400 0 L0 0  Z" fill="#ffffff" fill-rule="evenodd" fill-opacity="1"/>
<defs>
  <clipPath id="clip191">
    <rect x="262" y="47" width="2091" height="1377"/>
  </clipPath>
</defs>
<path clip-path="url(#clip190)" d="M262.551 1423.18 L2352.76 1423.18 L2352.76 47.2441 L262.551 47.2441  Z" fill="#ffffff" fill-rule="evenodd" fill-opacity="1"/>
<polyline clip-path="url(#clip191)" style="stroke:#000000; stroke-linecap:round; stroke-linejoin:round; stroke-width:2; stroke-opacity:0.1; fill:none" points="321.708,1423.18 321.708,47.2441 "/>
<polyline clip-path="url(#clip191)" style="stroke:#000000; stroke-linecap:round; stroke-linejoin:round; stroke-width:2; stroke-opacity:0.1; fill:none" points="814.681,1423.18 814.681,47.2441 "/>
<polyline clip-path="url(#clip191)" style="stroke:#000000; stroke-linecap:round; stroke-linejoin:round; stroke-width:2; stroke-opacity:0.1; fill:none" points="1307.65,1423.18 1307.65,47.2441 "/>
<polyline clip-path="url(#clip191)" style="stroke:#000000; stroke-linecap:round; stroke-linejoin:round; stroke-width:2; stroke-opacity:0.1; fill:none" points="1800.63,1423.18 1800.63,47.2441 "/>
<polyline clip-path="url(#clip191)" style="stroke:#000000; stroke-linecap:round; stroke-linejoin:round; stroke-width:2; stroke-opacity:0.1; fill:none" points="2293.6,1423.18 2293.6,47.2441 "/>
<polyline clip-path="url(#clip191)" style="stroke:#000000; stroke-linecap:round; stroke-linejoin:round; stroke-width:2; stroke-opacity:0.1; fill:none" points="262.551,1420.87 2352.76,1420.87 "/>
<polyline clip-path="url(#clip191)" style="stroke:#000000; stroke-linecap:round; stroke-linejoin:round; stroke-width:2; stroke-opacity:0.1; fill:none" points="262.551,1101.56 2352.76,1101.56 "/>
<polyline clip-path="url(#clip191)" style="stroke:#000000; stroke-linecap:round; stroke-linejoin:round; stroke-width:2; stroke-opacity:0.1; fill:none" points="262.551,782.245 2352.76,782.245 "/>
<polyline clip-path="url(#clip191)" style="stroke:#000000; stroke-linecap:round; stroke-linejoin:round; stroke-width:2; stroke-opacity:0.1; fill:none" points="262.551,462.93 2352.76,462.93 "/>
<polyline clip-path="url(#clip191)" style="stroke:#000000; stroke-linecap:round; stroke-linejoin:round; stroke-width:2; stroke-opacity:0.1; fill:none" points="262.551,143.616 2352.76,143.616 "/>
<polyline clip-path="url(#clip190)" style="stroke:#000000; stroke-linecap:round; stroke-linejoin:round; stroke-width:4; stroke-opacity:1; fill:none" points="262.551,1423.18 2352.76,1423.18 "/>
<polyline clip-path="url(#clip190)" style="stroke:#000000; stroke-linecap:round; stroke-linejoin:round; stroke-width:4; stroke-opacity:1; fill:none" points="321.708,1423.18 321.708,1404.28 "/>
<polyline clip-path="url(#clip190)" style="stroke:#000000; stroke-linecap:round; stroke-linejoin:round; stroke-width:4; stroke-opacity:1; fill:none" points="814.681,1423.18 814.681,1404.28 "/>
<polyline clip-path="url(#clip190)" style="stroke:#000000; stroke-linecap:round; stroke-linejoin:round; stroke-width:4; stroke-opacity:1; fill:none" points="1307.65,1423.18 1307.65,1404.28 "/>
<polyline clip-path="url(#clip190)" style="stroke:#000000; stroke-linecap:round; stroke-linejoin:round; stroke-width:4; stroke-opacity:1; fill:none" points="1800.63,1423.18 1800.63,1404.28 "/>
<polyline clip-path="url(#clip190)" style="stroke:#000000; stroke-linecap:round; stroke-linejoin:round; stroke-width:4; stroke-opacity:1; fill:none" points="2293.6,1423.18 2293.6,1404.28 "/>
<path clip-path="url(#clip190)" d="M321.708 1454.1 Q318.097 1454.1 316.268 1457.66 Q314.463 1461.2 314.463 1468.33 Q314.463 1475.44 316.268 1479.01 Q318.097 1482.55 321.708 1482.55 Q325.342 1482.55 327.148 1479.01 Q328.976 1475.44 328.976 1468.33 Q328.976 1461.2 327.148 1457.66 Q325.342 1454.1 321.708 1454.1 M321.708 1450.39 Q327.518 1450.39 330.574 1455 Q333.652 1459.58 333.652 1468.33 Q333.652 1477.06 330.574 1481.67 Q327.518 1486.25 321.708 1486.25 Q315.898 1486.25 312.819 1481.67 Q309.764 1477.06 309.764 1468.33 Q309.764 1459.58 312.819 1455 Q315.898 1450.39 321.708 1450.39 Z" fill="#000000" fill-rule="nonzero" fill-opacity="1" /><path clip-path="url(#clip190)" d="M778.373 1481.64 L794.692 1481.64 L794.692 1485.58 L772.748 1485.58 L772.748 1481.64 Q775.41 1478.89 779.993 1474.26 Q784.6 1469.61 785.78 1468.27 Q788.026 1465.74 788.905 1464.01 Q789.808 1462.25 789.808 1460.56 Q789.808 1457.8 787.864 1456.07 Q785.942 1454.33 782.841 1454.33 Q780.642 1454.33 778.188 1455.09 Q775.757 1455.86 772.98 1457.41 L772.98 1452.69 Q775.804 1451.55 778.257 1450.97 Q780.711 1450.39 782.748 1450.39 Q788.118 1450.39 791.313 1453.08 Q794.507 1455.77 794.507 1460.26 Q794.507 1462.39 793.697 1464.31 Q792.91 1466.2 790.804 1468.8 Q790.225 1469.47 787.123 1472.69 Q784.021 1475.88 778.373 1481.64 Z" fill="#000000" fill-rule="nonzero" fill-opacity="1" /><path clip-path="url(#clip190)" d="M804.554 1451.02 L822.91 1451.02 L822.91 1454.96 L808.836 1454.96 L808.836 1463.43 Q809.854 1463.08 810.873 1462.92 Q811.891 1462.73 812.91 1462.73 Q818.697 1462.73 822.077 1465.9 Q825.456 1469.08 825.456 1474.49 Q825.456 1480.07 821.984 1483.17 Q818.512 1486.25 812.192 1486.25 Q810.016 1486.25 807.748 1485.88 Q805.503 1485.51 803.095 1484.77 L803.095 1480.07 Q805.178 1481.2 807.401 1481.76 Q809.623 1482.32 812.1 1482.32 Q816.104 1482.32 818.442 1480.21 Q820.78 1478.1 820.78 1474.49 Q820.78 1470.88 818.442 1468.77 Q816.104 1466.67 812.1 1466.67 Q810.225 1466.67 808.35 1467.08 Q806.498 1467.5 804.554 1468.38 L804.554 1451.02 Z" fill="#000000" fill-rule="nonzero" fill-opacity="1" /><path clip-path="url(#clip190)" d="M844.669 1454.1 Q841.058 1454.1 839.229 1457.66 Q837.424 1461.2 837.424 1468.33 Q837.424 1475.44 839.229 1479.01 Q841.058 1482.55 844.669 1482.55 Q848.303 1482.55 850.109 1479.01 Q851.938 1475.44 851.938 1468.33 Q851.938 1461.2 850.109 1457.66 Q848.303 1454.1 844.669 1454.1 M844.669 1450.39 Q850.479 1450.39 853.535 1455 Q856.613 1459.58 856.613 1468.33 Q856.613 1477.06 853.535 1481.67 Q850.479 1486.25 844.669 1486.25 Q838.859 1486.25 835.78 1481.67 Q832.725 1477.06 832.725 1468.33 Q832.725 1459.58 835.78 1455 Q838.859 1450.39 844.669 1450.39 Z" fill="#000000" fill-rule="nonzero" fill-opacity="1" /><path clip-path="url(#clip190)" d="M1267.27 1451.02 L1285.63 1451.02 L1285.63 1454.96 L1271.55 1454.96 L1271.55 1463.43 Q1272.57 1463.08 1273.59 1462.92 Q1274.61 1462.73 1275.63 1462.73 Q1281.42 1462.73 1284.79 1465.9 Q1288.17 1469.08 1288.17 1474.49 Q1288.17 1480.07 1284.7 1483.17 Q1281.23 1486.25 1274.91 1486.25 Q1272.73 1486.25 1270.47 1485.88 Q1268.22 1485.51 1265.81 1484.77 L1265.81 1480.07 Q1267.9 1481.2 1270.12 1481.76 Q1272.34 1482.32 1274.82 1482.32 Q1278.82 1482.32 1281.16 1480.21 Q1283.5 1478.1 1283.5 1474.49 Q1283.5 1470.88 1281.16 1468.77 Q1278.82 1466.67 1274.82 1466.67 Q1272.94 1466.67 1271.07 1467.08 Q1269.22 1467.5 1267.27 1468.38 L1267.27 1451.02 Z" fill="#000000" fill-rule="nonzero" fill-opacity="1" /><path clip-path="url(#clip190)" d="M1307.39 1454.1 Q1303.78 1454.1 1301.95 1457.66 Q1300.14 1461.2 1300.14 1468.33 Q1300.14 1475.44 1301.95 1479.01 Q1303.78 1482.55 1307.39 1482.55 Q1311.02 1482.55 1312.83 1479.01 Q1314.66 1475.44 1314.66 1468.33 Q1314.66 1461.2 1312.83 1457.66 Q1311.02 1454.1 1307.39 1454.1 M1307.39 1450.39 Q1313.2 1450.39 1316.25 1455 Q1319.33 1459.58 1319.33 1468.33 Q1319.33 1477.06 1316.25 1481.67 Q1313.2 1486.25 1307.39 1486.25 Q1301.58 1486.25 1298.5 1481.67 Q1295.44 1477.06 1295.44 1468.33 Q1295.44 1459.58 1298.5 1455 Q1301.58 1450.39 1307.39 1450.39 Z" fill="#000000" fill-rule="nonzero" fill-opacity="1" /><path clip-path="url(#clip190)" d="M1337.55 1454.1 Q1333.94 1454.1 1332.11 1457.66 Q1330.3 1461.2 1330.3 1468.33 Q1330.3 1475.44 1332.11 1479.01 Q1333.94 1482.55 1337.55 1482.55 Q1341.18 1482.55 1342.99 1479.01 Q1344.82 1475.44 1344.82 1468.33 Q1344.82 1461.2 1342.99 1457.66 Q1341.18 1454.1 1337.55 1454.1 M1337.55 1450.39 Q1343.36 1450.39 1346.41 1455 Q1349.49 1459.58 1349.49 1468.33 Q1349.49 1477.06 1346.41 1481.67 Q1343.36 1486.25 1337.55 1486.25 Q1331.74 1486.25 1328.66 1481.67 Q1325.6 1477.06 1325.6 1468.33 Q1325.6 1459.58 1328.66 1455 Q1331.74 1450.39 1337.55 1450.39 Z" fill="#000000" fill-rule="nonzero" fill-opacity="1" /><path clip-path="url(#clip190)" d="M1758.9 1451.02 L1781.12 1451.02 L1781.12 1453.01 L1768.58 1485.58 L1763.69 1485.58 L1775.5 1454.96 L1758.9 1454.96 L1758.9 1451.02 Z" fill="#000000" fill-rule="nonzero" fill-opacity="1" /><path clip-path="url(#clip190)" d="M1790.29 1451.02 L1808.65 1451.02 L1808.65 1454.96 L1794.57 1454.96 L1794.57 1463.43 Q1795.59 1463.08 1796.61 1462.92 Q1797.63 1462.73 1798.65 1462.73 Q1804.43 1462.73 1807.81 1465.9 Q1811.19 1469.08 1811.19 1474.49 Q1811.19 1480.07 1807.72 1483.17 Q1804.25 1486.25 1797.93 1486.25 Q1795.75 1486.25 1793.49 1485.88 Q1791.24 1485.51 1788.83 1484.77 L1788.83 1480.07 Q1790.92 1481.2 1793.14 1481.76 Q1795.36 1482.32 1797.84 1482.32 Q1801.84 1482.32 1804.18 1480.21 Q1806.52 1478.1 1806.52 1474.49 Q1806.52 1470.88 1804.18 1468.77 Q1801.84 1466.67 1797.84 1466.67 Q1795.96 1466.67 1794.09 1467.08 Q1792.24 1467.5 1790.29 1468.38 L1790.29 1451.02 Z" fill="#000000" fill-rule="nonzero" fill-opacity="1" /><path clip-path="url(#clip190)" d="M1830.41 1454.1 Q1826.8 1454.1 1824.97 1457.66 Q1823.16 1461.2 1823.16 1468.33 Q1823.16 1475.44 1824.97 1479.01 Q1826.8 1482.55 1830.41 1482.55 Q1834.04 1482.55 1835.85 1479.01 Q1837.67 1475.44 1837.67 1468.33 Q1837.67 1461.2 1835.85 1457.66 Q1834.04 1454.1 1830.41 1454.1 M1830.41 1450.39 Q1836.22 1450.39 1839.27 1455 Q1842.35 1459.58 1842.35 1468.33 Q1842.35 1477.06 1839.27 1481.67 Q1836.22 1486.25 1830.41 1486.25 Q1824.6 1486.25 1821.52 1481.67 Q1818.46 1477.06 1818.46 1468.33 Q1818.46 1459.58 1821.52 1455 Q1824.6 1450.39 1830.41 1450.39 Z" fill="#000000" fill-rule="nonzero" fill-opacity="1" /><path clip-path="url(#clip190)" d="M2238.12 1481.64 L2245.76 1481.64 L2245.76 1455.28 L2237.45 1456.95 L2237.45 1452.69 L2245.72 1451.02 L2250.39 1451.02 L2250.39 1481.64 L2258.03 1481.64 L2258.03 1485.58 L2238.12 1485.58 L2238.12 1481.64 Z" fill="#000000" fill-rule="nonzero" fill-opacity="1" /><path clip-path="url(#clip190)" d="M2277.48 1454.1 Q2273.87 1454.1 2272.04 1457.66 Q2270.23 1461.2 2270.23 1468.33 Q2270.23 1475.44 2272.04 1479.01 Q2273.87 1482.55 2277.48 1482.55 Q2281.11 1482.55 2282.92 1479.01 Q2284.75 1475.44 2284.75 1468.33 Q2284.75 1461.2 2282.92 1457.66 Q2281.11 1454.1 2277.48 1454.1 M2277.48 1450.39 Q2283.29 1450.39 2286.34 1455 Q2289.42 1459.58 2289.42 1468.33 Q2289.42 1477.06 2286.34 1481.67 Q2283.29 1486.25 2277.48 1486.25 Q2271.67 1486.25 2268.59 1481.67 Q2265.53 1477.06 2265.53 1468.33 Q2265.53 1459.58 2268.59 1455 Q2271.67 1450.39 2277.48 1450.39 Z" fill="#000000" fill-rule="nonzero" fill-opacity="1" /><path clip-path="url(#clip190)" d="M2307.64 1454.1 Q2304.03 1454.1 2302.2 1457.66 Q2300.39 1461.2 2300.39 1468.33 Q2300.39 1475.44 2302.2 1479.01 Q2304.03 1482.55 2307.64 1482.55 Q2311.27 1482.55 2313.08 1479.01 Q2314.91 1475.44 2314.91 1468.33 Q2314.91 1461.2 2313.08 1457.66 Q2311.27 1454.1 2307.64 1454.1 M2307.64 1450.39 Q2313.45 1450.39 2316.5 1455 Q2319.58 1459.58 2319.58 1468.33 Q2319.58 1477.06 2316.5 1481.67 Q2313.45 1486.25 2307.64 1486.25 Q2301.83 1486.25 2298.75 1481.67 Q2295.69 1477.06 2295.69 1468.33 Q2295.69 1459.58 2298.75 1455 Q2301.83 1450.39 2307.64 1450.39 Z" fill="#000000" fill-rule="nonzero" fill-opacity="1" /><path clip-path="url(#clip190)" d="M2337.8 1454.1 Q2334.19 1454.1 2332.36 1457.66 Q2330.55 1461.2 2330.55 1468.33 Q2330.55 1475.44 2332.36 1479.01 Q2334.19 1482.55 2337.8 1482.55 Q2341.43 1482.55 2343.24 1479.01 Q2345.07 1475.44 2345.07 1468.33 Q2345.07 1461.2 2343.24 1457.66 Q2341.43 1454.1 2337.8 1454.1 M2337.8 1450.39 Q2343.61 1450.39 2346.67 1455 Q2349.74 1459.58 2349.74 1468.33 Q2349.74 1477.06 2346.67 1481.67 Q2343.61 1486.25 2337.8 1486.25 Q2331.99 1486.25 2328.91 1481.67 Q2325.86 1477.06 2325.86 1468.33 Q2325.86 1459.58 2328.91 1455 Q2331.99 1450.39 2337.8 1450.39 Z" fill="#000000" fill-rule="nonzero" fill-opacity="1" /><path clip-path="url(#clip190)" d="M947.561 1532.4 L953.418 1532.4 L960.738 1560.21 L968.027 1532.4 L974.934 1532.4 L982.255 1560.21 L989.543 1532.4 L995.4 1532.4 L986.074 1568.04 L979.167 1568.04 L971.497 1538.83 L963.794 1568.04 L956.887 1568.04 L947.561 1532.4 Z" fill="#000000" fill-rule="nonzero" fill-opacity="1" /><path clip-path="url(#clip190)" d="M1034.77 1548.76 L1034.77 1551.62 L1007.84 1551.62 Q1008.23 1557.67 1011.47 1560.85 Q1014.75 1564 1020.58 1564 Q1023.95 1564 1027.1 1563.17 Q1030.28 1562.35 1033.4 1560.69 L1033.4 1566.23 Q1030.25 1567.57 1026.94 1568.27 Q1023.63 1568.97 1020.23 1568.97 Q1011.7 1568.97 1006.7 1564 Q1001.73 1559.04 1001.73 1550.57 Q1001.73 1541.82 1006.44 1536.69 Q1011.19 1531.54 1019.21 1531.54 Q1026.4 1531.54 1030.57 1536.18 Q1034.77 1540.8 1034.77 1548.76 M1028.92 1547.04 Q1028.85 1542.23 1026.21 1539.37 Q1023.6 1536.5 1019.27 1536.5 Q1014.37 1536.5 1011.41 1539.27 Q1008.48 1542.04 1008.04 1547.07 L1028.92 1547.04 Z" fill="#000000" fill-rule="nonzero" fill-opacity="1" /><path clip-path="url(#clip190)" d="M1060.58 1550.12 Q1053.49 1550.12 1050.75 1551.75 Q1048.01 1553.37 1048.01 1557.29 Q1048.01 1560.4 1050.05 1562.25 Q1052.12 1564.07 1055.65 1564.07 Q1060.52 1564.07 1063.45 1560.63 Q1066.41 1557.16 1066.41 1551.43 L1066.41 1550.12 L1060.58 1550.12 M1072.27 1547.71 L1072.27 1568.04 L1066.41 1568.04 L1066.41 1562.63 Q1064.4 1565.88 1061.41 1567.44 Q1058.42 1568.97 1054.09 1568.97 Q1048.62 1568.97 1045.37 1565.91 Q1042.16 1562.82 1042.16 1557.67 Q1042.16 1551.65 1046.17 1548.6 Q1050.21 1545.54 1058.2 1545.54 L1066.41 1545.54 L1066.41 1544.97 Q1066.41 1540.93 1063.74 1538.73 Q1061.09 1536.5 1056.29 1536.5 Q1053.23 1536.5 1050.34 1537.23 Q1047.44 1537.97 1044.77 1539.43 L1044.77 1534.02 Q1047.98 1532.78 1051 1532.17 Q1054.03 1531.54 1056.89 1531.54 Q1064.63 1531.54 1068.45 1535.55 Q1072.27 1539.56 1072.27 1547.71 Z" fill="#000000" fill-rule="nonzero" fill-opacity="1" /><path clip-path="url(#clip190)" d="M1084.33 1518.52 L1090.19 1518.52 L1090.19 1568.04 L1084.33 1568.04 L1084.33 1518.52 Z" fill="#000000" fill-rule="nonzero" fill-opacity="1" /><path clip-path="url(#clip190)" d="M1108.23 1522.27 L1108.23 1532.4 L1120.29 1532.4 L1120.29 1536.95 L1108.23 1536.95 L1108.23 1556.3 Q1108.23 1560.66 1109.41 1561.9 Q1110.62 1563.14 1114.28 1563.14 L1120.29 1563.14 L1120.29 1568.04 L1114.28 1568.04 Q1107.5 1568.04 1104.92 1565.53 Q1102.34 1562.98 1102.34 1556.3 L1102.34 1536.95 L1098.05 1536.95 L1098.05 1532.4 L1102.34 1532.4 L1102.34 1522.27 L1108.23 1522.27 Z" fill="#000000" fill-rule="nonzero" fill-opacity="1" /><path clip-path="url(#clip190)" d="M1157.63 1546.53 L1157.63 1568.04 L1151.77 1568.04 L1151.77 1546.72 Q1151.77 1541.66 1149.8 1539.14 Q1147.83 1536.63 1143.88 1536.63 Q1139.14 1536.63 1136.4 1539.65 Q1133.66 1542.68 1133.66 1547.9 L1133.66 1568.04 L1127.77 1568.04 L1127.77 1518.52 L1133.66 1518.52 L1133.66 1537.93 Q1135.76 1534.72 1138.6 1533.13 Q1141.46 1531.54 1145.18 1531.54 Q1151.33 1531.54 1154.48 1535.36 Q1157.63 1539.14 1157.63 1546.53 Z" fill="#000000" fill-rule="nonzero" fill-opacity="1" /><path clip-path="url(#clip190)" d="M1166.35 1547.58 L1183.51 1547.58 L1183.51 1552.8 L1166.35 1552.8 L1166.35 1547.58 Z" fill="#000000" fill-rule="nonzero" fill-opacity="1" /><path clip-path="url(#clip190)" d="M1192.83 1532.4 L1198.69 1532.4 L1198.69 1568.04 L1192.83 1568.04 L1192.83 1532.4 M1192.83 1518.52 L1198.69 1518.52 L1198.69 1525.93 L1192.83 1525.93 L1192.83 1518.52 Z" fill="#000000" fill-rule="nonzero" fill-opacity="1" /><path clip-path="url(#clip190)" d="M1240.57 1546.53 L1240.57 1568.04 L1234.72 1568.04 L1234.72 1546.72 Q1234.72 1541.66 1232.75 1539.14 Q1230.77 1536.63 1226.83 1536.63 Q1222.08 1536.63 1219.35 1539.65 Q1216.61 1542.68 1216.61 1547.9 L1216.61 1568.04 L1210.72 1568.04 L1210.72 1532.4 L1216.61 1532.4 L1216.61 1537.93 Q1218.71 1534.72 1221.54 1533.13 Q1224.41 1531.54 1228.13 1531.54 Q1234.27 1531.54 1237.42 1535.36 Q1240.57 1539.14 1240.57 1546.53 Z" fill="#000000" fill-rule="nonzero" fill-opacity="1" /><path clip-path="url(#clip190)" d="M1277.91 1533.76 L1277.91 1539.24 Q1275.43 1537.87 1272.91 1537.2 Q1270.43 1536.5 1267.88 1536.5 Q1262.19 1536.5 1259.04 1540.13 Q1255.88 1543.73 1255.88 1550.25 Q1255.88 1556.78 1259.04 1560.4 Q1262.19 1564 1267.88 1564 Q1270.43 1564 1272.91 1563.33 Q1275.43 1562.63 1277.91 1561.26 L1277.91 1566.68 Q1275.46 1567.82 1272.82 1568.39 Q1270.21 1568.97 1267.25 1568.97 Q1259.19 1568.97 1254.45 1563.91 Q1249.71 1558.85 1249.71 1550.25 Q1249.71 1541.53 1254.48 1536.53 Q1259.29 1531.54 1267.63 1531.54 Q1270.33 1531.54 1272.91 1532.11 Q1275.49 1532.65 1277.91 1533.76 Z" fill="#000000" fill-rule="nonzero" fill-opacity="1" /><path clip-path="url(#clip190)" d="M1301.91 1536.5 Q1297.2 1536.5 1294.46 1540.19 Q1291.72 1543.85 1291.72 1550.25 Q1291.72 1556.65 1294.43 1560.34 Q1297.17 1564 1301.91 1564 Q1306.59 1564 1309.32 1560.31 Q1312.06 1556.62 1312.06 1550.25 Q1312.06 1543.92 1309.32 1540.23 Q1306.59 1536.5 1301.91 1536.5 M1301.91 1531.54 Q1309.55 1531.54 1313.91 1536.5 Q1318.27 1541.47 1318.27 1550.25 Q1318.27 1559 1313.91 1564 Q1309.55 1568.97 1301.91 1568.97 Q1294.24 1568.97 1289.88 1564 Q1285.55 1559 1285.55 1550.25 Q1285.55 1541.47 1289.88 1536.5 Q1294.24 1531.54 1301.91 1531.54 Z" fill="#000000" fill-rule="nonzero" fill-opacity="1" /><path clip-path="url(#clip190)" d="M1355.73 1539.24 Q1357.93 1535.29 1360.98 1533.41 Q1364.04 1531.54 1368.18 1531.54 Q1373.75 1531.54 1376.77 1535.45 Q1379.79 1539.33 1379.79 1546.53 L1379.79 1568.04 L1373.9 1568.04 L1373.9 1546.72 Q1373.9 1541.59 1372.09 1539.11 Q1370.28 1536.63 1366.55 1536.63 Q1362 1536.63 1359.36 1539.65 Q1356.72 1542.68 1356.72 1547.9 L1356.72 1568.04 L1350.83 1568.04 L1350.83 1546.72 Q1350.83 1541.56 1349.01 1539.11 Q1347.2 1536.63 1343.41 1536.63 Q1338.93 1536.63 1336.28 1539.68 Q1333.64 1542.71 1333.64 1547.9 L1333.64 1568.04 L1327.75 1568.04 L1327.75 1532.4 L1333.64 1532.4 L1333.64 1537.93 Q1335.65 1534.66 1338.45 1533.1 Q1341.25 1531.54 1345.1 1531.54 Q1348.98 1531.54 1351.69 1533.51 Q1354.43 1535.48 1355.73 1539.24 Z" fill="#000000" fill-rule="nonzero" fill-opacity="1" /><path clip-path="url(#clip190)" d="M1421.97 1548.76 L1421.97 1551.62 L1395.04 1551.62 Q1395.42 1557.67 1398.67 1560.85 Q1401.95 1564 1407.77 1564 Q1411.14 1564 1414.3 1563.17 Q1417.48 1562.35 1420.6 1560.69 L1420.6 1566.23 Q1417.45 1567.57 1414.14 1568.27 Q1410.83 1568.97 1407.42 1568.97 Q1398.89 1568.97 1393.89 1564 Q1388.93 1559.04 1388.93 1550.57 Q1388.93 1541.82 1393.64 1536.69 Q1398.38 1531.54 1406.4 1531.54 Q1413.59 1531.54 1417.76 1536.18 Q1421.97 1540.8 1421.97 1548.76 M1416.11 1547.04 Q1416.05 1542.23 1413.4 1539.37 Q1410.79 1536.5 1406.47 1536.5 Q1401.56 1536.5 1398.6 1539.27 Q1395.68 1542.04 1395.23 1547.07 L1416.11 1547.04 Z" fill="#000000" fill-rule="nonzero" fill-opacity="1" /><path clip-path="url(#clip190)" d="M1472.96 1537.87 Q1471.97 1537.3 1470.79 1537.04 Q1469.64 1536.76 1468.24 1536.76 Q1463.28 1536.76 1460.61 1540 Q1457.96 1543.22 1457.96 1549.27 L1457.96 1568.04 L1452.08 1568.04 L1452.08 1532.4 L1457.96 1532.4 L1457.96 1537.93 Q1459.81 1534.69 1462.77 1533.13 Q1465.73 1531.54 1469.96 1531.54 Q1470.57 1531.54 1471.3 1531.63 Q1472.03 1531.7 1472.92 1531.85 L1472.96 1537.87 Z" fill="#000000" fill-rule="nonzero" fill-opacity="1" /><path clip-path="url(#clip190)" d="M1495.3 1550.12 Q1488.2 1550.12 1485.46 1551.75 Q1482.73 1553.37 1482.73 1557.29 Q1482.73 1560.4 1484.76 1562.25 Q1486.83 1564.07 1490.37 1564.07 Q1495.24 1564.07 1498.16 1560.63 Q1501.12 1557.16 1501.12 1551.43 L1501.12 1550.12 L1495.3 1550.12 M1506.98 1547.71 L1506.98 1568.04 L1501.12 1568.04 L1501.12 1562.63 Q1499.12 1565.88 1496.13 1567.44 Q1493.13 1568.97 1488.81 1568.97 Q1483.33 1568.97 1480.08 1565.91 Q1476.87 1562.82 1476.87 1557.67 Q1476.87 1551.65 1480.88 1548.6 Q1484.92 1545.54 1492.91 1545.54 L1501.12 1545.54 L1501.12 1544.97 Q1501.12 1540.93 1498.45 1538.73 Q1495.81 1536.5 1491 1536.5 Q1487.95 1536.5 1485.05 1537.23 Q1482.15 1537.97 1479.48 1539.43 L1479.48 1534.02 Q1482.69 1532.78 1485.72 1532.17 Q1488.74 1531.54 1491.61 1531.54 Q1499.34 1531.54 1503.16 1535.55 Q1506.98 1539.56 1506.98 1547.71 Z" fill="#000000" fill-rule="nonzero" fill-opacity="1" /><path clip-path="url(#clip190)" d="M1524.84 1522.27 L1524.84 1532.4 L1536.9 1532.4 L1536.9 1536.95 L1524.84 1536.95 L1524.84 1556.3 Q1524.84 1560.66 1526.01 1561.9 Q1527.22 1563.14 1530.88 1563.14 L1536.9 1563.14 L1536.9 1568.04 L1530.88 1568.04 Q1524.1 1568.04 1521.53 1565.53 Q1518.95 1562.98 1518.95 1556.3 L1518.95 1536.95 L1514.65 1536.95 L1514.65 1532.4 L1518.95 1532.4 L1518.95 1522.27 L1524.84 1522.27 Z" fill="#000000" fill-rule="nonzero" fill-opacity="1" /><path clip-path="url(#clip190)" d="M1544.6 1532.4 L1550.46 1532.4 L1550.46 1568.04 L1544.6 1568.04 L1544.6 1532.4 M1544.6 1518.52 L1550.46 1518.52 L1550.46 1525.93 L1544.6 1525.93 L1544.6 1518.52 Z" fill="#000000" fill-rule="nonzero" fill-opacity="1" /><path clip-path="url(#clip190)" d="M1576.53 1536.5 Q1571.81 1536.5 1569.08 1540.19 Q1566.34 1543.85 1566.34 1550.25 Q1566.34 1556.65 1569.05 1560.34 Q1571.78 1564 1576.53 1564 Q1581.2 1564 1583.94 1560.31 Q1586.68 1556.62 1586.68 1550.25 Q1586.68 1543.92 1583.94 1540.23 Q1581.2 1536.5 1576.53 1536.5 M1576.53 1531.54 Q1584.16 1531.54 1588.52 1536.5 Q1592.88 1541.47 1592.88 1550.25 Q1592.88 1559 1588.52 1564 Q1584.16 1568.97 1576.53 1568.97 Q1568.85 1568.97 1564.49 1564 Q1560.17 1559 1560.17 1550.25 Q1560.17 1541.47 1564.49 1536.5 Q1568.85 1531.54 1576.53 1531.54 Z" fill="#000000" fill-rule="nonzero" fill-opacity="1" /><path clip-path="url(#clip190)" d="M1619.91 1532.4 L1625.76 1532.4 L1633.08 1560.21 L1640.37 1532.4 L1647.28 1532.4 L1654.6 1560.21 L1661.89 1532.4 L1667.75 1532.4 L1658.42 1568.04 L1651.51 1568.04 L1643.84 1538.83 L1636.14 1568.04 L1629.23 1568.04 L1619.91 1532.4 Z" fill="#000000" fill-rule="nonzero" fill-opacity="1" /><polyline clip-path="url(#clip190)" style="stroke:#000000; stroke-linecap:round; stroke-linejoin:round; stroke-width:4; stroke-opacity:1; fill:none" points="262.551,1423.18 262.551,47.2441 "/>
<polyline clip-path="url(#clip190)" style="stroke:#000000; stroke-linecap:round; stroke-linejoin:round; stroke-width:4; stroke-opacity:1; fill:none" points="262.551,1420.87 281.449,1420.87 "/>
<polyline clip-path="url(#clip190)" style="stroke:#000000; stroke-linecap:round; stroke-linejoin:round; stroke-width:4; stroke-opacity:1; fill:none" points="262.551,1101.56 281.449,1101.56 "/>
<polyline clip-path="url(#clip190)" style="stroke:#000000; stroke-linecap:round; stroke-linejoin:round; stroke-width:4; stroke-opacity:1; fill:none" points="262.551,782.245 281.449,782.245 "/>
<polyline clip-path="url(#clip190)" style="stroke:#000000; stroke-linecap:round; stroke-linejoin:round; stroke-width:4; stroke-opacity:1; fill:none" points="262.551,462.93 281.449,462.93 "/>
<polyline clip-path="url(#clip190)" style="stroke:#000000; stroke-linecap:round; stroke-linejoin:round; stroke-width:4; stroke-opacity:1; fill:none" points="262.551,143.616 281.449,143.616 "/>
<path clip-path="url(#clip190)" d="M214.607 1406.67 Q210.996 1406.67 209.167 1410.24 Q207.362 1413.78 207.362 1420.91 Q207.362 1428.01 209.167 1431.58 Q210.996 1435.12 214.607 1435.12 Q218.241 1435.12 220.047 1431.58 Q221.875 1428.01 221.875 1420.91 Q221.875 1413.78 220.047 1410.24 Q218.241 1406.67 214.607 1406.67 M214.607 1402.97 Q220.417 1402.97 223.473 1407.57 Q226.551 1412.16 226.551 1420.91 Q226.551 1429.63 223.473 1434.24 Q220.417 1438.82 214.607 1438.82 Q208.797 1438.82 205.718 1434.24 Q202.662 1429.63 202.662 1420.91 Q202.662 1412.16 205.718 1407.57 Q208.797 1402.97 214.607 1402.97 Z" fill="#000000" fill-rule="nonzero" fill-opacity="1" /><path clip-path="url(#clip190)" d="M148.311 1114.9 L164.63 1114.9 L164.63 1118.84 L142.686 1118.84 L142.686 1114.9 Q145.348 1112.15 149.931 1107.52 Q154.538 1102.87 155.718 1101.52 Q157.964 1099 158.843 1097.26 Q159.746 1095.51 159.746 1093.82 Q159.746 1091.06 157.802 1089.32 Q155.88 1087.59 152.778 1087.59 Q150.579 1087.59 148.126 1088.35 Q145.695 1089.12 142.917 1090.67 L142.917 1085.95 Q145.741 1084.81 148.195 1084.23 Q150.649 1083.65 152.686 1083.65 Q158.056 1083.65 161.251 1086.34 Q164.445 1089.02 164.445 1093.51 Q164.445 1095.64 163.635 1097.57 Q162.848 1099.46 160.741 1102.06 Q160.163 1102.73 157.061 1105.95 Q153.959 1109.14 148.311 1114.9 Z" fill="#000000" fill-rule="nonzero" fill-opacity="1" /><path clip-path="url(#clip190)" d="M174.491 1084.28 L192.848 1084.28 L192.848 1088.21 L178.774 1088.21 L178.774 1096.69 Q179.792 1096.34 180.811 1096.18 Q181.829 1095.99 182.848 1095.99 Q188.635 1095.99 192.014 1099.16 Q195.394 1102.33 195.394 1107.75 Q195.394 1113.33 191.922 1116.43 Q188.45 1119.51 182.13 1119.51 Q179.954 1119.51 177.686 1119.14 Q175.44 1118.77 173.033 1118.03 L173.033 1113.33 Q175.116 1114.46 177.339 1115.02 Q179.561 1115.57 182.038 1115.57 Q186.042 1115.57 188.38 1113.47 Q190.718 1111.36 190.718 1107.75 Q190.718 1104.14 188.38 1102.03 Q186.042 1099.93 182.038 1099.93 Q180.163 1099.93 178.288 1100.34 Q176.436 1100.76 174.491 1101.64 L174.491 1084.28 Z" fill="#000000" fill-rule="nonzero" fill-opacity="1" /><path clip-path="url(#clip190)" d="M214.607 1087.36 Q210.996 1087.36 209.167 1090.92 Q207.362 1094.46 207.362 1101.59 Q207.362 1108.7 209.167 1112.26 Q210.996 1115.81 214.607 1115.81 Q218.241 1115.81 220.047 1112.26 Q221.875 1108.7 221.875 1101.59 Q221.875 1094.46 220.047 1090.92 Q218.241 1087.36 214.607 1087.36 M214.607 1083.65 Q220.417 1083.65 223.473 1088.26 Q226.551 1092.84 226.551 1101.59 Q226.551 1110.32 223.473 1114.93 Q220.417 1119.51 214.607 1119.51 Q208.797 1119.51 205.718 1114.93 Q202.662 1110.32 202.662 1101.59 Q202.662 1092.84 205.718 1088.26 Q208.797 1083.65 214.607 1083.65 Z" fill="#000000" fill-rule="nonzero" fill-opacity="1" /><path clip-path="url(#clip190)" d="M144.329 764.965 L162.686 764.965 L162.686 768.9 L148.612 768.9 L148.612 777.372 Q149.63 777.025 150.649 776.863 Q151.667 776.677 152.686 776.677 Q158.473 776.677 161.852 779.849 Q165.232 783.02 165.232 788.437 Q165.232 794.015 161.76 797.117 Q158.288 800.196 151.968 800.196 Q149.792 800.196 147.524 799.825 Q145.279 799.455 142.871 798.714 L142.871 794.015 Q144.954 795.15 147.177 795.705 Q149.399 796.261 151.876 796.261 Q155.88 796.261 158.218 794.154 Q160.556 792.048 160.556 788.437 Q160.556 784.826 158.218 782.719 Q155.88 780.613 151.876 780.613 Q150.001 780.613 148.126 781.029 Q146.274 781.446 144.329 782.326 L144.329 764.965 Z" fill="#000000" fill-rule="nonzero" fill-opacity="1" /><path clip-path="url(#clip190)" d="M184.445 768.043 Q180.834 768.043 179.005 771.608 Q177.2 775.15 177.2 782.279 Q177.2 789.386 179.005 792.95 Q180.834 796.492 184.445 796.492 Q188.079 796.492 189.885 792.95 Q191.713 789.386 191.713 782.279 Q191.713 775.15 189.885 771.608 Q188.079 768.043 184.445 768.043 M184.445 764.34 Q190.255 764.34 193.311 768.946 Q196.389 773.529 196.389 782.279 Q196.389 791.006 193.311 795.612 Q190.255 800.196 184.445 800.196 Q178.635 800.196 175.556 795.612 Q172.501 791.006 172.501 782.279 Q172.501 773.529 175.556 768.946 Q178.635 764.34 184.445 764.34 Z" fill="#000000" fill-rule="nonzero" fill-opacity="1" /><path clip-path="url(#clip190)" d="M214.607 768.043 Q210.996 768.043 209.167 771.608 Q207.362 775.15 207.362 782.279 Q207.362 789.386 209.167 792.95 Q210.996 796.492 214.607 796.492 Q218.241 796.492 220.047 792.95 Q221.875 789.386 221.875 782.279 Q221.875 775.15 220.047 771.608 Q218.241 768.043 214.607 768.043 M214.607 764.34 Q220.417 764.34 223.473 768.946 Q226.551 773.529 226.551 782.279 Q226.551 791.006 223.473 795.612 Q220.417 800.196 214.607 800.196 Q208.797 800.196 205.718 795.612 Q202.662 791.006 202.662 782.279 Q202.662 773.529 205.718 768.946 Q208.797 764.34 214.607 764.34 Z" fill="#000000" fill-rule="nonzero" fill-opacity="1" /><path clip-path="url(#clip190)" d="M143.103 445.65 L165.325 445.65 L165.325 447.641 L152.778 480.21 L147.894 480.21 L159.7 449.586 L143.103 449.586 L143.103 445.65 Z" fill="#000000" fill-rule="nonzero" fill-opacity="1" /><path clip-path="url(#clip190)" d="M174.491 445.65 L192.848 445.65 L192.848 449.586 L178.774 449.586 L178.774 458.058 Q179.792 457.711 180.811 457.549 Q181.829 457.363 182.848 457.363 Q188.635 457.363 192.014 460.535 Q195.394 463.706 195.394 469.123 Q195.394 474.701 191.922 477.803 Q188.45 480.882 182.13 480.882 Q179.954 480.882 177.686 480.511 Q175.44 480.141 173.033 479.4 L173.033 474.701 Q175.116 475.835 177.339 476.391 Q179.561 476.947 182.038 476.947 Q186.042 476.947 188.38 474.84 Q190.718 472.734 190.718 469.123 Q190.718 465.511 188.38 463.405 Q186.042 461.299 182.038 461.299 Q180.163 461.299 178.288 461.715 Q176.436 462.132 174.491 463.011 L174.491 445.65 Z" fill="#000000" fill-rule="nonzero" fill-opacity="1" /><path clip-path="url(#clip190)" d="M214.607 448.729 Q210.996 448.729 209.167 452.294 Q207.362 455.836 207.362 462.965 Q207.362 470.072 209.167 473.636 Q210.996 477.178 214.607 477.178 Q218.241 477.178 220.047 473.636 Q221.875 470.072 221.875 462.965 Q221.875 455.836 220.047 452.294 Q218.241 448.729 214.607 448.729 M214.607 445.025 Q220.417 445.025 223.473 449.632 Q226.551 454.215 226.551 462.965 Q226.551 471.692 223.473 476.298 Q220.417 480.882 214.607 480.882 Q208.797 480.882 205.718 476.298 Q202.662 471.692 202.662 462.965 Q202.662 454.215 205.718 449.632 Q208.797 445.025 214.607 445.025 Z" fill="#000000" fill-rule="nonzero" fill-opacity="1" /><path clip-path="url(#clip190)" d="M114.931 156.961 L122.57 156.961 L122.57 130.596 L114.26 132.262 L114.26 128.003 L122.524 126.336 L127.2 126.336 L127.2 156.961 L134.839 156.961 L134.839 160.896 L114.931 160.896 L114.931 156.961 Z" fill="#000000" fill-rule="nonzero" fill-opacity="1" /><path clip-path="url(#clip190)" d="M154.283 129.415 Q150.672 129.415 148.843 132.98 Q147.038 136.521 147.038 143.651 Q147.038 150.758 148.843 154.322 Q150.672 157.864 154.283 157.864 Q157.917 157.864 159.723 154.322 Q161.552 150.758 161.552 143.651 Q161.552 136.521 159.723 132.98 Q157.917 129.415 154.283 129.415 M154.283 125.711 Q160.093 125.711 163.149 130.318 Q166.227 134.901 166.227 143.651 Q166.227 152.378 163.149 156.984 Q160.093 161.568 154.283 161.568 Q148.473 161.568 145.394 156.984 Q142.339 152.378 142.339 143.651 Q142.339 134.901 145.394 130.318 Q148.473 125.711 154.283 125.711 Z" fill="#000000" fill-rule="nonzero" fill-opacity="1" /><path clip-path="url(#clip190)" d="M184.445 129.415 Q180.834 129.415 179.005 132.98 Q177.2 136.521 177.2 143.651 Q177.2 150.758 179.005 154.322 Q180.834 157.864 184.445 157.864 Q188.079 157.864 189.885 154.322 Q191.713 150.758 191.713 143.651 Q191.713 136.521 189.885 132.98 Q188.079 129.415 184.445 129.415 M184.445 125.711 Q190.255 125.711 193.311 130.318 Q196.389 134.901 196.389 143.651 Q196.389 152.378 193.311 156.984 Q190.255 161.568 184.445 161.568 Q178.635 161.568 175.556 156.984 Q172.501 152.378 172.501 143.651 Q172.501 134.901 175.556 130.318 Q178.635 125.711 184.445 125.711 Z" fill="#000000" fill-rule="nonzero" fill-opacity="1" /><path clip-path="url(#clip190)" d="M214.607 129.415 Q210.996 129.415 209.167 132.98 Q207.362 136.521 207.362 143.651 Q207.362 150.758 209.167 154.322 Q210.996 157.864 214.607 157.864 Q218.241 157.864 220.047 154.322 Q221.875 150.758 221.875 143.651 Q221.875 136.521 220.047 132.98 Q218.241 129.415 214.607 129.415 M214.607 125.711 Q220.417 125.711 223.473 130.318 Q226.551 134.901 226.551 143.651 Q226.551 152.378 223.473 156.984 Q220.417 161.568 214.607 161.568 Q208.797 161.568 205.718 156.984 Q202.662 152.378 202.662 143.651 Q202.662 134.901 205.718 130.318 Q208.797 125.711 214.607 125.711 Z" fill="#000000" fill-rule="nonzero" fill-opacity="1" /><path clip-path="url(#clip190)" d="M29.4065 992.498 L34.9447 992.498 Q33.6716 994.981 33.035 997.654 Q32.3984 1000.33 32.3984 1003.19 Q32.3984 1007.55 33.7352 1009.75 Q35.072 1011.91 37.7456 1011.91 Q39.7826 1011.91 40.9603 1010.35 Q42.1061 1008.79 43.1565 1004.08 L43.6021 1002.08 Q44.9389 995.84 47.3897 993.23 Q49.8086 990.588 54.1691 990.588 Q59.1344 990.588 62.0308 994.535 Q64.9272 998.45 64.9272 1005.32 Q64.9272 1008.19 64.3543 1011.31 Q63.8132 1014.4 62.6992 1017.83 L56.6518 1017.83 Q58.3387 1014.59 59.198 1011.44 Q60.0256 1008.28 60.0256 1005.2 Q60.0256 1001.06 58.6251 998.832 Q57.1929 996.604 54.6147 996.604 Q52.2276 996.604 50.9545 998.227 Q49.6813 999.818 48.5037 1005.26 L48.0262 1007.3 Q46.8804 1012.74 44.5251 1015.16 Q42.138 1017.58 38.0002 1017.58 Q32.9713 1017.58 30.2341 1014.01 Q27.4968 1010.45 27.4968 1003.89 Q27.4968 1000.65 27.9743 997.781 Q28.4517 994.917 29.4065 992.498 Z" fill="#000000" fill-rule="nonzero" fill-opacity="1" /><path clip-path="url(#clip190)" d="M29.7248 955.609 L35.1993 955.609 Q33.8307 958.091 33.1623 960.606 Q32.4621 963.088 32.4621 965.635 Q32.4621 971.332 36.0905 974.483 Q39.6872 977.634 46.212 977.634 Q52.7369 977.634 56.3653 974.483 Q59.9619 971.332 59.9619 965.635 Q59.9619 963.088 59.2935 960.606 Q58.5933 958.091 57.2247 955.609 L62.6355 955.609 Q63.7814 958.059 64.3543 960.701 Q64.9272 963.311 64.9272 966.271 Q64.9272 974.324 59.8664 979.066 Q54.8057 983.809 46.212 983.809 Q37.491 983.809 32.4939 979.034 Q27.4968 974.228 27.4968 965.889 Q27.4968 963.184 28.0697 960.606 Q28.6108 958.028 29.7248 955.609 Z" fill="#000000" fill-rule="nonzero" fill-opacity="1" /><path clip-path="url(#clip190)" d="M46.0847 929.223 Q46.0847 936.321 47.7079 939.058 Q49.3312 941.795 53.2461 941.795 Q56.3653 941.795 58.2114 939.758 Q60.0256 937.689 60.0256 934.156 Q60.0256 929.286 56.5881 926.358 Q53.1188 923.398 47.3897 923.398 L46.0847 923.398 L46.0847 929.223 M43.6657 917.542 L64.0042 917.542 L64.0042 923.398 L58.5933 923.398 Q61.8398 925.403 63.3994 928.395 Q64.9272 931.387 64.9272 935.716 Q64.9272 941.19 61.8716 944.437 Q58.7843 947.652 53.6281 947.652 Q47.6125 947.652 44.5569 943.641 Q41.5014 939.599 41.5014 931.61 L41.5014 923.398 L40.9285 923.398 Q36.8862 923.398 34.6901 926.072 Q32.4621 928.714 32.4621 933.52 Q32.4621 936.575 33.1941 939.472 Q33.9262 942.368 35.3903 945.042 L29.9795 945.042 Q28.7381 941.827 28.1334 938.803 Q27.4968 935.779 27.4968 932.915 Q27.4968 925.181 31.5072 921.361 Q35.5176 917.542 43.6657 917.542 Z" fill="#000000" fill-rule="nonzero" fill-opacity="1" /><path clip-path="url(#clip190)" d="M14.479 905.479 L14.479 899.622 L64.0042 899.622 L64.0042 905.479 L14.479 905.479 Z" fill="#000000" fill-rule="nonzero" fill-opacity="1" /><path clip-path="url(#clip190)" d="M44.7161 856.877 L47.5806 856.877 L47.5806 883.803 Q53.6281 883.422 56.8109 880.175 Q59.9619 876.897 59.9619 871.072 Q59.9619 867.698 59.1344 864.547 Q58.3069 861.364 56.6518 858.245 L62.1899 858.245 Q63.5267 861.396 64.227 864.706 Q64.9272 868.017 64.9272 871.422 Q64.9272 879.952 59.9619 884.949 Q54.9967 889.915 46.5303 889.915 Q37.7774 889.915 32.6531 885.204 Q27.4968 880.461 27.4968 872.441 Q27.4968 865.247 32.1438 861.078 Q36.7589 856.877 44.7161 856.877 M42.9973 862.733 Q38.1912 862.797 35.3266 865.438 Q32.4621 868.048 32.4621 872.377 Q32.4621 877.279 35.2312 880.239 Q38.0002 883.167 43.0292 883.613 L42.9973 862.733 Z" fill="#000000" fill-rule="nonzero" fill-opacity="1" /><path clip-path="url(#clip190)" d="M33.7671 823.807 L14.479 823.807 L14.479 817.95 L64.0042 817.95 L64.0042 823.807 L58.657 823.807 Q61.8398 825.653 63.3994 828.485 Q64.9272 831.286 64.9272 835.233 Q64.9272 841.694 59.771 845.768 Q54.6147 849.811 46.212 849.811 Q37.8093 849.811 32.6531 845.768 Q27.4968 841.694 27.4968 835.233 Q27.4968 831.286 29.0564 828.485 Q30.5842 825.653 33.7671 823.807 M46.212 843.763 Q52.6732 843.763 56.3653 841.121 Q60.0256 838.448 60.0256 833.801 Q60.0256 829.154 56.3653 826.48 Q52.6732 823.807 46.212 823.807 Q39.7508 823.807 36.0905 826.48 Q32.3984 829.154 32.3984 833.801 Q32.3984 838.448 36.0905 841.121 Q39.7508 843.763 46.212 843.763 Z" fill="#000000" fill-rule="nonzero" fill-opacity="1" /><path clip-path="url(#clip190)" d="M28.3562 789.368 L28.3562 783.162 L58.275 772.022 L28.3562 760.882 L28.3562 754.675 L64.0042 768.043 L64.0042 776 L28.3562 789.368 Z" fill="#000000" fill-rule="nonzero" fill-opacity="1" /><path clip-path="url(#clip190)" d="M46.0847 730.39 Q46.0847 737.488 47.7079 740.225 Q49.3312 742.962 53.2461 742.962 Q56.3653 742.962 58.2114 740.925 Q60.0256 738.856 60.0256 735.323 Q60.0256 730.454 56.5881 727.525 Q53.1188 724.565 47.3897 724.565 L46.0847 724.565 L46.0847 730.39 M43.6657 718.709 L64.0042 718.709 L64.0042 724.565 L58.5933 724.565 Q61.8398 726.571 63.3994 729.562 Q64.9272 732.554 64.9272 736.883 Q64.9272 742.357 61.8716 745.604 Q58.7843 748.819 53.6281 748.819 Q47.6125 748.819 44.5569 744.808 Q41.5014 740.766 41.5014 732.777 L41.5014 724.565 L40.9285 724.565 Q36.8862 724.565 34.6901 727.239 Q32.4621 729.881 32.4621 734.687 Q32.4621 737.742 33.1941 740.639 Q33.9262 743.535 35.3903 746.209 L29.9795 746.209 Q28.7381 742.994 28.1334 739.97 Q27.4968 736.947 27.4968 734.082 Q27.4968 726.348 31.5072 722.528 Q35.5176 718.709 43.6657 718.709 Z" fill="#000000" fill-rule="nonzero" fill-opacity="1" /><path clip-path="url(#clip190)" d="M14.479 706.646 L14.479 700.789 L64.0042 700.789 L64.0042 706.646 L14.479 706.646 Z" fill="#000000" fill-rule="nonzero" fill-opacity="1" /><path clip-path="url(#clip190)" d="M49.9359 689.14 L28.3562 689.14 L28.3562 683.284 L49.7131 683.284 Q54.7739 683.284 57.3202 681.31 Q59.8346 679.337 59.8346 675.39 Q59.8346 670.648 56.8109 667.911 Q53.7872 665.141 48.5673 665.141 L28.3562 665.141 L28.3562 659.285 L64.0042 659.285 L64.0042 665.141 L58.5296 665.141 Q61.7762 667.274 63.3676 670.107 Q64.9272 672.908 64.9272 676.632 Q64.9272 682.774 61.1078 685.957 Q57.2883 689.14 49.9359 689.14 M27.4968 674.404 L27.4968 674.404 Z" fill="#000000" fill-rule="nonzero" fill-opacity="1" /><path clip-path="url(#clip190)" d="M44.7161 616.73 L47.5806 616.73 L47.5806 643.657 Q53.6281 643.275 56.8109 640.029 Q59.9619 636.75 59.9619 630.926 Q59.9619 627.552 59.1344 624.401 Q58.3069 621.218 56.6518 618.099 L62.1899 618.099 Q63.5267 621.25 64.227 624.56 Q64.9272 627.87 64.9272 631.276 Q64.9272 639.806 59.9619 644.803 Q54.9967 649.768 46.5303 649.768 Q37.7774 649.768 32.6531 645.058 Q27.4968 640.315 27.4968 632.294 Q27.4968 625.101 32.1438 620.932 Q36.7589 616.73 44.7161 616.73 M42.9973 622.587 Q38.1912 622.65 35.3266 625.292 Q32.4621 627.902 32.4621 632.231 Q32.4621 637.132 35.2312 640.092 Q38.0002 643.021 43.0292 643.466 L42.9973 622.587 Z" fill="#000000" fill-rule="nonzero" fill-opacity="1" /><path clip-path="url(#clip190)" d="M58.657 580.732 L77.5631 580.732 L77.5631 586.62 L28.3562 586.62 L28.3562 580.732 L33.7671 580.732 Q30.5842 578.886 29.0564 576.085 Q27.4968 573.252 27.4968 569.338 Q27.4968 562.845 32.6531 558.802 Q37.8093 554.728 46.212 554.728 Q54.6147 554.728 59.771 558.802 Q64.9272 562.845 64.9272 569.338 Q64.9272 573.252 63.3994 576.085 Q61.8398 578.886 58.657 580.732 M46.212 560.808 Q39.7508 560.808 36.0905 563.481 Q32.3984 566.123 32.3984 570.77 Q32.3984 575.417 36.0905 578.09 Q39.7508 580.732 46.212 580.732 Q52.6732 580.732 56.3653 578.09 Q60.0256 575.417 60.0256 570.77 Q60.0256 566.123 56.3653 563.481 Q52.6732 560.808 46.212 560.808 Z" fill="#000000" fill-rule="nonzero" fill-opacity="1" /><path clip-path="url(#clip190)" d="M14.5426 530.952 Q21.8632 535.217 29.0246 537.286 Q36.186 539.355 43.5384 539.355 Q50.8908 539.355 58.1159 537.286 Q65.3091 535.186 72.5979 530.952 L72.5979 536.045 Q65.1182 540.819 57.8931 543.206 Q50.668 545.562 43.5384 545.562 Q36.4406 545.562 29.2474 543.206 Q22.0542 540.851 14.5426 536.045 L14.5426 530.952 Z" fill="#000000" fill-rule="nonzero" fill-opacity="1" /><path clip-path="url(#clip190)" d="M28.3562 522.995 L28.3562 517.139 L56.1743 509.818 L28.3562 502.529 L28.3562 495.623 L56.1743 488.302 L28.3562 481.013 L28.3562 475.157 L64.0042 484.483 L64.0042 491.389 L34.7856 499.06 L64.0042 506.763 L64.0042 513.669 L28.3562 522.995 Z" fill="#000000" fill-rule="nonzero" fill-opacity="1" /><path clip-path="url(#clip190)" d="M14.5426 467.2 L14.5426 462.107 Q22.0542 457.333 29.2474 454.978 Q36.4406 452.591 43.5384 452.591 Q50.668 452.591 57.8931 454.978 Q65.1182 457.333 72.5979 462.107 L72.5979 467.2 Q65.3091 462.967 58.1159 460.898 Q50.8908 458.797 43.5384 458.797 Q36.186 458.797 29.0246 460.898 Q21.8632 462.967 14.5426 467.2 Z" fill="#000000" fill-rule="nonzero" fill-opacity="1" /><polyline clip-path="url(#clip191)" style="stroke:#009af9; stroke-linecap:round; stroke-linejoin:round; stroke-width:4; stroke-opacity:1; fill:none" points="321.708,1384.24 321.909,1384.06 322.513,1383.54 323.519,1382.68 324.927,1381.49 326.738,1379.97 328.951,1378.15 331.566,1376.02 334.584,1373.6 338.005,1370.91 341.827,1367.95 346.052,1364.72 350.68,1361.24 355.71,1357.49 361.142,1353.49 366.976,1349.24 373.213,1344.73 379.853,1339.97 386.894,1334.96 394.339,1329.7 402.185,1324.19 410.434,1318.44 419.085,1312.43 428.139,1306.17 437.595,1299.67 447.453,1292.91 457.714,1285.91 468.378,1278.66 479.443,1271.15 490.911,1263.4 502.782,1255.4 515.054,1247.14 527.729,1238.63 540.807,1229.87 554.287,1220.86 568.169,1211.6 582.454,1202.08 597.141,1192.32 612.23,1182.29 627.722,1172.02 643.617,1161.49 659.913,1150.71 676.612,1139.67 693.714,1128.38 711.217,1116.83 729.123,1105.03 747.432,1092.98 766.143,1080.67 785.256,1068.1 804.772,1055.28 824.69,1042.2 845.011,1028.87 865.733,1015.28 886.859,1001.43 908.386,987.329 930.316,972.97 952.649,958.354 975.384,943.481 998.521,928.351 1022.06,912.965 1046,897.321 1070.35,881.419 1095.09,865.261 1120.24,848.844 1145.79,832.171 1171.75,815.239 1198.1,798.05 1224.86,780.603 1252.02,762.898 1279.59,744.936 1307.55,726.715 1335.92,708.236 1364.69,689.5 1393.86,670.505 1423.44,651.252 1453.42,631.741 1483.8,611.972 1514.58,591.944 1545.77,571.659 1577.35,551.115 1609.34,530.314 1641.73,509.254 1674.53,487.936 1707.73,466.36 1741.32,444.527 1775.33,422.436 1809.73,400.087 1844.54,377.48 1879.75,354.616 1915.36,331.495 1951.37,308.117 1987.79,284.482 2024.6,260.59 2061.82,236.442 2099.45,212.037 2137.47,187.377 2175.9,162.462 2214.73,137.291 2253.96,111.865 2293.6,86.1857 "/>
</svg>
