<?xml version="1.0" encoding="utf-8"?>
<svg xmlns="http://www.w3.org/2000/svg" xmlns:xlink="http://www.w3.org/1999/xlink" width="600" height="400" viewBox="0 0 2400 1600">
<defs>
  <clipPath id="clip010">
    <rect x="0" y="0" width="2400" height="1600"/>
  </clipPath>
</defs>
<path clip-path="url(#clip010)" d="M0 1600 L2400 1600 L2400 0 L0 0  Z" fill="#ffffff" fill-rule="evenodd" fill-opacity="1"/>
<defs>
  <clipPath id="clip011">
    <rect x="204" y="47" width="2150" height="1377"/>
  </clipPath>
</defs>
<path clip-path="url(#clip010)" d="M204.218 1423.18 L2352.76 1423.18 L2352.76 47.2441 L204.218 47.2441  Z" fill="#ffffff" fill-rule="evenodd" fill-opacity="1"/>
<polyline clip-path="url(#clip011)" style="stroke:#000000; stroke-linecap:round; stroke-linejoin:round; stroke-width:2; stroke-opacity:0.1; fill:none" points="265.026,1423.18 265.026,47.2441 "/>
<polyline clip-path="url(#clip011)" style="stroke:#000000; stroke-linecap:round; stroke-linejoin:round; stroke-width:2; stroke-opacity:0.1; fill:none" points="771.756,1423.18 771.756,47.2441 "/>
<polyline clip-path="url(#clip011)" style="stroke:#000000; stroke-linecap:round; stroke-linejoin:round; stroke-width:2; stroke-opacity:0.1; fill:none" points="1278.49,1423.18 1278.49,47.2441 "/>
<polyline clip-path="url(#clip011)" style="stroke:#000000; stroke-linecap:round; stroke-linejoin:round; stroke-width:2; stroke-opacity:0.1; fill:none" points="1785.22,1423.18 1785.22,47.2441 "/>
<polyline clip-path="url(#clip011)" style="stroke:#000000; stroke-linecap:round; stroke-linejoin:round; stroke-width:2; stroke-opacity:0.1; fill:none" points="2291.95,1423.18 2291.95,47.2441 "/>
<polyline clip-path="url(#clip011)" style="stroke:#000000; stroke-linecap:round; stroke-linejoin:round; stroke-width:2; stroke-opacity:0.1; fill:none" points="204.218,1178.78 2352.76,1178.78 "/>
<polyline clip-path="url(#clip011)" style="stroke:#000000; stroke-linecap:round; stroke-linejoin:round; stroke-width:2; stroke-opacity:0.1; fill:none" points="204.218,861.9 2352.76,861.9 "/>
<polyline clip-path="url(#clip011)" style="stroke:#000000; stroke-linecap:round; stroke-linejoin:round; stroke-width:2; stroke-opacity:0.1; fill:none" points="204.218,545.018 2352.76,545.018 "/>
<polyline clip-path="url(#clip011)" style="stroke:#000000; stroke-linecap:round; stroke-linejoin:round; stroke-width:2; stroke-opacity:0.1; fill:none" points="204.218,228.135 2352.76,228.135 "/>
<polyline clip-path="url(#clip010)" style="stroke:#000000; stroke-linecap:round; stroke-linejoin:round; stroke-width:4; stroke-opacity:1; fill:none" points="204.218,1423.18 2352.76,1423.18 "/>
<polyline clip-path="url(#clip010)" style="stroke:#000000; stroke-linecap:round; stroke-linejoin:round; stroke-width:4; stroke-opacity:1; fill:none" points="265.026,1423.18 265.026,1404.28 "/>
<polyline clip-path="url(#clip010)" style="stroke:#000000; stroke-linecap:round; stroke-linejoin:round; stroke-width:4; stroke-opacity:1; fill:none" points="771.756,1423.18 771.756,1404.28 "/>
<polyline clip-path="url(#clip010)" style="stroke:#000000; stroke-linecap:round; stroke-linejoin:round; stroke-width:4; stroke-opacity:1; fill:none" points="1278.49,1423.18 1278.49,1404.28 "/>
<polyline clip-path="url(#clip010)" style="stroke:#000000; stroke-linecap:round; stroke-linejoin:round; stroke-width:4; stroke-opacity:1; fill:none" points="1785.22,1423.18 1785.22,1404.28 "/>
<polyline clip-path="url(#clip010)" style="stroke:#000000; stroke-linecap:round; stroke-linejoin:round; stroke-width:4; stroke-opacity:1; fill:none" points="2291.95,1423.18 2291.95,1404.28 "/>
<path clip-path="url(#clip010)" d="M212.248 1454.1 Q208.637 1454.1 206.809 1457.66 Q205.003 1461.2 205.003 1468.33 Q205.003 1475.44 206.809 1479.01 Q208.637 1482.55 212.248 1482.55 Q215.883 1482.55 217.688 1479.01 Q219.517 1475.44 219.517 1468.33 Q219.517 1461.2 217.688 1457.66 Q215.883 1454.1 212.248 1454.1 M212.248 1450.39 Q218.059 1450.39 221.114 1455 Q224.193 1459.58 224.193 1468.33 Q224.193 1477.06 221.114 1481.67 Q218.059 1486.25 212.248 1486.25 Q206.438 1486.25 203.36 1481.67 Q200.304 1477.06 200.304 1468.33 Q200.304 1459.58 203.36 1455 Q206.438 1450.39 212.248 1450.39 Z" fill="#000000" fill-rule="nonzero" fill-opacity="1" /><path clip-path="url(#clip010)" d="M232.41 1479.7 L237.295 1479.7 L237.295 1485.58 L232.41 1485.58 L232.41 1479.7 Z" fill="#000000" fill-rule="nonzero" fill-opacity="1" /><path clip-path="url(#clip010)" d="M257.48 1454.1 Q253.869 1454.1 252.04 1457.66 Q250.234 1461.2 250.234 1468.33 Q250.234 1475.44 252.04 1479.01 Q253.869 1482.55 257.48 1482.55 Q261.114 1482.55 262.919 1479.01 Q264.748 1475.44 264.748 1468.33 Q264.748 1461.2 262.919 1457.66 Q261.114 1454.1 257.48 1454.1 M257.48 1450.39 Q263.29 1450.39 266.345 1455 Q269.424 1459.58 269.424 1468.33 Q269.424 1477.06 266.345 1481.67 Q263.29 1486.25 257.48 1486.25 Q251.669 1486.25 248.591 1481.67 Q245.535 1477.06 245.535 1468.33 Q245.535 1459.58 248.591 1455 Q251.669 1450.39 257.48 1450.39 Z" fill="#000000" fill-rule="nonzero" fill-opacity="1" /><path clip-path="url(#clip010)" d="M287.641 1454.1 Q284.03 1454.1 282.202 1457.66 Q280.396 1461.2 280.396 1468.33 Q280.396 1475.44 282.202 1479.01 Q284.03 1482.55 287.641 1482.55 Q291.276 1482.55 293.081 1479.01 Q294.91 1475.44 294.91 1468.33 Q294.91 1461.2 293.081 1457.66 Q291.276 1454.1 287.641 1454.1 M287.641 1450.39 Q293.452 1450.39 296.507 1455 Q299.586 1459.58 299.586 1468.33 Q299.586 1477.06 296.507 1481.67 Q293.452 1486.25 287.641 1486.25 Q281.831 1486.25 278.753 1481.67 Q275.697 1477.06 275.697 1468.33 Q275.697 1459.58 278.753 1455 Q281.831 1450.39 287.641 1450.39 Z" fill="#000000" fill-rule="nonzero" fill-opacity="1" /><path clip-path="url(#clip010)" d="M317.803 1454.1 Q314.192 1454.1 312.364 1457.66 Q310.558 1461.2 310.558 1468.33 Q310.558 1475.44 312.364 1479.01 Q314.192 1482.55 317.803 1482.55 Q321.438 1482.55 323.243 1479.01 Q325.072 1475.44 325.072 1468.33 Q325.072 1461.2 323.243 1457.66 Q321.438 1454.1 317.803 1454.1 M317.803 1450.39 Q323.614 1450.39 326.669 1455 Q329.748 1459.58 329.748 1468.33 Q329.748 1477.06 326.669 1481.67 Q323.614 1486.25 317.803 1486.25 Q311.993 1486.25 308.915 1481.67 Q305.859 1477.06 305.859 1468.33 Q305.859 1459.58 308.915 1455 Q311.993 1450.39 317.803 1450.39 Z" fill="#000000" fill-rule="nonzero" fill-opacity="1" /><path clip-path="url(#clip010)" d="M719.477 1454.1 Q715.866 1454.1 714.037 1457.66 Q712.231 1461.2 712.231 1468.33 Q712.231 1475.44 714.037 1479.01 Q715.866 1482.55 719.477 1482.55 Q723.111 1482.55 724.916 1479.01 Q726.745 1475.44 726.745 1468.33 Q726.745 1461.2 724.916 1457.66 Q723.111 1454.1 719.477 1454.1 M719.477 1450.39 Q725.287 1450.39 728.342 1455 Q731.421 1459.58 731.421 1468.33 Q731.421 1477.06 728.342 1481.67 Q725.287 1486.25 719.477 1486.25 Q713.666 1486.25 710.588 1481.67 Q707.532 1477.06 707.532 1468.33 Q707.532 1459.58 710.588 1455 Q713.666 1450.39 719.477 1450.39 Z" fill="#000000" fill-rule="nonzero" fill-opacity="1" /><path clip-path="url(#clip010)" d="M739.639 1479.7 L744.523 1479.7 L744.523 1485.58 L739.639 1485.58 L739.639 1479.7 Z" fill="#000000" fill-rule="nonzero" fill-opacity="1" /><path clip-path="url(#clip010)" d="M764.708 1454.1 Q761.097 1454.1 759.268 1457.66 Q757.463 1461.2 757.463 1468.33 Q757.463 1475.44 759.268 1479.01 Q761.097 1482.55 764.708 1482.55 Q768.342 1482.55 770.148 1479.01 Q771.976 1475.44 771.976 1468.33 Q771.976 1461.2 770.148 1457.66 Q768.342 1454.1 764.708 1454.1 M764.708 1450.39 Q770.518 1450.39 773.574 1455 Q776.652 1459.58 776.652 1468.33 Q776.652 1477.06 773.574 1481.67 Q770.518 1486.25 764.708 1486.25 Q758.898 1486.25 755.819 1481.67 Q752.764 1477.06 752.764 1468.33 Q752.764 1459.58 755.819 1455 Q758.898 1450.39 764.708 1450.39 Z" fill="#000000" fill-rule="nonzero" fill-opacity="1" /><path clip-path="url(#clip010)" d="M788.898 1481.64 L805.217 1481.64 L805.217 1485.58 L783.273 1485.58 L783.273 1481.64 Q785.935 1478.89 790.518 1474.26 Q795.124 1469.61 796.305 1468.27 Q798.55 1465.74 799.43 1464.01 Q800.333 1462.25 800.333 1460.56 Q800.333 1457.8 798.388 1456.07 Q796.467 1454.33 793.365 1454.33 Q791.166 1454.33 788.712 1455.09 Q786.282 1455.86 783.504 1457.41 L783.504 1452.69 Q786.328 1451.55 788.782 1450.97 Q791.236 1450.39 793.273 1450.39 Q798.643 1450.39 801.837 1453.08 Q805.032 1455.77 805.032 1460.26 Q805.032 1462.39 804.222 1464.31 Q803.435 1466.2 801.328 1468.8 Q800.749 1469.47 797.648 1472.69 Q794.546 1475.88 788.898 1481.64 Z" fill="#000000" fill-rule="nonzero" fill-opacity="1" /><path clip-path="url(#clip010)" d="M815.078 1451.02 L833.434 1451.02 L833.434 1454.96 L819.36 1454.96 L819.36 1463.43 Q820.379 1463.08 821.397 1462.92 Q822.416 1462.73 823.434 1462.73 Q829.221 1462.73 832.601 1465.9 Q835.981 1469.08 835.981 1474.49 Q835.981 1480.07 832.508 1483.17 Q829.036 1486.25 822.717 1486.25 Q820.541 1486.25 818.272 1485.88 Q816.027 1485.51 813.62 1484.77 L813.62 1480.07 Q815.703 1481.2 817.925 1481.76 Q820.147 1482.32 822.624 1482.32 Q826.629 1482.32 828.967 1480.21 Q831.305 1478.1 831.305 1474.49 Q831.305 1470.88 828.967 1468.77 Q826.629 1466.67 822.624 1466.67 Q820.749 1466.67 818.874 1467.08 Q817.022 1467.5 815.078 1468.38 L815.078 1451.02 Z" fill="#000000" fill-rule="nonzero" fill-opacity="1" /><path clip-path="url(#clip010)" d="M1225.71 1454.1 Q1222.1 1454.1 1220.27 1457.66 Q1218.46 1461.2 1218.46 1468.33 Q1218.46 1475.44 1220.27 1479.01 Q1222.1 1482.55 1225.71 1482.55 Q1229.34 1482.55 1231.15 1479.01 Q1232.98 1475.44 1232.98 1468.33 Q1232.98 1461.2 1231.15 1457.66 Q1229.34 1454.1 1225.71 1454.1 M1225.71 1450.39 Q1231.52 1450.39 1234.58 1455 Q1237.65 1459.58 1237.65 1468.33 Q1237.65 1477.06 1234.58 1481.67 Q1231.52 1486.25 1225.71 1486.25 Q1219.9 1486.25 1216.82 1481.67 Q1213.77 1477.06 1213.77 1468.33 Q1213.77 1459.58 1216.82 1455 Q1219.9 1450.39 1225.71 1450.39 Z" fill="#000000" fill-rule="nonzero" fill-opacity="1" /><path clip-path="url(#clip010)" d="M1245.87 1479.7 L1250.76 1479.7 L1250.76 1485.58 L1245.87 1485.58 L1245.87 1479.7 Z" fill="#000000" fill-rule="nonzero" fill-opacity="1" /><path clip-path="url(#clip010)" d="M1270.94 1454.1 Q1267.33 1454.1 1265.5 1457.66 Q1263.7 1461.2 1263.7 1468.33 Q1263.7 1475.44 1265.5 1479.01 Q1267.33 1482.55 1270.94 1482.55 Q1274.58 1482.55 1276.38 1479.01 Q1278.21 1475.44 1278.21 1468.33 Q1278.21 1461.2 1276.38 1457.66 Q1274.58 1454.1 1270.94 1454.1 M1270.94 1450.39 Q1276.75 1450.39 1279.81 1455 Q1282.89 1459.58 1282.89 1468.33 Q1282.89 1477.06 1279.81 1481.67 Q1276.75 1486.25 1270.94 1486.25 Q1265.13 1486.25 1262.05 1481.67 Q1259 1477.06 1259 1468.33 Q1259 1459.58 1262.05 1455 Q1265.13 1450.39 1270.94 1450.39 Z" fill="#000000" fill-rule="nonzero" fill-opacity="1" /><path clip-path="url(#clip010)" d="M1291.15 1451.02 L1309.51 1451.02 L1309.51 1454.96 L1295.43 1454.96 L1295.43 1463.43 Q1296.45 1463.08 1297.47 1462.92 Q1298.49 1462.73 1299.51 1462.73 Q1305.29 1462.73 1308.67 1465.9 Q1312.05 1469.08 1312.05 1474.49 Q1312.05 1480.07 1308.58 1483.17 Q1305.11 1486.25 1298.79 1486.25 Q1296.61 1486.25 1294.34 1485.88 Q1292.1 1485.51 1289.69 1484.77 L1289.69 1480.07 Q1291.77 1481.2 1294 1481.76 Q1296.22 1482.32 1298.7 1482.32 Q1302.7 1482.32 1305.04 1480.21 Q1307.38 1478.1 1307.38 1474.49 Q1307.38 1470.88 1305.04 1468.77 Q1302.7 1466.67 1298.7 1466.67 Q1296.82 1466.67 1294.95 1467.08 Q1293.09 1467.5 1291.15 1468.38 L1291.15 1451.02 Z" fill="#000000" fill-rule="nonzero" fill-opacity="1" /><path clip-path="url(#clip010)" d="M1331.26 1454.1 Q1327.65 1454.1 1325.82 1457.66 Q1324.02 1461.2 1324.02 1468.33 Q1324.02 1475.44 1325.82 1479.01 Q1327.65 1482.55 1331.26 1482.55 Q1334.9 1482.55 1336.7 1479.01 Q1338.53 1475.44 1338.53 1468.33 Q1338.53 1461.2 1336.7 1457.66 Q1334.9 1454.1 1331.26 1454.1 M1331.26 1450.39 Q1337.07 1450.39 1340.13 1455 Q1343.21 1459.58 1343.21 1468.33 Q1343.21 1477.06 1340.13 1481.67 Q1337.07 1486.25 1331.26 1486.25 Q1325.45 1486.25 1322.38 1481.67 Q1319.32 1477.06 1319.32 1468.33 Q1319.32 1459.58 1322.38 1455 Q1325.45 1450.39 1331.26 1450.39 Z" fill="#000000" fill-rule="nonzero" fill-opacity="1" /><path clip-path="url(#clip010)" d="M1732.94 1454.1 Q1729.33 1454.1 1727.5 1457.66 Q1725.69 1461.2 1725.69 1468.33 Q1725.69 1475.44 1727.5 1479.01 Q1729.33 1482.55 1732.94 1482.55 Q1736.57 1482.55 1738.38 1479.01 Q1740.21 1475.44 1740.21 1468.33 Q1740.21 1461.2 1738.38 1457.66 Q1736.57 1454.1 1732.94 1454.1 M1732.94 1450.39 Q1738.75 1450.39 1741.8 1455 Q1744.88 1459.58 1744.88 1468.33 Q1744.88 1477.06 1741.8 1481.67 Q1738.75 1486.25 1732.94 1486.25 Q1727.13 1486.25 1724.05 1481.67 Q1720.99 1477.06 1720.99 1468.33 Q1720.99 1459.58 1724.05 1455 Q1727.13 1450.39 1732.94 1450.39 Z" fill="#000000" fill-rule="nonzero" fill-opacity="1" /><path clip-path="url(#clip010)" d="M1753.1 1479.7 L1757.98 1479.7 L1757.98 1485.58 L1753.1 1485.58 L1753.1 1479.7 Z" fill="#000000" fill-rule="nonzero" fill-opacity="1" /><path clip-path="url(#clip010)" d="M1778.17 1454.1 Q1774.56 1454.1 1772.73 1457.66 Q1770.92 1461.2 1770.92 1468.33 Q1770.92 1475.44 1772.73 1479.01 Q1774.56 1482.55 1778.17 1482.55 Q1781.8 1482.55 1783.61 1479.01 Q1785.44 1475.44 1785.44 1468.33 Q1785.44 1461.2 1783.61 1457.66 Q1781.8 1454.1 1778.17 1454.1 M1778.17 1450.39 Q1783.98 1450.39 1787.03 1455 Q1790.11 1459.58 1790.11 1468.33 Q1790.11 1477.06 1787.03 1481.67 Q1783.98 1486.25 1778.17 1486.25 Q1772.36 1486.25 1769.28 1481.67 Q1766.22 1477.06 1766.22 1468.33 Q1766.22 1459.58 1769.28 1455 Q1772.36 1450.39 1778.17 1450.39 Z" fill="#000000" fill-rule="nonzero" fill-opacity="1" /><path clip-path="url(#clip010)" d="M1797.15 1451.02 L1819.37 1451.02 L1819.37 1453.01 L1806.83 1485.58 L1801.94 1485.58 L1813.75 1454.96 L1797.15 1454.96 L1797.15 1451.02 Z" fill="#000000" fill-rule="nonzero" fill-opacity="1" /><path clip-path="url(#clip010)" d="M1828.54 1451.02 L1846.9 1451.02 L1846.9 1454.96 L1832.82 1454.96 L1832.82 1463.43 Q1833.84 1463.08 1834.86 1462.92 Q1835.88 1462.73 1836.9 1462.73 Q1842.68 1462.73 1846.06 1465.9 Q1849.44 1469.08 1849.44 1474.49 Q1849.44 1480.07 1845.97 1483.17 Q1842.5 1486.25 1836.18 1486.25 Q1834 1486.25 1831.73 1485.88 Q1829.49 1485.51 1827.08 1484.77 L1827.08 1480.07 Q1829.16 1481.2 1831.39 1481.76 Q1833.61 1482.32 1836.09 1482.32 Q1840.09 1482.32 1842.43 1480.21 Q1844.77 1478.1 1844.77 1474.49 Q1844.77 1470.88 1842.43 1468.77 Q1840.09 1466.67 1836.09 1466.67 Q1834.21 1466.67 1832.34 1467.08 Q1830.48 1467.5 1828.54 1468.38 L1828.54 1451.02 Z" fill="#000000" fill-rule="nonzero" fill-opacity="1" /><path clip-path="url(#clip010)" d="M2239.17 1454.1 Q2235.56 1454.1 2233.73 1457.66 Q2231.93 1461.2 2231.93 1468.33 Q2231.93 1475.44 2233.73 1479.01 Q2235.56 1482.55 2239.17 1482.55 Q2242.8 1482.55 2244.61 1479.01 Q2246.44 1475.44 2246.44 1468.33 Q2246.44 1461.2 2244.61 1457.66 Q2242.8 1454.1 2239.17 1454.1 M2239.17 1450.39 Q2244.98 1450.39 2248.04 1455 Q2251.12 1459.58 2251.12 1468.33 Q2251.12 1477.06 2248.04 1481.67 Q2244.98 1486.25 2239.17 1486.25 Q2233.36 1486.25 2230.28 1481.67 Q2227.23 1477.06 2227.23 1468.33 Q2227.23 1459.58 2230.28 1455 Q2233.36 1450.39 2239.17 1450.39 Z" fill="#000000" fill-rule="nonzero" fill-opacity="1" /><path clip-path="url(#clip010)" d="M2259.33 1479.7 L2264.22 1479.7 L2264.22 1485.58 L2259.33 1485.58 L2259.33 1479.7 Z" fill="#000000" fill-rule="nonzero" fill-opacity="1" /><path clip-path="url(#clip010)" d="M2275.21 1481.64 L2282.85 1481.64 L2282.85 1455.28 L2274.54 1456.95 L2274.54 1452.69 L2282.8 1451.02 L2287.48 1451.02 L2287.48 1481.64 L2295.12 1481.64 L2295.12 1485.58 L2275.21 1485.58 L2275.21 1481.64 Z" fill="#000000" fill-rule="nonzero" fill-opacity="1" /><path clip-path="url(#clip010)" d="M2314.56 1454.1 Q2310.95 1454.1 2309.12 1457.66 Q2307.32 1461.2 2307.32 1468.33 Q2307.32 1475.44 2309.12 1479.01 Q2310.95 1482.55 2314.56 1482.55 Q2318.2 1482.55 2320 1479.01 Q2321.83 1475.44 2321.83 1468.33 Q2321.83 1461.2 2320 1457.66 Q2318.2 1454.1 2314.56 1454.1 M2314.56 1450.39 Q2320.37 1450.39 2323.43 1455 Q2326.51 1459.58 2326.51 1468.33 Q2326.51 1477.06 2323.43 1481.67 Q2320.37 1486.25 2314.56 1486.25 Q2308.75 1486.25 2305.68 1481.67 Q2302.62 1477.06 2302.62 1468.33 Q2302.62 1459.58 2305.68 1455 Q2308.75 1450.39 2314.56 1450.39 Z" fill="#000000" fill-rule="nonzero" fill-opacity="1" /><path clip-path="url(#clip010)" d="M2344.73 1454.1 Q2341.11 1454.1 2339.29 1457.66 Q2337.48 1461.2 2337.48 1468.33 Q2337.48 1475.44 2339.29 1479.01 Q2341.11 1482.55 2344.73 1482.55 Q2348.36 1482.55 2350.17 1479.01 Q2351.99 1475.44 2351.99 1468.33 Q2351.99 1461.2 2350.17 1457.66 Q2348.36 1454.1 2344.73 1454.1 M2344.73 1450.39 Q2350.54 1450.39 2353.59 1455 Q2356.67 1459.58 2356.67 1468.33 Q2356.67 1477.06 2353.59 1481.67 Q2350.54 1486.25 2344.73 1486.25 Q2338.92 1486.25 2335.84 1481.67 Q2332.78 1477.06 2332.78 1468.33 Q2332.78 1459.58 2335.84 1455 Q2338.92 1450.39 2344.73 1450.39 Z" fill="#000000" fill-rule="nonzero" fill-opacity="1" /><path clip-path="url(#clip010)" d="M996.041 1537.81 L996.041 1518.52 L1001.9 1518.52 L1001.9 1568.04 L996.041 1568.04 L996.041 1562.7 Q994.195 1565.88 991.362 1567.44 Q988.561 1568.97 984.614 1568.97 Q978.153 1568.97 974.079 1563.81 Q970.037 1558.65 970.037 1550.25 Q970.037 1541.85 974.079 1536.69 Q978.153 1531.54 984.614 1531.54 Q988.561 1531.54 991.362 1533.1 Q994.195 1534.62 996.041 1537.81 M976.084 1550.25 Q976.084 1556.71 978.726 1560.4 Q981.4 1564.07 986.046 1564.07 Q990.693 1564.07 993.367 1560.4 Q996.041 1556.71 996.041 1550.25 Q996.041 1543.79 993.367 1540.13 Q990.693 1536.44 986.046 1536.44 Q981.4 1536.44 978.726 1540.13 Q976.084 1543.79 976.084 1550.25 Z" fill="#000000" fill-rule="nonzero" fill-opacity="1" /><path clip-path="url(#clip010)" d="M1013.96 1532.4 L1019.82 1532.4 L1019.82 1568.04 L1013.96 1568.04 L1013.96 1532.4 M1013.96 1518.52 L1019.82 1518.52 L1019.82 1525.93 L1013.96 1525.93 L1013.96 1518.52 Z" fill="#000000" fill-rule="nonzero" fill-opacity="1" /><path clip-path="url(#clip010)" d="M1054.8 1533.45 L1054.8 1538.98 Q1052.31 1537.71 1049.64 1537.07 Q1046.97 1536.44 1044.1 1536.44 Q1039.74 1536.44 1037.55 1537.77 Q1035.38 1539.11 1035.38 1541.79 Q1035.38 1543.82 1036.94 1545 Q1038.5 1546.15 1043.21 1547.2 L1045.22 1547.64 Q1051.45 1548.98 1054.06 1551.43 Q1056.71 1553.85 1056.71 1558.21 Q1056.71 1563.17 1052.76 1566.07 Q1048.84 1568.97 1041.97 1568.97 Q1039.1 1568.97 1035.99 1568.39 Q1032.9 1567.85 1029.46 1566.74 L1029.46 1560.69 Q1032.71 1562.38 1035.86 1563.24 Q1039.01 1564.07 1042.1 1564.07 Q1046.23 1564.07 1048.46 1562.66 Q1050.69 1561.23 1050.69 1558.65 Q1050.69 1556.27 1049.07 1554.99 Q1047.48 1553.72 1042.03 1552.54 L1040 1552.07 Q1034.55 1550.92 1032.13 1548.56 Q1029.72 1546.18 1029.72 1542.04 Q1029.72 1537.01 1033.28 1534.27 Q1036.84 1531.54 1043.4 1531.54 Q1046.65 1531.54 1049.51 1532.01 Q1052.38 1532.49 1054.8 1533.45 Z" fill="#000000" fill-rule="nonzero" fill-opacity="1" /><path clip-path="url(#clip010)" d="M1082.23 1550.12 Q1075.13 1550.12 1072.4 1551.75 Q1069.66 1553.37 1069.66 1557.29 Q1069.66 1560.4 1071.7 1562.25 Q1073.77 1564.07 1077.3 1564.07 Q1082.17 1564.07 1085.1 1560.63 Q1088.06 1557.16 1088.06 1551.43 L1088.06 1550.12 L1082.23 1550.12 M1093.91 1547.71 L1093.91 1568.04 L1088.06 1568.04 L1088.06 1562.63 Q1086.05 1565.88 1083.06 1567.44 Q1080.07 1568.97 1075.74 1568.97 Q1070.26 1568.97 1067.02 1565.91 Q1063.8 1562.82 1063.8 1557.67 Q1063.8 1551.65 1067.81 1548.6 Q1071.86 1545.54 1079.85 1545.54 L1088.06 1545.54 L1088.06 1544.97 Q1088.06 1540.93 1085.38 1538.73 Q1082.74 1536.5 1077.94 1536.5 Q1074.88 1536.5 1071.98 1537.23 Q1069.09 1537.97 1066.41 1539.43 L1066.41 1534.02 Q1069.63 1532.78 1072.65 1532.17 Q1075.68 1531.54 1078.54 1531.54 Q1086.27 1531.54 1090.09 1535.55 Q1093.91 1539.56 1093.91 1547.71 Z" fill="#000000" fill-rule="nonzero" fill-opacity="1" /><path clip-path="url(#clip010)" d="M1128.7 1533.45 L1128.7 1538.98 Q1126.22 1537.71 1123.55 1537.07 Q1120.87 1536.44 1118.01 1536.44 Q1113.65 1536.44 1111.45 1537.77 Q1109.29 1539.11 1109.29 1541.79 Q1109.29 1543.82 1110.85 1545 Q1112.41 1546.15 1117.12 1547.2 L1119.12 1547.64 Q1125.36 1548.98 1127.97 1551.43 Q1130.61 1553.85 1130.61 1558.21 Q1130.61 1563.17 1126.66 1566.07 Q1122.75 1568.97 1115.88 1568.97 Q1113.01 1568.97 1109.89 1568.39 Q1106.8 1567.85 1103.37 1566.74 L1103.37 1560.69 Q1106.61 1562.38 1109.76 1563.24 Q1112.92 1564.07 1116 1564.07 Q1120.14 1564.07 1122.37 1562.66 Q1124.6 1561.23 1124.6 1558.65 Q1124.6 1556.27 1122.97 1554.99 Q1121.38 1553.72 1115.94 1552.54 L1113.9 1552.07 Q1108.46 1550.92 1106.04 1548.56 Q1103.62 1546.18 1103.62 1542.04 Q1103.62 1537.01 1107.19 1534.27 Q1110.75 1531.54 1117.31 1531.54 Q1120.55 1531.54 1123.42 1532.01 Q1126.28 1532.49 1128.7 1533.45 Z" fill="#000000" fill-rule="nonzero" fill-opacity="1" /><path clip-path="url(#clip010)" d="M1145.73 1522.27 L1145.73 1532.4 L1157.79 1532.4 L1157.79 1536.95 L1145.73 1536.95 L1145.73 1556.3 Q1145.73 1560.66 1146.91 1561.9 Q1148.12 1563.14 1151.78 1563.14 L1157.79 1563.14 L1157.79 1568.04 L1151.78 1568.04 Q1145 1568.04 1142.42 1565.53 Q1139.84 1562.98 1139.84 1556.3 L1139.84 1536.95 L1135.55 1536.95 L1135.55 1532.4 L1139.84 1532.4 L1139.84 1522.27 L1145.73 1522.27 Z" fill="#000000" fill-rule="nonzero" fill-opacity="1" /><path clip-path="url(#clip010)" d="M1195.99 1548.76 L1195.99 1551.62 L1169.06 1551.62 Q1169.44 1557.67 1172.69 1560.85 Q1175.97 1564 1181.79 1564 Q1185.17 1564 1188.32 1563.17 Q1191.5 1562.35 1194.62 1560.69 L1194.62 1566.23 Q1191.47 1567.57 1188.16 1568.27 Q1184.85 1568.97 1181.44 1568.97 Q1172.91 1568.97 1167.91 1564 Q1162.95 1559.04 1162.95 1550.57 Q1162.95 1541.82 1167.66 1536.69 Q1172.4 1531.54 1180.42 1531.54 Q1187.62 1531.54 1191.79 1536.18 Q1195.99 1540.8 1195.99 1548.76 M1190.13 1547.04 Q1190.07 1542.23 1187.43 1539.37 Q1184.82 1536.5 1180.49 1536.5 Q1175.59 1536.5 1172.63 1539.27 Q1169.7 1542.04 1169.25 1547.07 L1190.13 1547.04 Z" fill="#000000" fill-rule="nonzero" fill-opacity="1" /><path clip-path="url(#clip010)" d="M1226.26 1537.87 Q1225.27 1537.3 1224.09 1537.04 Q1222.95 1536.76 1221.55 1536.76 Q1216.58 1536.76 1213.91 1540 Q1211.27 1543.22 1211.27 1549.27 L1211.27 1568.04 L1205.38 1568.04 L1205.38 1532.4 L1211.27 1532.4 L1211.27 1537.93 Q1213.11 1534.69 1216.07 1533.13 Q1219.03 1531.54 1223.26 1531.54 Q1223.87 1531.54 1224.6 1531.63 Q1225.33 1531.7 1226.22 1531.85 L1226.26 1537.87 Z" fill="#000000" fill-rule="nonzero" fill-opacity="1" /><path clip-path="url(#clip010)" d="M1253.12 1532.4 L1258.98 1532.4 L1258.98 1568.04 L1253.12 1568.04 L1253.12 1532.4 M1253.12 1518.52 L1258.98 1518.52 L1258.98 1525.93 L1253.12 1525.93 L1253.12 1518.52 Z" fill="#000000" fill-rule="nonzero" fill-opacity="1" /><path clip-path="url(#clip010)" d="M1300.86 1546.53 L1300.86 1568.04 L1295.01 1568.04 L1295.01 1546.72 Q1295.01 1541.66 1293.03 1539.14 Q1291.06 1536.63 1287.11 1536.63 Q1282.37 1536.63 1279.63 1539.65 Q1276.9 1542.68 1276.9 1547.9 L1276.9 1568.04 L1271.01 1568.04 L1271.01 1532.4 L1276.9 1532.4 L1276.9 1537.93 Q1279 1534.72 1281.83 1533.13 Q1284.69 1531.54 1288.42 1531.54 Q1294.56 1531.54 1297.71 1535.36 Q1300.86 1539.14 1300.86 1546.53 Z" fill="#000000" fill-rule="nonzero" fill-opacity="1" /><path clip-path="url(#clip010)" d="M1318.34 1522.27 L1318.34 1532.4 L1330.4 1532.4 L1330.4 1536.95 L1318.34 1536.95 L1318.34 1556.3 Q1318.34 1560.66 1319.51 1561.9 Q1320.72 1563.14 1324.38 1563.14 L1330.4 1563.14 L1330.4 1568.04 L1324.38 1568.04 Q1317.6 1568.04 1315.03 1565.53 Q1312.45 1562.98 1312.45 1556.3 L1312.45 1536.95 L1308.15 1536.95 L1308.15 1532.4 L1312.45 1532.4 L1312.45 1522.27 L1318.34 1522.27 Z" fill="#000000" fill-rule="nonzero" fill-opacity="1" /><path clip-path="url(#clip010)" d="M1368.59 1548.76 L1368.59 1551.62 L1341.67 1551.62 Q1342.05 1557.67 1345.3 1560.85 Q1348.57 1564 1354.4 1564 Q1357.77 1564 1360.92 1563.17 Q1364.11 1562.35 1367.23 1560.69 L1367.23 1566.23 Q1364.07 1567.57 1360.76 1568.27 Q1357.45 1568.97 1354.05 1568.97 Q1345.52 1568.97 1340.52 1564 Q1335.56 1559.04 1335.56 1550.57 Q1335.56 1541.82 1340.27 1536.69 Q1345.01 1531.54 1353.03 1531.54 Q1360.22 1531.54 1364.39 1536.18 Q1368.59 1540.8 1368.59 1548.76 M1362.74 1547.04 Q1362.67 1542.23 1360.03 1539.37 Q1357.42 1536.5 1353.09 1536.5 Q1348.19 1536.5 1345.23 1539.27 Q1342.3 1542.04 1341.86 1547.07 L1362.74 1547.04 Z" fill="#000000" fill-rule="nonzero" fill-opacity="1" /><path clip-path="url(#clip010)" d="M1407.84 1546.53 L1407.84 1568.04 L1401.98 1568.04 L1401.98 1546.72 Q1401.98 1541.66 1400.01 1539.14 Q1398.04 1536.63 1394.09 1536.63 Q1389.35 1536.63 1386.61 1539.65 Q1383.87 1542.68 1383.87 1547.9 L1383.87 1568.04 L1377.98 1568.04 L1377.98 1532.4 L1383.87 1532.4 L1383.87 1537.93 Q1385.97 1534.72 1388.8 1533.13 Q1391.67 1531.54 1395.39 1531.54 Q1401.54 1531.54 1404.69 1535.36 Q1407.84 1539.14 1407.84 1546.53 Z" fill="#000000" fill-rule="nonzero" fill-opacity="1" /><path clip-path="url(#clip010)" d="M1442.24 1533.45 L1442.24 1538.98 Q1439.76 1537.71 1437.09 1537.07 Q1434.42 1536.44 1431.55 1536.44 Q1427.19 1536.44 1424.99 1537.77 Q1422.83 1539.11 1422.83 1541.79 Q1422.83 1543.82 1424.39 1545 Q1425.95 1546.15 1430.66 1547.2 L1432.66 1547.64 Q1438.9 1548.98 1441.51 1551.43 Q1444.15 1553.85 1444.15 1558.21 Q1444.15 1563.17 1440.21 1566.07 Q1436.29 1568.97 1429.42 1568.97 Q1426.55 1568.97 1423.43 1568.39 Q1420.35 1567.85 1416.91 1566.74 L1416.91 1560.69 Q1420.16 1562.38 1423.31 1563.24 Q1426.46 1564.07 1429.55 1564.07 Q1433.68 1564.07 1435.91 1562.66 Q1438.14 1561.23 1438.14 1558.65 Q1438.14 1556.27 1436.52 1554.99 Q1434.92 1553.72 1429.48 1552.54 L1427.44 1552.07 Q1422 1550.92 1419.58 1548.56 Q1417.16 1546.18 1417.16 1542.04 Q1417.16 1537.01 1420.73 1534.27 Q1424.29 1531.54 1430.85 1531.54 Q1434.1 1531.54 1436.96 1532.01 Q1439.83 1532.49 1442.24 1533.45 Z" fill="#000000" fill-rule="nonzero" fill-opacity="1" /><path clip-path="url(#clip010)" d="M1453.48 1532.4 L1459.34 1532.4 L1459.34 1568.04 L1453.48 1568.04 L1453.48 1532.4 M1453.48 1518.52 L1459.34 1518.52 L1459.34 1525.93 L1453.48 1525.93 L1453.48 1518.52 Z" fill="#000000" fill-rule="nonzero" fill-opacity="1" /><path clip-path="url(#clip010)" d="M1477.38 1522.27 L1477.38 1532.4 L1489.45 1532.4 L1489.45 1536.95 L1477.38 1536.95 L1477.38 1556.3 Q1477.38 1560.66 1478.56 1561.9 Q1479.77 1563.14 1483.43 1563.14 L1489.45 1563.14 L1489.45 1568.04 L1483.43 1568.04 Q1476.65 1568.04 1474.07 1565.53 Q1471.5 1562.98 1471.5 1556.3 L1471.5 1536.95 L1467.2 1536.95 L1467.2 1532.4 L1471.5 1532.4 L1471.5 1522.27 L1477.38 1522.27 Z" fill="#000000" fill-rule="nonzero" fill-opacity="1" /><path clip-path="url(#clip010)" d="M1511.98 1571.35 Q1509.5 1577.72 1507.14 1579.66 Q1504.79 1581.6 1500.84 1581.6 L1496.16 1581.6 L1496.16 1576.7 L1499.6 1576.7 Q1502.02 1576.7 1503.36 1575.56 Q1504.69 1574.41 1506.32 1570.14 L1507.37 1567.47 L1492.95 1532.4 L1499.15 1532.4 L1510.29 1560.28 L1521.43 1532.4 L1527.64 1532.4 L1511.98 1571.35 Z" fill="#000000" fill-rule="nonzero" fill-opacity="1" /><path clip-path="url(#clip010)" d="M1570.48 1524.09 L1586.94 1568.04 L1580.73 1568.04 L1570.74 1541.69 L1558.45 1568.04 L1552.24 1568.04 L1567.87 1533.86 L1565.52 1527.56 Q1564.02 1523.55 1560.62 1523.55 L1557.56 1523.55 L1557.56 1518.52 L1561.28 1518.58 Q1568.48 1518.68 1570.48 1524.09 Z" fill="#000000" fill-rule="nonzero" fill-opacity="1" /><polyline clip-path="url(#clip010)" style="stroke:#000000; stroke-linecap:round; stroke-linejoin:round; stroke-width:4; stroke-opacity:1; fill:none" points="204.218,1423.18 204.218,47.2441 "/>
<polyline clip-path="url(#clip010)" style="stroke:#000000; stroke-linecap:round; stroke-linejoin:round; stroke-width:4; stroke-opacity:1; fill:none" points="204.218,1178.78 223.116,1178.78 "/>
<polyline clip-path="url(#clip010)" style="stroke:#000000; stroke-linecap:round; stroke-linejoin:round; stroke-width:4; stroke-opacity:1; fill:none" points="204.218,861.9 223.116,861.9 "/>
<polyline clip-path="url(#clip010)" style="stroke:#000000; stroke-linecap:round; stroke-linejoin:round; stroke-width:4; stroke-opacity:1; fill:none" points="204.218,545.018 223.116,545.018 "/>
<polyline clip-path="url(#clip010)" style="stroke:#000000; stroke-linecap:round; stroke-linejoin:round; stroke-width:4; stroke-opacity:1; fill:none" points="204.218,228.135 223.116,228.135 "/>
<path clip-path="url(#clip010)" d="M115.117 1161.5 L137.339 1161.5 L137.339 1163.49 L124.793 1196.06 L119.908 1196.06 L131.714 1165.44 L115.117 1165.44 L115.117 1161.5 Z" fill="#000000" fill-rule="nonzero" fill-opacity="1" /><path clip-path="url(#clip010)" d="M146.598 1195.35 L146.598 1191.09 Q148.357 1191.92 150.163 1192.36 Q151.968 1192.8 153.704 1192.8 Q158.334 1192.8 160.765 1189.7 Q163.218 1186.57 163.565 1180.23 Q162.223 1182.22 160.163 1183.29 Q158.103 1184.35 155.603 1184.35 Q150.417 1184.35 147.385 1181.23 Q144.376 1178.08 144.376 1172.64 Q144.376 1167.31 147.524 1164.1 Q150.672 1160.88 155.903 1160.88 Q161.899 1160.88 165.047 1165.48 Q168.218 1170.07 168.218 1178.82 Q168.218 1186.99 164.329 1191.87 Q160.464 1196.73 153.913 1196.73 Q152.153 1196.73 150.348 1196.39 Q148.542 1196.04 146.598 1195.35 M155.903 1180.69 Q159.052 1180.69 160.88 1178.54 Q162.732 1176.39 162.732 1172.64 Q162.732 1168.91 160.88 1166.76 Q159.052 1164.58 155.903 1164.58 Q152.755 1164.58 150.903 1166.76 Q149.075 1168.91 149.075 1172.64 Q149.075 1176.39 150.903 1178.54 Q152.755 1180.69 155.903 1180.69 Z" fill="#000000" fill-rule="nonzero" fill-opacity="1" /><path clip-path="url(#clip010)" d="M126.112 862.768 Q122.779 862.768 120.857 864.551 Q118.959 866.333 118.959 869.458 Q118.959 872.583 120.857 874.366 Q122.779 876.148 126.112 876.148 Q129.445 876.148 131.367 874.366 Q133.288 872.56 133.288 869.458 Q133.288 866.333 131.367 864.551 Q129.468 862.768 126.112 862.768 M121.436 860.778 Q118.427 860.037 116.737 857.977 Q115.07 855.917 115.07 852.954 Q115.07 848.81 118.01 846.403 Q120.973 843.995 126.112 843.995 Q131.274 843.995 134.214 846.403 Q137.154 848.81 137.154 852.954 Q137.154 855.917 135.464 857.977 Q133.797 860.037 130.811 860.778 Q134.191 861.565 136.066 863.856 Q137.964 866.148 137.964 869.458 Q137.964 874.481 134.885 877.166 Q131.83 879.852 126.112 879.852 Q120.394 879.852 117.316 877.166 Q114.26 874.481 114.26 869.458 Q114.26 866.148 116.158 863.856 Q118.056 861.565 121.436 860.778 M119.723 853.393 Q119.723 856.079 121.39 857.583 Q123.08 859.088 126.112 859.088 Q129.121 859.088 130.811 857.583 Q132.524 856.079 132.524 853.393 Q132.524 850.708 130.811 849.204 Q129.121 847.699 126.112 847.699 Q123.08 847.699 121.39 849.204 Q119.723 850.708 119.723 853.393 Z" fill="#000000" fill-rule="nonzero" fill-opacity="1" /><path clip-path="url(#clip010)" d="M156.274 847.699 Q152.663 847.699 150.834 851.264 Q149.028 854.806 149.028 861.935 Q149.028 869.042 150.834 872.606 Q152.663 876.148 156.274 876.148 Q159.908 876.148 161.714 872.606 Q163.542 869.042 163.542 861.935 Q163.542 854.806 161.714 851.264 Q159.908 847.699 156.274 847.699 M156.274 843.995 Q162.084 843.995 165.14 848.602 Q168.218 853.185 168.218 861.935 Q168.218 870.662 165.14 875.268 Q162.084 879.852 156.274 879.852 Q150.464 879.852 147.385 875.268 Q144.329 870.662 144.329 861.935 Q144.329 853.185 147.385 848.602 Q150.464 843.995 156.274 843.995 Z" fill="#000000" fill-rule="nonzero" fill-opacity="1" /><path clip-path="url(#clip010)" d="M127.339 545.886 Q124.005 545.886 122.084 547.668 Q120.186 549.451 120.186 552.576 Q120.186 555.701 122.084 557.483 Q124.005 559.265 127.339 559.265 Q130.672 559.265 132.593 557.483 Q134.515 555.677 134.515 552.576 Q134.515 549.451 132.593 547.668 Q130.695 545.886 127.339 545.886 M122.663 543.895 Q119.654 543.154 117.964 541.094 Q116.297 539.034 116.297 536.071 Q116.297 531.928 119.237 529.52 Q122.2 527.113 127.339 527.113 Q132.501 527.113 135.441 529.52 Q138.38 531.928 138.38 536.071 Q138.38 539.034 136.691 541.094 Q135.024 543.154 132.038 543.895 Q135.417 544.682 137.292 546.974 Q139.191 549.265 139.191 552.576 Q139.191 557.599 136.112 560.284 Q133.056 562.969 127.339 562.969 Q121.621 562.969 118.543 560.284 Q115.487 557.599 115.487 552.576 Q115.487 549.265 117.385 546.974 Q119.283 544.682 122.663 543.895 M120.95 536.511 Q120.95 539.196 122.617 540.701 Q124.306 542.205 127.339 542.205 Q130.348 542.205 132.038 540.701 Q133.751 539.196 133.751 536.511 Q133.751 533.826 132.038 532.321 Q130.348 530.816 127.339 530.816 Q124.306 530.816 122.617 532.321 Q120.95 533.826 120.95 536.511 Z" fill="#000000" fill-rule="nonzero" fill-opacity="1" /><path clip-path="url(#clip010)" d="M148.311 558.363 L155.95 558.363 L155.95 531.997 L147.64 533.664 L147.64 529.404 L155.903 527.738 L160.579 527.738 L160.579 558.363 L168.218 558.363 L168.218 562.298 L148.311 562.298 L148.311 558.363 Z" fill="#000000" fill-rule="nonzero" fill-opacity="1" /><path clip-path="url(#clip010)" d="M127.709 229.003 Q124.376 229.003 122.455 230.786 Q120.556 232.568 120.556 235.693 Q120.556 238.818 122.455 240.6 Q124.376 242.383 127.709 242.383 Q131.042 242.383 132.964 240.6 Q134.885 238.795 134.885 235.693 Q134.885 232.568 132.964 230.786 Q131.066 229.003 127.709 229.003 M123.033 227.013 Q120.024 226.272 118.334 224.212 Q116.668 222.151 116.668 219.188 Q116.668 215.045 119.607 212.638 Q122.57 210.23 127.709 210.23 Q132.871 210.23 135.811 212.638 Q138.751 215.045 138.751 219.188 Q138.751 222.151 137.061 224.212 Q135.394 226.272 132.408 227.013 Q135.788 227.8 137.663 230.091 Q139.561 232.383 139.561 235.693 Q139.561 240.716 136.482 243.401 Q133.427 246.086 127.709 246.086 Q121.992 246.086 118.913 243.401 Q115.857 240.716 115.857 235.693 Q115.857 232.383 117.756 230.091 Q119.654 227.8 123.033 227.013 M121.32 219.628 Q121.32 222.313 122.987 223.818 Q124.677 225.323 127.709 225.323 Q130.718 225.323 132.408 223.818 Q134.121 222.313 134.121 219.628 Q134.121 216.943 132.408 215.439 Q130.718 213.934 127.709 213.934 Q124.677 213.934 122.987 215.439 Q121.32 216.943 121.32 219.628 Z" fill="#000000" fill-rule="nonzero" fill-opacity="1" /><path clip-path="url(#clip010)" d="M151.899 241.48 L168.218 241.48 L168.218 245.415 L146.274 245.415 L146.274 241.48 Q148.936 238.725 153.519 234.096 Q158.126 229.443 159.306 228.1 Q161.552 225.577 162.431 223.841 Q163.334 222.082 163.334 220.392 Q163.334 217.638 161.39 215.901 Q159.468 214.165 156.366 214.165 Q154.167 214.165 151.714 214.929 Q149.283 215.693 146.505 217.244 L146.505 212.522 Q149.329 211.388 151.783 210.809 Q154.237 210.23 156.274 210.23 Q161.644 210.23 164.839 212.915 Q168.033 215.601 168.033 220.091 Q168.033 222.221 167.223 224.142 Q166.436 226.04 164.329 228.633 Q163.751 229.304 160.649 232.522 Q157.547 235.716 151.899 241.48 Z" fill="#000000" fill-rule="nonzero" fill-opacity="1" /><path clip-path="url(#clip010)" d="M28.3562 1185.11 L28.3562 1179.25 L56.1743 1171.93 L28.3562 1164.64 L28.3562 1157.74 L56.1743 1150.42 L28.3562 1143.13 L28.3562 1137.27 L64.0042 1146.6 L64.0042 1153.5 L34.7856 1161.17 L64.0042 1168.88 L64.0042 1175.78 L28.3562 1185.11 Z" fill="#000000" fill-rule="nonzero" fill-opacity="1" /><path clip-path="url(#clip010)" d="M44.7161 1097.9 L47.5806 1097.9 L47.5806 1124.83 Q53.6281 1124.44 56.8109 1121.2 Q59.9619 1117.92 59.9619 1112.09 Q59.9619 1108.72 59.1344 1105.57 Q58.3069 1102.39 56.6518 1099.27 L62.1899 1099.27 Q63.5267 1102.42 64.227 1105.73 Q64.9272 1109.04 64.9272 1112.44 Q64.9272 1120.97 59.9619 1125.97 Q54.9967 1130.94 46.5303 1130.94 Q37.7774 1130.94 32.6531 1126.23 Q27.4968 1121.48 27.4968 1113.46 Q27.4968 1106.27 32.1438 1102.1 Q36.7589 1097.9 44.7161 1097.9 M42.9973 1103.75 Q38.1912 1103.82 35.3266 1106.46 Q32.4621 1109.07 32.4621 1113.4 Q32.4621 1118.3 35.2312 1121.26 Q38.0002 1124.19 43.0292 1124.63 L42.9973 1103.75 Z" fill="#000000" fill-rule="nonzero" fill-opacity="1" /><path clip-path="url(#clip010)" d="M46.0847 1072.09 Q46.0847 1079.18 47.7079 1081.92 Q49.3312 1084.66 53.2461 1084.66 Q56.3653 1084.66 58.2114 1082.62 Q60.0256 1080.55 60.0256 1077.02 Q60.0256 1072.15 56.5881 1069.22 Q53.1188 1066.26 47.3897 1066.26 L46.0847 1066.26 L46.0847 1072.09 M43.6657 1060.4 L64.0042 1060.4 L64.0042 1066.26 L58.5933 1066.26 Q61.8398 1068.27 63.3994 1071.26 Q64.9272 1074.25 64.9272 1078.58 Q64.9272 1084.05 61.8716 1087.3 Q58.7843 1090.51 53.6281 1090.51 Q47.6125 1090.51 44.5569 1086.5 Q41.5014 1082.46 41.5014 1074.47 L41.5014 1066.26 L40.9285 1066.26 Q36.8862 1066.26 34.6901 1068.93 Q32.4621 1071.58 32.4621 1076.38 Q32.4621 1079.44 33.1941 1082.33 Q33.9262 1085.23 35.3903 1087.9 L29.9795 1087.9 Q28.7381 1084.69 28.1334 1081.67 Q27.4968 1078.64 27.4968 1075.78 Q27.4968 1068.04 31.5072 1064.22 Q35.5176 1060.4 43.6657 1060.4 Z" fill="#000000" fill-rule="nonzero" fill-opacity="1" /><path clip-path="url(#clip010)" d="M14.479 1048.34 L14.479 1042.48 L64.0042 1042.48 L64.0042 1048.34 L14.479 1048.34 Z" fill="#000000" fill-rule="nonzero" fill-opacity="1" /><path clip-path="url(#clip010)" d="M18.2347 1024.44 L28.3562 1024.44 L28.3562 1012.37 L32.9077 1012.37 L32.9077 1024.44 L52.2594 1024.44 Q56.6199 1024.44 57.8613 1023.26 Q59.1026 1022.05 59.1026 1018.39 L59.1026 1012.37 L64.0042 1012.37 L64.0042 1018.39 Q64.0042 1025.17 61.4897 1027.75 Q58.9434 1030.33 52.2594 1030.33 L32.9077 1030.33 L32.9077 1034.62 L28.3562 1034.62 L28.3562 1030.33 L18.2347 1030.33 L18.2347 1024.44 Z" fill="#000000" fill-rule="nonzero" fill-opacity="1" /><path clip-path="url(#clip010)" d="M42.4881 975.04 L64.0042 975.04 L64.0042 980.896 L42.679 980.896 Q37.6183 980.896 35.1038 982.87 Q32.5894 984.843 32.5894 988.79 Q32.5894 993.532 35.6131 996.27 Q38.6368 999.007 43.8567 999.007 L64.0042 999.007 L64.0042 1004.9 L14.479 1004.9 L14.479 999.007 L33.8944 999.007 Q30.6797 996.906 29.0883 994.073 Q27.4968 991.209 27.4968 987.485 Q27.4968 981.342 31.3163 978.191 Q35.1038 975.04 42.4881 975.04 Z" fill="#000000" fill-rule="nonzero" fill-opacity="1" /><path clip-path="url(#clip010)" d="M43.8567 966.319 L43.8567 940.092 L48.44 940.092 L48.44 966.319 L43.8567 966.319 Z" fill="#000000" fill-rule="nonzero" fill-opacity="1" /><path clip-path="url(#clip010)" d="M29.7248 905.113 L35.1993 905.113 Q33.8307 907.595 33.1623 910.11 Q32.4621 912.592 32.4621 915.139 Q32.4621 920.836 36.0905 923.987 Q39.6872 927.138 46.212 927.138 Q52.7369 927.138 56.3653 923.987 Q59.9619 920.836 59.9619 915.139 Q59.9619 912.592 59.2935 910.11 Q58.5933 907.595 57.2247 905.113 L62.6355 905.113 Q63.7814 907.563 64.3543 910.205 Q64.9272 912.815 64.9272 915.775 Q64.9272 923.828 59.8664 928.57 Q54.8057 933.313 46.212 933.313 Q37.491 933.313 32.4939 928.538 Q27.4968 923.732 27.4968 915.393 Q27.4968 912.688 28.0697 910.11 Q28.6108 907.532 29.7248 905.113 Z" fill="#000000" fill-rule="nonzero" fill-opacity="1" /><path clip-path="url(#clip010)" d="M32.4621 881.114 Q32.4621 885.825 36.1542 888.562 Q39.8145 891.299 46.212 891.299 Q52.6095 891.299 56.3017 888.594 Q59.9619 885.856 59.9619 881.114 Q59.9619 876.435 56.2698 873.698 Q52.5777 870.961 46.212 870.961 Q39.8781 870.961 36.186 873.698 Q32.4621 876.435 32.4621 881.114 M27.4968 881.114 Q27.4968 873.475 32.4621 869.115 Q37.4273 864.754 46.212 864.754 Q54.9649 864.754 59.9619 869.115 Q64.9272 873.475 64.9272 881.114 Q64.9272 888.785 59.9619 893.145 Q54.9649 897.474 46.212 897.474 Q37.4273 897.474 32.4621 893.145 Q27.4968 888.785 27.4968 881.114 Z" fill="#000000" fill-rule="nonzero" fill-opacity="1" /><path clip-path="url(#clip010)" d="M42.4881 825.414 L64.0042 825.414 L64.0042 831.27 L42.679 831.27 Q37.6183 831.27 35.1038 833.244 Q32.5894 835.217 32.5894 839.164 Q32.5894 843.906 35.6131 846.644 Q38.6368 849.381 43.8567 849.381 L64.0042 849.381 L64.0042 855.269 L28.3562 855.269 L28.3562 849.381 L33.8944 849.381 Q30.6797 847.28 29.0883 844.447 Q27.4968 841.583 27.4968 837.859 Q27.4968 831.716 31.3163 828.565 Q35.1038 825.414 42.4881 825.414 Z" fill="#000000" fill-rule="nonzero" fill-opacity="1" /><path clip-path="url(#clip010)" d="M29.4065 791.007 L34.9447 791.007 Q33.6716 793.49 33.035 796.164 Q32.3984 798.837 32.3984 801.702 Q32.3984 806.062 33.7352 808.258 Q35.072 810.423 37.7456 810.423 Q39.7826 810.423 40.9603 808.863 Q42.1061 807.304 43.1565 802.593 L43.6021 800.588 Q44.9389 794.349 47.3897 791.739 Q49.8086 789.098 54.1691 789.098 Q59.1344 789.098 62.0308 793.044 Q64.9272 796.959 64.9272 803.834 Q64.9272 806.699 64.3543 809.818 Q63.8132 812.905 62.6992 816.343 L56.6518 816.343 Q58.3387 813.096 59.198 809.945 Q60.0256 806.794 60.0256 803.707 Q60.0256 799.569 58.6251 797.341 Q57.1929 795.113 54.6147 795.113 Q52.2276 795.113 50.9545 796.737 Q49.6813 798.328 48.5037 803.771 L48.0262 805.808 Q46.8804 811.25 44.5251 813.669 Q42.138 816.088 38.0002 816.088 Q32.9713 816.088 30.2341 812.523 Q27.4968 808.959 27.4968 802.402 Q27.4968 799.155 27.9743 796.291 Q28.4517 793.426 29.4065 791.007 Z" fill="#000000" fill-rule="nonzero" fill-opacity="1" /><path clip-path="url(#clip010)" d="M49.9359 780.377 L28.3562 780.377 L28.3562 774.52 L49.7131 774.52 Q54.7739 774.52 57.3202 772.547 Q59.8346 770.573 59.8346 766.627 Q59.8346 761.884 56.8109 759.147 Q53.7872 756.378 48.5673 756.378 L28.3562 756.378 L28.3562 750.521 L64.0042 750.521 L64.0042 756.378 L58.5296 756.378 Q61.7762 758.51 63.3676 761.343 Q64.9272 764.144 64.9272 767.868 Q64.9272 774.011 61.1078 777.194 Q57.2883 780.377 49.9359 780.377 M27.4968 765.64 L27.4968 765.64 Z" fill="#000000" fill-rule="nonzero" fill-opacity="1" /><path clip-path="url(#clip010)" d="M35.1993 710.704 Q31.2526 708.508 29.3747 705.452 Q27.4968 702.397 27.4968 698.259 Q27.4968 692.689 31.4117 689.665 Q35.2948 686.642 42.4881 686.642 L64.0042 686.642 L64.0042 692.53 L42.679 692.53 Q37.5546 692.53 35.072 694.344 Q32.5894 696.158 32.5894 699.882 Q32.5894 704.434 35.6131 707.076 Q38.6368 709.717 43.8567 709.717 L64.0042 709.717 L64.0042 715.606 L42.679 715.606 Q37.5228 715.606 35.072 717.42 Q32.5894 719.234 32.5894 723.022 Q32.5894 727.509 35.6449 730.151 Q38.6686 732.793 43.8567 732.793 L64.0042 732.793 L64.0042 738.681 L28.3562 738.681 L28.3562 732.793 L33.8944 732.793 Q30.616 730.788 29.0564 727.987 Q27.4968 725.186 27.4968 721.335 Q27.4968 717.452 29.4702 714.746 Q31.4436 712.009 35.1993 710.704 Z" fill="#000000" fill-rule="nonzero" fill-opacity="1" /><path clip-path="url(#clip010)" d="M58.657 669.295 L77.5631 669.295 L77.5631 675.183 L28.3562 675.183 L28.3562 669.295 L33.7671 669.295 Q30.5842 667.449 29.0564 664.648 Q27.4968 661.815 27.4968 657.9 Q27.4968 651.407 32.6531 647.365 Q37.8093 643.291 46.212 643.291 Q54.6147 643.291 59.771 647.365 Q64.9272 651.407 64.9272 657.9 Q64.9272 661.815 63.3994 664.648 Q61.8398 667.449 58.657 669.295 M46.212 649.37 Q39.7508 649.37 36.0905 652.044 Q32.3984 654.686 32.3984 659.333 Q32.3984 663.98 36.0905 666.653 Q39.7508 669.295 46.212 669.295 Q52.6732 669.295 56.3653 666.653 Q60.0256 663.98 60.0256 659.333 Q60.0256 654.686 56.3653 652.044 Q52.6732 649.37 46.212 649.37 Z" fill="#000000" fill-rule="nonzero" fill-opacity="1" /><path clip-path="url(#clip010)" d="M18.2347 627.791 L28.3562 627.791 L28.3562 615.728 L32.9077 615.728 L32.9077 627.791 L52.2594 627.791 Q56.6199 627.791 57.8613 626.613 Q59.1026 625.404 59.1026 621.743 L59.1026 615.728 L64.0042 615.728 L64.0042 621.743 Q64.0042 628.523 61.4897 631.101 Q58.9434 633.679 52.2594 633.679 L32.9077 633.679 L32.9077 637.976 L28.3562 637.976 L28.3562 633.679 L18.2347 633.679 L18.2347 627.791 Z" fill="#000000" fill-rule="nonzero" fill-opacity="1" /><path clip-path="url(#clip010)" d="M28.3562 608.025 L28.3562 602.169 L64.0042 602.169 L64.0042 608.025 L28.3562 608.025 M14.479 608.025 L14.479 602.169 L21.895 602.169 L21.895 608.025 L14.479 608.025 Z" fill="#000000" fill-rule="nonzero" fill-opacity="1" /><path clip-path="url(#clip010)" d="M32.4621 576.101 Q32.4621 580.812 36.1542 583.549 Q39.8145 586.286 46.212 586.286 Q52.6095 586.286 56.3017 583.581 Q59.9619 580.844 59.9619 576.101 Q59.9619 571.422 56.2698 568.685 Q52.5777 565.948 46.212 565.948 Q39.8781 565.948 36.186 568.685 Q32.4621 571.422 32.4621 576.101 M27.4968 576.101 Q27.4968 568.462 32.4621 564.102 Q37.4273 559.741 46.212 559.741 Q54.9649 559.741 59.9619 564.102 Q64.9272 568.462 64.9272 576.101 Q64.9272 583.772 59.9619 588.132 Q54.9649 592.461 46.212 592.461 Q37.4273 592.461 32.4621 588.132 Q27.4968 583.772 27.4968 576.101 Z" fill="#000000" fill-rule="nonzero" fill-opacity="1" /><path clip-path="url(#clip010)" d="M42.4881 520.401 L64.0042 520.401 L64.0042 526.258 L42.679 526.258 Q37.6183 526.258 35.1038 528.231 Q32.5894 530.204 32.5894 534.151 Q32.5894 538.894 35.6131 541.631 Q38.6368 544.368 43.8567 544.368 L64.0042 544.368 L64.0042 550.256 L28.3562 550.256 L28.3562 544.368 L33.8944 544.368 Q30.6797 542.267 29.0883 539.435 Q27.4968 536.57 27.4968 532.846 Q27.4968 526.703 31.3163 523.552 Q35.1038 520.401 42.4881 520.401 Z" fill="#000000" fill-rule="nonzero" fill-opacity="1" /><path clip-path="url(#clip010)" d="M33.8307 467.343 Q33.2578 468.33 33.0032 469.507 Q32.7167 470.653 32.7167 472.054 Q32.7167 477.019 35.9632 479.693 Q39.1779 482.334 45.2253 482.334 L64.0042 482.334 L64.0042 488.223 L28.3562 488.223 L28.3562 482.334 L33.8944 482.334 Q30.6479 480.488 29.0883 477.528 Q27.4968 474.568 27.4968 470.335 Q27.4968 469.73 27.5923 468.998 Q27.656 468.266 27.8151 467.375 L33.8307 467.343 Z" fill="#000000" fill-rule="nonzero" fill-opacity="1" /><path clip-path="url(#clip010)" d="M46.0847 444.999 Q46.0847 452.097 47.7079 454.834 Q49.3312 457.572 53.2461 457.572 Q56.3653 457.572 58.2114 455.535 Q60.0256 453.466 60.0256 449.933 Q60.0256 445.063 56.5881 442.135 Q53.1188 439.175 47.3897 439.175 L46.0847 439.175 L46.0847 444.999 M43.6657 433.318 L64.0042 433.318 L64.0042 439.175 L58.5933 439.175 Q61.8398 441.18 63.3994 444.172 Q64.9272 447.164 64.9272 451.492 Q64.9272 456.967 61.8716 460.213 Q58.7843 463.428 53.6281 463.428 Q47.6125 463.428 44.5569 459.418 Q41.5014 455.376 41.5014 447.387 L41.5014 439.175 L40.9285 439.175 Q36.8862 439.175 34.6901 441.848 Q32.4621 444.49 32.4621 449.296 Q32.4621 452.352 33.1941 455.248 Q33.9262 458.145 35.3903 460.818 L29.9795 460.818 Q28.7381 457.604 28.1334 454.58 Q27.4968 451.556 27.4968 448.692 Q27.4968 440.957 31.5072 437.138 Q35.5176 433.318 43.6657 433.318 Z" fill="#000000" fill-rule="nonzero" fill-opacity="1" /><path clip-path="url(#clip010)" d="M18.2347 415.463 L28.3562 415.463 L28.3562 403.4 L32.9077 403.4 L32.9077 415.463 L52.2594 415.463 Q56.6199 415.463 57.8613 414.285 Q59.1026 413.075 59.1026 409.415 L59.1026 403.4 L64.0042 403.4 L64.0042 409.415 Q64.0042 416.195 61.4897 418.773 Q58.9434 421.351 52.2594 421.351 L32.9077 421.351 L32.9077 425.648 L28.3562 425.648 L28.3562 421.351 L18.2347 421.351 L18.2347 415.463 Z" fill="#000000" fill-rule="nonzero" fill-opacity="1" /><path clip-path="url(#clip010)" d="M28.3562 395.697 L28.3562 389.841 L64.0042 389.841 L64.0042 395.697 L28.3562 395.697 M14.479 395.697 L14.479 389.841 L21.895 389.841 L21.895 395.697 L14.479 395.697 Z" fill="#000000" fill-rule="nonzero" fill-opacity="1" /><path clip-path="url(#clip010)" d="M32.4621 363.773 Q32.4621 368.484 36.1542 371.221 Q39.8145 373.958 46.212 373.958 Q52.6095 373.958 56.3017 371.253 Q59.9619 368.515 59.9619 363.773 Q59.9619 359.094 56.2698 356.357 Q52.5777 353.62 46.212 353.62 Q39.8781 353.62 36.186 356.357 Q32.4621 359.094 32.4621 363.773 M27.4968 363.773 Q27.4968 356.134 32.4621 351.774 Q37.4273 347.413 46.212 347.413 Q54.9649 347.413 59.9619 351.774 Q64.9272 356.134 64.9272 363.773 Q64.9272 371.444 59.9619 375.804 Q54.9649 380.133 46.212 380.133 Q37.4273 380.133 32.4621 375.804 Q27.4968 371.444 27.4968 363.773 Z" fill="#000000" fill-rule="nonzero" fill-opacity="1" /><path clip-path="url(#clip010)" d="M58.657 311.32 L77.5631 311.32 L77.5631 317.208 L28.3562 317.208 L28.3562 311.32 L33.7671 311.32 Q30.5842 309.474 29.0564 306.673 Q27.4968 303.84 27.4968 299.925 Q27.4968 293.432 32.6531 289.39 Q37.8093 285.316 46.212 285.316 Q54.6147 285.316 59.771 289.39 Q64.9272 293.432 64.9272 299.925 Q64.9272 303.84 63.3994 306.673 Q61.8398 309.474 58.657 311.32 M46.212 291.395 Q39.7508 291.395 36.0905 294.068 Q32.3984 296.71 32.3984 301.357 Q32.3984 306.004 36.0905 308.678 Q39.7508 311.32 46.212 311.32 Q52.6732 311.32 56.3653 308.678 Q60.0256 306.004 60.0256 301.357 Q60.0256 296.71 56.3653 294.068 Q52.6732 291.395 46.212 291.395 Z" fill="#000000" fill-rule="nonzero" fill-opacity="1" /><polyline clip-path="url(#clip011)" style="stroke:#009af9; stroke-linecap:round; stroke-linejoin:round; stroke-width:4; stroke-opacity:1; fill:none" points="265.026,86.1857 334.92,160.639 404.814,233.256 474.707,304.042 544.601,372.997 614.495,440.119 684.389,505.402 754.283,568.833 824.177,630.4 894.071,690.083 963.965,747.859 1033.86,803.699 1103.75,857.389 1173.65,908.926 1243.54,958.292 1313.43,1005.45 1383.33,1050.37 1453.22,1092.98 1523.12,1133.22 1593.01,1171.01 1662.9,1206.26 1732.8,1238.85 1802.69,1268.66 1872.58,1295.56 1942.48,1319.37 2012.37,1339.89 2082.27,1356.92 2152.16,1370.2 2222.05,1379.42 2291.95,1384.24 "/>
</svg>
