<?xml version="1.0" encoding="utf-8"?>
<svg xmlns="http://www.w3.org/2000/svg" xmlns:xlink="http://www.w3.org/1999/xlink" width="600" height="400" viewBox="0 0 2400 1600">
<defs>
  <clipPath id="clip700">
    <rect x="0" y="0" width="2400" height="1600"/>
  </clipPath>
</defs>
<path clip-path="url(#clip700)" d="M0 1600 L2400 1600 L2400 0 L0 0  Z" fill="#ffffff" fill-rule="evenodd" fill-opacity="1"/>
<defs>
  <clipPath id="clip701">
    <rect x="202" y="47" width="2152" height="1377"/>
  </clipPath>
</defs>
<path clip-path="url(#clip700)" d="M202.227 1423.18 L2352.76 1423.18 L2352.76 47.2441 L202.227 47.2441  Z" fill="#ffffff" fill-rule="evenodd" fill-opacity="1"/>
<polyline clip-path="url(#clip701)" style="stroke:#000000; stroke-linecap:round; stroke-linejoin:round; stroke-width:2; stroke-opacity:0.1; fill:none" points="261.061,1423.18 261.061,47.2441 "/>
<polyline clip-path="url(#clip701)" style="stroke:#000000; stroke-linecap:round; stroke-linejoin:round; stroke-width:2; stroke-opacity:0.1; fill:none" points="776.403,1423.18 776.403,47.2441 "/>
<polyline clip-path="url(#clip701)" style="stroke:#000000; stroke-linecap:round; stroke-linejoin:round; stroke-width:2; stroke-opacity:0.1; fill:none" points="1291.75,1423.18 1291.75,47.2441 "/>
<polyline clip-path="url(#clip701)" style="stroke:#000000; stroke-linecap:round; stroke-linejoin:round; stroke-width:2; stroke-opacity:0.1; fill:none" points="1807.09,1423.18 1807.09,47.2441 "/>
<polyline clip-path="url(#clip701)" style="stroke:#000000; stroke-linecap:round; stroke-linejoin:round; stroke-width:2; stroke-opacity:0.1; fill:none" points="2322.43,1423.18 2322.43,47.2441 "/>
<polyline clip-path="url(#clip701)" style="stroke:#000000; stroke-linecap:round; stroke-linejoin:round; stroke-width:2; stroke-opacity:0.1; fill:none" points="202.227,1403 2352.76,1403 "/>
<polyline clip-path="url(#clip701)" style="stroke:#000000; stroke-linecap:round; stroke-linejoin:round; stroke-width:2; stroke-opacity:0.1; fill:none" points="202.227,1196.9 2352.76,1196.9 "/>
<polyline clip-path="url(#clip701)" style="stroke:#000000; stroke-linecap:round; stroke-linejoin:round; stroke-width:2; stroke-opacity:0.1; fill:none" points="202.227,990.798 2352.76,990.798 "/>
<polyline clip-path="url(#clip701)" style="stroke:#000000; stroke-linecap:round; stroke-linejoin:round; stroke-width:2; stroke-opacity:0.1; fill:none" points="202.227,784.696 2352.76,784.696 "/>
<polyline clip-path="url(#clip701)" style="stroke:#000000; stroke-linecap:round; stroke-linejoin:round; stroke-width:2; stroke-opacity:0.1; fill:none" points="202.227,578.594 2352.76,578.594 "/>
<polyline clip-path="url(#clip701)" style="stroke:#000000; stroke-linecap:round; stroke-linejoin:round; stroke-width:2; stroke-opacity:0.1; fill:none" points="202.227,372.492 2352.76,372.492 "/>
<polyline clip-path="url(#clip701)" style="stroke:#000000; stroke-linecap:round; stroke-linejoin:round; stroke-width:2; stroke-opacity:0.1; fill:none" points="202.227,166.391 2352.76,166.391 "/>
<polyline clip-path="url(#clip700)" style="stroke:#000000; stroke-linecap:round; stroke-linejoin:round; stroke-width:4; stroke-opacity:1; fill:none" points="202.227,1423.18 2352.76,1423.18 "/>
<polyline clip-path="url(#clip700)" style="stroke:#000000; stroke-linecap:round; stroke-linejoin:round; stroke-width:4; stroke-opacity:1; fill:none" points="261.061,1423.18 261.061,1404.28 "/>
<polyline clip-path="url(#clip700)" style="stroke:#000000; stroke-linecap:round; stroke-linejoin:round; stroke-width:4; stroke-opacity:1; fill:none" points="776.403,1423.18 776.403,1404.28 "/>
<polyline clip-path="url(#clip700)" style="stroke:#000000; stroke-linecap:round; stroke-linejoin:round; stroke-width:4; stroke-opacity:1; fill:none" points="1291.75,1423.18 1291.75,1404.28 "/>
<polyline clip-path="url(#clip700)" style="stroke:#000000; stroke-linecap:round; stroke-linejoin:round; stroke-width:4; stroke-opacity:1; fill:none" points="1807.09,1423.18 1807.09,1404.28 "/>
<polyline clip-path="url(#clip700)" style="stroke:#000000; stroke-linecap:round; stroke-linejoin:round; stroke-width:4; stroke-opacity:1; fill:none" points="2322.43,1423.18 2322.43,1404.28 "/>
<path clip-path="url(#clip700)" d="M223.364 1454.1 Q219.753 1454.1 217.924 1457.66 Q216.119 1461.2 216.119 1468.33 Q216.119 1475.44 217.924 1479.01 Q219.753 1482.55 223.364 1482.55 Q226.998 1482.55 228.804 1479.01 Q230.633 1475.44 230.633 1468.33 Q230.633 1461.2 228.804 1457.66 Q226.998 1454.1 223.364 1454.1 M223.364 1450.39 Q229.174 1450.39 232.23 1455 Q235.308 1459.58 235.308 1468.33 Q235.308 1477.06 232.23 1481.67 Q229.174 1486.25 223.364 1486.25 Q217.554 1486.25 214.475 1481.67 Q211.42 1477.06 211.42 1468.33 Q211.42 1459.58 214.475 1455 Q217.554 1450.39 223.364 1450.39 Z" fill="#000000" fill-rule="nonzero" fill-opacity="1" /><path clip-path="url(#clip700)" d="M243.526 1479.7 L248.41 1479.7 L248.41 1485.58 L243.526 1485.58 L243.526 1479.7 Z" fill="#000000" fill-rule="nonzero" fill-opacity="1" /><path clip-path="url(#clip700)" d="M268.595 1454.1 Q264.984 1454.1 263.156 1457.66 Q261.35 1461.2 261.35 1468.33 Q261.35 1475.44 263.156 1479.01 Q264.984 1482.55 268.595 1482.55 Q272.23 1482.55 274.035 1479.01 Q275.864 1475.44 275.864 1468.33 Q275.864 1461.2 274.035 1457.66 Q272.23 1454.1 268.595 1454.1 M268.595 1450.39 Q274.405 1450.39 277.461 1455 Q280.54 1459.58 280.54 1468.33 Q280.54 1477.06 277.461 1481.67 Q274.405 1486.25 268.595 1486.25 Q262.785 1486.25 259.706 1481.67 Q256.651 1477.06 256.651 1468.33 Q256.651 1459.58 259.706 1455 Q262.785 1450.39 268.595 1450.39 Z" fill="#000000" fill-rule="nonzero" fill-opacity="1" /><path clip-path="url(#clip700)" d="M298.757 1454.1 Q295.146 1454.1 293.317 1457.66 Q291.512 1461.2 291.512 1468.33 Q291.512 1475.44 293.317 1479.01 Q295.146 1482.55 298.757 1482.55 Q302.391 1482.55 304.197 1479.01 Q306.026 1475.44 306.026 1468.33 Q306.026 1461.2 304.197 1457.66 Q302.391 1454.1 298.757 1454.1 M298.757 1450.39 Q304.567 1450.39 307.623 1455 Q310.702 1459.58 310.702 1468.33 Q310.702 1477.06 307.623 1481.67 Q304.567 1486.25 298.757 1486.25 Q292.947 1486.25 289.868 1481.67 Q286.813 1477.06 286.813 1468.33 Q286.813 1459.58 289.868 1455 Q292.947 1450.39 298.757 1450.39 Z" fill="#000000" fill-rule="nonzero" fill-opacity="1" /><path clip-path="url(#clip700)" d="M739.204 1454.1 Q735.593 1454.1 733.764 1457.66 Q731.959 1461.2 731.959 1468.33 Q731.959 1475.44 733.764 1479.01 Q735.593 1482.55 739.204 1482.55 Q742.838 1482.55 744.644 1479.01 Q746.473 1475.44 746.473 1468.33 Q746.473 1461.2 744.644 1457.66 Q742.838 1454.1 739.204 1454.1 M739.204 1450.39 Q745.014 1450.39 748.07 1455 Q751.149 1459.58 751.149 1468.33 Q751.149 1477.06 748.07 1481.67 Q745.014 1486.25 739.204 1486.25 Q733.394 1486.25 730.315 1481.67 Q727.26 1477.06 727.26 1468.33 Q727.26 1459.58 730.315 1455 Q733.394 1450.39 739.204 1450.39 Z" fill="#000000" fill-rule="nonzero" fill-opacity="1" /><path clip-path="url(#clip700)" d="M759.366 1479.7 L764.25 1479.7 L764.25 1485.58 L759.366 1485.58 L759.366 1479.7 Z" fill="#000000" fill-rule="nonzero" fill-opacity="1" /><path clip-path="url(#clip700)" d="M778.463 1481.64 L794.783 1481.64 L794.783 1485.58 L772.838 1485.58 L772.838 1481.64 Q775.5 1478.89 780.084 1474.26 Q784.69 1469.61 785.871 1468.27 Q788.116 1465.74 788.996 1464.01 Q789.898 1462.25 789.898 1460.56 Q789.898 1457.8 787.954 1456.07 Q786.033 1454.33 782.931 1454.33 Q780.732 1454.33 778.278 1455.09 Q775.848 1455.86 773.07 1457.41 L773.07 1452.69 Q775.894 1451.55 778.348 1450.97 Q780.801 1450.39 782.838 1450.39 Q788.209 1450.39 791.403 1453.08 Q794.597 1455.77 794.597 1460.26 Q794.597 1462.39 793.787 1464.31 Q793 1466.2 790.894 1468.8 Q790.315 1469.47 787.213 1472.69 Q784.111 1475.88 778.463 1481.64 Z" fill="#000000" fill-rule="nonzero" fill-opacity="1" /><path clip-path="url(#clip700)" d="M804.644 1451.02 L823 1451.02 L823 1454.96 L808.926 1454.96 L808.926 1463.43 Q809.945 1463.08 810.963 1462.92 Q811.982 1462.73 813 1462.73 Q818.787 1462.73 822.167 1465.9 Q825.546 1469.08 825.546 1474.49 Q825.546 1480.07 822.074 1483.17 Q818.602 1486.25 812.283 1486.25 Q810.107 1486.25 807.838 1485.88 Q805.593 1485.51 803.185 1484.77 L803.185 1480.07 Q805.269 1481.2 807.491 1481.76 Q809.713 1482.32 812.19 1482.32 Q816.195 1482.32 818.532 1480.21 Q820.87 1478.1 820.87 1474.49 Q820.87 1470.88 818.532 1468.77 Q816.195 1466.67 812.19 1466.67 Q810.315 1466.67 808.44 1467.08 Q806.588 1467.5 804.644 1468.38 L804.644 1451.02 Z" fill="#000000" fill-rule="nonzero" fill-opacity="1" /><path clip-path="url(#clip700)" d="M1254.05 1454.1 Q1250.44 1454.1 1248.61 1457.66 Q1246.8 1461.2 1246.8 1468.33 Q1246.8 1475.44 1248.61 1479.01 Q1250.44 1482.55 1254.05 1482.55 Q1257.68 1482.55 1259.49 1479.01 Q1261.32 1475.44 1261.32 1468.33 Q1261.32 1461.2 1259.49 1457.66 Q1257.68 1454.1 1254.05 1454.1 M1254.05 1450.39 Q1259.86 1450.39 1262.91 1455 Q1265.99 1459.58 1265.99 1468.33 Q1265.99 1477.06 1262.91 1481.67 Q1259.86 1486.25 1254.05 1486.25 Q1248.24 1486.25 1245.16 1481.67 Q1242.1 1477.06 1242.1 1468.33 Q1242.1 1459.58 1245.16 1455 Q1248.24 1450.39 1254.05 1450.39 Z" fill="#000000" fill-rule="nonzero" fill-opacity="1" /><path clip-path="url(#clip700)" d="M1274.21 1479.7 L1279.1 1479.7 L1279.1 1485.58 L1274.21 1485.58 L1274.21 1479.7 Z" fill="#000000" fill-rule="nonzero" fill-opacity="1" /><path clip-path="url(#clip700)" d="M1289.33 1451.02 L1307.68 1451.02 L1307.68 1454.96 L1293.61 1454.96 L1293.61 1463.43 Q1294.63 1463.08 1295.65 1462.92 Q1296.66 1462.73 1297.68 1462.73 Q1303.47 1462.73 1306.85 1465.9 Q1310.23 1469.08 1310.23 1474.49 Q1310.23 1480.07 1306.76 1483.17 Q1303.28 1486.25 1296.97 1486.25 Q1294.79 1486.25 1292.52 1485.88 Q1290.28 1485.51 1287.87 1484.77 L1287.87 1480.07 Q1289.95 1481.2 1292.17 1481.76 Q1294.4 1482.32 1296.87 1482.32 Q1300.88 1482.32 1303.22 1480.21 Q1305.55 1478.1 1305.55 1474.49 Q1305.55 1470.88 1303.22 1468.77 Q1300.88 1466.67 1296.87 1466.67 Q1295 1466.67 1293.12 1467.08 Q1291.27 1467.5 1289.33 1468.38 L1289.33 1451.02 Z" fill="#000000" fill-rule="nonzero" fill-opacity="1" /><path clip-path="url(#clip700)" d="M1329.44 1454.1 Q1325.83 1454.1 1324 1457.66 Q1322.2 1461.2 1322.2 1468.33 Q1322.2 1475.44 1324 1479.01 Q1325.83 1482.55 1329.44 1482.55 Q1333.08 1482.55 1334.88 1479.01 Q1336.71 1475.44 1336.71 1468.33 Q1336.71 1461.2 1334.88 1457.66 Q1333.08 1454.1 1329.44 1454.1 M1329.44 1450.39 Q1335.25 1450.39 1338.31 1455 Q1341.39 1459.58 1341.39 1468.33 Q1341.39 1477.06 1338.31 1481.67 Q1335.25 1486.25 1329.44 1486.25 Q1323.63 1486.25 1320.55 1481.67 Q1317.5 1477.06 1317.5 1468.33 Q1317.5 1459.58 1320.55 1455 Q1323.63 1450.39 1329.44 1450.39 Z" fill="#000000" fill-rule="nonzero" fill-opacity="1" /><path clip-path="url(#clip700)" d="M1769.89 1454.1 Q1766.28 1454.1 1764.45 1457.66 Q1762.64 1461.2 1762.64 1468.33 Q1762.64 1475.44 1764.45 1479.01 Q1766.28 1482.55 1769.89 1482.55 Q1773.52 1482.55 1775.33 1479.01 Q1777.16 1475.44 1777.16 1468.33 Q1777.16 1461.2 1775.33 1457.66 Q1773.52 1454.1 1769.89 1454.1 M1769.89 1450.39 Q1775.7 1450.39 1778.75 1455 Q1781.83 1459.58 1781.83 1468.33 Q1781.83 1477.06 1778.75 1481.67 Q1775.7 1486.25 1769.89 1486.25 Q1764.08 1486.25 1761 1481.67 Q1757.94 1477.06 1757.94 1468.33 Q1757.94 1459.58 1761 1455 Q1764.08 1450.39 1769.89 1450.39 Z" fill="#000000" fill-rule="nonzero" fill-opacity="1" /><path clip-path="url(#clip700)" d="M1790.05 1479.7 L1794.94 1479.7 L1794.94 1485.58 L1790.05 1485.58 L1790.05 1479.7 Z" fill="#000000" fill-rule="nonzero" fill-opacity="1" /><path clip-path="url(#clip700)" d="M1803.94 1451.02 L1826.16 1451.02 L1826.16 1453.01 L1813.62 1485.58 L1808.73 1485.58 L1820.54 1454.96 L1803.94 1454.96 L1803.94 1451.02 Z" fill="#000000" fill-rule="nonzero" fill-opacity="1" /><path clip-path="url(#clip700)" d="M1835.33 1451.02 L1853.68 1451.02 L1853.68 1454.96 L1839.61 1454.96 L1839.61 1463.43 Q1840.63 1463.08 1841.65 1462.92 Q1842.67 1462.73 1843.68 1462.73 Q1849.47 1462.73 1852.85 1465.9 Q1856.23 1469.08 1856.23 1474.49 Q1856.23 1480.07 1852.76 1483.17 Q1849.29 1486.25 1842.97 1486.25 Q1840.79 1486.25 1838.52 1485.88 Q1836.28 1485.51 1833.87 1484.77 L1833.87 1480.07 Q1835.95 1481.2 1838.18 1481.76 Q1840.4 1482.32 1842.87 1482.32 Q1846.88 1482.32 1849.22 1480.21 Q1851.56 1478.1 1851.56 1474.49 Q1851.56 1470.88 1849.22 1468.77 Q1846.88 1466.67 1842.87 1466.67 Q1841 1466.67 1839.12 1467.08 Q1837.27 1467.5 1835.33 1468.38 L1835.33 1451.02 Z" fill="#000000" fill-rule="nonzero" fill-opacity="1" /><path clip-path="url(#clip700)" d="M2274.5 1481.64 L2282.14 1481.64 L2282.14 1455.28 L2273.83 1456.95 L2273.83 1452.69 L2282.09 1451.02 L2286.77 1451.02 L2286.77 1481.64 L2294.41 1481.64 L2294.41 1485.58 L2274.5 1485.58 L2274.5 1481.64 Z" fill="#000000" fill-rule="nonzero" fill-opacity="1" /><path clip-path="url(#clip700)" d="M2303.85 1479.7 L2308.74 1479.7 L2308.74 1485.58 L2303.85 1485.58 L2303.85 1479.7 Z" fill="#000000" fill-rule="nonzero" fill-opacity="1" /><path clip-path="url(#clip700)" d="M2328.92 1454.1 Q2325.31 1454.1 2323.48 1457.66 Q2321.68 1461.2 2321.68 1468.33 Q2321.68 1475.44 2323.48 1479.01 Q2325.31 1482.55 2328.92 1482.55 Q2332.56 1482.55 2334.36 1479.01 Q2336.19 1475.44 2336.19 1468.33 Q2336.19 1461.2 2334.36 1457.66 Q2332.56 1454.1 2328.92 1454.1 M2328.92 1450.39 Q2334.73 1450.39 2337.79 1455 Q2340.87 1459.58 2340.87 1468.33 Q2340.87 1477.06 2337.79 1481.67 Q2334.73 1486.25 2328.92 1486.25 Q2323.11 1486.25 2320.03 1481.67 Q2316.98 1477.06 2316.98 1468.33 Q2316.98 1459.58 2320.03 1455 Q2323.11 1450.39 2328.92 1450.39 Z" fill="#000000" fill-rule="nonzero" fill-opacity="1" /><path clip-path="url(#clip700)" d="M2359.09 1454.1 Q2355.47 1454.1 2353.65 1457.66 Q2351.84 1461.2 2351.84 1468.33 Q2351.84 1475.44 2353.65 1479.01 Q2355.47 1482.55 2359.09 1482.55 Q2362.72 1482.55 2364.53 1479.01 Q2366.35 1475.44 2366.35 1468.33 Q2366.35 1461.2 2364.53 1457.66 Q2362.72 1454.1 2359.09 1454.1 M2359.09 1450.39 Q2364.9 1450.39 2367.95 1455 Q2371.03 1459.58 2371.03 1468.33 Q2371.03 1477.06 2367.95 1481.67 Q2364.9 1486.25 2359.09 1486.25 Q2353.28 1486.25 2350.2 1481.67 Q2347.14 1477.06 2347.14 1468.33 Q2347.14 1459.58 2350.2 1455 Q2353.28 1450.39 2359.09 1450.39 Z" fill="#000000" fill-rule="nonzero" fill-opacity="1" /><path clip-path="url(#clip700)" d="M877.296 1533.45 L877.296 1538.98 Q874.813 1537.71 872.139 1537.07 Q869.466 1536.44 866.601 1536.44 Q862.241 1536.44 860.045 1537.77 Q857.88 1539.11 857.88 1541.79 Q857.88 1543.82 859.44 1545 Q860.999 1546.15 865.71 1547.2 L867.715 1547.64 Q873.954 1548.98 876.564 1551.43 Q879.205 1553.85 879.205 1558.21 Q879.205 1563.17 875.259 1566.07 Q871.344 1568.97 864.469 1568.97 Q861.604 1568.97 858.485 1568.39 Q855.398 1567.85 851.96 1566.74 L851.96 1560.69 Q855.207 1562.38 858.358 1563.24 Q861.509 1564.07 864.596 1564.07 Q868.734 1564.07 870.962 1562.66 Q873.19 1561.23 873.19 1558.65 Q873.19 1556.27 871.566 1554.99 Q869.975 1553.72 864.532 1552.54 L862.495 1552.07 Q857.053 1550.92 854.634 1548.56 Q852.215 1546.18 852.215 1542.04 Q852.215 1537.01 855.78 1534.27 Q859.344 1531.54 865.901 1531.54 Q869.148 1531.54 872.012 1532.01 Q874.877 1532.49 877.296 1533.45 Z" fill="#000000" fill-rule="nonzero" fill-opacity="1" /><path clip-path="url(#clip700)" d="M894.197 1562.7 L894.197 1581.6 L888.308 1581.6 L888.308 1532.4 L894.197 1532.4 L894.197 1537.81 Q896.043 1534.62 898.844 1533.1 Q901.676 1531.54 905.591 1531.54 Q912.084 1531.54 916.126 1536.69 Q920.2 1541.85 920.2 1550.25 Q920.2 1558.65 916.126 1563.81 Q912.084 1568.97 905.591 1568.97 Q901.676 1568.97 898.844 1567.44 Q896.043 1565.88 894.197 1562.7 M914.121 1550.25 Q914.121 1543.79 911.448 1540.13 Q908.806 1536.44 904.159 1536.44 Q899.512 1536.44 896.838 1540.13 Q894.197 1543.79 894.197 1550.25 Q894.197 1556.71 896.838 1560.4 Q899.512 1564.07 904.159 1564.07 Q908.806 1564.07 911.448 1560.4 Q914.121 1556.71 914.121 1550.25 Z" fill="#000000" fill-rule="nonzero" fill-opacity="1" /><path clip-path="url(#clip700)" d="M960.4 1548.76 L960.4 1551.62 L933.473 1551.62 Q933.855 1557.67 937.101 1560.85 Q940.38 1564 946.204 1564 Q949.578 1564 952.729 1563.17 Q955.912 1562.35 959.031 1560.69 L959.031 1566.23 Q955.88 1567.57 952.57 1568.27 Q949.26 1568.97 945.854 1568.97 Q937.324 1568.97 932.327 1564 Q927.362 1559.04 927.362 1550.57 Q927.362 1541.82 932.073 1536.69 Q936.815 1531.54 944.836 1531.54 Q952.029 1531.54 956.199 1536.18 Q960.4 1540.8 960.4 1548.76 M954.543 1547.04 Q954.48 1542.23 951.838 1539.37 Q949.228 1536.5 944.899 1536.5 Q939.998 1536.5 937.038 1539.27 Q934.11 1542.04 933.664 1547.07 L954.543 1547.04 Z" fill="#000000" fill-rule="nonzero" fill-opacity="1" /><path clip-path="url(#clip700)" d="M995.666 1533.76 L995.666 1539.24 Q993.183 1537.87 990.669 1537.2 Q988.186 1536.5 985.64 1536.5 Q979.943 1536.5 976.792 1540.13 Q973.641 1543.73 973.641 1550.25 Q973.641 1556.78 976.792 1560.4 Q979.943 1564 985.64 1564 Q988.186 1564 990.669 1563.33 Q993.183 1562.63 995.666 1561.26 L995.666 1566.68 Q993.215 1567.82 990.573 1568.39 Q987.963 1568.97 985.003 1568.97 Q976.951 1568.97 972.208 1563.91 Q967.466 1558.85 967.466 1550.25 Q967.466 1541.53 972.24 1536.53 Q977.046 1531.54 985.385 1531.54 Q988.091 1531.54 990.669 1532.11 Q993.247 1532.65 995.666 1533.76 Z" fill="#000000" fill-rule="nonzero" fill-opacity="1" /><path clip-path="url(#clip700)" d="M1005.85 1532.4 L1011.71 1532.4 L1011.71 1568.04 L1005.85 1568.04 L1005.85 1532.4 M1005.85 1518.52 L1011.71 1518.52 L1011.71 1525.93 L1005.85 1525.93 L1005.85 1518.52 Z" fill="#000000" fill-rule="nonzero" fill-opacity="1" /><path clip-path="url(#clip700)" d="M1040.16 1550.12 Q1033.06 1550.12 1030.33 1551.75 Q1027.59 1553.37 1027.59 1557.29 Q1027.59 1560.4 1029.63 1562.25 Q1031.7 1564.07 1035.23 1564.07 Q1040.1 1564.07 1043.03 1560.63 Q1045.99 1557.16 1045.99 1551.43 L1045.99 1550.12 L1040.16 1550.12 M1051.84 1547.71 L1051.84 1568.04 L1045.99 1568.04 L1045.99 1562.63 Q1043.98 1565.88 1040.99 1567.44 Q1038 1568.97 1033.67 1568.97 Q1028.19 1568.97 1024.95 1565.91 Q1021.73 1562.82 1021.73 1557.67 Q1021.73 1551.65 1025.74 1548.6 Q1029.79 1545.54 1037.78 1545.54 L1045.99 1545.54 L1045.99 1544.97 Q1045.99 1540.93 1043.31 1538.73 Q1040.67 1536.5 1035.87 1536.5 Q1032.81 1536.5 1029.91 1537.23 Q1027.02 1537.97 1024.34 1539.43 L1024.34 1534.02 Q1027.56 1532.78 1030.58 1532.17 Q1033.61 1531.54 1036.47 1531.54 Q1044.2 1531.54 1048.02 1535.55 Q1051.84 1539.56 1051.84 1547.71 Z" fill="#000000" fill-rule="nonzero" fill-opacity="1" /><path clip-path="url(#clip700)" d="M1063.91 1518.52 L1069.76 1518.52 L1069.76 1568.04 L1063.91 1568.04 L1063.91 1518.52 Z" fill="#000000" fill-rule="nonzero" fill-opacity="1" /><path clip-path="url(#clip700)" d="M1082.02 1532.4 L1087.87 1532.4 L1087.87 1568.04 L1082.02 1568.04 L1082.02 1532.4 M1082.02 1518.52 L1087.87 1518.52 L1087.87 1525.93 L1082.02 1525.93 L1082.02 1518.52 Z" fill="#000000" fill-rule="nonzero" fill-opacity="1" /><path clip-path="url(#clip700)" d="M1122.85 1533.45 L1122.85 1538.98 Q1120.37 1537.71 1117.7 1537.07 Q1115.02 1536.44 1112.16 1536.44 Q1107.8 1536.44 1105.6 1537.77 Q1103.44 1539.11 1103.44 1541.79 Q1103.44 1543.82 1105 1545 Q1106.56 1546.15 1111.27 1547.2 L1113.27 1547.64 Q1119.51 1548.98 1122.12 1551.43 Q1124.76 1553.85 1124.76 1558.21 Q1124.76 1563.17 1120.82 1566.07 Q1116.9 1568.97 1110.03 1568.97 Q1107.16 1568.97 1104.04 1568.39 Q1100.95 1567.85 1097.52 1566.74 L1097.52 1560.69 Q1100.76 1562.38 1103.91 1563.24 Q1107.07 1564.07 1110.15 1564.07 Q1114.29 1564.07 1116.52 1562.66 Q1118.75 1561.23 1118.75 1558.65 Q1118.75 1556.27 1117.12 1554.99 Q1115.53 1553.72 1110.09 1552.54 L1108.05 1552.07 Q1102.61 1550.92 1100.19 1548.56 Q1097.77 1546.18 1097.77 1542.04 Q1097.77 1537.01 1101.34 1534.27 Q1104.9 1531.54 1111.46 1531.54 Q1114.7 1531.54 1117.57 1532.01 Q1120.43 1532.49 1122.85 1533.45 Z" fill="#000000" fill-rule="nonzero" fill-opacity="1" /><path clip-path="url(#clip700)" d="M1139.88 1522.27 L1139.88 1532.4 L1151.94 1532.4 L1151.94 1536.95 L1139.88 1536.95 L1139.88 1556.3 Q1139.88 1560.66 1141.06 1561.9 Q1142.27 1563.14 1145.93 1563.14 L1151.94 1563.14 L1151.94 1568.04 L1145.93 1568.04 Q1139.15 1568.04 1136.57 1565.53 Q1133.99 1562.98 1133.99 1556.3 L1133.99 1536.95 L1129.7 1536.95 L1129.7 1532.4 L1133.99 1532.4 L1133.99 1522.27 L1139.88 1522.27 Z" fill="#000000" fill-rule="nonzero" fill-opacity="1" /><path clip-path="url(#clip700)" d="M1182.37 1533.45 L1182.37 1538.98 Q1179.89 1537.71 1177.22 1537.07 Q1174.54 1536.44 1171.68 1536.44 Q1167.32 1536.44 1165.12 1537.77 Q1162.96 1539.11 1162.96 1541.79 Q1162.96 1543.82 1164.52 1545 Q1166.08 1546.15 1170.79 1547.2 L1172.79 1547.64 Q1179.03 1548.98 1181.64 1551.43 Q1184.28 1553.85 1184.28 1558.21 Q1184.28 1563.17 1180.34 1566.07 Q1176.42 1568.97 1169.55 1568.97 Q1166.68 1568.97 1163.56 1568.39 Q1160.47 1567.85 1157.04 1566.74 L1157.04 1560.69 Q1160.28 1562.38 1163.43 1563.24 Q1166.59 1564.07 1169.67 1564.07 Q1173.81 1564.07 1176.04 1562.66 Q1178.27 1561.23 1178.27 1558.65 Q1178.27 1556.27 1176.64 1554.99 Q1175.05 1553.72 1169.61 1552.54 L1167.57 1552.07 Q1162.13 1550.92 1159.71 1548.56 Q1157.29 1546.18 1157.29 1542.04 Q1157.29 1537.01 1160.86 1534.27 Q1164.42 1531.54 1170.98 1531.54 Q1174.22 1531.54 1177.09 1532.01 Q1179.95 1532.49 1182.37 1533.45 Z" fill="#000000" fill-rule="nonzero" fill-opacity="1" /><path clip-path="url(#clip700)" d="M1199.15 1520.52 L1199.15 1538.19 L1193.73 1538.19 L1193.73 1520.52 L1199.15 1520.52 Z" fill="#000000" fill-rule="nonzero" fill-opacity="1" /><path clip-path="url(#clip700)" d="M1228.84 1532.4 L1234.7 1532.4 L1242.02 1560.21 L1249.31 1532.4 L1256.21 1532.4 L1263.53 1560.21 L1270.82 1532.4 L1276.68 1532.4 L1267.35 1568.04 L1260.45 1568.04 L1252.78 1538.83 L1245.07 1568.04 L1238.17 1568.04 L1228.84 1532.4 Z" fill="#000000" fill-rule="nonzero" fill-opacity="1" /><path clip-path="url(#clip700)" d="M1316.05 1548.76 L1316.05 1551.62 L1289.13 1551.62 Q1289.51 1557.67 1292.75 1560.85 Q1296.03 1564 1301.86 1564 Q1305.23 1564 1308.38 1563.17 Q1311.56 1562.35 1314.68 1560.69 L1314.68 1566.23 Q1311.53 1567.57 1308.22 1568.27 Q1304.91 1568.97 1301.51 1568.97 Q1292.98 1568.97 1287.98 1564 Q1283.01 1559.04 1283.01 1550.57 Q1283.01 1541.82 1287.72 1536.69 Q1292.47 1531.54 1300.49 1531.54 Q1307.68 1531.54 1311.85 1536.18 Q1316.05 1540.8 1316.05 1548.76 M1310.2 1547.04 Q1310.13 1542.23 1307.49 1539.37 Q1304.88 1536.5 1300.55 1536.5 Q1295.65 1536.5 1292.69 1539.27 Q1289.76 1542.04 1289.32 1547.07 L1310.2 1547.04 Z" fill="#000000" fill-rule="nonzero" fill-opacity="1" /><path clip-path="url(#clip700)" d="M1341.86 1550.12 Q1334.77 1550.12 1332.03 1551.75 Q1329.29 1553.37 1329.29 1557.29 Q1329.29 1560.4 1331.33 1562.25 Q1333.4 1564.07 1336.93 1564.07 Q1341.8 1564.07 1344.73 1560.63 Q1347.69 1557.16 1347.69 1551.43 L1347.69 1550.12 L1341.86 1550.12 M1353.55 1547.71 L1353.55 1568.04 L1347.69 1568.04 L1347.69 1562.63 Q1345.68 1565.88 1342.69 1567.44 Q1339.7 1568.97 1335.37 1568.97 Q1329.9 1568.97 1326.65 1565.91 Q1323.44 1562.82 1323.44 1557.67 Q1323.44 1551.65 1327.45 1548.6 Q1331.49 1545.54 1339.48 1545.54 L1347.69 1545.54 L1347.69 1544.97 Q1347.69 1540.93 1345.02 1538.73 Q1342.37 1536.5 1337.57 1536.5 Q1334.51 1536.5 1331.62 1537.23 Q1328.72 1537.97 1326.05 1539.43 L1326.05 1534.02 Q1329.26 1532.78 1332.28 1532.17 Q1335.31 1531.54 1338.17 1531.54 Q1345.91 1531.54 1349.73 1535.55 Q1353.55 1539.56 1353.55 1547.71 Z" fill="#000000" fill-rule="nonzero" fill-opacity="1" /><path clip-path="url(#clip700)" d="M1365.61 1518.52 L1371.47 1518.52 L1371.47 1568.04 L1365.61 1568.04 L1365.61 1518.52 Z" fill="#000000" fill-rule="nonzero" fill-opacity="1" /><path clip-path="url(#clip700)" d="M1389.51 1522.27 L1389.51 1532.4 L1401.58 1532.4 L1401.58 1536.95 L1389.51 1536.95 L1389.51 1556.3 Q1389.51 1560.66 1390.69 1561.9 Q1391.9 1563.14 1395.56 1563.14 L1401.58 1563.14 L1401.58 1568.04 L1395.56 1568.04 Q1388.78 1568.04 1386.2 1565.53 Q1383.62 1562.98 1383.62 1556.3 L1383.62 1536.95 L1379.33 1536.95 L1379.33 1532.4 L1383.62 1532.4 L1383.62 1522.27 L1389.51 1522.27 Z" fill="#000000" fill-rule="nonzero" fill-opacity="1" /><path clip-path="url(#clip700)" d="M1438.91 1546.53 L1438.91 1568.04 L1433.05 1568.04 L1433.05 1546.72 Q1433.05 1541.66 1431.08 1539.14 Q1429.11 1536.63 1425.16 1536.63 Q1420.42 1536.63 1417.68 1539.65 Q1414.94 1542.68 1414.94 1547.9 L1414.94 1568.04 L1409.05 1568.04 L1409.05 1518.52 L1414.94 1518.52 L1414.94 1537.93 Q1417.04 1534.72 1419.88 1533.13 Q1422.74 1531.54 1426.47 1531.54 Q1432.61 1531.54 1435.76 1535.36 Q1438.91 1539.14 1438.91 1546.53 Z" fill="#000000" fill-rule="nonzero" fill-opacity="1" /><path clip-path="url(#clip700)" d="M1494.04 1533.45 L1494.04 1538.98 Q1491.55 1537.71 1488.88 1537.07 Q1486.21 1536.44 1483.34 1536.44 Q1478.98 1536.44 1476.79 1537.77 Q1474.62 1539.11 1474.62 1541.79 Q1474.62 1543.82 1476.18 1545 Q1477.74 1546.15 1482.45 1547.2 L1484.46 1547.64 Q1490.7 1548.98 1493.31 1551.43 Q1495.95 1553.85 1495.95 1558.21 Q1495.95 1563.17 1492 1566.07 Q1488.09 1568.97 1481.21 1568.97 Q1478.35 1568.97 1475.23 1568.39 Q1472.14 1567.85 1468.7 1566.74 L1468.7 1560.69 Q1471.95 1562.38 1475.1 1563.24 Q1478.25 1564.07 1481.34 1564.07 Q1485.48 1564.07 1487.7 1562.66 Q1489.93 1561.23 1489.93 1558.65 Q1489.93 1556.27 1488.31 1554.99 Q1486.72 1553.72 1481.27 1552.54 L1479.24 1552.07 Q1473.79 1550.92 1471.38 1548.56 Q1468.96 1546.18 1468.96 1542.04 Q1468.96 1537.01 1472.52 1534.27 Q1476.09 1531.54 1482.64 1531.54 Q1485.89 1531.54 1488.75 1532.01 Q1491.62 1532.49 1494.04 1533.45 Z" fill="#000000" fill-rule="nonzero" fill-opacity="1" /><path clip-path="url(#clip700)" d="M1534.9 1546.53 L1534.9 1568.04 L1529.05 1568.04 L1529.05 1546.72 Q1529.05 1541.66 1527.08 1539.14 Q1525.1 1536.63 1521.16 1536.63 Q1516.41 1536.63 1513.68 1539.65 Q1510.94 1542.68 1510.94 1547.9 L1510.94 1568.04 L1505.05 1568.04 L1505.05 1518.52 L1510.94 1518.52 L1510.94 1537.93 Q1513.04 1534.72 1515.87 1533.13 Q1518.74 1531.54 1522.46 1531.54 Q1528.6 1531.54 1531.75 1535.36 Q1534.9 1539.14 1534.9 1546.53 Z" fill="#000000" fill-rule="nonzero" fill-opacity="1" /><path clip-path="url(#clip700)" d="M1562.79 1550.12 Q1555.69 1550.12 1552.95 1551.75 Q1550.21 1553.37 1550.21 1557.29 Q1550.21 1560.4 1552.25 1562.25 Q1554.32 1564.07 1557.85 1564.07 Q1562.72 1564.07 1565.65 1560.63 Q1568.61 1557.16 1568.61 1551.43 L1568.61 1550.12 L1562.79 1550.12 M1574.47 1547.71 L1574.47 1568.04 L1568.61 1568.04 L1568.61 1562.63 Q1566.61 1565.88 1563.61 1567.44 Q1560.62 1568.97 1556.29 1568.97 Q1550.82 1568.97 1547.57 1565.91 Q1544.36 1562.82 1544.36 1557.67 Q1544.36 1551.65 1548.37 1548.6 Q1552.41 1545.54 1560.4 1545.54 L1568.61 1545.54 L1568.61 1544.97 Q1568.61 1540.93 1565.94 1538.73 Q1563.3 1536.5 1558.49 1536.5 Q1555.43 1536.5 1552.54 1537.23 Q1549.64 1537.97 1546.97 1539.43 L1546.97 1534.02 Q1550.18 1532.78 1553.21 1532.17 Q1556.23 1531.54 1559.09 1531.54 Q1566.83 1531.54 1570.65 1535.55 Q1574.47 1539.56 1574.47 1547.71 Z" fill="#000000" fill-rule="nonzero" fill-opacity="1" /><path clip-path="url(#clip700)" d="M1607.19 1537.87 Q1606.2 1537.3 1605.02 1537.04 Q1603.88 1536.76 1602.48 1536.76 Q1597.51 1536.76 1594.84 1540 Q1592.2 1543.22 1592.2 1549.27 L1592.2 1568.04 L1586.31 1568.04 L1586.31 1532.4 L1592.2 1532.4 L1592.2 1537.93 Q1594.04 1534.69 1597 1533.13 Q1599.96 1531.54 1604.2 1531.54 Q1604.8 1531.54 1605.53 1531.63 Q1606.26 1531.7 1607.16 1531.85 L1607.19 1537.87 Z" fill="#000000" fill-rule="nonzero" fill-opacity="1" /><path clip-path="url(#clip700)" d="M1642.39 1548.76 L1642.39 1551.62 L1615.46 1551.62 Q1615.84 1557.67 1619.09 1560.85 Q1622.37 1564 1628.19 1564 Q1631.57 1564 1634.72 1563.17 Q1637.9 1562.35 1641.02 1560.69 L1641.02 1566.23 Q1637.87 1567.57 1634.56 1568.27 Q1631.25 1568.97 1627.84 1568.97 Q1619.31 1568.97 1614.32 1564 Q1609.35 1559.04 1609.35 1550.57 Q1609.35 1541.82 1614.06 1536.69 Q1618.8 1531.54 1626.83 1531.54 Q1634.02 1531.54 1638.19 1536.18 Q1642.39 1540.8 1642.39 1548.76 M1636.53 1547.04 Q1636.47 1542.23 1633.83 1539.37 Q1631.22 1536.5 1626.89 1536.5 Q1621.99 1536.5 1619.03 1539.27 Q1616.1 1542.04 1615.65 1547.07 L1636.53 1547.04 Z" fill="#000000" fill-rule="nonzero" fill-opacity="1" /><path clip-path="url(#clip700)" d="M1702.35 1532.4 L1689.46 1549.74 L1703.02 1568.04 L1696.12 1568.04 L1685.74 1554.04 L1675.36 1568.04 L1668.46 1568.04 L1682.3 1549.39 L1669.64 1532.4 L1676.54 1532.4 L1685.99 1545.1 L1695.45 1532.4 L1702.35 1532.4 Z" fill="#000000" fill-rule="nonzero" fill-opacity="1" /><polyline clip-path="url(#clip700)" style="stroke:#000000; stroke-linecap:round; stroke-linejoin:round; stroke-width:4; stroke-opacity:1; fill:none" points="202.227,1423.18 202.227,47.2441 "/>
<polyline clip-path="url(#clip700)" style="stroke:#000000; stroke-linecap:round; stroke-linejoin:round; stroke-width:4; stroke-opacity:1; fill:none" points="202.227,1403 221.125,1403 "/>
<polyline clip-path="url(#clip700)" style="stroke:#000000; stroke-linecap:round; stroke-linejoin:round; stroke-width:4; stroke-opacity:1; fill:none" points="202.227,1196.9 221.125,1196.9 "/>
<polyline clip-path="url(#clip700)" style="stroke:#000000; stroke-linecap:round; stroke-linejoin:round; stroke-width:4; stroke-opacity:1; fill:none" points="202.227,990.798 221.125,990.798 "/>
<polyline clip-path="url(#clip700)" style="stroke:#000000; stroke-linecap:round; stroke-linejoin:round; stroke-width:4; stroke-opacity:1; fill:none" points="202.227,784.696 221.125,784.696 "/>
<polyline clip-path="url(#clip700)" style="stroke:#000000; stroke-linecap:round; stroke-linejoin:round; stroke-width:4; stroke-opacity:1; fill:none" points="202.227,578.594 221.125,578.594 "/>
<polyline clip-path="url(#clip700)" style="stroke:#000000; stroke-linecap:round; stroke-linejoin:round; stroke-width:4; stroke-opacity:1; fill:none" points="202.227,372.492 221.125,372.492 "/>
<polyline clip-path="url(#clip700)" style="stroke:#000000; stroke-linecap:round; stroke-linejoin:round; stroke-width:4; stroke-opacity:1; fill:none" points="202.227,166.391 221.125,166.391 "/>
<path clip-path="url(#clip700)" d="M154.283 1388.8 Q150.672 1388.8 148.843 1392.36 Q147.038 1395.91 147.038 1403.04 Q147.038 1410.14 148.843 1413.71 Q150.672 1417.25 154.283 1417.25 Q157.917 1417.25 159.723 1413.71 Q161.552 1410.14 161.552 1403.04 Q161.552 1395.91 159.723 1392.36 Q157.917 1388.8 154.283 1388.8 M154.283 1385.1 Q160.093 1385.1 163.149 1389.7 Q166.227 1394.29 166.227 1403.04 Q166.227 1411.76 163.149 1416.37 Q160.093 1420.95 154.283 1420.95 Q148.473 1420.95 145.394 1416.37 Q142.339 1411.76 142.339 1403.04 Q142.339 1394.29 145.394 1389.7 Q148.473 1385.1 154.283 1385.1 Z" fill="#000000" fill-rule="nonzero" fill-opacity="1" /><path clip-path="url(#clip700)" d="M149.908 1210.24 L166.227 1210.24 L166.227 1214.18 L144.283 1214.18 L144.283 1210.24 Q146.945 1207.49 151.528 1202.86 Q156.135 1198.21 157.315 1196.86 Q159.561 1194.34 160.44 1192.61 Q161.343 1190.85 161.343 1189.16 Q161.343 1186.4 159.399 1184.67 Q157.478 1182.93 154.376 1182.93 Q152.177 1182.93 149.723 1183.69 Q147.292 1184.46 144.515 1186.01 L144.515 1181.29 Q147.339 1180.15 149.792 1179.57 Q152.246 1178.99 154.283 1178.99 Q159.653 1178.99 162.848 1181.68 Q166.042 1184.36 166.042 1188.86 Q166.042 1190.98 165.232 1192.91 Q164.445 1194.8 162.339 1197.4 Q161.76 1198.07 158.658 1201.29 Q155.556 1204.48 149.908 1210.24 Z" fill="#000000" fill-rule="nonzero" fill-opacity="1" /><path clip-path="url(#clip700)" d="M156.644 977.592 L144.839 996.041 L156.644 996.041 L156.644 977.592 M155.417 973.518 L161.297 973.518 L161.297 996.041 L166.227 996.041 L166.227 999.93 L161.297 999.93 L161.297 1008.08 L156.644 1008.08 L156.644 999.93 L141.042 999.93 L141.042 995.416 L155.417 973.518 Z" fill="#000000" fill-rule="nonzero" fill-opacity="1" /><path clip-path="url(#clip700)" d="M154.7 782.832 Q151.552 782.832 149.7 784.985 Q147.871 787.138 147.871 790.888 Q147.871 794.615 149.7 796.791 Q151.552 798.944 154.7 798.944 Q157.848 798.944 159.677 796.791 Q161.528 794.615 161.528 790.888 Q161.528 787.138 159.677 784.985 Q157.848 782.832 154.7 782.832 M163.982 768.18 L163.982 772.439 Q162.223 771.606 160.417 771.166 Q158.635 770.726 156.876 770.726 Q152.246 770.726 149.792 773.851 Q147.362 776.976 147.015 783.295 Q148.38 781.282 150.441 780.217 Q152.501 779.129 154.978 779.129 Q160.186 779.129 163.195 782.3 Q166.227 785.448 166.227 790.888 Q166.227 796.212 163.079 799.43 Q159.931 802.647 154.7 802.647 Q148.704 802.647 145.533 798.064 Q142.362 793.457 142.362 784.731 Q142.362 776.536 146.251 771.675 Q150.14 766.791 156.69 766.791 Q158.45 766.791 160.232 767.138 Q162.038 767.485 163.982 768.18 Z" fill="#000000" fill-rule="nonzero" fill-opacity="1" /><path clip-path="url(#clip700)" d="M154.376 579.462 Q151.042 579.462 149.121 581.245 Q147.223 583.027 147.223 586.152 Q147.223 589.277 149.121 591.059 Q151.042 592.842 154.376 592.842 Q157.709 592.842 159.63 591.059 Q161.552 589.254 161.552 586.152 Q161.552 583.027 159.63 581.245 Q157.732 579.462 154.376 579.462 M149.7 577.472 Q146.691 576.731 145.001 574.671 Q143.334 572.61 143.334 569.647 Q143.334 565.504 146.274 563.097 Q149.237 560.689 154.376 560.689 Q159.538 560.689 162.477 563.097 Q165.417 565.504 165.417 569.647 Q165.417 572.61 163.727 574.671 Q162.061 576.731 159.075 577.472 Q162.454 578.259 164.329 580.55 Q166.227 582.842 166.227 586.152 Q166.227 591.175 163.149 593.86 Q160.093 596.545 154.376 596.545 Q148.658 596.545 145.579 593.86 Q142.524 591.175 142.524 586.152 Q142.524 582.842 144.422 580.55 Q146.32 578.259 149.7 577.472 M147.987 570.087 Q147.987 572.772 149.653 574.277 Q151.343 575.782 154.376 575.782 Q157.385 575.782 159.075 574.277 Q160.788 572.772 160.788 570.087 Q160.788 567.402 159.075 565.898 Q157.385 564.393 154.376 564.393 Q151.343 564.393 149.653 565.898 Q147.987 567.402 147.987 570.087 Z" fill="#000000" fill-rule="nonzero" fill-opacity="1" /><path clip-path="url(#clip700)" d="M114.931 385.837 L122.57 385.837 L122.57 359.472 L114.26 361.138 L114.26 356.879 L122.524 355.212 L127.2 355.212 L127.2 385.837 L134.839 385.837 L134.839 389.772 L114.931 389.772 L114.931 385.837 Z" fill="#000000" fill-rule="nonzero" fill-opacity="1" /><path clip-path="url(#clip700)" d="M154.283 358.291 Q150.672 358.291 148.843 361.856 Q147.038 365.398 147.038 372.527 Q147.038 379.634 148.843 383.198 Q150.672 386.74 154.283 386.74 Q157.917 386.74 159.723 383.198 Q161.552 379.634 161.552 372.527 Q161.552 365.398 159.723 361.856 Q157.917 358.291 154.283 358.291 M154.283 354.587 Q160.093 354.587 163.149 359.194 Q166.227 363.777 166.227 372.527 Q166.227 381.254 163.149 385.86 Q160.093 390.444 154.283 390.444 Q148.473 390.444 145.394 385.86 Q142.339 381.254 142.339 372.527 Q142.339 363.777 145.394 359.194 Q148.473 354.587 154.283 354.587 Z" fill="#000000" fill-rule="nonzero" fill-opacity="1" /><path clip-path="url(#clip700)" d="M116.529 179.736 L124.168 179.736 L124.168 153.37 L115.857 155.037 L115.857 150.777 L124.121 149.111 L128.797 149.111 L128.797 179.736 L136.436 179.736 L136.436 183.671 L116.529 183.671 L116.529 179.736 Z" fill="#000000" fill-rule="nonzero" fill-opacity="1" /><path clip-path="url(#clip700)" d="M149.908 179.736 L166.227 179.736 L166.227 183.671 L144.283 183.671 L144.283 179.736 Q146.945 176.981 151.528 172.351 Q156.135 167.699 157.315 166.356 Q159.561 163.833 160.44 162.097 Q161.343 160.338 161.343 158.648 Q161.343 155.893 159.399 154.157 Q157.478 152.421 154.376 152.421 Q152.177 152.421 149.723 153.185 Q147.292 153.949 144.515 155.5 L144.515 150.777 Q147.339 149.643 149.792 149.064 Q152.246 148.486 154.283 148.486 Q159.653 148.486 162.848 151.171 Q166.042 153.856 166.042 158.347 Q166.042 160.476 165.232 162.398 Q164.445 164.296 162.339 166.888 Q161.76 167.56 158.658 170.777 Q155.556 173.972 149.908 179.736 Z" fill="#000000" fill-rule="nonzero" fill-opacity="1" /><path clip-path="url(#clip700)" d="M58.657 946.697 L77.5631 946.697 L77.5631 952.585 L28.3562 952.585 L28.3562 946.697 L33.7671 946.697 Q30.5842 944.851 29.0564 942.05 Q27.4968 939.217 27.4968 935.302 Q27.4968 928.809 32.6531 924.767 Q37.8093 920.693 46.212 920.693 Q54.6147 920.693 59.771 924.767 Q64.9272 928.809 64.9272 935.302 Q64.9272 939.217 63.3994 942.05 Q61.8398 944.851 58.657 946.697 M46.212 926.772 Q39.7508 926.772 36.0905 929.446 Q32.3984 932.087 32.3984 936.734 Q32.3984 941.381 36.0905 944.055 Q39.7508 946.697 46.212 946.697 Q52.6732 946.697 56.3653 944.055 Q60.0256 941.381 60.0256 936.734 Q60.0256 932.087 56.3653 929.446 Q52.6732 926.772 46.212 926.772 Z" fill="#000000" fill-rule="nonzero" fill-opacity="1" /><path clip-path="url(#clip700)" d="M33.8307 890.328 Q33.2578 891.315 33.0032 892.493 Q32.7167 893.638 32.7167 895.039 Q32.7167 900.004 35.9632 902.678 Q39.1779 905.32 45.2253 905.32 L64.0042 905.32 L64.0042 911.208 L28.3562 911.208 L28.3562 905.32 L33.8944 905.32 Q30.6479 903.474 29.0883 900.513 Q27.4968 897.553 27.4968 893.32 Q27.4968 892.715 27.5923 891.983 Q27.656 891.251 27.8151 890.36 L33.8307 890.328 Z" fill="#000000" fill-rule="nonzero" fill-opacity="1" /><path clip-path="url(#clip700)" d="M28.3562 884.185 L28.3562 878.329 L64.0042 878.329 L64.0042 884.185 L28.3562 884.185 M14.479 884.185 L14.479 878.329 L21.895 878.329 L21.895 884.185 L14.479 884.185 Z" fill="#000000" fill-rule="nonzero" fill-opacity="1" /><path clip-path="url(#clip700)" d="M29.7248 840.421 L35.1993 840.421 Q33.8307 842.904 33.1623 845.418 Q32.4621 847.901 32.4621 850.447 Q32.4621 856.144 36.0905 859.296 Q39.6872 862.447 46.212 862.447 Q52.7369 862.447 56.3653 859.296 Q59.9619 856.144 59.9619 850.447 Q59.9619 847.901 59.2935 845.418 Q58.5933 842.904 57.2247 840.421 L62.6355 840.421 Q63.7814 842.872 64.3543 845.514 Q64.9272 848.124 64.9272 851.084 Q64.9272 859.136 59.8664 863.879 Q54.8057 868.621 46.212 868.621 Q37.491 868.621 32.4939 863.847 Q27.4968 859.041 27.4968 850.702 Q27.4968 847.996 28.0697 845.418 Q28.6108 842.84 29.7248 840.421 Z" fill="#000000" fill-rule="nonzero" fill-opacity="1" /><path clip-path="url(#clip700)" d="M44.7161 799.744 L47.5806 799.744 L47.5806 826.671 Q53.6281 826.289 56.8109 823.043 Q59.9619 819.764 59.9619 813.94 Q59.9619 810.566 59.1344 807.415 Q58.3069 804.232 56.6518 801.113 L62.1899 801.113 Q63.5267 804.264 64.227 807.574 Q64.9272 810.884 64.9272 814.29 Q64.9272 822.82 59.9619 827.817 Q54.9967 832.782 46.5303 832.782 Q37.7774 832.782 32.6531 828.072 Q27.4968 823.329 27.4968 815.308 Q27.4968 808.115 32.1438 803.946 Q36.7589 799.744 44.7161 799.744 M42.9973 805.601 Q38.1912 805.664 35.3266 808.306 Q32.4621 810.916 32.4621 815.245 Q32.4621 820.146 35.2312 823.106 Q38.0002 826.035 43.0292 826.48 L42.9973 805.601 Z" fill="#000000" fill-rule="nonzero" fill-opacity="1" /><path clip-path="url(#clip700)" d="M32.4621 755.598 Q32.4621 760.309 36.1542 763.046 Q39.8145 765.783 46.212 765.783 Q52.6095 765.783 56.3017 763.078 Q59.9619 760.341 59.9619 755.598 Q59.9619 750.919 56.2698 748.182 Q52.5777 745.445 46.212 745.445 Q39.8781 745.445 36.186 748.182 Q32.4621 750.919 32.4621 755.598 M27.4968 755.598 Q27.4968 747.959 32.4621 743.599 Q37.4273 739.238 46.212 739.238 Q54.9649 739.238 59.9619 743.599 Q64.9272 747.959 64.9272 755.598 Q64.9272 763.269 59.9619 767.629 Q54.9649 771.958 46.212 771.958 Q37.4273 771.958 32.4621 767.629 Q27.4968 763.269 27.4968 755.598 Z" fill="#000000" fill-rule="nonzero" fill-opacity="1" /><path clip-path="url(#clip700)" d="M14.479 711.484 L19.3487 711.484 L19.3487 717.086 Q19.3487 720.237 20.6219 721.478 Q21.895 722.687 25.2052 722.687 L28.3562 722.687 L28.3562 713.043 L32.9077 713.043 L32.9077 722.687 L64.0042 722.687 L64.0042 728.576 L32.9077 728.576 L32.9077 734.178 L28.3562 734.178 L28.3562 728.576 L25.8736 728.576 Q19.9216 728.576 17.2162 725.807 Q14.479 723.038 14.479 717.022 L14.479 711.484 Z" fill="#000000" fill-rule="nonzero" fill-opacity="1" /><path clip-path="url(#clip700)" d="M33.8307 665.205 Q33.2578 666.192 33.0032 667.369 Q32.7167 668.515 32.7167 669.916 Q32.7167 674.881 35.9632 677.555 Q39.1779 680.196 45.2253 680.196 L64.0042 680.196 L64.0042 686.085 L28.3562 686.085 L28.3562 680.196 L33.8944 680.196 Q30.6479 678.35 29.0883 675.39 Q27.4968 672.43 27.4968 668.197 Q27.4968 667.592 27.5923 666.86 Q27.656 666.128 27.8151 665.237 L33.8307 665.205 Z" fill="#000000" fill-rule="nonzero" fill-opacity="1" /><path clip-path="url(#clip700)" d="M28.3562 659.062 L28.3562 653.206 L64.0042 653.206 L64.0042 659.062 L28.3562 659.062 M14.479 659.062 L14.479 653.206 L21.895 653.206 L21.895 659.062 L14.479 659.062 Z" fill="#000000" fill-rule="nonzero" fill-opacity="1" /><path clip-path="url(#clip700)" d="M29.4065 618.226 L34.9447 618.226 Q33.6716 620.709 33.035 623.382 Q32.3984 626.056 32.3984 628.921 Q32.3984 633.281 33.7352 635.477 Q35.072 637.642 37.7456 637.642 Q39.7826 637.642 40.9603 636.082 Q42.1061 634.522 43.1565 629.812 L43.6021 627.807 Q44.9389 621.568 47.3897 618.958 Q49.8086 616.316 54.1691 616.316 Q59.1344 616.316 62.0308 620.263 Q64.9272 624.178 64.9272 631.053 Q64.9272 633.918 64.3543 637.037 Q63.8132 640.124 62.6992 643.562 L56.6518 643.562 Q58.3387 640.315 59.198 637.164 Q60.0256 634.013 60.0256 630.926 Q60.0256 626.788 58.6251 624.56 Q57.1929 622.332 54.6147 622.332 Q52.2276 622.332 50.9545 623.955 Q49.6813 625.547 48.5037 630.989 L48.0262 633.026 Q46.8804 638.469 44.5251 640.888 Q42.138 643.307 38.0002 643.307 Q32.9713 643.307 30.2341 639.742 Q27.4968 636.177 27.4968 629.621 Q27.4968 626.374 27.9743 623.51 Q28.4517 620.645 29.4065 618.226 Z" fill="#000000" fill-rule="nonzero" fill-opacity="1" /><path clip-path="url(#clip700)" d="M14.479 607.214 L14.479 601.325 L43.7294 601.325 L28.3562 583.851 L28.3562 576.372 L45.0344 595.278 L64.0042 575.576 L64.0042 583.215 L46.5939 601.325 L64.0042 601.325 L64.0042 607.214 L14.479 607.214 Z" fill="#000000" fill-rule="nonzero" fill-opacity="1" /><path clip-path="url(#clip700)" d="M28.3562 548.585 L28.3562 542.538 L43.1565 542.538 L28.3562 527.165 L28.3562 520.035 L41.7878 534.072 L64.0042 517.839 L64.0042 525 L45.6073 538.177 L49.7131 542.538 L64.0042 542.538 L64.0042 548.585 L28.3562 548.585 Z" fill="#000000" fill-rule="nonzero" fill-opacity="1" /><polyline clip-path="url(#clip701)" style="stroke:#009af9; stroke-linecap:round; stroke-linejoin:round; stroke-width:4; stroke-opacity:1; fill:none" points="263.091,86.1857 266.805,870.367 271.613,1085.23 277.307,1181.69 283.766,1235.18 290.908,1268.69 298.672,1291.4 307.013,1307.7 315.893,1319.91 325.281,1329.34 335.151,1336.84 345.481,1342.93 356.25,1347.97 367.442,1352.19 379.041,1355.79 391.034,1358.87 403.407,1361.54 416.15,1363.85 429.252,1365.83 442.704,1368.41 456.496,1368.94 470.62,1368.69 485.07,1368.51 499.837,1368.38 514.915,1368.29 530.297,1368.26 545.978,1368.26 561.953,1368.3 578.215,1368.36 594.76,1368.45 611.584,1368.57 628.68,1368.71 646.046,1368.86 663.678,1369.03 681.57,1369.21 699.72,1369.4 718.124,1369.6 736.778,1369.81 755.68,1370.03 774.825,1370.25 794.211,1370.48 813.835,1370.71 833.694,1370.95 853.785,1371.19 874.106,1371.43 894.654,1371.68 915.426,1371.92 936.421,1372.17 957.636,1372.42 979.068,1372.67 1000.72,1372.92 1022.58,1373.17 1044.65,1373.42 1066.93,1373.67 1089.42,1373.92 1112.11,1374.16 1135.01,1374.41 1158.11,1374.66 1181.41,1374.91 1204.91,1375.16 1228.6,1375.4 1252.49,1375.65 1276.57,1375.89 1300.85,1376.13 1325.31,1376.38 1349.97,1376.62 1374.81,1376.86 1399.83,1377.1 1425.05,1377.33 1450.44,1377.57 1476.02,1377.81 1501.78,1378.04 1527.72,1378.27 1553.83,1378.51 1580.12,1378.74 1606.59,1378.97 1633.24,1379.2 1660.05,1379.43 1687.04,1379.65 1714.21,1379.88 1741.54,1380.11 1769.04,1380.33 1796.71,1380.55 1824.54,1380.78 1852.54,1381 1880.71,1381.22 1909.04,1381.44 1937.54,1381.66 1966.2,1381.87 1995.01,1382.09 2023.99,1382.31 2053.13,1382.52 2082.43,1382.74 2111.89,1382.95 2141.5,1383.17 2171.27,1383.38 2201.19,1383.6 2231.27,1383.81 2261.51,1384.02 2291.89,1384.24 "/>
</svg>
