<?xml version="1.0" encoding="utf-8"?>
<svg xmlns="http://www.w3.org/2000/svg" xmlns:xlink="http://www.w3.org/1999/xlink" width="600" height="400" viewBox="0 0 2400 1600">
<defs>
  <clipPath id="clip840">
    <rect x="0" y="0" width="2400" height="1600"/>
  </clipPath>
</defs>
<path clip-path="url(#clip840)" d="M0 1600 L2400 1600 L2400 0 L0 0  Z" fill="#ffffff" fill-rule="evenodd" fill-opacity="1"/>
<defs>
  <clipPath id="clip841">
    <rect x="313" y="47" width="2041" height="1314"/>
  </clipPath>
</defs>
<path clip-path="url(#clip840)" d="M313.02 1360.19 L2352.76 1360.19 L2352.76 47.2441 L313.02 47.2441  Z" fill="#ffffff" fill-rule="evenodd" fill-opacity="1"/>
<polyline clip-path="url(#clip841)" style="stroke:#000000; stroke-linecap:round; stroke-linejoin:round; stroke-width:2; stroke-opacity:0.1; fill:none" points="370.749,1360.19 370.749,47.2441 "/>
<polyline clip-path="url(#clip841)" style="stroke:#000000; stroke-linecap:round; stroke-linejoin:round; stroke-width:2; stroke-opacity:0.1; fill:none" points="851.818,1360.19 851.818,47.2441 "/>
<polyline clip-path="url(#clip841)" style="stroke:#000000; stroke-linecap:round; stroke-linejoin:round; stroke-width:2; stroke-opacity:0.1; fill:none" points="1332.89,1360.19 1332.89,47.2441 "/>
<polyline clip-path="url(#clip841)" style="stroke:#000000; stroke-linecap:round; stroke-linejoin:round; stroke-width:2; stroke-opacity:0.1; fill:none" points="1813.96,1360.19 1813.96,47.2441 "/>
<polyline clip-path="url(#clip841)" style="stroke:#000000; stroke-linecap:round; stroke-linejoin:round; stroke-width:2; stroke-opacity:0.1; fill:none" points="2295.03,1360.19 2295.03,47.2441 "/>
<polyline clip-path="url(#clip841)" style="stroke:#000000; stroke-linecap:round; stroke-linejoin:round; stroke-width:2; stroke-opacity:0.1; fill:none" points="313.02,1323.03 2352.76,1323.03 "/>
<polyline clip-path="url(#clip841)" style="stroke:#000000; stroke-linecap:round; stroke-linejoin:round; stroke-width:2; stroke-opacity:0.1; fill:none" points="313.02,1088.35 2352.76,1088.35 "/>
<polyline clip-path="url(#clip841)" style="stroke:#000000; stroke-linecap:round; stroke-linejoin:round; stroke-width:2; stroke-opacity:0.1; fill:none" points="313.02,853.671 2352.76,853.671 "/>
<polyline clip-path="url(#clip841)" style="stroke:#000000; stroke-linecap:round; stroke-linejoin:round; stroke-width:2; stroke-opacity:0.1; fill:none" points="313.02,618.993 2352.76,618.993 "/>
<polyline clip-path="url(#clip841)" style="stroke:#000000; stroke-linecap:round; stroke-linejoin:round; stroke-width:2; stroke-opacity:0.1; fill:none" points="313.02,384.314 2352.76,384.314 "/>
<polyline clip-path="url(#clip841)" style="stroke:#000000; stroke-linecap:round; stroke-linejoin:round; stroke-width:2; stroke-opacity:0.1; fill:none" points="313.02,149.635 2352.76,149.635 "/>
<polyline clip-path="url(#clip840)" style="stroke:#000000; stroke-linecap:round; stroke-linejoin:round; stroke-width:4; stroke-opacity:1; fill:none" points="313.02,1360.19 2352.76,1360.19 "/>
<polyline clip-path="url(#clip840)" style="stroke:#000000; stroke-linecap:round; stroke-linejoin:round; stroke-width:4; stroke-opacity:1; fill:none" points="370.749,1360.19 370.749,1341.29 "/>
<polyline clip-path="url(#clip840)" style="stroke:#000000; stroke-linecap:round; stroke-linejoin:round; stroke-width:4; stroke-opacity:1; fill:none" points="851.818,1360.19 851.818,1341.29 "/>
<polyline clip-path="url(#clip840)" style="stroke:#000000; stroke-linecap:round; stroke-linejoin:round; stroke-width:4; stroke-opacity:1; fill:none" points="1332.89,1360.19 1332.89,1341.29 "/>
<polyline clip-path="url(#clip840)" style="stroke:#000000; stroke-linecap:round; stroke-linejoin:round; stroke-width:4; stroke-opacity:1; fill:none" points="1813.96,1360.19 1813.96,1341.29 "/>
<polyline clip-path="url(#clip840)" style="stroke:#000000; stroke-linecap:round; stroke-linejoin:round; stroke-width:4; stroke-opacity:1; fill:none" points="2295.03,1360.19 2295.03,1341.29 "/>
<path clip-path="url(#clip840)" d="M333.052 1391.11 Q329.441 1391.11 327.612 1394.67 Q325.807 1398.21 325.807 1405.34 Q325.807 1412.45 327.612 1416.01 Q329.441 1419.56 333.052 1419.56 Q336.686 1419.56 338.492 1416.01 Q340.321 1412.45 340.321 1405.34 Q340.321 1398.21 338.492 1394.67 Q336.686 1391.11 333.052 1391.11 M333.052 1387.4 Q338.862 1387.4 341.918 1392.01 Q344.996 1396.59 344.996 1405.34 Q344.996 1414.07 341.918 1418.68 Q338.862 1423.26 333.052 1423.26 Q327.242 1423.26 324.163 1418.68 Q321.108 1414.07 321.108 1405.34 Q321.108 1396.59 324.163 1392.01 Q327.242 1387.4 333.052 1387.4 Z" fill="#000000" fill-rule="nonzero" fill-opacity="1" /><path clip-path="url(#clip840)" d="M353.214 1416.71 L358.098 1416.71 L358.098 1422.59 L353.214 1422.59 L353.214 1416.71 Z" fill="#000000" fill-rule="nonzero" fill-opacity="1" /><path clip-path="url(#clip840)" d="M378.283 1391.11 Q374.672 1391.11 372.844 1394.67 Q371.038 1398.21 371.038 1405.34 Q371.038 1412.45 372.844 1416.01 Q374.672 1419.56 378.283 1419.56 Q381.918 1419.56 383.723 1416.01 Q385.552 1412.45 385.552 1405.34 Q385.552 1398.21 383.723 1394.67 Q381.918 1391.11 378.283 1391.11 M378.283 1387.4 Q384.093 1387.4 387.149 1392.01 Q390.228 1396.59 390.228 1405.34 Q390.228 1414.07 387.149 1418.68 Q384.093 1423.26 378.283 1423.26 Q372.473 1423.26 369.394 1418.68 Q366.339 1414.07 366.339 1405.34 Q366.339 1396.59 369.394 1392.01 Q372.473 1387.4 378.283 1387.4 Z" fill="#000000" fill-rule="nonzero" fill-opacity="1" /><path clip-path="url(#clip840)" d="M408.445 1391.11 Q404.834 1391.11 403.005 1394.67 Q401.2 1398.21 401.2 1405.34 Q401.2 1412.45 403.005 1416.01 Q404.834 1419.56 408.445 1419.56 Q412.079 1419.56 413.885 1416.01 Q415.714 1412.45 415.714 1405.34 Q415.714 1398.21 413.885 1394.67 Q412.079 1391.11 408.445 1391.11 M408.445 1387.4 Q414.255 1387.4 417.311 1392.01 Q420.39 1396.59 420.39 1405.34 Q420.39 1414.07 417.311 1418.68 Q414.255 1423.26 408.445 1423.26 Q402.635 1423.26 399.556 1418.68 Q396.501 1414.07 396.501 1405.34 Q396.501 1396.59 399.556 1392.01 Q402.635 1387.4 408.445 1387.4 Z" fill="#000000" fill-rule="nonzero" fill-opacity="1" /><path clip-path="url(#clip840)" d="M814.619 1391.11 Q811.008 1391.11 809.18 1394.67 Q807.374 1398.21 807.374 1405.34 Q807.374 1412.45 809.18 1416.01 Q811.008 1419.56 814.619 1419.56 Q818.254 1419.56 820.059 1416.01 Q821.888 1412.45 821.888 1405.34 Q821.888 1398.21 820.059 1394.67 Q818.254 1391.11 814.619 1391.11 M814.619 1387.4 Q820.43 1387.4 823.485 1392.01 Q826.564 1396.59 826.564 1405.34 Q826.564 1414.07 823.485 1418.68 Q820.43 1423.26 814.619 1423.26 Q808.809 1423.26 805.731 1418.68 Q802.675 1414.07 802.675 1405.34 Q802.675 1396.59 805.731 1392.01 Q808.809 1387.4 814.619 1387.4 Z" fill="#000000" fill-rule="nonzero" fill-opacity="1" /><path clip-path="url(#clip840)" d="M834.781 1416.71 L839.666 1416.71 L839.666 1422.59 L834.781 1422.59 L834.781 1416.71 Z" fill="#000000" fill-rule="nonzero" fill-opacity="1" /><path clip-path="url(#clip840)" d="M853.879 1418.65 L870.198 1418.65 L870.198 1422.59 L848.254 1422.59 L848.254 1418.65 Q850.916 1415.9 855.499 1411.27 Q860.105 1406.62 861.286 1405.27 Q863.531 1402.75 864.411 1401.01 Q865.314 1399.25 865.314 1397.56 Q865.314 1394.81 863.369 1393.07 Q861.448 1391.34 858.346 1391.34 Q856.147 1391.34 853.693 1392.1 Q851.263 1392.87 848.485 1394.42 L848.485 1389.69 Q851.309 1388.56 853.763 1387.98 Q856.216 1387.4 858.254 1387.4 Q863.624 1387.4 866.818 1390.09 Q870.013 1392.77 870.013 1397.26 Q870.013 1399.39 869.203 1401.31 Q868.415 1403.21 866.309 1405.81 Q865.73 1406.48 862.628 1409.69 Q859.527 1412.89 853.879 1418.65 Z" fill="#000000" fill-rule="nonzero" fill-opacity="1" /><path clip-path="url(#clip840)" d="M880.059 1388.03 L898.415 1388.03 L898.415 1391.96 L884.341 1391.96 L884.341 1400.44 Q885.36 1400.09 886.378 1399.93 Q887.397 1399.74 888.415 1399.74 Q894.202 1399.74 897.582 1402.91 Q900.962 1406.08 900.962 1411.5 Q900.962 1417.08 897.489 1420.18 Q894.017 1423.26 887.698 1423.26 Q885.522 1423.26 883.253 1422.89 Q881.008 1422.52 878.601 1421.78 L878.601 1417.08 Q880.684 1418.21 882.906 1418.77 Q885.128 1419.32 887.605 1419.32 Q891.61 1419.32 893.948 1417.22 Q896.286 1415.11 896.286 1411.5 Q896.286 1407.89 893.948 1405.78 Q891.61 1403.68 887.605 1403.68 Q885.73 1403.68 883.855 1404.09 Q882.003 1404.51 880.059 1405.39 L880.059 1388.03 Z" fill="#000000" fill-rule="nonzero" fill-opacity="1" /><path clip-path="url(#clip840)" d="M1295.19 1391.11 Q1291.58 1391.11 1289.75 1394.67 Q1287.95 1398.21 1287.95 1405.34 Q1287.95 1412.45 1289.75 1416.01 Q1291.58 1419.56 1295.19 1419.56 Q1298.83 1419.56 1300.63 1416.01 Q1302.46 1412.45 1302.46 1405.34 Q1302.46 1398.21 1300.63 1394.67 Q1298.83 1391.11 1295.19 1391.11 M1295.19 1387.4 Q1301 1387.4 1304.06 1392.01 Q1307.14 1396.59 1307.14 1405.34 Q1307.14 1414.07 1304.06 1418.68 Q1301 1423.26 1295.19 1423.26 Q1289.38 1423.26 1286.3 1418.68 Q1283.25 1414.07 1283.25 1405.34 Q1283.25 1396.59 1286.3 1392.01 Q1289.38 1387.4 1295.19 1387.4 Z" fill="#000000" fill-rule="nonzero" fill-opacity="1" /><path clip-path="url(#clip840)" d="M1315.35 1416.71 L1320.24 1416.71 L1320.24 1422.59 L1315.35 1422.59 L1315.35 1416.71 Z" fill="#000000" fill-rule="nonzero" fill-opacity="1" /><path clip-path="url(#clip840)" d="M1330.47 1388.03 L1348.83 1388.03 L1348.83 1391.96 L1334.75 1391.96 L1334.75 1400.44 Q1335.77 1400.09 1336.79 1399.93 Q1337.81 1399.74 1338.83 1399.74 Q1344.61 1399.74 1347.99 1402.91 Q1351.37 1406.08 1351.37 1411.5 Q1351.37 1417.08 1347.9 1420.18 Q1344.43 1423.26 1338.11 1423.26 Q1335.93 1423.26 1333.66 1422.89 Q1331.42 1422.52 1329.01 1421.78 L1329.01 1417.08 Q1331.09 1418.21 1333.32 1418.77 Q1335.54 1419.32 1338.02 1419.32 Q1342.02 1419.32 1344.36 1417.22 Q1346.7 1415.11 1346.7 1411.5 Q1346.7 1407.89 1344.36 1405.78 Q1342.02 1403.68 1338.02 1403.68 Q1336.14 1403.68 1334.27 1404.09 Q1332.41 1404.51 1330.47 1405.39 L1330.47 1388.03 Z" fill="#000000" fill-rule="nonzero" fill-opacity="1" /><path clip-path="url(#clip840)" d="M1370.58 1391.11 Q1366.97 1391.11 1365.14 1394.67 Q1363.34 1398.21 1363.34 1405.34 Q1363.34 1412.45 1365.14 1416.01 Q1366.97 1419.56 1370.58 1419.56 Q1374.22 1419.56 1376.02 1416.01 Q1377.85 1412.45 1377.85 1405.34 Q1377.85 1398.21 1376.02 1394.67 Q1374.22 1391.11 1370.58 1391.11 M1370.58 1387.4 Q1376.39 1387.4 1379.45 1392.01 Q1382.53 1396.59 1382.53 1405.34 Q1382.53 1414.07 1379.45 1418.68 Q1376.39 1423.26 1370.58 1423.26 Q1364.77 1423.26 1361.7 1418.68 Q1358.64 1414.07 1358.64 1405.34 Q1358.64 1396.59 1361.7 1392.01 Q1364.77 1387.4 1370.58 1387.4 Z" fill="#000000" fill-rule="nonzero" fill-opacity="1" /><path clip-path="url(#clip840)" d="M1776.76 1391.11 Q1773.15 1391.11 1771.32 1394.67 Q1769.51 1398.21 1769.51 1405.34 Q1769.51 1412.45 1771.32 1416.01 Q1773.15 1419.56 1776.76 1419.56 Q1780.39 1419.56 1782.2 1416.01 Q1784.03 1412.45 1784.03 1405.34 Q1784.03 1398.21 1782.2 1394.67 Q1780.39 1391.11 1776.76 1391.11 M1776.76 1387.4 Q1782.57 1387.4 1785.62 1392.01 Q1788.7 1396.59 1788.7 1405.34 Q1788.7 1414.07 1785.62 1418.68 Q1782.57 1423.26 1776.76 1423.26 Q1770.95 1423.26 1767.87 1418.68 Q1764.81 1414.07 1764.81 1405.34 Q1764.81 1396.59 1767.87 1392.01 Q1770.95 1387.4 1776.76 1387.4 Z" fill="#000000" fill-rule="nonzero" fill-opacity="1" /><path clip-path="url(#clip840)" d="M1796.92 1416.71 L1801.81 1416.71 L1801.81 1422.59 L1796.92 1422.59 L1796.92 1416.71 Z" fill="#000000" fill-rule="nonzero" fill-opacity="1" /><path clip-path="url(#clip840)" d="M1810.81 1388.03 L1833.03 1388.03 L1833.03 1390.02 L1820.49 1422.59 L1815.6 1422.59 L1827.41 1391.96 L1810.81 1391.96 L1810.81 1388.03 Z" fill="#000000" fill-rule="nonzero" fill-opacity="1" /><path clip-path="url(#clip840)" d="M1842.2 1388.03 L1860.55 1388.03 L1860.55 1391.96 L1846.48 1391.96 L1846.48 1400.44 Q1847.5 1400.09 1848.52 1399.93 Q1849.54 1399.74 1850.55 1399.74 Q1856.34 1399.74 1859.72 1402.91 Q1863.1 1406.08 1863.1 1411.5 Q1863.1 1417.08 1859.63 1420.18 Q1856.16 1423.26 1849.84 1423.26 Q1847.66 1423.26 1845.39 1422.89 Q1843.15 1422.52 1840.74 1421.78 L1840.74 1417.08 Q1842.82 1418.21 1845.05 1418.77 Q1847.27 1419.32 1849.74 1419.32 Q1853.75 1419.32 1856.09 1417.22 Q1858.43 1415.11 1858.43 1411.5 Q1858.43 1407.89 1856.09 1405.78 Q1853.75 1403.68 1849.74 1403.68 Q1847.87 1403.68 1845.99 1404.09 Q1844.14 1404.51 1842.2 1405.39 L1842.2 1388.03 Z" fill="#000000" fill-rule="nonzero" fill-opacity="1" /><path clip-path="url(#clip840)" d="M2247.1 1418.65 L2254.74 1418.65 L2254.74 1392.29 L2246.43 1393.95 L2246.43 1389.69 L2254.69 1388.03 L2259.37 1388.03 L2259.37 1418.65 L2267.01 1418.65 L2267.01 1422.59 L2247.1 1422.59 L2247.1 1418.65 Z" fill="#000000" fill-rule="nonzero" fill-opacity="1" /><path clip-path="url(#clip840)" d="M2276.45 1416.71 L2281.34 1416.71 L2281.34 1422.59 L2276.45 1422.59 L2276.45 1416.71 Z" fill="#000000" fill-rule="nonzero" fill-opacity="1" /><path clip-path="url(#clip840)" d="M2301.52 1391.11 Q2297.91 1391.11 2296.08 1394.67 Q2294.28 1398.21 2294.28 1405.34 Q2294.28 1412.45 2296.08 1416.01 Q2297.91 1419.56 2301.52 1419.56 Q2305.15 1419.56 2306.96 1416.01 Q2308.79 1412.45 2308.79 1405.34 Q2308.79 1398.21 2306.96 1394.67 Q2305.15 1391.11 2301.52 1391.11 M2301.52 1387.4 Q2307.33 1387.4 2310.39 1392.01 Q2313.46 1396.59 2313.46 1405.34 Q2313.46 1414.07 2310.39 1418.68 Q2307.33 1423.26 2301.52 1423.26 Q2295.71 1423.26 2292.63 1418.68 Q2289.58 1414.07 2289.58 1405.34 Q2289.58 1396.59 2292.63 1392.01 Q2295.71 1387.4 2301.52 1387.4 Z" fill="#000000" fill-rule="nonzero" fill-opacity="1" /><path clip-path="url(#clip840)" d="M2331.68 1391.11 Q2328.07 1391.11 2326.24 1394.67 Q2324.44 1398.21 2324.44 1405.34 Q2324.44 1412.45 2326.24 1416.01 Q2328.07 1419.56 2331.68 1419.56 Q2335.32 1419.56 2337.12 1416.01 Q2338.95 1412.45 2338.95 1405.34 Q2338.95 1398.21 2337.12 1394.67 Q2335.32 1391.11 2331.68 1391.11 M2331.68 1387.4 Q2337.49 1387.4 2340.55 1392.01 Q2343.63 1396.59 2343.63 1405.34 Q2343.63 1414.07 2340.55 1418.68 Q2337.49 1423.26 2331.68 1423.26 Q2325.87 1423.26 2322.79 1418.68 Q2319.74 1414.07 2319.74 1405.34 Q2319.74 1396.59 2322.79 1392.01 Q2325.87 1387.4 2331.68 1387.4 Z" fill="#000000" fill-rule="nonzero" fill-opacity="1" /><path clip-path="url(#clip840)" d="M776.7 1485.76 L776.7 1488.63 L749.773 1488.63 Q750.155 1494.68 753.402 1497.86 Q756.68 1501.01 762.505 1501.01 Q765.879 1501.01 769.03 1500.18 Q772.213 1499.35 775.332 1497.7 L775.332 1503.24 Q772.181 1504.57 768.871 1505.27 Q765.56 1505.97 762.155 1505.97 Q753.625 1505.97 748.628 1501.01 Q743.662 1496.04 743.662 1487.58 Q743.662 1478.83 748.373 1473.7 Q753.115 1468.54 761.136 1468.54 Q768.329 1468.54 772.499 1473.19 Q776.7 1477.81 776.7 1485.76 M770.844 1484.04 Q770.78 1479.24 768.139 1476.37 Q765.529 1473.51 761.2 1473.51 Q756.298 1473.51 753.338 1476.28 Q750.41 1479.05 749.964 1484.08 L770.844 1484.04 Z" fill="#000000" fill-rule="nonzero" fill-opacity="1" /><path clip-path="url(#clip840)" d="M815.945 1483.54 L815.945 1505.05 L810.089 1505.05 L810.089 1483.73 Q810.089 1478.67 808.115 1476.15 Q806.142 1473.64 802.195 1473.64 Q797.453 1473.64 794.715 1476.66 Q791.978 1479.68 791.978 1484.9 L791.978 1505.05 L786.09 1505.05 L786.09 1469.4 L791.978 1469.4 L791.978 1474.94 Q794.079 1471.73 796.912 1470.14 Q799.776 1468.54 803.5 1468.54 Q809.643 1468.54 812.794 1472.36 Q815.945 1476.15 815.945 1483.54 Z" fill="#000000" fill-rule="nonzero" fill-opacity="1" /><path clip-path="url(#clip840)" d="M833.419 1459.28 L833.419 1469.4 L845.482 1469.4 L845.482 1473.96 L833.419 1473.96 L833.419 1493.31 Q833.419 1497.67 834.596 1498.91 Q835.806 1500.15 839.466 1500.15 L845.482 1500.15 L845.482 1505.05 L839.466 1505.05 Q832.687 1505.05 830.109 1502.54 Q827.531 1499.99 827.531 1493.31 L827.531 1473.96 L823.234 1473.96 L823.234 1469.4 L827.531 1469.4 L827.531 1459.28 L833.419 1459.28 Z" fill="#000000" fill-rule="nonzero" fill-opacity="1" /><path clip-path="url(#clip840)" d="M873.841 1474.88 Q872.854 1474.31 871.677 1474.05 Q870.531 1473.76 869.13 1473.76 Q864.165 1473.76 861.492 1477.01 Q858.85 1480.23 858.85 1486.27 L858.85 1505.05 L852.962 1505.05 L852.962 1469.4 L858.85 1469.4 L858.85 1474.94 Q860.696 1471.7 863.656 1470.14 Q866.616 1468.54 870.849 1468.54 Q871.454 1468.54 872.186 1468.64 Q872.918 1468.7 873.809 1468.86 L873.841 1474.88 Z" fill="#000000" fill-rule="nonzero" fill-opacity="1" /><path clip-path="url(#clip840)" d="M909.043 1485.76 L909.043 1488.63 L882.116 1488.63 Q882.498 1494.68 885.745 1497.86 Q889.023 1501.01 894.848 1501.01 Q898.222 1501.01 901.373 1500.18 Q904.556 1499.35 907.675 1497.7 L907.675 1503.24 Q904.524 1504.57 901.214 1505.27 Q897.903 1505.97 894.498 1505.97 Q885.968 1505.97 880.971 1501.01 Q876.005 1496.04 876.005 1487.58 Q876.005 1478.83 880.716 1473.7 Q885.458 1468.54 893.479 1468.54 Q900.673 1468.54 904.842 1473.19 Q909.043 1477.81 909.043 1485.76 M903.187 1484.04 Q903.123 1479.24 900.482 1476.37 Q897.872 1473.51 893.543 1473.51 Q888.641 1473.51 885.681 1476.28 Q882.753 1479.05 882.307 1484.08 L903.187 1484.04 Z" fill="#000000" fill-rule="nonzero" fill-opacity="1" /><path clip-path="url(#clip840)" d="M924.321 1499.7 L924.321 1518.61 L918.433 1518.61 L918.433 1469.4 L924.321 1469.4 L924.321 1474.81 Q926.167 1471.63 928.968 1470.1 Q931.801 1468.54 935.716 1468.54 Q942.209 1468.54 946.251 1473.7 Q950.325 1478.86 950.325 1487.26 Q950.325 1495.66 946.251 1500.82 Q942.209 1505.97 935.716 1505.97 Q931.801 1505.97 928.968 1504.45 Q926.167 1502.89 924.321 1499.7 M944.246 1487.26 Q944.246 1480.8 941.572 1477.14 Q938.93 1473.45 934.283 1473.45 Q929.636 1473.45 926.963 1477.14 Q924.321 1480.8 924.321 1487.26 Q924.321 1493.72 926.963 1497.41 Q929.636 1501.07 934.283 1501.07 Q938.93 1501.07 941.572 1497.41 Q944.246 1493.72 944.246 1487.26 Z" fill="#000000" fill-rule="nonzero" fill-opacity="1" /><path clip-path="url(#clip840)" d="M980.689 1474.88 Q979.703 1474.31 978.525 1474.05 Q977.379 1473.76 975.979 1473.76 Q971.014 1473.76 968.34 1477.01 Q965.698 1480.23 965.698 1486.27 L965.698 1505.05 L959.81 1505.05 L959.81 1469.4 L965.698 1469.4 L965.698 1474.94 Q967.544 1471.7 970.504 1470.14 Q973.464 1468.54 977.698 1468.54 Q978.302 1468.54 979.034 1468.64 Q979.766 1468.7 980.658 1468.86 L980.689 1474.88 Z" fill="#000000" fill-rule="nonzero" fill-opacity="1" /><path clip-path="url(#clip840)" d="M1015.89 1485.76 L1015.89 1488.63 L988.965 1488.63 Q989.347 1494.68 992.593 1497.86 Q995.872 1501.01 1001.7 1501.01 Q1005.07 1501.01 1008.22 1500.18 Q1011.4 1499.35 1014.52 1497.7 L1014.52 1503.24 Q1011.37 1504.57 1008.06 1505.27 Q1004.75 1505.97 1001.35 1505.97 Q992.816 1505.97 987.819 1501.01 Q982.854 1496.04 982.854 1487.58 Q982.854 1478.83 987.564 1473.7 Q992.307 1468.54 1000.33 1468.54 Q1007.52 1468.54 1011.69 1473.19 Q1015.89 1477.81 1015.89 1485.76 M1010.04 1484.04 Q1009.97 1479.24 1007.33 1476.37 Q1004.72 1473.51 1000.39 1473.51 Q995.49 1473.51 992.53 1476.28 Q989.601 1479.05 989.156 1484.08 L1010.04 1484.04 Z" fill="#000000" fill-rule="nonzero" fill-opacity="1" /><path clip-path="url(#clip840)" d="M1055.14 1483.54 L1055.14 1505.05 L1049.28 1505.05 L1049.28 1483.73 Q1049.28 1478.67 1047.31 1476.15 Q1045.33 1473.64 1041.39 1473.64 Q1036.64 1473.64 1033.91 1476.66 Q1031.17 1479.68 1031.17 1484.9 L1031.17 1505.05 L1025.28 1505.05 L1025.28 1469.4 L1031.17 1469.4 L1031.17 1474.94 Q1033.27 1471.73 1036.1 1470.14 Q1038.97 1468.54 1042.69 1468.54 Q1048.83 1468.54 1051.99 1472.36 Q1055.14 1476.15 1055.14 1483.54 Z" fill="#000000" fill-rule="nonzero" fill-opacity="1" /><path clip-path="url(#clip840)" d="M1097.31 1485.76 L1097.31 1488.63 L1070.38 1488.63 Q1070.76 1494.68 1074.01 1497.86 Q1077.29 1501.01 1083.11 1501.01 Q1086.49 1501.01 1089.64 1500.18 Q1092.82 1499.35 1095.94 1497.7 L1095.94 1503.24 Q1092.79 1504.57 1089.48 1505.27 Q1086.17 1505.97 1082.76 1505.97 Q1074.23 1505.97 1069.24 1501.01 Q1064.27 1496.04 1064.27 1487.58 Q1064.27 1478.83 1068.98 1473.7 Q1073.72 1468.54 1081.75 1468.54 Q1088.94 1468.54 1093.11 1473.19 Q1097.31 1477.81 1097.31 1485.76 M1091.45 1484.04 Q1091.39 1479.24 1088.75 1476.37 Q1086.14 1473.51 1081.81 1473.51 Q1076.91 1473.51 1073.95 1476.28 Q1071.02 1479.05 1070.57 1484.08 L1091.45 1484.04 Z" fill="#000000" fill-rule="nonzero" fill-opacity="1" /><path clip-path="url(#clip840)" d="M1106.32 1490.98 L1106.32 1469.4 L1112.17 1469.4 L1112.17 1490.76 Q1112.17 1495.82 1114.15 1498.37 Q1116.12 1500.88 1120.07 1500.88 Q1124.81 1500.88 1127.55 1497.86 Q1130.32 1494.83 1130.32 1489.61 L1130.32 1469.4 L1136.17 1469.4 L1136.17 1505.05 L1130.32 1505.05 L1130.32 1499.58 Q1128.18 1502.82 1125.35 1504.42 Q1122.55 1505.97 1118.83 1505.97 Q1112.68 1505.97 1109.5 1502.16 Q1106.32 1498.34 1106.32 1490.98 M1121.05 1468.54 L1121.05 1468.54 Z" fill="#000000" fill-rule="nonzero" fill-opacity="1" /><path clip-path="url(#clip840)" d="M1168.89 1474.88 Q1167.9 1474.31 1166.73 1474.05 Q1165.58 1473.76 1164.18 1473.76 Q1159.22 1473.76 1156.54 1477.01 Q1153.9 1480.23 1153.9 1486.27 L1153.9 1505.05 L1148.01 1505.05 L1148.01 1469.4 L1153.9 1469.4 L1153.9 1474.94 Q1155.75 1471.7 1158.71 1470.14 Q1161.67 1468.54 1165.9 1468.54 Q1166.5 1468.54 1167.24 1468.64 Q1167.97 1468.7 1168.86 1468.86 L1168.89 1474.88 Z" fill="#000000" fill-rule="nonzero" fill-opacity="1" /><path clip-path="url(#clip840)" d="M1197.76 1470.45 L1197.76 1475.99 Q1195.28 1474.72 1192.6 1474.08 Q1189.93 1473.45 1187.07 1473.45 Q1182.71 1473.45 1180.51 1474.78 Q1178.34 1476.12 1178.34 1478.79 Q1178.34 1480.83 1179.9 1482.01 Q1181.46 1483.15 1186.17 1484.2 L1188.18 1484.65 Q1194.42 1485.99 1197.03 1488.44 Q1199.67 1490.86 1199.67 1495.22 Q1199.67 1500.18 1195.72 1503.08 Q1191.81 1505.97 1184.93 1505.97 Q1182.07 1505.97 1178.95 1505.4 Q1175.86 1504.86 1172.42 1503.75 L1172.42 1497.7 Q1175.67 1499.39 1178.82 1500.25 Q1181.97 1501.07 1185.06 1501.07 Q1189.2 1501.07 1191.43 1499.67 Q1193.65 1498.24 1193.65 1495.66 Q1193.65 1493.28 1192.03 1492 Q1190.44 1490.73 1185 1489.55 L1182.96 1489.07 Q1177.52 1487.93 1175.1 1485.57 Q1172.68 1483.19 1172.68 1479.05 Q1172.68 1474.02 1176.24 1471.28 Q1179.81 1468.54 1186.37 1468.54 Q1189.61 1468.54 1192.48 1469.02 Q1195.34 1469.5 1197.76 1470.45 Z" fill="#000000" fill-rule="nonzero" fill-opacity="1" /><path clip-path="url(#clip840)" d="M1214.53 1457.53 L1214.53 1475.2 L1209.12 1475.2 L1209.12 1457.53 L1214.53 1457.53 Z" fill="#000000" fill-rule="nonzero" fill-opacity="1" /><path clip-path="url(#clip840)" d="M1273.29 1470.77 L1273.29 1476.25 Q1270.81 1474.88 1268.29 1474.21 Q1265.81 1473.51 1263.26 1473.51 Q1257.57 1473.51 1254.41 1477.14 Q1251.26 1480.73 1251.26 1487.26 Q1251.26 1493.78 1254.41 1497.41 Q1257.57 1501.01 1263.26 1501.01 Q1265.81 1501.01 1268.29 1500.34 Q1270.81 1499.64 1273.29 1498.27 L1273.29 1503.68 Q1270.84 1504.83 1268.2 1505.4 Q1265.59 1505.97 1262.63 1505.97 Q1254.57 1505.97 1249.83 1500.91 Q1245.09 1495.85 1245.09 1487.26 Q1245.09 1478.54 1249.86 1473.54 Q1254.67 1468.54 1263.01 1468.54 Q1265.71 1468.54 1268.29 1469.12 Q1270.87 1469.66 1273.29 1470.77 Z" fill="#000000" fill-rule="nonzero" fill-opacity="1" /><path clip-path="url(#clip840)" d="M1297.29 1473.51 Q1292.58 1473.51 1289.84 1477.2 Q1287.1 1480.86 1287.1 1487.26 Q1287.1 1493.66 1289.81 1497.35 Q1292.55 1501.01 1297.29 1501.01 Q1301.97 1501.01 1304.7 1497.32 Q1307.44 1493.63 1307.44 1487.26 Q1307.44 1480.93 1304.7 1477.23 Q1301.97 1473.51 1297.29 1473.51 M1297.29 1468.54 Q1304.93 1468.54 1309.29 1473.51 Q1313.65 1478.47 1313.65 1487.26 Q1313.65 1496.01 1309.29 1501.01 Q1304.93 1505.97 1297.29 1505.97 Q1289.62 1505.97 1285.26 1501.01 Q1280.93 1496.01 1280.93 1487.26 Q1280.93 1478.47 1285.26 1473.51 Q1289.62 1468.54 1297.29 1468.54 Z" fill="#000000" fill-rule="nonzero" fill-opacity="1" /><path clip-path="url(#clip840)" d="M1352.99 1483.54 L1352.99 1505.05 L1347.13 1505.05 L1347.13 1483.73 Q1347.13 1478.67 1345.16 1476.15 Q1343.18 1473.64 1339.24 1473.64 Q1334.5 1473.64 1331.76 1476.66 Q1329.02 1479.68 1329.02 1484.9 L1329.02 1505.05 L1323.13 1505.05 L1323.13 1469.4 L1329.02 1469.4 L1329.02 1474.94 Q1331.12 1471.73 1333.95 1470.14 Q1336.82 1468.54 1340.54 1468.54 Q1346.69 1468.54 1349.84 1472.36 Q1352.99 1476.15 1352.99 1483.54 Z" fill="#000000" fill-rule="nonzero" fill-opacity="1" /><path clip-path="url(#clip840)" d="M1387.39 1470.45 L1387.39 1475.99 Q1384.91 1474.72 1382.24 1474.08 Q1379.56 1473.45 1376.7 1473.45 Q1372.34 1473.45 1370.14 1474.78 Q1367.98 1476.12 1367.98 1478.79 Q1367.98 1480.83 1369.54 1482.01 Q1371.1 1483.15 1375.81 1484.2 L1377.81 1484.65 Q1384.05 1485.99 1386.66 1488.44 Q1389.3 1490.86 1389.3 1495.22 Q1389.3 1500.18 1385.36 1503.08 Q1381.44 1505.97 1374.57 1505.97 Q1371.7 1505.97 1368.58 1505.4 Q1365.5 1504.86 1362.06 1503.75 L1362.06 1497.7 Q1365.31 1499.39 1368.46 1500.25 Q1371.61 1501.07 1374.69 1501.07 Q1378.83 1501.07 1381.06 1499.67 Q1383.29 1498.24 1383.29 1495.66 Q1383.29 1493.28 1381.67 1492 Q1380.07 1490.73 1374.63 1489.55 L1372.59 1489.07 Q1367.15 1487.93 1364.73 1485.57 Q1362.31 1483.19 1362.31 1479.05 Q1362.31 1474.02 1365.88 1471.28 Q1369.44 1468.54 1376 1468.54 Q1379.25 1468.54 1382.11 1469.02 Q1384.98 1469.5 1387.39 1470.45 Z" fill="#000000" fill-rule="nonzero" fill-opacity="1" /><path clip-path="url(#clip840)" d="M1398.03 1490.98 L1398.03 1469.4 L1403.88 1469.4 L1403.88 1490.76 Q1403.88 1495.82 1405.85 1498.37 Q1407.83 1500.88 1411.78 1500.88 Q1416.52 1500.88 1419.25 1497.86 Q1422.02 1494.83 1422.02 1489.61 L1422.02 1469.4 L1427.88 1469.4 L1427.88 1505.05 L1422.02 1505.05 L1422.02 1499.58 Q1419.89 1502.82 1417.06 1504.42 Q1414.26 1505.97 1410.53 1505.97 Q1404.39 1505.97 1401.21 1502.16 Q1398.03 1498.34 1398.03 1490.98 M1412.76 1468.54 L1412.76 1468.54 Z" fill="#000000" fill-rule="nonzero" fill-opacity="1" /><path clip-path="url(#clip840)" d="M1467.7 1476.25 Q1469.89 1472.3 1472.95 1470.42 Q1476.01 1468.54 1480.14 1468.54 Q1485.71 1468.54 1488.74 1472.46 Q1491.76 1476.34 1491.76 1483.54 L1491.76 1505.05 L1485.87 1505.05 L1485.87 1483.73 Q1485.87 1478.6 1484.06 1476.12 Q1482.24 1473.64 1478.52 1473.64 Q1473.97 1473.64 1471.33 1476.66 Q1468.68 1479.68 1468.68 1484.9 L1468.68 1505.05 L1462.8 1505.05 L1462.8 1483.73 Q1462.8 1478.57 1460.98 1476.12 Q1459.17 1473.64 1455.38 1473.64 Q1450.89 1473.64 1448.25 1476.69 Q1445.61 1479.72 1445.61 1484.9 L1445.61 1505.05 L1439.72 1505.05 L1439.72 1469.4 L1445.61 1469.4 L1445.61 1474.94 Q1447.61 1471.66 1450.41 1470.1 Q1453.22 1468.54 1457.07 1468.54 Q1460.95 1468.54 1463.66 1470.52 Q1466.39 1472.49 1467.7 1476.25 Z" fill="#000000" fill-rule="nonzero" fill-opacity="1" /><path clip-path="url(#clip840)" d="M1509.11 1499.7 L1509.11 1518.61 L1503.22 1518.61 L1503.22 1469.4 L1509.11 1469.4 L1509.11 1474.81 Q1510.95 1471.63 1513.75 1470.1 Q1516.59 1468.54 1520.5 1468.54 Q1526.99 1468.54 1531.04 1473.7 Q1535.11 1478.86 1535.11 1487.26 Q1535.11 1495.66 1531.04 1500.82 Q1526.99 1505.97 1520.5 1505.97 Q1516.59 1505.97 1513.75 1504.45 Q1510.95 1502.89 1509.11 1499.7 M1529.03 1487.26 Q1529.03 1480.8 1526.36 1477.14 Q1523.72 1473.45 1519.07 1473.45 Q1514.42 1473.45 1511.75 1477.14 Q1509.11 1480.8 1509.11 1487.26 Q1509.11 1493.72 1511.75 1497.41 Q1514.42 1501.07 1519.07 1501.07 Q1523.72 1501.07 1526.36 1497.41 Q1529.03 1493.72 1529.03 1487.26 Z" fill="#000000" fill-rule="nonzero" fill-opacity="1" /><path clip-path="url(#clip840)" d="M1550.61 1459.28 L1550.61 1469.4 L1562.67 1469.4 L1562.67 1473.96 L1550.61 1473.96 L1550.61 1493.31 Q1550.61 1497.67 1551.79 1498.91 Q1553 1500.15 1556.66 1500.15 L1562.67 1500.15 L1562.67 1505.05 L1556.66 1505.05 Q1549.88 1505.05 1547.3 1502.54 Q1544.72 1499.99 1544.72 1493.31 L1544.72 1473.96 L1540.43 1473.96 L1540.43 1469.4 L1544.72 1469.4 L1544.72 1459.28 L1550.61 1459.28 Z" fill="#000000" fill-rule="nonzero" fill-opacity="1" /><path clip-path="url(#clip840)" d="M1570.38 1469.4 L1576.23 1469.4 L1576.23 1505.05 L1570.38 1505.05 L1570.38 1469.4 M1570.38 1455.53 L1576.23 1455.53 L1576.23 1462.94 L1570.38 1462.94 L1570.38 1455.53 Z" fill="#000000" fill-rule="nonzero" fill-opacity="1" /><path clip-path="url(#clip840)" d="M1602.3 1473.51 Q1597.59 1473.51 1594.85 1477.2 Q1592.12 1480.86 1592.12 1487.26 Q1592.12 1493.66 1594.82 1497.35 Q1597.56 1501.01 1602.3 1501.01 Q1606.98 1501.01 1609.72 1497.32 Q1612.45 1493.63 1612.45 1487.26 Q1612.45 1480.93 1609.72 1477.23 Q1606.98 1473.51 1602.3 1473.51 M1602.3 1468.54 Q1609.94 1468.54 1614.3 1473.51 Q1618.66 1478.47 1618.66 1487.26 Q1618.66 1496.01 1614.3 1501.01 Q1609.94 1505.97 1602.3 1505.97 Q1594.63 1505.97 1590.27 1501.01 Q1585.94 1496.01 1585.94 1487.26 Q1585.94 1478.47 1590.27 1473.51 Q1594.63 1468.54 1602.3 1468.54 Z" fill="#000000" fill-rule="nonzero" fill-opacity="1" /><path clip-path="url(#clip840)" d="M1658 1483.54 L1658 1505.05 L1652.14 1505.05 L1652.14 1483.73 Q1652.14 1478.67 1650.17 1476.15 Q1648.2 1473.64 1644.25 1473.64 Q1639.51 1473.64 1636.77 1476.66 Q1634.03 1479.68 1634.03 1484.9 L1634.03 1505.05 L1628.15 1505.05 L1628.15 1469.4 L1634.03 1469.4 L1634.03 1474.94 Q1636.13 1471.73 1638.97 1470.14 Q1641.83 1468.54 1645.56 1468.54 Q1651.7 1468.54 1654.85 1472.36 Q1658 1476.15 1658 1483.54 Z" fill="#000000" fill-rule="nonzero" fill-opacity="1" /><path clip-path="url(#clip840)" d="M1713.13 1470.45 L1713.13 1475.99 Q1710.65 1474.72 1707.97 1474.08 Q1705.3 1473.45 1702.43 1473.45 Q1698.07 1473.45 1695.88 1474.78 Q1693.71 1476.12 1693.71 1478.79 Q1693.71 1480.83 1695.27 1482.01 Q1696.83 1483.15 1701.54 1484.2 L1703.55 1484.65 Q1709.79 1485.99 1712.4 1488.44 Q1715.04 1490.86 1715.04 1495.22 Q1715.04 1500.18 1711.09 1503.08 Q1707.18 1505.97 1700.3 1505.97 Q1697.44 1505.97 1694.32 1505.4 Q1691.23 1504.86 1687.79 1503.75 L1687.79 1497.7 Q1691.04 1499.39 1694.19 1500.25 Q1697.34 1501.07 1700.43 1501.07 Q1704.57 1501.07 1706.79 1499.67 Q1709.02 1498.24 1709.02 1495.66 Q1709.02 1493.28 1707.4 1492 Q1705.81 1490.73 1700.36 1489.55 L1698.33 1489.07 Q1692.88 1487.93 1690.47 1485.57 Q1688.05 1483.19 1688.05 1479.05 Q1688.05 1474.02 1691.61 1471.28 Q1695.18 1468.54 1701.73 1468.54 Q1704.98 1468.54 1707.84 1469.02 Q1710.71 1469.5 1713.13 1470.45 Z" fill="#000000" fill-rule="nonzero" fill-opacity="1" /><path clip-path="url(#clip840)" d="M1754 1483.54 L1754 1505.05 L1748.14 1505.05 L1748.14 1483.73 Q1748.14 1478.67 1746.17 1476.15 Q1744.19 1473.64 1740.25 1473.64 Q1735.5 1473.64 1732.77 1476.66 Q1730.03 1479.68 1730.03 1484.9 L1730.03 1505.05 L1724.14 1505.05 L1724.14 1455.53 L1730.03 1455.53 L1730.03 1474.94 Q1732.13 1471.73 1734.96 1470.14 Q1737.83 1468.54 1741.55 1468.54 Q1747.69 1468.54 1750.84 1472.36 Q1754 1476.15 1754 1483.54 Z" fill="#000000" fill-rule="nonzero" fill-opacity="1" /><path clip-path="url(#clip840)" d="M1781.88 1487.13 Q1774.78 1487.13 1772.04 1488.76 Q1769.31 1490.38 1769.31 1494.29 Q1769.31 1497.41 1771.34 1499.26 Q1773.41 1501.07 1776.94 1501.07 Q1781.81 1501.07 1784.74 1497.64 Q1787.7 1494.17 1787.7 1488.44 L1787.7 1487.13 L1781.88 1487.13 M1793.56 1484.71 L1793.56 1505.05 L1787.7 1505.05 L1787.7 1499.64 Q1785.7 1502.89 1782.7 1504.45 Q1779.71 1505.97 1775.38 1505.97 Q1769.91 1505.97 1766.66 1502.92 Q1763.45 1499.83 1763.45 1494.68 Q1763.45 1488.66 1767.46 1485.6 Q1771.5 1482.55 1779.49 1482.55 L1787.7 1482.55 L1787.7 1481.98 Q1787.7 1477.93 1785.03 1475.74 Q1782.39 1473.51 1777.58 1473.51 Q1774.52 1473.51 1771.63 1474.24 Q1768.73 1474.97 1766.06 1476.44 L1766.06 1471.03 Q1769.27 1469.79 1772.3 1469.18 Q1775.32 1468.54 1778.19 1468.54 Q1785.92 1468.54 1789.74 1472.55 Q1793.56 1476.57 1793.56 1484.71 Z" fill="#000000" fill-rule="nonzero" fill-opacity="1" /><path clip-path="url(#clip840)" d="M1826.28 1474.88 Q1825.29 1474.31 1824.11 1474.05 Q1822.97 1473.76 1821.57 1473.76 Q1816.6 1473.76 1813.93 1477.01 Q1811.29 1480.23 1811.29 1486.27 L1811.29 1505.05 L1805.4 1505.05 L1805.4 1469.4 L1811.29 1469.4 L1811.29 1474.94 Q1813.13 1471.7 1816.09 1470.14 Q1819.05 1468.54 1823.29 1468.54 Q1823.89 1468.54 1824.62 1468.64 Q1825.36 1468.7 1826.25 1468.86 L1826.28 1474.88 Z" fill="#000000" fill-rule="nonzero" fill-opacity="1" /><path clip-path="url(#clip840)" d="M1861.48 1485.76 L1861.48 1488.63 L1834.55 1488.63 Q1834.94 1494.68 1838.18 1497.86 Q1841.46 1501.01 1847.28 1501.01 Q1850.66 1501.01 1853.81 1500.18 Q1856.99 1499.35 1860.11 1497.7 L1860.11 1503.24 Q1856.96 1504.57 1853.65 1505.27 Q1850.34 1505.97 1846.93 1505.97 Q1838.4 1505.97 1833.41 1501.01 Q1828.44 1496.04 1828.44 1487.58 Q1828.44 1478.83 1833.15 1473.7 Q1837.9 1468.54 1845.92 1468.54 Q1853.11 1468.54 1857.28 1473.19 Q1861.48 1477.81 1861.48 1485.76 M1855.62 1484.04 Q1855.56 1479.24 1852.92 1476.37 Q1850.31 1473.51 1845.98 1473.51 Q1841.08 1473.51 1838.12 1476.28 Q1835.19 1479.05 1834.74 1484.08 L1855.62 1484.04 Z" fill="#000000" fill-rule="nonzero" fill-opacity="1" /><path clip-path="url(#clip840)" d="M1921.45 1469.4 L1908.55 1486.75 L1922.11 1505.05 L1915.21 1505.05 L1904.83 1491.05 L1894.45 1505.05 L1887.55 1505.05 L1901.39 1486.4 L1888.73 1469.4 L1895.63 1469.4 L1905.09 1482.1 L1914.54 1469.4 L1921.45 1469.4 Z" fill="#000000" fill-rule="nonzero" fill-opacity="1" /><polyline clip-path="url(#clip840)" style="stroke:#000000; stroke-linecap:round; stroke-linejoin:round; stroke-width:4; stroke-opacity:1; fill:none" points="313.02,1360.19 313.02,47.2441 "/>
<polyline clip-path="url(#clip840)" style="stroke:#000000; stroke-linecap:round; stroke-linejoin:round; stroke-width:4; stroke-opacity:1; fill:none" points="313.02,1323.03 331.918,1323.03 "/>
<polyline clip-path="url(#clip840)" style="stroke:#000000; stroke-linecap:round; stroke-linejoin:round; stroke-width:4; stroke-opacity:1; fill:none" points="313.02,1088.35 331.918,1088.35 "/>
<polyline clip-path="url(#clip840)" style="stroke:#000000; stroke-linecap:round; stroke-linejoin:round; stroke-width:4; stroke-opacity:1; fill:none" points="313.02,853.671 331.918,853.671 "/>
<polyline clip-path="url(#clip840)" style="stroke:#000000; stroke-linecap:round; stroke-linejoin:round; stroke-width:4; stroke-opacity:1; fill:none" points="313.02,618.993 331.918,618.993 "/>
<polyline clip-path="url(#clip840)" style="stroke:#000000; stroke-linecap:round; stroke-linejoin:round; stroke-width:4; stroke-opacity:1; fill:none" points="313.02,384.314 331.918,384.314 "/>
<polyline clip-path="url(#clip840)" style="stroke:#000000; stroke-linecap:round; stroke-linejoin:round; stroke-width:4; stroke-opacity:1; fill:none" points="313.02,149.635 331.918,149.635 "/>
<path clip-path="url(#clip840)" d="M189.197 1308.83 Q185.586 1308.83 183.757 1312.39 Q181.951 1315.93 181.951 1323.06 Q181.951 1330.17 183.757 1333.73 Q185.586 1337.28 189.197 1337.28 Q192.831 1337.28 194.636 1333.73 Q196.465 1330.17 196.465 1323.06 Q196.465 1315.93 194.636 1312.39 Q192.831 1308.83 189.197 1308.83 M189.197 1305.12 Q195.007 1305.12 198.062 1309.73 Q201.141 1314.31 201.141 1323.06 Q201.141 1331.79 198.062 1336.4 Q195.007 1340.98 189.197 1340.98 Q183.387 1340.98 180.308 1336.4 Q177.252 1331.79 177.252 1323.06 Q177.252 1314.31 180.308 1309.73 Q183.387 1305.12 189.197 1305.12 Z" fill="#000000" fill-rule="nonzero" fill-opacity="1" /><path clip-path="url(#clip840)" d="M209.359 1334.43 L214.243 1334.43 L214.243 1340.31 L209.359 1340.31 L209.359 1334.43 Z" fill="#000000" fill-rule="nonzero" fill-opacity="1" /><path clip-path="url(#clip840)" d="M234.428 1308.83 Q230.817 1308.83 228.988 1312.39 Q227.183 1315.93 227.183 1323.06 Q227.183 1330.17 228.988 1333.73 Q230.817 1337.28 234.428 1337.28 Q238.062 1337.28 239.868 1333.73 Q241.696 1330.17 241.696 1323.06 Q241.696 1315.93 239.868 1312.39 Q238.062 1308.83 234.428 1308.83 M234.428 1305.12 Q240.238 1305.12 243.294 1309.73 Q246.372 1314.31 246.372 1323.06 Q246.372 1331.79 243.294 1336.4 Q240.238 1340.98 234.428 1340.98 Q228.618 1340.98 225.539 1336.4 Q222.484 1331.79 222.484 1323.06 Q222.484 1314.31 225.539 1309.73 Q228.618 1305.12 234.428 1305.12 Z" fill="#000000" fill-rule="nonzero" fill-opacity="1" /><path clip-path="url(#clip840)" d="M267.437 1309.82 L255.631 1328.27 L267.437 1328.27 L267.437 1309.82 M266.21 1305.75 L272.09 1305.75 L272.09 1328.27 L277.02 1328.27 L277.02 1332.16 L272.09 1332.16 L272.09 1340.31 L267.437 1340.31 L267.437 1332.16 L251.835 1332.16 L251.835 1327.65 L266.21 1305.75 Z" fill="#000000" fill-rule="nonzero" fill-opacity="1" /><path clip-path="url(#clip840)" d="M190.678 1074.15 Q187.067 1074.15 185.238 1077.71 Q183.433 1081.26 183.433 1088.38 Q183.433 1095.49 185.238 1099.06 Q187.067 1102.6 190.678 1102.6 Q194.312 1102.6 196.118 1099.06 Q197.947 1095.49 197.947 1088.38 Q197.947 1081.26 196.118 1077.71 Q194.312 1074.15 190.678 1074.15 M190.678 1070.45 Q196.488 1070.45 199.544 1075.05 Q202.623 1079.63 202.623 1088.38 Q202.623 1097.11 199.544 1101.72 Q196.488 1106.3 190.678 1106.3 Q184.868 1106.3 181.789 1101.72 Q178.734 1097.11 178.734 1088.38 Q178.734 1079.63 181.789 1075.05 Q184.868 1070.45 190.678 1070.45 Z" fill="#000000" fill-rule="nonzero" fill-opacity="1" /><path clip-path="url(#clip840)" d="M210.84 1099.75 L215.724 1099.75 L215.724 1105.63 L210.84 1105.63 L210.84 1099.75 Z" fill="#000000" fill-rule="nonzero" fill-opacity="1" /><path clip-path="url(#clip840)" d="M235.909 1074.15 Q232.298 1074.15 230.47 1077.71 Q228.664 1081.26 228.664 1088.38 Q228.664 1095.49 230.47 1099.06 Q232.298 1102.6 235.909 1102.6 Q239.544 1102.6 241.349 1099.06 Q243.178 1095.49 243.178 1088.38 Q243.178 1081.26 241.349 1077.71 Q239.544 1074.15 235.909 1074.15 M235.909 1070.45 Q241.72 1070.45 244.775 1075.05 Q247.854 1079.63 247.854 1088.38 Q247.854 1097.11 244.775 1101.72 Q241.72 1106.3 235.909 1106.3 Q230.099 1106.3 227.021 1101.72 Q223.965 1097.11 223.965 1088.38 Q223.965 1079.63 227.021 1075.05 Q230.099 1070.45 235.909 1070.45 Z" fill="#000000" fill-rule="nonzero" fill-opacity="1" /><path clip-path="url(#clip840)" d="M256.118 1071.07 L274.474 1071.07 L274.474 1075.01 L260.4 1075.01 L260.4 1083.48 Q261.418 1083.13 262.437 1082.97 Q263.456 1082.78 264.474 1082.78 Q270.261 1082.78 273.641 1085.95 Q277.02 1089.13 277.02 1094.54 Q277.02 1100.12 273.548 1103.22 Q270.076 1106.3 263.756 1106.3 Q261.581 1106.3 259.312 1105.93 Q257.067 1105.56 254.659 1104.82 L254.659 1100.12 Q256.743 1101.26 258.965 1101.81 Q261.187 1102.37 263.664 1102.37 Q267.668 1102.37 270.006 1100.26 Q272.344 1098.15 272.344 1094.54 Q272.344 1090.93 270.006 1088.82 Q267.668 1086.72 263.664 1086.72 Q261.789 1086.72 259.914 1087.13 Q258.062 1087.55 256.118 1088.43 L256.118 1071.07 Z" fill="#000000" fill-rule="nonzero" fill-opacity="1" /><path clip-path="url(#clip840)" d="M189.521 839.47 Q185.91 839.47 184.081 843.035 Q182.275 846.577 182.275 853.706 Q182.275 860.813 184.081 864.377 Q185.91 867.919 189.521 867.919 Q193.155 867.919 194.961 864.377 Q196.789 860.813 196.789 853.706 Q196.789 846.577 194.961 843.035 Q193.155 839.47 189.521 839.47 M189.521 835.766 Q195.331 835.766 198.386 840.373 Q201.465 844.956 201.465 853.706 Q201.465 862.433 198.386 867.039 Q195.331 871.623 189.521 871.623 Q183.711 871.623 180.632 867.039 Q177.576 862.433 177.576 853.706 Q177.576 844.956 180.632 840.373 Q183.711 835.766 189.521 835.766 Z" fill="#000000" fill-rule="nonzero" fill-opacity="1" /><path clip-path="url(#clip840)" d="M209.683 865.072 L214.567 865.072 L214.567 870.951 L209.683 870.951 L209.683 865.072 Z" fill="#000000" fill-rule="nonzero" fill-opacity="1" /><path clip-path="url(#clip840)" d="M234.752 839.47 Q231.141 839.47 229.312 843.035 Q227.507 846.577 227.507 853.706 Q227.507 860.813 229.312 864.377 Q231.141 867.919 234.752 867.919 Q238.386 867.919 240.192 864.377 Q242.02 860.813 242.02 853.706 Q242.02 846.577 240.192 843.035 Q238.386 839.47 234.752 839.47 M234.752 835.766 Q240.562 835.766 243.618 840.373 Q246.696 844.956 246.696 853.706 Q246.696 862.433 243.618 867.039 Q240.562 871.623 234.752 871.623 Q228.942 871.623 225.863 867.039 Q222.808 862.433 222.808 853.706 Q222.808 844.956 225.863 840.373 Q228.942 835.766 234.752 835.766 Z" fill="#000000" fill-rule="nonzero" fill-opacity="1" /><path clip-path="url(#clip840)" d="M265.493 851.808 Q262.344 851.808 260.493 853.961 Q258.664 856.114 258.664 859.864 Q258.664 863.59 260.493 865.766 Q262.344 867.919 265.493 867.919 Q268.641 867.919 270.469 865.766 Q272.321 863.59 272.321 859.864 Q272.321 856.114 270.469 853.961 Q268.641 851.808 265.493 851.808 M274.775 837.155 L274.775 841.415 Q273.016 840.581 271.21 840.141 Q269.428 839.702 267.668 839.702 Q263.039 839.702 260.585 842.827 Q258.155 845.952 257.807 852.271 Q259.173 850.257 261.233 849.192 Q263.293 848.104 265.77 848.104 Q270.979 848.104 273.988 851.276 Q277.02 854.424 277.02 859.864 Q277.02 865.188 273.872 868.405 Q270.724 871.623 265.493 871.623 Q259.497 871.623 256.326 867.039 Q253.155 862.433 253.155 853.706 Q253.155 845.512 257.044 840.651 Q260.932 835.766 267.483 835.766 Q269.243 835.766 271.025 836.114 Q272.83 836.461 274.775 837.155 Z" fill="#000000" fill-rule="nonzero" fill-opacity="1" /><path clip-path="url(#clip840)" d="M190.586 604.791 Q186.974 604.791 185.146 608.356 Q183.34 611.898 183.34 619.027 Q183.34 626.134 185.146 629.699 Q186.974 633.24 190.586 633.24 Q194.22 633.24 196.025 629.699 Q197.854 626.134 197.854 619.027 Q197.854 611.898 196.025 608.356 Q194.22 604.791 190.586 604.791 M190.586 601.088 Q196.396 601.088 199.451 605.694 Q202.53 610.278 202.53 619.027 Q202.53 627.754 199.451 632.361 Q196.396 636.944 190.586 636.944 Q184.775 636.944 181.697 632.361 Q178.641 627.754 178.641 619.027 Q178.641 610.278 181.697 605.694 Q184.775 601.088 190.586 601.088 Z" fill="#000000" fill-rule="nonzero" fill-opacity="1" /><path clip-path="url(#clip840)" d="M210.747 630.393 L215.632 630.393 L215.632 636.273 L210.747 636.273 L210.747 630.393 Z" fill="#000000" fill-rule="nonzero" fill-opacity="1" /><path clip-path="url(#clip840)" d="M235.817 604.791 Q232.206 604.791 230.377 608.356 Q228.571 611.898 228.571 619.027 Q228.571 626.134 230.377 629.699 Q232.206 633.24 235.817 633.24 Q239.451 633.24 241.257 629.699 Q243.085 626.134 243.085 619.027 Q243.085 611.898 241.257 608.356 Q239.451 604.791 235.817 604.791 M235.817 601.088 Q241.627 601.088 244.682 605.694 Q247.761 610.278 247.761 619.027 Q247.761 627.754 244.682 632.361 Q241.627 636.944 235.817 636.944 Q230.007 636.944 226.928 632.361 Q223.872 627.754 223.872 619.027 Q223.872 610.278 226.928 605.694 Q230.007 601.088 235.817 601.088 Z" fill="#000000" fill-rule="nonzero" fill-opacity="1" /><path clip-path="url(#clip840)" d="M254.798 601.713 L277.02 601.713 L277.02 603.703 L264.474 636.273 L259.59 636.273 L271.395 605.648 L254.798 605.648 L254.798 601.713 Z" fill="#000000" fill-rule="nonzero" fill-opacity="1" /><path clip-path="url(#clip840)" d="M189.775 370.113 Q186.164 370.113 184.336 373.678 Q182.53 377.219 182.53 384.349 Q182.53 391.455 184.336 395.02 Q186.164 398.562 189.775 398.562 Q193.41 398.562 195.215 395.02 Q197.044 391.455 197.044 384.349 Q197.044 377.219 195.215 373.678 Q193.41 370.113 189.775 370.113 M189.775 366.409 Q195.586 366.409 198.641 371.015 Q201.72 375.599 201.72 384.349 Q201.72 393.076 198.641 397.682 Q195.586 402.265 189.775 402.265 Q183.965 402.265 180.887 397.682 Q177.831 393.076 177.831 384.349 Q177.831 375.599 180.887 371.015 Q183.965 366.409 189.775 366.409 Z" fill="#000000" fill-rule="nonzero" fill-opacity="1" /><path clip-path="url(#clip840)" d="M209.937 395.714 L214.822 395.714 L214.822 401.594 L209.937 401.594 L209.937 395.714 Z" fill="#000000" fill-rule="nonzero" fill-opacity="1" /><path clip-path="url(#clip840)" d="M235.007 370.113 Q231.396 370.113 229.567 373.678 Q227.761 377.219 227.761 384.349 Q227.761 391.455 229.567 395.02 Q231.396 398.562 235.007 398.562 Q238.641 398.562 240.446 395.02 Q242.275 391.455 242.275 384.349 Q242.275 377.219 240.446 373.678 Q238.641 370.113 235.007 370.113 M235.007 366.409 Q240.817 366.409 243.872 371.015 Q246.951 375.599 246.951 384.349 Q246.951 393.076 243.872 397.682 Q240.817 402.265 235.007 402.265 Q229.196 402.265 226.118 397.682 Q223.062 393.076 223.062 384.349 Q223.062 375.599 226.118 371.015 Q229.196 366.409 235.007 366.409 Z" fill="#000000" fill-rule="nonzero" fill-opacity="1" /><path clip-path="url(#clip840)" d="M265.168 385.182 Q261.835 385.182 259.914 386.964 Q258.016 388.747 258.016 391.872 Q258.016 394.997 259.914 396.779 Q261.835 398.562 265.168 398.562 Q268.502 398.562 270.423 396.779 Q272.344 394.974 272.344 391.872 Q272.344 388.747 270.423 386.964 Q268.525 385.182 265.168 385.182 M260.493 383.191 Q257.483 382.451 255.794 380.39 Q254.127 378.33 254.127 375.367 Q254.127 371.224 257.067 368.816 Q260.03 366.409 265.168 366.409 Q270.33 366.409 273.27 368.816 Q276.21 371.224 276.21 375.367 Q276.21 378.33 274.52 380.39 Q272.854 382.451 269.868 383.191 Q273.247 383.978 275.122 386.27 Q277.02 388.562 277.02 391.872 Q277.02 396.895 273.942 399.58 Q270.886 402.265 265.168 402.265 Q259.451 402.265 256.372 399.58 Q253.317 396.895 253.317 391.872 Q253.317 388.562 255.215 386.27 Q257.113 383.978 260.493 383.191 M258.78 375.807 Q258.78 378.492 260.446 379.997 Q262.136 381.502 265.168 381.502 Q268.178 381.502 269.868 379.997 Q271.58 378.492 271.58 375.807 Q271.58 373.122 269.868 371.617 Q268.178 370.113 265.168 370.113 Q262.136 370.113 260.446 371.617 Q258.78 373.122 258.78 375.807 Z" fill="#000000" fill-rule="nonzero" fill-opacity="1" /><path clip-path="url(#clip840)" d="M189.868 135.434 Q186.257 135.434 184.428 138.999 Q182.623 142.54 182.623 149.67 Q182.623 156.776 184.428 160.341 Q186.257 163.883 189.868 163.883 Q193.502 163.883 195.308 160.341 Q197.136 156.776 197.136 149.67 Q197.136 142.54 195.308 138.999 Q193.502 135.434 189.868 135.434 M189.868 131.73 Q195.678 131.73 198.734 136.337 Q201.812 140.92 201.812 149.67 Q201.812 158.397 198.734 163.003 Q195.678 167.587 189.868 167.587 Q184.058 167.587 180.979 163.003 Q177.924 158.397 177.924 149.67 Q177.924 140.92 180.979 136.337 Q184.058 131.73 189.868 131.73 Z" fill="#000000" fill-rule="nonzero" fill-opacity="1" /><path clip-path="url(#clip840)" d="M210.03 161.036 L214.914 161.036 L214.914 166.915 L210.03 166.915 L210.03 161.036 Z" fill="#000000" fill-rule="nonzero" fill-opacity="1" /><path clip-path="url(#clip840)" d="M235.099 135.434 Q231.488 135.434 229.659 138.999 Q227.854 142.54 227.854 149.67 Q227.854 156.776 229.659 160.341 Q231.488 163.883 235.099 163.883 Q238.733 163.883 240.539 160.341 Q242.368 156.776 242.368 149.67 Q242.368 142.54 240.539 138.999 Q238.733 135.434 235.099 135.434 M235.099 131.73 Q240.909 131.73 243.965 136.337 Q247.044 140.92 247.044 149.67 Q247.044 158.397 243.965 163.003 Q240.909 167.587 235.099 167.587 Q229.289 167.587 226.21 163.003 Q223.155 158.397 223.155 149.67 Q223.155 140.92 226.21 136.337 Q229.289 131.73 235.099 131.73 Z" fill="#000000" fill-rule="nonzero" fill-opacity="1" /><path clip-path="url(#clip840)" d="M255.4 166.198 L255.4 161.938 Q257.159 162.772 258.965 163.212 Q260.77 163.651 262.506 163.651 Q267.136 163.651 269.567 160.55 Q272.02 157.425 272.368 151.082 Q271.025 153.073 268.965 154.138 Q266.905 155.202 264.405 155.202 Q259.219 155.202 256.187 152.077 Q253.178 148.929 253.178 143.489 Q253.178 138.165 256.326 134.948 Q259.474 131.73 264.706 131.73 Q270.701 131.73 273.849 136.337 Q277.02 140.92 277.02 149.67 Q277.02 157.841 273.131 162.726 Q269.266 167.587 262.715 167.587 Q260.956 167.587 259.15 167.239 Q257.344 166.892 255.4 166.198 M264.706 151.545 Q267.854 151.545 269.682 149.392 Q271.534 147.239 271.534 143.489 Q271.534 139.763 269.682 137.61 Q267.854 135.434 264.706 135.434 Q261.557 135.434 259.706 137.61 Q257.877 139.763 257.877 143.489 Q257.877 147.239 259.706 149.392 Q261.557 151.545 264.706 151.545 Z" fill="#000000" fill-rule="nonzero" fill-opacity="1" /><path clip-path="url(#clip840)" d="M96.8228 982.884 Q96.2499 983.871 95.9953 985.048 Q95.7088 986.194 95.7088 987.595 Q95.7088 992.56 98.9553 995.233 Q102.17 997.875 108.217 997.875 L126.996 997.875 L126.996 1003.76 L91.3483 1003.76 L91.3483 997.875 L96.8865 997.875 Q93.64 996.029 92.0804 993.069 Q90.489 990.109 90.489 985.876 Q90.489 985.271 90.5844 984.539 Q90.6481 983.807 90.8072 982.916 L96.8228 982.884 Z" fill="#000000" fill-rule="nonzero" fill-opacity="1" /><path clip-path="url(#clip840)" d="M107.708 947.682 L110.573 947.682 L110.573 974.609 Q116.62 974.227 119.803 970.98 Q122.954 967.702 122.954 961.877 Q122.954 958.503 122.127 955.352 Q121.299 952.169 119.644 949.05 L125.182 949.05 Q126.519 952.201 127.219 955.511 Q127.919 958.822 127.919 962.227 Q127.919 970.757 122.954 975.754 Q117.989 980.72 109.522 980.72 Q100.77 980.72 95.6452 976.009 Q90.489 971.267 90.489 963.246 Q90.489 956.053 95.1359 951.883 Q99.7511 947.682 107.708 947.682 M105.989 953.538 Q101.183 953.602 98.3188 956.243 Q95.4542 958.853 95.4542 963.182 Q95.4542 968.084 98.2233 971.044 Q100.992 973.972 106.021 974.418 L105.989 953.538 Z" fill="#000000" fill-rule="nonzero" fill-opacity="1" /><path clip-path="url(#clip840)" d="M81.2269 932.277 L91.3483 932.277 L91.3483 920.214 L95.8998 920.214 L95.8998 932.277 L115.252 932.277 Q119.612 932.277 120.853 931.099 Q122.095 929.889 122.095 926.229 L122.095 920.214 L126.996 920.214 L126.996 926.229 Q126.996 933.009 124.482 935.587 Q121.936 938.165 115.252 938.165 L95.8998 938.165 L95.8998 942.462 L91.3483 942.462 L91.3483 938.165 L81.2269 938.165 L81.2269 932.277 Z" fill="#000000" fill-rule="nonzero" fill-opacity="1" /><path clip-path="url(#clip840)" d="M112.928 913.116 L91.3483 913.116 L91.3483 907.259 L112.705 907.259 Q117.766 907.259 120.312 905.286 Q122.827 903.313 122.827 899.366 Q122.827 894.623 119.803 891.886 Q116.779 889.117 111.559 889.117 L91.3483 889.117 L91.3483 883.261 L126.996 883.261 L126.996 889.117 L121.522 889.117 Q124.768 891.25 126.36 894.082 Q127.919 896.883 127.919 900.607 Q127.919 906.75 124.1 909.933 Q120.28 913.116 112.928 913.116 M90.489 898.379 L90.489 898.379 Z" fill="#000000" fill-rule="nonzero" fill-opacity="1" /><path clip-path="url(#clip840)" d="M96.8228 850.541 Q96.2499 851.528 95.9953 852.705 Q95.7088 853.851 95.7088 855.252 Q95.7088 860.217 98.9553 862.89 Q102.17 865.532 108.217 865.532 L126.996 865.532 L126.996 871.42 L91.3483 871.42 L91.3483 865.532 L96.8865 865.532 Q93.64 863.686 92.0804 860.726 Q90.489 857.766 90.489 853.533 Q90.489 852.928 90.5844 852.196 Q90.6481 851.464 90.8072 850.573 L96.8228 850.541 Z" fill="#000000" fill-rule="nonzero" fill-opacity="1" /><path clip-path="url(#clip840)" d="M105.48 815.911 L126.996 815.911 L126.996 821.768 L105.671 821.768 Q100.61 821.768 98.096 823.741 Q95.5815 825.715 95.5815 829.661 Q95.5815 834.404 98.6052 837.141 Q101.629 839.878 106.849 839.878 L126.996 839.878 L126.996 845.767 L91.3483 845.767 L91.3483 839.878 L96.8865 839.878 Q93.6718 837.778 92.0804 834.945 Q90.489 832.08 90.489 828.356 Q90.489 822.214 94.3084 819.063 Q98.096 815.911 105.48 815.911 Z" fill="#000000" fill-rule="nonzero" fill-opacity="1" /><path clip-path="url(#clip840)" d="M91.3483 787.711 L91.3483 781.505 L121.267 770.365 L91.3483 759.225 L91.3483 753.018 L126.996 766.386 L126.996 774.343 L91.3483 787.711 Z" fill="#000000" fill-rule="nonzero" fill-opacity="1" /><path clip-path="url(#clip840)" d="M95.4542 731.12 Q95.4542 735.831 99.1463 738.568 Q102.807 741.305 109.204 741.305 Q115.602 741.305 119.294 738.6 Q122.954 735.863 122.954 731.12 Q122.954 726.441 119.262 723.704 Q115.57 720.967 109.204 720.967 Q102.87 720.967 99.1781 723.704 Q95.4542 726.441 95.4542 731.12 M90.489 731.12 Q90.489 723.481 95.4542 719.121 Q100.419 714.76 109.204 714.76 Q117.957 714.76 122.954 719.121 Q127.919 723.481 127.919 731.12 Q127.919 738.791 122.954 743.151 Q117.957 747.48 109.204 747.48 Q100.419 747.48 95.4542 743.151 Q90.489 738.791 90.489 731.12 Z" fill="#000000" fill-rule="nonzero" fill-opacity="1" /><path clip-path="url(#clip840)" d="M77.4711 705.053 L77.4711 699.196 L126.996 699.196 L126.996 705.053 L77.4711 705.053 Z" fill="#000000" fill-rule="nonzero" fill-opacity="1" /><path clip-path="url(#clip840)" d="M109.077 670.742 Q109.077 677.839 110.7 680.577 Q112.323 683.314 116.238 683.314 Q119.357 683.314 121.203 681.277 Q123.018 679.208 123.018 675.675 Q123.018 670.805 119.58 667.877 Q116.111 664.917 110.382 664.917 L109.077 664.917 L109.077 670.742 M106.658 659.06 L126.996 659.06 L126.996 664.917 L121.585 664.917 Q124.832 666.922 126.392 669.914 Q127.919 672.906 127.919 677.235 Q127.919 682.709 124.864 685.956 Q121.776 689.17 116.62 689.17 Q110.605 689.17 107.549 685.16 Q104.494 681.118 104.494 673.129 L104.494 664.917 L103.921 664.917 Q99.8784 664.917 97.6822 667.591 Q95.4542 670.232 95.4542 675.038 Q95.4542 678.094 96.1863 680.99 Q96.9183 683.887 98.3824 686.56 L92.9716 686.56 Q91.7303 683.346 91.1255 680.322 Q90.489 677.298 90.489 674.434 Q90.489 666.699 94.4994 662.88 Q98.5097 659.06 106.658 659.06 Z" fill="#000000" fill-rule="nonzero" fill-opacity="1" /><path clip-path="url(#clip840)" d="M81.2269 641.205 L91.3483 641.205 L91.3483 629.142 L95.8998 629.142 L95.8998 641.205 L115.252 641.205 Q119.612 641.205 120.853 640.027 Q122.095 638.818 122.095 635.157 L122.095 629.142 L126.996 629.142 L126.996 635.157 Q126.996 641.937 124.482 644.515 Q121.936 647.093 115.252 647.093 L95.8998 647.093 L95.8998 651.39 L91.3483 651.39 L91.3483 647.093 L81.2269 647.093 L81.2269 641.205 Z" fill="#000000" fill-rule="nonzero" fill-opacity="1" /><path clip-path="url(#clip840)" d="M91.3483 621.439 L91.3483 615.583 L126.996 615.583 L126.996 621.439 L91.3483 621.439 M77.4711 621.439 L77.4711 615.583 L84.8871 615.583 L84.8871 621.439 L77.4711 621.439 Z" fill="#000000" fill-rule="nonzero" fill-opacity="1" /><path clip-path="url(#clip840)" d="M77.4711 603.329 L77.4711 597.472 L126.996 597.472 L126.996 603.329 L77.4711 603.329 Z" fill="#000000" fill-rule="nonzero" fill-opacity="1" /><path clip-path="url(#clip840)" d="M91.3483 585.218 L91.3483 579.362 L126.996 579.362 L126.996 585.218 L91.3483 585.218 M77.4711 585.218 L77.4711 579.362 L84.8871 579.362 L84.8871 585.218 L77.4711 585.218 Z" fill="#000000" fill-rule="nonzero" fill-opacity="1" /><path clip-path="url(#clip840)" d="M81.2269 561.315 L91.3483 561.315 L91.3483 549.252 L95.8998 549.252 L95.8998 561.315 L115.252 561.315 Q119.612 561.315 120.853 560.137 Q122.095 558.928 122.095 555.268 L122.095 549.252 L126.996 549.252 L126.996 555.268 Q126.996 562.047 124.482 564.625 Q121.936 567.203 115.252 567.203 L95.8998 567.203 L95.8998 571.5 L91.3483 571.5 L91.3483 567.203 L81.2269 567.203 L81.2269 561.315 Z" fill="#000000" fill-rule="nonzero" fill-opacity="1" /><path clip-path="url(#clip840)" d="M130.306 526.717 Q136.672 529.2 138.614 531.555 Q140.555 533.911 140.555 537.857 L140.555 542.536 L135.654 542.536 L135.654 539.099 Q135.654 536.68 134.508 535.343 Q133.362 534.006 129.097 532.383 L126.423 531.333 L91.3483 545.751 L91.3483 539.544 L119.23 528.404 L91.3483 517.264 L91.3483 511.058 L130.306 526.717 Z" fill="#000000" fill-rule="nonzero" fill-opacity="1" /><path clip-path="url(#clip840)" d="M95.9953 468.439 Q95.9953 473.277 99.4964 475.887 Q103.157 478.625 109.204 478.625 Q115.602 478.625 119.294 475.919 Q122.954 473.182 122.954 468.439 Q122.954 463.761 119.262 461.023 Q115.57 458.286 109.204 458.286 Q103.38 458.286 99.4964 461.023 Q95.9953 463.538 95.9953 468.439 M91.3483 468.439 L91.3483 448.992 L97.2048 448.992 L97.2048 455.549 Q102.17 452.08 109.204 452.08 Q117.957 452.08 122.922 456.44 Q127.919 460.801 127.919 468.439 Q127.919 476.11 122.922 480.439 Q117.957 484.799 109.204 484.799 Q100.388 484.799 95.4542 480.439 Q91.3483 476.842 91.3483 468.439 Z" fill="#000000" fill-rule="nonzero" fill-opacity="1" /><path clip-path="url(#clip840)" d="M104.716 418.15 Q105.417 416.081 107.708 414.14 Q110 412.167 114.01 410.193 L126.996 403.668 L126.996 410.575 L114.806 416.654 Q110.032 419.01 108.472 421.238 Q106.912 423.434 106.912 427.253 L106.912 434.256 L126.996 434.256 L126.996 440.685 L79.4763 440.685 L79.4763 426.171 Q79.4763 418.023 82.8819 414.013 Q86.2876 410.002 93.1626 410.002 Q97.6504 410.002 100.61 412.103 Q103.57 414.172 104.716 418.15 M84.7598 434.256 L101.629 434.256 L101.629 426.171 Q101.629 421.524 99.4964 419.169 Q97.3321 416.782 93.1626 416.782 Q88.993 416.782 86.8923 419.169 Q84.7598 421.524 84.7598 426.171 L84.7598 434.256 Z" fill="#000000" fill-rule="nonzero" fill-opacity="1" /><polyline clip-path="url(#clip841)" style="stroke:#009af9; stroke-linecap:round; stroke-linejoin:round; stroke-width:4; stroke-opacity:1; fill:none" points="370.749,1323.03 370.77,1322.11 370.835,1319.37 370.942,1314.83 371.093,1308.54 371.287,1300.53 371.524,1290.88 371.803,1279.65 372.126,1266.9 372.492,1252.71 372.901,1237.14 373.353,1220.26 373.848,1202.13 374.386,1182.8 374.967,1162.33 375.592,1140.78 376.259,1118.2 376.969,1094.63 377.722,1070.14 378.519,1044.77 379.358,1018.58 380.241,991.63 381.166,963.968 382.135,935.661 383.147,906.774 384.201,877.374 385.299,847.533 386.44,817.325 387.624,786.829 388.85,756.126 390.12,725.299 391.433,694.433 392.789,663.616 394.188,632.935 395.631,602.48 397.116,572.337 398.644,542.593 400.215,513.333 401.829,484.639 403.487,456.59 405.187,429.26 406.931,402.72 408.717,377.034 410.547,352.264 412.419,328.461 414.335,305.675 416.294,283.947 418.295,263.311 420.34,243.797 422.428,225.426 424.559,208.216 426.733,192.176 428.95,177.31 431.21,163.619 433.513,151.095 435.859,139.728 438.248,129.503 440.681,120.401 443.156,112.399 445.674,105.471 448.236,99.5886 450.84,94.7211 453.487,90.8355 456.178,87.8972 458.911,85.8704 461.688,84.7181 464.508,84.4029 467.37,84.8868 470.276,86.1316 473.225,88.0993 476.217,90.752 479.252,94.0523 482.33,97.9633 485.451,102.449 488.615,107.474 491.822,113.003 495.072,119.004 498.365,125.444 501.701,132.291 505.081,139.517 508.503,147.091 511.968,154.986 515.477,163.176 519.028,171.636 522.623,180.342 526.26,189.271 529.941,198.402 533.665,207.716 537.432,217.192 541.241,226.815 545.094,236.569 548.99,246.439 552.929,256.413 556.911,266.48 560.936,276.633 565.004,286.865 569.115,297.173 573.269,307.559 577.466,318.029 581.707,328.596 585.99,339.28 590.316,350.112 594.686,361.139 599.098,372.427 603.554,384.069 608.052,396.198 612.594,408.995 617.178,422.719 621.806,437.729 626.477,454.538 631.191,432.235 635.947,441.63 640.747,450.973 645.59,460.259 650.476,469.483 655.405,478.642 660.377,487.733 665.392,496.754 670.451,505.7 675.552,514.57 680.696,523.363 685.883,532.075 691.114,540.706 696.387,549.254 701.704,557.718 707.063,566.097 712.466,574.39 717.911,582.597 723.4,590.716 728.932,598.748 734.506,606.692 740.124,614.548 745.785,622.316 751.489,629.996 757.236,637.588 763.026,645.092 768.859,652.509 774.735,659.839 780.654,667.083 786.616,674.24 792.622,681.311 798.67,688.298 804.761,695.2 810.896,702.018 817.073,708.753 823.294,715.406 829.557,721.977 835.864,728.466 842.213,734.876 848.606,741.207 855.042,747.458 861.52,753.632 868.042,759.73 874.607,765.751 881.215,771.696 887.866,777.568 894.56,783.366 901.297,789.091 908.077,794.743 914.9,800.325 921.766,805.836 928.676,811.277 935.628,816.648 942.623,821.95 949.662,827.182 956.743,832.345 963.868,837.437 971.035,842.455 978.246,847.398 985.499,852.259 992.796,857.03 1000.14,861.698 1007.52,866.244 1014.94,870.637 1022.41,874.832 1029.93,878.76 1037.48,882.315 1045.08,885.337 1052.72,887.582 1060.4,888.672 1068.13,888.031 1075.9,884.765 1083.71,882.517 1091.57,883.613 1099.47,884.928 1107.41,886.456 1115.4,888.193 1123.43,890.131 1131.5,892.266 1139.61,894.591 1147.77,897.101 1155.97,899.791 1164.21,902.653 1172.5,905.682 1180.83,908.872 1189.2,912.217 1197.62,915.712 1206.08,919.349 1214.58,923.123 1223.13,927.028 1231.71,931.058 1240.35,935.206 1249.02,939.467 1257.74,943.835 1266.5,948.303 1275.3,952.866 1284.15,957.517 1293.04,962.251 1301.97,967.063 1310.94,971.945 1319.96,976.893 1329.02,981.901 1338.13,986.964 1347.28,992.075 1356.47,997.23 1365.7,1002.42 1374.98,1007.65 1384.3,1012.9 1393.66,1018.18 1403.07,1023.48 1412.52,1028.79 1422.01,1034.11 1431.54,1039.43 1441.12,1044.76 1450.74,1050.08 1460.41,1055.39 1470.12,1060.7 1479.87,1065.99 1489.66,1071.26 1499.5,1076.51 1509.38,1081.73 1519.3,1086.93 1529.26,1092.1 1539.27,1097.23 1549.32,1102.33 1559.42,1107.39 1569.56,1112.41 1579.74,1117.39 1589.96,1122.33 1600.23,1127.21 1610.54,1132.06 1620.89,1136.85 1631.29,1141.59 1641.73,1146.28 1652.21,1150.92 1662.73,1155.5 1673.3,1160.03 1683.91,1164.5 1694.57,1168.92 1705.27,1173.28 1716.01,1177.58 1726.79,1181.83 1737.62,1186.01 1748.49,1190.14 1759.4,1194.21 1770.36,1198.22 1781.35,1202.18 1792.4,1206.07 1803.48,1209.91 1814.61,1213.69 1825.78,1217.41 1836.99,1221.07 1848.25,1224.68 1859.55,1228.23 1870.89,1231.72 1882.28,1235.16 1893.71,1238.54 1905.18,1241.86 1916.7,1245.13 1928.26,1248.35 1939.86,1251.52 1951.5,1254.63 1963.19,1257.69 1974.92,1260.69 1986.69,1263.65 1998.51,1266.56 2010.37,1269.41 2022.27,1272.22 2034.22,1274.98 2046.21,1277.69 2058.24,1280.36 2070.32,1282.98 2082.43,1285.55 2094.59,1288.08 2106.8,1290.57 2119.05,1293.01 2131.34,1295.41 2143.67,1297.76 2156.05,1300.08 2168.47,1302.36 2180.93,1304.59 2193.43,1306.79 2205.98,1308.95 2218.57,1311.07 2231.21,1313.15 2243.89,1315.2 2256.61,1317.21 2269.37,1319.18 2282.18,1321.12 2295.03,1323.03 "/>
</svg>
