<?xml version="1.0" encoding="utf-8"?>
<svg xmlns="http://www.w3.org/2000/svg" xmlns:xlink="http://www.w3.org/1999/xlink" width="800" height="300" viewBox="0 0 3200 1200">
<defs>
  <clipPath id="clip390">
    <rect x="0" y="0" width="3200" height="1200"/>
  </clipPath>
</defs>
<path clip-path="url(#clip390)" d="M0 1200 L3200 1200 L3200 0 L0 0  Z" fill="#ffffff" fill-rule="evenodd" fill-opacity="1"/>
<defs>
  <clipPath id="clip391">
    <rect x="1888" y="47" width="1265" height="954"/>
  </clipPath>
</defs>
<path clip-path="url(#clip390)" d="M269.235 1000.1 L1533.43 1000.1 L1533.43 47.2441 L269.235 47.2441  Z" fill="#ffffff" fill-rule="evenodd" fill-opacity="1"/>
<defs>
  <clipPath id="clip392">
    <rect x="269" y="47" width="1265" height="954"/>
  </clipPath>
</defs>
<polyline clip-path="url(#clip392)" style="stroke:#000000; stroke-linecap:round; stroke-linejoin:round; stroke-width:2; stroke-opacity:0.1; fill:none" points="305.014,1000.1 305.014,47.2441 "/>
<polyline clip-path="url(#clip392)" style="stroke:#000000; stroke-linecap:round; stroke-linejoin:round; stroke-width:2; stroke-opacity:0.1; fill:none" points="672.606,1000.1 672.606,47.2441 "/>
<polyline clip-path="url(#clip392)" style="stroke:#000000; stroke-linecap:round; stroke-linejoin:round; stroke-width:2; stroke-opacity:0.1; fill:none" points="1040.2,1000.1 1040.2,47.2441 "/>
<polyline clip-path="url(#clip392)" style="stroke:#000000; stroke-linecap:round; stroke-linejoin:round; stroke-width:2; stroke-opacity:0.1; fill:none" points="1407.79,1000.1 1407.79,47.2441 "/>
<polyline clip-path="url(#clip392)" style="stroke:#000000; stroke-linecap:round; stroke-linejoin:round; stroke-width:2; stroke-opacity:0.1; fill:none" points="269.235,982.86 1533.43,982.86 "/>
<polyline clip-path="url(#clip392)" style="stroke:#000000; stroke-linecap:round; stroke-linejoin:round; stroke-width:2; stroke-opacity:0.1; fill:none" points="269.235,786.89 1533.43,786.89 "/>
<polyline clip-path="url(#clip392)" style="stroke:#000000; stroke-linecap:round; stroke-linejoin:round; stroke-width:2; stroke-opacity:0.1; fill:none" points="269.235,590.92 1533.43,590.92 "/>
<polyline clip-path="url(#clip392)" style="stroke:#000000; stroke-linecap:round; stroke-linejoin:round; stroke-width:2; stroke-opacity:0.1; fill:none" points="269.235,394.95 1533.43,394.95 "/>
<polyline clip-path="url(#clip392)" style="stroke:#000000; stroke-linecap:round; stroke-linejoin:round; stroke-width:2; stroke-opacity:0.1; fill:none" points="269.235,198.98 1533.43,198.98 "/>
<polyline clip-path="url(#clip390)" style="stroke:#000000; stroke-linecap:round; stroke-linejoin:round; stroke-width:4; stroke-opacity:1; fill:none" points="269.235,1000.1 1533.43,1000.1 "/>
<polyline clip-path="url(#clip390)" style="stroke:#000000; stroke-linecap:round; stroke-linejoin:round; stroke-width:4; stroke-opacity:1; fill:none" points="305.014,1000.1 305.014,981.2 "/>
<polyline clip-path="url(#clip390)" style="stroke:#000000; stroke-linecap:round; stroke-linejoin:round; stroke-width:4; stroke-opacity:1; fill:none" points="672.606,1000.1 672.606,981.2 "/>
<polyline clip-path="url(#clip390)" style="stroke:#000000; stroke-linecap:round; stroke-linejoin:round; stroke-width:4; stroke-opacity:1; fill:none" points="1040.2,1000.1 1040.2,981.2 "/>
<polyline clip-path="url(#clip390)" style="stroke:#000000; stroke-linecap:round; stroke-linejoin:round; stroke-width:4; stroke-opacity:1; fill:none" points="1407.79,1000.1 1407.79,981.2 "/>
<path clip-path="url(#clip390)" d="M305.014 1037.42 Q301.403 1037.42 299.574 1040.98 Q297.769 1044.52 297.769 1051.65 Q297.769 1058.76 299.574 1062.32 Q301.403 1065.87 305.014 1065.87 Q308.648 1065.87 310.454 1062.32 Q312.283 1058.76 312.283 1051.65 Q312.283 1044.52 310.454 1040.98 Q308.648 1037.42 305.014 1037.42 M305.014 1033.71 Q310.824 1033.71 313.88 1038.32 Q316.958 1042.9 316.958 1051.65 Q316.958 1060.38 313.88 1064.99 Q310.824 1069.57 305.014 1069.57 Q299.204 1069.57 296.125 1064.99 Q293.07 1060.38 293.07 1051.65 Q293.07 1042.9 296.125 1038.32 Q299.204 1033.71 305.014 1033.71 Z" fill="#000000" fill-rule="nonzero" fill-opacity="1" /><path clip-path="url(#clip390)" d="M647.294 1064.96 L654.933 1064.96 L654.933 1038.6 L646.623 1040.26 L646.623 1036 L654.887 1034.34 L659.562 1034.34 L659.562 1064.96 L667.201 1064.96 L667.201 1068.9 L647.294 1068.9 L647.294 1064.96 Z" fill="#000000" fill-rule="nonzero" fill-opacity="1" /><path clip-path="url(#clip390)" d="M686.646 1037.42 Q683.035 1037.42 681.206 1040.98 Q679.4 1044.52 679.4 1051.65 Q679.4 1058.76 681.206 1062.32 Q683.035 1065.87 686.646 1065.87 Q690.28 1065.87 692.085 1062.32 Q693.914 1058.76 693.914 1051.65 Q693.914 1044.52 692.085 1040.98 Q690.28 1037.42 686.646 1037.42 M686.646 1033.71 Q692.456 1033.71 695.511 1038.32 Q698.59 1042.9 698.59 1051.65 Q698.59 1060.38 695.511 1064.99 Q692.456 1069.57 686.646 1069.57 Q680.835 1069.57 677.757 1064.99 Q674.701 1060.38 674.701 1051.65 Q674.701 1042.9 677.757 1038.32 Q680.835 1033.71 686.646 1033.71 Z" fill="#000000" fill-rule="nonzero" fill-opacity="1" /><path clip-path="url(#clip390)" d="M1018.97 1064.96 L1035.29 1064.96 L1035.29 1068.9 L1013.35 1068.9 L1013.35 1064.96 Q1016.01 1062.21 1020.59 1057.58 Q1025.2 1052.93 1026.38 1051.58 Q1028.62 1049.06 1029.5 1047.32 Q1030.41 1045.56 1030.41 1043.87 Q1030.41 1041.12 1028.46 1039.38 Q1026.54 1037.65 1023.44 1037.65 Q1021.24 1037.65 1018.79 1038.41 Q1016.36 1039.18 1013.58 1040.73 L1013.58 1036 Q1016.4 1034.87 1018.86 1034.29 Q1021.31 1033.71 1023.35 1033.71 Q1028.72 1033.71 1031.91 1036.4 Q1035.11 1039.08 1035.11 1043.57 Q1035.11 1045.7 1034.3 1047.62 Q1033.51 1049.52 1031.4 1052.12 Q1030.82 1052.79 1027.72 1056 Q1024.62 1059.2 1018.97 1064.96 Z" fill="#000000" fill-rule="nonzero" fill-opacity="1" /><path clip-path="url(#clip390)" d="M1055.11 1037.42 Q1051.49 1037.42 1049.67 1040.98 Q1047.86 1044.52 1047.86 1051.65 Q1047.86 1058.76 1049.67 1062.32 Q1051.49 1065.87 1055.11 1065.87 Q1058.74 1065.87 1060.55 1062.32 Q1062.37 1058.76 1062.37 1051.65 Q1062.37 1044.52 1060.55 1040.98 Q1058.74 1037.42 1055.11 1037.42 M1055.11 1033.71 Q1060.92 1033.71 1063.97 1038.32 Q1067.05 1042.9 1067.05 1051.65 Q1067.05 1060.38 1063.97 1064.99 Q1060.92 1069.57 1055.11 1069.57 Q1049.3 1069.57 1046.22 1064.99 Q1043.16 1060.38 1043.16 1051.65 Q1043.16 1042.9 1046.22 1038.32 Q1049.3 1033.71 1055.11 1033.71 Z" fill="#000000" fill-rule="nonzero" fill-opacity="1" /><path clip-path="url(#clip390)" d="M1396.63 1050.26 Q1399.99 1050.98 1401.87 1053.25 Q1403.76 1055.52 1403.76 1058.85 Q1403.76 1063.97 1400.24 1066.77 Q1396.73 1069.57 1390.24 1069.57 Q1388.07 1069.57 1385.75 1069.13 Q1383.46 1068.71 1381.01 1067.86 L1381.01 1063.34 Q1382.95 1064.48 1385.27 1065.06 Q1387.58 1065.63 1390.11 1065.63 Q1394.5 1065.63 1396.8 1063.9 Q1399.11 1062.16 1399.11 1058.85 Q1399.11 1055.8 1396.96 1054.08 Q1394.83 1052.35 1391.01 1052.35 L1386.98 1052.35 L1386.98 1048.5 L1391.19 1048.5 Q1394.64 1048.5 1396.47 1047.14 Q1398.3 1045.75 1398.3 1043.16 Q1398.3 1040.5 1396.4 1039.08 Q1394.53 1037.65 1391.01 1037.65 Q1389.09 1037.65 1386.89 1038.06 Q1384.69 1038.48 1382.05 1039.36 L1382.05 1035.19 Q1384.71 1034.45 1387.03 1034.08 Q1389.37 1033.71 1391.43 1033.71 Q1396.75 1033.71 1399.85 1036.14 Q1402.95 1038.55 1402.95 1042.67 Q1402.95 1045.54 1401.31 1047.53 Q1399.67 1049.5 1396.63 1050.26 Z" fill="#000000" fill-rule="nonzero" fill-opacity="1" /><path clip-path="url(#clip390)" d="M1422.63 1037.42 Q1419.02 1037.42 1417.19 1040.98 Q1415.38 1044.52 1415.38 1051.65 Q1415.38 1058.76 1417.19 1062.32 Q1419.02 1065.87 1422.63 1065.87 Q1426.26 1065.87 1428.07 1062.32 Q1429.9 1058.76 1429.9 1051.65 Q1429.9 1044.52 1428.07 1040.98 Q1426.26 1037.42 1422.63 1037.42 M1422.63 1033.71 Q1428.44 1033.71 1431.49 1038.32 Q1434.57 1042.9 1434.57 1051.65 Q1434.57 1060.38 1431.49 1064.99 Q1428.44 1069.57 1422.63 1069.57 Q1416.82 1069.57 1413.74 1064.99 Q1410.68 1060.38 1410.68 1051.65 Q1410.68 1042.9 1413.74 1038.32 Q1416.82 1033.71 1422.63 1033.71 Z" fill="#000000" fill-rule="nonzero" fill-opacity="1" /><path clip-path="url(#clip390)" d="M766.155 1121.31 L772.012 1121.31 L779.332 1149.13 L786.621 1121.31 L793.528 1121.31 L800.849 1149.13 L808.137 1121.31 L813.994 1121.31 L804.668 1156.96 L797.761 1156.96 L790.09 1127.74 L782.388 1156.96 L775.481 1156.96 L766.155 1121.31 Z" fill="#000000" fill-rule="nonzero" fill-opacity="1" /><path clip-path="url(#clip390)" d="M853.366 1137.67 L853.366 1140.54 L826.439 1140.54 Q826.821 1146.59 830.067 1149.77 Q833.345 1152.92 839.17 1152.92 Q842.544 1152.92 845.695 1152.09 Q848.878 1151.26 851.997 1149.61 L851.997 1155.15 Q848.846 1156.48 845.536 1157.18 Q842.226 1157.88 838.82 1157.88 Q830.29 1157.88 825.293 1152.92 Q820.328 1147.95 820.328 1139.49 Q820.328 1130.74 825.038 1125.61 Q829.781 1120.45 837.801 1120.45 Q844.995 1120.45 849.164 1125.1 Q853.366 1129.72 853.366 1137.67 M847.509 1135.95 Q847.445 1131.15 844.804 1128.28 Q842.194 1125.42 837.865 1125.42 Q832.963 1125.42 830.003 1128.19 Q827.075 1130.96 826.63 1135.99 L847.509 1135.95 Z" fill="#000000" fill-rule="nonzero" fill-opacity="1" /><path clip-path="url(#clip390)" d="M879.179 1139.04 Q872.081 1139.04 869.344 1140.67 Q866.606 1142.29 866.606 1146.2 Q866.606 1149.32 868.643 1151.17 Q870.712 1152.98 874.245 1152.98 Q879.115 1152.98 882.043 1149.55 Q885.003 1146.08 885.003 1140.35 L885.003 1139.04 L879.179 1139.04 M890.86 1136.62 L890.86 1156.96 L885.003 1156.96 L885.003 1151.55 Q882.998 1154.8 880.006 1156.36 Q877.014 1157.88 872.686 1157.88 Q867.211 1157.88 863.964 1154.83 Q860.75 1151.74 860.75 1146.59 Q860.75 1140.57 864.76 1137.51 Q868.802 1134.46 876.791 1134.46 L885.003 1134.46 L885.003 1133.89 Q885.003 1129.84 882.33 1127.65 Q879.688 1125.42 874.882 1125.42 Q871.826 1125.42 868.93 1126.15 Q866.033 1126.88 863.36 1128.35 L863.36 1122.94 Q866.574 1121.7 869.598 1121.09 Q872.622 1120.45 875.486 1120.45 Q883.221 1120.45 887.04 1124.46 Q890.86 1128.48 890.86 1136.62 Z" fill="#000000" fill-rule="nonzero" fill-opacity="1" /><path clip-path="url(#clip390)" d="M902.923 1107.44 L908.779 1107.44 L908.779 1156.96 L902.923 1156.96 L902.923 1107.44 Z" fill="#000000" fill-rule="nonzero" fill-opacity="1" /><path clip-path="url(#clip390)" d="M926.826 1111.19 L926.826 1121.31 L938.889 1121.31 L938.889 1125.87 L926.826 1125.87 L926.826 1145.22 Q926.826 1149.58 928.003 1150.82 Q929.213 1152.06 932.873 1152.06 L938.889 1152.06 L938.889 1156.96 L932.873 1156.96 Q926.094 1156.96 923.516 1154.45 Q920.938 1151.9 920.938 1145.22 L920.938 1125.87 L916.641 1125.87 L916.641 1121.31 L920.938 1121.31 L920.938 1111.19 L926.826 1111.19 Z" fill="#000000" fill-rule="nonzero" fill-opacity="1" /><path clip-path="url(#clip390)" d="M976.224 1135.45 L976.224 1156.96 L970.367 1156.96 L970.367 1135.64 Q970.367 1130.58 968.394 1128.06 Q966.421 1125.55 962.474 1125.55 Q957.731 1125.55 954.994 1128.57 Q952.257 1131.59 952.257 1136.81 L952.257 1156.96 L946.369 1156.96 L946.369 1107.44 L952.257 1107.44 L952.257 1126.85 Q954.358 1123.64 957.19 1122.05 Q960.055 1120.45 963.779 1120.45 Q969.922 1120.45 973.073 1124.27 Q976.224 1128.06 976.224 1135.45 Z" fill="#000000" fill-rule="nonzero" fill-opacity="1" /><path clip-path="url(#clip390)" d="M1024.83 1139.04 Q1017.73 1139.04 1014.99 1140.67 Q1012.25 1142.29 1012.25 1146.2 Q1012.25 1149.32 1014.29 1151.17 Q1016.36 1152.98 1019.89 1152.98 Q1024.76 1152.98 1027.69 1149.55 Q1030.65 1146.08 1030.65 1140.35 L1030.65 1139.04 L1024.83 1139.04 M1036.51 1136.62 L1036.51 1156.96 L1030.65 1156.96 L1030.65 1151.55 Q1028.65 1154.8 1025.65 1156.36 Q1022.66 1157.88 1018.33 1157.88 Q1012.86 1157.88 1009.61 1154.83 Q1006.4 1151.74 1006.4 1146.59 Q1006.4 1140.57 1010.41 1137.51 Q1014.45 1134.46 1022.44 1134.46 L1030.65 1134.46 L1030.65 1133.89 Q1030.65 1129.84 1027.98 1127.65 Q1025.34 1125.42 1020.53 1125.42 Q1017.47 1125.42 1014.58 1126.15 Q1011.68 1126.88 1009.01 1128.35 L1009.01 1122.94 Q1012.22 1121.7 1015.25 1121.09 Q1018.27 1120.45 1021.13 1120.45 Q1028.87 1120.45 1032.69 1124.46 Q1036.51 1128.48 1036.51 1136.62 Z" fill="#000000" fill-rule="nonzero" fill-opacity="1" /><polyline clip-path="url(#clip390)" style="stroke:#000000; stroke-linecap:round; stroke-linejoin:round; stroke-width:4; stroke-opacity:1; fill:none" points="269.235,1000.1 269.235,47.2441 "/>
<polyline clip-path="url(#clip390)" style="stroke:#000000; stroke-linecap:round; stroke-linejoin:round; stroke-width:4; stroke-opacity:1; fill:none" points="269.235,982.86 288.133,982.86 "/>
<polyline clip-path="url(#clip390)" style="stroke:#000000; stroke-linecap:round; stroke-linejoin:round; stroke-width:4; stroke-opacity:1; fill:none" points="269.235,786.89 288.133,786.89 "/>
<polyline clip-path="url(#clip390)" style="stroke:#000000; stroke-linecap:round; stroke-linejoin:round; stroke-width:4; stroke-opacity:1; fill:none" points="269.235,590.92 288.133,590.92 "/>
<polyline clip-path="url(#clip390)" style="stroke:#000000; stroke-linecap:round; stroke-linejoin:round; stroke-width:4; stroke-opacity:1; fill:none" points="269.235,394.95 288.133,394.95 "/>
<polyline clip-path="url(#clip390)" style="stroke:#000000; stroke-linecap:round; stroke-linejoin:round; stroke-width:4; stroke-opacity:1; fill:none" points="269.235,198.98 288.133,198.98 "/>
<path clip-path="url(#clip390)" d="M165.055 968.658 Q161.444 968.658 159.615 972.223 Q157.809 975.765 157.809 982.894 Q157.809 990.001 159.615 993.565 Q161.444 997.107 165.055 997.107 Q168.689 997.107 170.495 993.565 Q172.323 990.001 172.323 982.894 Q172.323 975.765 170.495 972.223 Q168.689 968.658 165.055 968.658 M165.055 964.955 Q170.865 964.955 173.921 969.561 Q176.999 974.144 176.999 982.894 Q176.999 991.621 173.921 996.227 Q170.865 1000.81 165.055 1000.81 Q159.245 1000.81 156.166 996.227 Q153.11 991.621 153.11 982.894 Q153.11 974.144 156.166 969.561 Q159.245 964.955 165.055 964.955 Z" fill="#000000" fill-rule="nonzero" fill-opacity="1" /><path clip-path="url(#clip390)" d="M185.217 994.26 L190.101 994.26 L190.101 1000.14 L185.217 1000.14 L185.217 994.26 Z" fill="#000000" fill-rule="nonzero" fill-opacity="1" /><path clip-path="url(#clip390)" d="M200.332 965.58 L218.689 965.58 L218.689 969.515 L204.615 969.515 L204.615 977.987 Q205.633 977.64 206.652 977.478 Q207.67 977.292 208.689 977.292 Q214.476 977.292 217.855 980.464 Q221.235 983.635 221.235 989.052 Q221.235 994.63 217.763 997.732 Q214.291 1000.81 207.971 1000.81 Q205.795 1000.81 203.527 1000.44 Q201.281 1000.07 198.874 999.329 L198.874 994.63 Q200.957 995.765 203.18 996.32 Q205.402 996.876 207.879 996.876 Q211.883 996.876 214.221 994.769 Q216.559 992.663 216.559 989.052 Q216.559 985.441 214.221 983.334 Q211.883 981.228 207.879 981.228 Q206.004 981.228 204.129 981.644 Q202.277 982.061 200.332 982.941 L200.332 965.58 Z" fill="#000000" fill-rule="nonzero" fill-opacity="1" /><path clip-path="url(#clip390)" d="M154.87 800.234 L162.509 800.234 L162.509 773.869 L154.198 775.536 L154.198 771.276 L162.462 769.61 L167.138 769.61 L167.138 800.234 L174.777 800.234 L174.777 804.17 L154.87 804.17 L154.87 800.234 Z" fill="#000000" fill-rule="nonzero" fill-opacity="1" /><path clip-path="url(#clip390)" d="M184.221 798.29 L189.106 798.29 L189.106 804.17 L184.221 804.17 L184.221 798.29 Z" fill="#000000" fill-rule="nonzero" fill-opacity="1" /><path clip-path="url(#clip390)" d="M209.291 772.688 Q205.68 772.688 203.851 776.253 Q202.045 779.795 202.045 786.924 Q202.045 794.031 203.851 797.596 Q205.68 801.137 209.291 801.137 Q212.925 801.137 214.73 797.596 Q216.559 794.031 216.559 786.924 Q216.559 779.795 214.73 776.253 Q212.925 772.688 209.291 772.688 M209.291 768.985 Q215.101 768.985 218.156 773.591 Q221.235 778.174 221.235 786.924 Q221.235 795.651 218.156 800.258 Q215.101 804.841 209.291 804.841 Q203.481 804.841 200.402 800.258 Q197.346 795.651 197.346 786.924 Q197.346 778.174 200.402 773.591 Q203.481 768.985 209.291 768.985 Z" fill="#000000" fill-rule="nonzero" fill-opacity="1" /><path clip-path="url(#clip390)" d="M155.865 604.265 L163.504 604.265 L163.504 577.899 L155.194 579.566 L155.194 575.306 L163.458 573.64 L168.133 573.64 L168.133 604.265 L175.772 604.265 L175.772 608.2 L155.865 608.2 L155.865 604.265 Z" fill="#000000" fill-rule="nonzero" fill-opacity="1" /><path clip-path="url(#clip390)" d="M185.217 602.32 L190.101 602.32 L190.101 608.2 L185.217 608.2 L185.217 602.32 Z" fill="#000000" fill-rule="nonzero" fill-opacity="1" /><path clip-path="url(#clip390)" d="M200.332 573.64 L218.689 573.64 L218.689 577.575 L204.615 577.575 L204.615 586.047 Q205.633 585.7 206.652 585.538 Q207.67 585.353 208.689 585.353 Q214.476 585.353 217.855 588.524 Q221.235 591.695 221.235 597.112 Q221.235 602.69 217.763 605.792 Q214.291 608.871 207.971 608.871 Q205.795 608.871 203.527 608.501 Q201.281 608.13 198.874 607.39 L198.874 602.69 Q200.957 603.825 203.18 604.38 Q205.402 604.936 207.879 604.936 Q211.883 604.936 214.221 602.829 Q216.559 600.723 216.559 597.112 Q216.559 593.501 214.221 591.394 Q211.883 589.288 207.879 589.288 Q206.004 589.288 204.129 589.704 Q202.277 590.121 200.332 591.001 L200.332 573.64 Z" fill="#000000" fill-rule="nonzero" fill-opacity="1" /><path clip-path="url(#clip390)" d="M158.087 408.295 L174.407 408.295 L174.407 412.23 L152.462 412.23 L152.462 408.295 Q155.124 405.54 159.708 400.91 Q164.314 396.258 165.495 394.915 Q167.74 392.392 168.62 390.656 Q169.522 388.897 169.522 387.207 Q169.522 384.452 167.578 382.716 Q165.657 380.98 162.555 380.98 Q160.356 380.98 157.902 381.744 Q155.472 382.508 152.694 384.059 L152.694 379.336 Q155.518 378.202 157.972 377.624 Q160.425 377.045 162.462 377.045 Q167.833 377.045 171.027 379.73 Q174.221 382.415 174.221 386.906 Q174.221 389.036 173.411 390.957 Q172.624 392.855 170.518 395.448 Q169.939 396.119 166.837 399.336 Q163.735 402.531 158.087 408.295 Z" fill="#000000" fill-rule="nonzero" fill-opacity="1" /><path clip-path="url(#clip390)" d="M184.221 406.35 L189.106 406.35 L189.106 412.23 L184.221 412.23 L184.221 406.35 Z" fill="#000000" fill-rule="nonzero" fill-opacity="1" /><path clip-path="url(#clip390)" d="M209.291 380.749 Q205.68 380.749 203.851 384.313 Q202.045 387.855 202.045 394.985 Q202.045 402.091 203.851 405.656 Q205.68 409.197 209.291 409.197 Q212.925 409.197 214.73 405.656 Q216.559 402.091 216.559 394.985 Q216.559 387.855 214.73 384.313 Q212.925 380.749 209.291 380.749 M209.291 377.045 Q215.101 377.045 218.156 381.651 Q221.235 386.235 221.235 394.985 Q221.235 403.711 218.156 408.318 Q215.101 412.901 209.291 412.901 Q203.481 412.901 200.402 408.318 Q197.346 403.711 197.346 394.985 Q197.346 386.235 200.402 381.651 Q203.481 377.045 209.291 377.045 Z" fill="#000000" fill-rule="nonzero" fill-opacity="1" /><path clip-path="url(#clip390)" d="M159.083 212.325 L175.402 212.325 L175.402 216.26 L153.458 216.26 L153.458 212.325 Q156.12 209.57 160.703 204.941 Q165.309 200.288 166.49 198.945 Q168.735 196.422 169.615 194.686 Q170.518 192.927 170.518 191.237 Q170.518 188.482 168.573 186.746 Q166.652 185.01 163.55 185.01 Q161.351 185.01 158.897 185.774 Q156.467 186.538 153.689 188.089 L153.689 183.367 Q156.513 182.232 158.967 181.654 Q161.421 181.075 163.458 181.075 Q168.828 181.075 172.022 183.76 Q175.217 186.445 175.217 190.936 Q175.217 193.066 174.407 194.987 Q173.62 196.885 171.513 199.478 Q170.934 200.149 167.833 203.366 Q164.731 206.561 159.083 212.325 Z" fill="#000000" fill-rule="nonzero" fill-opacity="1" /><path clip-path="url(#clip390)" d="M185.217 210.38 L190.101 210.38 L190.101 216.26 L185.217 216.26 L185.217 210.38 Z" fill="#000000" fill-rule="nonzero" fill-opacity="1" /><path clip-path="url(#clip390)" d="M200.332 181.7 L218.689 181.7 L218.689 185.635 L204.615 185.635 L204.615 194.107 Q205.633 193.76 206.652 193.598 Q207.67 193.413 208.689 193.413 Q214.476 193.413 217.855 196.584 Q221.235 199.755 221.235 205.172 Q221.235 210.751 217.763 213.853 Q214.291 216.931 207.971 216.931 Q205.795 216.931 203.527 216.561 Q201.281 216.19 198.874 215.45 L198.874 210.751 Q200.957 211.885 203.18 212.441 Q205.402 212.996 207.879 212.996 Q211.883 212.996 214.221 210.89 Q216.559 208.783 216.559 205.172 Q216.559 201.561 214.221 199.454 Q211.883 197.348 207.879 197.348 Q206.004 197.348 204.129 197.765 Q202.277 198.181 200.332 199.061 L200.332 181.7 Z" fill="#000000" fill-rule="nonzero" fill-opacity="1" /><path clip-path="url(#clip390)" d="M55.927 730.954 L61.4015 730.954 Q60.0328 733.437 59.3644 735.951 Q58.6642 738.434 58.6642 740.98 Q58.6642 746.678 62.2927 749.829 Q65.8893 752.98 72.4141 752.98 Q78.939 752.98 82.5674 749.829 Q86.1641 746.678 86.1641 740.98 Q86.1641 738.434 85.4957 735.951 Q84.7954 733.437 83.4268 730.954 L88.8377 730.954 Q89.9835 733.405 90.5564 736.047 Q91.1293 738.657 91.1293 741.617 Q91.1293 749.669 86.0686 754.412 Q81.0078 759.154 72.4141 759.154 Q63.6931 759.154 58.696 754.38 Q53.699 749.574 53.699 741.235 Q53.699 738.529 54.2719 735.951 Q54.813 733.373 55.927 730.954 Z" fill="#000000" fill-rule="nonzero" fill-opacity="1" /><path clip-path="url(#clip390)" d="M58.6642 706.956 Q58.6642 711.666 62.3563 714.403 Q66.0166 717.141 72.4141 717.141 Q78.8117 717.141 82.5038 714.435 Q86.1641 711.698 86.1641 706.956 Q86.1641 702.277 82.4719 699.539 Q78.7798 696.802 72.4141 696.802 Q66.0803 696.802 62.3881 699.539 Q58.6642 702.277 58.6642 706.956 M53.699 706.956 Q53.699 699.317 58.6642 694.956 Q63.6295 690.596 72.4141 690.596 Q81.167 690.596 86.1641 694.956 Q91.1293 699.317 91.1293 706.956 Q91.1293 714.626 86.1641 718.987 Q81.167 723.315 72.4141 723.315 Q63.6295 723.315 58.6642 718.987 Q53.699 714.626 53.699 706.956 Z" fill="#000000" fill-rule="nonzero" fill-opacity="1" /><path clip-path="url(#clip390)" d="M68.6902 651.256 L90.2063 651.256 L90.2063 657.112 L68.8812 657.112 Q63.8204 657.112 61.306 659.085 Q58.7915 661.059 58.7915 665.006 Q58.7915 669.748 61.8152 672.485 Q64.8389 675.222 70.0588 675.222 L90.2063 675.222 L90.2063 681.111 L54.5583 681.111 L54.5583 675.222 L60.0965 675.222 Q56.8818 673.122 55.2904 670.289 Q53.699 667.424 53.699 663.701 Q53.699 657.558 57.5184 654.407 Q61.306 651.256 68.6902 651.256 Z" fill="#000000" fill-rule="nonzero" fill-opacity="1" /><path clip-path="url(#clip390)" d="M55.6087 616.849 L61.1468 616.849 Q59.8737 619.332 59.2371 622.005 Q58.6006 624.679 58.6006 627.543 Q58.6006 631.904 59.9373 634.1 Q61.2741 636.264 63.9477 636.264 Q65.9848 636.264 67.1624 634.705 Q68.3083 633.145 69.3586 628.435 L69.8042 626.429 Q71.141 620.191 73.5918 617.581 Q76.0108 614.939 80.3713 614.939 Q85.3365 614.939 88.2329 618.886 Q91.1293 622.801 91.1293 629.676 Q91.1293 632.54 90.5564 635.66 Q90.0153 638.747 88.9013 642.184 L82.8539 642.184 Q84.5408 638.938 85.4002 635.787 Q86.2277 632.636 86.2277 629.549 Q86.2277 625.411 84.8273 623.183 Q83.395 620.955 80.8169 620.955 Q78.4297 620.955 77.1566 622.578 Q75.8834 624.169 74.7058 629.612 L74.2284 631.649 Q73.0825 637.092 70.7272 639.511 Q68.3401 641.93 64.2024 641.93 Q59.1735 641.93 56.4362 638.365 Q53.699 634.8 53.699 628.244 Q53.699 624.997 54.1764 622.132 Q54.6538 619.268 55.6087 616.849 Z" fill="#000000" fill-rule="nonzero" fill-opacity="1" /><path clip-path="url(#clip390)" d="M76.1381 606.218 L54.5583 606.218 L54.5583 600.362 L75.9153 600.362 Q80.976 600.362 83.5223 598.388 Q86.0367 596.415 86.0367 592.468 Q86.0367 587.726 83.013 584.989 Q79.9893 582.219 74.7694 582.219 L54.5583 582.219 L54.5583 576.363 L90.2063 576.363 L90.2063 582.219 L84.7318 582.219 Q87.9783 584.352 89.5697 587.185 Q91.1293 589.986 91.1293 593.71 Q91.1293 599.852 87.3099 603.035 Q83.4905 606.218 76.1381 606.218 M53.699 591.482 L53.699 591.482 Z" fill="#000000" fill-rule="nonzero" fill-opacity="1" /><path clip-path="url(#clip390)" d="M61.4015 536.546 Q57.4547 534.349 55.5768 531.294 Q53.699 528.238 53.699 524.101 Q53.699 518.531 57.6139 515.507 Q61.4969 512.483 68.6902 512.483 L90.2063 512.483 L90.2063 518.371 L68.8812 518.371 Q63.7568 518.371 61.2741 520.186 Q58.7915 522 58.7915 525.724 Q58.7915 530.275 61.8152 532.917 Q64.8389 535.559 70.0588 535.559 L90.2063 535.559 L90.2063 541.447 L68.8812 541.447 Q63.7249 541.447 61.2741 543.261 Q58.7915 545.076 58.7915 548.863 Q58.7915 553.351 61.8471 555.993 Q64.8708 558.635 70.0588 558.635 L90.2063 558.635 L90.2063 564.523 L54.5583 564.523 L54.5583 558.635 L60.0965 558.635 Q56.8182 556.629 55.2586 553.828 Q53.699 551.028 53.699 547.176 Q53.699 543.293 55.6723 540.588 Q57.6457 537.851 61.4015 536.546 Z" fill="#000000" fill-rule="nonzero" fill-opacity="1" /><path clip-path="url(#clip390)" d="M84.8591 495.137 L103.765 495.137 L103.765 501.025 L54.5583 501.025 L54.5583 495.137 L59.9692 495.137 Q56.7863 493.291 55.2586 490.49 Q53.699 487.657 53.699 483.742 Q53.699 477.249 58.8552 473.207 Q64.0114 469.133 72.4141 469.133 Q80.8169 469.133 85.9731 473.207 Q91.1293 477.249 91.1293 483.742 Q91.1293 487.657 89.6015 490.49 Q88.0419 493.291 84.8591 495.137 M72.4141 475.212 Q65.9529 475.212 62.2927 477.886 Q58.6006 480.527 58.6006 485.174 Q58.6006 489.821 62.2927 492.495 Q65.9529 495.137 72.4141 495.137 Q78.8753 495.137 82.5674 492.495 Q86.2277 489.821 86.2277 485.174 Q86.2277 480.527 82.5674 477.886 Q78.8753 475.212 72.4141 475.212 Z" fill="#000000" fill-rule="nonzero" fill-opacity="1" /><path clip-path="url(#clip390)" d="M44.4369 453.632 L54.5583 453.632 L54.5583 441.569 L59.1098 441.569 L59.1098 453.632 L78.4616 453.632 Q82.8221 453.632 84.0634 452.455 Q85.3047 451.245 85.3047 447.585 L85.3047 441.569 L90.2063 441.569 L90.2063 447.585 Q90.2063 454.364 87.6918 456.942 Q85.1455 459.52 78.4616 459.52 L59.1098 459.52 L59.1098 463.817 L54.5583 463.817 L54.5583 459.52 L44.4369 459.52 L44.4369 453.632 Z" fill="#000000" fill-rule="nonzero" fill-opacity="1" /><path clip-path="url(#clip390)" d="M54.5583 433.867 L54.5583 428.01 L90.2063 428.01 L90.2063 433.867 L54.5583 433.867 M40.6811 433.867 L40.6811 428.01 L48.0971 428.01 L48.0971 433.867 L40.6811 433.867 Z" fill="#000000" fill-rule="nonzero" fill-opacity="1" /><path clip-path="url(#clip390)" d="M58.6642 401.943 Q58.6642 406.653 62.3563 409.391 Q66.0166 412.128 72.4141 412.128 Q78.8117 412.128 82.5038 409.422 Q86.1641 406.685 86.1641 401.943 Q86.1641 397.264 82.4719 394.527 Q78.7798 391.789 72.4141 391.789 Q66.0803 391.789 62.3881 394.527 Q58.6642 397.264 58.6642 401.943 M53.699 401.943 Q53.699 394.304 58.6642 389.943 Q63.6295 385.583 72.4141 385.583 Q81.167 385.583 86.1641 389.943 Q91.1293 394.304 91.1293 401.943 Q91.1293 409.613 86.1641 413.974 Q81.167 418.303 72.4141 418.303 Q63.6295 418.303 58.6642 413.974 Q53.699 409.613 53.699 401.943 Z" fill="#000000" fill-rule="nonzero" fill-opacity="1" /><path clip-path="url(#clip390)" d="M68.6902 346.243 L90.2063 346.243 L90.2063 352.099 L68.8812 352.099 Q63.8204 352.099 61.306 354.073 Q58.7915 356.046 58.7915 359.993 Q58.7915 364.735 61.8152 367.472 Q64.8389 370.21 70.0588 370.21 L90.2063 370.21 L90.2063 376.098 L54.5583 376.098 L54.5583 370.21 L60.0965 370.21 Q56.8818 368.109 55.2904 365.276 Q53.699 362.412 53.699 358.688 Q53.699 352.545 57.5184 349.394 Q61.306 346.243 68.6902 346.243 Z" fill="#000000" fill-rule="nonzero" fill-opacity="1" /><path clip-path="url(#clip390)" d="M55.927 288.188 L61.4015 288.188 Q60.0328 290.67 59.3644 293.185 Q58.6642 295.667 58.6642 298.213 Q58.6642 303.911 62.2927 307.062 Q65.8893 310.213 72.4141 310.213 Q78.939 310.213 82.5674 307.062 Q86.1641 303.911 86.1641 298.213 Q86.1641 295.667 85.4957 293.185 Q84.7954 290.67 83.4268 288.188 L88.8377 288.188 Q89.9835 290.638 90.5564 293.28 Q91.1293 295.89 91.1293 298.85 Q91.1293 306.903 86.0686 311.645 Q81.0078 316.388 72.4141 316.388 Q63.6931 316.388 58.696 311.613 Q53.699 306.807 53.699 298.468 Q53.699 295.763 54.2719 293.185 Q54.813 290.606 55.927 288.188 Z" fill="#000000" fill-rule="nonzero" fill-opacity="1" /><polyline clip-path="url(#clip392)" style="stroke:#009af9; stroke-linecap:round; stroke-linejoin:round; stroke-width:4; stroke-opacity:1; fill:none" points="305.014,973.13 305.511,949.324 307.001,929.872 309.485,917.381 312.962,905.504 317.432,893.864 322.896,882.349 329.354,870.91 336.804,859.516 345.249,848.143 354.686,836.764 365.118,825.356 376.542,813.901 388.96,802.377 402.372,790.765 416.777,779.042 432.175,767.187 448.567,755.178 465.953,742.994 484.331,730.612 503.704,718.014 524.069,705.18 545.428,692.094 567.781,678.74 591.127,665.102 615.467,651.168 640.799,636.926 667.126,622.365 694.446,607.477 722.759,592.253 752.066,576.687 782.366,560.772 813.659,544.503 845.946,527.875 879.227,510.886 913.501,493.532 948.768,475.811 985.029,457.722 1022.28,439.262 1060.53,420.434 1099.77,401.236 1140.01,381.672 1181.24,361.745 1223.46,341.461 1266.67,320.819 1310.88,299.818 1356.08,278.454 1402.28,256.726 1449.47,234.631 1497.65,212.166 "/>
<polyline clip-path="url(#clip392)" style="stroke:#e26f46; stroke-linecap:round; stroke-linejoin:round; stroke-width:4; stroke-opacity:1; fill:none" points="305.014,780.413 305.511,779.372 307.001,777.243 309.485,774.126 312.962,770.183 317.432,765.52 322.896,760.207 329.354,754.277 336.804,747.677 345.249,742.459 354.686,738.434 365.118,732.531 376.542,724.54 388.96,716.206 402.372,707.481 416.777,698.357 432.175,688.832 448.567,678.908 465.953,668.585 484.331,657.866 503.704,646.751 524.069,635.24 545.428,623.334 567.781,611.033 591.127,598.336 615.467,585.243 640.799,571.755 667.126,557.87 694.446,543.589 722.759,528.911 752.066,513.838 782.366,498.369 813.659,482.506 845.946,466.25 879.227,449.602 913.501,432.562 948.768,415.132 985.029,397.312 1022.28,379.103 1060.53,360.507 1099.77,341.524 1140.01,322.158 1181.24,302.411 1223.46,282.284 1266.67,261.782 1310.88,240.908 1356.08,219.666 1402.28,198.062 1449.47,176.096 1497.65,153.761 "/>
<polyline clip-path="url(#clip392)" style="stroke:#3da44d; stroke-linecap:round; stroke-linejoin:round; stroke-width:4; stroke-opacity:1; fill:none" points="305.014,691.952 305.511,696.391 307.001,695.291 309.485,693.469 312.962,690.944 317.432,687.737 322.896,683.875 329.354,679.382 336.804,674.288 345.249,668.626 354.686,662.43 365.118,655.719 376.542,648.5 388.96,640.779 402.372,632.567 416.777,623.873 432.175,614.705 448.567,605.071 465.953,594.978 484.331,584.432 503.704,573.438 524.069,562 545.428,550.122 567.781,537.807 591.127,525.059 615.467,511.879 640.799,498.269 667.126,484.232 694.446,469.77 722.759,454.889 752.066,439.596 782.366,423.895 813.659,407.791 845.946,391.287 879.227,374.386 913.501,357.089 948.768,339.395 985.029,321.307 1022.28,302.825 1060.53,283.952 1099.77,264.688 1140.01,245.036 1181.24,224.998 1223.46,204.578 1266.67,183.779 1310.88,162.604 1356.08,141.059 1402.28,119.147 1449.47,96.8667 1497.65,74.2116 "/>
<path clip-path="url(#clip390)" d="M311.375 286.366 L636.52 286.366 L636.52 79.0059 L311.375 79.0059  Z" fill="#ffffff" fill-rule="evenodd" fill-opacity="1"/>
<polyline clip-path="url(#clip390)" style="stroke:#000000; stroke-linecap:round; stroke-linejoin:round; stroke-width:4; stroke-opacity:1; fill:none" points="311.375,286.366 636.52,286.366 636.52,79.0059 311.375,79.0059 311.375,286.366 "/>
<polyline clip-path="url(#clip390)" style="stroke:#009af9; stroke-linecap:round; stroke-linejoin:round; stroke-width:4; stroke-opacity:1; fill:none" points="325.421,130.846 409.701,130.846 "/>
<path clip-path="url(#clip390)" d="M437.59 150.533 Q435.784 155.163 434.071 156.575 Q432.359 157.987 429.488 157.987 L426.085 157.987 L426.085 154.422 L428.585 154.422 Q430.345 154.422 431.317 153.589 Q432.289 152.755 433.47 149.654 L434.234 147.709 L423.747 122.2 L428.261 122.2 L436.363 142.478 L444.465 122.2 L448.979 122.2 L437.59 150.533 Z" fill="#000000" fill-rule="nonzero" fill-opacity="1" /><path clip-path="url(#clip390)" d="M470.483 126.598 L500.159 126.598 L500.159 130.487 L470.483 130.487 L470.483 126.598 M470.483 136.043 L500.159 136.043 L500.159 139.978 L470.483 139.978 L470.483 136.043 Z" fill="#000000" fill-rule="nonzero" fill-opacity="1" /><path clip-path="url(#clip390)" d="M535.321 116.645 Q531.71 116.645 529.881 120.209 Q528.076 123.751 528.076 130.881 Q528.076 137.987 529.881 141.552 Q531.71 145.093 535.321 145.093 Q538.955 145.093 540.761 141.552 Q542.589 137.987 542.589 130.881 Q542.589 123.751 540.761 120.209 Q538.955 116.645 535.321 116.645 M535.321 112.941 Q541.131 112.941 544.187 117.547 Q547.265 122.131 547.265 130.881 Q547.265 139.607 544.187 144.214 Q541.131 148.797 535.321 148.797 Q529.511 148.797 526.432 144.214 Q523.377 139.607 523.377 130.881 Q523.377 122.131 526.432 117.547 Q529.511 112.941 535.321 112.941 Z" fill="#000000" fill-rule="nonzero" fill-opacity="1" /><path clip-path="url(#clip390)" d="M555.483 142.246 L560.367 142.246 L560.367 148.126 L555.483 148.126 L555.483 142.246 Z" fill="#000000" fill-rule="nonzero" fill-opacity="1" /><path clip-path="url(#clip390)" d="M570.599 113.566 L588.955 113.566 L588.955 117.501 L574.881 117.501 L574.881 125.973 Q575.899 125.626 576.918 125.464 Q577.936 125.279 578.955 125.279 Q584.742 125.279 588.122 128.45 Q591.501 131.621 591.501 137.038 Q591.501 142.617 588.029 145.718 Q584.557 148.797 578.237 148.797 Q576.061 148.797 573.793 148.427 Q571.548 148.056 569.14 147.316 L569.14 142.617 Q571.224 143.751 573.446 144.306 Q575.668 144.862 578.145 144.862 Q582.149 144.862 584.487 142.756 Q586.825 140.649 586.825 137.038 Q586.825 133.427 584.487 131.32 Q582.149 129.214 578.145 129.214 Q576.27 129.214 574.395 129.631 Q572.543 130.047 570.599 130.927 L570.599 113.566 Z" fill="#000000" fill-rule="nonzero" fill-opacity="1" /><path clip-path="url(#clip390)" d="M600.853 147.408 L600.853 143.149 Q602.612 143.982 604.418 144.422 Q606.223 144.862 607.959 144.862 Q612.589 144.862 615.02 141.76 Q617.473 138.635 617.82 132.293 Q616.478 134.283 614.418 135.348 Q612.358 136.413 609.858 136.413 Q604.672 136.413 601.64 133.288 Q598.631 130.14 598.631 124.7 Q598.631 119.376 601.779 116.158 Q604.927 112.941 610.158 112.941 Q616.154 112.941 619.302 117.547 Q622.473 122.131 622.473 130.881 Q622.473 139.052 618.584 143.936 Q614.719 148.797 608.168 148.797 Q606.409 148.797 604.603 148.45 Q602.797 148.103 600.853 147.408 M610.158 132.756 Q613.307 132.756 615.135 130.603 Q616.987 128.45 616.987 124.7 Q616.987 120.973 615.135 118.82 Q613.307 116.645 610.158 116.645 Q607.01 116.645 605.159 118.82 Q603.33 120.973 603.33 124.7 Q603.33 128.45 605.159 130.603 Q607.01 132.756 610.158 132.756 Z" fill="#000000" fill-rule="nonzero" fill-opacity="1" /><polyline clip-path="url(#clip390)" style="stroke:#e26f46; stroke-linecap:round; stroke-linejoin:round; stroke-width:4; stroke-opacity:1; fill:none" points="325.421,182.686 409.701,182.686 "/>
<path clip-path="url(#clip390)" d="M437.59 202.373 Q435.784 207.003 434.071 208.415 Q432.359 209.827 429.488 209.827 L426.085 209.827 L426.085 206.262 L428.585 206.262 Q430.345 206.262 431.317 205.429 Q432.289 204.595 433.47 201.494 L434.234 199.549 L423.747 174.04 L428.261 174.04 L436.363 194.318 L444.465 174.04 L448.979 174.04 L437.59 202.373 Z" fill="#000000" fill-rule="nonzero" fill-opacity="1" /><path clip-path="url(#clip390)" d="M470.483 178.438 L500.159 178.438 L500.159 182.327 L470.483 182.327 L470.483 178.438 M470.483 187.883 L500.159 187.883 L500.159 191.818 L470.483 191.818 L470.483 187.883 Z" fill="#000000" fill-rule="nonzero" fill-opacity="1" /><path clip-path="url(#clip390)" d="M526.131 196.031 L533.77 196.031 L533.77 169.665 L525.46 171.332 L525.46 167.073 L533.724 165.406 L538.4 165.406 L538.4 196.031 L546.038 196.031 L546.038 199.966 L526.131 199.966 L526.131 196.031 Z" fill="#000000" fill-rule="nonzero" fill-opacity="1" /><path clip-path="url(#clip390)" d="M555.483 194.086 L560.367 194.086 L560.367 199.966 L555.483 199.966 L555.483 194.086 Z" fill="#000000" fill-rule="nonzero" fill-opacity="1" /><path clip-path="url(#clip390)" d="M580.552 168.485 Q576.941 168.485 575.112 172.049 Q573.307 175.591 573.307 182.721 Q573.307 189.827 575.112 193.392 Q576.941 196.933 580.552 196.933 Q584.186 196.933 585.992 193.392 Q587.821 189.827 587.821 182.721 Q587.821 175.591 585.992 172.049 Q584.186 168.485 580.552 168.485 M580.552 164.781 Q586.362 164.781 589.418 169.387 Q592.497 173.971 592.497 182.721 Q592.497 191.447 589.418 196.054 Q586.362 200.637 580.552 200.637 Q574.742 200.637 571.663 196.054 Q568.608 191.447 568.608 182.721 Q568.608 173.971 571.663 169.387 Q574.742 164.781 580.552 164.781 Z" fill="#000000" fill-rule="nonzero" fill-opacity="1" /><path clip-path="url(#clip390)" d="M599.534 165.406 L621.756 165.406 L621.756 167.397 L609.209 199.966 L604.325 199.966 L616.131 169.341 L599.534 169.341 L599.534 165.406 Z" fill="#000000" fill-rule="nonzero" fill-opacity="1" /><polyline clip-path="url(#clip390)" style="stroke:#3da44d; stroke-linecap:round; stroke-linejoin:round; stroke-width:4; stroke-opacity:1; fill:none" points="325.421,234.526 409.701,234.526 "/>
<path clip-path="url(#clip390)" d="M437.59 254.213 Q435.784 258.843 434.071 260.255 Q432.359 261.667 429.488 261.667 L426.085 261.667 L426.085 258.102 L428.585 258.102 Q430.345 258.102 431.317 257.269 Q432.289 256.435 433.47 253.334 L434.234 251.389 L423.747 225.88 L428.261 225.88 L436.363 246.158 L444.465 225.88 L448.979 225.88 L437.59 254.213 Z" fill="#000000" fill-rule="nonzero" fill-opacity="1" /><path clip-path="url(#clip390)" d="M470.483 230.278 L500.159 230.278 L500.159 234.167 L470.483 234.167 L470.483 230.278 M470.483 239.723 L500.159 239.723 L500.159 243.658 L470.483 243.658 L470.483 239.723 Z" fill="#000000" fill-rule="nonzero" fill-opacity="1" /><path clip-path="url(#clip390)" d="M526.131 247.871 L533.77 247.871 L533.77 221.505 L525.46 223.172 L525.46 218.913 L533.724 217.246 L538.4 217.246 L538.4 247.871 L546.038 247.871 L546.038 251.806 L526.131 251.806 L526.131 247.871 Z" fill="#000000" fill-rule="nonzero" fill-opacity="1" /><path clip-path="url(#clip390)" d="M555.483 245.926 L560.367 245.926 L560.367 251.806 L555.483 251.806 L555.483 245.926 Z" fill="#000000" fill-rule="nonzero" fill-opacity="1" /><path clip-path="url(#clip390)" d="M570.599 217.246 L588.955 217.246 L588.955 221.181 L574.881 221.181 L574.881 229.653 Q575.899 229.306 576.918 229.144 Q577.936 228.959 578.955 228.959 Q584.742 228.959 588.122 232.13 Q591.501 235.301 591.501 240.718 Q591.501 246.297 588.029 249.398 Q584.557 252.477 578.237 252.477 Q576.061 252.477 573.793 252.107 Q571.548 251.736 569.14 250.996 L569.14 246.297 Q571.224 247.431 573.446 247.986 Q575.668 248.542 578.145 248.542 Q582.149 248.542 584.487 246.436 Q586.825 244.329 586.825 240.718 Q586.825 237.107 584.487 235 Q582.149 232.894 578.145 232.894 Q576.27 232.894 574.395 233.311 Q572.543 233.727 570.599 234.607 L570.599 217.246 Z" fill="#000000" fill-rule="nonzero" fill-opacity="1" /><path clip-path="url(#clip390)" d="M600.76 217.246 L619.117 217.246 L619.117 221.181 L605.043 221.181 L605.043 229.653 Q606.061 229.306 607.08 229.144 Q608.098 228.959 609.117 228.959 Q614.904 228.959 618.283 232.13 Q621.663 235.301 621.663 240.718 Q621.663 246.297 618.191 249.398 Q614.719 252.477 608.399 252.477 Q606.223 252.477 603.955 252.107 Q601.709 251.736 599.302 250.996 L599.302 246.297 Q601.385 247.431 603.608 247.986 Q605.83 248.542 608.307 248.542 Q612.311 248.542 614.649 246.436 Q616.987 244.329 616.987 240.718 Q616.987 237.107 614.649 235 Q612.311 232.894 608.307 232.894 Q606.432 232.894 604.557 233.311 Q602.705 233.727 600.76 234.607 L600.76 217.246 Z" fill="#000000" fill-rule="nonzero" fill-opacity="1" /><path clip-path="url(#clip390)" d="M1888.56 1000.1 L3152.76 1000.1 L3152.76 47.2441 L1888.56 47.2441  Z" fill="#ffffff" fill-rule="evenodd" fill-opacity="1"/>
<polyline clip-path="url(#clip391)" style="stroke:#000000; stroke-linecap:round; stroke-linejoin:round; stroke-width:2; stroke-opacity:0.1; fill:none" points="1924.34,1000.1 1924.34,47.2441 "/>
<polyline clip-path="url(#clip391)" style="stroke:#000000; stroke-linecap:round; stroke-linejoin:round; stroke-width:2; stroke-opacity:0.1; fill:none" points="2291.93,1000.1 2291.93,47.2441 "/>
<polyline clip-path="url(#clip391)" style="stroke:#000000; stroke-linecap:round; stroke-linejoin:round; stroke-width:2; stroke-opacity:0.1; fill:none" points="2659.53,1000.1 2659.53,47.2441 "/>
<polyline clip-path="url(#clip391)" style="stroke:#000000; stroke-linecap:round; stroke-linejoin:round; stroke-width:2; stroke-opacity:0.1; fill:none" points="3027.12,1000.1 3027.12,47.2441 "/>
<polyline clip-path="url(#clip391)" style="stroke:#000000; stroke-linecap:round; stroke-linejoin:round; stroke-width:2; stroke-opacity:0.1; fill:none" points="1888.56,956.191 3152.76,956.191 "/>
<polyline clip-path="url(#clip391)" style="stroke:#000000; stroke-linecap:round; stroke-linejoin:round; stroke-width:2; stroke-opacity:0.1; fill:none" points="1888.56,765.24 3152.76,765.24 "/>
<polyline clip-path="url(#clip391)" style="stroke:#000000; stroke-linecap:round; stroke-linejoin:round; stroke-width:2; stroke-opacity:0.1; fill:none" points="1888.56,574.29 3152.76,574.29 "/>
<polyline clip-path="url(#clip391)" style="stroke:#000000; stroke-linecap:round; stroke-linejoin:round; stroke-width:2; stroke-opacity:0.1; fill:none" points="1888.56,383.339 3152.76,383.339 "/>
<polyline clip-path="url(#clip391)" style="stroke:#000000; stroke-linecap:round; stroke-linejoin:round; stroke-width:2; stroke-opacity:0.1; fill:none" points="1888.56,192.389 3152.76,192.389 "/>
<polyline clip-path="url(#clip390)" style="stroke:#000000; stroke-linecap:round; stroke-linejoin:round; stroke-width:4; stroke-opacity:1; fill:none" points="1888.56,1000.1 3152.76,1000.1 "/>
<polyline clip-path="url(#clip390)" style="stroke:#000000; stroke-linecap:round; stroke-linejoin:round; stroke-width:4; stroke-opacity:1; fill:none" points="1924.34,1000.1 1924.34,981.2 "/>
<polyline clip-path="url(#clip390)" style="stroke:#000000; stroke-linecap:round; stroke-linejoin:round; stroke-width:4; stroke-opacity:1; fill:none" points="2291.93,1000.1 2291.93,981.2 "/>
<polyline clip-path="url(#clip390)" style="stroke:#000000; stroke-linecap:round; stroke-linejoin:round; stroke-width:4; stroke-opacity:1; fill:none" points="2659.53,1000.1 2659.53,981.2 "/>
<polyline clip-path="url(#clip390)" style="stroke:#000000; stroke-linecap:round; stroke-linejoin:round; stroke-width:4; stroke-opacity:1; fill:none" points="3027.12,1000.1 3027.12,981.2 "/>
<path clip-path="url(#clip390)" d="M1924.34 1037.42 Q1920.73 1037.42 1918.9 1040.98 Q1917.1 1044.52 1917.1 1051.65 Q1917.1 1058.76 1918.9 1062.32 Q1920.73 1065.87 1924.34 1065.87 Q1927.98 1065.87 1929.78 1062.32 Q1931.61 1058.76 1931.61 1051.65 Q1931.61 1044.52 1929.78 1040.98 Q1927.98 1037.42 1924.34 1037.42 M1924.34 1033.71 Q1930.15 1033.71 1933.21 1038.32 Q1936.29 1042.9 1936.29 1051.65 Q1936.29 1060.38 1933.21 1064.99 Q1930.15 1069.57 1924.34 1069.57 Q1918.53 1069.57 1915.45 1064.99 Q1912.4 1060.38 1912.4 1051.65 Q1912.4 1042.9 1915.45 1038.32 Q1918.53 1033.71 1924.34 1033.71 Z" fill="#000000" fill-rule="nonzero" fill-opacity="1" /><path clip-path="url(#clip390)" d="M2266.62 1064.96 L2274.26 1064.96 L2274.26 1038.6 L2265.95 1040.26 L2265.95 1036 L2274.22 1034.34 L2278.89 1034.34 L2278.89 1064.96 L2286.53 1064.96 L2286.53 1068.9 L2266.62 1068.9 L2266.62 1064.96 Z" fill="#000000" fill-rule="nonzero" fill-opacity="1" /><path clip-path="url(#clip390)" d="M2305.97 1037.42 Q2302.36 1037.42 2300.53 1040.98 Q2298.73 1044.52 2298.73 1051.65 Q2298.73 1058.76 2300.53 1062.32 Q2302.36 1065.87 2305.97 1065.87 Q2309.61 1065.87 2311.41 1062.32 Q2313.24 1058.76 2313.24 1051.65 Q2313.24 1044.52 2311.41 1040.98 Q2309.61 1037.42 2305.97 1037.42 M2305.97 1033.71 Q2311.78 1033.71 2314.84 1038.32 Q2317.92 1042.9 2317.92 1051.65 Q2317.92 1060.38 2314.84 1064.99 Q2311.78 1069.57 2305.97 1069.57 Q2300.16 1069.57 2297.09 1064.99 Q2294.03 1060.38 2294.03 1051.65 Q2294.03 1042.9 2297.09 1038.32 Q2300.16 1033.71 2305.97 1033.71 Z" fill="#000000" fill-rule="nonzero" fill-opacity="1" /><path clip-path="url(#clip390)" d="M2638.3 1064.96 L2654.62 1064.96 L2654.62 1068.9 L2632.68 1068.9 L2632.68 1064.96 Q2635.34 1062.21 2639.92 1057.58 Q2644.53 1052.93 2645.71 1051.58 Q2647.95 1049.06 2648.83 1047.32 Q2649.74 1045.56 2649.74 1043.87 Q2649.74 1041.12 2647.79 1039.38 Q2645.87 1037.65 2642.77 1037.65 Q2640.57 1037.65 2638.12 1038.41 Q2635.68 1039.18 2632.91 1040.73 L2632.91 1036 Q2635.73 1034.87 2638.18 1034.29 Q2640.64 1033.71 2642.68 1033.71 Q2648.05 1033.71 2651.24 1036.4 Q2654.43 1039.08 2654.43 1043.57 Q2654.43 1045.7 2653.62 1047.62 Q2652.84 1049.52 2650.73 1052.12 Q2650.15 1052.79 2647.05 1056 Q2643.95 1059.2 2638.3 1064.96 Z" fill="#000000" fill-rule="nonzero" fill-opacity="1" /><path clip-path="url(#clip390)" d="M2674.43 1037.42 Q2670.82 1037.42 2668.99 1040.98 Q2667.19 1044.52 2667.19 1051.65 Q2667.19 1058.76 2668.99 1062.32 Q2670.82 1065.87 2674.43 1065.87 Q2678.07 1065.87 2679.87 1062.32 Q2681.7 1058.76 2681.7 1051.65 Q2681.7 1044.52 2679.87 1040.98 Q2678.07 1037.42 2674.43 1037.42 M2674.43 1033.71 Q2680.24 1033.71 2683.3 1038.32 Q2686.38 1042.9 2686.38 1051.65 Q2686.38 1060.38 2683.3 1064.99 Q2680.24 1069.57 2674.43 1069.57 Q2668.62 1069.57 2665.55 1064.99 Q2662.49 1060.38 2662.49 1051.65 Q2662.49 1042.9 2665.55 1038.32 Q2668.62 1033.71 2674.43 1033.71 Z" fill="#000000" fill-rule="nonzero" fill-opacity="1" /><path clip-path="url(#clip390)" d="M3015.96 1050.26 Q3019.32 1050.98 3021.19 1053.25 Q3023.09 1055.52 3023.09 1058.85 Q3023.09 1063.97 3019.57 1066.77 Q3016.05 1069.57 3009.57 1069.57 Q3007.4 1069.57 3005.08 1069.13 Q3002.79 1068.71 3000.34 1067.86 L3000.34 1063.34 Q3002.28 1064.48 3004.6 1065.06 Q3006.91 1065.63 3009.43 1065.63 Q3013.83 1065.63 3016.12 1063.9 Q3018.44 1062.16 3018.44 1058.85 Q3018.44 1055.8 3016.29 1054.08 Q3014.16 1052.35 3010.34 1052.35 L3006.31 1052.35 L3006.31 1048.5 L3010.52 1048.5 Q3013.97 1048.5 3015.8 1047.14 Q3017.63 1045.75 3017.63 1043.16 Q3017.63 1040.5 3015.73 1039.08 Q3013.86 1037.65 3010.34 1037.65 Q3008.42 1037.65 3006.22 1038.06 Q3004.02 1038.48 3001.38 1039.36 L3001.38 1035.19 Q3004.04 1034.45 3006.36 1034.08 Q3008.69 1033.71 3010.75 1033.71 Q3016.08 1033.71 3019.18 1036.14 Q3022.28 1038.55 3022.28 1042.67 Q3022.28 1045.54 3020.64 1047.53 Q3018.99 1049.5 3015.96 1050.26 Z" fill="#000000" fill-rule="nonzero" fill-opacity="1" /><path clip-path="url(#clip390)" d="M3041.96 1037.42 Q3038.35 1037.42 3036.52 1040.98 Q3034.71 1044.52 3034.71 1051.65 Q3034.71 1058.76 3036.52 1062.32 Q3038.35 1065.87 3041.96 1065.87 Q3045.59 1065.87 3047.4 1062.32 Q3049.23 1058.76 3049.23 1051.65 Q3049.23 1044.52 3047.4 1040.98 Q3045.59 1037.42 3041.96 1037.42 M3041.96 1033.71 Q3047.77 1033.71 3050.82 1038.32 Q3053.9 1042.9 3053.9 1051.65 Q3053.9 1060.38 3050.82 1064.99 Q3047.77 1069.57 3041.96 1069.57 Q3036.15 1069.57 3033.07 1064.99 Q3030.01 1060.38 3030.01 1051.65 Q3030.01 1042.9 3033.07 1038.32 Q3036.15 1033.71 3041.96 1033.71 Z" fill="#000000" fill-rule="nonzero" fill-opacity="1" /><path clip-path="url(#clip390)" d="M2385.48 1121.31 L2391.34 1121.31 L2398.66 1149.13 L2405.95 1121.31 L2412.86 1121.31 L2420.18 1149.13 L2427.47 1121.31 L2433.32 1121.31 L2424 1156.96 L2417.09 1156.96 L2409.42 1127.74 L2401.72 1156.96 L2394.81 1156.96 L2385.48 1121.31 Z" fill="#000000" fill-rule="nonzero" fill-opacity="1" /><path clip-path="url(#clip390)" d="M2472.69 1137.67 L2472.69 1140.54 L2445.77 1140.54 Q2446.15 1146.59 2449.4 1149.77 Q2452.67 1152.92 2458.5 1152.92 Q2461.87 1152.92 2465.02 1152.09 Q2468.21 1151.26 2471.33 1149.61 L2471.33 1155.15 Q2468.17 1156.48 2464.86 1157.18 Q2461.55 1157.88 2458.15 1157.88 Q2449.62 1157.88 2444.62 1152.92 Q2439.66 1147.95 2439.66 1139.49 Q2439.66 1130.74 2444.37 1125.61 Q2449.11 1120.45 2457.13 1120.45 Q2464.32 1120.45 2468.49 1125.1 Q2472.69 1129.72 2472.69 1137.67 M2466.84 1135.95 Q2466.77 1131.15 2464.13 1128.28 Q2461.52 1125.42 2457.19 1125.42 Q2452.29 1125.42 2449.33 1128.19 Q2446.4 1130.96 2445.96 1135.99 L2466.84 1135.95 Z" fill="#000000" fill-rule="nonzero" fill-opacity="1" /><path clip-path="url(#clip390)" d="M2498.51 1139.04 Q2491.41 1139.04 2488.67 1140.67 Q2485.93 1142.29 2485.93 1146.2 Q2485.93 1149.32 2487.97 1151.17 Q2490.04 1152.98 2493.57 1152.98 Q2498.44 1152.98 2501.37 1149.55 Q2504.33 1146.08 2504.33 1140.35 L2504.33 1139.04 L2498.51 1139.04 M2510.19 1136.62 L2510.19 1156.96 L2504.33 1156.96 L2504.33 1151.55 Q2502.33 1154.8 2499.33 1156.36 Q2496.34 1157.88 2492.01 1157.88 Q2486.54 1157.88 2483.29 1154.83 Q2480.08 1151.74 2480.08 1146.59 Q2480.08 1140.57 2484.09 1137.51 Q2488.13 1134.46 2496.12 1134.46 L2504.33 1134.46 L2504.33 1133.89 Q2504.33 1129.84 2501.66 1127.65 Q2499.02 1125.42 2494.21 1125.42 Q2491.15 1125.42 2488.26 1126.15 Q2485.36 1126.88 2482.69 1128.35 L2482.69 1122.94 Q2485.9 1121.7 2488.93 1121.09 Q2491.95 1120.45 2494.82 1120.45 Q2502.55 1120.45 2506.37 1124.46 Q2510.19 1128.48 2510.19 1136.62 Z" fill="#000000" fill-rule="nonzero" fill-opacity="1" /><path clip-path="url(#clip390)" d="M2522.25 1107.44 L2528.11 1107.44 L2528.11 1156.96 L2522.25 1156.96 L2522.25 1107.44 Z" fill="#000000" fill-rule="nonzero" fill-opacity="1" /><path clip-path="url(#clip390)" d="M2546.15 1111.19 L2546.15 1121.31 L2558.22 1121.31 L2558.22 1125.87 L2546.15 1125.87 L2546.15 1145.22 Q2546.15 1149.58 2547.33 1150.82 Q2548.54 1152.06 2552.2 1152.06 L2558.22 1152.06 L2558.22 1156.96 L2552.2 1156.96 Q2545.42 1156.96 2542.84 1154.45 Q2540.27 1151.9 2540.27 1145.22 L2540.27 1125.87 L2535.97 1125.87 L2535.97 1121.31 L2540.27 1121.31 L2540.27 1111.19 L2546.15 1111.19 Z" fill="#000000" fill-rule="nonzero" fill-opacity="1" /><path clip-path="url(#clip390)" d="M2595.55 1135.45 L2595.55 1156.96 L2589.7 1156.96 L2589.7 1135.64 Q2589.7 1130.58 2587.72 1128.06 Q2585.75 1125.55 2581.8 1125.55 Q2577.06 1125.55 2574.32 1128.57 Q2571.59 1131.59 2571.59 1136.81 L2571.59 1156.96 L2565.7 1156.96 L2565.7 1107.44 L2571.59 1107.44 L2571.59 1126.85 Q2573.69 1123.64 2576.52 1122.05 Q2579.38 1120.45 2583.11 1120.45 Q2589.25 1120.45 2592.4 1124.27 Q2595.55 1128.06 2595.55 1135.45 Z" fill="#000000" fill-rule="nonzero" fill-opacity="1" /><path clip-path="url(#clip390)" d="M2644.15 1139.04 Q2637.06 1139.04 2634.32 1140.67 Q2631.58 1142.29 2631.58 1146.2 Q2631.58 1149.32 2633.62 1151.17 Q2635.69 1152.98 2639.22 1152.98 Q2644.09 1152.98 2647.02 1149.55 Q2649.98 1146.08 2649.98 1140.35 L2649.98 1139.04 L2644.15 1139.04 M2655.84 1136.62 L2655.84 1156.96 L2649.98 1156.96 L2649.98 1151.55 Q2647.97 1154.8 2644.98 1156.36 Q2641.99 1157.88 2637.66 1157.88 Q2632.19 1157.88 2628.94 1154.83 Q2625.73 1151.74 2625.73 1146.59 Q2625.73 1140.57 2629.74 1137.51 Q2633.78 1134.46 2641.77 1134.46 L2649.98 1134.46 L2649.98 1133.89 Q2649.98 1129.84 2647.31 1127.65 Q2644.66 1125.42 2639.86 1125.42 Q2636.8 1125.42 2633.91 1126.15 Q2631.01 1126.88 2628.34 1128.35 L2628.34 1122.94 Q2631.55 1121.7 2634.57 1121.09 Q2637.6 1120.45 2640.46 1120.45 Q2648.2 1120.45 2652.02 1124.46 Q2655.84 1128.48 2655.84 1136.62 Z" fill="#000000" fill-rule="nonzero" fill-opacity="1" /><polyline clip-path="url(#clip390)" style="stroke:#000000; stroke-linecap:round; stroke-linejoin:round; stroke-width:4; stroke-opacity:1; fill:none" points="1888.56,1000.1 1888.56,47.2441 "/>
<polyline clip-path="url(#clip390)" style="stroke:#000000; stroke-linecap:round; stroke-linejoin:round; stroke-width:4; stroke-opacity:1; fill:none" points="1888.56,956.191 1907.46,956.191 "/>
<polyline clip-path="url(#clip390)" style="stroke:#000000; stroke-linecap:round; stroke-linejoin:round; stroke-width:4; stroke-opacity:1; fill:none" points="1888.56,765.24 1907.46,765.24 "/>
<polyline clip-path="url(#clip390)" style="stroke:#000000; stroke-linecap:round; stroke-linejoin:round; stroke-width:4; stroke-opacity:1; fill:none" points="1888.56,574.29 1907.46,574.29 "/>
<polyline clip-path="url(#clip390)" style="stroke:#000000; stroke-linecap:round; stroke-linejoin:round; stroke-width:4; stroke-opacity:1; fill:none" points="1888.56,383.339 1907.46,383.339 "/>
<polyline clip-path="url(#clip390)" style="stroke:#000000; stroke-linecap:round; stroke-linejoin:round; stroke-width:4; stroke-opacity:1; fill:none" points="1888.56,192.389 1907.46,192.389 "/>
<path clip-path="url(#clip390)" d="M1733.46 956.642 L1763.13 956.642 L1763.13 960.577 L1733.46 960.577 L1733.46 956.642 Z" fill="#000000" fill-rule="nonzero" fill-opacity="1" /><path clip-path="url(#clip390)" d="M1783.23 941.99 Q1779.61 941.99 1777.79 945.554 Q1775.98 949.096 1775.98 956.226 Q1775.98 963.332 1777.79 966.897 Q1779.61 970.438 1783.23 970.438 Q1786.86 970.438 1788.67 966.897 Q1790.49 963.332 1790.49 956.226 Q1790.49 949.096 1788.67 945.554 Q1786.86 941.99 1783.23 941.99 M1783.23 938.286 Q1789.04 938.286 1792.09 942.892 Q1795.17 947.476 1795.17 956.226 Q1795.17 964.952 1792.09 969.559 Q1789.04 974.142 1783.23 974.142 Q1777.42 974.142 1774.34 969.559 Q1771.28 964.952 1771.28 956.226 Q1771.28 947.476 1774.34 942.892 Q1777.42 938.286 1783.23 938.286 Z" fill="#000000" fill-rule="nonzero" fill-opacity="1" /><path clip-path="url(#clip390)" d="M1803.39 967.591 L1808.27 967.591 L1808.27 973.471 L1803.39 973.471 L1803.39 967.591 Z" fill="#000000" fill-rule="nonzero" fill-opacity="1" /><path clip-path="url(#clip390)" d="M1829.04 954.327 Q1825.89 954.327 1824.04 956.48 Q1822.21 958.633 1822.21 962.383 Q1822.21 966.11 1824.04 968.286 Q1825.89 970.438 1829.04 970.438 Q1832.18 970.438 1834.01 968.286 Q1835.86 966.11 1835.86 962.383 Q1835.86 958.633 1834.01 956.48 Q1832.18 954.327 1829.04 954.327 M1838.32 939.675 L1838.32 943.934 Q1836.56 943.101 1834.75 942.661 Q1832.97 942.221 1831.21 942.221 Q1826.58 942.221 1824.13 945.346 Q1821.7 948.471 1821.35 954.79 Q1822.72 952.777 1824.78 951.712 Q1826.84 950.624 1829.31 950.624 Q1834.52 950.624 1837.53 953.795 Q1840.56 956.943 1840.56 962.383 Q1840.56 967.707 1837.42 970.925 Q1834.27 974.142 1829.04 974.142 Q1823.04 974.142 1819.87 969.559 Q1816.7 964.952 1816.7 956.226 Q1816.7 948.031 1820.59 943.17 Q1824.48 938.286 1831.03 938.286 Q1832.79 938.286 1834.57 938.633 Q1836.37 938.98 1838.32 939.675 Z" fill="#000000" fill-rule="nonzero" fill-opacity="1" /><path clip-path="url(#clip390)" d="M1733.13 765.692 L1762.81 765.692 L1762.81 769.627 L1733.13 769.627 L1733.13 765.692 Z" fill="#000000" fill-rule="nonzero" fill-opacity="1" /><path clip-path="url(#clip390)" d="M1782.9 751.039 Q1779.29 751.039 1777.46 754.604 Q1775.66 758.145 1775.66 765.275 Q1775.66 772.381 1777.46 775.946 Q1779.29 779.488 1782.9 779.488 Q1786.54 779.488 1788.34 775.946 Q1790.17 772.381 1790.17 765.275 Q1790.17 758.145 1788.34 754.604 Q1786.54 751.039 1782.9 751.039 M1782.9 747.335 Q1788.71 747.335 1791.77 751.942 Q1794.85 756.525 1794.85 765.275 Q1794.85 774.002 1791.77 778.608 Q1788.71 783.192 1782.9 783.192 Q1777.09 783.192 1774.01 778.608 Q1770.96 774.002 1770.96 765.275 Q1770.96 756.525 1774.01 751.942 Q1777.09 747.335 1782.9 747.335 Z" fill="#000000" fill-rule="nonzero" fill-opacity="1" /><path clip-path="url(#clip390)" d="M1803.06 776.641 L1807.95 776.641 L1807.95 782.52 L1803.06 782.52 L1803.06 776.641 Z" fill="#000000" fill-rule="nonzero" fill-opacity="1" /><path clip-path="url(#clip390)" d="M1830.98 752.034 L1819.17 770.483 L1830.98 770.483 L1830.98 752.034 M1829.75 747.96 L1835.63 747.96 L1835.63 770.483 L1840.56 770.483 L1840.56 774.372 L1835.63 774.372 L1835.63 782.52 L1830.98 782.52 L1830.98 774.372 L1815.38 774.372 L1815.38 769.858 L1829.75 747.96 Z" fill="#000000" fill-rule="nonzero" fill-opacity="1" /><path clip-path="url(#clip390)" d="M1735.22 574.741 L1764.89 574.741 L1764.89 578.676 L1735.22 578.676 L1735.22 574.741 Z" fill="#000000" fill-rule="nonzero" fill-opacity="1" /><path clip-path="url(#clip390)" d="M1784.99 560.088 Q1781.37 560.088 1779.55 563.653 Q1777.74 567.195 1777.74 574.325 Q1777.74 581.431 1779.55 584.996 Q1781.37 588.537 1784.99 588.537 Q1788.62 588.537 1790.43 584.996 Q1792.25 581.431 1792.25 574.325 Q1792.25 567.195 1790.43 563.653 Q1788.62 560.088 1784.99 560.088 M1784.99 556.385 Q1790.8 556.385 1793.85 560.991 Q1796.93 565.575 1796.93 574.325 Q1796.93 583.051 1793.85 587.658 Q1790.8 592.241 1784.99 592.241 Q1779.18 592.241 1776.1 587.658 Q1773.04 583.051 1773.04 574.325 Q1773.04 565.575 1776.1 560.991 Q1779.18 556.385 1784.99 556.385 Z" fill="#000000" fill-rule="nonzero" fill-opacity="1" /><path clip-path="url(#clip390)" d="M1805.15 585.69 L1810.03 585.69 L1810.03 591.57 L1805.15 591.57 L1805.15 585.69 Z" fill="#000000" fill-rule="nonzero" fill-opacity="1" /><path clip-path="url(#clip390)" d="M1824.24 587.635 L1840.56 587.635 L1840.56 591.57 L1818.62 591.57 L1818.62 587.635 Q1821.28 584.88 1825.86 580.25 Q1830.47 575.598 1831.65 574.255 Q1833.9 571.732 1834.78 569.996 Q1835.68 568.237 1835.68 566.547 Q1835.68 563.792 1833.73 562.056 Q1831.81 560.32 1828.71 560.32 Q1826.51 560.32 1824.06 561.084 Q1821.63 561.848 1818.85 563.399 L1818.85 558.676 Q1821.67 557.542 1824.13 556.963 Q1826.58 556.385 1828.62 556.385 Q1833.99 556.385 1837.18 559.07 Q1840.38 561.755 1840.38 566.246 Q1840.38 568.375 1839.57 570.297 Q1838.78 572.195 1836.67 574.787 Q1836.1 575.459 1832.99 578.676 Q1829.89 581.871 1824.24 587.635 Z" fill="#000000" fill-rule="nonzero" fill-opacity="1" /><path clip-path="url(#clip390)" d="M1783.39 369.138 Q1779.78 369.138 1777.95 372.703 Q1776.14 376.244 1776.14 383.374 Q1776.14 390.48 1777.95 394.045 Q1779.78 397.587 1783.39 397.587 Q1787.02 397.587 1788.83 394.045 Q1790.66 390.48 1790.66 383.374 Q1790.66 376.244 1788.83 372.703 Q1787.02 369.138 1783.39 369.138 M1783.39 365.434 Q1789.2 365.434 1792.25 370.041 Q1795.33 374.624 1795.33 383.374 Q1795.33 392.101 1792.25 396.707 Q1789.2 401.291 1783.39 401.291 Q1777.58 401.291 1774.5 396.707 Q1771.44 392.101 1771.44 383.374 Q1771.44 374.624 1774.5 370.041 Q1777.58 365.434 1783.39 365.434 Z" fill="#000000" fill-rule="nonzero" fill-opacity="1" /><path clip-path="url(#clip390)" d="M1803.55 394.74 L1808.43 394.74 L1808.43 400.619 L1803.55 400.619 L1803.55 394.74 Z" fill="#000000" fill-rule="nonzero" fill-opacity="1" /><path clip-path="url(#clip390)" d="M1828.62 369.138 Q1825.01 369.138 1823.18 372.703 Q1821.37 376.244 1821.37 383.374 Q1821.37 390.48 1823.18 394.045 Q1825.01 397.587 1828.62 397.587 Q1832.25 397.587 1834.06 394.045 Q1835.89 390.48 1835.89 383.374 Q1835.89 376.244 1834.06 372.703 Q1832.25 369.138 1828.62 369.138 M1828.62 365.434 Q1834.43 365.434 1837.48 370.041 Q1840.56 374.624 1840.56 383.374 Q1840.56 392.101 1837.48 396.707 Q1834.43 401.291 1828.62 401.291 Q1822.81 401.291 1819.73 396.707 Q1816.67 392.101 1816.67 383.374 Q1816.67 374.624 1819.73 370.041 Q1822.81 365.434 1828.62 365.434 Z" fill="#000000" fill-rule="nonzero" fill-opacity="1" /><path clip-path="url(#clip390)" d="M1784.99 178.187 Q1781.37 178.187 1779.55 181.752 Q1777.74 185.294 1777.74 192.423 Q1777.74 199.53 1779.55 203.095 Q1781.37 206.636 1784.99 206.636 Q1788.62 206.636 1790.43 203.095 Q1792.25 199.53 1792.25 192.423 Q1792.25 185.294 1790.43 181.752 Q1788.62 178.187 1784.99 178.187 M1784.99 174.484 Q1790.8 174.484 1793.85 179.09 Q1796.93 183.673 1796.93 192.423 Q1796.93 201.15 1793.85 205.757 Q1790.8 210.34 1784.99 210.34 Q1779.18 210.34 1776.1 205.757 Q1773.04 201.15 1773.04 192.423 Q1773.04 183.673 1776.1 179.09 Q1779.18 174.484 1784.99 174.484 Z" fill="#000000" fill-rule="nonzero" fill-opacity="1" /><path clip-path="url(#clip390)" d="M1805.15 203.789 L1810.03 203.789 L1810.03 209.669 L1805.15 209.669 L1805.15 203.789 Z" fill="#000000" fill-rule="nonzero" fill-opacity="1" /><path clip-path="url(#clip390)" d="M1824.24 205.734 L1840.56 205.734 L1840.56 209.669 L1818.62 209.669 L1818.62 205.734 Q1821.28 202.979 1825.86 198.349 Q1830.47 193.697 1831.65 192.354 Q1833.9 189.831 1834.78 188.095 Q1835.68 186.336 1835.68 184.646 Q1835.68 181.891 1833.73 180.155 Q1831.81 178.419 1828.71 178.419 Q1826.51 178.419 1824.06 179.183 Q1821.63 179.947 1818.85 181.498 L1818.85 176.775 Q1821.67 175.641 1824.13 175.062 Q1826.58 174.484 1828.62 174.484 Q1833.99 174.484 1837.18 177.169 Q1840.38 179.854 1840.38 184.345 Q1840.38 186.474 1839.57 188.396 Q1838.78 190.294 1836.67 192.886 Q1836.1 193.558 1832.99 196.775 Q1829.89 199.97 1824.24 205.734 Z" fill="#000000" fill-rule="nonzero" fill-opacity="1" /><path clip-path="url(#clip390)" d="M1636.28 651.319 L1641.82 651.319 Q1640.55 653.802 1639.91 656.475 Q1639.27 659.149 1639.27 662.014 Q1639.27 666.374 1640.61 668.57 Q1641.95 670.735 1644.62 670.735 Q1646.66 670.735 1647.83 669.175 Q1648.98 667.615 1650.03 662.905 L1650.48 660.9 Q1651.81 654.661 1654.26 652.051 Q1656.68 649.41 1661.04 649.41 Q1666.01 649.41 1668.9 653.356 Q1671.8 657.271 1671.8 664.146 Q1671.8 667.011 1671.23 670.13 Q1670.69 673.217 1669.57 676.655 L1663.53 676.655 Q1665.21 673.408 1666.07 670.257 Q1666.9 667.106 1666.9 664.019 Q1666.9 659.881 1665.5 657.653 Q1664.07 655.425 1661.49 655.425 Q1659.1 655.425 1657.83 657.048 Q1656.55 658.64 1655.38 664.082 L1654.9 666.12 Q1653.75 671.562 1651.4 673.981 Q1649.01 676.4 1644.87 676.4 Q1639.84 676.4 1637.11 672.835 Q1634.37 669.271 1634.37 662.714 Q1634.37 659.467 1634.85 656.603 Q1635.33 653.738 1636.28 651.319 Z" fill="#000000" fill-rule="nonzero" fill-opacity="1" /><path clip-path="url(#clip390)" d="M1652.96 623.883 Q1652.96 630.981 1654.58 633.718 Q1656.2 636.455 1660.12 636.455 Q1663.24 636.455 1665.08 634.418 Q1666.9 632.349 1666.9 628.816 Q1666.9 623.947 1663.46 621.018 Q1659.99 618.058 1654.26 618.058 L1652.96 618.058 L1652.96 623.883 M1650.54 612.202 L1670.88 612.202 L1670.88 618.058 L1665.47 618.058 Q1668.71 620.064 1670.27 623.056 Q1671.8 626.047 1671.8 630.376 Q1671.8 635.851 1668.75 639.097 Q1665.66 642.312 1660.5 642.312 Q1654.49 642.312 1651.43 638.301 Q1648.37 634.259 1648.37 626.27 L1648.37 618.058 L1647.8 618.058 Q1643.76 618.058 1641.56 620.732 Q1639.34 623.374 1639.34 628.18 Q1639.34 631.235 1640.07 634.132 Q1640.8 637.028 1642.26 639.702 L1636.85 639.702 Q1635.61 636.487 1635.01 633.463 Q1634.37 630.44 1634.37 627.575 Q1634.37 619.841 1638.38 616.021 Q1642.39 612.202 1650.54 612.202 Z" fill="#000000" fill-rule="nonzero" fill-opacity="1" /><path clip-path="url(#clip390)" d="M1635.23 604.34 L1635.23 598.134 L1665.15 586.994 L1635.23 575.854 L1635.23 569.647 L1670.88 583.015 L1670.88 590.972 L1635.23 604.34 Z" fill="#000000" fill-rule="nonzero" fill-opacity="1" /><path clip-path="url(#clip390)" d="M1635.23 561.563 L1635.23 555.706 L1670.88 555.706 L1670.88 561.563 L1635.23 561.563 M1621.35 561.563 L1621.35 555.706 L1628.77 555.706 L1628.77 561.563 L1621.35 561.563 Z" fill="#000000" fill-rule="nonzero" fill-opacity="1" /><path clip-path="url(#clip390)" d="M1649.36 513.82 L1670.88 513.82 L1670.88 519.676 L1649.55 519.676 Q1644.49 519.676 1641.98 521.65 Q1639.46 523.623 1639.46 527.57 Q1639.46 532.312 1642.49 535.05 Q1645.51 537.787 1650.73 537.787 L1670.88 537.787 L1670.88 543.675 L1635.23 543.675 L1635.23 537.787 L1640.77 537.787 Q1637.55 535.686 1635.96 532.853 Q1634.37 529.989 1634.37 526.265 Q1634.37 520.122 1638.19 516.971 Q1641.98 513.82 1649.36 513.82 Z" fill="#000000" fill-rule="nonzero" fill-opacity="1" /><path clip-path="url(#clip390)" d="M1652.64 478.681 Q1646.27 478.681 1642.77 481.323 Q1639.27 483.933 1639.27 488.675 Q1639.27 493.386 1642.77 496.028 Q1646.27 498.638 1652.64 498.638 Q1658.97 498.638 1662.47 496.028 Q1665.98 493.386 1665.98 488.675 Q1665.98 483.933 1662.47 481.323 Q1658.97 478.681 1652.64 478.681 M1666.45 472.825 Q1675.56 472.825 1679.98 476.867 Q1684.44 480.909 1684.44 489.248 Q1684.44 492.336 1683.96 495.073 Q1683.51 497.81 1682.56 500.388 L1676.86 500.388 Q1678.26 497.81 1678.93 495.296 Q1679.6 492.781 1679.6 490.171 Q1679.6 484.41 1676.57 481.546 Q1673.58 478.681 1667.5 478.681 L1664.61 478.681 Q1667.76 480.496 1669.32 483.328 Q1670.88 486.161 1670.88 490.108 Q1670.88 496.664 1665.88 500.675 Q1660.88 504.685 1652.64 504.685 Q1644.36 504.685 1639.37 500.675 Q1634.37 496.664 1634.37 490.108 Q1634.37 486.161 1635.93 483.328 Q1637.49 480.496 1640.64 478.681 L1635.23 478.681 L1635.23 472.825 L1666.45 472.825 Z" fill="#000000" fill-rule="nonzero" fill-opacity="1" /><path clip-path="url(#clip390)" d="M1684.44 440.646 L1635.23 440.646 L1635.23 434.79 L1657.38 434.79 Q1662 434.79 1664.35 432.594 Q1666.71 430.397 1666.71 426.101 Q1666.71 421.39 1664.03 419.035 Q1661.36 416.647 1656.01 416.647 L1635.23 416.647 L1635.23 410.791 L1662.67 410.791 Q1664.58 410.791 1665.5 410.25 Q1666.39 409.677 1666.39 408.499 Q1666.39 408.213 1666.23 407.704 Q1666.04 407.194 1665.66 406.303 L1670.37 406.303 Q1671.1 407.608 1671.45 408.786 Q1671.8 409.932 1671.8 411.046 Q1671.8 413.242 1670.56 414.547 Q1669.32 415.852 1666.77 416.329 Q1669.29 417.921 1670.56 420.244 Q1671.8 422.536 1671.8 425.655 Q1671.8 428.901 1670.56 431.193 Q1669.32 433.453 1666.84 434.79 L1684.44 434.79 L1684.44 440.646 Z" fill="#000000" fill-rule="nonzero" fill-opacity="1" /><path clip-path="url(#clip390)" d="M1652.96 382.368 Q1652.96 389.466 1654.58 392.203 Q1656.2 394.94 1660.12 394.94 Q1663.24 394.94 1665.08 392.903 Q1666.9 390.835 1666.9 387.302 Q1666.9 382.432 1663.46 379.504 Q1659.99 376.544 1654.26 376.544 L1652.96 376.544 L1652.96 382.368 M1650.54 370.687 L1670.88 370.687 L1670.88 376.544 L1665.47 376.544 Q1668.71 378.549 1670.27 381.541 Q1671.8 384.532 1671.8 388.861 Q1671.8 394.336 1668.75 397.582 Q1665.66 400.797 1660.5 400.797 Q1654.49 400.797 1651.43 396.786 Q1648.37 392.744 1648.37 384.755 L1648.37 376.544 L1647.8 376.544 Q1643.76 376.544 1641.56 379.217 Q1639.34 381.859 1639.34 386.665 Q1639.34 389.721 1640.07 392.617 Q1640.8 395.513 1642.26 398.187 L1636.85 398.187 Q1635.61 394.972 1635.01 391.949 Q1634.37 388.925 1634.37 386.06 Q1634.37 378.326 1638.38 374.506 Q1642.39 370.687 1650.54 370.687 Z" fill="#000000" fill-rule="nonzero" fill-opacity="1" /><polyline clip-path="url(#clip391)" style="stroke:#009af9; stroke-linecap:round; stroke-linejoin:round; stroke-width:4; stroke-opacity:1; fill:none" points="1924.34,325.865 1924.84,383.339 1926.33,429.177 1928.81,457.024 1932.29,482.344 1936.76,506.055 1942.22,528.428 1948.68,549.585 1956.13,569.597 1964.58,588.529 1974.02,606.443 1984.45,623.394 1995.87,639.431 2008.29,654.601 2021.7,668.954 2036.11,682.544 2051.5,695.424 2067.9,707.648 2085.28,719.267 2103.66,730.334 2123.03,740.897 2143.4,751 2164.76,760.687 2187.11,769.996 2210.46,778.962 2234.8,787.619 2260.13,795.993 2286.45,804.111 2313.77,811.994 2342.09,819.663 2371.39,827.135 2401.69,834.424 2432.99,841.543 2465.28,848.503 2498.56,855.312 2532.83,861.977 2568.1,868.505 2604.36,874.899 2641.61,881.16 2679.86,887.29 2719.1,893.286 2759.34,899.143 2800.56,905.998 2842.79,915.541 2886,925.09 2930.21,934.651 2975.41,944.229 3021.61,953.831 3068.79,963.463 3116.98,973.13 "/>
<polyline clip-path="url(#clip391)" style="stroke:#e26f46; stroke-linecap:round; stroke-linejoin:round; stroke-width:4; stroke-opacity:1; fill:none" points="1924.34,332.686 1924.84,334.705 1926.33,338.342 1928.81,343.354 1932.29,349.347 1936.76,356.062 1942.22,363.327 1948.68,371.065 1956.13,379.401 1964.58,383.339 1974.02,383.339 1984.45,386.882 1995.87,394.478 2008.29,401.878 2021.7,409.197 2036.11,416.457 2051.5,423.662 2067.9,430.808 2085.28,437.891 2103.66,444.908 2123.03,451.858 2143.4,458.739 2164.76,465.551 2187.11,472.294 2210.46,478.969 2234.8,485.575 2260.13,492.113 2286.45,498.585 2313.77,504.99 2342.09,511.329 2371.39,517.601 2401.69,523.802 2432.99,529.932 2465.28,535.987 2498.56,541.965 2532.83,547.865 2568.1,553.685 2604.36,559.422 2641.61,565.074 2679.86,570.637 2719.1,576.109 2759.34,581.483 2800.56,586.755 2842.79,591.918 2886,596.963 2930.21,601.882 2975.41,607.237 3021.61,616.433 3068.79,625.677 3116.98,634.975 "/>
<polyline clip-path="url(#clip391)" style="stroke:#3da44d; stroke-linecap:round; stroke-linejoin:round; stroke-width:4; stroke-opacity:1; fill:none" points="1924.34,85.5401 1924.84,74.2116 1926.33,75.3417 1928.81,77.1997 1932.29,79.7393 1936.76,82.9053 1942.22,86.6377 1948.68,90.8728 1956.13,95.5406 1964.58,100.561 1974.02,105.848 1984.45,111.358 1995.87,117.076 2008.29,122.981 2021.7,129.052 2036.11,135.265 2051.5,141.599 2067.9,148.037 2085.28,154.561 2103.66,161.158 2123.03,167.813 2143.4,174.518 2164.76,181.261 2187.11,188.036 2210.46,194.836 2234.8,201.655 2260.13,208.489 2286.45,215.333 2313.77,222.178 2342.09,229.011 2371.39,235.818 2401.69,242.585 2432.99,249.302 2465.28,255.96 2498.56,262.555 2532.83,269.084 2568.1,275.544 2604.36,281.934 2641.61,288.25 2679.86,294.489 2719.1,300.647 2759.34,306.718 2800.56,312.696 2842.79,318.573 2886,324.342 2930.21,329.993 2975.41,335.516 3021.61,341.709 3068.79,351.927 3116.98,362.257 "/>
<polyline clip-path="url(#clip391)" style="stroke:#808080; stroke-linecap:round; stroke-linejoin:round; stroke-width:4; stroke-opacity:1; fill:none" stroke-dasharray="16, 10" points="624.371,383.339 4416.95,383.339 "/>
<path clip-path="url(#clip390)" d="M2785.47 286.366 L3110.62 286.366 L3110.62 79.0059 L2785.47 79.0059  Z" fill="#ffffff" fill-rule="evenodd" fill-opacity="1"/>
<polyline clip-path="url(#clip390)" style="stroke:#000000; stroke-linecap:round; stroke-linejoin:round; stroke-width:4; stroke-opacity:1; fill:none" points="2785.47,286.366 3110.62,286.366 3110.62,79.0059 2785.47,79.0059 2785.47,286.366 "/>
<polyline clip-path="url(#clip390)" style="stroke:#009af9; stroke-linecap:round; stroke-linejoin:round; stroke-width:4; stroke-opacity:1; fill:none" points="2799.52,130.846 2883.8,130.846 "/>
<path clip-path="url(#clip390)" d="M2911.69 150.533 Q2909.88 155.163 2908.17 156.575 Q2906.45 157.987 2903.58 157.987 L2900.18 157.987 L2900.18 154.422 L2902.68 154.422 Q2904.44 154.422 2905.41 153.589 Q2906.39 152.755 2907.57 149.654 L2908.33 147.709 L2897.84 122.2 L2902.36 122.2 L2910.46 142.478 L2918.56 122.2 L2923.08 122.2 L2911.69 150.533 Z" fill="#000000" fill-rule="nonzero" fill-opacity="1" /><path clip-path="url(#clip390)" d="M2944.58 126.598 L2974.26 126.598 L2974.26 130.487 L2944.58 130.487 L2944.58 126.598 M2944.58 136.043 L2974.26 136.043 L2974.26 139.978 L2944.58 139.978 L2944.58 136.043 Z" fill="#000000" fill-rule="nonzero" fill-opacity="1" /><path clip-path="url(#clip390)" d="M3009.42 116.645 Q3005.81 116.645 3003.98 120.209 Q3002.17 123.751 3002.17 130.881 Q3002.17 137.987 3003.98 141.552 Q3005.81 145.093 3009.42 145.093 Q3013.05 145.093 3014.86 141.552 Q3016.69 137.987 3016.69 130.881 Q3016.69 123.751 3014.86 120.209 Q3013.05 116.645 3009.42 116.645 M3009.42 112.941 Q3015.23 112.941 3018.28 117.547 Q3021.36 122.131 3021.36 130.881 Q3021.36 139.607 3018.28 144.214 Q3015.23 148.797 3009.42 148.797 Q3003.61 148.797 3000.53 144.214 Q2997.47 139.607 2997.47 130.881 Q2997.47 122.131 3000.53 117.547 Q3003.61 112.941 3009.42 112.941 Z" fill="#000000" fill-rule="nonzero" fill-opacity="1" /><path clip-path="url(#clip390)" d="M3029.58 142.246 L3034.46 142.246 L3034.46 148.126 L3029.58 148.126 L3029.58 142.246 Z" fill="#000000" fill-rule="nonzero" fill-opacity="1" /><path clip-path="url(#clip390)" d="M3044.69 113.566 L3063.05 113.566 L3063.05 117.501 L3048.98 117.501 L3048.98 125.973 Q3050 125.626 3051.01 125.464 Q3052.03 125.279 3053.05 125.279 Q3058.84 125.279 3062.22 128.45 Q3065.6 131.621 3065.6 137.038 Q3065.6 142.617 3062.13 145.718 Q3058.65 148.797 3052.33 148.797 Q3050.16 148.797 3047.89 148.427 Q3045.64 148.056 3043.24 147.316 L3043.24 142.617 Q3045.32 143.751 3047.54 144.306 Q3049.76 144.862 3052.24 144.862 Q3056.25 144.862 3058.58 142.756 Q3060.92 140.649 3060.92 137.038 Q3060.92 133.427 3058.58 131.32 Q3056.25 129.214 3052.24 129.214 Q3050.37 129.214 3048.49 129.631 Q3046.64 130.047 3044.69 130.927 L3044.69 113.566 Z" fill="#000000" fill-rule="nonzero" fill-opacity="1" /><path clip-path="url(#clip390)" d="M3074.95 147.408 L3074.95 143.149 Q3076.71 143.982 3078.51 144.422 Q3080.32 144.862 3082.06 144.862 Q3086.69 144.862 3089.12 141.76 Q3091.57 138.635 3091.92 132.293 Q3090.57 134.283 3088.51 135.348 Q3086.45 136.413 3083.95 136.413 Q3078.77 136.413 3075.74 133.288 Q3072.73 130.14 3072.73 124.7 Q3072.73 119.376 3075.88 116.158 Q3079.02 112.941 3084.25 112.941 Q3090.25 112.941 3093.4 117.547 Q3096.57 122.131 3096.57 130.881 Q3096.57 139.052 3092.68 143.936 Q3088.81 148.797 3082.26 148.797 Q3080.5 148.797 3078.7 148.45 Q3076.89 148.103 3074.95 147.408 M3084.25 132.756 Q3087.4 132.756 3089.23 130.603 Q3091.08 128.45 3091.08 124.7 Q3091.08 120.973 3089.23 118.82 Q3087.4 116.645 3084.25 116.645 Q3081.11 116.645 3079.25 118.82 Q3077.43 120.973 3077.43 124.7 Q3077.43 128.45 3079.25 130.603 Q3081.11 132.756 3084.25 132.756 Z" fill="#000000" fill-rule="nonzero" fill-opacity="1" /><polyline clip-path="url(#clip390)" style="stroke:#e26f46; stroke-linecap:round; stroke-linejoin:round; stroke-width:4; stroke-opacity:1; fill:none" points="2799.52,182.686 2883.8,182.686 "/>
<path clip-path="url(#clip390)" d="M2911.69 202.373 Q2909.88 207.003 2908.17 208.415 Q2906.45 209.827 2903.58 209.827 L2900.18 209.827 L2900.18 206.262 L2902.68 206.262 Q2904.44 206.262 2905.41 205.429 Q2906.39 204.595 2907.57 201.494 L2908.33 199.549 L2897.84 174.04 L2902.36 174.04 L2910.46 194.318 L2918.56 174.04 L2923.08 174.04 L2911.69 202.373 Z" fill="#000000" fill-rule="nonzero" fill-opacity="1" /><path clip-path="url(#clip390)" d="M2944.58 178.438 L2974.26 178.438 L2974.26 182.327 L2944.58 182.327 L2944.58 178.438 M2944.58 187.883 L2974.26 187.883 L2974.26 191.818 L2944.58 191.818 L2944.58 187.883 Z" fill="#000000" fill-rule="nonzero" fill-opacity="1" /><path clip-path="url(#clip390)" d="M3000.23 196.031 L3007.87 196.031 L3007.87 169.665 L2999.56 171.332 L2999.56 167.073 L3007.82 165.406 L3012.5 165.406 L3012.5 196.031 L3020.13 196.031 L3020.13 199.966 L3000.23 199.966 L3000.23 196.031 Z" fill="#000000" fill-rule="nonzero" fill-opacity="1" /><path clip-path="url(#clip390)" d="M3029.58 194.086 L3034.46 194.086 L3034.46 199.966 L3029.58 199.966 L3029.58 194.086 Z" fill="#000000" fill-rule="nonzero" fill-opacity="1" /><path clip-path="url(#clip390)" d="M3054.65 168.485 Q3051.04 168.485 3049.21 172.049 Q3047.4 175.591 3047.4 182.721 Q3047.4 189.827 3049.21 193.392 Q3051.04 196.933 3054.65 196.933 Q3058.28 196.933 3060.09 193.392 Q3061.92 189.827 3061.92 182.721 Q3061.92 175.591 3060.09 172.049 Q3058.28 168.485 3054.65 168.485 M3054.65 164.781 Q3060.46 164.781 3063.51 169.387 Q3066.59 173.971 3066.59 182.721 Q3066.59 191.447 3063.51 196.054 Q3060.46 200.637 3054.65 200.637 Q3048.84 200.637 3045.76 196.054 Q3042.7 191.447 3042.7 182.721 Q3042.7 173.971 3045.76 169.387 Q3048.84 164.781 3054.65 164.781 Z" fill="#000000" fill-rule="nonzero" fill-opacity="1" /><path clip-path="url(#clip390)" d="M3073.63 165.406 L3095.85 165.406 L3095.85 167.397 L3083.31 199.966 L3078.42 199.966 L3090.23 169.341 L3073.63 169.341 L3073.63 165.406 Z" fill="#000000" fill-rule="nonzero" fill-opacity="1" /><polyline clip-path="url(#clip390)" style="stroke:#3da44d; stroke-linecap:round; stroke-linejoin:round; stroke-width:4; stroke-opacity:1; fill:none" points="2799.52,234.526 2883.8,234.526 "/>
<path clip-path="url(#clip390)" d="M2911.69 254.213 Q2909.88 258.843 2908.17 260.255 Q2906.45 261.667 2903.58 261.667 L2900.18 261.667 L2900.18 258.102 L2902.68 258.102 Q2904.44 258.102 2905.41 257.269 Q2906.39 256.435 2907.57 253.334 L2908.33 251.389 L2897.84 225.88 L2902.36 225.88 L2910.46 246.158 L2918.56 225.88 L2923.08 225.88 L2911.69 254.213 Z" fill="#000000" fill-rule="nonzero" fill-opacity="1" /><path clip-path="url(#clip390)" d="M2944.58 230.278 L2974.26 230.278 L2974.26 234.167 L2944.58 234.167 L2944.58 230.278 M2944.58 239.723 L2974.26 239.723 L2974.26 243.658 L2944.58 243.658 L2944.58 239.723 Z" fill="#000000" fill-rule="nonzero" fill-opacity="1" /><path clip-path="url(#clip390)" d="M3000.23 247.871 L3007.87 247.871 L3007.87 221.505 L2999.56 223.172 L2999.56 218.913 L3007.82 217.246 L3012.5 217.246 L3012.5 247.871 L3020.13 247.871 L3020.13 251.806 L3000.23 251.806 L3000.23 247.871 Z" fill="#000000" fill-rule="nonzero" fill-opacity="1" /><path clip-path="url(#clip390)" d="M3029.58 245.926 L3034.46 245.926 L3034.46 251.806 L3029.58 251.806 L3029.58 245.926 Z" fill="#000000" fill-rule="nonzero" fill-opacity="1" /><path clip-path="url(#clip390)" d="M3044.69 217.246 L3063.05 217.246 L3063.05 221.181 L3048.98 221.181 L3048.98 229.653 Q3050 229.306 3051.01 229.144 Q3052.03 228.959 3053.05 228.959 Q3058.84 228.959 3062.22 232.13 Q3065.6 235.301 3065.6 240.718 Q3065.6 246.297 3062.13 249.398 Q3058.65 252.477 3052.33 252.477 Q3050.16 252.477 3047.89 252.107 Q3045.64 251.736 3043.24 250.996 L3043.24 246.297 Q3045.32 247.431 3047.54 247.986 Q3049.76 248.542 3052.24 248.542 Q3056.25 248.542 3058.58 246.436 Q3060.92 244.329 3060.92 240.718 Q3060.92 237.107 3058.58 235 Q3056.25 232.894 3052.24 232.894 Q3050.37 232.894 3048.49 233.311 Q3046.64 233.727 3044.69 234.607 L3044.69 217.246 Z" fill="#000000" fill-rule="nonzero" fill-opacity="1" /><path clip-path="url(#clip390)" d="M3074.86 217.246 L3093.21 217.246 L3093.21 221.181 L3079.14 221.181 L3079.14 229.653 Q3080.16 229.306 3081.18 229.144 Q3082.19 228.959 3083.21 228.959 Q3089 228.959 3092.38 232.13 Q3095.76 235.301 3095.76 240.718 Q3095.76 246.297 3092.29 249.398 Q3088.81 252.477 3082.5 252.477 Q3080.32 252.477 3078.05 252.107 Q3075.81 251.736 3073.4 250.996 L3073.4 246.297 Q3075.48 247.431 3077.7 247.986 Q3079.93 248.542 3082.4 248.542 Q3086.41 248.542 3088.75 246.436 Q3091.08 244.329 3091.08 240.718 Q3091.08 237.107 3088.75 235 Q3086.41 232.894 3082.4 232.894 Q3080.53 232.894 3078.65 233.311 Q3076.8 233.727 3074.86 234.607 L3074.86 217.246 Z" fill="#000000" fill-rule="nonzero" fill-opacity="1" /></svg>
